/* XPM */
static char * answer_bad_xpm[] = {
/* width height ncolors chars_per_pixel */
"19 23 3 1",
/* colors */
" 	s None	c None",
".	c red",
"X	c slate grey",
/* pixels */
"                   ",
"  .....       ...  ",
"   ....X     ...XX ",
"    ....X   ...XXX ",
"    ....X   ..XXX  ",
"     ....X ...XX   ",
"     ....X...XXX   ",
"      ......XXX    ",
"      .....XXX     ",
"       ....XX      ",
"       ....X       ",
"      ......X      ",
"     .......X      ",
"     ...X....X     ",
"    ...XX....X     ",
"   ...XXX ....X    ",
"  ...XXX  ....X    ",
"  ..XXX    ....X   ",
" ...XX     ....X   ",
" ..XXX      ....X  ",
" XXXX       XXXXX  ",
"  XX         XXXXX ",
"                   "};
