/* XPM */
static char * deselectall_xpm[] = {
/* width height ncolors chars_per_pixel */
"32 32 9 1",
/* colors */
" 	c red",
".	c white",
"X	c black",
"o	c orange",
"O	c wheat",
"+	c green",
"@	c tan",
"#	c dodger blue",
"$	c cyan",
/* pixels */
"  ............    ............  ",
"   ..........      .......XXX   ",
".   ........   ..   .XXXXXoo   .",
"..   ......   ....   oooooO   oX",
"...   ....   ....Xo   OOOO   OOX",
"....   ..   .....XoO   OO   OOOX",
".....      .....XoOOO      OOOOX",
"......    ......XoOXXX    OOOOX.",
"......    .....XoOOXoX    OOOX..",
".....      ....XoOXXO      OX...",
"....   ..   ..XoOXXX   OO   ....",
"...   ....   .XoOXo   OOOX   ...",
"..   ......   oOXo   oOXX++   ..",
"X   XXXXXXXX   XX   oOX+++++   .",
"            X      XoX+++++++   ",
"            XX    +XX++++++++X  ",
"  XXXXXXXXXX++    ++++++++++++  ",
"   @@@@@@X+++      ++++++++++   ",
"X   @@@ @@X+   XX   XXXXXXXX   X",
"X@   @@ @@X   ####   ######   #X",
"X@@   @      X#####   ####   ##X",
"X@ @    @   +XXXXXXX   XX   XXXX",
"X@ @@      @XX$$X$$X$      $X$$X",
"X@@       @@XX$$X$$X$$    $$X$$X",
"X@@@@@    @@@XXXXXXXXX    XXXXXX",
"XXXXX      XXX$$X$$X$      $X$$X",
"....   ..   .X$$X$$X   $$   X$$X",
"...   ....   XXXXXX   XXXX   XXX",
"..   ......   $$X$   $X$$X$   $X",
".   ........   $X   $$X$$X$$   X",
"   ..........      XXXXXXXXXX   ",
"  ............    ............  "};
