/* XPM */
static char * deselect_xpm[] = {
/* width height ncolors chars_per_pixel */
"32 32 9 1",
/* colors */
" 	c red",
".	c white",
"X	c black",
"o	c orange",
"O	c wheat",
"+	c green",
"@	c tan",
"#	c dodger blue",
"$	c cyan",
/* pixels */
"  ............................  ",
"   .......................XXX   ",
".   .................XXXXXoo   .",
"..   .............XXXoooooO   oX",
"...   ...........XoooOOOOO   OOX",
"....   ..........XoOOOOOO   OOOX",
".....   ........XoOOOXOO   OOOOX",
"......   .......XoOXXXO   OOOOX.",
".......   .....XoOOXoX   OOOOX..",
"........   ....XoOXXO   OOOOX...",
".........   ..XoOXXX   OOOXX....",
"..........   .XoOXo   OOOX+X....",
"...........   oOXo   oOXX+++X...",
"XXXXXXXXXXXX   XX   oOX+++++X...",
"X           X      XoX+++++++X..",
"X           XX    +XX++++++++X..",
"XXXXXXXXXXXX++    ++++++++++++X.",
"X@@@@@@@@X+++      +++++++++++X.",
"X@@@@@@ @@X+   XX   XXXXXXXXXXXX",
"X@@@@@@ @@X   ####   ##########X",
"X@@   @      X#####   #########X",
"X@ @@ @ @   +XXXXXXX   XXXXXXXXX",
"X@ @@ @    @XX$$X$$X$   $X$$X$$X",
"X@@   @   @@XX$$X$$X$$   X$$X$$X",
"X@@@@@   @@@@XXXXXXXXXX   XXXXXX",
"XXXXX   XXXXXX$$X$$X$$X$   $X$$X",
"....   ......X$$X$$X$$X$$   X$$X",
"...   .......XXXXXXXXXXXXX   XXX",
"..   ........X$$X$$X$$X$$X$   $X",
".   .........X$$X$$X$$X$$X$$   X",
"   ..........XXXXXXXXXXXXXXXX   ",
"  ............................  "};
