/* XPM */
static char * down_xpm[] = {
/* width height ncolors chars_per_pixel */
"18 18 5 1",
/* colors */
" 	c blue",
".	c black",
"X	c white",
"o	c orange",
"O	c yellow",
/* pixels */
"                  ",
"                  ",
"      ......      ",
"      Xoooo.      ",
"      Xoooo.      ",
"      XooOo.      ",
"      XOooo.      ",
"      XoOoO.      ",
"      XOoOo.      ",
"      XOOOO.      ",
"    ..XoOOo...    ",
"    XOOOOOOOO.    ",
"     XOOOOOO.     ",
"      XOOOO.      ",
"       XOO.       ",
"        X.        ",
"                  ",
"                  "};
