/* XPM */
static char * emptybook_xpm[] = {
"18 18 5 1",
" 	c blue",
".	c black",
"X	c Red",
"o	c Yellow",
"O	c gray50",
"                  ",
"                  ",
"        ..        ",
"       .XX.       ",
"      .XXXX.      ",
"     .XXXoXX.     ",
"    .XXXoXoXX.    ",
"   .XXXXXoXoX.    ",
"  .XXXXXXXoX..    ",
"  ..XXXXXXX...O   ",
"  ...XXXXX...O    ",
"   ...XXX...O     ",
"    ...X...O      ",
"     .....O       ",
"      ...O        ",
"       .O         ",
"                  ",
"                  "};
