/* XPM */
static char * exit_xpm[] = {
/* width height num_colors chars_per_pixel */
"32 19 2 1",
/* colors */
" 	c lime green",
".	c white",
/* pixels */
"                                ",
"                                ",
"                                ",
"                                ",
"  ....... ..     .. .. ........ ",
"  ..      ..     .. ..    ..    ",
"  ..       ..   ..  ..    ..    ",
"  ..        .. ..   ..    ..    ",
"  ..         ...    ..    ..    ",
"  .......    ...    ..    ..    ",
"  ..        .. ..   ..    ..    ",
"  ..       ..   ..  ..    ..    ",
"  ..       ..   ..  ..    ..    ",
"  ..      ..     .. ..    ..    ",
"  ....... ..     .. ..    ..    ",
"                                ",
"                                ",
"                                ",
"                                "};
