/* XPM */
static char * happy_xpm[] = {
"32 32 3 1",
" 	s None	c None",
".	c black",
"X	c yellow",
"                                ",
"           ..........           ",
"           ..........           ",
"       ....XXXXXXXXXX....       ",
"       ....XXXXXXXXXX....       ",
"       ....XXXXXXXXXX....       ",
"     ..XXXXXXXXXXXXXXXXXX..     ",
"     ..XXXXXXXXXXXXXXXXXX..     ",
"     ..XXXX....XX....XXXX..     ",
"     ..XXXX....XX....XXXX..     ",
"   ..XXXXXX....XX....XXXXXX..   ",
"   ..XXXXXX....XX....XXXXXX..   ",
"   ..XXXXXX....XX....XXXXXX..   ",
"   ..XXXXXX....XX....XXXXXX..   ",
"   ..XXXXXX....XX....XXXXXX..   ",
"   ..XXXXXXXXXXXXXXXXXXXXXX..   ",
"   ..XXXXXXXXXXXXXXXXXXXXXX..   ",
"   ..XXXXXXXXXXXXXXXXXXXXXX..   ",
"   ..XXXXXXXXXXXXXXXXXXXXXX..   ",
"   ..XXXX..XXXXXXXXXX..XXXX..   ",
"   ..XXXX..XXXXXXXXXX..XXXX..   ",
"   ..XXXX..XXXXXXXXXX..XXXX..   ",
"     ..XXXX..........XXXX..     ",
"     ..XXXX..........XXXX..     ",
"     ..XXXXXX......XXXXXX..     ",
"     ..XXXXXX......XXXXXX..     ",
"       ....XXXXXXXXXX....       ",
"       ....XXXXXXXXXX....       ",
"           ..........           ",
"           ..........           ",
"           ..........           ",
"                                "};
