/* XPM */
static char * magnify_xpm[] = {
/* width height ncolors chars_per_pixel */
"32 32 8 1",
/* colors */
" 	s None	c None",
".	c slate grey",
"X	c black",
"o	c cyan",
"O	c grey",
"+	c white",
"@	c navy blue",
"#	c sienna",
/* pixels */
"                                ",
"                                ",
"      .XXXXXX.                  ",
"     XX.o.o.oXX.                ",
"    X.o......ooX.               ",
"   X.o.OOO++OO.oX.              ",
"  X.o.OO++o+O+O.oX              ",
"  Xo.OOo+o+++O+O.X.             ",
"  XoOOO++OOOO+O+O.X             ",
"  XoOOO+OOOO.O.+O.X             ",
"  Xo+OOOOOOOO.@OO.X             ",
"  Xo+OOOOOOOO.@.O.X             ",
"  Xoo+OOOOOO.@..O.X             ",
"  XXoo+OOOO.@..O.X              ",
"  .XXoO++OOOOOO.XX              ",
"  .XXX..+++OO..X#X              ",
"   .XXXXXXXXXXX#OX              ",
"    .XXXXXXXXXX.#OX             ",
"       .XXXXXX X.#OX            ",
"                X.#OX           ",
"                 X.#OX          ",
"                  X.#OX         ",
"                   X.#OX        ",
"                    X.#OX       ",
"                     X.#OX      ",
"                      X.#OX     ",
"                       X.#OX    ",
"                        X.#OX   ",
"                         X.#OX  ",
"                          X#.X  ",
"                           XX   ",
"                                "};
