/* XPM */
static char * notebook_xpm[] = {
"18 18 7 1",
" 	c blue",
".	c black",
"X	c Red",
"o	c Yellow",
"O	c gray50",
"+	c white",
"@	c orange",
"                  ",
"        ..        ",
"       .XX.       ",
"      .XXXX.      ",
"     .XXXoXX.     ",
"    .XXXoXoXX.    ",
"   .XXXXXoXoX.    ",
"  .XXXXXXXoX.O    ",
"  ..XXXXXXX.+.O   ",
"  .+.XXXXX.++.O   ",
"  .++.XXX.+@+.O   ",
"  .+@+.X.+@+.O    ",
"   .+@+.+@+.O     ",
"    .++.++.O      ",
"     .+.+.O       ",
"      ...O        ",
"       .O         ",
"                  "};
