/* XPM */
static char * note_xpm[] = {
"18 18 5 1",
" 	c blue",
".	c black",
"X	c yellow",
"o	c gray50",
"O	c orange",
"                  ",
"                  ",
"   .......        ",
"   .XXXXX..       ",
"   .XoooX.X.      ",
"   .XXXXX....     ",
"   .XooooXoo.o    ",
"   .XOXOXOXO.o    ",
"   .XooooooX.o    ",
"   .OXOXOXOX.o    ",
"   .OooooooO.o    ",
"   .OOOOOOOO.o    ",
"   .OooooooO.o    ",
"   .OOOOOOOO.o    ",
"   ..........o    ",
"    oooooooooo    ",
"                  ",
"                  "};
