/* XPM */
static char * save_xpm[] = {
/* width height ncolors chars_per_pixel */
"32 32 8 1",
/* colors */
" 	s None	c None",
".	c black",
"X	c #808080",
"o	c #C0C0C0",
"O	c white",
"+	c #0000FF",
"@	c #FFFF00",
"#	c #808000",
/* pixels */
"                                ",
"                .               ",
"                .               ",
"                .               ",
"             .......            ",
"              .....             ",
"               ...              ",
"                .               ",
"                X               ",
"               Xo.              ",
"              XOOo.             ",
"         XXXXXOOOOo.            ",
"        XOOOXOOO+OOo.           ",
"       XOo@XOOO+O+OOo.XXX       ",
"       XO@XOOO+O+O+OOo.@@#      ",
"       XOXOOO+O+O+O+OOo.@#.     ",
"     XXoooooooooooooooOo.#.     ",
"    XOOOOOOOOOOOOOOOOO.Oo..     ",
"    Xo@o@o@o@o@o@o@o@o.OOo.     ",
"    X@o@o@o@o@o@o@o@o@X.OOo     ",
"     X@o@o@o@o@o@o@o@o@.Oo.     ",
"     Xo@o@o@o@o@o@o@o@oXX..     ",
"     X@o@o@o@o@o@o@o@o@o.#.     ",
"      X@o@o@o@o@o@o@o@o@.#.     ",
"      Xo@o@o@o@o@o@o@o@oX..     ",
"      X@o@o@o@o@o@o@o@o@o..     ",
"       X@o@o@o@o@o@o@o@o@..     ",
"       Xo@o@o@o@o@o@o@o@oX.     ",
"       X##################.     ",
"        ..................      ",
"                                ",
"                                "};
