/* XPM */
static char * arrows2_xpm[] = {
/* width height ncolors chars_per_pixel */
"32 32 10 1",
/* colors */
" 	s None	c None",
".	c black",
"X	c #770000",
"o	c #005500",
"O	c #007700",
"+	c #00AB00",
"@	c #AB0000",
"#	c green",
"$	c #DC0000",
"%	c red",
/* pixels */
"                                ",
"                                ",
"                                ",
"                                ",
"          .        .            ",
"         ...       ..           ",
"        .....      .X.          ",
"       .ooooo.     .XXX         ",
"      .ooooooo.    .X.X.        ",
"     .ooooooooo.   XX.XX        ",
"    .ooo.ooo.ooo.  .X.X.        ",
"   .OOO..OOO..OOO. .XXX.        ",
"    .O. .OOO. .O.  .XXX.        ",
"     .  .OOO.  .   .XXXX        ",
"        .OOO.      .XXX.        ",
"        .+++.      .@@@.        ",
"        .+++.      .@@@.        ",
"        .+++.      .@@@.        ",
"        .++++   .  .@@@.  .     ",
"        .###.  .$. .$$$. .$.    ",
"        .###. .$$$..$$$..$$$.   ",
"        .#.#.  .$$$.$$$.$$$.    ",
"        ##.##   .$$$$$$$$$.     ",
"        .#.#.    .%%%%%%%.      ",
"        .###      .%%%%%.       ",
"        .#.        .%%%.        ",
"        ##          .%.         ",
"        .            .          ",
"                                ",
"                                ",
"                                ",
"                                "};
