/* XPM */
static char * smallright_xpm[] = {
/* width height ncolors chars_per_pixel */
"13 12 5 1",
/* colors */
" 	c blue",
".	c black",
"X	c white",
"o	c yellow",
"O	c orange",
/* pixels */
"      .      ",
"      .X     ",
"      .oX    ",
" .XXXXXooX   ",
" .oOooOoooX  ",
" .OoOooooooX ",
" .OOooooooo. ",
" .OoOoOooo.  ",
" ......oo.   ",
"      .o.    ",
"      ..     ",
"      .      "};
