/* XPM */
static char * theory_xpm[] = {
/* width height ncolors chars_per_pixel */
"32 32 8 1",
/* colors */
" 	s None	c None",
".	c #800080",
"X	c black",
"o	c #808080",
"O	c #808000",
"+	c #FFFF00",
"@	c #C0C0C0",
"#	c white",
/* pixels */
"                                ",
"                                ",
"                                ",
"                                ",
"               ..X              ",
"              .o..XX            ",
"             .o.....XX          ",
"            .o...OO...XX        ",
"           .o...O++.....XX      ",
"          .o....O++++O....XX    ",
"         .o.....OOO.++O....X    ",
"        .o..........++O...X     ",
"       .o................XX     ",
"      .o................XoX     ",
"     .o................Xo@X     ",
"    .XXX.......+......Xo@@X     ",
"    .XooXX.....O+....Xo@@@XX    ",
"    .X@@ooXX....O...Xo@@@o.X    ",
"    .X@###ooXX.....Xo@@@o.X     ",
"    .X@#####ooXX..Xo@@@o.X      ",
"    ...oo#####ooXXo@@@o.X       ",
"     XX..oo#####oo@@@o.X        ",
"       XX..oo#####@@o.X         ",
"         XX..oo###@o.X          ",
"           XX..oo#o.X           ",
"             XX..o.X            ",
"               XX.X             ",
"                 X              ",
"                                ",
"                                ",
"                                ",
"                                "};
