/* XPM */
static char * up_xpm[] = {
/* width height ncolors chars_per_pixel */
"18 18 5 1",
/* colors */
" 	c blue",
".	c white",
"X	c black",
"o	c yellow",
"O	c orange",
/* pixels */
"                  ",
"                  ",
"        .X        ",
"       .ooX       ",
"      .ooooX      ",
"     .ooooooX     ",
"    .ooooooooX    ",
"    XX.OooOXXX    ",
"      .ooooX      ",
"      .oOoOX      ",
"      .OoOoX      ",
"      .oOOOX      ",
"      .OOoOX      ",
"      .OOOOX      ",
"      .OOOOX      ",
"      XXXXXX      ",
"                  ",
"                  "};
