/* XPM */
static char * fietsrace_gif_xpm[] = {
/* width height ncolors chars_per_pixel */
"64 64 36 1",
/* colors */
" 	c white",
".	c #F0F0F0",
"X	c #F8F8F8",
"o	c #606060",
"O	c #585C58",
"+	c #888888",
"@	c #989898",
"#	c #C0C0C0",
"$	c #D8D8D8",
"%	c #E8E8E8",
"&	c #E0E0E0",
"*	c #686868",
"=	c #909090",
"-	c #505050",
";	c #383838",
":	c #404040",
">	c #303430",
",	c #484848",
"<	c #101010",
"1	c black",
"2	c #B0B0B0",
"3	c #A0A0A0",
"4	c #282828",
"5	c #303030",
"6	c #787878",
"7	c #D0D0D0",
"8	c #A8ACA8",
"9	c #A8A8A8",
"0	c #808080",
"q	c #080808",
"w	c #202020",
"e	c #B8B8B8",
"r	c #181818",
"t	c #707070",
"y	c #C8C8C8",
"u	c #585858",
/* pixels */
"                                                             .  ",
"      X                                                         ",
"  XX    XXX X  XXX XX    XXXX XX   XXXX   X X XXX        X  X   ",
"    XXX      XX       XXX    X  XXX    XXX    XX. XX   X        ",
"  XX   X  X X  XXX XX    XXXX XX   XXXX   X     X .  XX  X  X   ",
"    XX       XX       XXX    X  XXX    XXX XX X        X        ",
"        XX X      X  X        .       X              X  X XX X  ",
"X XX         XX       XXX     . X  XXXX XX XX X  X     X        ",
"  X     XX X      X   X       X        XX       X  X X  X XX X  ",
"    XXXX  X X  X   X     XXXX  X XX X   X X  X XX X  X    X     ",
"        XX X      X   X       X      XX     XX      X     .XX   ",
"    XXXX  X X  X   XX X  XXXX  X        X        XXX.XX X       ",
"    XX    X XXXX  X  X. X    XX    XX    XX.X  . X X.. X XX     ",
" XX  XX           X        X X XXX  X     X.  X   XX   X   XX   ",
"   XX      X  X  X  X  X XX X     XX  XX .X..oO+@ .  X XXX      ",
"       XX X       X#$%&..    XX X XX XXX....*=$..-..  XX  X     ",
" XX  XX  X      X .;:>>,;;:;,%X X    . . .<1<1<;-2>%3  X   XX   ",
"       XX X   XX  X>>45;>;>>5. X.  XX.. .%O6@o*117+%@ X         ",
" XX  XX  X          78--=9$ .....X    . 70*-.6 $*q%@2   X  X    ",
" XX        XXX      XX*07    ..X X.X  .  .O4$6 .@q.0# X  X X    ",
"   XXXX  X       XXX. *2=.XX.X. X .. .X ..7>2@.$*<.@9  XXX  X   ",
"   X       XXX   X   $#ww6>5445>>>;>>;4;>,4<6$@w1#         X    ",
"    X  XX X   XX   X.6-44w5>>4>>>;:>;>>>;>;ww<1*#..X   XX       ",
"   X   X X XXX    X.#64>w$%...%..%.%%%%%.%$<1<6....  X     XX   ",
" X  X     X   XXX   @-@642    X    .X.....$w4e....  X       X   ",
"  X    XX X      X *,>..-;       X .  ....0w408....   X X..     ",
" X  XX X      XX  X2>6..0>XXX XX   .  X. %w@4-0.....   X .X.    ",
"  X    X  X X..XX.0=0.. .4$X XXX   X    =r#.4>-$$%#..X XX%      ",
".  X X .2>r1<<<1<;,4...  w*..     XX.%#Ow2..;44<1<w<1<*3 7  X   ",
"XX  X .=<<>0###=;-q4. X  ,:...  ...X.#7<8%%7ww-*O2@9@,1<@$.     ",
"   XXt<;84-o77#=:w4>>@% .#4%. .. .. @Ow9.$o<=4w=67%6*-O@,<7     ",
"  X ;4@5%@=2%.$%66;40<-  .46.. . . .Ow8.7w;o=*>$#..686.$40<,    ",
"  %O;-0@.%989%@8-4%@-646..->2@02X%6-w.%$<O>67#5629.0#=..663,o   ",
" X6<8*7=%.90@$@@4>.@$,#1@.6w6%%%X%*w@..*4#t767w2o=%@*8.7o%,#<   ",
" %<6-28#7..##@7@>###=7--1.%4w.. .Ow9. %1=o$*98w@$y8o$.29#*%,64  ",
" ;00..7@67@#@@@4@703$.%@-@.w4%%%O<@...-@o..%76*62*@692*26...@2: ",
" <#,.. $%@79@@@4#=$$$$$-#>.O498=<=...#<#37..87O>6=666#8@. .$,2: ",
"%<O229897#967o46@#7@660o-1*;4=960... 41*.#989##5w#:>=*073@9.62: ",
"9>>609=@9@-o<w<4-6*6@@**,q%202#9# X  <w-009@*=8,>-,w-o@6096o*2: ",
"@56%7@7$@%$<<4<;%797=@#$-<#@o0@0#    1>*.$92%#78ow-;5$62807%$2: ",
"@-6....79oo1<<<<<w>;44;;4<>66O22@.  X1,6...#22O*,,*,>6322.  $2: ",
"2w-@692==@Ow@r<;6@66=0-6-<7@6$.*8XX .<>-*63*6@@4o,,:0*9@*9@O*2: ",
"7w-87#97260@0w47@08#@#7@-1.9=6*=8   Xw<o$$92#8-27ou47982#@%.@2: ",
"%q9**9..9@@07o*6@99.78o-812=*=82    X619-07.%oo2*7O0O*72 .80-2: ",
"X420. .9@$8#-4ww>,>-@@99O6.X.$      X%,@*..2#67@22@@76009..%22: ",
" =>#%X9@@9%$7=2#%9@87.##r$   %  XX  X.#4o2.*90967$9*..7@0$.82:  ",
" .<>66 72.7@8#82$.8%86@1w    .     X X w8@o.=8.#@9$@@.%=$2o9<2  ",
"  7wo6@@ .@#2.@#@% =6=>o. X  @97       %1-0- ..@78.829 .66#w*   ",
"    <-=6.8+#. %.67.69w-     X  X X    XX$->9@$8.2..026.76o<;    ",
"    61#2=6#8. .$9@67<1&  X      X  XX  .X$1@=6O.#..68@@67<6.    ",
". X  $w<*78o0066#7-<8. X.       XX   X X XX-<;#@6*66=#64<2      ",
"  X X. .=w1<w5411w8 .X    XX        X       .#>11q<1<<=$        ",
"   X  X.X$et-w-67.X      X .XXX XX    XX      .9@oo0=7     XX   ",
"  XX    .       .    X. . X   X       X XX   X  X    X  X   XX  ",
"   X   X      X   X X   .  X   X  X  X XXX    XX   X    X   XX  ",
"X     X    XX   X        X.        XX X     X   X     X  . X    ",
"..X  X  XX  X     X.   X     XX X X   X          X.     .   X   ",
"..   X    X  X       X   XXXXX X XX XX    XX..    XXX       X   ",
".   X   XX  X          X        X     X  X X     X..   X        ",
"  XX XXX XX      X       XXXXX X X  XX    .     XX  X        X  ",
".    XX  XX      X X  XXX . ...    X   XXX.         X X XXXX X  ",
".   X X       X   X X    X.. .. XX  X   X X  X      X           ",
"   X X X  X  X XX  XX  XX .....      XX   X. X  X     X XXXX    ",
".          XXX  XX XX  .   X.  X   XXX.   X.   X        XX  X   "};
