/* XPM */
static char * boekennodig_gif_xpm[] = {
/* width height ncolors chars_per_pixel */
"64 64 31 1",
/* colors */
" 	c white",
".	c #F8F8F8",
"X	c #F0F4F0",
"o	c #F0F0F0",
"O	c #B8BCB8",
"+	c #080808",
"@	c #383838",
"#	c #E8E8E8",
"$	c #303030",
"%	c #707070",
"&	c #585858",
"*	c #D8D8D8",
"=	c #181818",
"-	c #787878",
";	c #A0A0A0",
":	c #909490",
">	c #606060",
",	c #202020",
"<	c #C8C8C8",
"1	c #505050",
"2	c #404040",
"3	c #888888",
"4	c #989898",
"5	c #C0C0C0",
"6	c #808080",
"7	c #484848",
"8	c #686868",
"9	c #101010",
"0	c #282828",
"q	c #A8ACA8",
"w	c #B8B8B8",
/* pixels */
"                                                                ",
"                                                                ",
"  .                   X .X.X  ooooO+@       XXX.                ",
"                     .X.XX..  o###@+$%   & #oXXX                ",
"  .           ..   . .XooX .  o*$+=-;$%:>+,;#oXX X              ",
"  .                X X.Xoo . .<>++>-$1&2,,@:oXoX.o              ",
"   ...        .. . X.XXoXooXo#+=&;@23&$=,%$4oX...o              ",
" . ...        .    X. XXX. o$+25$,3&6$=&%-$:oo#X o              ",
"  .  .         ..  .  X oX %++;$$%11,+>%%>@6#ooooX              ",
"  .              .X  XXXo1++,3$-$:2+,%>%@+=-*>$&3*              ",
"  . .X           .X  XXo3+++;&6$3@=7>>%>++22>:&$=1              ",
"    .           ..XXo &+++%@,%%,+=%%%>+++%$&%1,=&2              ",
"   ..         ..oX#  =+3&$2$:2,1>%>+++-6@6&,+&%--&              ",
"  .  o         Xoo  +@8$2$%1>+>>&,++=6,,6$=+>>%%%1              ",
" . .           X  +=%3@%23>%+@>&+++>:,&6>,=>%>%%%@              ",
"     o           +9-2@1;&>+$%%++++;$@6>&$>%>%%%%-$              ",
" ..  #          +,&@$-&-=$>%&,+=30$6$&=+&%%%>%>%%$              ",
"   X o         =2%@>;:>++&>>++$-,@6&-$+$>>%%%%>%-$              ",
"     X         22$@--&+>12,+++,=%$6>,$%>%%>%%>>%%@              ",
"  ..           ,2>61,+>>2+++,%$>@;$==%>%>%%%>%>%%@              ",
"     X         +++++>%>++++6$$@%$>+%%>%%%%%%%%>>%$              ",
"     o         %11>->,+=+%%161,$+$>%%>>%%%-%%%%>%@              ",
"   . #        #2-;$&++-$2%1q,%&>%%%%%%%%%%%-%>%%%$              ",
"  .  .        #%%%>$+12%$;>:+,>%-%%%%>%%%%%%%%%%%@              ",
"  .           #>>%>1+$1@3$>,$%>%%%%%%>%%%-%%%%%%%$              ",
"     .        o%>>%>=++++++%%%%%>%-%-%%>%--%%%%%%$              ",
"  .  .        o%%%%%2=+++,2%%%%%%%%>%%%%%%-%%%%%%$              ",
"              o%>%>%$1%>%%%%%%%>%%%%%%>%%%%%>%%%-$              ",
"   ..         X%%%>%2$&@2>%%%%%%%%-%-%%%6%-->6--%$              ",
"   .          o%%%%%&%22%%%%%%%%%%%-%>%%%-%%%%%%-$              ",
"              #%>%%%&%-%%>%%%-%%%-%%%%>----%%6%%-$              ",
"    .         o%>%%>@%%%%%%-%-%%%%%-%%%>%%%%%--%-2              ",
"  .oX         o%%%%%1%%%-%%%-%%>%%--%%%%%%%%%----2              ",
". .. .        X6%>6%1%%%%%%%%-%%%%%%%>%%6%%-%-%%%$              ",
".   .         X-%%>>1%%%%%%%--%%%-%-%%%%-%%%%%%6%@              ",
"o   .         o%%%%%1%%>%>-%%%%>%%--%-%%%%-%-%6%-@              ",
"X             X->%%%&%%%%%%--%%%%-%%-%%%%-%%--%-%@              ",
"  .            %%%%%1--%%%%%%%%%%%%%%%-%%-%-%%---@              ",
"    .          %%>%%2%%%%%%%%%%>%%%%%-%%%-%--%%--@              ",
"    ..        .-%%%%$%%%%%%%%%%%%%%%-%%%%--%-%%---              ",
"              .>%%%%@%---%-%%%%%%%%-%>%%--%-%6-0@o              ",
".  .           >%%-62%%%>%%-%-%%%%6%-%%%-%--%$0X                ",
" X. .         .%%%%%@%%%%%%-%%%>%-%--%%%-6%%>0                  ",
"  XXX.         %%%%%@%%%%%%-%%%%%6-%%%%--%-%0X.                 ",
"XXXoX         .%%%%%,%-%-%-%%%%>%%--%-%%--@0 .  .               ",
".X.. X         %%%%%$%%%%-%%%%%%%--%-%%--%0                     ",
"X X           .%%-%%$-%>%%-%%%%%>%%%--%%-0   .  .               ",
"     .        X>%%%%,%%%%--%>-%%-%--%%-60 X   .  .              ",
"X.  .          &%->%$%%%-%%%-%%%%%--%%%0#  .  .                 ",
"              X&%>%%$%%>%>%-%-%%%>%-%%0#X .  . .                ",
"  . .         *%%>%>$%>%>%-%-%%%%%%-%0#X.    ..                 ",
"              o%%%%3@%%>%>%%-%%>%%--0XXo.      . .              ",
"   . .        .7%%%3@-->>>%%%%%>%%$0XXooX                       ",
"               X>2-2,%->%%%%%%%>@@X.XX.X      . .               ",
"   .            X<>6>%%%%%%%%%%>2*X.oX.X ..      .              ",
"  .             .X  7%%>%%-%-%2>o#X XX   .    . .               ",
"     .          .  o%6-%%%%--%>*#oX..     .      .              ",
"   ...              @%%%%%%%-%XooXXX    .. .  . .               ",
"               .   X2%-%>>%%$w.X.XXX     .    ..                ",
"                . . O&%%%%%@5X.X.o..   ..    .  .               ",
"                      88888                                     ",
"                                                                ",
"                                                                ",
"                                                                "};
