/* XPM */
static char * boekenalle_gif_xpm[] = {
/* width height ncolors chars_per_pixel */
"64 64 37 1",
/* colors */
" 	c white",
".	c #FBFBFB",
"X	c #F6F6F6",
"o	c #EFF3EF",
"O	c #A8A8A8",
"+	c #8F8F8F",
"@	c #EBEBEB",
"#	c #E6E6E6",
"$	c #F0F0F0",
"%	c #BFBFBF",
"&	c #2C2C2C",
"*	c #1C1C1C",
"=	c #989898",
"-	c #C7C7C7",
";	c #868B86",
":	c #D3D7D3",
">	c #EAEEEA",
",	c #4C4C4C",
"<	c #343434",
"1	c #E0E0E0",
"2	c #545454",
"3	c #242424",
"4	c #3A403A",
"5	c #7E7E7E",
"6	c #B8B8B8",
"7	c #B0B0B0",
"8	c #656565",
"9	c #767676",
"0	c #5C5C5C",
"q	c #444444",
"w	c #3C3C3C",
"e	c #BEC3BE",
"r	c #6D6D6D",
"t	c #878787",
"y	c #CDCDCD",
"u	c #A0A0A0",
"i	c #DADADA",
/* pixels */
"                 ..    .  Xo. . o. .                            ",
"         .     . .o.   . .o...X..o                              ",
"  ..   ..        ..        . .  .. . .    ..     ...    ...     ",
"    ...      .  .    ...   ..      .   ...  . ...   ....   ...  ",
"  ..   .... .         ....X.. .           .      ...    ...     ",
"    ...       . .  ... .  .  ...X  ..   ..  . ...   ....   ...  ",
"  .        .   ..  .  .           .. . .   . .                  ",
"   .   ..     .    . ..   .   .  .  . .   .      ...    ...     ",
"      . .   .X.  X...X.oo..oo ..  .    .      .                 ",
"    .  . .   .  .ooO+o@#$XooX..   .        ..     ...       ..  ",
"      . . .    . X%&*=-&;:o$X..   .    .      .          .      ",
"  ...  . . .o  .o&********&>..... .    . . ..     ...       ..  ",
"     .  .....o>=****,&,<***1.o... .  ... . ... ...   .... ..    ",
"      .....o.>23**&<34<*,**5#671.X                ... X     .   ",
".  . .. . o#O****8344**55*******5. .    ... .. ... .X.    .. .  ",
"   ..o.  .5***3<<,,&*5;53&*<,,***;.. ..    .  .        .        ",
"   . ...1&***,<<4<*459,&<<*4*3<&*6XoX             .       .. .  ",
"     >.%<***&&4<0*899**32&,3*<,3*:oXo .  ..   .    . .   .      ",
"    $1<***3&3,0<35543&,*q&33,,,*<#X   .     .     .      ... .  ",
"   o3**&30<48<385<3&83<<33<q44,*,>o..  ..  ... ...  .       .   ",
"   :***3,<4+<*859*&<30<3*<44w4q*8>$....    .      .    . ...    ",
"   &**,&<8<*<5,*<,*<4&*<,w<4wq,*=$o..    .   . .  . .  .    ..  ",
"   &*3<8;<&503<<4w4&*<4,4w,w4,,*:.X.     .  ..  . .. ..  .      ",
"   <*33**00*&<<3&0*3,,,,q4q444<*1.o.     . . .  . ..   .  .. .  ",
" . 4*,<,85*<&,<&,<344,,4,4,,q,<*@oo.. .. X  .  ..    ...        ",
"X. 5*&*,8<<<3<54*4q44,,4q<44,q<*o...  ..  .   .  . .  ..  ..    ",
".  5*9;0*,&<54*<4,qq44q,,,4q,43*o.o..o X..  .   X. ...   .  .   ",
".. +*9;5<*,&<<,,4,,qq,4,4,444,33$o6e1....o..    . . X ...       ",
"   ;*r;5<***&,,,444,4,,4,4qqq43<:O33&;#o... .  .   .     .  ..  ",
"   +*8+;0<<42,4,4,<44,,,4,q,q4****44&***39>. .   .... .. .   .  ",
"   5*0;;9,<,44,4qq,qq4,4,4444,**5OO-66+5&*3*3r6$X  . ..X        ",
"   ;*0++84,<4qq,,,4,qq,qw,,q,,*5O6OO6%OeO93*333<O.. . ..  .     ",
" . 7*0;+5<,<,4,q444q,,,4q4q40;67O666O66676O%O503**3<=:o    .    ",
"   O*85+8,,<4,q,,q<,,,,,,<4OO%%7O666O%O666%O%Oe%6;r33**3ty . .  ",
".o O*95;8,,<4q,,qq4,4,q<O6O%6%6%67OO6%%6%6%%%%%O6%-%O65<**;     ",
"   O*0;59,4<,,,4qq<,,<<O66%O66OO%666O%%%%6%6%66OOO66O66O**<     ",
" o 6*,;;8,q<,q,,444,46OOOO%6%OO66O66O6%676%6%O66OO6%%66***<     ",
" . 6*0t+9,44,,,44<0OOO6%O66O666O67O6%%%%6%%%%6e%6O%6O;*<3*4.    ",
".o e*0++9,,<,,,,48O76O66O6%6e6%%OO%666O6O66%6O66%6O603<,**O  .  ",
"   e*,++5,,<,,,4O76OOOOOO6O66%6e6%666%%66e%66%6OOO6&&,04**.     ",
"   %*<=;9,,<,4,<6O6%OOO6%OOO%O6O666%6676O6O6OO66O<3<5<+&**7  .  ",
".. :*4;t9,,w,,,4O%666Oe6666O%e%%OeO67%6%%6%O%O%O<&00w+&3***=.   ",
"   :*4;+;4q<,,,,%6O6OO6666O66676%%6%6e66666O6O6034,&0<3<&&*3e   ",
".  :*4+;54q<44,,<+OO=O666O666666O6Oe66%66OO66+<&<&<,33&&3**35   ",
".  +*<++5q,<444,,,,&<OO6OOOOO%6%666%O%6%OO%64<,4*,<*&<3*<<&*;   ",
"   0*9+;5,4<w,4,,4<&<<,66O6O66%666Oe6%e66OO5&,5<4<<&&33*49*&:   ",
"   u*0t;54,&q,4,,0<3&&<<<;OOO-%6O66O%%%OO+3<t,<0<3<<&*<,3<*:    ",
"   %**;5;44<44qq,,3*<&3&<&<<O66OO%O%%%%653,u,w0<&<&*<00<,3*O    ",
"   .-4***4,4,,,44****&&3333&<<<OO%O66+O8,+w<8w<3&*3<,,033*3.    ",
"   .oi&**w44,,,4<*4&**3<33333&<&56O%O&=&4,&<&&3&&&<,<&,3*3O. .  ",
"   .o.@**,,4,,<3*;X.:90**3*3333&&&&tO&0&<<q<3&&3<5,35<3*01.     ",
"    ..o3*4,,,<**+.o.X..o=&***&&333&<<&4*&<<*&334,<<,***=.       ",
"     .X<**4,4**4o.>o....X%0***3&3&3&<<3*&,*<&3098,83**,     .   ",
"     ..o-3***3#...  .   .. >%4***3&33&&&3<<&,9;,8<&*3,    .     ",
"          1-#.o. o.        . .X6<***3<3<&&*3O0<5&**<            ",
"    .   .   ..         ... o.. .X.O<***&&<3<<,43**9     .   ..  ",
"     .         ..   .    ..X   .o..1533**&34<<<**;. .   .       ",
" . .. .        ..o.  . . .  .. .o$.  .:;****&33*-.          ..  ",
"   . ... ..  .  ..X...  .  .... ..    ...93**33>...  ....  .    ",
"                                           000              .   ",
"                                                             .  ",
"                                                            .   ",
"                                                             .  ",
"                                                                "};
