/* XPM */
static char * broodfiets_gif_xpm[] = {
/* width height ncolors chars_per_pixel */
"64 64 35 1",
/* colors */
" 	c white",
".	c #F8F8F8",
"X	c #E8E8E8",
"o	c #383838",
"O	c #A0A0A0",
"+	c #C0C0C0",
"@	c #282828",
"#	c #303430",
"$	c #505050",
"%	c #707070",
"&	c #808080",
"*	c #888888",
"=	c #404440",
"-	c #B0B0B0",
";	c #404040",
":	c #909090",
">	c #606060",
",	c #C8C8C8",
"<	c #D0D0D0",
"1	c #989898",
"2	c #A8A8A8",
"3	c #787878",
"4	c #B8B8B8",
"5	c #E0E0E0",
"6	c #D8D8D8",
"7	c #686C68",
"8	c #202420",
"9	c #202020",
"0	c #303030",
"q	c #484848",
"w	c #181C18",
"e	c #101010",
"r	c #181818",
"t	c #080808",
"y	c #585858",
/* pixels */
"                                                                ",
"                                                                ",
"  .   ...   ...   ...   ...   ...  .    .   ...   ...   ...   ..",
"   ...   .     ...   ...   ... ..   ..  Xo  ...   ...   ...   ..",
"  .   ...   ...   ...   ...   .  .     ooo .   ...   ...   ...  ",
"  .    ..      ...   ...        ..  .oo. Xo ...   ...   ...   ..",
"     .    ..             . .     .ooo    .o.                    ",
"  .   ...      ...   ...         .o    . ..o   ...   ...   ...  ",
"     .    ..             . . XXXOo..       oo                   ",
"  .      .  ...   ...  .+@#$%&*$=@-..   .   o  ...   ...   ...  ",
"      .   ..          .;o%&&&:&>:&@,.        o                  ",
"  .      .  ...   ..<$>11O2222O3-O>$ . ..  .  oo  ...   ...   ..",
"   .  ...      ....#&&:OO-44+<-144$<5X.   .   Xo6 ...   ...   ..",
"  .      .  ..   .:7&:O--4<+6<44<+88@@@-.       o.   ...   ...  ",
"  . .. ..      . 9%1O24++<<<664-66O111O:$@+  .  .oo .   ...   ..",
"      .   .. 000#&11224<<6<66621X<<++44-2178+      o            ",
"   ... 00X0004..8&:1-4<66<<X6<--X6<<+<<42:&$8X     o    ...   ..",
"    000  0     .=1:24<6<<<<<<<1X<<<<+<6<+411&@5 .  .oo          ",
"    0    .. .  .$1114+66<<<+<+-5<6+<+<<66+OO118$ ..  .o      .  ",
"  . .0 ..    . XqO124+6<<<<<<<:<<6<<<66<<<22&1*@6  .  o  ..     ",
"     0X  .. .  .0:124+<<666<<<*X<6<<<66<<<+221&:w . .  o     .  ",
"  . ..0 .  .    $:&---+66+6<<<&X<<<<<<<6<<2O11&%#  . . .o  .. ..",
"      .0 .. .  .1&:12--4+6<<<<*.<<<<+<<+44O:&:7==  .    o.   .  ",
"   ..  0 . .  . <w8$#8:O24<<<47<<<<<+4--12&%$e==7.   .   oo   ..",
"   .   0.    . . ro=8o>:2-4<<+$6<6+<-4O1:&8o=$q#:  .. ..  o     ",
"  . . . 0 ..  .  tw;8=w&12-4+<$<<4+4211&>=#$$q@w1    .  . oo  ..",
"   .    .0   .   $0=wo$w71OO44=<++2O:1&oo=oqow=#+     .. . o    ",
"  .  .  . 0      5988@=$#>::1-044211%8t$qqow@==#X  ..       o   ",
"   .      0.   . .o#wo8$$e&%1O#421:&$ro$==9oq$q@. .  ... .  o . ",
"   . .  .  00     Xw8@$w=$w;&&@1::%o;=q$#w=$$$8r.  ..      o. . ",
"    .  . .. 0 . .  .>r@$@o=@y%8&>@8;$q=w=qoq8o;t  .     . oX   .",
"   . .  .   0   ..  <r#=$w=or>@owoo=$=w;;==9#=$w     ... oX   . ",
"    .  . ..  0     . Xw#8=9o;@w$$==$8oo=$@@=$0$<  ..    .o     .",
"  .   .    .  0.   .  6wq9$@0#r=$=89===@@$q@t+      .    o   .  ",
"    .  . ...  0X . .   qw#o$8o8=@8#=qq#@$$o@2   . ..    o   .  .",
"      .     . .0     ...<8ow$ow#$===@0==orO.. .     .  oo    .  ",
"   . .  .  .   0   .  .. 48qw$w$qq8@$$=r1X    .  .   .o.      . ",
"      .        0 .     .  #9oo8$;@#;=#w:            . oo ..  .  ",
"   . .  . .  . 0X  . ...   +9o8@=$=#r4..    .  ...  oo  .     . ",
"  . .  . .      0   .       6rr$#w$4 ..  ...      .o       ..   ",
"   . .  .       0 .. .  ..   O$ro&.. .      .  ..oo     .       ",
"   ..  . ...  . 0   .     .            . ...    0   .      ..  .",
"      .     ..   0    .    .  ...    .  .    .00     ... ..  .  ",
"    .  . ...  .  0  .    .   .   . .. .  ... 0    . .      .. ..",
"    . .     ..  . 0   ..   ..  ..       .  00  ...   ... ..  .  ",
"   ...  .      .  .0 .             .  ..X0.  .     .    .       ",
"  .   .     ..  .  0. ..   .. ...      .0X     ...   ... ..  .  ",
"   ...  .      .   0               . 00      .     .    .       ",
"  .    . ...   . . .0 .. .   .   ..X0   .   . .   .        .. ..",
"   ...  .           0             00   .     .     . .. .       ",
"   .   . ...   . .  0   ...  .  00   .  .   . .   .  .     .. ..",
"      .     . . . . 0. .   .. .0      .  ...   ...     . ..  .  ",
"   .   . ...   . . .00  ...  .0   . ..  .   . .   .  .     .. ..",
"  .   .     . . . .  0 .   .00  .     .  ...   ...     . ..  .  ",
"    ..   .   .        000000       .   .     .      . . .       ",
"   .  .     . . . ..          ...     .  ...   ..  ..  . ..  .  ",
"    ..   .   .             ...     .   .     .    .   . .       ",
"       .. ..   . .   .    .      .. ..  .   . .  .   .     .. ..",
"   ...   .   .         . . ...     .   .     .    .   . .       ",
"       .. .. . . .   .       .   .. ..  .   . .  .   .     .. ..",
"      .  .....  . ... .  .. .. ..     .  ...   ..  ..  . ..  .  ",
"  .    .  ...  . .   . .      .  .. ..  .   . .  .   .     .. ..",
"      .  .        ... .  .. .. ..     .  ...   ..  ..  . ..  .  ",
"  .         ..   .      .  .       .   .     .    .   . .       "};
