/* XPM */
static char * schoensport_gif_xpm[] = {
/* width height ncolors chars_per_pixel */
"64 64 35 1",
/* colors */
" 	c white",
".	c #F0F0F0",
"X	c #F8F8F8",
"o	c #D8D8D8",
"O	c #E8E8E8",
"+	c #909090",
"@	c #808080",
"#	c #C0C0C0",
"$	c #A0A4A0",
"%	c #C8C8C8",
"&	c #C0C4C0",
"*	c #707070",
"=	c #585858",
"-	c #E0E0E0",
";	c #383838",
":	c #D0D0D0",
">	c #686868",
",	c #303030",
"<	c #282828",
"1	c #404040",
"2	c #989898",
"3	c #787878",
"4	c #A8A8A8",
"5	c #101010",
"6	c #080C08",
"7	c #484848",
"8	c #202020",
"9	c #B0B0B0",
"0	c #B8B8B8",
"q	c #181818",
"w	c #585C58",
"e	c #606060",
"r	c #A0A0A0",
"t	c #505050",
"y	c #888888",
/* pixels */
"               .                    .  .                        ",
"   X X                              X            X              ",
"  X X  X    XX X  X   X XXX    XXX     XXX    XX   XX    XXXX  X",
"  X X   XX X        X      XXXX   XX  X   X  X  X    XXXX    XX ",
" X     X    XX X  X   X XXX    XXX  X  XXX    XX   XX    XXXX   ",
"  X X   XX X        X      XXXX   XX  X   X  X  X    XXXX    XX ",
"   X XX   X   X XX X X X             X     XX    XX             ",
"  X X   XX X        X      XXXX   XX  X   X  X  X    XXXX    XX ",
" X X XX   X   X XX X X X             X     XX    XX             ",
"       X    XX X  X   X XXX    XXX  X  XXX    XX   XX    XXXX   ",
"  XXXXX   X   X XX X X X             X     XX    XX             ",
"       X    XX X  X   X XXX    XXX  X  XXX    XX   XX    XXXX   ",
"        XX X        X      XXXX   XXXX    X  X  X    XXXX    XX ",
"XX     X    XX X  X   X XXX    XXX  X  XXX    XX   XX    XXXX   ",
"        XX X        X      XXXX   XX      X  X  X    XXXX    XX ",
" X        X   X XX X X X              X    XX    XX             ",
"  XXXX X    XX X  X   X XXX    X  X   XXXX    XX   XX     .  XX ",
" X    X   X   X XX X X X        X  X.     X X      .    X       ",
"  X X X     X     X .XX XXXX   X  XoO+@# O#  X  X   X       X   ",
" X    X  X X  X.    X X           XOo   .O#$ X       XXX  X  XX ",
"  X X   .        XX     XX   . X   %&  X   *  X X X X    X.XX  X",
"  X X     XX  X  XX X X    X XX  X + X     ..    X XX  =O .  XX ",
"   X X  XX  XX     X X X    XX  -O.;      X#O      X   :+       ",
"  X X XX  XX   X    X      X X->,<1, . X   2  XX X .  .O2 XX XX ",
" X X X  XX  XXXX   X X X    XX,*O3:,<*4OO..: X       O@ $ X     ",
"                XXX   X XXX   o=<567o<817.:*2$9404@*o   4X  X   ",
"  XXXX  XX  XXXX   X X X    XO3=q7><q85w;$X o:::0%o   XXo       ",
"                XXX   X    Xe1q51;w1338+@#$**O.     XX #  X     ",
"XX    XX  XX        X  X O+4*<#Oo<4;2X&=04040443roX..X.;    X X ",
"                XXX   X X*o;8,8;w<@oOOOq0000##04r*>t7w**        ",
"      XX            X %@0*7* o8+7.. $q;20#0$##400004##0w    X X ",
"  XXXX  XX  XX     X9*..*O#7<O&4 O05@q8100&4#&#4#4#4#0#<  X  X  ",
"  XXXX    X XX . .3+0*4..00Or.XO<51e84<q>00000444440000*        ",
" X    X    X  O..=3*+#+wO     9;@qq:5w$q*049040#&#04##w+     X  ",
"  XXXX  X  X O>**    .2*0y*@@**<57q8*q;88004404004040*.0       X",
" X      XXX4>#0*         *4&90r7qq+q$qq+qw00$40##444+O .   XX X ",
"  XXXXXXX #+049>4  X     0#0&44@+q1q;<8$qw24000#409w. X   X    X",
"  X X   XX0#04##0>2-....0w##04007<q@52q753=0#9004r+   +  XXXX X ",
"       X &e0000000#9#00##040004#4*87q3,q8;*0440>:    X# X    X  ",
"  X X  X.rq&#4000#00000##4#000#04==qq*3q1<*r4@>o     +X    XX X ",
" X       %,834#00#0##00400044$004@;q1<@q<5;3>O   XO@8>  X    X  ",
"   X X  X <,<q*0#4&0040$000404#00415<<<8<,<88888<<,>O    XX     ",
"  X X     4,<,8,>4004400#0#044449>88,@0:OOOo:0&::oO     X    XX ",
"        X  .o7<,<,<8;@2$0#0443,<<<*O.                    XX     ",
"  XXXXXX  XX  Xo$w<8,,,<<,<<,<<=o  .X     XXXX     XX XX   XX   ",
" X      X         o&*1<88<8<;@o..     XXXX       XX      XX     ",
"  XXXXXX  XX   X    X            X        XXXX     XX XX   XX   ",
" X       X       X X     XX    XX     XX      XXX    X  X    XX ",
"        X   XXX    X    X     XX  XX    XX       XX      XX     ",
"  X X    X      XXX    X  X    X              XXX  XX   X    XX ",
"        X   XX          XX  X      X   XXX       XX      XX     ",
"   X XXX  XX   X  X XXX XX X   XXX   X    XXXX     X XXX   XX  X",
" X      X   XX              XXX        XXX       XX      XX     ",
"   X XXX  XX   X  X XXX XX X X XXX   X  X XXXX   XXX XXX   XX   ",
" X       X    X XX X   XX     X     X  XX           X   X    XX ",
"   X XXX  XX      X XXX        XXX    X    XX  XX XX XXX   XX   ",
"         X       X X   XX  X   X X    X X     X     X X  X   XX ",
"  X X   X   XXXX         XX X  XX          X X   X.  XXXX X    X",
"         X       X X   XX  X   X        XX    X    XX    X   XX ",
" X      X   XXXX         X       X    X   X      XX  XXXX X     ",
"  XXXXXX  XX    X X XXX    XXXX   XXXX X       XX          XX   ",
"        X     XX         XX      X    X   XXXXX  XX  XXXX X     ",
"  XXXXXX        X X XXX    XXXX   XXXX      X X  X       X  X   ",
" X          XX   X X   XX      XX          X   X   XX      X XX "};
