/* XPM */
static char * fietssnel_gif_xpm[] = {
/* width height ncolors chars_per_pixel */
"64 64 34 1",
/* colors */
" 	c white",
".	c #F8F8F8",
"X	c #E0E0E0",
"o	c #D8D8D8",
"O	c #202020",
"+	c #080808",
"@	c #E8ECE8",
"#	c #F0F0F0",
"$	c #E8E8E8",
"%	c #888888",
"&	c #A0A0A0",
"*	c #101010",
"=	c #B0B0B0",
"-	c #686868",
";	c #989898",
":	c #303030",
">	c #585858",
",	c #606060",
"<	c #505050",
"1	c #C8C8C8",
"2	c #686C68",
"3	c #181818",
"4	c #404040",
"5	c #707070",
"6	c #B8B8B8",
"7	c #D0D4D0",
"8	c #282828",
"9	c #787878",
"0	c #383838",
"q	c #C0C0C0",
"w	c #D0D0D0",
"e	c #909090",
"r	c #A8A8A8",
"t	c #808080",
/* pixels */
"      .  .     .  . ... . ...X..           .                    ",
"           . .       .. ...oO+++       .  .    .  ..            ",
"  . .      .       . . .@#$%++++...           .                 ",
" .@          ...    .     .&*+++=-;..          . ...            ",
"  .        .        .     ..=+:>,>,>:<1   . ..  .               ",
"             ... ..   .. .#$&>>>2,,>><3.       . ...            ",
"           .   ..   .  ...,,,2,>4>O::>,34. ...  .               ",
"... .       .         .-;>>>>4:4OO:444O3: .   .                 ",
"  . .      .  ..    .  +54>4O4:44:4444:67   ..  .  .            ",
"            .     .    .:3>O4::O333::42   .   .  .              ",
"    .        .  .  .  ..O>>O4:4++++++3..  .    ..               ",
"  .        .      .    .424:4:<344<<<:.    .  .   ..            ",
" ..             .   .. $:4@3>>>>>><<>>X  .     .                ",
"               . .  .   ...,2,><O3<>>>8%  . .. ..               ",
"           .. .. .   .  .@.2,>>3+*:>>>>>.         ..            ",
"    .          .   .  . ...9>:>43X7,>45Oo  ....                 ",
"  ..        .    .    .   .02><X:@$O4>>OX  .   ..               ",
"           .    .  .      @>,,=.3@@;++<4@     .                 ",
"           ..      .    . 7>,26.3oo;++31.  ..  ..               ",
"    .         .. .  .   ..>>4>.o*2543*=...   .   ...            ",
"    .      ..       .   ..4>:<Xo*XX+++o.#   .  ..               ",
"  ..          ..    .   ..>>>:q&,;X+++#..    .   ...            ",
"    .        .  ..    . #X>:q717q;45:9 @@     .                 ",
"              .. . .. . #6:5ow7o16q9@ .#. .  .    .             ",
"   .         .  .    .  =<==622,@11q@ .                         ",
"           ..    .  . . %;;e===q2q@Xe=@.    . . .  .            ",
"  ..         .  .  . . o>;.==1===>>X6;..  .    .                ",
"            .   ..  . $1@..@#.@$oqe;7w@. . .. . .  .            ",
". ..          ..  .. #=@@ .>;>&6=1o6%%&@    . .  ..             ",
"  .         .       .25....;@%1Xo..@.@==   . .  .  .            ",
"   .          ..  ..@. .@#.@..@......#.e1.     . ..             ",
"  .          .  ..q,q%2o%75;e1@@... . .=2>                      ",
"   .          ..  ,1;15o176o1<>=.#.. .#. 7#.  .. ..             ",
"           . .  .$:=6X@o .@#@XXe.#..   ...1=;                   ",
"  .            #.,5@@@ .  #.w%5>;22oq$.@ .  9    ..             ",
"    .      . .  .=..#. ..1e5X.X@@..&.=X99.   1                  ",
"   .        . Xq2%...   o;.# .......... .22&.2=1                ",
"    .      . .549.  .   .@@  ... ..#@.   =$;.  ;                ",
"            .r6        ..@@  @.. ......@.  .eq,,. .             ",
"    .       %wo       .   .XX...@.     .@@    .$; .             ",
"   .        5o    . .     .o77@.@.     ....  ..==               ",
"  . .       r4X   . . ..o777177wX.. .......  . .r>              ",
"   .       .=  .       #ow11117oq7qo.@.        .61              ",
"  .         1   .     .Xq71q51171qo1@..     .  oqq              ",
"   .        =      ...11e:99,9o757;oooX. ..   Xq14              ",
"           #&7   ..  .o&>;%%%e,,55%>6r  .     #=112.            ",
"   .       =oX .   .. 7>9%%99e%5%9%5,2... .    =q12             ",
"  .        1@o . .. .wt%5%ee%%9et9eeee:.. . .  67o>.            ",
"   .       o#o$ . .. .9%e9%e%%e;99%%%%q@.     oq7=@.            ",
"  .        9Xo   . . o2e%ee%%e%e%%9%;;4#... . #=7qq.            ",
"           %X..  .  .@-o%%%e%%e9%%e%;7=     . #=1>X             ",
"           ,7X       X2.%%%eeeee%e97@6.... . .==o7&             ",
"           57wX    ..1t9;%;%9e%%55%X95.. .   1q=qX&             ",
"  ..        e2X   .    6=o@=;=ee%9>>....    .66=7=              ",
"    .        eo    ..   #@o@# ..@5Xo.. .  Xq666=o6              ",
"  .          q@   . #   ..11q.o6=;6=$...  16==66&5 .            ",
"    .         5qoo1q6   ..===6===&==6o.1=q666=6=;  .            ",
"           ..  1;1q==6=617===66======6===6==66q;                ",
"   .         . .>==7====&=====6=====6=6===6=677;  ..            ",
"           ..  .##>%o216=====6======6=6====&1227  .             ",
"  ..       .   .   .7X21=1=7q71666=6=6;==q>ow1                  ",
"   .              .   o>=e>71wX71=1=q14q7e=2,                   ",
"             ...  .        &eX5;4&<%9; 7o.     ..  .            ",
"   .                                             .              "};
