/* XPM */
static char * fietsvrienden_gif_xpm[] = {
/* width height ncolors chars_per_pixel */
"64 64 33 1",
/* colors */
" 	c white",
".	c #F8F8F8",
"X	c #F6F6F6",
"o	c #515151",
"O	c #363636",
"+	c #374537",
"@	c #7B7B7B",
"#	c #BCBCBC",
"$	c #A0A0A0",
"%	c #A9A9A9",
"&	c #848484",
"*	c #595959",
"=	c #3A3A3A",
"-	c #D4D4D4",
";	c #EEEEEE",
":	c #5D655D",
">	c #C4C4C4",
",	c #B3B3B3",
"<	c #8C928C",
"1	c #494949",
"2	c #E2E2E2",
"3	c #B1B7B1",
"4	c #E8E8E8",
"5	c #727272",
"6	c #696969",
"7	c #979797",
"8	c #616161",
"9	c #8D8D8D",
"0	c #F2F2F2",
"q	c #414141",
"w	c #CAD0CA",
"e	c #DCDCDC",
"r	c #CCCCCC",
/* pixels */
"                                                                ",
"                                                               .",
"                                                               .",
"                                                               .",
"                                                               .",
"                                                               X",
"                                                               .",
"                                                               .",
"                                                               .",
"                                                               .",
"                                                                ",
"                                .                               ",
"                             oOOOOO+                            ",
"                            @OOOOOOO@                           ",
"                           #OOOOOOOOO$                         .",
"                          %OOOOOOOOOOO&                        X",
"                          *=OOOOOOOOOO=         -              .",
"                          OO=OOOOOOO+OO    ;:O>>O,<#           .",
"                          OO$,#$OO1,$OO     .OOOOOO=2           ",
"                          OO$,3#<$<$,OO  .#*o=OOO=OO;4          ",
"                          OO,&,,,,&@$O=$.2OOOOOOOOOOO+$         ",
"                         2%:,*$33,@5$*$:@OOOOOOOOOOOOOO+        ",
"            *o5#$$&o.    2,,,3,,3,$,$,,oOOOOO1O&5OOOOOO.        ",
"          .5$&@o<$<$6.    $3,3,3$33,,3$5OOOOO:O$6OOOOOO#        ",
"          :$$$<$$7<$::    >&$3,6$83,,< OOOO<&@,$&$$,OOO         ",
"          ,$&@<$$$<$:+#     <,,%$3,3,X OOOO+=++9++=+OOO         ",
"         ;7$&<<$<<$$$@@     <$#,3,3,&;0OOOO16$:$o$6*OOO@        ",
"        *><<&=5&<+:$&<6&    @5&$$<5+$;oOOOO,,,$,,$,,oOOo        ",
"        $7$@o>,o<$37o@$*;   1333,3$3:  OOOO$o$o6::qo6OOO-       ",
"        $<<&3 433# 2o$$3    $%$,333,o 4OOOO6O%&o*@:*<OO=        ",
"       .:,$:4&2,3#$ o@<0     :3#,,$$4 2<OOO,$$$&<,,$*OO=.       ",
"       $:%@o2X4,3,0 ,o$o@     @3$33o   0OOO,$,,,,$3$OOO        .",
"        0%*5> -&&504$o&*;    $=5,$*&2  .OOO7$,,$3,,$O=O         ",
"         %o<,$,$,,$,$o&4.   8wo$$,:-o5$04,@+*,,,,$&o8#&         ",
"        2$o@*==0X;o=<+<*, >ow-+3,35-$w-w,6OeX+$$@oX 2$::        ",
"        o65*3OO=o=O5oo:7 .*ow-o$,$5w>3>w#1O=ooo1+5#,636$$       ",
"        X6o$$5OOOOO,::46*>+,6>*$,@o9&o,>=o+++*,3,=+1=,6#::>4    ",
"         w .:,,6+*,&&*#--3o$o>$:$o>$6o=<=++++O@&*+++=,5,5@&@   .",
"            *<%,,,$+q:#w-r>w,*w*$<36#>#+++q+++===++++::,&:&:    ",
"         2@:5=*$,<q=&<$5>2--2-*7<*>-w>#++++++1+++o+++++=7o,=40  ",
"     ***6@,$&o#<=*$8OO*>9@----w&9-w2w%=++q++q++1+++1+++++==o1o=2",
"     $,#@@#$<o,*<,,<@5&*oow--->#@w-->o=++++q+++++++++=q+++11+++*",
"     <<$$&$$+qo$#$,o*@6oo0<@>--w52->@o+1+++++++qq++++2.=+o+1+++=",
"      ;55:$**6$,,$,<8oo$20-#56>w5ww>o1+1q=++q++++++q+=>0=+1+1o++",
"      602w=5@<$,,3,6o<2;04w,<;:@@rr>=+11=O+=+1+=+=+++=5X*+11+1++",
"     -<X0$o@<$$$,&@<o+2;;4#$:2-*5>>>+1q+O=+++++=q+++1+*0:1+++1+8",
"     &XX:-wo<9&@:w5oo+-231*+,$;0=##3=+++Oq+++1+=+q++1+oX@+++1o1$",
"    0,ww%X5OO=:#05@<<$$@#2-##200=w3w1+1+==+o=+++++++++6.<=+1+1+2",
"   ;5;q10X5OO=9;26$+o+o2;2ww#2;2=>>#=+1+==++++++q=+q+=&;o:=11o=.",
"  62.6;2XX6OOo24;>&$$%$o-4w2>2*&ow3>+1++qOq++1+++q++++:<$,,++1=X",
" Xw.XX...X6=*;X;X2*$%$$$o0www:w-&w>>+o++q=q+q1++q+q<$@,$$$$q1o5 ",
"2*XXX0.XX.&=o0X;2o$,$,$,o0we2*w-$w#w=1++=+=+qo++++=55$,3$,$+o+6 ",
"55......X.<oXX.X&,,$,3$,6222>3-#>w-w@11+q++1++++++1+&,,$$+=1oo3 ",
"X&XX.X0;:#$0.X.X3*$,33%5O;;46w-@ww-w3=++++q1+++1q=5<o$,$*=o1++  ",
" X3XX4$:X 60...XX,,$$,$=O0;3>e2@>w->#*=++q+++++=+@<*$6,$55+oqw  ",
"   2#4    <0.XXXX.6,$:>-=55#--#6e-w>www+==o1++o++q$5::6@   54   ",
"         #XXXXXX.X6$@4X;ow--w-#@w-2>w-rw$O++11o++q@&qoo         ",
"         $X..XXXX45@2XX;&#w>rww<--w#w-ww6=++++11+o==+1o         ",
"         $.XXXX.Xw+#XXXX2$*<>-w#>w-w--r>=+++1++o+o+oooO         ",
"        #X.XXXXX.X00.XXXX5  .2%$@@&@$,>2++++++11+oo+o1+         ",
"        $ ..XXXXX.X;XX..Xo             X+1+1++qo+o1ooo=         ",
"        :7$$<&$7$$<7@5$$,o             .*:66*:8oo:::::6         ",
"                                                                ",
"                                                                "};
