/* XPM */
static char *auto-r[] = {
/* width height ncolors chars_per_pixel */
"64 27 164 2",
/* colors */
"   c #000000",
" . c #B1B1B1",
" X c #AFAFAF",
" o c #ADADAD",
" O c #ABABAB",
" + c #A9A9A9",
" @ c #A7A7A7",
" # c #A5A5A5",
" $ c #A3A3A3",
" % c #A1A1A1",
" & c #9F9F9F",
" * c #9D9D9D",
" = c #9B9B9B",
" - c #999999",
" ; c #979797",
" : c #959595",
" > c #939393",
" , c #919191",
" < c #8F8F8F",
" 1 c #8B8B8B",
" 2 c #898989",
" 3 c #878787",
" 4 c #858585",
" 5 c #838383",
" 6 c #818181",
" 7 c #7F7F7F",
" 8 c #7D7D7D",
" 9 c #7B7B7B",
" 0 c #797979",
" q c #777777",
" w c #757575",
" e c #737373",
" r c #717171",
" t c #6B6B6B",
" y c #676767",
" u c #656565",
" i c #636363",
" p c #5D5D5D",
" a c #5B5B5B",
" s c #595959",
" d c #535353",
" f c #4F4F4F",
" g c #FEFEFE",
" h c #FCFCFC",
" j c #FAFAFA",
" k c #F8F8F8",
" l c #F6F6F6",
" z c #434343",
" x c #F4F4F4",
" c c #414141",
" v c #F2F2F2",
" b c #3F3F3F",
" n c #F0F0F0",
" m c #EEEEEE",
" M c #3B3B3B",
" N c #ECECEC",
" B c #EAEAEA",
" V c #E8E8E8",
" C c #E6E6E6",
" Z c #E4E4E4",
" A c #E2E2E2",
" S c #E0E0E0",
" D c #DEDEDE",
" F c #DADADA",
" G c #D8D8D8",
" H c #D4D4D4",
" J c #D2D2D2",
" K c #D0D0D0",
" L c #CECECE",
" P c #CCCCCC",
" I c #C0C0C0",
" U c #BCBCBC",
" Y c #B8B8B8",
" T c #B6B6B6",
" R c #B4B4B4",
" E c #B2B2B2",
" W c #B0B0B0",
" Q c #AEAEAE",
" ! c #ACACAC",
" ~ c #AAAAAA",
" ^ c #A6A6A6",
" / c #A4A4A4",
" ( c #A2A2A2",
" ) c #A0A0A0",
" _ c #9E9E9E",
" ` c #9C9C9C",
" ' c #9A9A9A",
" ] c #989898",
" [ c #969696",
" { c #949494",
" } c #909090",
" | c #8E8E8E",
".  c #8C8C8C",
".. c #8A8A8A",
".X c #888888",
".o c #868686",
".O c #848484",
".+ c #828282",
".@ c #808080",
".# c #7E7E7E",
".$ c #7C7C7C",
".% c #7A7A7A",
".& c #787878",
".* c #767676",
".= c #747474",
".- c #727272",
".; c #707070",
".: c #6E6E6E",
".> c #6C6C6C",
"., c #666666",
".< c #646464",
".1 c #626262",
".2 c #606060",
".3 c #5E5E5E",
".4 c #5C5C5C",
".5 c #5A5A5A",
".6 c #565656",
".7 c #505050",
".8 c #4E4E4E",
".9 c #FFFFFF",
".0 c #4C4C4C",
".q c #FDFDFD",
".w c #4A4A4A",
".e c #FBFBFB",
".r c #484848",
".t c #F9F9F9",
".y c #464646",
".u c #F7F7F7",
".i c #F5F5F5",
".p c #424242",
".a c #F3F3F3",
".s c #F1F1F1",
".d c #3E3E3E",
".f c #EFEFEF",
".g c #3C3C3C",
".h c #EDEDED",
".j c #EBEBEB",
".k c #E9E9E9",
".l c #E7E7E7",
".z c #E5E5E5",
".x c #E1E1E1",
".c c #2E2E2E",
".v c #DFDFDF",
".b c #2C2C2C",
".n c #DDDDDD",
".m c #DBDBDB",
".M c #D9D9D9",
".N c #D7D7D7",
".B c #D5D5D5",
".V c #D3D3D3",
".C c #D1D1D1",
".Z c #CFCFCF",
".A c #CBCBCB",
".S c #C9C9C9",
".D c #C7C7C7",
".F c #C5C5C5",
".G c #C3C3C3",
".H c #C1C1C1",
".J c #BFBFBF",
".K c #BBBBBB",
".L c #060606",
".P c #B7B7B7",
".I c #B5B5B5",
".U c #B3B3B3",
/* pixels */
".9.9.9.9.9.9.9.9.9.9.9.9.9.9.9.9.9.9.9.9.9.9.9.9.9.9.9.9.9.C a.2.&.&.&.&.&.&.&.&.& p    .L.&.&.# 3.k.9.9.9.9.9.9.9.9.9.9.9.9.9.9",
".9.9.9.9.9.9.9.9.9.9.9.9.9.9.9.9.9.9.9.9.9.9.9.9.9.9.9.9 K + [ z.&.&.&.&.&.&.8 |.< > n n B.&.8 v.H.# C.9.9.9.9.9.9.9.9.9.9.9.9.9",
".9.9.9.9.9.9.9.9.9.9.9.9.9.9.9.9.9.9.9.9.9.9.9.9.9.9.9.9 9 w 7 B.9.9.9.9.9.9 ' 3.Z.9.9.9.9.9 $.X x.u , @.9.9.9.9.9.9.9.9.9.9.9.9",
".9.9.9.9.9.9.9.9.9.9.9.9.9.9.9.9.9.9.9.9.9.9.9.9.9.9.V.&.3.#.t.9.9.9.9.9.9.9 ' 3.Z.9.9.9.9.9.9 T 3.s.9 K _ S.9.9.9.9.9.9.9.9.9.9",
".9.9.9.9.9.9.9.9.9.9.9.9.9.9.9.9.9.9.9.9.9.9.9.9.9.V (.# I j.9.9.9.9.9.9.9.9 ' 3.Z.9.9.9.9.9.9.9 B =.s.9.M ` A.9.9.9.9.9.9.9.9.9",
".9.9.9.9.9.9.9.9.9.9.9.9.9.9.9.9.9.9.9.9.9.9.9.9 J % * e.q.9.9.9.9.9.9.9.9.9 ' 3.Z.9.9.9.9.9.9.9.9 B =.s.9.e : C.9.9.9.9.9.9.9.9",
".9.9.9.9.9.9.9.9.9.9.9.9.9.9.9.9.9.9.9.9.9.9.u { ) / G.9.9.9.9.9.9.9.9.9.9.9 ' 3.Z.9.9.9.9.9.9.9.9.9.A.; x.9.9 , $.e.9.9.9.9.9.9",
".9.9.9.9.9.9.9.9.9.9.9.9.9.9.9.9.9.9.9.9.9 j r.K.  /.9.9.9.9.9.9.9.9.9.9.9.9 ' 3.Z.9.9.9.9.9.9.9.9.9.9.B s k.9.9 H ^ h.9.9.9.9.9",
".9.9.9.9.9.9.9.9 h h h h h h h h h h h h 5 d 3.K.& h h h h h h h h h h h h h ].X.1.&.&.&.&.&.&.&.&.&.&.&.b.7.9.9.9.B $ g.9.9.9.9",
".9.9.9.9.x.O.O 5 9 9 9 9 9 9 9 9 9 9 9 9 o.9 U.K ^ 9 9 9 9 9 9 9 9 9 9 9 9 9.w.n.9.9.9.9.9.9.9.9.9.9.9.9.9.9.9.9.9.9.N ).9.9.9.9",
".9.9.M 1 [.a.a x.9.9.9.9.9.9.9.9.9.9.9.9.9.9 U.K.9.9.9.9.9.9.9.9 A.&.&.F.9.9 '.n.9.9.9.9.9.9.9.9.9.9.9.9.9.9.9.9.9.9.9 G ).9.9.9",
".9.M.p.B.9.9.9.9.9.9.9.9.9.9.9.9.9.9.9.9.9.9 U.K.9.9.9.9.9.9.9.9.9.9.9.9.9.9 '.n.9.9.9.9.9.9.9.9.9.9.9.9.9.9.9.9.9.9.9.9.N ).9.9",
".9. .B.9.9.9.9.9.9.9.9.9.9.9.9.9.9.9.9.9.9.9 U.K.9.9.9.9.9.9.9.9.9.9.9.9.9.9 '.n.9.9.9.9.9.9.9.9.9.9.9.9.9.9.9.9.9.9.9.9.9 L ~.9",
" % <.9.9.9.9.9.9.9.9.9.9.9.9.9.9.9.9.9.9.9.9 U.K.9.9.9.9.9.9.9.9.9.9.9.9.9.9 '.n.9.9.9.9.9.9.9.9.9.9.9.9.9.9.9.9.9.9.9.9.9 k 7.9",
".O.= y.P x.9.9.9.9.9.9.V L L L.B.9.9.9.9.9.9 U.K.9.9.9.9.9.9.9.9.9.9.9.9.9.9 '.n.9.9.9.9.9.9.9.j L L L L m.9.9.9.9.9.9.M L L u.9",
".&.9 S 6 e.9.9.9.9 m 8 / + + + (.@.f.9.9.9.9 U.K.9.9.9.9.9.9.9.9.9.9.9.9.9.9 '.n.9.9.9.9.9.9 Q.  + + + + 2.I.9.9.9.9.9 i + +.6.9",
".&.9.9.9.&.9.9.9.a.r x.h 1.& | m.u...i.9.9.9 U.K.9.9.9.9.9.9.9.9.9.9.9.9.9.9 '.n.9.9.9.9 g X.+.u.G.&.&.S k.%.I.9.9.9.9.&.9.9.&.9",
".* j j J a.9.9.9.&.9.H.p N.9.k 2.D j 8.9.9.9 U.K.9.9.9.9.9.9.9.9.9.9.9.9.9.9 '.n.9.9.9.9 n.X.q.o R.9.9 [.4.q 9 h.9.9.9 q g g 0.9",
" M 8 8 8.x.9.9 m 2.9 c.s.9.9.9.9.:.D.+ l.9.9 U.K.9.9.9.9.9.9.9.9.9.9.9.9.9.9 '.n.9.9.9.9.&.9.y ~.9.9.9.9 ` ; g 0.9.9.9.$ p.U -.9",
".&.9.9.9.9.9.9 m 2 2.f.9.9.9.9.9 C.  Y.J.9.9 U.K.9.9.9.9.9.9.9.9.9.9.9.9.9.9 '.n.9.9.9.9.&.9.= g.9.9.9.9 g 0 g 0.9.9.9.q l y.= 4",
" t * & & & & & { 2.O.a.9.9.9.9.9.j. .9.d.&.&.-.-.&.&.&.&.&.&.&.&.&.&.&.&.&.&.: w.&.&.&.& 3.9.&.9.9.9.9.9.9.& g.0 & &.*.1.,.< : b",
".9 F G G G G G.S 2 O P.9.9.9.9.9 I.  : A.9.9.9.9.9.9.9.9.9.9.9.9.9.9.9.9.9.9.9.9.9.9.9.9.&.9 d j.9.9.9.9.i.+ g y G G G l k G G.h",
".9.9.9.9.9.9.9 v 4.9 7 k.9.9.9 l.5.z 6 k.9.9.9.9.9.9.9.9.9.9.9.9.9.9.9.9.9.9.9.9.9.9.9.9 ].v 1 K.9.9.9.9.F E.m `.9.9.9.9.9.9.9.9",
".9.9.9.9.9.9.9.9 > Z A.>.I.A . p 1.v ].9.9.9.9.9.9.9.9.9.9.9.9.9.9.9.9.9.9.9.9.9.9.9.9.9.i 5.9 p.%.A.A w ! h 9.9.9.9.9.9.9.9.9.9",
".9.9.9.9.9.9.9.9 g >.B.n ! ! ! D J f.9.9.9.9.9.9.9.9.9.9.9.9.9.9.9.9.9.9.9.9.9.9.9.9.9.9.9 H ^.k T ! !.K.l $ G.9.9.9.9.9.9.9.9.9",
".9.9.9.9.9.9.9.9.9.9 (.$ = V ; 8 #.9.9.9.9.9.9.9.9.9.9.9.9.9.9.9.9.9.9.9.9.9.9.9.9.9.9.9.9.9.C |.& H L.& }.N.9.9.9.9.9.9.9.9.9.9",
".9.9.9.9.9.9.9.9.9.9.9.9 W   Y.9.9.9.9.9.9.9.9.9.9.9.9.9.9.9.9.9.9.9.9.9.9.9.9.9.9.9.9.9.9.9.9.9.9.c.g.9.9.9.9.9.9.9.9.9.9.9.9.9"
};
