/* XPM */
static char *auto-r[] = {
/* width height ncolors chars_per_pixel */
"64 27 148 2",
/* colors */
"   c #000000",
" . c #B1B1B1",
" X c #AFAFAF",
" o c #ADADAD",
" O c #ABABAB",
" + c #A9A9A9",
" @ c #A7A7A7",
" # c #A5A5A5",
" $ c #A3A3A3",
" % c #9F9F9F",
" & c #9B9B9B",
" * c #979797",
" = c #939393",
" - c #919191",
" ; c #8F8F8F",
" : c #8D8D8D",
" > c #8B8B8B",
" , c #898989",
" < c #858585",
" 1 c #838383",
" 2 c #818181",
" 3 c #7F7F7F",
" 4 c #7B7B7B",
" 5 c #797979",
" 6 c #777777",
" 7 c #757575",
" 8 c #717171",
" 9 c #6F6F6F",
" 0 c #656565",
" q c #616161",
" w c #5F5F5F",
" e c #5B5B5B",
" r c #575757",
" t c #555555",
" y c #4F4F4F",
" u c #FCFCFC",
" i c #FAFAFA",
" p c #474747",
" a c #F8F8F8",
" s c #454545",
" d c #F6F6F6",
" f c #434343",
" g c #F4F4F4",
" h c #F2F2F2",
" j c #F0F0F0",
" k c #EEEEEE",
" l c #E2E2E2",
" z c #E0E0E0",
" x c #DEDEDE",
" c c #DCDCDC",
" v c #DADADA",
" b c #D8D8D8",
" n c #D6D6D6",
" m c #D0D0D0",
" M c #CECECE",
" N c #CCCCCC",
" B c #CACACA",
" V c #C8C8C8",
" C c #C6C6C6",
" Z c #C2C2C2",
" A c #C0C0C0",
" S c #BEBEBE",
" D c #BCBCBC",
" F c #BABABA",
" G c #B8B8B8",
" H c #B6B6B6",
" J c #B4B4B4",
" K c #B2B2B2",
" L c #B0B0B0",
" P c #AEAEAE",
" I c #ACACAC",
" U c #AAAAAA",
" Y c #A8A8A8",
" T c #A6A6A6",
" R c #A4A4A4",
" E c #A2A2A2",
" W c #A0A0A0",
" Q c #9C9C9C",
" ! c #9A9A9A",
" ~ c #989898",
" ^ c #969696",
" / c #949494",
" ( c #909090",
" ) c #8E8E8E",
" _ c #8C8C8C",
" ` c #8A8A8A",
" ' c #888888",
" ] c #868686",
" [ c #848484",
" { c #828282",
" } c #808080",
" | c #7E7E7E",
".  c #7C7C7C",
".. c #7A7A7A",
".X c #787878",
".o c #767676",
".O c #747474",
".+ c #727272",
".@ c #707070",
".# c #6E6E6E",
".$ c #6C6C6C",
".% c #686868",
".& c #646464",
".* c #626262",
".= c #606060",
".- c #5E5E5E",
".; c #5C5C5C",
".: c #565656",
".> c #525252",
"., c #4E4E4E",
".< c #FFFFFF",
".1 c #FBFBFB",
".2 c #484848",
".3 c #F9F9F9",
".4 c #F7F7F7",
".5 c #444444",
".6 c #F5F5F5",
".7 c #F3F3F3",
".8 c #F1F1F1",
".9 c #EFEFEF",
".0 c #E7E7E7",
".q c #E5E5E5",
".w c #E3E3E3",
".e c #E1E1E1",
".r c #DFDFDF",
".t c #DDDDDD",
".y c #2A2A2A",
".u c #DBDBDB",
".i c #D7D7D7",
".p c #D5D5D5",
".a c #D3D3D3",
".s c #D1D1D1",
".d c #CFCFCF",
".f c #CDCDCD",
".g c #CBCBCB",
".h c #C9C9C9",
".j c #C7C7C7",
".k c #C5C5C5",
".l c #C3C3C3",
".z c #C1C1C1",
".x c #BFBFBF",
".c c #BDBDBD",
".v c #BBBBBB",
".b c #B9B9B9",
".n c #B7B7B7",
".m c #040404",
".M c #B5B5B5",
".N c #B3B3B3",
/* pixels */
".<.<.<.<.<.<.<.<.<.<.<.<.<.<.<.<.<.<.<.<.<.<.<.<.<.<.<.<.<.<.<.<.<.<.<.<.<.<.<.<.<.<.<.<.<.<.<.<.<.<.<.<.<.<.<.<.<.<.<.<.<.<.<.<",
".<.<.<.<.<.<.<.<.<.<.<.<.<.<.<.<.<.<.<.<.<.<.<.<.<.<.<.<.< i { f | | | | | | | | |.>.m.m.y | | 1 R.<.<.<.<.<.<.<.<.<.<.<.<.<.<.<",
".<.<.<.<.<.<.<.<.<.<.<.<.<.<.<.<.<.<.<.<.<.<.<.<.<.<.<.<.3 ' G.5 | | | | | |., <.@ +.4.4.s e ;.3 * E.<.<.<.<.<.<.<.<.<.<.<.<.<.<",
".<.<.<.<.<.<.<.<.<.<.<.<.<.<.<.<.<.<.<.<.<.<.<.<.<.<.<.< 1 H s.7.<.<.<.<.<.< * 2.e.<.<.<.<.1 - Y.<.u 2 x.<.<.<.<.<.<.<.<.<.<.<.<",
".<.<.<.<.<.<.<.<.<.<.<.<.<.<.<.<.<.<.<.<.<.<.<.<.<.< d ]...2 a.<.<.<.<.<.<.< * 2.e.<.<.<.<.<.< = Y.< u $ T.<.<.<.<.<.<.<.<.<.<.<",
".<.<.<.<.<.<.<.<.<.<.<.<.<.<.<.<.<.<.<.<.<.<.<.<.< g - L : d.<.<.<.<.<.<.<.< * 2.e.<.<.<.<.<.<.<.p Y.<.1.i W.<.<.<.<.<.<.<.<.<.<",
".<.<.<.<.<.<.<.<.<.<.<.<.<.<.<.<.<.<.<.<.<.<.<.<.7 = H 5.6.<.<.<.<.<.<.<.<.< * 2.e.<.<.<.<.<.<.<.<.p Y.<.<.t W.<.<.<.<.<.<.<.<.<",
".<.<.<.<.<.<.<.<.<.<.<.<.<.<.<.<.<.<.<.<.<.<.< D `.M D.<.<.<.<.<.<.<.<.<.<.< * 2.e.<.<.<.<.<.<.<.<.< = Y.<.<.t {.u.<.<.<.<.<.<.<",
".<.<.<.<.<.<.<.<.<.<.<.<.<.<.<.<.<.<.<.<.<.< D y.q.:.<.<.<.<.<.<.<.<.<.<.<.< * 2.e.<.<.<.<.<.<.<.<.<.< } >.<.<.1 T.u.<.<.<.<.<.<",
".<.<.<.<.<.<.<.<.< K # # # # # # # # # # ).= 3 |.e 0 # # # # # # # # # # # #.* #.. | | | | | | | | | | 6 q n.<.<.1 T.u.<.<.<.<.<",
".<.<.<.<.< L { | | B.i.i.i.i.i.i.i.i.i.i.i h.< | i.i.i.i.i.i.i.i.i { 2 Y.i.i }.q.<.<.<.<.<.<.<.<.<.<.<.<.<.<.<.<.<.1 #.u.<.<.<.<",
".<.<.< v r N.1.<.<.<.<.<.<.<.<.<.<.<.<.<.<.<.< |.<.<.<.<.<.<.<.<.<.a.a.0.<.< *.q.<.<.<.<.<.<.<.<.<.<.<.<.<.<.<.<.<.<.1 # c.<.<.<",
".<.<.< p c.<.<.<.<.<.<.<.<.<.<.<.<.<.<.<.<.<.< |.<.<.<.<.<.<.<.<.<.<.<.<.<.< *.q.<.<.<.<.<.<.<.<.<.<.<.<.<.<.<.<.<.<.<.1 R c.<.<",
".<.<. .u.<.<.<.<.<.<.<.<.<.<.<.<.<.<.<.<.<.<.< |.<.<.<.<.<.<.<.<.<.<.<.<.<.< *.q.<.<.<.<.<.<.<.<.<.<.<.<.<.<.<.<.<.<.<.< g ,.<.<",
".<.< f H.i.<.<.<.<.<.<.<.<.<.<.<.<.<.<.<.<.<.< |.<.<.<.<.<.<.<.<.<.<.<.<.<.< *.q.<.<.<.<.<.<.<.<.<.<.<.<.<.<.<.<.<.<.<.<.< |.<.<",
".< E.x.l.& 6.3.<.<.<.< V ` | | | : N.<.<.<.<.< |.<.<.<.<.<.<.<.<.<.<.<.<.<.< *.q.<.<.<.<.<.<.g _ | | | >.h.<.<.<.<.< ( | |.5.<.<",
".< <.4.<.< 7.0.<.<.< % +.7 M.z.s j L.v.<.<.<.< |.<.<.<.<.<.<.<.<.<.<.<.<.<.< *.q.<.<.<.<.< @ R.8 m.z.d h @ E.<.<.<.< |.<.< |.<.<",
".< <.4.<.<.X.0.<.<.c Y.e.# X.v O ; j.M.j.<.<.< |.<.<.<.<.<.<.<.<.<.<.<.<.<.< *.q.<.<.<.<.k R z ) I.v P 9.e @ A.<.<.< |.<.< |.<.<",
".< <.. | | 8 a.<.< , g.*.M.<.<.< k 1.e :.<.<.< |.<.<.<.<.<.<.<.<.<.<.<.<.<.< *.q.<.<.<.< _.e.-.s.<.<.< K 0.7 `.<.<.< ' / c ,.<.<",
".< <.4.<.<.<.<.<.< |.l F.<.<.<.<.< %.n :.9.<.< |.<.<.<.<.<.<.<.<.<.<.<.<.<.< *.q.<.<.<.< |.N $.<.<.<.<.<.n C |.<.<.< a.N 6.; U.<",
".< & E.s.s.s.s.s.s 6 +.a.<.<.<.<.<.k.n.f r | | t | | | | | | | | | | | | | |.-.o | | | | Y.N.h.<.<.<.<.<.d o.o.s.s.l.$.. 8.g.5.<",
".<.< b O O O O O O.+.n.k.<.<.<.<.< L.n ~.q.<.<.<.<.<.<.<.<.<.<.<.<.<.<.<.<.<.<.<.<.<.<.< |.N J.<.<.<.<.< Z.v.@ O O O x a O O b.<",
".<.<.<.<.<.<.<.<.< 1.3 < a.<.<.< d w x ].<.<.<.<.<.<.<.<.<.<.<.<.<.<.<.<.<.<.<.<.<.<.<.< <.t.O d.<.<.<.4 < a [.<.<.<.<.<.<.<.<.<",
".<.<.<.<.<.<.<.<.< ..g l 4.l.t D w ^.x.c.<.<.<.<.<.<.<.<.<.<.<.<.<.<.<.<.<.<.<.<.<.<.<.< F.l.z.= S.t.z. .w V.M.<.<.<.<.<.<.<.<.<",
".<.<.<.<.<.<.<.<.<.< $ m c % % % z.g.%.<.<.<.<.<.<.<.<.<.<.<.<.<.<.<.<.<.<.<.<.<.<.<.<.<.< Y N.r % % %.t M #.<.<.<.<.<.<.<.<.<.<",
".<.<.<.<.<.<.<.<.<.<.< I 1 Q.q ^ < K.<.<.<.<.<.<.<.<.<.<.<.<.<.<.<.<.<.<.<.<.<.<.<.<.<.<.<.< L < ~.q ! [ P.<.<.<.<.<.<.<.<.<.<.<",
".<.<.<.<.<.<.<.<.<.<.<.<.<.M  .l.<.<.<.<.<.<.<.<.<.<.<.<.<.<.<.<.<.<.<.<.<.<.<.<.<.<.<.<.<.<.<.<.x  .b.<.<.<.<.<.<.<.<.<.<.<.<.<"
};
