/* XPM */
static char *banaan-r[] = {
/* width height ncolors chars_per_pixel */
"64 46 163 2",
/* colors */
"   c #000000",
" . c #B1B1B1",
" X c #AFAFAF",
" o c #ADADAD",
" O c #ABABAB",
" + c #A9A9A9",
" @ c #A7A7A7",
" # c #A5A5A5",
" $ c #9F9F9F",
" % c #9B9B9B",
" & c #999999",
" * c #979797",
" = c #939393",
" - c #919191",
" ; c #8F8F8F",
" : c #8D8D8D",
" > c #898989",
" , c #878787",
" < c #858585",
" 1 c #838383",
" 2 c #818181",
" 3 c #7F7F7F",
" 4 c #7D7D7D",
" 5 c #7B7B7B",
" 6 c #777777",
" 7 c #757575",
" 8 c #737373",
" 9 c #6F6F6F",
" 0 c #6D6D6D",
" q c #6B6B6B",
" w c #676767",
" e c #656565",
" r c #636363",
" t c #5B5B5B",
" y c #575757",
" u c #555555",
" i c #535353",
" p c #4F4F4F",
" a c #4D4D4D",
" s c #FEFEFE",
" d c #4B4B4B",
" f c #FCFCFC",
" g c #FAFAFA",
" h c #F8F8F8",
" j c #F6F6F6",
" k c #F4F4F4",
" l c #414141",
" z c #F2F2F2",
" x c #3F3F3F",
" c c #F0F0F0",
" v c #3D3D3D",
" b c #EEEEEE",
" n c #3B3B3B",
" m c #ECECEC",
" M c #393939",
" N c #EAEAEA",
" B c #E8E8E8",
" V c #E6E6E6",
" C c #E4E4E4",
" Z c #E2E2E2",
" A c #E0E0E0",
" S c #DEDEDE",
" D c #DADADA",
" F c #252525",
" G c #232323",
" H c #212121",
" J c #D2D2D2",
" K c #D0D0D0",
" L c #CECECE",
" P c #CCCCCC",
" I c #CACACA",
" U c #C8C8C8",
" Y c #C6C6C6",
" T c #C4C4C4",
" R c #C2C2C2",
" E c #C0C0C0",
" W c #BEBEBE",
" Q c #BCBCBC",
" ! c #BABABA",
" ~ c #B6B6B6",
" ^ c #B4B4B4",
" / c #B2B2B2",
" ( c #B0B0B0",
" ) c #AEAEAE",
" _ c #ACACAC",
" ` c #AAAAAA",
" ' c #A8A8A8",
" ] c #A6A6A6",
" [ c #A4A4A4",
" { c #A2A2A2",
" } c #9C9C9C",
" | c #9A9A9A",
".  c #989898",
".. c #969696",
".X c #949494",
".o c #929292",
".O c #909090",
".+ c #8E8E8E",
".@ c #8A8A8A",
".# c #888888",
".$ c #868686",
".% c #848484",
".& c #808080",
".* c #7E7E7E",
".= c #7C7C7C",
".- c #7A7A7A",
".; c #787878",
".: c #767676",
".> c #727272",
"., c #707070",
".< c #6E6E6E",
".1 c #6C6C6C",
".2 c #6A6A6A",
".3 c #666666",
".4 c #646464",
".5 c #626262",
".6 c #606060",
".7 c #5E5E5E",
".8 c #545454",
".9 c #505050",
".0 c #FFFFFF",
".q c #FDFDFD",
".w c #FBFBFB",
".e c #F9F9F9",
".r c #F7F7F7",
".t c #F5F5F5",
".y c #424242",
".u c #F3F3F3",
".i c #F1F1F1",
".p c #3E3E3E",
".a c #EFEFEF",
".s c #EDEDED",
".d c #EBEBEB",
".f c #E9E9E9",
".g c #E7E7E7",
".h c #343434",
".j c #E5E5E5",
".k c #323232",
".l c #E3E3E3",
".z c #E1E1E1",
".x c #DFDFDF",
".c c #DBDBDB",
".v c #D9D9D9",
".b c #262626",
".n c #D7D7D7",
".m c #242424",
".M c #D3D3D3",
".N c #D1D1D1",
".B c #CFCFCF",
".V c #CDCDCD",
".C c #1A1A1A",
".Z c #CBCBCB",
".A c #181818",
".S c #C7C7C7",
".D c #C5C5C5",
".F c #C3C3C3",
".G c #C1C1C1",
".H c #BFBFBF",
".J c #BDBDBD",
".K c #BBBBBB",
".L c #B9B9B9",
".P c #B7B7B7",
".I c #B3B3B3",
/* pixels */
".0 E v _.0.0.0.0.0.0.0.0.0.0.0.0.0.0.0.0.0.0.0.0.0.0.0.0.0.0.0.0.0.0.0.0.0.0.0.0.0.0.0.0.0.0.0.0.0.0.0.0.0.0.0.0.0.0.0.0.0.0.0.0",
".q y ) n u.Z.0.0.0.0.0.0.0.0.0.0.0.0.0.0.0.0.0.0.0.0.0.0.0.0.0.0.0.0.0.0.0.0.0.0.0.0.0.0.0.0.0.0.0.0.0.0.0.0.0.0.0.0.0.0.0.0.0.0",
".1 ).0 R.G.m U.0.0.0.0.0.0.0.0.0.0.0.0.0.0.0.0.0.0.0.0.0.0.0.0.0.0.0.0.0.0.0.0.0.0.0.0.0.0.0.0.0.0.0.0.0.0.0.0.0.0.0.0.0.0.0.0.0",
".- x i.C =.I F.N.0.0.0.0.0.0.0.0.0.0.0.0.0.0.0.0.0.0.0.0.0.0.0.0.0.0.0.0.0.0.0.0.0.0.0.0.0.0.0.0.0.0.0.0.0.0.0.0.0.0.0.0.0.0.0.0",
".0.0 Y.4 , F < *.0.0.0.0.0.0.0.0.0.0.0.0.0.0.0.0.0.0.0.0.0.0.0.0.0.0.0.0.0.0.0.0.0.0.0.0.0.0.0.0.0.0.0.0.0.0.0.0.0.0.0.0.0.0.0.0",
".0.0.0 f =.#.b.A.+.a.a f.0.0.0.0.0.0.0.0.0.0.0.0.0.0.0.0.0.0.0.0.0.0.0.0.0.0.0.0.0.0.0.0.0.0.0.0.0.0.0.0.0.0.0.0.0.0.0.0.0.0.0.0",
".0.0.0.0.0.9.% G w w M 6 U.0.0.0.0.0.0.0.0.0.0.0.0.0.0.0.0.0.0.0.0.0.0.0.0.0.0.0.0.0.0.0.0.0.0.0.0.0.0.0.0.0.0.0.0.0.0.0.0.0.0.0",
".0.0.0.0.0 T w r.u.0 Z +.h.N.0.0.0.0.0.0.0.0.0.0.0.0.0.0.0.0.0.0.0.0.0.0.0.0.0.0.0.0.0.0.0.0.0.0.0.0.0.0.0.0.0.0.0.0.0.0.0.0.0.0",
".0.0.0.0.0.a w N.1.0.0.0.0.+ U.0.0.0.0.0.0.0.0.0.0.0.0.0.0.0.0.0.0.0.0.0.0.0.0.0.0.0.0.0.0.0.0.0.0.0.0.0.0.0.0.0.0.0.0.0.0.0.0.0",
".0.0.0.0.0.a w N.1.0.0.0.0 j 2 P.0.0.0.0.0.0.0.0.0.0.0.0.0.0.0.0.0.0.0.0.0.0.0.0.0.0.0.0.0.0.0.0.0.0.0.0.0.0.0.0.0.0.0.0.0.0.0.0",
".0.0.0.0.0.a w N.1.0.0.0.0.0 !.p.0.0.0.0.0.0.0.0.0.0.0.0.0.0.0.0.0.0.0.0.0.0.0.0.0.0.0.0.0.0.0.0.0.0.0.0.0.0.0.0.0.0.0.0.0.0.0.0",
".0.0.0.0.0.; S g.@ K.0.0.0.0.0 W } g.0.0.0.0.0.0.0.0.0.0.0.0.0.0.0.0.0.0.0.0.0.0.0.0.0.0.0.0.0.0.0.0.0.0.0.0.0.0.0.0.0.0.0.0.0.0",
".0.0.0.0.0 y.0.0 =.F.0.0.0.0.0.0 ! }.0.0.0.0.0.0.0.0.0.0.0.0.0.0.0.0.0.0.0.0.0.0.0.0.0.0.0.0.0.0.0.0.0.0.0.0.0.0.0.0.0.0.0.0.0.0",
".0.0.0.0.0 y.0.0 =.F.0.0.0.0.0.0.0 p } g.0.0.0.0.0.0.0.0.0.0.0.0.0.0.0.0.0.0.0.0.0.0.0.0.0.0.0.0.0.0.0.0.0.0.0.0.0.0.0.0.0.0.0.0",
".0.0.0.0.0 y.0.0.S.+.0.0.0.0.0.0.0.0 ! }.0.0.0.0.0.0.0.0.0.0.0.0.0.0.0.0.0.0.0.0.0.0.0.0.0.0.0.0.0.0.0.0.0.0.0.0.0.0.0.0.0.0.0.0",
".0.0.0.0.0.,.j.0.0 9.g.0.0.0.0.0.0.0.0.2 m.0.0.0.0.0.0.0.0.0.0.0.0.0.0.0.0.0.0.0.0.0.0.0.0.0.0.0.0.0.0.0.0.0.0.0.0.0.0.0.0.0.0.0",
".0.0.0.0.0.a w.0.0 C.>.0.0.0.0.0.0.0.0.j 3.i.0.0.0.0.0.0.0.0.0.0.0.0.0.0.0.0.0.0.0.0.0.0.0.0.0.0.0.0.0.0.0.0.0.0.0.0.0.0.0.0.0.0",
".0.0.0.0.0.a w.0.0.f 6.t.0.0.0.0.0.0.0.0 N.1.0.0.0.0.0.0.0.0.0.0.0.0.0.0.0.0.0.0.0.0.0.0.0.0.0.0.0.0.0.0.0.0.0.0.0.0.0.0.0.0.0.0",
".0.0.0.0.0.a w.0.0.0 : U.0.0.0.0.0.0.0.0.0 -.D.0.0.0.0.0.0.0.0.0.0.0.0.0.0.0.0.0.0.0.0.0.0.0.0.0.0.0.0.0.0.0.0.0.0.0.0.0.0.0.0.0",
".0.0.0.0.0.q.o Y.0.0 # (.0.0.0.0.0.0.0.0.0.r -.V.0.0.0.0.0.0.0.0.0.0.0.0.0.0.0.0.0.0.0.0.0.0.0.0.0.0.0.0.0.0.0.0.0.0.0.0.0.0.0.0",
".0.0.0.0.0.0.  W.0.0.0 y.0.0.0.0.0.0.0.0.0.0.0.O Y.0.0.0.0.0.0.0.0.0.0.0.0.0.0.0.0.0.0.0.0.0.0.0.0.0.0.0.0.0.0.0.0.0.0.0.0.0.0.0",
".0.0.0.0.0.0 ( ].0.0.0 K.$.0.0.0.0.0.0.0.0.0.0 h.O.V.0.0.0.0.0.0.0.0.0.0.0.0.0.0.0.0.0.0.0.0.0.0.0.0.0.0.0.0.0.0.0.0.0.0.0.0.0.0",
".0.0.0.0.0.0.0 y.0.0.0.i 2.l.0.0.0.0.0.0.0.0.0.0.0 ; 0 h.0.0.0.0.0.0.0.0.0.0.0.0.0.0.0.0.0.0.0.0.0.0.0.0.0.0.0.0.0.0.0.0.0.0.0.0",
".0.0.0.0.0.0.0 Z 1 c.0.0 k.5.0.0.0.0.0.0.0.0.0.0.0.e B.= B.0.0.0.0.0.0.0.0.0.0.0.0.0.0.0.0.0.0.0.0.0.0.0.0.0.0.0.0.0.0.0.0.0.0.0",
".0.0.0.0.0.0.0.0 =.F.0.0.0 [ /.0.0.0.0.0.0.0.0.0.0.0.0 ^ {.0.0.0.0.0.0.0.0.0.0.0.0.0.0.0.0.0.0.0.0.0.0.0.0.0.0.0.0.0.0.0.0.0.0.0",
".0.0.0.0.0.0.0.0 h.7.0.0.0 C.*.u.0.0.0.0.0.0.0.0.0.0.0 g.+.:.g.0.0.0.0.0.0.0.0.0.0.0.0.0.0.0.0.0.0.0.0.0.0.0.0.0.0.0.0.0.0.0.0.0",
".0.0.0.0.0.0.0.0.0 y.0.0.0.0 1.1.0.0.0.0.0.0.0.0.0.0.0.0.0 A 6 *.0.0.0.0.0.0.0.0.0.0.0.0.0.0.0.0.0.0.0.0.0.0.0.0.0.0.0.0.0.0.0.0",
".0.0.0.0.0.0.0.0.0.j.&.a.0.0.e P.#.0.0.0.0.0.0.0.0.0.0.0.0.0.r.H...B.0.0.0.0.0.0.0.0.0.0.0.0.0.0.0.0.0.0.0.0.0.0.0.0.0.0.0.0.0.0",
".0.0.0.0.0.0.0.0.0.0 : U.0.0.0.a 3 V.0.0.0.0.0.0.0.0.0.0.0.0.0.0 E > r.0.0.0.0.0.0.0.0.0.0.0.0.0.0.0.0.0.0.0.0.0.0.0.0.0.0.0.0.0",
".0.0.0.0.0.0.0.0.0.0 f.-.& c.0.0 f.&.v.0.0.0.0.0.0.0.0.0.0.0.0.0.0.q.u.; X.B.0.0.0.0.0.0.0.0.0.0.0.0.0.0.0.0.0.0.0.0.0.0.0.0.0.0",
".0.0.0.0.0.0.0.0.0.0.0.0.# L.0.0.0 b 4.f.0.0.0.0.0.0.0.0.0.0.0.0.0.0.0 S @ , e.0.0.0.0.0.0.0.0.0.0.0.0.0.0.0.0.0.0.0.0.0.0.0.0.0",
".0.0.0.0.0.0.0.0.0.0.0.0.0 1.M.0.0.0 s 0.% j.0.0.0.0.0.0.0.0.0.0.0.0.0.0.0.0.i y y 5 +.N.0.0.0.0.0.0.0.0.0.0.0.0.0.0.0.0.0.0.0.0",
".0.0.0.0.0.0.0.0.0.0.0.0.0.u 1.x.0.0.0.0.N.$.w.0.0.0.0.0.0.0.0.0.0.0.0.0.0.0.0.0.0 D _ < y y y `.w.w s.0.0.0.0.0.0.0.0.0.0.0.0.0",
".0.0.0.0.0.0.0.0.0.0.0.0.0.0.0.% J.0.0.0.0.v t ^.0.0.0.0.0.0.0.0.0.0.0.0.0.0.0.0.0.0.0.0.0.0.0 _ t t | [ [ [ [ [ h.0.0.0.0.0.0.0",
".0.0.0.0.0.0.0.0.0.0.0.0.0.0.0 z.%.x.0.0.0.0.0 { y.s.0.0.0.0.0.0.0.0.0.0.0.0.0.0.0.0.0.0.0.0.0.0.0.0 Q / / / / /.7 y y y.#.t.t f",
".0.0.0.0.0.0.0.0.0.0.0.0.0.0.0.0.0.% $ z.0.0.0.0.0.= $.K.0.0.0.0.0.0.0.0.0.0.0.0.0.0.0.0.0.0.0.0.0.0.0.0.0.0.0.0.0.0.0.0 L.6 H.@",
".0.0.0.0.0.0.0.0.0.0.0.0.0.0.0.0.0.i.P.% c.q.0.0.0.d.P % y m c.0.0.0.0.0.0.0.0.0.0.0.0.0.0.0.0.0.0.0.0.0.0.0.0.0.0.0.0.0.0.0 y.8",
".0.0.0.0.0.0.0.0.0.0.0.0.0.0.0.0.0.0.0.x.3 O.0.0.0.0.0.0.0.2.3 & S.0.0.0.0.0.0.0.0.0.0.0.0.0.0.0.0.0.0.0.0.0.0.0.0.0.0.0.x & 6.k",
".0.0.0.0.0.0.0.0.0.0.0.0.0.0.0.0.0.0.0.0.0 o d.z.0.0.0.0.0.0.0.J.; y W.u.0.0.0.0.0.0.0.0.0.0.0.0.0.0.0.0.0.0.0.0 m.d E y., ' l.$",
".0.0.0.0.0.0.0.0.0.0.0.0.0.0.0.0.0.0.0.0.0.0 ` 7.X ..0.0.0.0.0.0.0.0. .-.X.X.l.0.0.0.0.0.0.0.0.0.0.0.0.0.g.X.X.X.< q...0.@ q s.0",
".0.0.0.0.0.0.0.0.0.0.0.0.0.0.0.0.0.0.0.0.0.0.0 c R # y V.0.0.0.0.0.0.0 B R R 8 y y y y y q.j.j.j 0 y y y 9 R R R.w.0 ~ a J.0.0.0",
".0.0.0.0.0.0.0.0.0.0.0.0.0.0.0.0.0.0.0.0.0.0.0.0.0.0.0.& ; /.0.0.0.0.0.0.0.0.0.0.0.0.0.0.d.,.,.,.f.0.0.0.0.0.0.0.0.K.> I.0.0.0.0",
".0.0.0.0.0.0.0.0.0.0.0.0.0.0.0.0.0.0.0.0.0.0.0.0.0.0.0.a.S [ y.x.z.0.0.0.0.0.0.0.0.0.0.0.0.0.0.0.0.0.0.0.0.0.l ; y % f.0.0.0.0.0",
".0.0.0.0.0.0.0.0.0.0.0.0.0.0.0.0.0.0.0.0.0.0.0.0.0.0.0.0.0.0.0 6.: >.c.0.0.0.0.0.0.0.0.0.0.0.0.0.0.0.g > > >.;.S.0.0.0.0.0.0.0.0",
".0.0.0.0.0.0.0.0.0.0.0.0.0.0.0.0.0.0.0.0.0.0.0.0.0.0.0.0.0.0.0.0 s.V 5 y y y.L.c.c.c.c.c.c.c.c.c.1 y 9.V.V.V g.0.0.0.0.0.0.0.0.0",
".0.0.0.0.0.0.0.0.0.0.0.0.0.0.0.0.0.0.0.0.0.0.0.0.0.0.0.0.0.0.0.0.0.0.0.0.0.0.y                  .n.0.0.0.0.0.0.0.0.0.0.0.0.0.0.0"
};
