/* XPM */
static char *banaan-r[] = {
/* width height ncolors chars_per_pixel */
"64 45 152 2",
/* colors */
"   c #B1B1B1",
" . c #AFAFAF",
" X c #ADADAD",
" o c #ABABAB",
" O c #A9A9A9",
" + c #A7A7A7",
" @ c #A5A5A5",
" # c #A3A3A3",
" $ c #A1A1A1",
" % c #9F9F9F",
" & c #9D9D9D",
" * c #9B9B9B",
" = c #999999",
" - c #979797",
" ; c #959595",
" : c #939393",
" > c #919191",
" , c #8F8F8F",
" < c #8D8D8D",
" 1 c #8B8B8B",
" 2 c #898989",
" 3 c #878787",
" 4 c #858585",
" 5 c #838383",
" 6 c #818181",
" 7 c #7D7D7D",
" 8 c #7B7B7B",
" 9 c #797979",
" 0 c #777777",
" q c #757575",
" w c #737373",
" e c #6F6F6F",
" r c #6D6D6D",
" t c #696969",
" y c #656565",
" u c #636363",
" i c #616161",
" p c #5D5D5D",
" a c #5B5B5B",
" s c #575757",
" d c #555555",
" f c #4F4F4F",
" g c #FEFEFE",
" h c #FCFCFC",
" j c #FAFAFA",
" k c #F8F8F8",
" l c #F6F6F6",
" z c #F4F4F4",
" x c #F2F2F2",
" c c #3F3F3F",
" v c #F0F0F0",
" b c #EEEEEE",
" n c #3B3B3B",
" m c #ECECEC",
" M c #393939",
" N c #EAEAEA",
" B c #373737",
" V c #E8E8E8",
" C c #353535",
" Z c #E6E6E6",
" A c #313131",
" S c #E2E2E2",
" D c #E0E0E0",
" F c #2D2D2D",
" G c #DEDEDE",
" H c #DADADA",
" J c #D8D8D8",
" K c #D6D6D6",
" L c #D4D4D4",
" P c #D2D2D2",
" I c #CECECE",
" U c #CCCCCC",
" Y c #CACACA",
" T c #C8C8C8",
" R c #C6C6C6",
" E c #C4C4C4",
" W c #C2C2C2",
" Q c #C0C0C0",
" ! c #BEBEBE",
" ~ c #0B0B0B",
" ^ c #BCBCBC",
" / c #BABABA",
" ( c #B8B8B8",
" ) c #B6B6B6",
" _ c #B2B2B2",
" ` c #B0B0B0",
" ' c #AEAEAE",
" ] c #ACACAC",
" [ c #AAAAAA",
" { c #A6A6A6",
" } c #A4A4A4",
" | c #A2A2A2",
".  c #A0A0A0",
".. c #9E9E9E",
".X c #9A9A9A",
".o c #989898",
".O c #969696",
".+ c #929292",
".@ c #909090",
".# c #8C8C8C",
".$ c #888888",
".% c #868686",
".& c #848484",
".* c #828282",
".= c #808080",
".- c #7E7E7E",
".; c #7C7C7C",
".: c #767676",
".> c #747474",
"., c #727272",
".< c #707070",
".1 c #6E6E6E",
".2 c #666666",
".3 c #646464",
".4 c #606060",
".5 c #5C5C5C",
".6 c #585858",
".7 c #565656",
".8 c #545454",
".9 c #4E4E4E",
".0 c #FFFFFF",
".q c #FDFDFD",
".w c #FBFBFB",
".e c #F9F9F9",
".r c #F7F7F7",
".t c #F5F5F5",
".y c #F3F3F3",
".u c #EFEFEF",
".i c #EDEDED",
".p c #EBEBEB",
".a c #E9E9E9",
".s c #E7E7E7",
".d c #E5E5E5",
".f c #E1E1E1",
".g c #DFDFDF",
".h c #DDDDDD",
".j c #DBDBDB",
".k c #D9D9D9",
".l c #D7D7D7",
".z c #D5D5D5",
".x c #CFCFCF",
".c c #CDCDCD",
".v c #CBCBCB",
".b c #181818",
".n c #C9C9C9",
".m c #C5C5C5",
".M c #C1C1C1",
".N c #BDBDBD",
".B c #BBBBBB",
".V c #B9B9B9",
".C c #B7B7B7",
".Z c #B3B3B3",
/* pixels */
".0.0 K n # z.0.0.0.0.0.0.0.0.0.0.0.0.0.0.0.0.0.0.0.0.0.0.0.0.0.0.0.0.0.0.0.0.0.0.0.0.0.0.0.0.0.0.0.0.0.0.0.0.0.0.0.0.0.0.0.0.0.0",
".0.q.# - u.9 [ g.0.0.0.0.0.0.0.0.0.0.0.0.0.0.0.0.0.0.0.0.0.0.0.0.0.0.0.0.0.0.0.0.0.0.0.0.0.0.0.0.0.0.0.0.0.0.0.0.0.0.0.0.0.0.0.0",
".0 #.<.0.m.x F X.0.0.0.0.0.0.0.0.0.0.0.0.0.0.0.0.0.0.0.0.0.0.0.0.0.0.0.0.0.0.0.0.0.0.0.0.0.0.0.0.0.0.0.0.0.0.0.0.0.0.0.0.0.0.0.0",
".0.c c d.b.1.C A !.0.0.0.0.0.0.0.0.0.0.0.0.0.0.0.0.0.0.0.0.0.0.0.0.0.0.0.0.0.0.0.0.0.0.0.0.0.0.0.0.0.0.0.0.0.0.0.0.0.0.0.0.0.0.0",
".0.0.0.p 4.- C 9 5.0.0.0.0.0.0.0.0.0.0.0.0.0.0.0.0.0.0.0.0.0.0.0.0.0.0.0.0.0.0.0.0.0.0.0.0.0.0.0.0.0.0.0.0.0.0.0.0.0.0.0.0.0.0.0",
".0.0.0.0.0.m 3 B ~.4 W W.t.0.0.0.0.0.0.0.0.0.0.0.0.0.0.0.0.0.0.0.0.0.0.0.0.0.0.0.0.0.0.0.0.0.0.0.0.0.0.0.0.0.0.0.0.0.0.0.0.0.0.0",
".0.0.0.0.0.0.2., B = = f.7 ^.0.0.0.0.0.0.0.0.0.0.0.0.0.0.0.0.0.0.0.0.0.0.0.0.0.0.0.0.0.0.0.0.0.0.0.0.0.0.0.0.0.0.0.0.0.0.0.0.0.0",
".0.0.0.0.0.0.e a < I.0 j L.6 !.0.0.0.0.0.0.0.0.0.0.0.0.0.0.0.0.0.0.0.0.0.0.0.0.0.0.0.0.0.0.0.0.0.0.0.0.0.0.0.0.0.0.0.0.0.0.0.0.0",
".0.0.0.0.0.0.0.5 z.2.0.0.0.0 & !.0.0.0.0.0.0.0.0.0.0.0.0.0.0.0.0.0.0.0.0.0.0.0.0.0.0.0.0.0.0.0.0.0.0.0.0.0.0.0.0.0.0.0.0.0.0.0.0",
".0.0.0.0.0.0.0.5 z.2.0.0.0.0.0.5 !.0.0.0.0.0.0.0.0.0.0.0.0.0.0.0.0.0.0.0.0.0.0.0.0.0.0.0.0.0.0.0.0.0.0.0.0.0.0.0.0.0.0.0.0.0.0.0",
".0.0.0.0.0.0 m.1 l r k.0.0.0.0.l y l.0.0.0.0.0.0.0.0.0.0.0.0.0.0.0.0.0.0.0.0.0.0.0.0.0.0.0.0.0.0.0.0.0.0.0.0.0.0.0.0.0.0.0.0.0.0",
".0.0.0.0.0.0.2.t.0 = W.0.0.0.0.0.x.#.0.0.0.0.0.0.0.0.0.0.0.0.0.0.0.0.0.0.0.0.0.0.0.0.0.0.0.0.0.0.0.0.0.0.0.0.0.0.0.0.0.0.0.0.0.0",
".0.0.0.0.0.0.2.t.0 = W.0.0.0.0.0.0 L.<.t.0.0.0.0.0.0.0.0.0.0.0.0.0.0.0.0.0.0.0.0.0.0.0.0.0.0.0.0.0.0.0.0.0.0.0.0.0.0.0.0.0.0.0.0",
".0.0.0.0.0.0.2.t.0 = W.0.0.0.0.0.0 l , <.0.0.0.0.0.0.0.0.0.0.0.0.0.0.0.0.0.0.0.0.0.0.0.0.0.0.0.0.0.0.0.0.0.0.0.0.0.0.0.0.0.0.0.0",
".0.0.0.0.0.0.2.t.0.r.3.0.0.0.0.0.0.0.0 U ,.0.0.0.0.0.0.0.0.0.0.0.0.0.0.0.0.0.0.0.0.0.0.0.0.0.0.0.0.0.0.0.0.0.0.0.0.0.0.0.0.0.0.0",
".0.0.0.0.0.0 T :.0.0   [.0.0.0.0.0.0.0 v.-.p.0.0.0.0.0.0.0.0.0.0.0.0.0.0.0.0.0.0.0.0.0.0.0.0.0.0.0.0.0.0.0.0.0.0.0.0.0.0.0.0.0.0",
".0.0.0.0.0.0.0.5.0.0 D 8.0.0.0.0.0.0.0.0.0 6 H.0.0.0.0.0.0.0.0.0.0.0.0.0.0.0.0.0.0.0.0.0.0.0.0.0.0.0.0.0.0.0.0.0.0.0.0.0.0.0.0.0",
".0.0.0.0.0.0.0.5.0.0 l.* S.0.0.0.0.0.0.0.0 R.O g.0.0.0.0.0.0.0.0.0.0.0.0.0.0.0.0.0.0.0.0.0.0.0.0.0.0.0.0.0.0.0.0.0.0.0.0.0.0.0.0",
".0.0.0.0.0.0.0.=.j.0.0.&.l.0.0.0.0.0.0.0.0.0 O _.0.0.0.0.0.0.0.0.0.0.0.0.0.0.0.0.0.0.0.0.0.0.0.0.0.0.0.0.0.0.0.0.0.0.0.0.0.0.0.0",
".0.0.0.0.0.0.0 X '.0.0.s.>.0.0.0.0.0.0.0.0.0.0 [  .0.0.0.0.0.0.0.0.0.0.0.0.0.0.0.0.0.0.0.0.0.0.0.0.0.0.0.0.0.0.0.0.0.0.0.0.0.0.0",
".0.0.0.0.0.0.0 X '.0.0.0.O.m.0.0.0.0.0.0.0.0.0.0 o `.0.0.0.0.0.0.0.0.0.0.0.0.0.0.0.0.0.0.0.0.0.0.0.0.0.0.0.0.0.0.0.0.0.0.0.0.0.0",
".0.0.0.0.0.0.0.t y.0.0.0 J.$ j.0.0.0.0.0.0.0.0.0 g o O.g.0.0.0.0.0.0.0.0.0.0.0.0.0.0.0.0.0.0.0.0.0.0.0.0.0.0.0.0.0.0.0.0.0.0.0.0",
".0.0.0.0.0.0.0.0 ( #.0.0.0 R ;.0.0.0.0.0.0.0.0.0.0.0 _.=.s.0.0.0.0.0.0.0.0.0.0.0.0.0.0.0.0.0.0.0.0.0.0.0.0.0.0.0.0.0.0.0.0.0.0.0",
".0.0.0.0.0.0.0.0.0 - E.0.0.0 9.f.0.0.0.0.0.0.0.0.0.0.0.w.4.0.0.0.0.0.0.0.0.0.0.0.0.0.0.0.0.0.0.0.0.0.0.0.0.0.0.0.0.0.0.0.0.0.0.0",
".0.0.0.0.0.0.0.0.0 G.;.0.0.0 / $.0.0.0.0.0.0.0.0.0.0.0.0 [.5 m.0.0.0.0.0.0.0.0.0.0.0.0.0.0.0.0.0.0.0.0.0.0.0.0.0.0.0.0.0.0.0.0.0",
".0.0.0.0.0.0.0.0.0.0.5.0.0.0.0.5.N.0.0.0.0.0.0.0.0.0.0.0.0.0.= =.0.0.0.0.0.0.0.0.0.0.0.0.0.0.0.0.0.0.0.0.0.0.0.0.0.0.0.0.0.0.0.0",
".0.0.0.0.0.0.0.0.0.0.m * j.0.0 J.+.n.0.0.0.0.0.0.0.0.0.0.0.0 b W.# S.0.0.0.0.0.0.0.0.0.0.0.0.0.0.0.0.0.0.0.0.0.0.0.0.0.0.0.0.0.0",
".0.0.0.0.0.0.0.0.0.0.0.&.l.0.0.0.x 1.0.0.0.0.0.0.0.0.0.0.0.0.0.0.x 7 5.s.0.0.0.0.0.0.0.0.0.0.0.0.0.0.0.0.0.0.0.0.0.0.0.0.0.0.0.0",
".0.0.0.0.0.0.0.0.0.0.0 m e.X.w.0.0 J <.t.0.0.0.0.0.0.0.0.0.0.0.0.0 h.l.%.v J.0.0.0.0.0.0.0.0.0.0.0.0.0.0.0.0.0.0.0.0.0.0.0.0.0.0",
".0.0.0.0.0.0.0.0.0.0.0.0.0.<.p.0.0.0 I <.0.0.0.0.0.0.0.0.0.0.0.0.0.0.0.i.@.$ e j.0.0.0.0.0.0.0.0.0.0.0.0.0.0.0.0.0.0.0.0.0.0.0.0",
".0.0.0.0.0.0.0.0.0.0.0.0.0 z 6.d.0.0.0 J.5.N.0.0.0.0.0.0.0.0.0.0.0.0.0.0.0 j m i.5 6 ) H.0.0.0.0.0.0.0.0.0.0.0.0.0.0.0.0.0.0.0.0",
".0.0.0.0.0.0.0.0.0.0.0.0.0.0 Z 0 g.0.0.0.0.. ! g.0.0.0.0.0.0.0.0.0.0.0.0.0.0.0.0.0 H @ 6.5.5.5.m g g.0.0.0.0.0.0.0.0.0.0.0.0.0.0",
".0.0.0.0.0.0.0.0.0.0.0.0.0.0.0.0.:.d.0.0.0.0 & w S.0.0.0.0.0.0.0.0.0.0.0.0.0.0.0.0.0.0.0.0.0.0.O p u | | | | |.M.0.0.0.0.0.0.0.0",
".0.0.0.0.0.0.0.0.0.0.0.0.0.0.0.0 Z 6.y.0.0.0.0 V 9 ; j.0.0.0.0.0.0.0.0.0.0.0.0.0.0.0.0.0.0.0.0.0.0.e.V.V.V.V.V.X.5.5.5.5 L.a.u.0",
".0.0.0.0.0.0.0.0.0.0.0.0.0.0.0.0.0.y.-. .0.0.0.0.0 R 3 <.i.0.0.0.0.0.0.0.0.0.0.0.0.0.0.0.0.0.0.0.0.0.0.0.0.0.0.0.0.0.0.0 3 A.,.l",
".0.0.0.0.0.0.0.0.0.0.0.0.0.0.0.0.0.0.a.B *.g.0.0.0.0 H I.1. .z v.0.0.0.0.0.0.0.0.0.0.0.0.0.0.0.0.0.0.0.0.0.0.0.0.0.0.0.0.0.1 # {",
".0.0.0.0.0.0.0.0.0.0.0.0.0.0.0.0.0.0.0.0 Q 5 Y.0.0.0.0.0.0.B.%.- [.0.0.0.0.0.0.0.0.0.0.0.0.0.0.0.0.0.0.0.0.0.0.0.0.0.0.0 <.= s {",
".0.0.0.0.0.0.0.0.0.0.0.0.0.0.0.0.0.0.0.0.0 k >.8.p.0.0.0.0.0.0 m  .5 2 Y.0.0.0.0.0.0.0.0.0.0.0.0.0.0.0.0.0.0.0 N Q Q w.5.o 8.<.t",
".0.0.0.0.0.0.0.0.0.0.0.0.0.0.0.0.0.0.0.0.0.0.0 % q.3 H.0.0.0.0.0.0.0 P.+.3.3 W.0.0.0.0.0.0.0.0.0.0.0.0.0 X.3.3.: * * V.Z : L.0.0",
".0.0.0.0.0.0.0.0.0.0.0.0.0.0.0.0.0.0.0.0.0.0.0.0.e l.= 5 x.0.0.0.0.0.0 g l l =.5.5.5.5.5 r ] ] o.5.5.5.5 X l l.e.0.h M + g.0.0.0",
".0.0.0.0.0.0.0.0.0.0.0.0.0.0.0.0.0.0.0.0.0.0.0.0.0.0.0 J t.5 V.w.0.0.0.0.0.0.0.0.0.0.0.0 b . . `.0.0.0.0.0.0.0.y m.-.V.0.0.0.0.0",
".0.0.0.0.0.0.0.0.0.0.0.0.0.0.0.0.0.0.0.0.0.0.0.0.0.0.0.0.0.0 w.% - S.0.0.0.0.0.0.0.0.0.0.0.0.0.0.0.0.0.0.0.d - t e.0.0.0.0.0.0.0",
".0.0.0.0.0.0.0.0.0.0.0.0.0.0.0.0.0.0.0.0.0.0.0.0.0.0.0.0.0.0.0.k E 9.O.g.g.g x.0.0.0.0.0.0.0.0.0.g.g }.5.5.: E.q.0.0.0.0.0.0.0.0",
".0.0.0.0.0.0.0.0.0.0.0.0.0.0.0.0.0.0.0.0.0.0.0.0.0.0.0.0.0.0.0.0.0.0.m.;.;.;.= 5 5 5 5 5 5 5 5 5.;.;.C.0.0.0.0.0.0.0.0.0.0.0.0.0",
".0.0.0.0.0.0.0.0.0.0.0.0.0.0.0.0.0.0.0.0.0.0.0.0.0.0.0.0.0.0.0.0.0.0.0.0.0.0.s J J J J J J J J J.0.0.0.0.0.0.0.0.0.0.0.0.0.0.0.0"
};
