/* XPM */
static char *bank-r[] = {
/* width height ncolors chars_per_pixel */
"64 31 149 2",
/* colors */
"   c #AFAFAF",
" . c #ADADAD",
" X c #ABABAB",
" o c #A9A9A9",
" O c #A7A7A7",
" + c #A5A5A5",
" @ c #A3A3A3",
" # c #A1A1A1",
" $ c #9F9F9F",
" % c #9B9B9B",
" & c #999999",
" * c #979797",
" = c #959595",
" - c #939393",
" ; c #919191",
" : c #8F8F8F",
" > c #8B8B8B",
" , c #898989",
" < c #878787",
" 1 c #858585",
" 2 c #838383",
" 3 c #818181",
" 4 c #7F7F7F",
" 5 c #7D7D7D",
" 6 c #7B7B7B",
" 7 c #797979",
" 8 c #777777",
" 9 c #737373",
" 0 c #6F6F6F",
" q c #616161",
" w c #5F5F5F",
" e c #555555",
" r c #535353",
" t c #4F4F4F",
" y c #4D4D4D",
" u c #FEFEFE",
" i c #FCFCFC",
" p c #FAFAFA",
" a c #F8F8F8",
" s c #454545",
" d c #F6F6F6",
" f c #F4F4F4",
" g c #414141",
" h c #F2F2F2",
" j c #F0F0F0",
" k c #3D3D3D",
" l c #EEEEEE",
" z c #3B3B3B",
" x c #ECECEC",
" c c #393939",
" v c #EAEAEA",
" b c #E6E6E6",
" n c #333333",
" m c #E4E4E4",
" M c #E2E2E2",
" N c #E0E0E0",
" B c #DEDEDE",
" V c #DCDCDC",
" C c #DADADA",
" Z c #D6D6D6",
" A c #232323",
" S c #D4D4D4",
" D c #D2D2D2",
" F c #D0D0D0",
" G c #CECECE",
" H c #CCCCCC",
" J c #CACACA",
" K c #C8C8C8",
" L c #C4C4C4",
" P c #C2C2C2",
" I c #C0C0C0",
" U c #BEBEBE",
" Y c #BCBCBC",
" T c #BABABA",
" R c #B8B8B8",
" E c #B6B6B6",
" W c #B2B2B2",
" Q c #B0B0B0",
" ! c #AEAEAE",
" ~ c #ACACAC",
" ^ c #A8A8A8",
" / c #A6A6A6",
" ( c #A4A4A4",
" ) c #A2A2A2",
" _ c #A0A0A0",
" ` c #9C9C9C",
" ' c #9A9A9A",
" ] c #989898",
" [ c #949494",
" { c #929292",
" } c #8E8E8E",
" | c #8C8C8C",
".  c #8A8A8A",
".. c #888888",
".X c #848484",
".o c #828282",
".O c #808080",
".+ c #7E7E7E",
".@ c #7C7C7C",
".# c #7A7A7A",
".$ c #767676",
".% c #6C6C6C",
".& c #5A5A5A",
".* c #545454",
".= c #525252",
".- c #505050",
".; c #4E4E4E",
".: c #FFFFFF",
".> c #4C4C4C",
"., c #FDFDFD",
".< c #4A4A4A",
".1 c #FBFBFB",
".2 c #F9F9F9",
".3 c #464646",
".4 c #F7F7F7",
".5 c #F5F5F5",
".6 c #F3F3F3",
".7 c #F1F1F1",
".8 c #3E3E3E",
".9 c #EFEFEF",
".0 c #3C3C3C",
".q c #EDEDED",
".w c #3A3A3A",
".e c #EBEBEB",
".r c #383838",
".t c #E9E9E9",
".y c #E7E7E7",
".u c #E5E5E5",
".i c #E3E3E3",
".p c #E1E1E1",
".a c #DDDDDD",
".s c #DBDBDB",
".d c #D9D9D9",
".f c #D7D7D7",
".g c #D5D5D5",
".h c #D3D3D3",
".j c #D1D1D1",
".k c #CDCDCD",
".l c #C9C9C9",
".z c #161616",
".x c #C7C7C7",
".c c #C5C5C5",
".v c #C3C3C3",
".b c #BFBFBF",
".n c #BBBBBB",
".m c #B9B9B9",
".M c #B7B7B7",
".N c #B5B5B5",
".B c #B3B3B3",
/* pixels */
".:.:.:.:.:.:.:.:.:.:.:.:.:.:.:.:.:.:.:.:.:.:.k , , , 5.$.$.$.$.$.$.$.$.O , , , ,.d.:.:.:.:.:.:.:.:.:.:.:.:.:.:.:.:.:.:.:.:.:.:.:",
".:.:.:.:.:.:.:.:.:.:.:.:.:.:.:.: B ` ` 2.$.$ ^ x x x a.:.:.:.:.:.:.:.:.5 x x x x `.$.$.$ & ` ` N.:.:.:.:.:.:.:.:.:.:.:.:.:.:.:.:",
".:.:.:.:.:.:.:.:.:.:.:.:.: D   7 *.d.d h.:.:.:.:.:.:.:.:.:.:.:.:.:.:.:.:.:.:.:.:.:.:.:.: V.d.d =.$.$         Y.:.:.:.:.:.:.:.:.:",
".:.:.:.:.:.:.:.i.v.v Q.$.$ ).c i.:.:.:.:.:.:.:.:.:.:.:.:.:.:.:.:.:.:.:.:.:.:.:.:.:.:.:.:.:.:.:.:.:.:.c.c.c.c R.$.$ %.v.4.:.:.:.:",
".:.:.:.5 Z '.$ { W W.c.:.:.:.:.:.:.:.:.:.:.:.:.:.:.:.:.:.:.:.:.:.:.:.:.:.:.:.:.:.:.:.:.:.:.:.:.:.:.:.:.:.:.:.:.:.: C W.+ }.a.:.:",
".: d.t 7.z.-.5.:.:.:.:.:.:.:.:.:.:.:.:.:.:.:.:.:.:.:.:.:.:.:.:.:.:.:.:.:.:.:.:.:.:.:.:.:.:.:.:.:.:.:.:.:.:.:.:.:.:.:.:.:.y ] P.:",
" u.= 8.u.:.M 3.,.:.:.:.:.:.:.:.:.:.:.:.:.:.:.:.:.:.:.:.:.:.:.:.:.:.:.:.:.:.:.:.:.:.:.:.:.:.:.:.:.:.:.:.:.:.:.:.:.:.:.:.:.:.:.B P",
" , (.:.:.:.: i 7.:.:.:.:.:.:.:.:.:.:.:.:.:.:.:.:.:.:.:.:.:.:.:.:.:.:.:.:.:.:.:.:.:.:.:.:.:.:.:.:.:.:.:.:.:.:.:.:.:.:.:.:.:.:.: 0",
".r.6.:.:.:.:., k j.:.:.:.:.:.:.:.:.:.:.:.:.:.:.:.:.:.:.:.:.:.:.:.:.:.:.:.:.:.:.:.:.:.:.:.:.:.:.:.:.:.:.: ^ &.p.:.:.:.:.:.:.:.: 0",
".0 l.:.:.:.:., c f.:.:.:.:.:.:.:.:.:.:.:.:.:.:.:.:.:.:.:.:.:.:.:.:.:.:.:.:.:.:.:.:.:.:.:.:.:.:.:.2 . -.$.k V.5.:.:.:.:.:.:.:.4.#",
" / : S.:.:.: ; '.:.:.:.:.:.:.:.:.:.:.:.:.:.:.:.:.:.:.:.:.:.:.:.:.:.:.:.:.:.:.:.:.:.:.: I I o.$.$.@ K M.:.:.:.:.:.:.:.:.:.:.: J X",
".: M.<.b.:.:.$.:.:.:.:.:.:.:.:.g.h.h.h.h.h.h.h M.:.:.:.:.:.:.:.:.:.:.:.:.:.: C.N.<.< q.N.N H.:.:.:.:.:.:.:.:.:.:.:.:.:.:.:.x.>.:",
".:.: M q.:.: 2 h.:.:.e b $.$.$ _ ) ) ) ) ) ) ) -.$.$ 2 b b.7.:.:.:.:.:.:.: E y ) ) &.< j.:.:.:.:.:.:.:.:.:.:.:.:.:.:.:.t } 7 @.:",
".:.:.: # S.: i.$.2...  : Z.:.:.:.:.:.:.:.:.:.:.:.:.: h : :.X.$.$.$ G.2.2.2 t x.:.:.:.:.o.6.:.:.:.:.:.:.: p.2.2.q 9.$.$ |.y D @.:",
".:.:.:.v W.: i z.@.q.:.:.:.:.:.:.:.:.:.:.:.:.:.:.:.:.:.:.:.:.:.:.: O.@.@ s.y.:.:.:.:.: > O.:.:.:.B 2 2 2 5.@.@.@ L.:.:.:.: D @.:",
".:.:.:.v W.: i 7.:.:.:.:.:.:.:.:.:.:.:.:.:.:.:.:.:.:.:.:.:.:.:.:.:.:.:.: }.y.:.:.:.:.:.2 g.$.$.$ P h h h.,.:.:.:.:.:.:.:.: D @.:",
".:.:.:.v W.: i 7.:.:.:.:.:.:.:.:.:.:.:.:.:.:.:.:.:.:.:.:.:.:.:.:.:.:.:.: j 1.:.:.:.:.:.%.s.:.:.:.:.:.:.:.:.:.:.:.:.:.:.:.: D @.:",
".:.:.: D @.: i.&.f.:.:.:.:.:.:.:.:.:.:.:.:.:.:.:.:.:.:.:.:.:.:.:.:.:.:.:.: ].a.:.:.: -.O.1.:.:.:.:.:.:.:.:.:.:.:.:.:.:.:.: D @.:",
".:.:.:.:.$.: u R.*.$.$ E F.j.:.:.:.:.:.:.:.:.:.:.:.:.:.:.:.:.:.:.:.:.:.:.: W P.:.: i 6.,.:.:.:.:.:.:.:.:.:.:.:.:.:.:.:.:.: D @.:",
".:.:.:.:.$.:.:.:.:.:.:.b + (.$.$.$.k.i.i m.:.:.:.:.:.:.:.:.:.:.:.:.:.:.:.:.: 5 a.: l <.:.:.:.:.:.:.:.:.:.:.:.:.:.:.:.:.:.: D @.:",
".:.:.:.:.$.:.:.:.:.:.:.:.:.:.:.:.: ^ { { ;.$.$.$ & d d d.1.:.:.:.:.:.:.:.:.:.M U.: l <.:.:.:.:.:.:.:.:.:.:.:.:.:.:.:.:.:.: D @.:",
".:.:.:.:.$.:.:.:.:.:.:.:.:.:.:.:.:.:.:.:.:.:.:.: V 4 4 4.O.O.O (.:.:.:.:.:.:.:.$.: l <.:.:.:.:.:.:.:.:.:.:.:.:.:.:.:.:.:.: D @.:",
".:.:.:.: & n.3.X [.M.:.:.:.:.:.:.:.:.:.:.:.:.:.:.:.:.:.:.2 f f.j.$.$.. [ [ [ > }.: l <.:.:.:.:.:.:.:.:.:.:.:.:.:.:.:.:.:.: D @.:",
".:.:.:.:.: N.w &.= e.$.+ O O D.:.:.:.:.:.:.:.:.:.:.:.:.:.:.:.:.:.:.:.q.p.p.p v.:.: l <.:.:.:.:.:.:.:.:.:.:.:.:.:.:.:.:.:.: D @.:",
".:.:.:.:.:.: m G G a.:.4 G G @.$.$ ~ T T Y.:.:.:.:.:.:.:.:.:.:.:.:.:.:.:.:.:.:.:.: l <.:.:.:.:.:.:.:.:.:.:.:.:.:.:.:.:.:.l & @.:",
".:.:.:.:.:.:.:.:.:.:.:.:.:.:.:.:.:.l.n.n.m.$ %.k.k.k l.:.:.:.:.:.:.:.:.:.:.:.:.:.: l <.:.:.:.:.:.:.:.:.:.:.:.:.1.k.k.>.* ~.8.N.:",
".:.:.:.:.:.:.:.:.:.:.:.:.:.:.:.:.:.:.:.:.:.: C ^ ^ ^ <.$ ~ N i.:.:.:.:.:.:.:.:.:.: l <.:.:.:.:.:.:.:.: M N.x.$.# ^ ^ ^.;.$ w.:.:",
".:.:.:.:.:.:.:.:.:.:.:.:.:.:.:.:.:.:.:.:.:.:.:.:.:.:.:.:.l = 7.$.$ < f p.:.:.:.:.: l <.:.:.: i f v.$.$ - = !.:.:.:.:.:.:.:.:.:.:",
".:.:.:.:.:.:.:.:.:.:.:.:.:.:.:.:.:.:.:.:.:.:.:.:.:.:.:.:.:.:.:.:.: l 3 4.+.+ (.:.: l <.:.: { 4 3 >.:.:.:.:.:.:.:.:.:.:.:.:.:.:.:",
".:.:.:.:.:.:.:.:.:.:.:.:.:.:.:.:.:.:.:.:.:.:.:.:.:.:.:.:.:.:.:.:.:.:.:.1.4.<.b A r 5 y 1.$.i.2.:.:.:.:.:.:.:.:.:.:.:.:.:.:.:.:.:",
".:.:.:.:.:.:.:.:.:.:.:.:.:.:.:.:.:.:.:.:.:.:.:.:.:.:.:.:.:.:.:.:.:.:.:.:.: -.z.r d.9 m j.:.:.:.:.:.:.:.:.:.:.:.:.:.:.:.:.:.:.:.:"
};
