/* XPM */
static char *bank-r[] = {
/* width height ncolors chars_per_pixel */
"64 30 139 2",
/* colors */
"   c #B1B1B1",
" . c #AFAFAF",
" X c #ADADAD",
" o c #ABABAB",
" O c #A5A5A5",
" + c #A3A3A3",
" @ c #9F9F9F",
" # c #9B9B9B",
" $ c #959595",
" % c #939393",
" & c #8F8F8F",
" * c #8D8D8D",
" = c #8B8B8B",
" - c #898989",
" ; c #878787",
" : c #858585",
" > c #838383",
" , c #818181",
" < c #7F7F7F",
" 1 c #7D7D7D",
" 2 c #7B7B7B",
" 3 c #797979",
" 4 c #777777",
" 5 c #6F6F6F",
" 6 c #6D6D6D",
" 7 c #6B6B6B",
" 8 c #656565",
" 9 c #616161",
" 0 c #555555",
" q c #FEFEFE",
" w c #FCFCFC",
" e c #FAFAFA",
" r c #F6F6F6",
" t c #434343",
" y c #F4F4F4",
" u c #F2F2F2",
" i c #F0F0F0",
" p c #EEEEEE",
" a c #ECECEC",
" s c #EAEAEA",
" d c #E6E6E6",
" f c #333333",
" g c #E2E2E2",
" h c #E0E0E0",
" j c #DEDEDE",
" k c #DCDCDC",
" l c #292929",
" z c #D8D8D8",
" x c #D6D6D6",
" c c #D4D4D4",
" v c #D2D2D2",
" b c #D0D0D0",
" n c #CECECE",
" m c #CCCCCC",
" M c #C8C8C8",
" N c #C6C6C6",
" B c #C4C4C4",
" V c #BEBEBE",
" C c #B6B6B6",
" Z c #B2B2B2",
" A c #B0B0B0",
" S c #AEAEAE",
" D c #ACACAC",
" F c #A8A8A8",
" G c #A6A6A6",
" H c #A4A4A4",
" J c #A2A2A2",
" K c #9E9E9E",
" L c #9C9C9C",
" P c #9A9A9A",
" I c #989898",
" U c #969696",
" Y c #949494",
" T c #929292",
" R c #909090",
" E c #8E8E8E",
" W c #8C8C8C",
" Q c #8A8A8A",
" ! c #868686",
" ~ c #848484",
" ^ c #828282",
" / c #808080",
" ( c #7E7E7E",
" ) c #7C7C7C",
" _ c #7A7A7A",
" ` c #787878",
" ' c #767676",
" ] c #747474",
" [ c #727272",
" { c #6E6E6E",
" } c #6C6C6C",
" | c #6A6A6A",
".  c #686868",
".. c #666666",
".X c #606060",
".o c #5E5E5E",
".O c #5A5A5A",
".+ c #525252",
".@ c #4E4E4E",
".# c #FFFFFF",
".$ c #4C4C4C",
".% c #FDFDFD",
".& c #FBFBFB",
".* c #F9F9F9",
".= c #464646",
".- c #F7F7F7",
".; c #444444",
".: c #F5F5F5",
".> c #F3F3F3",
"., c #F1F1F1",
".< c #EFEFEF",
".1 c #EDEDED",
".2 c #3A3A3A",
".3 c #EBEBEB",
".4 c #E9E9E9",
".5 c #E7E7E7",
".6 c #E5E5E5",
".7 c #E3E3E3",
".8 c #DFDFDF",
".9 c #DBDBDB",
".0 c #282828",
".q c #D9D9D9",
".w c #D7D7D7",
".e c #D5D5D5",
".r c #D1D1D1",
".t c #CFCFCF",
".y c #CDCDCD",
".u c #CBCBCB",
".i c #C7C7C7",
".p c #C5C5C5",
".a c #C3C3C3",
".s c #C1C1C1",
".d c #BFBFBF",
".f c #BDBDBD",
".g c #BBBBBB",
".h c #B9B9B9",
".j c #B7B7B7",
".k c #B5B5B5",
".l c #B3B3B3",
/* pixels */
".#.#.#.#.#.#.#.#.#.#.#.#.#.#.#.#.#.#.#.#.#.#.#.#.#.# D ~ ~ ~ ~ ~ ~ ~ ~.>.#.#.#.#.#.#.#.#.#.#.#.#.#.#.#.#.#.#.#.#.#.#.#.#.#.#.#.#",
".#.#.#.#.#.#.#.#.#.#.#.#.#.#.#.#.#.#.# v W W ; 2 2 2.t.-.-.-.-.-.-.-.- ; 2 2 2 < W W W x.#.#.#.#.#.#.#.#.#.#.#.#.#.#.#.#.#.#.#.#",
".#.#.#.#.#.#.#.#.#.#.#.#.#.#.# M Y ) 2 F.<.< y.#.#.#.#.#.#.#.#.#.#.#.#.#.#.#.#.&.<.<.< H 2 2 - Y Y w.#.#.#.#.#.#.#.#.#.#.#.#.#.#",
".#.#.#.#.#.#.#.#.#.#.#.d L P 2 Z d q.#.#.#.#.#.#.#.#.#.#.#.#.#.#.#.#.#.#.#.#.#.#.#.#.#.#.#.#., d d ( 2 2 2 ! L L d.#.#.#.#.#.#.#",
".#.#.#.#.#.# C H ! 2 2.g j h.#.#.#.#.#.#.#.#.#.#.#.#.#.#.#.#.#.#.#.#.#.#.#.#.#.#.#.#.#.#.#.#.#.#.#.#.#.#.# y j j Y > H.8.#.#.#.#",
".#.#.#.# - l Q x y.#.#.#.#.#.#.#.#.#.#.#.#.#.#.#.#.#.#.#.#.#.#.#.#.#.#.#.#.#.#.#.#.#.#.#.#.#.#.#.#.#.#.#.#.#.#.#.#.- x # J.#.#.#",
".#.# ^ ].a n [.g.#.#.#.#.#.#.#.#.#.#.#.#.#.#.#.#.#.#.#.#.#.#.#.#.#.#.#.#.#.#.#.#.#.#.#.#.#.#.#.#.#.#.#.#.#.#.#.#.#.#.#.#.q J.#.#",
".# G `.*.#.#.# S m.#.#.#.#.#.#.#.#.#.#.#.#.#.#.#.#.#.#.#.#.#.#.#.#.#.#.#.#.#.#.#.#.#.#.#.#.#.#.#.#.#.#.#.#.#.#.#.#.#.#.#.# c G.#",
".#.; u.#.#.#.# m 7.#.#.#.#.#.#.#.#.#.#.#.#.#.#.#.#.#.#.#.#.#.#.#.#.#.#.#.#.#.#.#.#.#.#.#.#.#.#.#.#.#.#.u.p r.#.#.#.#.#.#.# p W.#",
".# t.>.#.#.#.# b...#.#.#.#.#.#.#.#.#.#.#.#.#.#.#.#.#.#.#.#.#.#.#.#.#.#.#.#.#.#.#.#.#.#.#.#.#.#.# n F 2 ..k.>.#.#.#.#.#.#.# z J.#",
".# K L d.#.#.# { M.#.#.#.#.#.#.#.#.#.#.#.#.#.#.#.#.#.#.#.#.#.#.#.#.#.#.#.#.#.#.#.#.#.7 x.y 2 2 2 X v.#.#.#.#.#.#.#.#.#.#.& <.#.#",
".#.#.q.;.q.#.# 2.#.#.#.#.#.#.# p j j j j j j j.5.#.#.#.#.#.#.#.#.#.#.#.#.# y j `.O.X I O S.#.#.#.#.#.#.#.#.#.#.#.#.#.#.& ; J.#.#",
".#.#.#.q 5.#.# ^.*.#.& d k 2 2 W L L L L L L L % 2 2 W d d.:.#.#.#.#.#.# r.X > L L.+ M.#.#.#.#.#.#.#.#.#.#.#.#.#.# e.e < 0.#.#.#",
".#.#.#.# %.5.#.f   z < Y K.#.#.#.#.#.#.#.#.#.#.#.#.# p Y Y : 2 2 2 s p p @ J.#.#.#.# A.u.#.#.#.#.#.#.# i p p M 4 2 / O.# 2.#.#.#",
".#.#.#.# H x.#.f.  J.#.#.#.#.#.#.#.#.#.#.#.#.#.#.#.#.#.#.#.#.#.#.# R W W 6.#.#.#.#.#.w.o.-.-.-.j 2 2 2 Q W W W.6.#.#.#.# 2.#.#.#",
".#.#.#.# H x.#.f.f.#.#.#.#.#.#.#.#.#.#.#.#.#.#.#.#.#.#.#.#.#.#.#.#.#.#.# 2.#.#.#.#.#.# 7 ~ ~ ~ B.#.#.#.#.#.#.#.#.#.#.#.# 2.#.#.#",
".#.#.#.# H x.#.f.f.#.#.#.#.#.#.#.#.#.#.#.#.#.#.#.#.#.#.#.#.#.#.#.#.#.#.# H x.#.#.#.# U O.#.#.#.#.#.#.#.#.#.#.#.#.#.#.#.# 2.#.#.#",
".#.#.#.#.y X.#.f.  j.#.#.#.#.#.#.#.#.#.#.#.#.#.#.#.#.#.#.#.#.#.#.#.#.#.# w (.#.#.#.t.. w.#.#.#.#.#.#.#.#.#.#.#.#.#.#.#.# 2.#.#.#",
".#.#.#.#.# 2.#.&.r ' 2 ( Y Y.t.#.#.#.#.#.#.#.#.#.#.#.#.#.#.#.#.#.#.#.#.#.# R s.#.# o.t.#.#.#.#.#.#.#.#.#.#.#.#.#.#.#.#.# 2.#.#.#",
".#.#.#.#.# 2.#.#.#.#.# w d d o 2 2 Q L L L.<.#.#.#.#.#.#.#.#.#.#.#.#.#.#.# m S.#.# 2.#.#.#.#.#.#.#.#.#.#.#.#.#.#.#.#.#.# 2.#.#.#",
".#.#.#.#.# 2.#.#.#.#.#.#.#.#.#.#.# i j j j = 2 2 ~ H H H k.#.#.#.#.#.#.#.#.# R.3.# 2.#.#.#.#.#.#.#.#.#.#.#.#.#.#.#.#.#.# 2.#.#.#",
".#.#.#.#.# 9 X X s.#.#.#.#.#.#.#.#.#.#.#.#.#.#.# r x x x K 2 2 $ X X e.#.#.# Q N.# 2.#.#.#.#.#.#.#.#.#.#.#.#.#.#.#.#.#.# 2.#.#.#",
".#.#.#.#.# x.@ 3 R.= Q.k g.#.#.#.#.#.#.#.#.#.#.#.#.#.#.#.#.#.# d n n / 2 2 2 V y.# 2.#.#.#.#.#.#.#.#.#.#.#.#.#.#.#.#.#.# 2.#.#.#",
".#.#.#.#.#.# p 5 2 } N N I 2 1.f.f.9.#.#.#.#.#.#.#.#.#.#.#.#.#.#.#.#.#.#.#.#.#.#.# 2.#.#.#.#.#.#.#.#.#.#.#.#.#.#.#.#.#.# 2.#.#.#",
".#.#.#.#.#.#.#.#.#.#.#.#.#.#.%.f.f @ 2 2 2.h x.#.#.#.#.#.#.#.#.#.#.#.#.#.#.#.#.#.# 2.#.#.#.#.#.#.#.#.#.#.#.#.#.# u.p.h ] f.#.#.#",
".#.#.#.#.#.#.#.#.#.#.#.#.#.#.#.#.#.#.#.#.#.s H 2 2 2.l.y a.#.#.#.#.#.#.#.#.#.#.#.# 2.#.#.#.#.#.#.#.#.#.#.1.y.k 2 |.0.. Z 4.#.#.#",
".#.#.#.#.#.#.#.#.#.#.#.#.#.#.#.#.#.#.#.#.#.#.#.#.#.#.i X E , x x x.4.#.#.#.#.#.#.# 2.#.#.#.#.#.# x x , 2 * X.p.#.#.< X X.8.#.#.#",
".#.#.#.#.#.#.#.#.#.#.#.#.#.#.#.#.#.#.#.#.#.#.#.#.#.#.#.#.#.* O O O T 2.e j j.*.#.# 2.#.#.3.w 2 2 O O.*.#.#.#.#.#.#.#.#.#.#.#.#.#",
".#.#.#.#.#.#.#.#.#.#.#.#.#.#.#.#.#.#.#.#.#.#.#.#.#.#.#.#.#.#.#.#.#.#.# G 8 4 _.  % 5.e 2 R +.#.#.#.#.#.#.#.#.#.#.#.#.#.#.#.#.#.#",
".#.#.#.#.#.#.#.#.#.#.#.#.#.#.#.#.#.#.#.#.#.#.#.#.#.#.#.#.#.#.#.#.#.#.#.#.q.2.$ &.5 Y O.#.#.#.#.#.#.#.#.#.#.#.#.#.#.#.#.#.#.#.#.#"
};
