/* XPM */
static char *bed-r[] = {
/* width height ncolors chars_per_pixel */
"64 39 188 2",
/* colors */
"   c #000000",
" . c #B1B1B1",
" X c #AFAFAF",
" o c #ADADAD",
" O c #ABABAB",
" + c #A9A9A9",
" @ c #A7A7A7",
" # c #A5A5A5",
" $ c #A3A3A3",
" % c #9F9F9F",
" & c #9D9D9D",
" * c #9B9B9B",
" = c #999999",
" - c #979797",
" ; c #959595",
" : c #939393",
" > c #8F8F8F",
" , c #8D8D8D",
" < c #8B8B8B",
" 1 c #898989",
" 2 c #878787",
" 3 c #858585",
" 4 c #838383",
" 5 c #818181",
" 6 c #7F7F7F",
" 7 c #7D7D7D",
" 8 c #7B7B7B",
" 9 c #797979",
" 0 c #777777",
" q c #757575",
" w c #737373",
" e c #717171",
" r c #6F6F6F",
" t c #6B6B6B",
" y c #696969",
" u c #676767",
" i c #656565",
" p c #616161",
" a c #5F5F5F",
" s c #5D5D5D",
" d c #5B5B5B",
" f c #595959",
" g c #575757",
" h c #555555",
" j c #535353",
" k c #4F4F4F",
" l c #4D4D4D",
" z c #FEFEFE",
" x c #4B4B4B",
" c c #FCFCFC",
" v c #494949",
" b c #FAFAFA",
" n c #474747",
" m c #F8F8F8",
" M c #454545",
" N c #F6F6F6",
" B c #F4F4F4",
" V c #414141",
" C c #F2F2F2",
" Z c #F0F0F0",
" A c #3D3D3D",
" S c #EEEEEE",
" D c #ECECEC",
" F c #393939",
" G c #EAEAEA",
" H c #373737",
" J c #E8E8E8",
" K c #353535",
" L c #E6E6E6",
" P c #333333",
" I c #E4E4E4",
" U c #E2E2E2",
" Y c #DEDEDE",
" T c #DCDCDC",
" R c #292929",
" E c #DADADA",
" W c #D8D8D8",
" Q c #252525",
" ! c #D6D6D6",
" ~ c #232323",
" ^ c #D4D4D4",
" / c #D2D2D2",
" ( c #D0D0D0",
" ) c #CECECE",
" _ c #CCCCCC",
" ` c #CACACA",
" ' c #171717",
" ] c #C8C8C8",
" [ c #C6C6C6",
" { c #111111",
" } c #C2C2C2",
" | c #C0C0C0",
".  c #BEBEBE",
".. c #BABABA",
".X c #B8B8B8",
".o c #B2B2B2",
".O c #B0B0B0",
".+ c #ACACAC",
".@ c #AAAAAA",
".# c #A8A8A8",
".$ c #A6A6A6",
".% c #A2A2A2",
".& c #A0A0A0",
".* c #9E9E9E",
".= c #9A9A9A",
".- c #989898",
".; c #969696",
".: c #949494",
".> c #929292",
"., c #909090",
".< c #8E8E8E",
".1 c #8C8C8C",
".2 c #8A8A8A",
".3 c #888888",
".4 c #868686",
".5 c #848484",
".6 c #828282",
".7 c #808080",
".8 c #7E7E7E",
".9 c #7C7C7C",
".0 c #7A7A7A",
".q c #787878",
".w c #747474",
".e c #727272",
".r c #707070",
".t c #6E6E6E",
".y c #6A6A6A",
".u c #686868",
".i c #666666",
".p c #626262",
".a c #606060",
".s c #5E5E5E",
".d c #5C5C5C",
".f c #565656",
".g c #525252",
".h c #505050",
".j c #FFFFFF",
".k c #4C4C4C",
".l c #FDFDFD",
".z c #4A4A4A",
".x c #FBFBFB",
".c c #484848",
".v c #F9F9F9",
".b c #F7F7F7",
".n c #F5F5F5",
".m c #424242",
".M c #F3F3F3",
".N c #404040",
".B c #F1F1F1",
".V c #3E3E3E",
".C c #EFEFEF",
".Z c #3C3C3C",
".A c #EDEDED",
".S c #3A3A3A",
".D c #E9E9E9",
".F c #363636",
".G c #E7E7E7",
".H c #E5E5E5",
".J c #323232",
".K c #E3E3E3",
".L c #E1E1E1",
".P c #DFDFDF",
".I c #DDDDDD",
".U c #2A2A2A",
".Y c #DBDBDB",
".T c #D9D9D9",
".R c #262626",
".E c #D7D7D7",
".W c #242424",
".Q c #D5D5D5",
".! c #D3D3D3",
".~ c #D1D1D1",
".^ c #CFCFCF",
"./ c #CDCDCD",
".( c #CBCBCB",
".) c #C9C9C9",
"._ c #C7C7C7",
".` c #C5C5C5",
".' c #C3C3C3",
".] c #C1C1C1",
".[ c #BFBFBF",
".{ c #BDBDBD",
".} c #0A0A0A",
".| c #080808",
"X  c #B7B7B7",
"X. c #B5B5B5",
"XX c #020202",
"Xo c #B3B3B3",
/* pixels */
".j.j.j.j.j.j.j.j.j.j.j.j.j.j.j.j.j.j.j.j.j.j.j.j.j.j.j.j.j.j.j.j.j.j.j.j.j.j.j.j.j.j [.:.@.j.j.j.j.j.j.j.j.j.j.j.j.j.j.j.j.j.j.j",
".j.j.j.j.j.j.j.j.j.j.j.j.j.j.j.j.j.j.j.j.j.j.j.j.j.j.j.j.j.j.j.j.j.j.j.j.j.j.j.j.j w h V.Z.U.U.U A. . .  J.j.j.j.j.j.j.j.j.j.j.j",
".j.j.j.j.j.j.j.j.j.j.j.j.j.j.j.j.j.j.j.j.j.j.j.j.j.j.j.j.j.j.j.j.j.j.j.j.j.j.j.j.j t.j.j S.+.+.+ = ' ' P.y j j i.o J J J J.l.j.j",
".j.j.j.j.j.j.j.j.j.j.j.j.j.j.j.j.j.j.j.j.j.j.j.j.j.j.j.j.j.j.j.j.j.j.j.j.j.j.j.j.j t.j.j.j.j.j.j.j.j.j.K.6.6.6.8.F    .}.6 7 7.)",
".j.j.j.j.j.j.j.j.j.j.j.j.j.j.j.j.j.j.j.j.j.j.j.j.j.j.j.j.j.j.j.j.j.j.j.j.j.j.j.j.j t.j.P @ @ @ B.j.j.j.j.j.j.j C.A.A.A.K t.R v ;",
".j.j.j.j.j.j.j.j.j.j.j.j.j.j.j.j.j.j.j.j.j.j.j.j.j.j.j.j.j.j.j.j.j.j.j.j.j.j.j.j.j t.j 2 =.' 6.f.+.j.j.j.j.j.j.j.j.j.j.j.j t ^ ;",
".j.j.j.j.j.j.j.j.j.j.j.j.j.j.j.j.j.j.j.j.j.j.j.j.j.j.j.j.j.j.j.j.j.j.j.j.j.j.j.j.j t c M.D.j.j.L A.u.n b b b c.j.j.j.j.j.j t ^ ;",
".j.j.j.j.j.j.j.j.j.j.j.j.j.j.j.j.j.j.j.j.j.j.j.j.j.j.j.j.j.j.j.j.j.j.j.j.j.j.j.j.j t.q.*.j.j.j.j.j.O r r r r F.,.^.j.j.j.j t ^ ;",
".j.j.j.j.j.j.j.j.j.j.j.j.j.j.j.j.j.j.j.j.j.j.j.j.j.j.j.j.j.j.j.j.j.j.j.j.j.j.j.j.' A 3.l.j.j.j.j.j.j.j.j.j.j % d P c.j.j.j t ^ ;",
".j.j.j.j.j.j.j.j.j.j.j.j.j.j.j.j.j.j.j.j.j.j.j.j.j.j.j.j.j.j b.K.K.K.K.K.K 2 t a ~ 4 E.j.j.j.j.j.j.j.j.j.l &.h (.4 z.j.j.j t ^ ;",
".j.j.j.j.j.j.j.j.j.j.j.j.j.j.j.j.j.j.j.j.j.j.j.j.j.j.j.j.{.q.0 2 2 2 2 2.} q.j >.1.j.j.j.j.j.j.j.j.j.j.j.@ 2 C.T.,.j.j.j.j t ^ ;",
".j.j.j.j.j.j.j.j.j.j.j.j.j.j.j.j.j.j.j.j.j.j.j.j `.%.%.c o.B.M.j.j.j.j.j C W t i { q.% b.j.j.j.j.j.j.j `.z.j.j e.v.j.j.j.j t ^ ;",
".j.j.j.j.j.j.j.j.j.j.j.j.j.j.j.j.j.j.j ! _.* t t.& ] ].] t tXo G.j.j.j.j.j.j.j.j (X  P h.+ _.K.j.j.j.j.sX..j $ : t t.6 (.j t ^ ;",
".j.j.j.j.j.j.j.j.j.j.j.j.j.j.j c N N.r.:.* _.j.j.j.j.j.j.j.jX .7 t > N.x.j.j.j.j.j.j.j T.*.-.F.:.b.j c y z X V.H.j N.P.N.i s ^ ;",
".j.j.j.j.j.j.j.j.j.j.j.j J < <.5.w.w b.j.j.j.j.j.j.j.j.j.j.j.j.j.j.Y.w.7 < I.j.j.j.j.j.j.j.j.j ! 0 <.f.9 o H Z.@ <.w.w.^...s ^ ;",
".j.j.j.j.j.j.j.j.j _.< t.6.P.P J.j.j.j.j.j.j.j.j.j.j.j.j.j.j.j.j.j.j.j.C.P.4 t t.@ J.j.j.j.j.j.j.x ,XX M.y 5 t |.P.j.j.j.j t ^ ;",
".j.u l t ! Y T t t.* T.j.j.j.j.j.j.j.j.j.j.j.j.j.j.j.j.j.j.j.j.j.j.j.j.j.j.j.j.j |.6 t ;.H.j.j.j.j.j.e.iX. W.j.j.j.j.j.j.j t ^ ;",
".j l 1.w.|.y.S ..j.j.j.j.j.j.j.j.j.j.j.j.j.j.j.j.j.j.j.j.j.j.j.j.j.j.j.j.j.j.j.j.j.j.j.Q.4 `.j.j.j.j &./.j.j.j.j.j.j.j.j.j t ^ ;",
".j t z N N.1 u g.W.<.~.j.j.j.j.j.j.j.j.j.j.j.j.j.j.j.j.j.j.j.j.j.j.j.j.j.j.j.j.j.j.j.( &.a.*.j.j.j.j &./.j.j.j.j.j.j.j.j.^.p ^ ;",
".j t.j.j.j.j z _.o.c K nXo.).j.j.j.j.j.j.j.j.j.j.j.j.j.j.j.j.j.j.j.j.j.j.j.j.I._._ 2.* _ |.*.j.j.j.j &./.j.j.j.j.j.j.~.2.g f ^ ;",
".j t.j.j.j.j.j.j.j.j ) > A.> t.>.B.v.j.j.j.j.j.j.j.j.j.j.j.j.j.j.j.j.j m } t , $ $.K.j.j.(.*.j.j.j.j &./.j.j.x.B # t.e.#.j t ^ ;",
".j t.j.j.j.j.j.j.j.j.j.j I 9.4.6 9.7.4.G.j.j.j.j.j.j.j.j.j.j.j.j.j.=.4 6.#.j.j.j.j.j.j.j.(.*.j.j.j.j &./.j.j > 9.`.j }.#.j t ^ ;",
".j t.j.j.j.j.j.j.j.j.j.j.j z.K | t.d y M -.O N.j.j.j.j.j.jX .O.3 t (.K.B.j.j.j.j.j.j.j.j q B.j.j.j.j &.8 t t.P.j.j.j }.w.E t ^ ;",
".j t.j.j.j.j.j.j.j.j.j.j.j.j.j.j.j.j.H + R Q 8.j.j.j.L / tXo.. U.j.j.j.j.j.j.j.j.j.j.j.j t.j.j.j.j.j & #.j.j.j.j.j.j S X.c.m a #",
".j t.j.j.j.j.j.j.j.j.j.j.j.j.j.j.j.j.j.j t.j t.; r r.2.-.j.j.j.j.j.j.j.j.j.j.j.j.j.j.j.j t.j.j.j.j.j v./.j.j.j.j.j.j.j.j.j.j.j.j",
".j t.j.j.j.j.j.j.j.j.j.j.j.j.j.j.j.j.j.j t.j A ^.x.x z.j.j.j.j.j.j.j.j.j.j.j.j.j.j.j.j.j t.j.j.$ : t N z.j.j.j.j.j.j.j.j.j.j.j.j",
".j t.j.j.j.j.j.j.j.j.j.j.j.j.j.j.j.j.j.j t.j t.j.j.j.j.j.j.j.j.j.j.j.j.j.j.j.j.j.j.j.P.k.p y t.t.E.j.j.j.j.j.j.j.j.j.j.j.j.j.j.j",
".j t Z.p.-.C.j.j.j.j.j.j.j.j.j.j.j.j.j.j t.j t.j.j.j.j.j.j.j.j.j.j.j.j.j.j.j.j D D : <._.A.@.j.j.j.j.j.j.j.j.j.j.j.j.j.j.j.j.j.j",
".j x.[.6 @ ' 5.X.j.j.j.j.j.j.j.j.j.j.j.j t.j t.j.j.j.j.j.j.j.j.j.j.j.j.j.j.j . H.8.E.j.j.j.j.j.j.j.j.j.j.j.j.j.j.j.j.j.j.j.j.j.j",
".j [ p.a.J.` J . t -.E.j.j.j.j.j.j.j.j.j t.j t.j.j.j.j.j.j.j.j.j.j.j [ O O v.a C.j.j.j.j.j.j.j.j.j.j.j.j.j.j.j.j.j.j.j.j.j.j.j.j",
".j.j.j.j E.j.j.j.j.! :.^ N.j.j.j.j.j.j.j t.j.*.(.j.j.j.j.j.j.j.j.A.. l.[.[.(.j.j.j.j.j.j.j.j.j.j.j.j.j.j.j.j.j.j.j.j.j.j.j.j.j.j",
".j.j.j.j.j.j.j.j.j.j.j *.w._.j.j.j.j.j.j t.j.O...j.j.j.j.j.j.j.j.V.-.j.j.j.j.j.j.j.j.j.j.j.j.j.j.j.j.j.j.j.j.j.j.j.j.j.j.j.j.j.j",
".j.j.j.j.j.j.j.j.j.j.j.j.j $.8Xo.j.j.j.j t.j.O...j.j L 1 K t t t.j.j.j.j.j.j.j.j.j.j.j.j.j.j.j.j.j.j.j.j.j.j.j.j.j.j.j.j.j.j.j.j",
".j.j.j.j.j.j.j.j.j.j.j.j.j.j DX  t.-.l.j t.j.O.2.  & p $ G.j.j.j.j.j.j.j.j.j.j.j.j.j.j.j.j.j.j.j.j.j.j.j.j.j.j.j.j.j.j.j.j.j.j.j",
".j.j.j.j.j.j.j.j.j.j.j.j.j.j.j.j.j /.-.j t.j.O 7.+./.j.j.j.j.j.j.j.j.j.j.j.j.j.j.j.j.j.j.j.j.j.j.j.j.j.j.j.j.j.j.j.j.j.j.j.j.j.j",
".j.j.j.j.j.j.j.j.j.j.j.j.j.j.j.j.j.j t.j t.j.O...j.j.j.j.j.j.j.j.j.j.j.j.j.j.j.j.j.j.j.j.j.j.j.j.j.j.j.j.j.j.j.j.j.j.j.j.j.j.j.j",
".j.j.j.j.j.j.j.j.j.j.j.j.j.j.j.j.j.j.9.. t.j.O...j.j.j.j.j.j.j.j.j.j.j.j.j.j.j.j.j.j.j.j.j.j.j.j.j.j.j.j.j.j.j.j.j.j.j.j.j.j.j.j",
".j.j.j.j.j.j.j.j.j.j.j.j.j.j.j.j.j.j J.O M.6.c._.j.j.j.j.j.j.j.j.j.j.j.j.j.j.j.j.j.j.j.j.j.j.j.j.j.j.j.j.j.j.j.j.j.j.j.j.j.j.j.j",
".j.j.j.j.j.j.j.j.j.j.j.j.j.j.j.j.j.j.j.j.B   k.j.j.j.j.j.j.j.j.j.j.j.j.j.j.j.j.j.j.j.j.j.j.j.j.j.j.j.j.j.j.j.j.j.j.j.j.j.j.j.j.j"
};
