/* XPM */
static char *bed-r[] = {
/* width height ncolors chars_per_pixel */
"64 39 195 2",
/* colors */
"   c #000000",
" . c #B1B1B1",
" X c #AFAFAF",
" o c #ABABAB",
" O c #A9A9A9",
" + c #A5A5A5",
" @ c #A3A3A3",
" # c #A1A1A1",
" $ c #9F9F9F",
" % c #9D9D9D",
" & c #9B9B9B",
" * c #999999",
" = c #979797",
" - c #959595",
" ; c #939393",
" : c #919191",
" > c #8F8F8F",
" , c #8D8D8D",
" < c #8B8B8B",
" 1 c #898989",
" 2 c #878787",
" 3 c #858585",
" 4 c #838383",
" 5 c #818181",
" 6 c #7F7F7F",
" 7 c #7D7D7D",
" 8 c #7B7B7B",
" 9 c #797979",
" 0 c #777777",
" q c #757575",
" w c #737373",
" e c #717171",
" r c #6F6F6F",
" t c #6B6B6B",
" y c #696969",
" u c #676767",
" i c #656565",
" p c #616161",
" a c #5F5F5F",
" s c #595959",
" d c #575757",
" f c #555555",
" g c #535353",
" h c #515151",
" j c #4F4F4F",
" k c #FEFEFE",
" l c #4B4B4B",
" z c #FCFCFC",
" x c #494949",
" c c #FAFAFA",
" v c #F8F8F8",
" b c #454545",
" n c #F6F6F6",
" m c #434343",
" M c #F4F4F4",
" N c #414141",
" B c #F2F2F2",
" V c #F0F0F0",
" C c #3D3D3D",
" Z c #EEEEEE",
" A c #3B3B3B",
" S c #ECECEC",
" D c #393939",
" F c #EAEAEA",
" G c #373737",
" H c #E8E8E8",
" J c #353535",
" K c #E6E6E6",
" L c #333333",
" P c #E4E4E4",
" I c #E2E2E2",
" U c #E0E0E0",
" Y c #DCDCDC",
" T c #DADADA",
" R c #D8D8D8",
" E c #252525",
" W c #D2D2D2",
" Q c #D0D0D0",
" ! c #1B1B1B",
" ~ c #CCCCCC",
" ^ c #CACACA",
" / c #171717",
" ( c #C6C6C6",
" ) c #C4C4C4",
" _ c #C2C2C2",
" ` c #C0C0C0",
" ' c #BEBEBE",
" ] c #BCBCBC",
" [ c #BABABA",
" { c #B8B8B8",
" } c #B6B6B6",
" | c #030303",
".  c #B4B4B4",
".. c #B2B2B2",
".X c #B0B0B0",
".o c #AEAEAE",
".O c #ACACAC",
".+ c #AAAAAA",
".@ c #A8A8A8",
".# c #A6A6A6",
".$ c #A4A4A4",
".% c #A2A2A2",
".& c #A0A0A0",
".* c #9E9E9E",
".= c #9C9C9C",
".- c #9A9A9A",
".; c #989898",
".: c #969696",
".> c #949494",
"., c #929292",
".< c #909090",
".1 c #8E8E8E",
".2 c #8C8C8C",
".3 c #8A8A8A",
".4 c #888888",
".5 c #868686",
".6 c #848484",
".7 c #828282",
".8 c #808080",
".9 c #7E7E7E",
".0 c #7C7C7C",
".q c #7A7A7A",
".w c #787878",
".e c #767676",
".r c #747474",
".t c #727272",
".y c #707070",
".u c #6E6E6E",
".i c #6A6A6A",
".p c #686868",
".a c #666666",
".s c #646464",
".d c #606060",
".f c #5E5E5E",
".g c #5C5C5C",
".h c #5A5A5A",
".j c #585858",
".k c #565656",
".l c #525252",
".z c #505050",
".x c #4E4E4E",
".c c #FFFFFF",
".v c #4C4C4C",
".b c #FDFDFD",
".n c #FBFBFB",
".m c #484848",
".M c #F9F9F9",
".N c #F7F7F7",
".B c #444444",
".V c #F5F5F5",
".C c #424242",
".Z c #F3F3F3",
".A c #F1F1F1",
".S c #3E3E3E",
".D c #EFEFEF",
".F c #3C3C3C",
".G c #EDEDED",
".H c #3A3A3A",
".J c #EBEBEB",
".K c #383838",
".L c #363636",
".P c #E7E7E7",
".I c #343434",
".U c #E5E5E5",
".Y c #323232",
".T c #E3E3E3",
".R c #E1E1E1",
".E c #DDDDDD",
".W c #DBDBDB",
".Q c #282828",
".! c #D9D9D9",
".~ c #D7D7D7",
".^ c #242424",
"./ c #D5D5D5",
".( c #D3D3D3",
".) c #D1D1D1",
"._ c #1E1E1E",
".` c #CFCFCF",
".' c #CDCDCD",
".] c #1A1A1A",
".[ c #CBCBCB",
".{ c #181818",
".} c #C9C9C9",
".| c #C7C7C7",
"X  c #141414",
"X. c #C5C5C5",
"XX c #C3C3C3",
"Xo c #101010",
"XO c #0E0E0E",
"X+ c #BDBDBD",
"X@ c #BBBBBB",
"X# c #B9B9B9",
"X$ c #B7B7B7",
"X% c #B5B5B5",
"X& c #B3B3B3",
/* pixels */
".c.c.c.c.c.c.c.c.c.c.c.c.c.c.c.c.c.c.c.c.c.c.c.c.c.c.c.c.c.c.c.c.c.c.c.c.c.c.c.c.c.. b  .{.;.;.;.; z.c.c.c.c.c.c.c.c.c.c.c.c.c.c",
".c.c.c.c.c.c.c.c.c.c.c.c.c.c.c.c.c.c.c.c.c.c.c.c.c.c.c.c.c.c.c.c.c.c.c.c.c.c.c.c.c a.'.'X% J J J J.Y.Y.Y.2 ^ ^ ^./.c.c.c.c.c.c.c",
".c.c.c.c.c.c.c.c.c.c.c.c.c.c.c.c.c.c.c.c.c.c.c.c.c.c.c.c.c.c.c.c.c.c.c.c.c.c.c.c.c u.c.c.c.c.c.c.c.* & & N | |.S.1.s.s.s.a + z z",
".c.c.c.c.c.c.c.c.c.c.c.c.c.c.c.c.c.c.c.c.c.c.c.c.c.c.c.c.c.c.c.c.c.c.c.c.c.c.c.c.c u.c.c.c.c.c.c.c.c.c.c.c.c.c ) y y y y 3.j    ",
".c.c.c.c.c.c.c.c.c.c.c.c.c.c.c.c.c.c.c.c.c.c.c.c.c.c.c.c.c.c.c.c.c.c.c.c.c.c.c.c.c u.c } s u g.$.P.c.c.c.c.c.c.c.c.c.c.c I 9.+ j",
".c.c.c.c.c.c.c.c.c.c.c.c.c.c.c.c.c.c.c.c.c.c.c.c.c.c.c.c.c.c.c.c.c.c.c.c.c.c.c.c.c u.c.m _.c Y.6 D n k.c.c.c.c.c.c.c.c.c.c -.).d",
".c.c.c.c.c.c.c.c.c.c.c.c.c.c.c.c.c.c.c.c.c.c.c.c.c.c.c.c.c.c.c.c.c.c.c.c.c.c.c.c.c u ) p.c.c.c.c o.B.t ; ; ; ; k.c.c.c.c.c -.).d",
".c.c.c.c.c.c.c.c.c.c.c.c.c.c.c.c.c.c.c.c.c.c.c.c.c.c.c.c.c.c.c.c.c.c.c.c.c.c.c.c.c.f 9 T.c.c.c.c.c Z W W W W.w.z l H.c.c.c -.).d",
".c.c.c.c.c.c.c.c.c.c.c.c.c.c.c.c.c.c.c.c.c.c.c.c.c.c.c.c.c.c.c.c.c.c.c.c.c v.N.N.p._.<.c.c.c.c.c.c.c.c.c.c.b % 7 7 %.c.c.c -.).d",
".c.c.c.c.c.c.c.c.c.c.c.c.c.c.c.c.c.c.c.c.c.c.c.c.c.c.c.c.c.c.|.<.<.<.<.<.< e r L.p T.c.c.c.c.c.c.c.c.c.c.c.2.C k u.c.c.c.c -.).d",
".c.c.c.c.c.c.c.c.c.c.c.c.c.c.c.c.c.c.c.c.c.c.c.c.c.c.M _.y u $././././ _ C.7 _.h.g.D.c.c.c.c.c.c.c.c.c.c 1 . Z.P 6.c.c.c.c -.).d",
".c.c.c.c.c.c.c.c.c.c.c.c.c.c.c.c.c.c.c.c k M M H u u.f h.J.V.c.c.c.c.c.c.c U @ @X .x.g.G z.c.c.c.c.c.c.M m.J.c.;X. M M.b.c -.).d",
".c.c.c.c.c.c.c.c.c.c.c.c.c.c.c.c.c.c ^.1.2 e e 7.c.c.c { e.r.1.V.c.c.c.c.c.c.c.c.c F e x t.1X$.c.c.c.c t.#.c ].a.1 e e.4.( -.).d",
".c.c.c.c.c.c.c.c.c.c.c.c.c.c z ` ` 3.= R.W.c.c.c.c.c.c.c.c.n R e u - ` Z.c.c.c.c.c.c.c.A R R g.e `.b M h.n . J K.c.! ` , d /.).d",
".c.c.c.c.c.c.c.c.c.M B S u u.i.#.#.R.c.c.c.c.c.c.c.c.c.c.c.c.c.c.c.).#.w u H B B k.c.c.c.c.c.c V.#.s x.jX@.H.'X@ u ,.#X# k p.).d",
".c.c.c.c.c.c.c.c } 5.r.q.c.c.c.c.c.c.c.c.c.c.c.c.c.c.c.c.c.c.c.c.c.c.c.c.c.9.r.r.3.R.c.c.c.c.c.c.c.[.] m G 2.r o.c.c.c.c.c -.).d",
" E L.pX+X+X@ u u X F.c.c.c.c.c.c.c.c.c.c.c.c.c.c.c.c.c.c.c.c.c.c.c.c.c.c.c.c.c.c Y.6 u 3.|.c.c.c.c.cX@.F R.R.c.c.c.c.c.c.c -.).d",
".B &.aXo 6.F #.D.M.c.c.c.c.c.c.c.c.c.c.c.c.c.c.c.c.c.c.c.c.c.c.c.c.c.c.c.c.c.c.c.c.c.c.R.,X%.c.c.c.c.).>.c.c.c.c.c.c.c.c.c -.).d",
" u.c.c.c.< 0.x !.7 ].c.c.c.c.c.c.c.c.c.c.c.c.c.c.c.c.c.c.c.c.c.c.c.c.c.c.c.c.c.c.c.c '.4.p >.c.c.c.c.).>.c.c.c.c.c.c.c.c.b j.).d",
" u.c.c.c.c k.E _.l.L.Y.= [ M.c.c.c.c.c.c.c.c.c.c.c.c.c.c.c.c.c.c.c.c.c.c.c.c ~ [ [.0.@.E.` >.c.c.c.c.).>.c.c.c.c.c.c.T O u.Q.).d",
" u.c.c.c.c.c.c.c.c.W & G.; r.u S.A.c.c.c.c.c.c.c.c.c.c.c.c.c.c.c.c.c.c.A.# u * o o F.c.c.~ >.c.c.c.c.).>.c.c.c S.) u 4.k.c -.).d",
" u.c.c.c.c.c.c.c.c.c.c.M 9.6 3 9.0.5 '.c.c.c.c.c.c.c.c.c.c.c.c.c.A.5.5 7 `.c.c.c.c.c.c.c.~ >.c.c.c.c.).>.c.cX$ 9.>.c.c u.c -.).d",
" u.c.c.c.c.c.c.c.c.c.c.c.c.U T u a.v.d w { T.c.c.c.c.c.c F { {.u q U U n.c.c.c.c.c.c.c.c.r.A.c.c.c.c.) t.p u X.c.c.c.c.jX# -.).d",
" u.c.c.c.c.c.c.c.c.c.c.c.c.c.c.c.c c.o fXO.Y F.c.c.M F O.0.o.o v.c.c.c.c.c.c.c.c.c.c.c.c u.c.c.c.c.c.) i k.c.c.c.c.c.c '.l b.j.I",
" u.c.c.c.c.c.c.c.c.c.c.c.c.c.c.c.c.c.c [ o.5X+ 4 4 5.0X+.c.c.c.c.c.c.c.c.c.c.c.c.c.c.c.c u.c.c.c.c.c 2.>.c.c.c.c.c.c.c.c.c.c.c.c",
" u.c.c.c.c.c.c.c.c.c.c.c.c.c.c.c.c.c.c [ o.5 7 I I F.c.c.c.c.c.c.c.c.c.c.c.c.c.c.c.c.c.c u.c.c (X% y (.Z.c.c.c.c.c.c.c.c.c.c.c.c",
" u.c.c.c.c.c.c.c.c.c.c.c.c.c.c.c.c.c.c [ o.5 U.c.c.c.c.c.c.c.c.c.c.c.c.c.c.c.c.c.c.c B.f.v :.a.B ..b.c.c.c.c.c.c.c.c.c.c.c.c.c.c",
" u.U.8. .c.c.c.c.c.c.c.c.c.c.c.c.c.c.c [ o.5 U.c.c.c.c.c.c.c.c.c.c.c.c.c.c.c.c.c.c.& 6.O.J 6 c.c.c.c.c.c.c.c.c.c.c.c.c.c.c.c.c.c",
".mX@ < : A...(.c.c.c.c.c.c.c.c.c.c.c.c [ o.5 U.c.c.c.c.c.c.c.c.c.c.c.c.c.c.c.. m uX..Z.c.c.c.c.c.c.c.c.c.c.c.c.c.c.c.c.c.c.c.c.c",
".e.m x.K =X& ; u } V.c.c.c.c.c.c.c.c.c [ o.5 U.c.c.c.c.c.c.c.c.c.c.c K P P.d.B Y.c.c.c.c.c.c.c.c.c.c.c.c.c.c.c.c.c.c.c.c.c.c.c.c",
".c.c kX%.c.c.c.c.X.8 F.c.c.c.c.c.c.c.c [ oXX.%.c.c.c.c.c.c.c.c.c.c ].I 5 5 o.c.c.c.c.c.c.c.c.c.c.c.c.c.c.c.c.c.c.c.c.c.c.c.c.c.c",
".c.c.c.c.c.c.c.c.c.V.0.:.(.c.c.c.c.c.c [ o.c u.c.c.c.c.c.c.c.c K.v.+.D.c.c.c.c.c.c.c.c.c.c.c.c.c.c.c.c.c.c.c.c.c.c.c.c.c.c.c.c.c",
".c.c.c.c.c.c.c.c.c.c.c Q ;.5 P.c.c.c.c [ o.c u.c.c.c.J.:.s u u.8 '.c.c.c.c.c.c.c.c.c.c.c.c.c.c.c.c.c.c.c.c.c.c.c.c.c.c.c.c.c.c.c",
".c.c.c.c.c.c.c.c.c.c.c.c.c U.6 8 %.c.c [ o.c u.c.c.3.Y.6.Z.c.c.c.c.c.c.c.c.c.c.c.c.c.c.c.c.c.c.c.c.c.c.c.c.c.c.c.c.c.c.c.c.c.c.c",
".c.c.c.c.c.c.c.c.c.c.c.c.c.c k.J.}.-.c [ o.c.F u u Y.G.c.c.c.c.c.c.c.c.c.c.c.c.c.c.c.c.c.c.c.c.c.c.c.c.c.c.c.c.c.c.c.c.c.c.c.c.c",
".c.c.c.c.c.c.c.c.c.c.c.c.c.c.c.c.c u.c [ o.c u.c.c.c.c.c.c.c.c.c.c.c.c.c.c.c.c.c.c.c.c.c.c.c.c.c.c.c.c.c.c.c.c.c.c.c.c.c.c.c.c.c",
".c.c.c.c.c.c.c.c.c.c.c.c.c.c.c.c.c u.c [ o.c u.c.c.c.c.c.c.c.c.c.c.c.c.c.c.c.c.c.c.c.c.c.c.c.c.c.c.c.c.c.c.c.c.c.c.c.c.c.c.c.c.c",
".c.c.c.c.c.c.c.c.c.c.c.c.c.c.c.c.c.J u w.w.~.g.c.c.c.c.c.c.c.c.c.c.c.c.c.c.c.c.c.c.c.c.c.c.c.c.c.c.c.c.c.c.c.c.c.c.c.c.c.c.c.c.c",
".c.c.c.c.c.c.c.c.c.c.c.c.c.c.c.c.c.c.c ).C.^X$.c.c.c.c.c.c.c.c.c.c.c.c.c.c.c.c.c.c.c.c.c.c.c.c.c.c.c.c.c.c.c.c.c.c.c.c.c.c.c.c.c"
};
