/* XPM */
static char *beer-r[] = {
/* width height ncolors chars_per_pixel */
"56 64 210 2",
/* colors */
"   c #000000",
" . c #B1B1B1",
" X c #AFAFAF",
" o c #ADADAD",
" O c #ABABAB",
" + c #A9A9A9",
" @ c #A7A7A7",
" # c #A5A5A5",
" $ c #A3A3A3",
" % c #A1A1A1",
" & c #9F9F9F",
" * c #9D9D9D",
" = c #9B9B9B",
" - c #999999",
" ; c #959595",
" : c #939393",
" > c #919191",
" , c #8F8F8F",
" < c #8D8D8D",
" 1 c #8B8B8B",
" 2 c #898989",
" 3 c #878787",
" 4 c #858585",
" 5 c #838383",
" 6 c #818181",
" 7 c #7F7F7F",
" 8 c #7D7D7D",
" 9 c #7B7B7B",
" 0 c #797979",
" q c #777777",
" w c #757575",
" e c #737373",
" r c #6F6F6F",
" t c #6D6D6D",
" y c #6B6B6B",
" u c #696969",
" i c #676767",
" p c #656565",
" a c #595959",
" s c #575757",
" d c #555555",
" f c #515151",
" g c #4F4F4F",
" h c #4D4D4D",
" j c #FEFEFE",
" k c #4B4B4B",
" l c #FCFCFC",
" z c #494949",
" x c #FAFAFA",
" c c #474747",
" v c #F8F8F8",
" b c #454545",
" n c #F6F6F6",
" m c #434343",
" M c #F4F4F4",
" N c #F2F2F2",
" B c #3F3F3F",
" V c #F0F0F0",
" C c #3D3D3D",
" Z c #EEEEEE",
" A c #3B3B3B",
" S c #ECECEC",
" D c #EAEAEA",
" F c #E8E8E8",
" G c #353535",
" H c #E6E6E6",
" J c #333333",
" K c #E4E4E4",
" L c #313131",
" P c #E2E2E2",
" I c #2F2F2F",
" U c #E0E0E0",
" Y c #2D2D2D",
" T c #DEDEDE",
" R c #2B2B2B",
" E c #DCDCDC",
" W c #292929",
" Q c #DADADA",
" ! c #D8D8D8",
" ~ c #252525",
" ^ c #D6D6D6",
" / c #232323",
" ( c #D4D4D4",
" ) c #212121",
" _ c #D2D2D2",
" ` c #1F1F1F",
" ' c #D0D0D0",
" ] c #1D1D1D",
" [ c #CECECE",
" { c #CCCCCC",
" } c #CACACA",
" | c #C8C8C8",
".  c #C6C6C6",
".. c #C4C4C4",
".X c #C2C2C2",
".o c #C0C0C0",
".O c #BEBEBE",
".+ c #BCBCBC",
".@ c #BABABA",
".# c #070707",
".$ c #B8B8B8",
".% c #B6B6B6",
".& c #030303",
".* c #B4B4B4",
".= c #B2B2B2",
".- c #AEAEAE",
".; c #ACACAC",
".: c #AAAAAA",
".> c #A8A8A8",
"., c #A6A6A6",
".< c #A4A4A4",
".1 c #A2A2A2",
".2 c #A0A0A0",
".3 c #9E9E9E",
".4 c #9A9A9A",
".5 c #989898",
".6 c #969696",
".7 c #929292",
".8 c #909090",
".9 c #8C8C8C",
".0 c #8A8A8A",
".q c #888888",
".w c #868686",
".e c #848484",
".r c #828282",
".t c #808080",
".y c #7E7E7E",
".u c #7C7C7C",
".i c #7A7A7A",
".p c #787878",
".a c #747474",
".s c #727272",
".d c #707070",
".f c #6E6E6E",
".g c #6C6C6C",
".h c #6A6A6A",
".j c #686868",
".k c #646464",
".l c #626262",
".z c #606060",
".x c #5E5E5E",
".c c #5C5C5C",
".v c #5A5A5A",
".b c #585858",
".n c #565656",
".m c #545454",
".M c #525252",
".N c #505050",
".B c #4E4E4E",
".V c #FFFFFF",
".C c #4C4C4C",
".Z c #FDFDFD",
".A c #4A4A4A",
".S c #FBFBFB",
".D c #484848",
".F c #F9F9F9",
".G c #464646",
".H c #F7F7F7",
".J c #444444",
".K c #F5F5F5",
".L c #424242",
".P c #F3F3F3",
".I c #F1F1F1",
".U c #3E3E3E",
".Y c #EFEFEF",
".T c #EDEDED",
".R c #3A3A3A",
".E c #EBEBEB",
".W c #E9E9E9",
".Q c #363636",
".! c #E7E7E7",
".~ c #343434",
".^ c #E5E5E5",
"./ c #E3E3E3",
".( c #E1E1E1",
".) c #2E2E2E",
"._ c #DFDFDF",
".` c #DDDDDD",
".' c #2A2A2A",
".] c #DBDBDB",
".[ c #282828",
".{ c #262626",
".} c #D7D7D7",
".| c #242424",
"X  c #D5D5D5",
"X. c #222222",
"XX c #D1D1D1",
"Xo c #1E1E1E",
"XO c #CFCFCF",
"X+ c #1C1C1C",
"X@ c #CDCDCD",
"X# c #CBCBCB",
"X$ c #181818",
"X% c #C9C9C9",
"X& c #C7C7C7",
"X* c #C5C5C5",
"X= c #121212",
"X- c #C3C3C3",
"X; c #C1C1C1",
"X: c #BFBFBF",
"X> c #BDBDBD",
"X, c #0A0A0A",
"X< c #BBBBBB",
"X1 c #B9B9B9",
"X2 c #060606",
"X3 c #B7B7B7",
"X4 c #040404",
"X5 c #B5B5B5",
"X6 c #020202",
"X7 c #B3B3B3",
/* pixels */
".V.V.V.V.V.V.V.V.V.V.V.V.V.V.V.V.V.V.V.V.VX% :.N.N.N.z X Z.V.V.V.V.V.V.V.V.V.V.V.V.oX+.N.N.N.) X N.V.V.V.V.V.V.V",
".V.V.V.V.V.V.V.V.V.V.V.V.V.V.V.V.V.V.V.H.z.0X<.V.V.V.Y & t.1.V.V.V.V.V.V.V.V.V.V.O <.o.V.V.V.> &.h.:.V.V.V.V.V.V",
".V.V.V.V.V.V.V.V.V.V.V.V.V.V.V.V.V.V.VX&.n x S.o c.oX#.V U.G.<.V.V.V.V.V.V.V.V F y.S.V ^.o.o.o.(.} W }.V.V.V.V.V",
".V.V.V.V.V.V.V.V.V.V.V.V.V.V.V.V.V.V.V.AX3.V f s , ,.1.V.V.V.A.d.d.d.d.d.d.d.d eX>.V [.{ 1 ,.d A FX#.e.V.V.V.V.V",
".V.V.V.V.V.V.V.V.V.V.V.V.V.V.V.V.V.V.V.N.V.V.G N.V.V.V.V.V.V.! T T T T T T T 1 m.V.V M T j.V v u ^.V.N.V.V.V.V.V",
".V.V.V.V.V.V.V.V.V.V.V.V.V.V.V.V.V.V.V.N.V.V.N.V.V.V.V.V.V.V.V.V.V.V.V.V.V.V.V.V.V.V.V.V.V.V./ 7.E.V.N.V.V.V.V.V",
".V.V.V.V.V.V.V.V.V.V.V.V.V.V.V.V.V.V.V.B.E.V.[ =.Z.V.V.V.V.V.V.V.V.V.V.V.V.V.V.V.V.V.V.V.V.V.n ;.V.I.x.V.V.V.V.V",
".V.V.V.V.V.V.V.V.V.V.V.V.V.V.V.V.V.V.V ,.c.V (.f.P.V.V.V.V.V.V.V.V.V.V.V.V.V.V.V.V.V.V.V.V.V.V.V $ 6._.V.V.V.V.V",
".V.V.V.V.V.V.V.V.V.V.V.V.V.V.V.V.V.V.V l.6.G N.V.V.V.V.V.V.V.V.V.V.V.V.V.V.V.V.V.V.V.V.V.V.V { z J E.V.V.V.V.V.V",
".V.V.V.V.V.V.V.V.V.V.V.V.V.V.V.V.V.V.V.V.V :.s Q.V.V.V.V.V.V.V.V.V.V.V.V.V.V.V.V.V.V.V.V.V.V a 3.V.V.V.V.V.V.V.V",
".V.V.V.V.V.V.V.V.V.V.V.V.V.V.V.V.V.V.V.V.V.VX7 =.V.V.V.V.V.V.V.V.V.V.V.V.V.V.V.V.V.V.V.V.V.V.T 8./.V.V.V.V.V.V.V",
".V.V.V.V.V.V.V.V.V.V.V.V.V.V.V.V.V.V.V.V.V.VX7 =.V.V.V.V.V.V.V.V.V.V.V.V.V.V.V.V.V.V.V.V.V.V.V % G.V.V.V.V.V.V.V",
".V.V.V.V.V.V.V.V.V.V.V.V.V.V.V.V.V.V.V.V.V.V c =.V.V.V.V.V.V.V.V.V.V.V.V.V.V.V.V.V.V.V.V.V.V.V.V.N.V.V.V.V.V.V.V",
".V.V.V.V.V.V.V.V.V.V.V.V.V.V.V.V.V.V.V.V.V.V.A v.V T RX= [.V.V.V.V.V.V.V.V.V.V.F.iX$.}.V.V.V.V.V d.t.V.V.V.V.V.V",
".V.V.V.V.V.V.V.V.V.V.V.V.V.V.V.V.V.V.V.V.V.V.N.V.V.a     u.V.V.V.V.V.V.V.V.V.V H    .b.V.V.V.V.V ! q.V.V.V.V.V.V",
".V.V.V.V.V.V.V.V.V.V.V.V.V.V.V.V.V.V.V.V.V.V.N.V.V <X2  .R.V.V.V.V.V.V.V.V.V.V H    .b.V.V.V.V.V ! q.V.V.V.V.V.V",
".V.V.V.V.V.V.V.V.V.V.V.V.V.V.V.V.V.V.V.V.V.V.N.V.V.V.8 8 K.V.V.V.V.V.V.V.V.V.V N 8 8.:.V.V.V.V.V.r q.V.V.V.V.V.V",
".V.V.V.V.V.V.V.V.V.V.V.V.V.V.V.V.V.V.V.V.V.V.N.V.V.V.V.V.V.V.V.K P P.P.V.V.V.V.V.V.V.V.V.V.V.V.V.D K.V.V.V.V.V.V",
".V.V.V.V.V.V.V.V.V.V.V.V.V.V.V.V.V.V.V.V.V.V.N.V.V.V.V.V.V.V.V #     -.V.V.V.V.V.V.V.V.V.V.V.V.V.N.V.V.V.V.V.V.V",
".V.V.V.V.V.V.V.V.V.V.V.V.V.V.V.V.V.V.V.V.V.V -X5.V.V.V.V.V.V.V +X4.&.3.V.V.V.V.V.V.V.V.V.V.V l.6X7.V.V.V.V.V.V.V",
".V.V.V.V.V.V.V.V.V.V.V.V.V.V.V.V.V.V.V.V.V.VXO 3 v.V.V.V.V.V.V.V :.C.V.V.V.V.V.V.V.V.V.V.V.V | L.^.V.V.V.V.V.V.V",
".V.V.V.V.V.V.V.V.V.V.V.V.V.V.V.V.V.V.V.V.V.V.V.k.E.V.V.V.V.V.V.V <.C.V.V.V.V.V.V.V.V.V.V.V.4 i.}.V.V.V.V.V.V.V.V",
".V.V.V.V.V.V.V.V.V.V.V.V.V.V.V.V.V.V.V.V.V.V.V.Z w E.V.V.V.V.VX; h. X..W.V.V.V.V.V.V.V.V.e I.E.V.V.V.V.V.V.V.V.V",
".V.V.V.V.V.V.V.V.V.V.V.V.V.V.V.V.V.V.V.V.V.V.V.V...Q.W.V.V.V.V.V.V.VX- n.V.V.V.V.V.V }.k I ^.V.V.V.V.V.V.V.V.V.V",
".V.V.V.V.V.V.V.V.V.V.V.V.V.V.V.V.V.V.V.V.V.V.V.V...N I.. }.V.V.V.V.V.V.V.V.V.VXX...d 4.E i.!.V.V.V.V.V.V.V.V.V.V",
".V.V.V.V.V.V.V.V.V.V.V.V.V.V.V.V.V.V.V.V.V.V.V.: u.C 1 1 W.a.a #.V.V.V.V.V 2.a.w 1._.V.VX3 b N.V.V.V.V.V.V.V.V.V",
".V.V.V.V.V.V.V.V.V.V.V.V.V.V.V.V.V.V.V.V V (.M.0 g.3.V.V P Q Q +.N.N.N.N.NX* Q.H.V.V.V.d.J R m.r v.V.V.V.V.V.V.V",
".V.V.V.V.V.V.V.V.V.V.V.V.V.V.V.V.V.V.V.F 6 9.Z.k.E.V.V.V.V.V.V.V.V.V.V.V.V.V.V.V.V.VX .y.S.V P 9 ;.V.V.V.V.V.V.V",
".V.V.V.V.V.V.V.V.V.V.V.V.V.V.V.V.V l K 8.`.VX-.8.S.V.V.V.V.V.V.V.V.V.V.V.V.V.V.V.V.V @ @.V.V.V.V.o ; H.V.V.V.V.V",
".V.V.V.V.V.V.V.V.V.V.V.V.V.V.V.V.V #.h !.V.V.0X*.V.V.V.V.V.V.V.V.V.V.V.V.V.V.V.V.V.V @ @.V.V.V.V.V.@ ~X:.V.V.V.V",
".V.V.V.V.V.V.V.V.V.V.V.V.V.V.V T.A o.V.V.V.rX@.V.V.V.V.V.V.V.V.V.V.V.V.V.V.V.V.V.V.V @ %.V.V.V.V.V.V.@.j l.V.V.V",
".V.V.V.V.V.V.V.V.V.V.V.V.V.V.V.< O.V.V.V._ e l.V.V.V.V.V.V.V.V.V.V.V.V.V.V.V.V.V.V.V.  `X1.V.V.V.V.V.V -.%.V.V.V",
".V.V.V.V.V.V.V.V.V.V.V.V.V.V.1 o.V.V.V.V $ O.V.V.V.V.V.V.V.V.V.V.V.V.V.V.V.V.V.V.V.V.VX& ].@.V.V.V.V.V.`.s.V.V.V",
".V.V.V.V.V.V.V.V.V.V.V.V.V.' o j.V.V.V.P.x.Z.V.V.V.V.V.V.V.V.V.V.V.V.V.V.V.V.V.V.V.V.V.V.F ; J E.V.V.V.V.B [.V.V",
".V.V.V.V.V.V.V.V.V.V.V.V %.-.V.V.V.V.V >.O.V.V.V.V.V.V.V.V.V.V.V.V.V.V.V.V.V.V.V.V.V.V.V.V.V.r 3.V.V.V.V.=.n.V.V",
".V.V.V.V.V.V.V.V.V.V.V $.-.Z.V.V.V.V.V.N.V.V.V.V.V.V.V.V.V.V.V.V.V.V.V.V.V.V.V.V.V.V.V.V.V.V x.5.+.V.V.V.F.n.V.V",
".V.V.V.V.V.V.V.V.V.V.1.B.V.V.V.V.V.VX*.0.V.V.V.V.V.V.V.V.V.V.V.V.V.V.V.V.V.V.V.V.V.V.V.V.V.V.V.V.N.V.V.V l 5XO.V",
".V.V.V.V.V.V.V.V.V V.z P.V.V.V.V.V x 9.+.V.V.V.V.V.V.V.V.V.V.V.V.V.V.V.V.V.V.V.V.V.V.V.V.V.V.V.VX- 1.V.V.VX3 -.Z",
".V.V.V.V.V.V.V.V.V % o.V.V.V.V.V.V ,  .+.V.V.V.V.V.V.V.V.V.V.V.V.V.V.V.V.V.V.V.V.V.V.V.V.V.V.V.V !.U K.V.V.V.v.K",
".V.V.V.V.V.V.V.V M.g.T.V.V.V.V.V * J e.+.V.V.V.V.V.V.V.V.V.V.V.V.V.V.V.V.V.V.V.V.V.V.V.V.V.V.V.V.H y. .V.V.V.v.K",
".V.V.V.V.V.V.V.V +.x.V.V.V.V.V.T.tX  5.}.V.V.V.V.V.V.V.V.V.V.V.V.V.V.V.V.V.V.V.V.V.V.V.V.V.V.V.V.V.q. .V.V.V.v >",
".V.V.V.V.V.V.V l g _.V.V.V.V.S e.] P.g.V.V.V.V.V.V.V.V.V.V.V.V.V.V.V.V.V.V.V.V.V.V.V.V.V.V.V.V.V.V.9 z.V.V.VXX.#",
".V.V.V.V.V.V.V >.O.V.V.V.V D k u.V P.g.V.V.V.V.V.V.V.V.V.V.V.V.V.V.V.V.V.V.V.V.V.V.V.V.V.V.V.V.V.V.V.N.V.V.V.VX,",
".V.V.V.V.V.V.E.i.g.b.b 1.V.X.c.P.V P.g.V.V.V.V.V.V.V.V.V.V.V.V.V.V.V.V.V.V.V.V.V.V.V.V.V.V.V.V.V.V.V.N.V.V.V.VX,",
".V.V.V.V.V.V U /.m.H.H.Q.2 W o.V.V P.g.V.V.V.V.V.V.V.V.V.V.V.V.V.V.V.V.V.V.V.V.V.V.V.V.V.V.V.V.V.V.V.N.V.V.V '.C",
".V.V.V.V.V.V U Y !.V.V._.i o.V.V.V P.g.V.V.V.V.V.V.V.V.V.V.V.V.V.V.V.V.V.V.V.V.V.V.V.V.V.V.V.V.V.V.V.N.V.V.V.v.K",
".V.V.V.V.V.V l =.G a |.' o.Z.V.V.V P.g.V.V.V.V.V.V.V.V.V.V.V.V.V.V.V.V.V.V.V.V.V.V.V.V.V.V.V.V.V.V.^.U T.V S.h.H",
".V.V.V.V.V.V.V.V v 3 3.;.V.V.V.V.V P J.p.p.p.Z.V.V.V.V.V.V.V.V.V.V.V.V.V.V.VX:.p.p.u.V.V.V.V.V.V D 7 3 6.p.N #.V",
".V.V.V.V.V.V.V.V.V.V.V.V.V.V.V v 5 s.9.> ^ ^ c : l.V.V.V.V.V.V.V.V.V.V n ! p , ^ ^ _.N.Q.`.V.H.8.k.W.V.Y ^ ^.I.V",
".VX5.q.q.qX-.V.V.V.V.V.V.V.VX> 4 q K.V.V.V.V.} I.E.V.V.V.V.V.V.V.V.V.$.e q D.V.V.V.V.V.,.'XO.8X:.V.V.V.V.V.V.V.V",
" ..| ,.g $ J.l F.F.V.V v F k L.$.V.V.V.V.V.V.V.s.k.V.V.V.V.V.V.V V C ~...V.V.V.V.V.V.V.V.8 IX&.V.V.V.V.V.V.V.V.V",
"   &.V + #.V.T.R.s - -.h B 1.V.V.V.V.V.V.V.V.V.V.N.V.V.V.V.V.S - J ].X.V.V.V.V.V.V.V.V.+ 1X;.V.V.V.V.V.V.V.V.V.V",
" 8 &.V.V o.< j._.%.%.%.%./.V.V.V.V.V.V.V.V.V.Z.7 ].N.N.N.N.N hX6 9X#.V.V.V.V.V.V.V.V.Z aX*.V.V.V.V.V.V.V.V.V.V.V",
" }.0.F.V.V.t [.V.V.V.V.V.V.V.V.V.V.V.V.V.VX*.8X>.V.V.V.V.V.].,.7.V.V.V.V.V.V.V.V.V l.9X*.V.V.V.V.V.V.V.V.V.V.V.V",
".VX&.q.V.V _.u.V.V.V.V.V.V.V.V.V.V.V.V.H.v ]X>.V.V.V.V.V Z G.u.V.V.V.V.V.V.V.V.V.V 1...V.V.V.V.V.V.V.V.V.V.V.V.V",
".V.V.fX1 n.V.l.a.V.V.V.V.V.V.V.V.VX& r C 4.K.V.V.V.VX-X1 q.K l.V.V.V.V.V.V.V T X.NX&.V.V.V.V.V.V.V.V.V.V.V.V.V.V",
".V.V.^.L.p.V U.f.V.V.V.V.V.V.V.y.h.9.n.B.h.h.h.h.h.h.[ ;.W.V.V.V.V.V.V.V.V.!.y &.V.V.V.V.V.V.V.V.V.V.V.V.V.V.V.V",
".V.V.V V.N <.=.f.V.V.V } }.~.NXX.^ M 1X3.^ r a '.^.^.W.V.V.V.V.V.V.V.V.V./.i.I.V.V.V.V.V.V.V.V.V.V.V.V.V.V.V.V.V",
".V.V.V.V.V.X 4.t.i.i.i 4 4.1.V.V.V.I.t E.V.V.].y -.V.V.V.V.V.V.V.V.V.V.w.t.T.V.V.V.V.V.V.V.V.V.V.V.V.V.V.V.V.V.V",
".V.V.V.V.V.V.V S ( ( (.V.V.V.V.V.V.V :.1.V.V.V.^.~.3.V.V.V.V.V.V H Q 3 |.E.V.V.V.V.V.V.V.V.V.V.V.V.V.V.V.V.V.V.V",
".V.V.V.V.V.V.V.V.V.V.V.V.V.V.V.V.V.V.. R.V.V.V.V.. k Z.V.V.V.V ^.u w |.V.V.V.V.V.V.V.V.V.V.V.V.V.V.V.V.V.V.V.V.V",
".V.V.V.V.V.V.V.V.V.V.V.V.V.V.V.V.V.V.V [ 3 D.V.V.I a Q.V Z.:.N 0.E.V.V.V.V.V.V.V.V.V.V.V.V.V.V.V.V.V.V.V.V.V.V.V",
".V.V.V.V.V.V.V.V.V.V.V.V.V.V.V.V.V.V.V.VX& ) - =.H.a 4 = r #.V.V.V.V.V.V.V.V.V.V.V.V.V.V.V.V.V.V.V.V.V.V.V.V.V.V",
".V.V.V.V.V.V.V.V.V.V.V.V.V.V.V.V.V.V.V.V.VX@.*.G bX.Xo.*.Y.V.V.V.V.V.V.V.V.V.V.V.V.V.V.V.V.V.V.V.V.V.V.V.V.V.V.V"
};
