/* XPM */
static char *beer-r[] = {
/* width height ncolors chars_per_pixel */
"60 64 211 2",
/* colors */
"   c #000000",
" . c #B1B1B1",
" X c #AFAFAF",
" o c #ADADAD",
" O c #ABABAB",
" + c #A9A9A9",
" @ c #A7A7A7",
" # c #A5A5A5",
" $ c #A3A3A3",
" % c #A1A1A1",
" & c #9F9F9F",
" * c #9D9D9D",
" = c #9B9B9B",
" - c #999999",
" ; c #979797",
" : c #959595",
" > c #939393",
" , c #8F8F8F",
" < c #8D8D8D",
" 1 c #8B8B8B",
" 2 c #898989",
" 3 c #878787",
" 4 c #858585",
" 5 c #838383",
" 6 c #818181",
" 7 c #7F7F7F",
" 8 c #7B7B7B",
" 9 c #797979",
" 0 c #777777",
" q c #757575",
" w c #737373",
" e c #6F6F6F",
" r c #6D6D6D",
" t c #6B6B6B",
" y c #696969",
" u c #676767",
" i c #656565",
" p c #636363",
" a c #616161",
" s c #5F5F5F",
" d c #5D5D5D",
" f c #5B5B5B",
" g c #595959",
" h c #555555",
" j c #535353",
" k c #515151",
" l c #4D4D4D",
" z c #FEFEFE",
" x c #4B4B4B",
" c c #FCFCFC",
" v c #494949",
" b c #FAFAFA",
" n c #474747",
" m c #F8F8F8",
" M c #454545",
" N c #F6F6F6",
" B c #434343",
" V c #F4F4F4",
" C c #414141",
" Z c #F2F2F2",
" A c #3F3F3F",
" S c #3D3D3D",
" D c #EEEEEE",
" F c #3B3B3B",
" G c #ECECEC",
" H c #393939",
" J c #EAEAEA",
" K c #373737",
" L c #E8E8E8",
" P c #353535",
" I c #E6E6E6",
" U c #333333",
" Y c #E4E4E4",
" T c #313131",
" R c #E2E2E2",
" E c #E0E0E0",
" W c #2D2D2D",
" Q c #DEDEDE",
" ! c #2B2B2B",
" ~ c #DCDCDC",
" ^ c #292929",
" / c #DADADA",
" ( c #D8D8D8",
" ) c #252525",
" _ c #D6D6D6",
" ` c #232323",
" ' c #D4D4D4",
" ] c #212121",
" [ c #D2D2D2",
" { c #D0D0D0",
" } c #CECECE",
" | c #CCCCCC",
".  c #CACACA",
".. c #151515",
".X c #C6C6C6",
".o c #131313",
".O c #C4C4C4",
".+ c #C2C2C2",
".@ c #C0C0C0",
".# c #BEBEBE",
".$ c #BCBCBC",
".% c #BABABA",
".& c #B8B8B8",
".* c #050505",
".= c #B6B6B6",
".- c #B4B4B4",
".; c #B2B2B2",
".: c #B0B0B0",
".> c #AEAEAE",
"., c #ACACAC",
".< c #AAAAAA",
".1 c #A6A6A6",
".2 c #A2A2A2",
".3 c #A0A0A0",
".4 c #9E9E9E",
".5 c #9C9C9C",
".6 c #9A9A9A",
".7 c #989898",
".8 c #969696",
".9 c #949494",
".0 c #929292",
".q c #909090",
".w c #8E8E8E",
".e c #8C8C8C",
".r c #8A8A8A",
".t c #888888",
".y c #868686",
".u c #848484",
".i c #828282",
".p c #808080",
".a c #7E7E7E",
".s c #7C7C7C",
".d c #7A7A7A",
".f c #787878",
".g c #767676",
".h c #747474",
".j c #727272",
".k c #707070",
".l c #6C6C6C",
".z c #6A6A6A",
".x c #686868",
".c c #666666",
".v c #646464",
".b c #626262",
".n c #606060",
".m c #5E5E5E",
".M c #5C5C5C",
".N c #5A5A5A",
".B c #585858",
".V c #565656",
".C c #545454",
".Z c #505050",
".A c #4E4E4E",
".S c #FFFFFF",
".D c #4C4C4C",
".F c #FDFDFD",
".G c #4A4A4A",
".H c #FBFBFB",
".J c #484848",
".K c #F9F9F9",
".L c #464646",
".P c #F7F7F7",
".I c #444444",
".U c #F5F5F5",
".Y c #424242",
".T c #F3F3F3",
".R c #F1F1F1",
".E c #3E3E3E",
".W c #EFEFEF",
".Q c #3C3C3C",
".! c #EDEDED",
".~ c #3A3A3A",
".^ c #EBEBEB",
"./ c #383838",
".( c #E9E9E9",
".) c #363636",
"._ c #E7E7E7",
".` c #343434",
".' c #E5E5E5",
".] c #323232",
".[ c #E3E3E3",
".{ c #303030",
".} c #E1E1E1",
".| c #2E2E2E",
"X  c #DFDFDF",
"X. c #2C2C2C",
"XX c #DDDDDD",
"Xo c #DBDBDB",
"XO c #D9D9D9",
"X+ c #262626",
"X@ c #D7D7D7",
"X# c #222222",
"X$ c #D3D3D3",
"X% c #202020",
"X& c #D1D1D1",
"X* c #1E1E1E",
"X= c #CFCFCF",
"X- c #CBCBCB",
"X; c #C9C9C9",
"X: c #C7C7C7",
"X> c #C5C5C5",
"X, c #C3C3C3",
"X< c #C1C1C1",
"X1 c #BFBFBF",
"X2 c #BDBDBD",
"X3 c #BBBBBB",
"X4 c #080808",
"X5 c #B9B9B9",
"X6 c #B7B7B7",
"X7 c #B5B5B5",
"X8 c #B3B3B3",
/* pixels */
".S.S.S.S.S.S.S.S.S.S.S.S.S.S.S.S.S.S.S.S.S.S.S.S.SX2.>.>.>.(.S.S.S.S.S.S.S.S.S.S.S.S.S.S.+.>.>.>.> z.S.S.S.S.S.S.S.S.S.S",
".S.S.S.S.S.S.S.S.S.S.S.S.S.S.S.S.S.S.S.S.S.S.S R.M.8 $ $ $ e.7.S.S.S.S.S.S.S.S.S.S.S.S.& ` $ $ $ P fX,.S.S.S.S.S.S.S.S.S",
".S.S.S.S.S.S.S.S.S.S.S.S.S.S.S.S.S.S.S.S.S.S.s.v V.FX .W.S.P.&X#X=.S.S.S.S.S.S.S.S.S.%.7.U.S.S.S m V < S R.S.S.S.S.S.S.S",
".S.S.S.S.S.S.S.S.S.S.S.S.S.S.S.S.S.S.S.S.S Q.{Xo.S 5./.Z u _.S.&.tX;.S.S.S.S.S.S.S.S k.S.SX, u u u.8.S.h.8.S.S.S.S.S.S.S",
".S.S.S.S.S.S.S.S.S.S.S.S.S.S.S.S.S.S.S.S.SX:.a c 1.D J J J.K.S.SX1.G k k k k k k n...+.S Z v.& J J T +.K r J.S.S.S.S.S.S",
".S.S.S.S.S.S.S.S.S.S.S.S.S.S.S.S.S.S.S.S.SX: 2.S.p {.S.S.S.S.S.S.S.S.S.S.S.S.S.S.! < L.S.S.S.S.S.S.: %.S y L.S.S.S.S.S.S",
".S.S.S.S.S.S.S.S.S.S.S.S.S.S.S.S.S.S.S.S.SX: 2.S.p X.S.S.S.S.S.S.S.S.S.S.S.S.S.S.S.S.S.S.S.S.S.S Q d.T.S y L.S.S.S.S.S.S",
".S.S.S.S.S.S.S.S.S.S.S.S.S.S.S.S.S.S.S.S.SX: B GX< ^X6.S.S.S.S.S.S.S.S.S.S.S.S.S.S.S.S.S.S.S.S.S.,.<.S ~.p V.S.S.S.S.S.S",
".S.S.S.S.S.S.S.S.S.S.S.S.S.S.S.S.S.S.S.S.S N 0X1.^ ~ L.S.S.S.S.S.S.S.S.S.S.S.S.S.S.S.S.S.S.S.S.S.S ( t.j.!.S.S.S.S.S.S.S",
".S.S.S.S.S.S.S.S.S.S.S.S.S.S.S.S.S.S.S.S.S.S.S.g B.(.S.S.S.S.S.S.S.S.S.S.S.S.S.S.S.S.S.S.S.S.S.S.>X+.f m.S.S.S.S.S.S.S.S",
".S.S.S.S.S.S.S.S.S.S.S.S.S.S.S.S.S.S.S.S.S.S.S.UX;.l.S.S.S.S.S.S.S.S.S.S.S.S.S.S.S.S.S.S.S.S.S.SXo f.U.S.S.S.S.S.S.S.S.S",
".S.S.S.S.S.S.S.S.S.S.S.S.S.S.S.S.S.S.S.S.S.S.S.S.S k.S.S.S.S.S.S.S.S.S.S.S.S.S.S.S.S.S.S.S.S.S.S.S.:.M b.S.S.S.S.S.S.S.S",
".S.S.S.S.S.S.S.S.S.S.S.S.S.S.S.S.S.S.S.S.S.S.S.S.P.A.S.S.S.S.S.S.S.S.S.S.S.S.S.S.S.S.S.S.S.S.S.S.S.^ n Z.S.S.S.S.S.S.S.S",
".S.S.S.S.S.S.S.S.S.S.S.S.S.S.S.S.S.S.S.S.S.S.S.S.p.c.S.S _.5X<.S.S.S.S.S.S.S.S.S.S.S.T.5._.S.S.S.S.S.m X.S.S.S.S.S.S.S.S",
".S.S.S.S.S.S.S.S.S.S.S.S.S.S.S.S.S.S.S.S.S.S.S.S.p {.S DX.  .M.F.S.S.S.S.S.S.S.S.S.S.c  .L.S.S.S.S.S {.A.S.S.S.S.S.S.S.S",
".S.S.S.S.S.S.S.S.S.S.S.S.S.S.S.S.S.S.S.S.S.S.S.S.p {.S._      .:.S.S.S.S.S.S.S.S.S.S U  .o.S.S.S.S.S.S k.S.S.S.S.S.S.S.S",
".S.S.S.S.S.S.S.S.S.S.S.S.S.S.S.S.S.S.S.S.S.S.S.S.p {.S.P p   A Y.S.S.S.S.S.S.S.S.S.S U  .o.S.S.S.S.S.S k.S.S.S.S.S.S.S.S",
".S.S.S.S.S.S.S.S.S.S.S.S.S.S.S.S.S.S.S.S.S.S.S.S.p {.S.S.F.H c.S.S.S.S.S.S.S.S.S.S.S c.H.H.S.S.S.S.S a 9.S.S.S.S.S.S.S.S",
".S.S.S.S.S.S.S.S.S.S.S.S.S.S.S.S.S.S.S.S.S.S.S.S.p {.S.S.S.S.S.S.S.S i.n 3.S.S.S.S.S.S.S.S.S.S.S.S.S.m Z.S.S.S.S.S.S.S.S",
".S.S.S.S.S.S.S.S.S.S.S.S.S.S.S.S.S.S.S.S.S.S.S.S % X.S.S.S.S.S.S.S.SX4  .E.S.S.S.S.S.S.S.S.S.S.S.S J e N.S.S.S.S.S.S.S.S",
".S.S.S.S.S.S.S.S.S.S.S.S.S.S.S.S.S.S.S.S.S.S.S.S.S k.S.S.S.S.S.S.S.S r   $.S.S.S.S.S.S.S.S.S.S.S.S x %.S.S.S.S.S.S.S.S.S",
".S.S.S.S.S.S.S.S.S.S.S.S.S.S.S.S.S.S.S.S.S.S.S.S.S }.i.S.S.S.S.S.S.S L M G.S.S.S.S.S.S.S.S.S.S.^X: e.U.S.S.S.S.S.S.S.S.S",
".S.S.S.S.S.S.S.S.S.S.S.S.S.S.S.S.S.S.S.S.S.S.S.S.S.W.p E.S.S.S.S.S.S g j 0X,.S.S.S.S.S.S.S.S b.D.M z.S.S.S.S.S.S.S.S.S.S",
".S.S.S.S.S.S.S.S.S.S.S.S.S.S.S.S.S.S.S.S.S.S.S.S.S.S.W.m.'.S.S.S.S.S ~.RX8 $.S.S.S.S.S.S c [.V t.T.S.S.S.S.S.S.S.S.S.S.S",
".S.S.S.S.S.S.S.S.S.S.S.S.S.S.S.S.S.S.S.S.S.S.S.S.S.S.S.q PXX.S.S.S.S.S.S.S.S.S.S.S.S.SX:.p 7 W.S.S.S.S.S.S.S.S.S.S.S.S.S",
".S.S.S.S.S.S.S.S.S.S.S.S.S.S.S.S.S.S.S.S.S.S.S.S.S b * PX#.I.I @XXXX z.S.S.S.S.!XX.6 k 2 '.S ( r V.S.S.S.S.S.S.S.S.S.S.S",
".S.S.S.S.S.S.S.S.S.S.S.S.S.S.S.S.S.S.S.S.S.S.S.SX>.t.a K.S.S |.h.h.h.r 1 1 1 1 7.hX6.S.S.SX&.y  .m X.S.S.S.S.S.S.S.S.S.S",
".S.S.S.S.S.S.S.S.S.S.S.S.S.S.S.S.S.S.S.S.S.S Z.c 1.; 9. .S.S.S.S.S.SX:X>X>X>X>.[.S.S.S.S.F :.9X>X> !.: z.S.S.S.S.S.S.S.S",
".S.S.S.S.S.S.S.S.S.S.S.S.S.S.S.S.S.S.S.S.S L.a J.S $ o.S.S.S.S.S.S.S.S.S.S.S.S.S.S.S.S.S G i.S.S.S.S.3.:.S.S.S.S.S.S.S.S",
".S.S.S.S.S.S.S.S.S.S.S.S.S.S.S.S.S.S.S c :.x E.S.K.B.S.S.S.S.S.S.S.S.S.S.S.S.S.S.S.S.S.S G i.S.S.S.S.S.2 v.'.S.S.S.S.S.S",
".S.S.S.S.S.S.S.S.S.S.S.S.S.S.S.S.S.SX>.qX3.S.S D.p.}.S.S.S.S.S.S.S.S.S.S.S.S.S.S.S.S.S.S G i.S.S.S.S.S.S.3 B.S.S.S.S.S.S",
".S.S.S.S.S.S.S.S.S.S.S.S.S.S.S.S.S z a.%.S.S.SX&.p.S.S.S.S.S.S.S.S.S.S.S.S.S.S.S.S.S.S.S GX%X-.S.S.S.S.S.S % X.S.S.S.S.S",
".S.S.S.S.S.S.S.S.S.S.S.S.S.S.S.S.S.0.#.S.S.S.S k.S.S.S.S.S.S.S.S.S.S.S.S.S.S.S.S.S.S.S.S.SX3X*X;.S.S.S.S.S (.u V.S.S.S.S",
".S.S.S.S.S.S.S.S.S.S.S.S.S.S.S.X.NX1.S.S.S.S.1.<.S.S.S.S.S.S.S.S.S.S.S.S.S.S.S.S.S.S.S.S.S.SX1.r.N z.S.S.S.S.hXX.S.S.S.S",
".S.S.S.S.S.S.S.S.S.S.S.S.S.S.F.qX2.S.S.S.S.W 8.'.S.S.S.S.S.S.S.S.S.S.S.S.S.S.S.S.S.S.S.S.S.S.S c.i h.S.S.S.S = A.S.S.S.S",
".S.S.S.S.S.S.S.S.S.S.S.S.S.S.9X2.S.S.S.S.SX: 2.S.S.S.S.S.S.S.S.S.S.S.S.S.S.S.S.S.S.S.S.S.S.S.S.S.S.r.X.S.S.S.S k.S.S.S.S",
".S.S.S.S.S.S.S.S.S.S.S.S.H.a o.S.S.S.S.S.S O.1.S.S.S.S.S.S.S.S.S.S.S.S.S.S.S.S.S.S.S.S.S.S.S.S.S.S.K p.T.S.S.S.k E.S.S.S",
".S.S.S.S.S.S.S.S.S.S.S.S D./ Q.S.S.S.S.S.S k.S.S.S.S.S.S.S.S.S.S.S.S.S.S.S.S.S.S.S.S.S.S.S.S.S.S.S.SX5 ;.S.S.S { 6.S.S.S",
".S.S.S.S.S.S.S.S.S.S.S.S.v.!.S.S.S.S.S.R u F.S.S.S.S.S.S.S.S.S.S.S.S.S.S.S.S.S.S.S.S.S.S.S.S.S.S.S.S.S B J.S.S.K 7X@.S.S",
".S.S.S.S.S.S.S.S.S.S.S.X.r.S.S.S.S.S.S.b l M.S.S.S.S.S.S.S.S.S.S.S.S.S.S.S.S.S.S.S.S.S.S.S.S.S.S.S.S.S u.8.S.S.S.a [.S.S",
".S.S.S.S.S.S.S.S.S.S.H.dX1.S.S.S.S.S.'.n _ y.S.S.S.S.S.S.S.S.S.S.S.S.S.S.S.S.S.S.S.S.S.S.S.S.S.S.S.S.S.%.8.S.S.S.a.=.S.S",
".S.S.S.S.S.S.S.S.S.S.[.`XX.S.S.S.S /.a.P t.'.S.S.S.S.S.S.S.S.S.S.S.S.S.S.S.S.S.S.S.S.S.S.S.S.S.S.S.S.S.%.A V.S.S.$.~.S.S",
".S.S.S.S.S.S.S.S.S.S e R.S.S.S.S.^.{.<.S t.'.S.S.S.S.S.S.S.S.S.S.S.S.S.S.S.S.S.S.S.S.S.S.S.S.S.S.S.S.S.R.C L.S.S.S k.S.S",
".S.S.S.S.S.S.S.S.S. .d , , , Q.S.V -.S.S t.'.S.S.S.S.S.S.S.S.S.S.S.S.S.S.S.S.S.S.S.S.S.S.S.S.S.S.S.S.S.S y L.S.S.S k.S.S",
".S.S.S.S.S.S.S.S.S 3 H.mX<.a.).$ ].H.S.S t.'.S.S.S.S.S.S.S.S.S.S.S.S.S.S.S.S.S.S.S.S.S.S.S.S.S.S.S.S.S.S y L.S.S.U f.S.S",
".S.S.S.S.S.S.S.S.S 3 4.S.S.S.9.tX-.S.S.S t.'.S.S.S.S.S.S.S.S.S.S.S.S.S.S.S.S.S.S.S.S.S.S.S.S.S.S.S.S.S.S y L.S.S.a [.S.S",
".S.S.S.S.S.S.S.S.SXX P.A. X8 kX=.S.S.S.S t.'.S.S.S.S.S.S.S.S.S.S.S.S.S.S.S.S.S.S.S.S.S.S.S.S.S.S.S.S.S.F i.}.S.F.a '.S.S",
".S.S.S.S.S.S.S.S.S.S.S.&.N.N }.S.S.S.S.S t.9 # # [.S.S.S.S.S.S.S.S.S.S.S.S.S.S.S.R # # #.(.S.S.S.S.S.S :.N t #.y 6.S.S.S",
".S.S.S.S.S.S.S.S.S.S.S.S.S.S.S.S.S.S.S d 3 K.,.,.p.z.S.S.S.S.S.S.S.S.S.S.S.S.S # a.,.,., y j }.S.SX; j.#.S G.,., _.S.S.S",
".S.S.S.SX6.:.:.: Z.S.S.S.S.S.S.S.S . q.s z z.S.S z i q.S.S.S.S.S.S.S.S.S G.:.M O.F.S.S.S.F.&X* |.  3.F.S.S.S.S.S.S.S.S.S",
".S.S.S &.|.J <.A.A.<.S.S.S.S.SX:.m.]Xo.S.S.S.S.S.SXX !Xo.S.S.S.S.S.S.S.4 n f V.S.S.S.S.S.S.S.= ] 1 z.S.S.S.S.S.S.S.S.S.S",
".S.S.$.*.} m.dX@ Z.1.|.%.%.%.Y l.& N.S.S.S.S.S.S.S.F.uX>.S.S.S.S.S [.t.*.z.K.S.S.S.S.S.S.S Y.=.i.H.S.S.S.S.S.S.S.S.S.S.S",
".S.S R.Q J.S.^ 7 I.S.,.8.8.8 -.S.S.S.S.S.S.S.S.S.S.^ H k y y y y y ) !.8.P.S.S.S.S.S.S.S.S.6 e.S.S.S.S.S.S.S.S.S.S.S.S.S",
".S.S.S 2X:.S.S.T d.S.S.S.S.S.S.S.S.S.S.S.S.S.S.UX> 8 L L L L L._.> p.(.S.S.S.S.S.S.S.S.S.  < m.S.S.S.S.S.S.S.S.S.S.S.S.S",
".S.S.S.S ,X<.S.S =X7.S.S.S.S.S.S.S.S.S.S.S.S.- s M J.S.S.S.S.S.4.| _.S.S.S.S.S.S.S.S.S.+.w.S.S.S.S.S.S.S.S.S.S.S.S.S.S.S",
".S.S.S.S }.tXO.S E ^X&.S.S.S.S.S.S.S.S.T {.E A.O D.S.S.S G { %.; L.S.S.S.S.S.S.S.P { t.w.P.S.S.S.S.S.S.S.S.S.S.S.S.S.S.S",
".S.S.S.S.SX5 ^.@.S 3X;.S.S.S.S.S.S (.a 7 6 ^.a.a.a.a.a.a.G.m.:.S.S.S.S.S.S.S.S.S > 6 I.S.S.S.S.S.S.S.S.S.S.S.S.S.S.S.S.S",
".S.S.S.S.S.S.=.QX, wX;.S.S.R /.4 M.f [ Q J d [X8 ).6 [ [ [.T.S.S.S.S.S.S.S.S m >X>.S.S.S.S.S.S.S.S.S.S.S.S.S.S.S.S.S.S.S",
".S.S.S.S.S.S.S.S <.g 4 2 2.i.g.gX&.S.S.S.: %.S.S.S.0 2 Y.S.S.S.S.S.S.S.S.SX2 4X2.S.S.S.S.S.S.S.S.S.S.S.S.S.S.S.S.S.S.S.S",
".S.S.S.S.S.S.S.S.S.SX$X:X:XX.S.S.S.S.S.S.S.D.T.S.S.P.f.I.S.S.S.S.S.S m.'X< > [.S.S.S.S.S.S.S.S.S.S.S.S.S.S.S.S.S.S.S.S.S",
".S.S.S.S.S.S.S.S.S.S.S.S.S.S.S.S.S.S.S.S.S.b 2.S.S.S.S.J.@.S.S.S.S.S.e t ,.S.S.S.S.S.S.S.S.S.S.S.S.S.S.S.S.S.S.S.S.S.S.S",
".S.S.S.S.S.S.S.S.S.S.S.S.S.S.S.S.S.S.S.S.S.R 5XO.P.S.S.% y.S.K.W k k |.S.S.S.S.S.S.S.S.S.S.S.S.S.S.S.S.S.S.S.S.S.S.S.S.S",
".S.S.S.S.S.S.S.S.S.S.S.S.S.S.S.S.S.S.S.S.S.S.S.c.A.4. ._ C.4 3.b.S.S.S.S.S.S.S.S.S.S.S.S.S.S.S.S.S.S.S.S.S.S.S.S.S.S.S.S",
".S.S.S.S.S.S.S.S.S.S.S.S.S.S.S.S.S.S.S.S.S.S.S.R.;.6 `.L  .i }.S.S.S.S.S.S.S.S.S.S.S.S.S.S.S.S.S.S.S.S.S.S.S.S.S.S.S.S.S"
};
