/* XPM */
static char *beitel-r[] = {
/* width height ncolors chars_per_pixel */
"55 64 204 2",
/* colors */
"   c #000000",
" . c #B1B1B1",
" X c #AFAFAF",
" o c #ADADAD",
" O c #ABABAB",
" + c #A9A9A9",
" @ c #A7A7A7",
" # c #A5A5A5",
" $ c #A3A3A3",
" % c #A1A1A1",
" & c #9F9F9F",
" * c #9D9D9D",
" = c #9B9B9B",
" - c #999999",
" ; c #979797",
" : c #959595",
" > c #939393",
" , c #8F8F8F",
" < c #8D8D8D",
" 1 c #8B8B8B",
" 2 c #898989",
" 3 c #878787",
" 4 c #858585",
" 5 c #838383",
" 6 c #7F7F7F",
" 7 c #7D7D7D",
" 8 c #7B7B7B",
" 9 c #797979",
" 0 c #777777",
" q c #757575",
" w c #737373",
" e c #717171",
" r c #6F6F6F",
" t c #6B6B6B",
" y c #696969",
" u c #676767",
" i c #656565",
" p c #616161",
" a c #5D5D5D",
" s c #595959",
" d c #575757",
" f c #555555",
" g c #535353",
" h c #515151",
" j c #4F4F4F",
" k c #4D4D4D",
" l c #FEFEFE",
" z c #4B4B4B",
" x c #FCFCFC",
" c c #494949",
" v c #FAFAFA",
" b c #474747",
" n c #F8F8F8",
" m c #F6F6F6",
" M c #F4F4F4",
" N c #414141",
" B c #F2F2F2",
" V c #F0F0F0",
" C c #EEEEEE",
" Z c #3B3B3B",
" A c #ECECEC",
" S c #EAEAEA",
" D c #373737",
" F c #E8E8E8",
" G c #353535",
" H c #E6E6E6",
" J c #333333",
" K c #E4E4E4",
" L c #313131",
" P c #E2E2E2",
" I c #2F2F2F",
" U c #E0E0E0",
" Y c #DEDEDE",
" T c #2B2B2B",
" R c #DCDCDC",
" E c #292929",
" W c #DADADA",
" Q c #272727",
" ! c #D8D8D8",
" ~ c #D6D6D6",
" ^ c #232323",
" / c #D4D4D4",
" ( c #212121",
" ) c #D2D2D2",
" _ c #D0D0D0",
" ` c #CECECE",
" ' c #CCCCCC",
" ] c #CACACA",
" [ c #171717",
" { c #C8C8C8",
" } c #C6C6C6",
" | c #131313",
".  c #C4C4C4",
".. c #0F0F0F",
".X c #C0C0C0",
".o c #0D0D0D",
".O c #0B0B0B",
".+ c #BCBCBC",
".@ c #070707",
".# c #B8B8B8",
".$ c #B6B6B6",
".% c #B4B4B4",
".& c #B2B2B2",
".* c #B0B0B0",
".= c #AEAEAE",
".- c #ACACAC",
".; c #AAAAAA",
".: c #A8A8A8",
".> c #A6A6A6",
"., c #A4A4A4",
".< c #A2A2A2",
".1 c #A0A0A0",
".2 c #9E9E9E",
".3 c #9C9C9C",
".4 c #9A9A9A",
".5 c #989898",
".6 c #969696",
".7 c #949494",
".8 c #909090",
".9 c #8C8C8C",
".0 c #8A8A8A",
".q c #888888",
".w c #848484",
".e c #828282",
".r c #808080",
".t c #7E7E7E",
".y c #7C7C7C",
".u c #7A7A7A",
".i c #787878",
".p c #767676",
".a c #747474",
".s c #727272",
".d c #707070",
".f c #6E6E6E",
".g c #6C6C6C",
".h c #6A6A6A",
".j c #606060",
".k c #5E5E5E",
".l c #5C5C5C",
".z c #5A5A5A",
".x c #565656",
".c c #545454",
".v c #505050",
".b c #4E4E4E",
".n c #FFFFFF",
".m c #4C4C4C",
".M c #FDFDFD",
".N c #4A4A4A",
".B c #FBFBFB",
".V c #484848",
".C c #F9F9F9",
".Z c #464646",
".A c #F7F7F7",
".S c #F5F5F5",
".D c #424242",
".F c #F3F3F3",
".G c #404040",
".H c #F1F1F1",
".J c #3E3E3E",
".K c #EFEFEF",
".L c #3C3C3C",
".P c #EDEDED",
".I c #3A3A3A",
".U c #EBEBEB",
".Y c #383838",
".T c #363636",
".R c #E7E7E7",
".E c #E5E5E5",
".W c #303030",
".Q c #E1E1E1",
".! c #DFDFDF",
".~ c #2C2C2C",
".^ c #DDDDDD",
"./ c #2A2A2A",
".( c #DBDBDB",
".) c #282828",
"._ c #D9D9D9",
".` c #262626",
".' c #242424",
".] c #D5D5D5",
".[ c #222222",
".{ c #D3D3D3",
".} c #202020",
".| c #D1D1D1",
"X  c #1E1E1E",
"X. c #CFCFCF",
"XX c #1A1A1A",
"Xo c #CBCBCB",
"XO c #181818",
"X+ c #C9C9C9",
"X@ c #C7C7C7",
"X# c #C5C5C5",
"X$ c #121212",
"X% c #C3C3C3",
"X& c #101010",
"X* c #C1C1C1",
"X= c #0C0C0C",
"X- c #BDBDBD",
"X; c #BBBBBB",
"X: c #B9B9B9",
"X> c #060606",
"X, c #B7B7B7",
"X< c #040404",
"X1 c #020202",
/* pixels */
".n.n.n.n.n.n.n.n.n.n.n.n.n.n.n.n.n.n.n.n.n.n.n.n.n.n.n.n.n.n.n.n.n.n.n.n.n.n.n.n.n.n.n.n.n.n.n.n.n.n.n.n.n.n.n",
".n.n.n.n.n.n.n.n.n.n.n.n.n.n.n.n.n.n.n.n.n.n.n.n.n.n.n.n.n.n.n.n.n.n.n.n.n.n.n.n.n.n 7.l.l.l.l.l ].n.n.n.n.n.n",
".n.n.n.n.n.n.n.n.n.n.n.n.n.n.n.n.n.n.n.n.n.n.n.n.n.n.n.n.n.n.n.n.n.n.n.n.n.n.n.n M iX1.m.=.= UX,.b Z.i.B.n.n.n",
".n.n.n.n.n.n.n.n.n.n.n.n.n.n.n.n.n.n.n.n.n.n.n.n.n.n.n.n.n.n.n.n.n.n.n.n.n.n.n.n ~   9.5.5.5 q *.n.!.Y B.n.n.n",
".n.n.n.n.n.n.n.n.n.n.n.n.n.n.n.n.n.n.n.n.n.n.n.n.n.n.n.n.n.n.n.n.n.n.n.n.n.n.n.n.l S.B.n.n.n V.% h q R s.7.C.n",
".n.n.n.n.n.n.n.n.n.n.n.n.n.n.n.n.n.n.n.n.n.n.n.n.n.n.n.n.n.n.n.n.n.n.n.n.n.n P.s =.n.n.n.n.n.n.n.n.(.y n y F.n",
".n.n.n.n.n.n.n.n.n.n.n.n.n.n.n.n.n.n.n.n.n.n.n.n.n.n.n.n.n.n.n.n.n.n.n.n.n.n.;   ^ h h.q ).n.n.n.n.n.k.  f F.n",
".n.n.n.n.n.n.n.n.n.n.n.n.n.n.n.n.n.n.n.n.n.n.n.n.n.n.n.n.n.n.n.n.n.n.n.n.n.n.Y 5 ;.n.nX+.e.y.r.n.n.n ..@ k M.n",
".n.n.n.n.n.n.n.n.n.n.n.n.n.n.n.n.n.n.n.n.n.n.n.n.n.n.n.n.n.n.n.n.n.n.n.n.n.qX+.n.n.n.n.n x / `.p.n.n H.W.>.n.n",
".n.n.n.n.n.n.n.n.n.n.n.n.n.n.n.n.n.n.n.n.n.n.n.n.n.n.n.n.n.n.n.n.n.n.n.n.8 6.K.n.n.n.n.n.n.n v 7 !.n.k B.n.n.n",
".n.n.n.n.n.n.n.n.n.n.n.n.n.n.n.n.n.n.n.n.n.n.n.n.n.n.n.n.n.n.n.n.n.n.n C T.3.n.n.n.n.n.n.n.n.n X.< o > x.n.n.n",
".n.n.n.n.n.n.n.n.n.n.n.n.n.n.n.n.n.n.n.n.n.n.n.n.n.n.n.n.n.n.n.n.n.n.n i A.n.n.n.n.n.n.n.n.n.n.n g.[X+.n.n.n.n",
".n.n.n.n.n.n.n.n.n.n.n.n.n.n.n.n.n.n.n.n.n.n.n.n.n.n.n.n.n.n.n.n.n.n { < v.n.n.n.n.n.n.n.n.n l.$ =.{.n.n.n.n.n",
".n.n.n.n.n.n.n.n.n.n.n.n.n.n.n.n.n.n.n.n.n.n.n.n.n.n.n.n.n.n.n.n.n.n ,X*.n.n.n.n.n.n.n.n.n.n m.z.n.n.n.n.n.n.n",
".n.n.n.n.n.n.n.n.n.n.n.n.n.n.n.n.n.n.n.n.n.n.n.n.n.n.n.n.n.n.n.n.M.C f.n.n.n.n.n.n.n.n.n.n.n.eX..n.n.n.n.n.n.n",
".n.n.n.n.n.n.n.n.n.n.n.n.n.n.n.n.n.n.n.n.n.n.n.n.n.n.n.n.n.n.n.n O  .A.n.n.n.n.n.n.n.n.n n @.a.n.n.n.n.n.n.n.n",
".n.n.n.n.n.n.n.n.n.n.n.n.n.n.n.n.n.n.n.n.n.n.n.n.n.n.n.n.n.n.n l.I   g.x.x.x.U.n.n.n.n.n A  .$.n.n.n.n.n.n.n.n",
".n.n.n.n.n.n.n.n.n.n.n.n.n.n.n.n.n.n.n.n.n.n.n.n.n.n.n.n.n.n.nX+ k k k kX>  X<X< $.n.n.nX- k '.n.n.n.n.n.n.n.n",
".n.n.n.n.n.n.n.n.n.n.n.n.n.n.n.n.n.n.n.n.n.n.n.n.n.n.n.n.n.A.j.}.n.n.n.n.> & |  ...-.nX: ;.n.n.n.n.n.n.n.n.n.n",
".n.n.n.n.n.n.n.n.n.n.n.n.n.n.n.n.n.n.n.n.n.n.n.n.n.n.n.n.n B  .>.n.n.n.n.n.nX..D.O.@.4 3.|.n.n.n.n.n.n.n.n.n.n",
".n.n.n.n.n.n.n.n.n.n.n.n.n.n.n.n.n.n.n.n.n.n.n.n.n.n.n.n.n <  .N.3.n.n.n.n.n.n.n < bX .d.n.n.n.n.n.n.n.n.n.n.n",
".n.n.n.n.n.n.n.n.n.n.n.n.n.n.n.n.n.n.n.n.n.n.n.n.n.n.n.n %.W.Y.=.G h N 5.B.n.n.n ~X=.+ V.n.n.n.n.n.n.n.n.n.n.n",
".n.n.n.n.n.n.n.n.n.n.n.n.n.n.n.n.n.n.n.n.n.n.n.n.n.n.n :.t 8.p /.n.n.^ 2 0X%.n.n 9.D.R.n.n.n.n.n.n.n.n.n.n.n.n",
".n.n.n.n.n.n.n.n.n.n.n.n.n.n.n.n.n.n.n.n.n.n.n.n.n.n.3 T.L.$.(.y h h.(.n Y.a.4.' b A.n.n.n.n.n.n.n.n.n.n.n.n.n",
".n.n.n.n.n.n.n.n.n.n.n.n.n.n.n.n.n.n.n.n.n.n.n.n.n.n 1X#.n.n.n.n.n.n.w.r.SX,..   ~.n.n.n.n.n.n.n.n.n.n.n.n.n.n",
".n.n.n.n.n.n.n.n.n.n.n.n.n.n.n.n.n.n.n.n.n.n.n.n.n.n 1X#.n H.^.^.n.n B _ Z.,.V _ n.n.n.n.n.n.n.n.n.n.n.n.n.n.n",
".n.n.n.n.n.n.n.n.n.n.n.n.n.n.n.n.n.n.n.n.n.n.n.n.n.n 1X#X..u.a.a 1 1.B.n |.8 h.n.n.n.n.n.n.n.n.n.n.n.n.n.n.n.n",
".n.n.n.n.n.n.n.n.n.n.n.n.n.n.n.n.n.n.n.n.n.n.n.n.n.n.E s.~X*.n l.9XO.R.n | (.X.n.n.n.n.n.n.n.n.n.n.n.n.n.n.n.n",
".n.n.n.n.n.n.n.n.n.n.n.n.n.n.n.n.n.n.n.n.n.n.n.n.n.nX. w @.n.n.n.^.6 :.n | Z.P.n.n.n.n.n.n.n.n.n.n.n.n.n.n.n.n",
".n.n.n.n.n.n.n.n.n.n.n.n.n.n.n.n.n.n.n.n.n.n.n.n.n.M.0 {.n.n.n.n O  .b hX$ :.n.n.n.n.n.n.n.n.n.n.n.n.n.n.n.n.n",
".n.n.n.n.n.n.n.n.n.n.n.n.n.n.n.n.n.n.n.n.n.n.n.n.n *.a.n.n.n.n l 1.k v.n.n.n.n.n.n.n.n.n.n.n.n.n.n.n.n.n.n.n.n",
".n.n.n.n.n.n.n.n.n.n.n.n.n.n.n.n.n.n.n.n.n.n l Y j...a.n.n.n.n 4 f.n.n.n.n.n.n.n.n.n.n.n.n.n.n.n.n.n.n.n.n.n.n",
".n.n.n.n.n.n.n.n.n.n.n.n.n.n.n.n.n.n.n.n ` O.y.c.cX&.b O O O O D.n.n.n.n.n.n.n.n.n.n.n.n.n.n.n.n.n.n.n.n.n.n.n",
".n.n.n.n.n.n.n.n.n.n.n.n.n.n.n.n.n.n.n /.`.7.].n.n I  .r # # # G.n.n.n.n.n.n.n.n.n.n.n.n.n.n.n.n.n.n.n.n.n.n.n",
".n.n.n.n.n.n.n.n.n.n.n.n.n.n.n.n.n.n.n Q.= l.n.n.n n.: j h h h z s.n.n.n.n.n.n.n.n.n.n.n.n.n.n.n.n.n.n.n.n.n.n",
".n.n.n.n.n.n.n.n.n.n.n.n.n.n.n.n.n.n.n h.n.n.n.n.n.n.n.n.n.n.n.M.c.n.n.n.n.n.n.n.n.n.n.n.n.n.n.n.n.n.n.n.n.n.n",
".n.n.n.n.n.n.n.n.n.n.n.n.n.n.n.n.n.# | K.n.n.n.n.n.n.n.n.n.n.n.n # |.A.n.n.n.n.n.n.n.n.n.n.n.n.n.n.n.n.n.n.n.n",
".n.n.n.n.n.n.n.n.n.n.n.n.n.n.n.n.n 8.8 n.n.n.n.n.n.n.n.n.n.n.n l z  .A.n.n.n.n.n.n.n.n.n.n.n.n.n.n.n.n.n.n.n.n",
".n.n.n.n.n.n.n.n.n.n.n.n.n.n.n.n R.a.n.n.n.n.n.n.n.n.n.n.n.n.n W ^  .A.n.n.n.n.n.n.n.n.n.n.n.n.n.n.n.n.n.n.n.n",
".n.n.n.n.n.n.n.n.n.n.n.n.n.n.n.n.x.B.n.n.n.n.n.n.n.n.n.n.n.n.n.v.t 4.B.n.n.n.n.n.n.n.n.n.n.n.n.n.n.n.n.n.n.n.n",
".n.n.n.n.n.n.n.n.n.n.n.n.n.n v E.3 l.n.n.n.n.n.n.n.n.n.n.n M E.w r.n.n.n.n.n.n.n.n.n.n.n.n.n.n.n.n.n.n.n.n.n.n",
".n.n.n.n.n.n.n.n.n.n.n.n.n.n +.u ).n.n.n.n.n.n.n.n.n.n.n.n #.u.).n.n.n.n.n.n.n.n.n.n.n.n.n.n.n.n.n.n.n.n.n.n.n",
".n.n.n.n.n.n.n.n.n.n.n.n.n.F a.n.n.n.n.n.n.n.n.n.n.n.n.n.F g J *.n.n.n.n.n.n.n.n.n.n.n.n.n.n.n.n.n.n.n.n.n.n.n",
".n.n.n.n.n.n.n.n.n.n.n.n.n.3.%.n.n.n.n.n.n.n.n.n.n.n.n.n.6 u.d.{.n.n.n.n.n.n.n.n.n.n.n.n.n.n.n.n.n.n.n.n.n.n.n",
".n.n.n.n.n.n.n.n.n.n.n.n B e.P.n.n.n.n.n.n.n.n.n.n.n.n.h.g c.n.n.n.n.n.n.n.n.n.n.n.n.n.n.n.n.n.n.n.n.n.n.n.n.n",
".n.n.n.n.n.n.n.n.n.n.n /.6 %.n.n.n.n.n.n.n.n.n.n.n.n.| e ZX;.n.n.n.n.n.n.n.n.n.n.n.n.n.n.n.n.n.n.n.n.n.n.n.n.n",
".n.n.n.n.n.n.n.n.n.n l.8XX.n.n.n.n.n.n.n.n.n.n.n.n l.0 Z.p.U.n.n.n.n.n.n.n.n.n.n.n.n.n.n.n.n.n.n.n.n.n.n.n.n.n",
".n.n.n.n.n.n.n.n.n.n.* %.n.n.n.n.n.n.n.n.n.n.n.n.n.^ z t.2.n.n.n.n.n.n.n.n.n.n.n.n.n.n.n.n.n.n.n.n.n.n.n.n.n.n",
".n.n.n.n.n.n.n.n.n.n h.n.n.n.n.n.n.n.n.n.n.n.n.n.n 6.kX#.n.n.n.n.n.n.n.n.n.n.n.n.n.n.n.n.n.n.n.n.n.n.n.n.n.n.n",
".n.n.n.n.n.n.n.n._X1X+.n.n.n.n.n.n.n.n.n.n.n.n.H.* d.a.n.n.n.n.n.n.n.n.n.n.n.n.n.n.n.n.n.n.n.n.n.n.n.n.n.n.n.n",
".n.n.n.n.n.n.n.n 5 %.U.n.n.n.n.n.n.n.n.n.n.n.n )  .x '.n.n.n.n.n.n.n.n.n.n.n.n.n.n.n.n.n.n.n.n.n.n.n.n.n.n.n.n",
".n.n.n.n.n.n.n R q.n.n.n.n.n.n.n.n.n.n.n.n.n.n.m.= e.n.n.n.n.n.n.n.n.n.n.n.n.n.n.n.n.n.n.n.n.n.n.n.n.n.n.n.n.n",
".n.n.n.n.n.n.n.y /.n.n.n.n.n.n.n.n.n.n.n.n.n.= q   _.n.n.n.n.n.n.n.n.n.n.n.n.n.n.n.n.n.n.n.n.n.n.n.n.n.n.n.n.n",
".n.n.n.n.n.n ).e.B.n.n.n.n.n.n.n.n.n.n.n.nXo.u N F.B.n.n.n.n.n.n.n.n.n.n.n.n.n.n.n.n.n.n.n.n.n.n.n.n.n.n.n.n.n",
".n.n.n.n.n.&.i }.n.n.n.n.n.n.n.n.n.n.n.n.nXX.J.3.n.n.n.n.n.n.n.n.n.n.n.n.n.n.n.n.n.n.n.n.n.n.n.n.n.n.n.n.n.n.n",
".n.n.n.n.n.s L.n.n.n.n.n.n.n.n.n.n.n.n.n 6.1.h.Q.n.n.n.n.n.n.n.n.n.n.n.n.n.n.n.n.n.n.n.n.n.n.n.n.n.n.n.n.n.n.n",
".n.n.n.n.Q.r -.n.n.n.n.n.n.n.n.n.n.n.n.^.r.o 2.n.n.n.n.n.n.n.n.n.n.n.n.n.n.n.n.n.n.n.n.n.n.n.n.n.n.n.n.n.n.n.n",
".n.n.n.n i.U.n.n.n.n.n.n.n.n.n.n.n.n.n o./X* S.n.n.n.n.n.n.n.n.n.n.n.n.n.n.n.n.n.n.n.n.n.n.n.n.n.n.n.n.n.n.n.n",
".n.n.n.n.T 2.1.n.n.n.n.n.n.n.n.n.n.n.n J.t.H.n.n.n.n.n.n.n.n.n.n.n.n.n.n.n.n.n.n.n.n.n.n.n.n.n.n.n.n.n.n.n.n.n",
".n.n n.E.cX@.* h h h p.E.E.E H.n.nX%.Y.r &.n.n.n.n.n.n.n.n.n.n.n.n.n.n.n.n.n.n.n.n.n.n.n.n.n.n.n.n.n.n.n.n.n.n",
".n.n.#   S.n.n.n.n.n.K t t t.g.7.7.q t c.n.n.n.n.n.n.n.n.n.n.n.n.n.n.n.n.n.n.n.n.n.n.n.n.n.n.n.n.n.n.n.n.n.n.n",
".n.n.Z...^ V V V B.n.n.n.n.n.MX-X- [.DX@.n.n.n.n.n.n.n.n.n.n.n.n.n.n.n.n.n.n.n.n.n.n.n.n.n.n.n.n.n.n.n.n.n.n.n",
".n.n.n.n.f p p p.h.2.2.2.2.2 P.n.n.[ p m.n.n.n.n.n.n.n.n.n.n.n.n.n.n.n.n.n.n.n.n.n.n.n.n.n.n.n.n.n.n.n.n.n.n.n",
".n.n.n.n.n.n.n.n.F.&.&.&.&.& t k k.b.n.n.n.n.n.n.n.n.n.n.n.n.n.n.n.n.n.n.n.n.n.n.n.n.n.n.n.n.n.n.n.n.n.n.n.n.n"
};
