/* XPM */
static char *beitel-r[] = {
/* width height ncolors chars_per_pixel */
"53 64 199 2",
/* colors */
"   c #000000",
" . c #B1B1B1",
" X c #ABABAB",
" o c #A9A9A9",
" O c #A7A7A7",
" + c #A5A5A5",
" @ c #A3A3A3",
" # c #A1A1A1",
" $ c #9B9B9B",
" % c #999999",
" & c #959595",
" * c #8F8F8F",
" = c #8D8D8D",
" - c #8B8B8B",
" ; c #898989",
" : c #878787",
" > c #858585",
" , c #838383",
" < c #818181",
" 1 c #7F7F7F",
" 2 c #7D7D7D",
" 3 c #797979",
" 4 c #777777",
" 5 c #757575",
" 6 c #737373",
" 7 c #717171",
" 8 c #6F6F6F",
" 9 c #6D6D6D",
" 0 c #6B6B6B",
" q c #676767",
" w c #656565",
" e c #636363",
" r c #5F5F5F",
" t c #5D5D5D",
" y c #5B5B5B",
" u c #595959",
" i c #575757",
" p c #515151",
" a c #4F4F4F",
" s c #4D4D4D",
" d c #FEFEFE",
" f c #4B4B4B",
" g c #FCFCFC",
" h c #494949",
" j c #FAFAFA",
" k c #F8F8F8",
" l c #454545",
" z c #F6F6F6",
" x c #434343",
" c c #F4F4F4",
" v c #414141",
" b c #F2F2F2",
" n c #3F3F3F",
" m c #F0F0F0",
" M c #3D3D3D",
" N c #EEEEEE",
" B c #3B3B3B",
" V c #ECECEC",
" C c #393939",
" Z c #EAEAEA",
" A c #373737",
" S c #E8E8E8",
" D c #353535",
" F c #E6E6E6",
" G c #E2E2E2",
" H c #2F2F2F",
" J c #E0E0E0",
" K c #2D2D2D",
" L c #DEDEDE",
" P c #2B2B2B",
" I c #DCDCDC",
" U c #292929",
" Y c #DADADA",
" T c #272727",
" R c #D6D6D6",
" E c #232323",
" W c #D4D4D4",
" Q c #212121",
" ! c #D2D2D2",
" ~ c #1F1F1F",
" ^ c #D0D0D0",
" / c #1D1D1D",
" ( c #CECECE",
" ) c #CCCCCC",
" _ c #CACACA",
" ` c #171717",
" ' c #C8C8C8",
" ] c #151515",
" [ c #C6C6C6",
" { c #C4C4C4",
" } c #C2C2C2",
" | c #0F0F0F",
".  c #C0C0C0",
".. c #0B0B0B",
".X c #BCBCBC",
".o c #090909",
".O c #BABABA",
".+ c #070707",
".@ c #B8B8B8",
".# c #050505",
".$ c #B4B4B4",
".% c #010101",
".& c #B2B2B2",
".* c #B0B0B0",
".= c #A8A8A8",
".- c #A6A6A6",
".; c #A4A4A4",
".: c #A2A2A2",
".> c #A0A0A0",
"., c #9E9E9E",
".< c #9C9C9C",
".1 c #9A9A9A",
".2 c #989898",
".3 c #949494",
".4 c #929292",
".5 c #909090",
".6 c #8E8E8E",
".7 c #8C8C8C",
".8 c #8A8A8A",
".9 c #888888",
".0 c #868686",
".q c #848484",
".w c #828282",
".e c #808080",
".r c #7E7E7E",
".t c #7C7C7C",
".y c #7A7A7A",
".u c #787878",
".i c #707070",
".p c #6E6E6E",
".a c #6C6C6C",
".s c #6A6A6A",
".d c #686868",
".f c #666666",
".g c #646464",
".h c #626262",
".j c #606060",
".k c #5C5C5C",
".l c #5A5A5A",
".z c #585858",
".x c #565656",
".c c #545454",
".v c #525252",
".b c #505050",
".n c #4E4E4E",
".m c #FFFFFF",
".M c #4C4C4C",
".N c #4A4A4A",
".B c #FBFBFB",
".V c #484848",
".C c #F9F9F9",
".Z c #464646",
".A c #F7F7F7",
".S c #444444",
".D c #F5F5F5",
".F c #424242",
".G c #F3F3F3",
".H c #404040",
".J c #F1F1F1",
".K c #3E3E3E",
".L c #EFEFEF",
".P c #EDEDED",
".I c #EBEBEB",
".U c #383838",
".Y c #E9E9E9",
".T c #363636",
".R c #E7E7E7",
".E c #E5E5E5",
".W c #323232",
".Q c #E3E3E3",
".! c #303030",
".~ c #E1E1E1",
".^ c #2E2E2E",
"./ c #DFDFDF",
".( c #2C2C2C",
".) c #DBDBDB",
"._ c #D9D9D9",
".` c #D7D7D7",
".' c #D5D5D5",
".] c #222222",
".[ c #D3D3D3",
".{ c #202020",
".} c #D1D1D1",
".| c #CFCFCF",
"X  c #CDCDCD",
"X. c #CBCBCB",
"XX c #181818",
"Xo c #C9C9C9",
"XO c #C7C7C7",
"X+ c #141414",
"X@ c #C3C3C3",
"X# c #C1C1C1",
"X$ c #0E0E0E",
"X% c #0C0C0C",
"X& c #BDBDBD",
"X* c #BBBBBB",
"X= c #080808",
"X- c #B9B9B9",
"X; c #B3B3B3",
/* pixels */
".m.m.m.m.m.m.m.m.m.m.m.m.m.m.m.m.m.m.m.m.m.m.m.m.m.m.m.m.m.m.m.m.m.m.m.m.m.m.m.m ).+ K.n.n.n H.t ..~.m.m.m",
".m.m.m.m.m.m.m.m.m.m.m.m.m.m.m.m.m.m.m.m.m.m.m.m.m.m.m.m.m.m.m.m.m.m.m.m.m.m.m '.]   C.g.g L.` $ 0.K.G.m.m",
".m.m.m.m.m.m.m.m.m.m.m.m.m.m.m.m.m.m.m.m.m.m.m.m.m.m.m.m.m.m.m.m.m.m.m.m.m.m g.3.U G.Y.Y.Y 8.rXO !.t.X.E.m",
".m.m.m.m.m.m.m.m.m.m.m.m.m.m.m.m.m.m.m.m.m.m.m.m.m.m.m.m.m.m.m.m.m.m.m.m.m.m.G.l.m.m.m.m.m.m ( >.w ) * 1.y",
".m.m.m.m.m.m.m.m.m.m.m.m.m.m.m.m.m.m.m.m.m.m.m.m.m.m.m.m.m.m.m.m.m.m.m.m.m.:.WX# L L.J.m.m.m.m.m.J.a N.u  ",
".m.m.m.m.m.m.m.m.m.m.m.m.m.m.m.m.m.m.m.m.m.m.m.m.m.m.m.m.m.m.m.m.m.m.m.m m p   T 8 8.w.;.m.m.m.m.m.h.q.S  ",
".m.m.m.m.m.m.m.m.m.m.m.m.m.m.m.m.m.m.m.m.m.m.m.m.m.m.m.m.m.m.m.m.m.m.m.m R uX& W.m.m._ o.n t k.m.m R |.gX&",
".m.m.m.m.m.m.m.m.m.m.m.m.m.m.m.m.m.m.m.m.m.m.m.m.m.m.m.m.m.m.m.m.m.m.m.m.n.m.m.m.m.m.m.m.m.R w.m.m ' r ..m",
".m.m.m.m.m.m.m.m.m.m.m.m.m.m.m.m.m.m.m.m.m.m.m.m.m.m.m.m.m.m.m.m.m.m Y.z.-.m.m.m.m.m.m.m.m.A.9X .m.h.I.m.m",
".m.m.m.m.m.m.m.m.m.m.m.m.m.m.m.m.m.m.m.m.m.m.m.m.m.m.m.m.m.m.m.m.m.m O x./.m.m.m.m.m.m.m.m.m.$.2 >.1 d.m.m",
".m.m.m.m.m.m.m.m.m.m.m.m.m.m.m.m.m.m.m.m.m.m.m.m.m.m.m.m.m.m.m.m.m.m.n.m.m.m.m.m.m.m.m.m.m.m.m.M K W.m.m.m",
".m.m.m.m.m.m.m.m.m.m.m.m.m.m.m.m.m.m.m.m.m.m.m.m.m.m.m.m.m.m.m.m.m 4 R.m.m.m.m.m.m.m.m.m.m.B.,X; S.m.m.m.m",
".m.m.m.m.m.m.m.m.m.m.m.m.m.m.m.m.m.m.m.m.m.m.m.m.m.m.m.m.m.m.m.m._.r c.m.m.m.m.m.m.m.m.m.m.R w.m.m.m.m.m.m",
".m.m.m.m.m.m.m.m.m.m.m.m.m.m.m.m.m.m.m.m.m.m.m.m.m.m.m.m.m.m.m.L O +.m.m.m.m.m.m.m.m.m.m.m 8 L.m.m.m.m.m.m",
".m.m.m.m.m.m.m.m.m.m.m.m.m.m.m.m.m.m.m.m.m.m.m.m.m.m.m.m.m.m.m s a.m.m.m.m.m.m.m.m.m.m.P $.r.m.m.m.m.m.m.m",
".m.m.m.m.m.m.m.m.m.m.m.m.m.m.m.m.m.m.m.m.m.m.m.m.m.m.m.m.m.mX- `XX s s s w d d.m.m.m.m.}  Xo.m.m.m.m.m.m.m",
".m.m.m.m.m.m.m.m.m.m.m.m.m.m.m.m.m.m.m.m.m.m.m.m.m.m.m.m.m k.8.n.n.n M      .oX .m.m.m o.n Y.m.m.m.m.m.m.m",
".m.m.m.m.m.m.m.m.m.m.m.m.m.m.m.m.m.m.m.m.m.m.m.m.m.m.m.m.$.l w.m.m.m.Y.< :     E _.m.- O.m.m.m.m.m.m.m.m.m",
".m.m.m.m.m.m.m.m.m.m.m.m.m.m.m.m.m.m.m.m.m.m.m.m.m.m.m.m.q ] b.m.m.m.m.m g $ D  X$.  5 F.m.m.m.m.m.m.m.m.m",
".m.m.m.m.m.m.m.m.m.m.m.m.m.m.m.m.m.m.m.m.m.m.m.m.m.m.m.R n.. 3.`.m.m.m.m.m.m.C i.z.#.4.m.m.m.m.m.m.m.m.m.m",
".m.m.m.m.m.m.m.m.m.m.m.m.m.m.m.m.m.m.m.m.m.m.m.m.m.m.m l.].W = v.n C R.m.m.m.m + /X  V.m.m.m.m.m.m.m.m.m.m",
".m.m.m.m.m.m.m.m.m.m.m.m.m.m.m.m.m.m.m.m.m.m.m.m.m.~ * 3 * %.m.m.m O 4 * V.m j.k.N j.m.m.m.m.m.m.m.m.m.m.m",
".m.m.m.m.m.m.m.m.m.m.m.m.m.m.m.m.m.m.m.m.m.m.m.m.m BX% uX&X;.n.n < j mX& 8 + n f S.m.m.m.m.m.m.m.m.m.m.m.m",
".m.m.m.m.m.m.m.m.m.m.m.m.m.m.m.m.m.m.m.m.m.m.m.m.m.n.m.m.m.m.m.m ).9X-.m.s  X%.m.m.m.m.m.m.m.m.m.m.m.m.m.m",
".m.m.m.m.m.m.m.m.m.m.m.m.m.m.m.m.m.m.m.m.m.m.m.m.m.n.m.m.m.m.m.m.mXo &.z.  h X.m.m.m.m.m.m.m.m.m.m.m.m.m.m",
".m.m.m.m.m.m.m.m.m.m.m.m.m.m.m.m.m.m.m.m.m.m.m.m.m.n.m ..n.n.y.X.}.m [   ..i.m.m.m.m.m.m.m.m.m.m.m.m.m.m.m",
".m.m.m.m.m.m.m.m.m.m.m.m.m.m.m.m.m.m.m.m.m.m.m.m.m.7.p B.m.m.[.( a.m [  .jX#.m.m.m.m.m.m.m.m.m.m.m.m.m.m.m",
".m.m.m.m.m.m.m.m.m.m.m.m.m.m.m.m.m.m.m.m.m.m.m.m.m.= K (.m.m.m '.4X* [  .F.m.m.m.m.m.m.m.m.m.m.m.m.m.m.m.m",
".m.m.m.m.m.m.m.m.m.m.m.m.m.m.m.m.m.m.m.m.m.m.m.m.m.n.m.m.m.m.m s U.q q   W.m.m.m.m.m.m.m.m.m.m.m.m.m.m.m.m",
".m.m.m.m.m.m.m.m.m.m.m.m.m.m.m.m.m.m.m.m.m.m.m.A 6.}.m.m.m.m z.x.nXoXoXo z.m.m.m.m.m.m.m.m.m.m.m.m.m.m.m.m",
".m.m.m.m.m.m.m.m.m.m.m.m.m.m.m.m.m.m.m.m.m.m.$.g  .D.m.m.m z t.&.m.m.m.m.m.m.m.m.m.m.m.m.m.m.m.m.m.m.m.m.m",
".m.m.m.m.m.m.m.m.m.m.m.m.m.m.m.m.m.m.m d.R.n ].%   c d d d.R.Z S.m.m.m.m.m.m.m.m.m.m.m.m.m.m.m.m.m.m.m.m.m",
".m.m.m.m.m.m.m.m.m.m.m.m.m.m.m.m.m.m.5 U.f.m.m +   ] a a a.V w.m.m.m.m.m.m.m.m.m.m.m.m.m.m.m.m.m.m.m.m.m.m",
".m.m.m.m.m.m.m.m.m.m.m.m.m.m.m.m.m.> P ^.m.m.m I.<.{ e e e.l T ^.m.m.m.m.m.m.m.m.m.m.m.m.m.m.m.m.m.m.m.m.m",
".m.m.m.m.m.m.m.m.m.m.m.m.m.m.m.m.m e.).m.m.m.m.m.m.I Z Z Z Z =.&.m.m.m.m.m.m.m.m.m.m.m.m.m.m.m.m.m.m.m.m.m",
".m.m.m.m.m.m.m.m.m.m.m.m.m.m.m.m 3 <.D.m.m.m.m.m.m.m.m.m.m.m.| 2.:.m.m.m.m.m.m.m.m.m.m.m.m.m.m.m.m.m.m.m.m",
".m.m.m.m.m.m.m.m.m.m.m.m.m.m.m F E o.m.m.m.m.m.m.m.m.m.m.m.m.J.F a.m.m.m.m.m.m.m.m.m.m.m.m.m.m.m.m.m.m.m.m",
".m.m.m.m.m.m.m.m.m.m.m.m.m.m.m.n.m.m.m.m.m.m.m.m.m.m.m.m.m.m.1   a.m.m.m.m.m.m.m.m.m.m.m.m.m.m.m.m.m.m.m.m",
".m.m.m.m.m.m.m.m.m.m.m.m.m.m.$.2.m.m.m.m.m.m.m.m.m.m.m.m.m N 9.K i.m.m.m.m.m.m.m.m.m.m.m.m.m.m.m.m.m.m.m.m",
".m.m.m.m.m.m.m.m.m.m.m.m.m.@.9X .m.m.m.m.m.m.m.m.m.m.m.m W.,.T.&.m.m.m.m.m.m.m.m.m.m.m.m.m.m.m.m.m.m.m.m.m",
".m.m.m.m.m.m.m.m.m.m.m.m.m A.g.m.m.m.m.m.m.m.m.m.m.m.m.m.qX= 4.E.m.m.m.m.m.m.m.m.m.m.m.m.m.m.m.m.m.m.m.m.m",
".m.m.m.m.m.m.m.m.m.m.m.m ; }.C.m.m.m.m.m.m.m.m.m.m.m.m.[ y O.6.m.m.m.m.m.m.m.m.m.m.m.m.m.m.m.m.m.m.m.m.m.m",
".m.m.m.m.m.m.m.m.m.m.m.E 1 S.m.m.m.m.m.m.m.m.m.m.m.m.m.0.M `.m.m.m.m.m.m.m.m.m.m.m.m.m.m.m.m.m.m.m.m.m.m.m",
".m.m.m.m.m.m.m.m.m.m.m.O.4.m.m.m.m.m.m.m.m.m.m.m.m.G.}.H.t G.m.m.m.m.m.m.m.m.m.m.m.m.m.m.m.m.m.m.m.m.m.m.m",
".m.m.m.m.m.m.m.m.m.m.m.n.m.m.m.m.m.m.m.m.m.m.m.m.m.X   7X*.m.m.m.m.m.m.m.m.m.m.m.m.m.m.m.m.m.m.m.m.m.m.m.m",
".m.m.m.m.m.m.m.m.m _.T. .m.m.m.m.m.m.m.m.m.m.m.m.m r ..c.m.m.m.m.m.m.m.m.m.m.m.m.m.m.m.m.m.m.m.m.m.m.m.m.m",
".m.m.m.m.m.m.m.m.m.5 w.I.m.m.m.m.m.m.m.m.m.m.m.mX&.M  ./.m.m.m.m.m.m.m.m.m.m.m.m.m.m.m.m.m.m.m.m.m.m.m.m.m",
".m.m.m.m.m.m.m.m.8X@.m.m.m.m.m.m.m.m.m.m.m.m.m d.z.gX;.D.m.m.m.m.m.m.m.m.m.m.m.m.m.m.m.m.m.m.m.m.m.m.m.m.m",
".m.m.m.m.m.m.B.* 7 k.m.m.m.m.m.m.m.m.m.m.m.m.m + 6 <.m.m.m.m.m.m.m.m.m.m.m.m.m.m.m.m.m.m.m.m.m.m.m.m.m.m.m",
".m.m.m.m.m.m c   O.m.m.m.m.m.m.m.m.m.m.m.m.m.8 4.T.D.m.m.m.m.m.m.m.m.m.m.m.m.m.m.m.m.m.m.m.m.m.m.m.m.m.m.m",
".m.m.m.m.m.m y.I k.m.m.m.m.m.m.m.m.m.m.m.m F t.( # d.m.m.m.m.m.m.m.m.m.m.m.m.m.m.m.m.m.m.m.m.m.m.m.m.m.m.m",
".m.m.m.m.m {.9.m.m.m.m.m.m.m.m.m.m.m.m.m.m * u 2 R.m.m.m.m.m.m.m.m.m.m.m.m.m.m.m.m.m.m.m.m.m.m.m.m.m.m.m.m",
".m.m.m.m j - [.m.m.m.m.m.m.m.m.m.m.m.m.m.Q.f.V.i.m.m.m.m.m.m.m.m.m.m.m.m.m.m.m.m.m.m.m.m.m.m.m.m.m.m.m.m.m",
".m.m.m.m L 8.m.m.m.m.m.m.m.m.m.m.m.m.m {.8.HX&.m.m.m.m.m.m.m.m.m.m.m.m.m.m.m.m.m.m.m.m.m.m.m.m.m.m.m.m.m.m",
".m.m.m.< p Y.m.m.m.m.m.m.m.m.m.m.m.m g.yX+.u N.m.m.m.m.m.m.m.m.m.m.m.m.m.m.m.m.m.m.m.m.m.m.m.m.m.m.m.m.m.m",
".m.m.m.y Q.m.m.m.m.m.m.m.m.m.m.m.m.mXO.x.1 @.m.m.m.m.m.m.m.m.m.m.m.m.m.m.m.m.m.m.m.m.m.m.m.m.m.m.m.m.m.m.m",
".m.m Y <X;.m.m.m.m.m.m.m.m.m.m.m.m.m 4.b.].m.m.m.m.m.m.m.m.m.m.m.m.m.m.m.m.m.m.m.m.m.m.m.m.m.m.m.m.m.m.m.m",
".m.m.v.B.m.m.m.m.m.m.m.m.m.m.m.m.m.'.F >.A.m.m.m.m.m.m.m.m.m.m.m.m.m.m.m.m.m.m.m.m.m.m.m.m.m.m.m.m.m.m.m.m",
".m.m.^ 9.e.m.m.m.m.m.m.m.m.m.m.m.m e.aX..m.m.m.m.m.m.m.m.m.m.m.m.m.m.m.m.m.m.m.m.m.m.m.m.m.m.m.m.m.m.m.m.m",
".J.} e JX .n.n.n.nX..}.}.}.D.m.m ~.u q.m.m.m.m.m.m.m.m.m.m.m.m.m.m.m.m.m.m.m.m.m.m.m.m.m.m.m.m.m.m.m.m.m.m",
" .  .Y.m.m.m.m.m.m.w.t.t.t < , ,.t.!.Y.m.m.m.m.m.m.m.m.m.m.m.m.m.m.m.m.m.m.m.m.m.m.m.m.m.m.m.m.m.m.m.m.m.m",
".KXX.'.R.R.R S.m.m.m.m.m.m.' _ M D.5.B.m.m.m.m.m.m.m.m.m.m.m.m.m.m.m.m.m.m.m.m.m.m.m.m.m.m.m.m.m.m.m.m.m.m",
".m.m 6.f.f.f.d % % % % % _.m.m s.fX@.m.m.m.m.m.m.m.m.m.m.m.m.m.m.m.m.m.m.m.m.m.m.m.m.m.m.m.m.m.m.m.m.m.m.m",
".m.m.m.m.m.m g.$.$.$.$.$.w f f `.m.m.m.m.m.m.m.m.m.m.m.m.m.m.m.m.m.m.m.m.m.m.m.m.m.m.m.m.m.m.m.m.m.m.m.m.m"
};
