/* XPM */
static char *bezem-r[] = {
/* width height ncolors chars_per_pixel */
"26 64 113 2",
/* colors */
"   c #000000",
" . c #B1B1B1",
" X c #AFAFAF",
" o c #ADADAD",
" O c #A9A9A9",
" + c #A7A7A7",
" @ c #A5A5A5",
" # c #A1A1A1",
" $ c #9F9F9F",
" % c #9D9D9D",
" & c #9B9B9B",
" * c #979797",
" = c #959595",
" - c #939393",
" ; c #8B8B8B",
" : c #898989",
" > c #878787",
" , c #858585",
" < c #7D7D7D",
" 1 c #797979",
" 2 c #777777",
" 3 c #757575",
" 4 c #6D6D6D",
" 5 c #656565",
" 6 c #616161",
" 7 c #5B5B5B",
" 8 c #555555",
" 9 c #535353",
" 0 c #4F4F4F",
" q c #FEFEFE",
" w c #FCFCFC",
" e c #FAFAFA",
" r c #F8F8F8",
" t c #434343",
" y c #F4F4F4",
" u c #F2F2F2",
" i c #ECECEC",
" p c #393939",
" a c #EAEAEA",
" s c #E8E8E8",
" d c #E4E4E4",
" f c #E2E2E2",
" g c #E0E0E0",
" h c #DEDEDE",
" j c #DCDCDC",
" k c #DADADA",
" l c #D8D8D8",
" z c #D6D6D6",
" x c #D2D2D2",
" c c #CECECE",
" v c #CCCCCC",
" b c #CACACA",
" n c #C8C8C8",
" m c #C6C6C6",
" M c #C4C4C4",
" N c #C0C0C0",
" B c #BCBCBC",
" V c #B8B8B8",
" C c #B6B6B6",
" Z c #B4B4B4",
" A c #B2B2B2",
" S c #B0B0B0",
" D c #AEAEAE",
" F c #AAAAAA",
" G c #A8A8A8",
" H c #9E9E9E",
" J c #9A9A9A",
" K c #989898",
" L c #969696",
" P c #949494",
" I c #929292",
" U c #8C8C8C",
" Y c #808080",
" T c #7A7A7A",
" R c #747474",
" E c #707070",
" W c #6E6E6E",
" Q c #6C6C6C",
" ! c #6A6A6A",
" ~ c #686868",
" ^ c #5E5E5E",
" / c #5A5A5A",
" ( c #565656",
" ) c #4E4E4E",
" _ c #FFFFFF",
" ` c #4C4C4C",
" ' c #FDFDFD",
" ] c #FBFBFB",
" [ c #F7F7F7",
" { c #F5F5F5",
" } c #F3F3F3",
" | c #EDEDED",
".  c #EBEBEB",
".. c #E9E9E9",
".X c #E3E3E3",
".o c #DDDDDD",
".O c #DBDBDB",
".+ c #D9D9D9",
".@ c #D7D7D7",
".# c #D5D5D5",
".$ c #D3D3D3",
".% c #D1D1D1",
".& c #CDCDCD",
".* c #CBCBCB",
".= c #C9C9C9",
".- c #C7C7C7",
".; c #C1C1C1",
".: c #BFBFBF",
".> c #BDBDBD",
"., c #BBBBBB",
".< c #B9B9B9",
".1 c #B7B7B7",
".2 c #B5B5B5",
/* pixels */
" _ _ _ _ _ _ _ _ _ _ _ _ _ _ _ _ _ _ _ _ _ _ f 5 (  ",
" _ _ _ _ _ _ _ _ _ _ _ _ _ _ _ _ _ _ _ _ _ _ G a P )",
" _ _ _ _ _ _ _ _ _ _ _ _ _ _ _ _ _ _ _ _ _ _ - _ - _",
" _ _ _ _ _ _ _ _ _ _ _ _ _ _ _ _ _ _ _ _ _ _ - z B _",
" _ _ _ _ _ _ _ _ _ _ _ _ _ _ _ _ _ _ _ _ _ h Z.,.@ _",
" _ _ _ _ _ _ _ _ _ _ _ _ _ _ _ _ _ _ _ _ _ % { L w _",
" _ _ _ _ _ _ _ _ _ _ _ _ _ _ _ _ _ _ _ _ _ L ] - _ _",
" _ _ _ _ _ _ _ _ _ _ _ _ _ _ _ _ _ _ _ _ _ - s F _ _",
" _ _ _ _ _ _ _ _ _ _ _ _ _ _ _ _ _ _ _ _ g A k V _ _",
" _ _ _ _ _ _ _ _ _ _ _ _ _ _ _ _ _ _ _ _ M c - _ _ _",
" _ _ _ _ _ _ _ _ _ _ _ _ _ _ _ _ _ _ _ _ & [ - _ _ _",
" _ _ _ _ _ _ _ _ _ _ _ _ _ _ _ _ _ _ _ w L _ - _ _ _",
" _ _ _ _ _ _ _ _ _ _ _ _ _ _ _ _ _ _ _.  +.X X _ _ _",
" _ _ _ _ _ _ _ _ _ _ _ _ _ _ _ _ _ _ _ M c % { _ _ _",
" _ _ _ _ _ _ _ _ _ _ _ _ _ _ _ _ _ _ _ - _ * ] _ _ _",
" _ _ _ _ _ _ _ _ _ _ _ _ _ _ _ _ _ _ _ - _ - _ _ _ _",
" _ _ _ _ _ _ _ _ _ _ _ _ _ _ _ _ _ _ _ - b n _ _ _ _",
" _ _ _ _ _ _ _ _ _ _ _ _ _ _ _ _ _ _.-.* M c _ _ _ _",
" _ _ _ _ _ _ _ _ _ _ _ _ _ _ _ _ _ _ @ | H y _ _ _ _",
" _ _ _ _ _ _ _ _ _ _ _ _ _ _ _ _ _ _ P w = _ _ _ _ _",
" _ _ _ _ _ _ _ _ _ _ _ _ _ _ _ _ _ } $.  + _ _ _ _ _",
" _ _ _ _ _ _ _ _ _ _ _ _ _ _ _ _ _ v m.=.= _ _ _ _ _",
" _ _ _ _ _ _ _ _ _ _ _ _ _ _ _ _ _ o d - _ _ _ _ _ _",
" _ _ _ _ _ _ _ _ _ _ _ _ _ _ _ _ _ - _ - _ _ _ _ _ _",
" _ _ _ _ _ _ _ _ _ _ _ _ _ _ _ _ e K _ - _ _ _ _ _ _",
" _ _ _ _ _ _ _ _ _ _ _ _ _ _ _ _ } $ v m _ _ _ _ _ _",
" _ _ _ _ _ _ _ _ _ _ _ _ _ _ _ _ D d @ | _ _ _ _ _ _",
" _ _ _ _ _ _ _ _ _ _ _ _ _ _ _ _ - _ % { _ _ _ _ _ _",
" _ _ _ _ _ _ _ _ _ _ _ _ _ _ _ _ - _ - _ _ _ _ _ _ _",
" _ _ _ _ _ _ _ _ _ _ _ _ _ _ _ d D.+.< _ _ _ _ _ _ _",
" _ _ _ _ _ _ _ _ _ _ _ _ _ _ _ D d.=.= _ _ _ _ _ _ _",
" _ _ _ _ _ _ _ _ _ _ _ _ _ _ _ G a - _ _ _ _ _ _ _ _",
" _ _ _ _ _ _ _ _ _ _ _ _ _ _ _ - _ - _ _ _ _ _ _ _ _",
" _ _ _ _ _ _ _ _ _ _ _ _ _ _.. O y H _ _ _ _ _ _ _ _",
" _ _ _ _ _ _ _ _ _ _ _ _ _ _.#.>.O.1 _ _ _ _ _ _ _ _",
" _ _ _ _ _ _ _ _ _ _ _ _ _ _ $ } - _ _ _ _ _ _ _ _ _",
" _ _ _ _ _ _ _ _ _ _ _ _ _ _ - _ - _ _ _ _ _ _ _ _ _",
" _ _ _ _ _ _ _ _ _ _ _ _ _ w L _ - _ _ _ _ _ _ _ _ _",
" _ _ _ _ _ _ _ _ _ _ _ _ _ ] * j C _ _ _ _ _ _ _ _ _",
" _ _ _ _ _ _ _ _ _ _ _ _ _ - _ D d _ _ _ _ _ _ _ _ _",
" _ _ _ _ _ _ _ _ _ _ _ _ _ - _ J r _ _ _ _ _ _ _ _ _",
" _ _ _ _ _ _ _ _ _ _ _ _ _ - ' = _ _ _ _ _ _ _ _ _ _",
" _ _ _ _ _ _ _ _ _ _ _ _ x N.#.> _ _ _ _ _ _ _ _ _ _",
" _ _ _ _ _ _ _ _ _ _ _ _ C j.#.> _ _ _ _ _ _ _ _ _ _",
" _ _ _ _ _ _ _ _ _ _ _ _ L w K e _ _ _ _ _ _ _ _ _ _",
" _ _ _ _ _ _ _ _ _ _ _ [ & q P _ _ _ _ _ _ _ _ _ _ _",
" _ _ _ _ _ _ _ _ _ _ _.o.2 w L _ _ _ _ _ _ _ _ _ _ _",
" _ _ _ _ _ _ _ _ _ _ _.#.> M c _ _ _ _ _ _ _ _ _ _ _",
" _ _ _ _ _ _ _ _ _ _ _ - _ - _ _ _ _ _ _ _ _ _ _ _ _",
" _ _ _ _ _ _ _ _ _ _ _ - _ - _ _ _ _ _ _ _ _ _ _ _ _",
" _ _ _ _ _ _ _ _ _ _ _ - _ - _ _ _ _ _ _ _ _ _ _ _ _",
" _ _ _ _ _ _ _ _ _ _.2.o.*.- _ _ _ _ _ _ _ _ _ _ _ _",
" _ _ _ _ _ _ _ _ _ _ K e C j _ _ _ _ _ _ _ _ _ _ _ _",
" _ u & - - - - - - - t I 8 - - - - - - - - - T _ _ _",
" u + [ _ _ _ _ _ _ _ 0 O H _ _ _ _ _ _ _ i K R _ _ _",
" 7 U - - - - - - - - : T U - - - - - - I # { I _ _ _",
" - _ _ _ _ _ _ _ _ _ _ _ _ _ _ _ _ _ _.  & 5 : _ _ _",
" 8 2 6 Q R , ^ Y Q Q Q Q 1 , 4 Q ~ E ` / 4 I : _ _ _",
" - . 3 - O l Q.* - - - - C l L - > $ p Q + % : _ _ _",
" - . 3 - O l Q.* - - - - C l L - > $ p Q + & ; _ _ _",
" - . 3 - O l Q.* - - - - C X.: - > $ p Q + - - _ _ _",
" - . 3 - O l Q.* - 8.% - P I z B > W ! Q + - - _ _ _",
" - . 3 - O l Q.* - 9.$ - - -.#.> > Q Q Q + . h _ _ _",
" -.$ S - c f Q.* - 9.$ - -.;.#.> > Q I <.& _ _ _ _ _"
};
