/* XPM */
static char *noname[] = {
/* width height ncolors chars_per_pixel */
"64 64 7 1",
/* colors */
"  c #000000",
". c #FEFEFE",
"X c #FCFCFC",
"o c #010101",
"O c #FFFFFF",
"+ c #FDFDFD",
"@ c #020202",
/* pixels */
".OOOO.OOOOOOOO.OOOOO .O.O.OOOOO.O.OOOOOOO.OOO.OOOOOOOOOOOOOOOOOO",
"O.OOOOO.OO  OOOOOO.O O.OOOOOO.OOOOOO.XO.OOOOOOOOOOOOOOOOOOOOOOOO",
".O.O.OOO  OOOOOO.OOOoOOOO+O.OOO.OOOOOOOOOOOOO.OOOOOOOOOOOOOOOOOO",
"OOOOOOO .OO.OOOOO..  OOOO   O.+O.OOOOO  o   +OO.OOOOOOOOOOOOOOOO",
".OOOOO OOOOOOOO...O  OOOOO..O  OO.O o @   @  OOOOOOOOOOOOOOOOOOO",
"O.OO.OOOO.O+OOOOOOOo O+OOOOOO.O         o    OOOOOOOOOOOOOOOOOOO",
" o o  OOOOOOO.OOO.. oOOO.OO.OOOO      o  OOooOOOOOOOOOOOOOOOOOOO",
"o     OOOOOOOOOOOOOo OO.O+OOOO.OOO   O.OOO.   OOOOOOOOOOOOOOOOOO",
"  o o.OOOOOOOOOOOOO  OOOOOOOOOOOOOO OOOOOO.o  OO.OOOOOOOOOOOOOOO",
"  o  O.OOOOOOOOOOO.@ OOOOOOOOOOOO.OO OOOOOO.   .OO.OOOOOOOOOOOOO",
" o   .OOOOOOOOOOO+O  OOOOOOOOOOO.OOO OO.O.+O  oO.OO.O.OOOOOOOOOO",
"  OO OO.OOOOOOOOOOOo OO.OOOOOOOOOOOOO OO.OOO   ..OOOOO.OOOOOOOOO",
"  OO OOOOOOOOOOOO.O  ..OOOOOOOOO.OO.O.oOOO..   oOOOOOOOOOOOOOOOO",
" oOO O+OOOOOOOOOO.Oo OOOOOOOOOOOOO.OOO .OOOOO o .OOOO.+OOOOOOOOO",
"  O.O O.OOOOOOOO.OO O..OOOOOOOOOOO.O.O OOOO.O  oOOO.OOO.OOOOOOOO",
" oOO. OOOOOOOOOOO.O OOOOOOOOOOOOOOOOO.o+OOOO. o  OOOO.OOOOOOOOOO",
"  OOO .O.OOOOOO.OOO OOOO.OOOO.OOOO.OO  O.OOOOO  o..OO.O.OOOOOOOO",
" oOOOO OO+oOO.OOOOO OOOOOO.OOO.OOO.   oOO.OOOO   OO.OO+OOOOOOOOO",
"  OOOO   o .OO..OOO OOOOOOO..OO..oo oo ..OO.OO    OOOOOOOOOOOOOO",
" oOOOOoo    ..OOOOO OOOO.O.OOO+O  o    OOOOO.OOo @..O.O.OOOOOOOO",
"  OOO.o    oOOOOOOO OOOOO.O..O  o     O.OOO.OO.   oO.OOOOOOOOOOO",
"  .OOOooo   .OO.OOO OOOO.OOOO.o   o o OOO..O.OO    OO.O.OOOOOOOO",
"o oOOO     o O.OOOO OOOO.O.OO   o    o.OOOOOO+O.   OOO.OOOOOOOOO",
"   OOO o  o   OOOOO OOOOO.O         o OO..O..OOO    OOO.OOOOOOOO",
"   O.O  o  o o OO.O OOOOOO  o   @     OOOOOOOOOOO   OO.OOOOOOOOO",
"o o.OOO  ooo o   OO OOOOO@     o o oo OOOOOOOOOOO.oo OOOOO.OOOO.",
" o OOOOOo   o  @ OO OO.O    o   o     OOOOOOOOOOOO. o OOO.O.OOOO",
"o o OO+OOo o    o O ..o  o@   @   o @ .OOOOOOOOOOO.o  O..OOOOO+O",
"O  o.OO.OO              o    o        OOOOOOOOOO.OO    OOOOO.OOO",
"Oo  O.OOOOOo      o        oo  o o o O.OOOOOOOOOOO.O o  OOO..OO.",
"O   .OOOO.O+oo o        oo o  @   @ .OOOOOOOOOOO.O.O   o OOOO.OO",
"O   OOO.OO.O      @  @      o       OO+OOOOOOOOOOOOOoo   OO.OOO.",
"O    .OOOOOO o           o o      OO.OOOOOOOOOOOO.OO.    O.O.OOO",
"Oo   OOO.OOO. o  o o    o    o   +OOOOO.OOOOOOOO.OO.OO  oOOOOOOO",
".O  o.OOO.OO.O    o  o    o    oOOOO.OOOOOOOOOOOOO.OO.O   OO.O.O",
"OO   OOO.OO+O+Oo  o   oo o     OO.+OOO+OOOOOOOOOOO.OO.O @ @.OOOO",
".O  oOOOOOOOOO.O   oo        OOO.OOOO.OOOOOOOOOOO.OOOO.O o oO..O",
"O. o OOO.OOO.OOO.o   o oo  OO.O.OOO..OO.OOOOOOOOOOOO.OOOOo  .OOO",
".Oooo O.OOOOOOO.O.    o  OO.OO.O..O.OO+OOOOOOOOO.O.OOOO.. oo O.O",
"OO    OOOOO.OO.OOO. o   OOOOOOOOOOOO.OOOOOOOOOOOOOO.OO.OOO    O.",
"O.o   OOOOOOOOOOOOOOOOOOOOOOOOOOOOOOOOOOOOOOO.OOOOOOO.O.OO  o  O",
".O  o OOOOOOOOOOOOOOOOOOOOOOOOOOOOOOOOOOOO..OO.O..OOOOOOO.O  o  ",
"OOo   O.OOOOOOOOOOOOOOOOOOOOOOOOOOOOOOOO.OOOOO.OOO.OOO..OOOoo   ",
"OO  oOOOOOOOOOOOOOOOOOOOOOOOOOOOOOOOOOOOOOOO..OOO..O.OOO. oo    ",
"OOo   O.OOOOOOOOOOOOOOOOOOOOOOOOOOOOOOOO.O..O.OOO.OOO.   o    @ ",
"OO. o OOOOOOOOOOOOOOOOOOOOOOOOOOOOOOOOOOO.OOOOO.OO.   o    o@.OO",
"O.O  oO.OOOOOOOOOOOOOOOOOOOOOOOOOOOOOOOO.O.OOOOOO   oo  o O+OOOO",
"OOOo  OOOOOOOOOOOOOOOOOOOOOOOOOOOOOOOOOOOOO.OO   o o  @ OOOO.OO.",
"OO.O  O..OOOOOOOOOOOOOOOOOOOOOOOOO.O...OOOOO         O.OOOOOOOOO",
"OOOO  OOOO.OOOO.OOOOOOOOOOOOOOOOO.O..O.+      o    OOOOOOOOOOOOO",
"..OO oOOOXOOOOOOOOOOOOOOOOOOOOOOOOOOO+  oo  o   OOO+O.OOOOOOOOOO",
"OOO+o  O+O.OO.OOOOOOOOOOOOOOOOOO.O.o oo     OO.O.OO.OO.OOOOOOOOO",
"OOOOO o.OOO.OOOO                 o     o o.OOOO.O.OOO.OOOOOOOOOO",
"OO+OO  OO.OOOOOO                     o    OOOOOO+O..OOOOOOOOOOOO",
"..O+.o OOOOOO                   o@     OOO.OOO.OO.OOOO.OOOOOOOOO",
"OO.OO  OO.OO                      o  OOOOOOOOOOOOOOOOOOOOOOOOOOO",
".OO.Oo OO.OO     OOOO.OOOOOOOOOOOOOOOOOOOOOOOOOOOOOOOOOOOOOOOOOO",
"OOOOO  OOO o  .OOOO.OOO.OOOOOOOOOOOOOOOOOOOOOOOOOOOOOOOOOOOOOOOO",
"OOOOO oO.    @OO.OOOO.+OOOOOOOOOOOOOOOOOOOOOOOOOOOOOOOOOOOOOOOOO",
"OOO.O   ooo  OO.OOOOOOOOOOOOOOOOOOOOOOOOOOOOOOOOOOOOOOOOOOOOOOOO",
"OOOO. o     .O.O.OOOOO.OOOOOOOOOOOOOOOOOOOOOOOOOOOOOOOOOOOOOOOOO",
"O...O o oo OO.OO.OO.O.OOOOOOOOOOOOOOOOOOOOOOOOOOOOOOOOOOOOOOOOOO",
"OO.O.o O.O.OO.O.OO.OOOOOOOOOOOOOOOOOOOOOOOOOOOOOOOOOOOOOOOOOOOOO",
".OO.O  OO.OOOOOO.OOOOOOOOOOOOOOOOOOOOOOOOOOOOOOOOOOOOOOOOOOOOOOO"
};
