/* XPM */
static char * boekennodig_xpm[] = {
/* width height ncolors chars_per_pixel */
"64 64 32 1",
/* colors */
" 	c #F8FCF8",
".	c #F8F8F8",
"X	c #F0F4F0",
"o	c #F0F0F0",
"O	c #B8BCB8",
"+	c #080808",
"@	c #383838",
"#	c #C0C0C0",
"$	c #E8E8E8",
"%	c #303030",
"&	c #707070",
"*	c #C8C8C8",
"=	c #585858",
"-	c #B8B8B8",
";	c #D8D8D8",
":	c #181818",
">	c #787878",
",	c #A0A0A0",
"<	c #909490",
"1	c #606060",
"2	c #404040",
"3	c #202020",
"4	c #505050",
"5	c #484848",
"6	c #888888",
"7	c #989898",
"8	c #808080",
"9	c #686868",
"0	c #D0D4D0",
"q	c #101010",
"w	c #282828",
"e	c #A8ACA8",
/* pixels */
"                   .   X .X.X  XooooO+@# o   ooXXX.             ",
"                      .X.XX..  Xo$$$@+%&*X  =-$oXXX             ",
"  .           ..    . .XooX .  oo;%+:>,%&<12+3,$oXX X.o         ",
"                    X X.Xoo . .o*1++1>%4=2333@<oXoX.oXo         ",
"  .           .. .  X.XXoXooXo$5+:=,@26=%:31&%7oX...o.X         ",
"  .           .     X. XXX. o%++2#%36=8%:=&&>%<oo$X oX          ",
"   ..        . ..   .  X oX &++:,%%&443+1&&&1@8$ooooX.X         ",
" . ..        .   .X   XXXo4++36%%>%<2+3&1&@:+:>;1%=6;.          ",
"  .          .   .X.  XXo6+++,=%8%6@:511&1+++221<=%:4.          ",
"  .             ..XXXo$=+++&@3&%&3+:&&&1+++2&%=&43:=2X          ",
"    .        . .XXooo1++:&%%&%<2:+1&&1:++21%2=23+%&>2 .         ",
"  . .        X..oX$o&+:+6=%2%<2%341&1+++>8@%8=3+=&>>=..         ",
"    .          Xoo1+:+@9%2%&41+411=3++:8338%%:+11&&&4.          ",
"   ..          X07++:&6@&261&+@11=+++1<3=8113:1&1&&&@X.         ",
"  .          o.6++q3>2@4,=1+%&&1++++,%@81=%+1&1&&&&>%X.         ",
" . .          ,++3=3@%>=>:%1&=3++:6w%8%=:+=&&&&1&1&&%Xo         ",
"             o@:2&@%1,<1++=11+++%>3@8=>%+%111&&&&1&>%o$         ",
" ..          $322%@1>>=+1423+++e3:&%813%&1&1&1&&11&&@Xo         ",
"   X         o%3218-43+112+++3&%%1@,%::&1&1&&&&1&1&&@XX         ",
"             X&++++++1&1++++8%%1@&%1+&&1&&&&&&&&&11&%XX         ",
"  ..          0&441&>13+:+&&484<3%+%1&&11&&&&>&&&&1&@Xo         ",
"             .o@1&1&&:+::12312<%%+=&&&&1&1&&&&&&&&&&@XX         ",
"             X$2>,%&=++>%2&4e3&+=1&&&&&&&&&&&&>&1&&&%X          ",
"             o$&&&11%+42&%,1<+3&1&>&&&&1&&&&&&&&&&&&@ .         ",
"   .         $$11&1&4+%4@6%13%&&1&&&&&&1&&&1>&&&&&&&% X         ",
"  .          .o&11&&1:++++++&&&1&&1&>&>&&1&&>>&&&&&&%           ",
"  .           o&&&&1&2:+++32&&&&&&&&&1&&&&&>&>&&&&&&%oX         ",
"             .o&1&1&&%4&1&&&&&&&&1&&&&&&1&&&&&&1&&&>%oX         ",
"  .          .X&&&1&&2%=@21&&&&&&&&&>&>&&&8&&>>18>>&%X          ",
"              o&&&&&&=&22&&&&&&&&&&&&>&1&&&&>&&&&&&>% X         ",
"   ..         $&1&&&&=&>&&1&&&>&&&&>&&&&1>>1>>&&8&&>%           ",
"             .o&&&&&>@&&&&&>&&&&&&&&>&&&&>&&>&&&&&&&3           ",
"   .          o&1&&&1@&&&&&&>&>>&&&&&>&&&1&1&&&&>>&>2           ",
"              o&&&&&&4&&&>&&&>&&&1&&>>&&&&&&&&&&>>>>2.          ",
"    .         X8&18&&4&&&&&&&&>&&&&&&&&1&&8>&&>&>&&&%           ",
"  .oX         X>&&1&14&&&&&&&>>&&&&>&>&&&&>&&&&&&&8&@           ",
". ..         .o&&&&&&4&&1&1>&&&&&1&&>>&>&&&>&>&>&8&>@           ",
".   .         X>1&&&&=&&&&&&>>&>&&&>&&>&&&&&>&&>>&>&@           ",
"o   .          &&&&&&4>>&&&&&&&>&&&&&&&&>&&&>&>&&>>>@.          ",
"X              &&1&&&2&&&&&&&&&&&1&&&&&>&&&>>&>>&&>>@X          ",
"  .           .>&&&&&%&&&&&&&&&&&&&&&&>&&&&&>>&>&&>>>           ",
"    .         .1&&&&&@&>>>&>&&&&&&&&&>&1&&>&>&>&8>>@o           ",
"  .            &&1&&&2&&>&&&&>&>&&&>>>&&&>&&&&>&&&6  .          ",
"    .        . 1&&>>82&&&1&&>&>>&&&&8&>&&&>>&>>&%<X             ",
"              .&&&&8&@&&&&&&>&&>&1&>&>>&&&>&8&&1e               ",
".  .           &&&&1&@&&&&&&>&&>&&&8>&&&&>>&&>&-X.              ",
" X. .         .&&&&>&3&>&>&>&&&&&1&&>>&>&&>&>@* .  . .          ",
"  XXX        . &&&&&&%&&&&>&&&&&&&&>>&>&&>>&&0                  ",
"XXXoX         .&&>&&&%>&1&&>&&&&&&1&&&>>&&>=;   .  . .          ",
".X..         XX1&&&&&3&&&&>>&1>&&&>&>>&&>8=X X   .  .           ",
"X X            =&>1&&%&&&>&&&>&&&&&&>>&&&2$o  .  .   .          ",
"             .X=&1&&&%&&1&1&>&>&&&&1&>&&1$XX .  . .   .         ",
"X.  .         ;&&1&11%&1&1&>&>&&&&&&&&&@$X.     ..   .          ",
"             .e>&&&&8%&>&&&&&&&&&&>&&&%oXX    .   .   .         ",
"              o&&&&&6@&&1&1&&>&&&1&&>%XXXo.       . ..          ",
"  . .         .5&&&&6@>>111&&&&&&1&&%XXXooX          .          ",
"               X12>&23&>1&&&&&&&&1<@X.XX.X       . .            ",
"   .         .  X*1=81&&&&&&&&&&&12;X.oX.X  ..      .           ",
"                .X X 5&&1&&>&>&>21o$X XX    .    . .  .         ",
"   .            .  .o&8>&&&&>>&&1;$oX..      .      .           ",
"  .                  @&&&&&&&>&>XooXXX    . . .  . .  .         ",
"             . .   .X2&>&11&&%-X.X.XXX      .    ..  .          ",
"   ..        .  . .. O=&&&&&@#X .X.o..   ..     .  .  .         ",
"              ..     .X$=%%1.    ..      .. .    ..  .          "};
