/* XPM */
static char *broek2-r[] = {
/* width height ncolors chars_per_pixel */
"55 64 167 2",
/* colors */
"   c #000000",
" . c #B1B1B1",
" X c #ABABAB",
" o c #A7A7A7",
" O c #A5A5A5",
" + c #A3A3A3",
" @ c #9F9F9F",
" # c #9D9D9D",
" $ c #999999",
" % c #979797",
" & c #939393",
" * c #919191",
" = c #8D8D8D",
" - c #898989",
" ; c #878787",
" : c #838383",
" > c #818181",
" , c #7F7F7F",
" < c #7B7B7B",
" 1 c #797979",
" 2 c #757575",
" 3 c #737373",
" 4 c #717171",
" 5 c #6B6B6B",
" 6 c #696969",
" 7 c #656565",
" 8 c #636363",
" 9 c #5D5D5D",
" 0 c #575757",
" q c #535353",
" w c #515151",
" e c #4F4F4F",
" r c #FEFEFE",
" t c #4B4B4B",
" y c #FCFCFC",
" u c #494949",
" i c #FAFAFA",
" p c #F8F8F8",
" a c #454545",
" s c #F6F6F6",
" d c #434343",
" f c #F4F4F4",
" g c #414141",
" h c #F2F2F2",
" j c #3F3F3F",
" k c #F0F0F0",
" l c #3D3D3D",
" z c #3B3B3B",
" x c #ECECEC",
" c c #EAEAEA",
" v c #E8E8E8",
" b c #353535",
" n c #333333",
" m c #E4E4E4",
" M c #E2E2E2",
" N c #E0E0E0",
" B c #2D2D2D",
" V c #DEDEDE",
" C c #2B2B2B",
" Z c #DADADA",
" A c #272727",
" S c #D8D8D8",
" D c #212121",
" F c #D2D2D2",
" G c #1F1F1F",
" H c #D0D0D0",
" J c #1D1D1D",
" K c #1B1B1B",
" L c #191919",
" P c #CACACA",
" I c #151515",
" U c #C6C6C6",
" Y c #131313",
" T c #111111",
" R c #0F0F0F",
" E c #C0C0C0",
" W c #0D0D0D",
" Q c #090909",
" ! c #BABABA",
" ~ c #070707",
" ^ c #050505",
" / c #030303",
" ( c #B4B4B4",
" ) c #010101",
" _ c #B0B0B0",
" ` c #AEAEAE",
" ' c #ACACAC",
" ] c #AAAAAA",
" [ c #A8A8A8",
" { c #A4A4A4",
" } c #A2A2A2",
" | c #A0A0A0",
".  c #9A9A9A",
".. c #989898",
".X c #909090",
".o c #8A8A8A",
".O c #888888",
".+ c #848484",
".@ c #808080",
".# c #7E7E7E",
".$ c #7C7C7C",
".% c #787878",
".& c #727272",
".* c #707070",
".= c #6E6E6E",
".- c #6C6C6C",
".; c #686868",
".: c #666666",
".> c #646464",
"., c #606060",
".< c #5E5E5E",
".1 c #5C5C5C",
".2 c #5A5A5A",
".3 c #585858",
".4 c #545454",
".5 c #505050",
".6 c #4E4E4E",
".7 c #FFFFFF",
".8 c #4C4C4C",
".9 c #FDFDFD",
".0 c #FBFBFB",
".q c #484848",
".w c #F9F9F9",
".e c #F5F5F5",
".r c #F3F3F3",
".t c #3E3E3E",
".y c #EFEFEF",
".u c #EDEDED",
".i c #3A3A3A",
".p c #EBEBEB",
".a c #E9E9E9",
".s c #363636",
".d c #E7E7E7",
".f c #E5E5E5",
".g c #323232",
".h c #E3E3E3",
".j c #303030",
".k c #2E2E2E",
".l c #DFDFDF",
".z c #2C2C2C",
".x c #2A2A2A",
".c c #DBDBDB",
".v c #D7D7D7",
".b c #242424",
".n c #D5D5D5",
".m c #D3D3D3",
".M c #1E1E1E",
".N c #CFCFCF",
".B c #1C1C1C",
".V c #CDCDCD",
".C c #1A1A1A",
".Z c #CBCBCB",
".A c #181818",
".S c #C9C9C9",
".D c #161616",
".F c #C7C7C7",
".G c #121212",
".H c #C3C3C3",
".J c #C1C1C1",
".K c #0E0E0E",
".L c #0C0C0C",
".P c #BDBDBD",
".I c #B9B9B9",
".U c #060606",
".Y c #B7B7B7",
".T c #B5B5B5",
".R c #B3B3B3",
/* pixels */
".7.7.7.7.7.7.7.7.7.7.7.m E E E E E E E E E E E E E E E E E E E E E E E E E E E E E e ^ j K.G.7.7.7.7.7.7.7.7.7",
".7.7.7.7.7.7.7.7.7.7.7 t L.#.#.#.#.#.#.#.#.#.#.#.#.#.# W          .=.#.#.#.#.#.#.#.# -.7.-.G.7.7.7.7.7.7.7.7.7",
".7.7.7.7.7.7.7.7.7.7.7 t n.7.7.7.7.7.7.7.7.7.7.7.7.7.7 K u.P.D     V.7.7.7.7.7.7.7.7.7.7.-.G.7.7.7.7.7.7.7.7.7",
".7.7.7.7.7.7.7.7.7.7.h.> l j j j j $.H.H.H.H.H.H.H.H.H I ) /       ].H.H.H.H.H q j j j j ' c / *.7.7.7.7.7.7.7",
".7.7.7.7.7.7.7.7.7.7.o (.7.7.7.7.7 O 7   q < < < < < < W.j <.K.k < < < < <.5  .* `.7.7.7.7.u  .X.7.7.7.7.7.7.7",
".7.7.7.7.7.7.7.7.7.8 <.p.7.7.7.7.7.@.2 ! v.7.7.7.7.7.7 K 8.7.M.,.7.7.7.7.7.d !.B.A.R.7.7.7.u  .X.7.7.7.7.7.7.7",
".7.7.7.7.7.7.7.7.7 Q 2.v U U g T j z.1.7.7.7.7.7.7.7.7 K 8.7 i #.U.l.7.7.7.7.7 i.Y K.D U U P.w.* I.7.7.7.7.7.7",
".7.7.7.7.7.7.7.F ; ^.t.$.%.%.% *.7.7.7.7.7.7.7.7.7.7.7 K 8.7.7 @   V.7.7.7.7.7.7.7 _.%.%.% 1 ; z R.7.7.7.7.7.7",
".7.7.7.7.7.7.7 ;   ..Y c.7.7.7.7.7.7.7.7.7.7.7.7.7.7.7 K 8.7.7 @   V.7.7.7.7.7.7.7.7.7.7.7 i.Y.5 R.7.7.7.7.7.7",
".7.7.7.7.7.7.7 ;   s.7.7.7.7.7.7.7.7.7.7.7.7.7.7.7.7.7 K 8.7.7 @   V.7.7.7.7.7.7.7.7.7.7.7.7.7 i v Q *.7.7.7.7",
".7.7.7.7.7.7.7 ;   s.7.7.7.7.7.7.7.7.7.7.7.7.7.7.7.7.7 K 8.7.7 @   V.7.7.7.7.7.7.7.7.7.7.7.7.7.7 k   =.7.7.7.7",
".7.7.7.7.7.7.7 ;   s.7.7.7.7.7.7.7.7.7.7.7.7.7.7.7.7.7 K 8.7.7 @   V.7.7.7.7.7.7.7.7.7.7.7.7.7.7 k   =.7.7.7.7",
".7.7.7.7.7.7.V.+ n p.7.7.7.7.7.7.7.7.7.7.7.7.7.7.7.7.7 K 8.7.7 @   V.7.7.7.7.7.7.7.7.7.7.7.7.7.7 k   =.7.7.7.7",
".7.7.7.7.7.7.U.%.7.7.7.7.7.7.7.7.7.7.7.7.7.7.7.7.7.7.7 K 8.7. .3   V.7.7.7.7.7.7.7.7.7.7.7.7.7.7 k   =.7.7.7.7",
".7.7.7.7.7.7.U.%.7.7.7.7.7.7.7.7.7.7.7.7.7.7.7.7.7.7.7 K.M.6 Q d ..e.7.7.7.7.7.7.7.7.7.7.7.7.7.7 k   =.7.7.7.7",
".7.7.7.7.7.7.U.%.7.7.7.7.7.7.7.7.7.7.7.7.7.7.7.7.7.7.7 K Y.j Z s.7.7.7.7.7.7.7.7.7.7.7.7.7.7.7.7 r k 3.C.7.7.7",
".7.7.7.7.7.7.U.%.7.7.7.7.7.7.7.7.7.7.7.7.7.7.7.7.7.7.7 K 8.7.7.7.7.7.7.7.7.7.7.7.7.7.7.7.7.7.7.7.7.7.&.L.7.7.7",
".7.7.7.7.7.7.U.%.7.7.7.7.7.7.7.7.7.7.7.7.7.7.7.7.7.7.7 K G w.p.7.7.7.7.7.7.7.7.7.7.7.7.7.7.7.7.7.7.7.&.L.7.7.7",
".7.7.7.7.7.7.U.%.7.7.7.7.7.7.7.7.7.7.7.7.7.7.7.7.7.u F.t.%.u.z 5.7.7.7.7.7.7.7.7.7.7.7.7.7.7.7.7.7.7.&.L.7.7.7",
".7.7.7.7.7.7.U.%.7.7.7.7.7.7.7.7.7.7.7.7.7.7.7.7.7 $   m.7.7.M.,.7.7.7.7.7.7.7.7.7.7.7.7.7.7.7.7.7.7.&.L.7.7.7",
".7.7.7.7.7.7.U.%.7.7.7.7.7.7.7.7.7.7.7.7.7.7.7.7.7 $   m.7.7.T.o.4.a.7.7.7.7.7.7.7.7.7.7.7.7.7.7.7.7.&.L.7.7.7",
".7.7.7.7.7.7.U.%.7.7.7.7.7.7.7.7.7.7.7.7.7.7.7.7.7 $   m.7.7.7 @   V.7.7.7.7.7.7.7.7.7.7.7.7.7.7.7.7 -.g.n x.7",
".7.7.7.7.7.7.U.%.7.7.7.7.7.7.7.7.7.7.7.7.7.7.7.7.y.+ 6.y.7.7.7 @   V.7.7.7.7.7.7.7.7.7.7.7.7.7.7.7.7.7.r  .o.7",
".7.7.7.7.7.7.U.%.7.7.7.7.7.7.7.7.7.7.7.7.7.7.7.7 S.:.7.7.7.7.7 @   V.7.7.7.7.7.7.7.7.7.7.7.7.7.7.7.7.7.r  .o.7",
".7.7.7.7 x S C =.7.7.7.7.7.7.7.7.7.7.7.7.7.7.7.7 S.:.7.7.7.7.7 @   V.7.7.7.7.7.7.7.7.7.7.7.7.7.7.7.7.7.r  .o.7",
".7.7.7.7.+  .w.7.7.7.7.7.7.7.7.7.7.7.7.7.7.7.7.7 S.:.7.7.7.7.7 @   V.7.7.7.7.7.7.7.7.7.7.7.7.7.7.7.7.7.r  .o.7",
".7.7.7.7.+  .w.7.7.7.7.7.7.7.7.7.7.7.7.7.7.7.7.7 S.:.7.7.7.7.7 @   V.7.7.7.7.7.7.7.7.7.7.7.7.7.7.7.7.7.r  .o.7",
".7.7.7.7.+  .w.7.7.7.7.7.7.7.7.7.7.7.7.7.7.7.7 6.i.y.7.7.7.7.7.e m b.=.7.7.7.7.7.7.7.7.7.7.7.7.7.7.7.7.r  .o.7",
".7.7.7.7.+  .w.7.7.7.7.7.7.7.7.7.7.7.7.7.7.7.7 0 A.7.7.7.7.7.7.7.7 D 9.7.7.7.7.7.7.7.7.7.7.7.7.7.7.7.7.r  .o.7",
".7.7.7.7.+  .w.7.7.7.7.7.7.7.7.7.7.7.7.7.7.7.7 0 A.7.7.7.7.7.7.7.7 D 9.7.7.7.7.7.7.7.7.7.7.7.7.7.7.7.7.r  .o.7",
".7.7.7.7.+  .w.7.7.7.7.7.7.7.7.7.7.7.7.7.7.7.7 0 A.7.7.7.7.7.7.7.7 D 9.7.7.7.7.7.7.7.7.7.7.7.7.7.7.7.7.r  .o.7",
".7.7.7.7.+  .w.7.7.7.7.7.7.7.7.7.7.7.7.7.7.y @ 2.%.7.7.7.7.7.7.7.7 D 9.7.7.7.7.7.7.7.7.7.7.7.7.7.7.7.7.r  .o.7",
".7.7.7.7.+  .w.7.7.7.7.7.7.7.7.7.7.7.7.7.7.n   [.7.7.7.7.7.7.7.7.7 D 9.7.7.7.7.7.7.7.7.7.7.7.7.7.7.7.7.r  .o.7",
".7.7.7.7.+  .w.7.7.7.7.7.7.7.7.7.7.7.7.7.7.n   [.7.7.7.7.7.7.7.7.7 D 9.7.7.7.7.7.7.7.7.7.7.7.7.7.7.7.7.r  .o.7",
".7.7.7 + > 9.0.7.7.7.7.7.7.7.7.7.7.7.7.7.7.n   [.7.7.7.7.7.7.7.7.7 D 9.7.7.7.7.7.7.7.7.7.7.7.7.7.7.7.7.r  .o.7",
".7.7.7 / <.7.7.7.7.7.7.7.7.7.7.7.7.7.7.7.7.n   [.7.7.7.7.7.7.7.7.7 D 9.7.7.7.7.7.7.7.7.7.7.7.7.7.7.7.7.r  .o.7",
".7.7.7 / <.7.7.7.7.7.7.7.7.7.7.7.7.7.7.7.u.H K ..7.7.7.7.7.7.7.7.7 N...b N.7.7.7.7.7.7.7.7.7.7.7.7.7.7.r  .o.7",
".7.7.7 / <.7.7.7.7.7.7.7.7.7.7.7.7.7.7.7.4.x.7.7.7.7.7.7.7.7.7.7.7.7 }  .c.7.7.7.7.7.7.7.7.7.7.7.7.7.7.r  .o.7",
".7.7.7 / <.7.7.7.7.7.7.7.7.7.7.7.7.7.7.7.4.x.7.7.7.7.7.7.7.7.7.7.7.7 }  .c.7.7.7.7.7.7.7.7.7.7.7.7.7.7.r  .o.7",
".7.7.7 / <.7.7.7.7.7.7.7.7.7.7.7.7.7.7.7.4.x.7.7.7.7.7.7.7.7.7.7.7.7 }  .c.7.7.7.7.7.7.7.7.7.7.7.7.7.7 f.A.O.d",
".7.7.7 / <.7.7.7.7.7.7.7.7.7.7.7.7.7.7.7.4.x.7.7.7.7.7.7.7.7.7.7.7.7 }  .c.7.7.7.7.7.7.7.7.7.7.7.7.7.7.7.7 2  ",
".7.7.7 / <.7.7.7.7.7.7.7.7.7.7.7.7.7 m 6 ; o.7.7.7.7.7.7.7.7.7.7.7.7 }  .c.7.7.7.7.7.7.7.7.7.7.7.7.7.7.7.7 2  ",
".7.7.7 / <.7.7.7.7.7.7.7.7.7.7.7.7.7 F   X.7.7.7.7.7.7.7.7.7.7.7.7.7 }  .c.7.7.7.7.7.7.7.7.7.7.7.7.7.7.7.7 2  ",
".7.7.7 / <.7.7.7.7.7.7.7.7.7.7.7.7.7 F   X.7.7.7.7.7.7.7.7.7.7.7.7.7 }  .c.7.7.7.7.7.7.7.7.7.7.7.7.7.7.7.7 2  ",
".7.7.7 / <.7.7.7.7.7.7.7.7.7.7.7.7.7 F   X.7.7.7.7.7.7.7.7.7.7.7.7.7 S & 4 |.7.7.7.7.7.7.7.7.7.7.7.7.7.7.7 2  ",
".7 % B H v.7.7.7.7.7.7.7.7.7.7.7.7.7 F   X.7.7.7.7.7.7.7.7.7.7.7.7.7.7.7.b.2.7.7.7.7.7.7.7.7.7.7.7.7.7.7.7 2  ",
".7 >   y.7.7.7.7.7.7.7.7.7.7.7.7.7.7 F   X.7.7.7.7.7.7.7.7.7.7.7.7.7.7.7.b.2.7.7.7.7.7.7.7.7.7.7.7.7.7.7.7 2  ",
".7 >   y.7.7.7.7.7.7.7.7.7.7.7.7.7 # 2.X Z.7.7.7.7.7.7.7.7.7.7.7.7.7.7.7.b.2.7.7.7.7.7.7.7.7.7.7.7.7.7.7.7 2  ",
".7 >   y.7.7.7.7.7.7.7.7.7.7.7.7.7 w B.7.7.7.7.7.7.7.7.7.7.7.7.7.7.7.7.7.b.2.7.7.7.7.7.7.7.7.7.7.7.7.7.7.7 2  ",
".7 >   y.7.7.7.7.7.7.7.7.7.7.7.7.7 w B.7.7.7.7.7.7.7.7.7.7.7.7.7.7.7.7.7.b.2.7.7.7.7.7.7.7.7.7.7.7.7.7.7.7 2  ",
".7 >   y.7.7.7.7.7.7.7.7.7.7.7.7.7 w B.7.7.7.7.7.7.7.7.7.7.7.7.7.7.7.7.7.b.2.7.7.7.7.7.7.7.7.7.7.7.7.7.7.7 2  ",
".7 >   y.7.7.7.7.7.7.7.7.7.7.7.7.7 w B.7.7.7.7.7.7.7.7.7.7.7.7.7.7.7.7.7.k.<.r.9.7.7.7.7.7.7.7.7.7.7.7.7.7 2  ",
".7 >   y.7.7.7.7.7.7.7.7.7.7.7.7.7 w B.7.7.7.7.7.7.7.7.7.7.7.7.7.7.7.7.7.7 O   S.7.7.7.7.7.7.7.7.7.7.7.7.7 2  ",
".7 >   y.7.7.7.7.7.7.7.7.7.7.7.f 2 : @.7.7.7.7.7.7.7.7.7.7.7.7.7.7.7.7.7.7 O   S.7.7.7.7.7.7.7.7.7.7.7.7.7 2  ",
".s ,.S r.7.7.7.7.7.7.7.7.7.7.7.N   `.7.7.7.7.7.7.7.7.7.7.7.7.7.7.7.7.7.7.7 O   S.7.7.7.7.7.7.7.7.7.7.7.7.7 2  ",
"  .#.7.7.7.7.7.7.7.7.7.7.7.7.7.N   `.7.7.7.7.7.7.7.7.7.7.7.7.7.7.7.7.7.7.7 O   S.7.7.7.7.7.7.7.7.7.7.7.7.7 2  ",
"  .#.7.7.7.7.7.7.7.7.7.7.7.7.7.N   `.7.7.7.7.7.7.7.7.7.7.7.7.7.7.7.7.7.7.7 O   S.7.7.7.7.7.7.7.7.7.7.7.w.%.@ ;",
"  .#.7.7.7.7.7.7.7.7.7.7.7.7.0.Z.U _.7.7.7.7.7.7.7.7.7.7.7.7.7.7.7.7.7.7.7 O   S.7.7.7.7.7.7.7.7.7.7.7.r  .o.7",
"  .#.7.7.7.7.7.7.7.7.7.7.7.7.6.j.7.7.7.7.7.7.7.7.7.7.7.7.7.7.7.7.7.7.7.7.7.P a [ F.7.7.7.7.7.7.7.7.7.7.r  .o.7",
"  .#.7.7.7.7.7.7.7.7.7.7.7.7.6.j.7.7.7.7.7.7.7.7.7.7.7.7.7.7.7.7.7.7.7.7.7.7.7 A 0.7.7.7.7.7.7.7.7.7.7.r  .o.7",
"  .#.7.7.7.7.7.7.7.7.7.7.7.7.6.j.7.7.7.7.7.7.7.7.7.7.7.7.7.7.7.7.7.7.7.7.7.7.7 A 0.7.7.7.7.7.7.7.7.7.7.r  .o.7",
"   9.P r.7.7.7.7.7.7.7.7 h.P.;.:.7.7.7.7.7.7.7.7.7.7.7.7.7.7.7.7.7.7.7.7.7.7.7 A 0.7.7.7.7.7.7.7.7.7.7.r  .o.7",
" > > >.#.#.#.#.#.#.#.I { 7   ..7.7.7.7.7.7.7.7.7.7.7.7.7.7.7.7.7.7.7.7.7.7.7.7 A 0.7.7.7.7 s.#.#.#.#.#.%  .o.7",
".7.7.7.J E E E E E ~ J.  E E x.7.7.7.7.7.7.7.7.7.7.7.7.7.7.7.7.7.7.7.7.7.7.7.7 A.D j j j j.q E E E E E E E M.7"
};
