/* XPM */
static char *broek2-r[] = {
/* width height ncolors chars_per_pixel */
"60 64 165 2",
/* colors */
"   c #000000",
" . c #B1B1B1",
" X c #ADADAD",
" o c #ABABAB",
" O c #A7A7A7",
" + c #A5A5A5",
" @ c #A3A3A3",
" # c #A1A1A1",
" $ c #9F9F9F",
" % c #9D9D9D",
" & c #9B9B9B",
" * c #979797",
" = c #8F8F8F",
" - c #8D8D8D",
" ; c #8B8B8B",
" : c #858585",
" > c #838383",
" , c #818181",
" < c #7D7D7D",
" 1 c #777777",
" 2 c #717171",
" 3 c #6F6F6F",
" 4 c #6B6B6B",
" 5 c #696969",
" 6 c #676767",
" 7 c #656565",
" 8 c #5F5F5F",
" 9 c #5B5B5B",
" 0 c #595959",
" q c #575757",
" w c #535353",
" e c #4F4F4F",
" r c #4D4D4D",
" t c #4B4B4B",
" y c #FCFCFC",
" u c #494949",
" i c #FAFAFA",
" p c #F8F8F8",
" a c #F6F6F6",
" s c #F4F4F4",
" d c #414141",
" f c #F2F2F2",
" g c #EEEEEE",
" h c #3B3B3B",
" j c #ECECEC",
" k c #393939",
" l c #E8E8E8",
" z c #353535",
" x c #E6E6E6",
" c c #333333",
" v c #E4E4E4",
" b c #313131",
" n c #E2E2E2",
" m c #2F2F2F",
" M c #E0E0E0",
" N c #DCDCDC",
" B c #292929",
" V c #DADADA",
" C c #D8D8D8",
" Z c #D6D6D6",
" A c #D0D0D0",
" S c #1D1D1D",
" D c #CCCCCC",
" F c #CACACA",
" G c #171717",
" H c #C4C4C4",
" J c #111111",
" K c #0F0F0F",
" L c #0D0D0D",
" P c #BEBEBE",
" I c #0B0B0B",
" U c #BCBCBC",
" Y c #090909",
" T c #BABABA",
" R c #B8B8B8",
" E c #B6B6B6",
" W c #010101",
" Q c #B2B2B2",
" ! c #ACACAC",
" ~ c #A6A6A6",
" ^ c #A2A2A2",
" / c #A0A0A0",
" ( c #9E9E9E",
" ) c #9A9A9A",
" _ c #949494",
" ` c #929292",
" ' c #909090",
" ] c #8E8E8E",
" [ c #8C8C8C",
" { c #888888",
" } c #848484",
" | c #828282",
".  c #808080",
".. c #7E7E7E",
".X c #7A7A7A",
".o c #787878",
".O c #767676",
".+ c #6C6C6C",
".@ c #6A6A6A",
".# c #646464",
".$ c #626262",
".% c #606060",
".& c #5E5E5E",
".* c #5A5A5A",
".= c #585858",
".- c #565656",
".; c #545454",
".: c #525252",
".> c #4E4E4E",
"., c #FFFFFF",
".< c #4C4C4C",
".1 c #4A4A4A",
".2 c #FBFBFB",
".3 c #484848",
".4 c #F9F9F9",
".5 c #F7F7F7",
".6 c #444444",
".7 c #F5F5F5",
".8 c #424242",
".9 c #F3F3F3",
".0 c #404040",
".q c #EFEFEF",
".w c #3C3C3C",
".e c #EDEDED",
".r c #3A3A3A",
".t c #383838",
".y c #E9E9E9",
".u c #363636",
".i c #E7E7E7",
".p c #343434",
".a c #E5E5E5",
".s c #323232",
".d c #E3E3E3",
".f c #303030",
".g c #E1E1E1",
".h c #2E2E2E",
".j c #DFDFDF",
".k c #2A2A2A",
".l c #DBDBDB",
".z c #D9D9D9",
".x c #D7D7D7",
".c c #242424",
".v c #D5D5D5",
".b c #222222",
".n c #D3D3D3",
".m c #1E1E1E",
".M c #CFCFCF",
".N c #CDCDCD",
".B c #1A1A1A",
".V c #CBCBCB",
".C c #181818",
".Z c #161616",
".A c #C7C7C7",
".S c #121212",
".D c #C3C3C3",
".F c #BFBFBF",
".G c #0C0C0C",
".H c #BDBDBD",
".J c #BBBBBB",
".K c #080808",
".L c #B9B9B9",
".P c #060606",
".I c #B7B7B7",
".U c #020202",
".Y c #B3B3B3",
/* pixels */
".,.,.,.,.,.,.,.,.,.,.,.,.,.,.,.,.,.,.,.,.,.,.,.,.,.,.,.,.,.,.,.,.,.,.,.,.,.,.,.,.,.,.,.,., C P P P.A.,.,.,.,.,.,.,.,.,.,",
".,.,.,.,.,.,.,.,.,.,.,.,.,.,.,.M < < < < < < < < < < < < < < < < < < < < < < < < < < < < < b K |.f.c.,.,.,.,.,.,.,.,.,.,",
".,.,.,.,.,.,.,.,.,.,.,.,.,.,., /   X H H H H H H H H H H H H H.s.U.P W     & H H H H H H H H.V.,.&.c.,.,.,.,.,.,.,.,.,.,",
".,.,.,.,.,.,.,.,.,.,.,.,.,.,., /   @ R R R Z.,.,.,.,.,.,.,.,., d m R.k     F.,.,.,.,.,.D R R R R 2 q R x.,.,.,.,.,.,.,.,",
".,.,.,.,.,.,.,.,.,.,.,.,.,.,.q < { { { { { , 1 1 1 1 1 1 1 1 1.m          .& 1 1 1 1 1 : { { { {.n.l   O.,.,.,.,.,.,.,.,",
".,.,.,.,.,.,.,.,.,.,.,.,., p C 6.,.,.,.,., v P.C.% F F F F F F c.p F m k F F F F F [.G.h.o i.,.,.,.l   O.,.,.,.,.,.,.,.,",
".,.,.,.,.,.,.,.,.,.,.,.,., 7.m.,.,., M Q Q 6   g.,.,.,.,.,.,., d.8.,.O 5 Q.q.,.,.,.,.,.@.s.+.J.,., x r =.F.,.,.,.,.,.,.,",
".,.,.,.,.,.,.,.,.,.,.,.,., 7.m F 2 2.6   , ] ].5.,.,.,.,.,.,., d.8.,.,.I   F.,.,.,.,.,.,.x.t L 2 2 :.,.=.k.,.,.,.,.,.,.,",
".,.,.,.,.,.,.,.,.,.,., j m S.C.O A A A A.2.,.,.,.,.,.,.,.,.,., d.8.,.,.I   F.,.,.,.,.,.,., n A A A U d.Z.k.,.,.,.,.,.,.,",
".,.,.,.,.,.,.,.,.,.,.,.i   ).,.,.,.,.,.,.,.,.,.,.,.,.,.,.,.,., d.8.,.,.I   F.,.,.,.,.,.,.,.,.,.,.,.,., ].$ ! v.,.,.,.,.,",
".,.,.,.,.,.,.,.,.,.,.,.i   ).,.,.,.,.,.,.,.,.,.,.,.,.,.,.,.,., d.8.,.,.I   F.,.,.,.,.,.,.,.,.,.,.,.,.,.,.v   X.,.,.,.,.,",
".,.,.,.,.,.,.,.,.,.,.,.i   ).,.,.,.,.,.,.,.,.,.,.,.,.,.,.,.,., d.8.,.,.I   F.,.,.,.,.,.,.,.,.,.,.,.,.,.,.v   X.,.,.,.,.,",
".,.,.,.,.,.,.,.,.,.,.,.i   ).,.,.,.,.,.,.,.,.,.,.,.,.,.,.,.,., d.8.,.,.I   F.,.,.,.,.,.,.,.,.,.,.,.,.,.,.v   X.,.,.,.,.,",
".,.,.,.,.,.,.,.,.,., +.@ ).x.,.,.,.,.,.,.,.,.,.,.,.,.,.,.,.,., d.8.,.,.I   F.,.,.,.,.,.,.,.,.,.,.,.,.,.,.v   X.,.,.,.,.,",
".,.,.,.,.,.,.,.,.,., 4.C.,.,.,.,.,.,.,.,.,.,.,.,.,.,.,.,.,.,., d.r.g e.b.m A.,.,.,.,.,.,.,.,.,.,.,.,.,.,.v   X.,.,.,.,.,",
".,.,.,.,.,.,.,.,.,., 4.C.,.,.,.,.,.,.,.,.,.,.,.,.,.,.,.,.,.,., d     u [.,.,.,.,.,.,.,.,.,.,.,.,.,.,.,., v 8 ; Q.,.,.,.,",
".,.,.,.,.,.,.,.,.,., 4.C.,.,.,.,.,.,.,.,.,.,.,.,.,.,.,.,.,.,., d B /.y.,.,.,.,.,.,.,.,.,.,.,.,.,.,.,.,.,.,.,.:.f.,.,.,.,",
".,.,.,.,.,.,.,.,.,., 4.C.,.,.,.,.,.,.,.,.,.,.,.,.,.,.,.,.,.,., d.t.l.5.,.,.,.,.,.,.,.,.,.,.,.,.,.,.,.,.,.,.,.:.f.,.,.,.,",
".,.,.,.,.,.,.,.,.,., 4.C.,.,.,.,.,.,.,.,.,.,.,.,.,.,.,.,.,.,., d.B 7 ] E.,.,.,.,.,.,.,.,.,.,.,.,.,.,.,.,.,.,.:.f.,.,.,.,",
".,.,.,.,.,.,.,.,.,., 4.C.,.,.,.,.,.,.,.,.,.,.,.,.,.,.,.,., C 0 `.H., h.3.,.,.,.,.,.,.,.,.,.,.,.,.,.,.,.,.,.,.:.f.,.,.,.,",
".,.,.,.,.,.,.,.,.,., 4.C.,.,.,.,.,.,.,.,.,.,.,.,.,.,.,.,.,.D   P.,., 9.*.v a.,.,.,.,.,.,.,.,.,.,.,.,.,.,.,.,.:.f.,.,.,.,",
".,.,.,.,.,.,.,.,.,., 4.C.,.,.,.,.,.,.,.,.,.,.,.,.,.,.,.,.,.D   P.,.,.,.I   F.,.,.,.,.,.,.,.,.,.,.,.,.,.,.,.,.:.f.,.,.,.,",
".,.,.,.,.,.,.,.,.,., 4.C.,.,.,.,.,.,.,.,.,.,.,.,.,.,.,.,.,.D   P.,.,.,.I   F.,.,.,.,.,.,.,.,.,.,.,.,.,.,.,.,.A & w D.,.,",
".,.,.,.,.,.,.,.,.,., 4.C.,.,.,.,.,.,.,.,.,.,.,.,.,.,.,.,.,.1 g.2.,.,.,.I   F.,.,.,.,.,.,.,.,.,.,.,.,.,.,.,.,.,.M  .Y.,.,",
".,.,.,.,.,.,.,.,.,., 4.C.,.,.,.,.,.,.,.,.,.,.,.,.,.,.,.,., d.,.,.,.,.,.I   F.,.,.,.,.,.,.,.,.,.,.,.,.,.,.,.,.,.M  .Y.,.,",
".,.,.,.,.,.,.,., f r {.L.,.,.,.,.,.,.,.,.,.,.,.,.,.,.,.,., d.,.,.,.,.,.I   F.,.,.,.,.,.,.,.,.,.,.,.,.,.,.,.,.,.M  .Y.,.,",
".,.,.,.,.,.,.,.,.e   _.,.,.,.,.,.,.,.,.,.,.,.,.,.,.,.,.,., d.,.,.,.,.,.I   F.,.,.,.,.,.,.,.,.,.,.,.,.,.,.,.,.,.M  .Y.,.,",
".,.,.,.,.,.,.,.,.e   _.,.,.,.,.,.,.,.,.,.,.,.,.,.,.,.,.A { *.,.,.,.,.,.z 1 } !.,.,.,.,.,.,.,.,.,.,.,.,.,.,.,.,.M  .Y.,.,",
".,.,.,.,.,.,.,.,.e   _.,.,.,.,.,.,.,.,.,.,.,.,.,.,.,., {   i.,.,.,.,.,.,., z.>.,.,.,.,.,.,.,.,.,.,.,.,.,.,.,.,.M  .Y.,.,",
".,.,.,.,.,.,.,.,.e   _.,.,.,.,.,.,.,.,.,.,.,.,.,.,.,., {   i.,.,.,.,.,.,., z.>.,.,.,.,.,.,.,.,.,.,.,.,.,.,.,.,.M  .Y.,.,",
".,.,.,.,.,.,.,.,.e   _.,.,.,.,.,.,.,.,.,.,.,.,.,.,.,., {   i.,.,.,.,.,.,., z.>.,.,.,.,.,.,.,.,.,.,.,.,.,.,.,.,.M  .Y.,.,",
".,.,.,.,.,.,.,.,.e   _.,.,.,.,.,.,.,.,.,.,.,.,.,.,.,., {   i.,.,.,.,.,.,., z.>.,.,.,.,.,.,.,.,.,.,.,.,.,.,.,.,.M  .Y.,.,",
".,.,.,.,.,.,.,.,.e   _.,.,.,.,.,.,.,.,.,.,.,.,.,.,., I 1.,.,.,.,.,.,.,.,., z.>.,.,.,.,.,.,.,.,.,.,.,.,.,.,.,.,.M  .Y.,.,",
".,.,.,.,.,.,.,.,.e   _.,.,.,.,.,.,.,.,.,.,.,.,.,.,., I 1.,.,.,.,.,.,.,.,., z.>.,.,.,.,.,.,.,.,.,.,.,.,.,.,.,.,.M  .Y.,.,",
".,.,.,.,.,.,., y l.P *.,.,.,.,.,.,.,.,.,.,.,.,.,.,., I 1.,.,.,.,.,.,.,.,., z.>.,.,.,.,.,.,.,.,.,.,.,.,.,.,.,.,.M  .Y.,.,",
".,.,.,.,.,.,., 2.S.,.,.,.,.,.,.,.,.,.,.,.,.,.,.,.,., I 1.,.,.,.,.,.,.,.,., z.>.,.,.,.,.,.,.,.,.,.,.,.,.,.,.,.,.M  .Y.,.,",
".,.,.,.,.,.,., 2.S.,.,.,.,.,.,.,.,.,.,.,.,.,.,.,.,., I 1.,.,.,.,.,.,.,.,., # >.O x.,.,.,.,.,.,.,.,.,.,.,.,.,.,.M  .Y.,.,",
".,.,.,.,.,.,., 2.S.,.,.,.,.,.,.,.,.,.,.,.,.,.,., + z.D.d.,.,.,.,.,.,.,.,.,., .   A.,.,.,.,.,.,.,.,.,.,.,.,.,.,.M  .Y.,.,",
".,.,.,.,.,.,., 2.S.,.,.,.,.,.,.,.,.,.,.,.,.,.,., ]   s.,.,.,.,.,.,.,.,.,.,., .   A.,.,.,.,.,.,.,.,.,.,.,.,.,.,.M  .Y.,.,",
".,.,.,.,.,.,., 2.S.,.,.,.,.,.,.,.,.,.,.,.,.,.,., ]   s.,.,.,.,.,.,.,.,.,.,., .   A.,.,.,.,.,.,.,.,.,.,.,.,.,.,.M  .Y.,.,",
".,.,.,.,.,.,., 2.S.,.,.,.,.,.,.,.,.,.,.,.,.,.,., ]   s.,.,.,.,.,.,.,.,.,.,., .   A.,.,.,.,.,.,.,.,.,.,.,.,.,., a A 8 9.,",
".,.,.,.,.,.,., 2.S.,.,.,.,.,.,.,.,.,.,.,.,.,., . }.;.5.,.,.,.,.,.,.,.,.,.,., .   A.,.,.,.,.,.,.,.,.,.,.,.,.,.,.,.,.<.u.,",
".,.,.,.,.,.,., 2.S.,.,.,.,.,.,.,.,.,.,.,.,.,., J 2.,.,.,.,.,.,.,.,.,.,.,.,., .   A.,.,.,.,.,.,.,.,.,.,.,.,.,.,.,.,.<.u.,",
".,.,.,.,.,.,., 2.S.,.,.,.,.,.,.,.,.,.,.,.,.,., J 2.,.,.,.,.,.,.,.,.,.,.,.,., .   A.,.,.,.,.,.,.,.,.,.,.,.,.,.,.,.,.<.u.,",
".,.,.,.,.,.,., 2.S.,.,.,.,.,.,.,.,.,.,.,.,.,., J 2.,.,.,.,.,.,.,.,.,.,.,.,.,.N.* *.D.,.,.,.,.,.,.,.,.,.,.,.,.,.,.,.<.u.,",
".,.,.,.,., p.# > ^.,.,.,.,.,.,.,.,.,.,.,.,.,., J 2.,.,.,.,.,.,.,.,.,.,.,.,.,.,., m.;.,.,.,.,.,.,.,.,.,.,.,.,.,.,.,.<.u.,",
".,.,.,.,.,.9   ].,.,.,.,.,.,.,.,.,.,.,.,.,.,., J 2.,.,.,.,.,.,.,.,.,.,.,.,.,.,., m.;.,.,.,.,.,.,.,.,.,.,.,.,.,.,.,.<.u.,",
".,.,.,.,.,.9   ].,.,.,.,.,.,.,.,.,.,.,.,.,.x $.# ~.,.,.,.,.,.,.,.,.,.,.,.,.,.,., m.;.,.,.,.,.,.,.,.,.,.,.,.,.,.,.,.<.u.,",
".,.,.,.,.,.9   ].,.,.,.,.,.,.,.,.,.,.,.,., _   g.,.,.,.,.,.,.,.,.,.,.,.,.,.,.,., m.;.,.,.,.,.,.,.,.,.,.,.,.,.,.,.,.<.u.,",
".,.,.,.,.,.9   ].,.,.,.,.,.,.,.,.,.,.,.,., _   g.,.,.,.,.,.,.,.,.,.,.,.,.,.,.,., m.;.,.,.,.,.,.,.,.,.,.,.,.,.,.,.,.<.u.,",
".,.,.,.,.,.9   ].,.,.,.,.,.,.,.,.,.,.,.,., _   g.,.,.,.,.,.,.,.,.,.,.,.,.,.,.,., m.;.,.,.,.,.,.,.,.,.,.,.,.,.,.,.,.<.u.,",
".,.,.,.,.,.9   ].,.,.,.,.,.,.,.,.,.,.,.,., _   g.,.,.,.,.,.,.,.,.,.,.,.,.,.,.,., m.;.,.,.,.,.,.,.,.,.,.,.,.,.,.,.,.<.u.,",
".,.,.,.,.,.9   ].,.,.,.,.,.,.,.,.,.,.,.,., _   g.,.,.,.,.,.,.,.,.,.,.,.,.,.,.,., j @ G V.,.,.,.,.,.,.,.,.,.,.,.,.,.<.u.,",
".,.,.,.,.,.9   ].,.,.,.,.,.,.,.,.,.,.,., % >.+.7.,.,.,.,.,.,.,.,.,.,.,.,.,.,.,.,., o   Z.,.,.,.,.,.,.,.,.,.,.,.,.,.<.u.,",
".,.,.,., ^.- X.l.,.,.,.,.,.,.,.,.,.,.,., G 4.,.,.,.,.,.,.,.,.,.,.,.,.,.,.,.,.,.,., o   Z.,.,.,.,.,.,.,.,.,.,.,.,.,.<.u.,",
".,.,.,., 1.G.,.,.,.,.,.,.,.,.,.,.,.,.,., G 4.,.,.,.,.,.,.,.,.,.,.,.,.,.,.,.,.,.,., o   Z.,.,.,.,.,.,.,.,.,.,.,.,.,.<.u.,",
".,.,.,., 1.G.,.,.,.,.,.,.,.,.,.,.,.,.,., G 4.,.,.,.,.,.,.,.,.,.,.,.,.,.,.,.,.,.,., o   Z.,.,.,.,.,.,.,.,.,.,.,.y -.X '.,",
".,.,.,., 1.G.,.,.,.,.,.,.,.,.,.,.,.,.,., G 4.,.,.,.,.,.,.,.,.,.,.,.,.,.,.,.,.,.,., o   Z.,.,.,.,.,.,.,.,.,.,.,.M  .Y.,.,",
".,.,.,., 1.G.,.,.,.,.,.,.,.,.,.,.,., ( I.j.4.,.,.,.,.,.,.,.,.,.,.,.,.,.,.,.,.,.,.,.H.u . N.,.,.,.,.,.,.,.,.,.,.M  .Y.,.,",
".,.,.,., 1.G.,.,.,.,.,.,.,.,.,.,.,., )   l.,.,.,.,.,.,.,.,.,.,.,.,.,.,.,.,.,.,.,.,.,., B.*.,.,.,.,.,.,.,.,.,.,.M  .Y.,.,",
".,.,.,., 1.G.,.,.,.,.,.,.,.,.,.,.,., )   l.,.,.,.,.,.,.,.,.,.,.,.,.,.,.,.,.,.,.,.,.,., B.*.,.,.,.,.,.,.,.,.,.,.M  .Y.,.,",
".,.,.,., 1 Y.D.a.,.,.,.,.,.,.,.,., F -.w.e.,.,.,.,.,.,.,.,.,.,.,.,.,.,.,.,.,.,.,.,.,., B.*.,.,.,.,.,.,.,.,.,.,.M  .Y.,.,",
".,.,.,., T.....  , , , , , , ' A , K 7.,.,.,.,.,.,.,.,.,.,.,.,.,.,.,.,.,.,.,.,.,.,.,., B.*.,.,.,.,.e , , , , , 5  .Y.,.,",
".,.,.,.,.,.,.,.l.F.F.F.F.F t.K 3.F.F C.,.,.,.,.,.,.,.,.,.,.,.,.,.,.,.,.,.,.,.,.,.,.,., B G.0.0.0.0.:.F.F.F.F.F.F.F j.,.,"
};
