/* XPM */
static char *noname[] = {
/* width height ncolors chars_per_pixel */
"64 64 37 1",
/* colors */
"  c #000000",
". c #F8FCF8",
"X c #F8F8F8",
"o c #F0F0F0",
"O c #E8E8E8",
"+ c #E0E4E0",
"@ c #E0E0E0",
"# c #D8D8D8",
"$ c #D0D4D0",
"% c #D0D0D0",
"& c #C8C8C8",
"* c #C0C0C0",
"= c #B8B8B8",
"- c #B0B4B0",
"; c #B0B0B0",
": c #A8A8A8",
"> c #A0A0A0",
", c #989898",
"< c #909090",
"1 c #888C88",
"2 c #888888",
"3 c #808080",
"4 c #787C78",
"5 c #787878",
"6 c #707070",
"7 c #686868",
"8 c #606060",
"9 c #585858",
"0 c #505050",
"q c #484848",
"w c #383838",
"e c #303430",
"r c #303030",
"t c #282828",
"y c #202020",
"u c #181818",
"i c #101010",
/* pixels */
"............................................X..X......X.........",
"............................................XXXX................",
"..XX...XXX...XXX...XX....XXX...XXX...XXX...X..X..X......X.......",
".....................X..X....................XX....X.X....XXX...",
"...X...XXX...XXX...XX..X.XXX....XX...XX.............XX...Xo...X.",
"....XXX...XXX...XXX..X......XXX.XX...XXX.X.XXX...X...X..X...XX..",
"...X...XXX...XXX...XX.XX.XXX......XXX......X..X.X...X.....XXXX.X",
"...X...XXX...XXX...X.X......XXX.XX.XX....XX.....X.X...X.XX.o...X",
"....................X...X......X...X.XX.X.Xo.XXXXXo..XXXXXXoXX..",
"....XXX...XXX...X..X.X......X..X..X.....X..o.oXoooX.XX..XoX.XX..",
"....................X....X...........oXX......XXXXXoX..XXXXo...X",
"...X.X.X..XXX.XX.XX...X.X.XX..XX...X........XX.@XoXXoXXX+X.X..X.",
"..X..XXX.X...XXXXXXXXXX..X....X.X..X.......XXX.XoXXXoXXXO..XX..X",
"...X......XX.X.oXoXoX.XX..XXXXoX...X.X..XXXXXoXooo.XXoXX...oX.X.",
"..X...X.X...XX+-&$oX+oo.XXXXXXoXXOXXXXXXo&<3<%+X.XX..Xo.......X.",
"...X...X..XX$<9q008187,+X...XXoXoooo+&++2trewewX.....X.........X",
"......XX..X<909q90809908,449ruurrttrrewuurrtrrer7oX.XX..XXooXX.X",
"....XX.XX.o80070q9899*Ooo>trrutrretrtreu0999900qq$+&$&*=;;qi+...",
"..........Xq0qq098098+oX+8rrrrtrrteetrruq99q89980XO@X$@o++,i+.X.",
"..XX..Xo.Xo7ewteewqq0ooX;7tututttrtturti0900900eqo$o#@++O+ouO.X.",
"....X..X.o8-wqqwwqqqqooX-o0574340qq9887t0989990e@X+o$@@$O++uX...",
"...X..XXoqr+qqwwqwqqqoOX><,*$oo-7445545t999990qwXX+@@o@@+@@uX..X",
"....XX.X9uu4qqqqqqqw0$+-XoXooX152557,,$e889q00qqX@+O@o@+6Xo&....",
"......+0ttuu=&159qqqq->0986533:;Xo@@@@#e80899700o%@X=@,tu%@X..X.",
"..X.o.8uuttt0o#@+@->4<*1qqqqqw34o++O@++r098q89q9o@#@&-uuu,$oX.XX",
"..XX.ouuuutuuqXX@++XXXoXX+Xoo+XX@X++@#@+>wqqq8;+O@@=7uuiur>+X..o",
".....XuuuututuXO+O@+Oo+X+XO+@@@o@++++@@++@$+oo+++O@iiuiuutqoX..X",
".....XuuuuuutuX+o@$@o+O&+@O+@Oo@X$o+@O$@+@+O@+@@+@@iuuiuiruX...X",
"....X.oo@ttq$=ooooOO++++++O@@@+X@@+@@++oO@O@@+@@+@&uuuiwue#+XX.X",
"...X....Xyt5.X=.+++XO@@oo#oX@o+Xo+@+o@oX@X+O@O+@@$=u8e-*ut$oo...",
"..X.X...ouu7.X1X+Oo+O@ooooo+%##X+O+oo@XOo++@&@+@@@:u<w+&uu*XX...",
"...XX..X@uy5..qXO+o@o@+OX@oo++o+@++@+O@++@+@++Ooo$4u3;O$uu;X.X.X",
"X....XXX&ut1.X5XXX+X+%XXOoo++oo++XoX+oo+@@O@&++o+oqu3oX@uu1XX.X.",
"..XX.XXX&ut3XX7o.XXoX$Xoo+@X+o@o+o@@@@OX$Oo@#X$+@#tu9oo+uu4XX..X",
"......XX;tu<XX8;.@o+oOX@Oo@@++o+@X+Xo@XOo+o@%@$@&$uiuooouuqXX...",
"........3uy<..07.+OXo@XOX@@#o++OoXooo++++@@@@@@#+*u eXoouuqX....",
".......X3ut1..9u&oo@+X+XO+oOoXXoo++X+o@@Xoo@@Oo#$&ui,+.ouurX....",
"....XXX.5yt,X.qi5oOO++o@O+o+XOOOoooOo+o@Xo.@OX@o#7ui,..XuuuX....",
"...X..X.8uu;..9iw.o+o+oo++oXO++X+++++.ooooo@o+++@qui3.XXuuuX....",
".X......9uu>Xoqiio@++O+ooXooo+OoOX@+ooooOXooo+oo,uui4X..uuu.X.X.",
"....X.X.qtu*ooqii*.ooOoooo++@$++oX+@+XXoo@o@ooo#9wu 7XX.tuiXX.X.",
"......o.ruu=ooqui,.+oXo++@@ooXoO++++oo+$XXoo+@o&<quu7X..tuuXXX..",
"....XX..ruu&..qiiu.X+@Oo+oooo+X@@.oo++oo@++o+o+q,quu9X..tuuo....",
".....XoXuuu*..wi u@.OX+XoXo++OO++XO@+oo@+@o$+O&,<tuu9XX.wuu.....",
".X.XXXoouuu$..ei u<.+o+ooXoo+o+Xoo@XO+@@o+@++@3,0wuuq.X.ruu..XXX",
"....XXXouuu$.Xwi u4,+o+oo+oo+XOXoXO#@+oo+Xoo@0<9X0uuqX..quuX.X..",
"X....Xoouuu$XXei 0.-#.@X@.o+@@oooXooo++o+o++>e<.oquuwX..0tt@.X..",
"...X..XXuuu$XX<uio..7.++oXoX+o+Xo@oo@X+++@+@eoX.OquuwX..7uro..XX",
"..X...XXuuuooo......O=.oXoO+OOO+oO@O+@o@+o+9XXXX+0uuto.XX=&.....",
"....XoXouuu+XX....X..+9.OX+@++o+oX+++o++o&;X...ooquutX.XX...X...",
"..X...Xouuto..........O3ooo+OXXOooo+o+oO@5...X..oqtut...X.......",
"......XouuuXXX..XXX.X...77XX++o++o+X@+O84......X+ruuu..X.X..X...",
"..XX.X..wu8.....XX.X......&74++X@$oo=5,......X.Xoeuuu.X..X.X.XXX",
".......X$$X.......X..X.....X@0<;$;=97*......XX..owuut.X.....X...",
"..XX....X....XX.X...X....X...X.XXX..XoX......XX.oX<;+X.....X.X..",
"....X.X......X.X.X..X.X.XX.X..XX......X..Xo.XXX.XX.oXo..XX...X..",
"..........X..X....X....XX.....XXX...X.X...X...X.XX.XX..X...XX...",
"....X.X................X.X..XXX...........X.....XXXXX....X......",
"...X.X..XX.X.X.....XX.........X..........X........X....XX...X..X",
"....X.X..XX...XX......XX..........XXXX..X.............X...X....X",
"..X.XX..X....X.....XX...X...X.......X........X.XX......XX...XX..",
"....XX.X..X.X...XX.XXX...X..X..X.....X..XXX......XXX..X.XX.X....",
"...X.......X..X..X......X..X....XX.............XX......X......XX",
"..X.XX.X..X.XXo..X...X...X..XXX..X...X..XXX...X..XX...X.XX.X.XX."
};
