/* XPM */
static char *noname[] = {
/* width height ncolors chars_per_pixel */
"64 64 7 1",
/* colors */
"  c #000000",
". c #FEFEFE",
"X c #030303",
"o c #010101",
"O c #FFFFFF",
"+ c #FDFDFD",
"@ c #020202",
/* pixels */
"OOOOOOO.OOOOOOOO.OO.OO.   o               o  OO          o    O.",
"OOOOOo.OOO.OOOOOOOOO.OOO   o  o         oO.OO.O  OOO.OOO..O.OO  ",
"OOOOO.OOOOOOOOOO.OOOOOO.o   o            .OOOOOo O..OOOOOO.OOO.o",
"OOO.OOOOOOOOOOOOO.O..OO        o         .OOOOO @.OOOOOOO+O.OOOo",
"O.OOO .O  OOO+O.OOOOOO.O OO  @           O.OO.O  o+O..OO.OOOOOO ",
"OOO.. OO  OOOOOOO+.OOOOO OO o  o         O+OO+O  oOO.OOOOO.OOOO ",
".O.O O OOOOOO.OOOOO+OOOOO OOOOo.OOOOOOOOOOOO.OO o+OO.OOO.O.OOOO ",
"O.OO OOOOOOOOOOOOO.O.+O   OOOOO OOOOOOOOO.OOOOO  O.OOOOOOOOOOOO ",
"OOOo  OOOO.OOOOOOOOOO.O.OOOOOO.oO     o  .OO.OO  OOO.OOOOOOOOO. ",
"OO     OO+OOOOOO+OOOOOOO.OOOOOO. O.OO.OO @OOO+Oo +OOOOOOOO o O .",
".o    oOOOO.O OOO.OO OOOOOO  .OoOOOOOOOOOO @   O.O..OOOOO    O O",
"Oo o   OO.OOO .OO.OO OOOOOO  O. O+OOOOOOOOo    OO.OOOOO.. @  .o.",
"    o   OOO.OOOOOOOO...OOO.o  OOOOOO.OO.OOO.OOOO.OOO..OOo     @.",
"o  @  o OOOOO.OOO+O.OOOOO+OO.OO..O+.O+OOOOOOO+O.O.O.OO.  o  o  O",
"    o  o O..OO.OOOOOO.O..O.OO.OOOOOO.OO.O.O.+OOO.OOO+O   o  o  O",
" o    o  OOOOOO.OOO+OOOOOOOOOOOOOO.OOOO.OOOOOOOOOOOOOO  o  o oo.",
"       o O.OOOO.OOOOOOOOOOOOOOOOOOOOOOOOOOOOOOOOOOOOOo         O",
" o      oOOOOOOOOOOOOOOOOOOOOOOOOOOOOOOOOOOOOOOOO+OOO   o @  o O",
"  oo  o  .OOOO.OOOOOOOOOOOOOOOOOOOOOOOOOOOOOOOOO.OOOO  oo    @OO",
"O.O   .OOO.OOOOOOOOOOOOOOOOOOOOOOOOOOOOOOOOOOOOOOOO.O    o    .O",
".OO o O.O O.O.OOOOOOOOOOOOOOOOOOOOOOOOOOOOOOOOOO.O.OO  o  .   O.",
"OOO  o.O. .OO.OOOOOOOOOOOOOOOOOOOOOOOOOOOOOOOOOOOOO.O oOoO.   OO",
"O.O@  OOO OO+OO.OOOOOOOOOOOOOOOOOOOOOOOOOOOOOOOOOO.O.  O OO   O.",
"OO.   OOO .OO.OOOOOOOOOOOOOOOOOOOOOOOOOOOOOOOOOOOOO.Oo OoO+o o.O",
"OOO   OOOO..O.OOOOOOOOOOOOOOOOOOOOOOOOOOOOOOOOOOO.OOO o OOO   OO",
"OOO   OO.O OOOO.OOOOOOOOOOOOOOOOOOOOOOOOOOOOOOOO.O.O.@ oOOO   OO",
"OOO   OOOO OO+OOOOOOOOOOOOOOOOOOOOOOOOOOOOOOOOOOO.O.    OOO   OO",
"OOO   OOO+@.OOOOOOOOOOOOOOOOOOOOOOOOOOOOOOOOOOOO.O..ooo OOO   OO",
"OOO   OO.O .OO.OOOOOOOOOOOOOOOOOOOOOOOOOOOOOOOOOOOOO  o.OOO   OO",
"OOO   OOO. .OOOOOOOOOOOOOOOOOOOOOOOOOOOOOOOOOOOOO.OO o OOOO   OO",
"OOO   OOO o .O+OOOOOOOOOOOOOOOOOOOOOOOOOOOOOOOOO.O.Oo  OOOO   OO",
"OOO   OOOo  O.O.OOOOOOOOOOOOOOOOOOOOOOOOOOOOOOOOO+O    OOOO   OO",
"OO    OOO   OOOOOOOOOOOOOOOOOOOOOOOOOOOOOOOOOOOO.OOo   OOOO   OO",
"OO    OO.o oO.OOOOOOOOOOOOOOOOOOOOOOOOOOOOOOOOOOO.O oo OO.O   OO",
"OO    OOO   OO.OOOOOOOOOOOOOOOOOOOOOOOOOOOOOOOOOOOOo   O.OOo  OO",
"OO    OOO    OOOOOOOOOOOOOOOOOOOOOOOOOOOOOOOOOOOO.Oo o .OOO oo .",
"OO    OOO o  .O.OOOOOOOOOOOOOOOOOOOOOOOOOOOOOOOOOO     OOOO    O",
"OO    OOO    OOOOOOOOOOOOOOOOOOOOOOOOOOOOOOOOOOOOO    o.O..o oo.",
"OO    OO.o   OOOOOOOOOOOOOOOOOOOOOOOOOOOOOOOOOOO. Oo   O.OO  o O",
"OO    OOO  o  OOOOOOOOOOOOOOOOOOOOOOOOOOOOOOOOOOO O    OOO.o  o.",
"OO    OOOo o  OO.OOOOOOOOOOOOOOOOOOOOOOOOOOOO.OOO Ooo oOO.O oo O",
"OO    OOO o   OOOO.OOOOOOOOOOOOOOOOOOOOOO.OOOOO. OO  o ..OOO   O",
"OO    OOO@     +.OO.O.OOOOOOOOOOOOOOOOOOOOOOOOOO +O o  OO.+.o  O",
"OO    OOO o oo O.OOOOO.OOOOOOOOOOOOOOOOOOOOO.OO O.O  o OO.OO  o+",
"OO    OO. o   O.OOOOOOOOOOOOOOOOOOOOOOOOO.OOOOOO.OO @  ..O.O  oO",
"OO    OOO   o O .OOOO.+OOOOOOOOOOOOOOOOOOOO.O. OO.    oOOOOO   O",
"OO    OOO  o  O OOO.OOO.OOOOOOOOOOOOOOOOOOO.OO OOO     OOOOOoo O",
"OO    OOOo    .O OOOO.OOOOOOOOOOOOOOOOOOOO.OO OOO O o oOOOO. o O",
"OO    OOO     OOOO.OOOOOOOOOOOOOOOOOO.OOOOOOO .O O.o   OOOOO  oO",
"O.o o OOO  o @.OO OOO.O.OOOOOOOOOO..OO.OO.O. .O OOO   @.OOO+ o O",
"OO    .OOO o .OOOO OOOOOOOOOOOOO.OOOOO.O.O.oO .O.OOoo  OOOO.oo O",
"OO  @ OOOOOOO+OOOOO OOOOOOOOOOOOOOOO..OOOOO O+OOOOO   oOO.OO   O",
"OOoo  OOO.OOOOOOOOO OOO.OOOOOOOO.O..O.OO.O+o.OOOOOO  o OOOO. o O",
"O+o  XOO.OOO.OO+OO.O .OOOOOOOOOOO.OOOOO.OoOO.O+O.O. o  OOOOOOOOO",
"OO oo OOOO.OO.OOOOOOOo .OOOOOOOO.O.OOOOO OO.OOO.OO+o   OOOO+O.OO",
"O     OOOOOOOOOOOOOOO.O OOOOOOOOOOO.OO  OOOOOO.OOOO    OOO.O.OO.",
"O   o OOOOOOOOOOOOOOOOOOO  OOOOOOOOO  OOOOOOOOOOO.O    OOOOOOOOO",
"Ooo   OOOOOOOOOOOOOOOOOO..OO      o OO.OOOOOOOOO.OO o  OOOOOOOOO",
".  oo O.OOOOOOOOOOOOOOOOOOOO o    oo..OOOOOOOOOOOO.    OOOOOOOOO",
"OO o O.OOOOOOOOOOOOOOOOO.OO.OO.OO..O.O+.OOOOOOOOO.O oo .OOOOOOOO",
".OO OOOOOOOOOOOOOOOOOOOOOOO.OOO.OOOOOOOOOOOOOOOOO..   oOOOOOOOOO",
"O.OO+O.OOOOOOOOOOOOOOOOOO..OO.OOOOO.O.OOOOOOOOOOO.O o  OOOOOOOOO",
"O.O.OOOOOOOOOOOOOOOOOOOOOOO.OOOOOOOOOOO.OOOOOOOOO.OO. OOOOOOOOOO",
".O.O..OOOOOOOOOOOOOOOOOOOOOOOOOOOOO.OO.OOOOOOOOOOO.OO OOOOOOOOOO"
};
