/* XPM */
static char *bus-r[] = {
/* width height ncolors chars_per_pixel */
"64 31 207 2",
/* colors */
"   c #000000",
" . c #B1B1B1",
" X c #AFAFAF",
" o c #ADADAD",
" O c #ABABAB",
" + c #A9A9A9",
" @ c #A7A7A7",
" # c #A5A5A5",
" $ c #A3A3A3",
" % c #A1A1A1",
" & c #9D9D9D",
" * c #9B9B9B",
" = c #999999",
" - c #959595",
" ; c #939393",
" : c #919191",
" > c #8F8F8F",
" , c #8D8D8D",
" < c #8B8B8B",
" 1 c #898989",
" 2 c #878787",
" 3 c #838383",
" 4 c #818181",
" 5 c #7F7F7F",
" 6 c #7D7D7D",
" 7 c #7B7B7B",
" 8 c #797979",
" 9 c #777777",
" 0 c #757575",
" q c #737373",
" w c #717171",
" e c #6F6F6F",
" r c #6B6B6B",
" t c #676767",
" y c #656565",
" u c #636363",
" i c #616161",
" p c #5F5F5F",
" a c #5D5D5D",
" s c #5B5B5B",
" d c #595959",
" f c #575757",
" g c #555555",
" h c #535353",
" j c #515151",
" k c #4D4D4D",
" l c #FEFEFE",
" z c #4B4B4B",
" x c #FCFCFC",
" c c #FAFAFA",
" v c #474747",
" b c #F8F8F8",
" n c #454545",
" m c #F6F6F6",
" M c #434343",
" N c #F4F4F4",
" B c #414141",
" V c #F2F2F2",
" C c #F0F0F0",
" Z c #3D3D3D",
" A c #EEEEEE",
" S c #ECECEC",
" D c #393939",
" F c #EAEAEA",
" G c #373737",
" H c #E8E8E8",
" J c #E6E6E6",
" K c #333333",
" L c #E4E4E4",
" P c #E2E2E2",
" I c #2F2F2F",
" U c #E0E0E0",
" Y c #2D2D2D",
" T c #DEDEDE",
" R c #2B2B2B",
" E c #292929",
" W c #DADADA",
" Q c #272727",
" ! c #D8D8D8",
" ~ c #D6D6D6",
" ^ c #D4D4D4",
" / c #D2D2D2",
" ( c #D0D0D0",
" ) c #CECECE",
" _ c #1B1B1B",
" ` c #CCCCCC",
" ' c #191919",
" ] c #CACACA",
" [ c #151515",
" { c #C6C6C6",
" } c #C2C2C2",
" | c #0F0F0F",
".  c #C0C0C0",
".. c #BEBEBE",
".X c #0B0B0B",
".o c #BCBCBC",
".O c #090909",
".+ c #BABABA",
".@ c #070707",
".# c #B8B8B8",
".$ c #050505",
".% c #B6B6B6",
".& c #030303",
".* c #B4B4B4",
".= c #B2B2B2",
".- c #B0B0B0",
".; c #AEAEAE",
".: c #ACACAC",
".> c #AAAAAA",
"., c #A8A8A8",
".< c #A6A6A6",
".1 c #A4A4A4",
".2 c #A2A2A2",
".3 c #A0A0A0",
".4 c #9E9E9E",
".5 c #9C9C9C",
".6 c #989898",
".7 c #969696",
".8 c #949494",
".9 c #8E8E8E",
".0 c #8C8C8C",
".q c #8A8A8A",
".w c #888888",
".e c #868686",
".r c #848484",
".t c #808080",
".y c #7E7E7E",
".u c #7C7C7C",
".i c #787878",
".p c #767676",
".a c #747474",
".s c #6E6E6E",
".d c #6C6C6C",
".f c #6A6A6A",
".g c #666666",
".h c #646464",
".j c #606060",
".k c #5C5C5C",
".l c #585858",
".z c #565656",
".x c #545454",
".c c #525252",
".v c #505050",
".b c #4E4E4E",
".n c #FFFFFF",
".m c #4C4C4C",
".M c #FDFDFD",
".N c #4A4A4A",
".B c #FBFBFB",
".V c #F9F9F9",
".C c #464646",
".Z c #F7F7F7",
".A c #444444",
".S c #F5F5F5",
".D c #424242",
".F c #F3F3F3",
".G c #404040",
".H c #F1F1F1",
".J c #3E3E3E",
".K c #EFEFEF",
".L c #3C3C3C",
".P c #EDEDED",
".I c #3A3A3A",
".U c #EBEBEB",
".Y c #383838",
".T c #E9E9E9",
".R c #E7E7E7",
".E c #343434",
".W c #323232",
".Q c #E3E3E3",
".! c #E1E1E1",
".~ c #2E2E2E",
".^ c #DFDFDF",
"./ c #2C2C2C",
".( c #2A2A2A",
".) c #DBDBDB",
"._ c #282828",
".` c #D9D9D9",
".' c #262626",
".] c #D7D7D7",
".[ c #D5D5D5",
".{ c #D3D3D3",
".} c #D1D1D1",
".| c #1E1E1E",
"X  c #CFCFCF",
"X. c #1C1C1C",
"XX c #CDCDCD",
"Xo c #CBCBCB",
"XO c #181818",
"X+ c #C9C9C9",
"X@ c #161616",
"X# c #C7C7C7",
"X$ c #141414",
"X% c #C5C5C5",
"X& c #C3C3C3",
"X* c #101010",
"X= c #C1C1C1",
"X- c #BFBFBF",
"X; c #0C0C0C",
"X: c #0A0A0A",
"X> c #BBBBBB",
"X, c #B9B9B9",
"X< c #060606",
"X1 c #B7B7B7",
"X2 c #040404",
"X3 c #B5B5B5",
"X4 c #020202",
/* pixels */
".n.n.n.n.n.n.n.n.n.n.n.n.n.n.n.n.n.n.n.n.n.n.n.n.n.n.n.n.n.n.n.n.n.n.n.n.n.F.<.<.<.<.<.<.<.<.<.<.<.<.<.<.<.<.<.<.<.<.<.<. .n.n.n",
".n.n.n.n.n.n.n.n.n.n.n.n.n.n.n.n.n.n.n.n.n.n.n.n m N N N N NX& d d d d d d y . . . . . . . . . . . ..5.$.X.X.X.X.X.X.XX2X@...n.n",
".n.n.n.n.n.n.n.n.n.n.n.n.n.n.n.n.n W.5.5.5.5.5.5.d u u u u u.8.n.n.n.n.n.n.n.n.n.n.n.n.n.n.n.n.n.n.`.W #.n.n.n.n.n.n.n $X<.2.n.n",
".n.n.n.n.n.n.n x F F F t d d d d d.y.o.o.o.o.o.o.S.n.n.n.n.n.n.n.n.n.n.n.n.n.n.n.n.n.n.n.n.n.n.n b EX$.n.n.n.n.n.n.n.n.n |.2.n.n",
".n.n.n.n.n.H : <.s.s.s.H.n.n.n.n.n.n.n.n.n.n.n.n.n.n.n.n.n.n.n.n.n.n.n.n.n.n.n.n.n.n.n.n.n.n.n.n.S  .k.n.n.n.nX# : : : :.O.2.n.n",
".n.n.n.R # t {X .n.n.n.n.n.n.n.n.n.n.n.n.n.n.n.n.n.n.n.n.n.n.n.n.n H.^.^.^.^.^.^.^.^.^.o d d d d.DX$.7 D D D D w.<.<.<.<.p , l.n",
".n.n (.u.=.n.n.n.n.n.n.n.n.n.n 1 2 2 2 2 2 2 2 2 2 2 2 2 2 2 2 2 2.u.i.i.i.i.i.i.i.i.i *.n.n.n.n d &.l.i.i.i.i.i.i.i.i.i.z   c.n",
".n m./ k d.x.~.~.~.~.~ g d d dX .}.}.}.} `.<.<.<.<.<.<.<.=.} >X..( z d d d d d j.5.n.n.`.K V.[.[.m &X>.n.n.n.n.n.n.n.n.n } |.^.n",
".n N u.n.n.^.J 3 3 3.I J.n.n.n ^.u o.n.n.5 3 3 3 3 3 3 3.v.n.; +.n.n.n.n.n.n.n /.e.nX3.X *.= g.zX: &X>.n.n.n.n.n.n.n.n.n.n a.x.n",
".n e.T.n.n.d S.n.n.n.U.d.nX-.C ' > p.n.T e.n.n.n.n.n.n U 9.n y.F.n.n.n.n.n.n.n.f A.n e > *.= # @X: &X>.n.n.n.n.n.n.n.n.n.n a.x.n",
".n d.n.n } -.n.n.n.n . @.nX3 $X2.< p.n - }.n.n.n.n.n.n r.P.n d.n.n.n.n.n.n.n.n d.n.n e.< *.= # @X: &X>.n.n.n.n.n.n.n.n.n.n a.x.n",
".n d.n c.w ^.n.n.n V 8 S.nX3 $X2.< p.n - }.n.n.n.n.n.n r.P.].t.n.n.n.n.n.n.n U 9.n.n e.< *.= # @X: &X>.n.n.n.n.n.n.n.n.n.n a.x.n",
".n d.n F.s.n.n.n.n ] ,.n.nX3 $X2.< p.S 7.R.n.n.n.n.n.) 3 b.j.Z.n.n.n.n.n.n.n.r ^.n.n e.< *.= # @X: &X>.n.n.n.n.n.n.n.n.n.n a.x.n",
".n d.n l.- d d d d.z.;.n.nX3 $X2.< p.F.pX3X3X3X3X3X3 <.8.n.9.=X3X3X3X3X3X3 +.2.M.n.n e.< *.= # @X: &X>.n.n.n.n.n.n.n.n.n.n a.2 .",
".n d.n.n.n.n.n.n.n.n.n.n.nX3 $X2.< p.n.` $ $ $ $ $ $ $ !.n.n.< $ $ $ $ $ $ X.n.n.n.n e.< *.= # @X: &.v.n.n.n.n.n.n.n.n.n.n a.<.:",
".n d.n.n.n.n.n.n.n.n.n.n.nX3.&.x.| p }.>.>.>.>.>.>.>.>.>.>.> s d d d d d d d d d d F e.< *.= # @X:.M f.n.n.n.H.>.>.>.>.> ;.z.,.:",
".n.c d d d d d d d d d.K.n.R o lX# `.m.@.@.@.@.@.@.@.8.<.<.< m b.B.n.n 3 d d.< b b l q Z.4.*.L ZX;.n.v d d d t o o o o oX%.n O.:",
".n d.n.n.n.n.n.n.n.n.n.n.n.n.n.n.n.n.n.n.n.n.n.n.n.n w p p p p p.6.n.n.n.n.n.= p p F.n.n.n.n.n.n d.n.n.n.n.n.n.n S.3X1.n L.3.>.:",
".n d.n.n.n.n.n.n.n.n.n.n.n ].c v h.0.n.n.n.n.n.n.n.n.n.n.n.n.n.n.n.n.n.n.n.n.n.n.n.n.S iX1X# h.e d.n.n b C.n ~.v.d.# % d.E   r H",
".n d.n.n.n.nXX -Xo.n.n.n.nX3 $X2.< p.n.n.n.n.n.n.n.n.n.n.n.n.n.n.n.n.n.n.n.n.n.n.n.n e.< *.= # d d.n.Z 3 G.n.G.%.n.n.n.n |  .x.n",
".n d.n.n.n.[ Y.1.0 u.F.n.nX3 $X2.< p.n.n.n.n.n.n.n.n.n.n.n.n.n.n.n.n.n x.Q.Q.Q c.n.n e.< *.= # d d.n.U i.c.n d.n.n.n.n.n v } f.n",
".n d.n.n.n v.%.3X# e ,.n.nX3 dX4.< p.n.n.n.n.n.n.n.n.n.n.n.n.n.n.n.n.n * K.a.L.w.n.n e.< *.= # d d.n N M.f.n d.n.n.n.n.n G <.z.n",
".n.f d d d.E.P.~./ o ,.n.n. .' ; v 9.n.n.n.n.n.n.n.n.n.n.n.n.n.n.n.n o D.Q.!.{.=.q c e.< *.= # d d.n.n F N.P z.`.` 6 g d dXX.l.n",
".n.n.n.n.n d 2 6.u.< v.t.t.t.t.t 3.n.n.n.n.n.n.n.n.n.n.n.n.n.n.n.n.n =X-X# _ 7 H.L T e.< *.= # d d.n.2.t.t.tXO B 5 5 V.n.n.n d.n",
".n.n.n.n.n d.4 n.h.<.i [ 4 ! ! %.W d d d d d j Q Q 4 ) ) ) ) ).K.n N RXo.9.8./ W 8 T.q z.;X= z.i.c d.% ! ! F.^ S.n.n.{ ).: d 0.n",
".n.n.n.n.n v.%.w v.j B.X.6.n.n.n.n.n.n.n.n.n.P.q.q.q.q.q.q.qX2.b 0 e.g.n.9X+.r ^ 8 T.n.n.n.n.n.n d.n.n.n.n.n.nX, 0 0.w.q.:.n.n.n",
".n.n.n.n.n ^ Y.3.j.'.N.Y.F.n.n.n.n.n.n.n.n.n.n.n.n.n.n.n.n.n.Q P P ~.g.n.9X= y ^ 8.' d 0X&X&X&X&.AX&X> d d d._ 4 P P x.n.n.n.n.n",
".n.n.n.n.n.nXX.8.8.8.8 X.n.n.n.n.n.n.n.n.n.n.n.n.n.n.n.n.n.n.n.n.n.V.r W.9.C v.{ K.Y.n.Q.8.8.8.8.8.8 :.>.n.+./ ].n.n.n.n.n.n.n.n",
".n.n.n.n.n.n.n.n.n.n.n.n.n.n.n.n.n.n.n.n.n.n.n.n.n.n.n.n.n.n.n.n.n.nX3 I (.P m.1   y.n.n.n.n.n.n.n.n C.b d.v.}.n.n.n.n.n.n.n.n.n",
".n.n.n.n.n.n.n.n.n.n.n.n.n.n.n.n.n.n.n.n.n.n.n.n.n.n.n.n.n.n.n.n.n.n.n.,.(.j.jX* h.F.n.n.n.n.n.n.n.n.n.n.n.n.n.n.n.n.n.n.n.n.n.n",
".n.n.n.n.n.n.n.n.n.n.n.n.n.n.n.n.n.n.n.n.n.n.n.n.n.n.n.n.n.n.n.n.n.n.n.R        .e.n.n.n.n.n.n.n.n.n.n.n.n.n.n.n.n.n.n.n.n.n.n.n"
};
