/* XPM */
static char *bus-r[] = {
/* width height ncolors chars_per_pixel */
"64 31 216 2",
/* colors */
"   c #000000",
" . c #B1B1B1",
" X c #AFAFAF",
" o c #ADADAD",
" O c #ABABAB",
" + c #A9A9A9",
" @ c #A7A7A7",
" # c #A5A5A5",
" $ c #A3A3A3",
" % c #A1A1A1",
" & c #9F9F9F",
" * c #9D9D9D",
" = c #9B9B9B",
" - c #979797",
" ; c #959595",
" : c #939393",
" > c #919191",
" , c #8F8F8F",
" < c #8D8D8D",
" 1 c #8B8B8B",
" 2 c #878787",
" 3 c #858585",
" 4 c #838383",
" 5 c #818181",
" 6 c #7F7F7F",
" 7 c #7D7D7D",
" 8 c #7B7B7B",
" 9 c #797979",
" 0 c #777777",
" q c #757575",
" w c #737373",
" e c #717171",
" r c #6F6F6F",
" t c #6D6D6D",
" y c #696969",
" u c #676767",
" i c #656565",
" p c #636363",
" a c #616161",
" s c #5F5F5F",
" d c #5B5B5B",
" f c #595959",
" g c #575757",
" h c #555555",
" j c #535353",
" k c #515151",
" l c #4F4F4F",
" z c #4D4D4D",
" x c #FEFEFE",
" c c #4B4B4B",
" v c #FCFCFC",
" b c #494949",
" n c #FAFAFA",
" m c #474747",
" M c #F8F8F8",
" N c #454545",
" B c #F6F6F6",
" V c #434343",
" C c #F4F4F4",
" Z c #414141",
" A c #F2F2F2",
" S c #3F3F3F",
" D c #F0F0F0",
" F c #3D3D3D",
" G c #EEEEEE",
" H c #3B3B3B",
" J c #EAEAEA",
" K c #E8E8E8",
" L c #353535",
" P c #E6E6E6",
" I c #E4E4E4",
" U c #E2E2E2",
" Y c #2F2F2F",
" T c #E0E0E0",
" R c #2D2D2D",
" E c #2B2B2B",
" W c #DCDCDC",
" Q c #292929",
" ! c #DADADA",
" ~ c #272727",
" ^ c #D8D8D8",
" / c #252525",
" ( c #D6D6D6",
" ) c #D4D4D4",
" _ c #D2D2D2",
" ` c #1F1F1F",
" ' c #D0D0D0",
" ] c #1D1D1D",
" [ c #CECECE",
" { c #1B1B1B",
" } c #CCCCCC",
" | c #191919",
".  c #CACACA",
".. c #C8C8C8",
".X c #151515",
".o c #C6C6C6",
".O c #131313",
".+ c #111111",
".@ c #C2C2C2",
".# c #C0C0C0",
".$ c #BEBEBE",
".% c #0B0B0B",
".& c #BCBCBC",
".* c #090909",
".= c #BABABA",
".- c #070707",
".; c #B8B8B8",
".: c #B6B6B6",
".> c #030303",
"., c #B2B2B2",
".< c #B0B0B0",
".1 c #AEAEAE",
".2 c #ACACAC",
".3 c #AAAAAA",
".4 c #A8A8A8",
".5 c #A6A6A6",
".6 c #A4A4A4",
".7 c #A2A2A2",
".8 c #A0A0A0",
".9 c #9E9E9E",
".0 c #9C9C9C",
".q c #9A9A9A",
".w c #989898",
".e c #969696",
".r c #949494",
".t c #929292",
".y c #909090",
".u c #8E8E8E",
".i c #8C8C8C",
".p c #8A8A8A",
".a c #888888",
".s c #868686",
".d c #848484",
".f c #828282",
".g c #808080",
".h c #7E7E7E",
".j c #7C7C7C",
".k c #7A7A7A",
".l c #787878",
".z c #727272",
".x c #707070",
".c c #6E6E6E",
".v c #6C6C6C",
".b c #6A6A6A",
".n c #686868",
".m c #666666",
".M c #646464",
".N c #626262",
".B c #606060",
".V c #5E5E5E",
".C c #5C5C5C",
".Z c #5A5A5A",
".A c #585858",
".S c #545454",
".D c #525252",
".F c #505050",
".G c #4E4E4E",
".H c #FFFFFF",
".J c #4C4C4C",
".K c #FDFDFD",
".L c #4A4A4A",
".P c #FBFBFB",
".I c #484848",
".U c #F9F9F9",
".Y c #464646",
".T c #F7F7F7",
".R c #444444",
".E c #F5F5F5",
".W c #424242",
".Q c #F3F3F3",
".! c #404040",
".~ c #F1F1F1",
".^ c #3E3E3E",
"./ c #EFEFEF",
".( c #EDEDED",
".) c #EBEBEB",
"._ c #E9E9E9",
".` c #363636",
".' c #E7E7E7",
".] c #343434",
".[ c #E3E3E3",
".{ c #303030",
".} c #E1E1E1",
".| c #DFDFDF",
"X  c #2C2C2C",
"X. c #DDDDDD",
"XX c #2A2A2A",
"Xo c #DBDBDB",
"XO c #D9D9D9",
"X+ c #D7D7D7",
"X@ c #242424",
"X# c #D5D5D5",
"X$ c #D3D3D3",
"X% c #202020",
"X& c #D1D1D1",
"X* c #1E1E1E",
"X= c #CFCFCF",
"X- c #CDCDCD",
"X; c #CBCBCB",
"X: c #C9C9C9",
"X> c #141414",
"X, c #C5C5C5",
"X< c #121212",
"X1 c #C3C3C3",
"X2 c #101010",
"X3 c #C1C1C1",
"X4 c #0E0E0E",
"X5 c #BFBFBF",
"X6 c #0A0A0A",
"X7 c #BBBBBB",
"X8 c #080808",
"X9 c #B9B9B9",
"X0 c #B7B7B7",
"Xq c #B5B5B5",
"Xw c #020202",
"Xe c #B3B3B3",
/* pixels */
".H.H.H.H.H.H.H.H.H.H.H.H.H.H.H.H.H.H.H.H.H.H.H.H.H.H.H.H.H.H.o.2.2.2.2.2.2 : j j j j j j j j j j j j jX2                  .j.H.H",
".H.H.H.H.H.H.H.H.H.H.H.H.H.H.H.H.H.H.H.H.H.H.HX9 f f f f f f.u.5.5.5.5.5.5X5.H.H.H.H.H.H.H.H.H.H.H.H X ~.5.5.5.5.5.5.5.9  X8.H.H",
".H.H.H.H.H.H.H.H.H.HX9 . . . . ..7 j j j j j j.q n n n n n n.K.H.H.H.H.H.H.H.H.H.H.H.H.H.H.H.H.H.H.6.>X;.H.H.H.H.H.H.H.H.0X8.H.H",
".H.H.H.H.H.H ).V.V.V.q % % % % %.<.H.H.H.H.H.H.H.H.H.H.H.H.H.H.H.H.H.H.H.H.H.H.H.H.H.H.H.H.H.H.H.HX    [.H.H.H.H.H.H.H.H &X8.H.H",
".H.H.HX&.q j.h C C C x.H.H.H.H.H.H.H.H.H.H.H.H.H.H.H.H.H.H.H.H.H.H.H.H.H.H.H.H.H.H.H.H./.:.:.:.:.: ` q.@.:.:.: o j j j j l ].H.H",
".H.H.m 2.;.H.H.H.H.H.H.H.H.H.H.H.H.H.H.H.H.H.H.H.H.H.H.H.H.H.H.H.H.M p p p p p p p p p r.0.0.0.0.G y.{.O      .* p p p p pX% =.H",
"._.J +.:.&.&.&.&.&.&.&.&.&.&.N j j j j j j j j j j j j j j j /X2X2 O.2.2.2.2.2.2X$././ A.H.H.H.H 6.2 w././././././././././ m d.H",
".2 p - -.v           2 - - - D.H.H.H.H.H 2.n.n.n.n.n.n.nX$.H.D - - - - - - - -.x ;.H.H 9.=.}.n.n.].2 8.H.H.H.H.H.H.H.H.H.H . /X=",
".e.&.H.H.9 @ J J J.aX3.H AX3.7.] N.H.H.t.$ J J J J J J.yXq._.b.H.H.H.H.H.H.H.H $ X.H 8X  1X-.kX3  .2 8.H.H.H.H.H.H.H.H.H.H.T  .1",
" j.H.H.H j.H.H.H.H.H j.H } z.X 5 j.H.).h K.H.H.H.H.H.T 8.| $.<.H.H.H.H.H.H.H.H j.H.H r.2 1X- 3 _  .2 8.H.H.H.H.H.H.H.H.H.H.T  .1",
" j.H.H.c I.H.H.H.H 7 (.H } 2 / 5 j.HXo 0.H.H.H.H.H.H.~.N.H $.<.H.H.H.H.H.H.H.H j.H.H r.2 1X- 3 _  .2 8.H.H.H.H.H.H.H.H.H.H.T  .1",
" j.H ) 4 n.H.H.HX. 5.Q.H } 2 / 5 j.HXo 0.H.H.H.H.H.H.~.N n.jXo.H.H.H.H.H.H.H.3.4.H.H r.2 1X- 3 _  .2 8.H.H.H.H.H.H.H.H.H.H.T  .1",
" j.HX3.r } } } }.q >.H.H } 2 / 5 j.H.M G.H.H.H.H.H.H u.) B.C.H.H.H.H.H.H.H.~ r.~.H.H r.2 1X- 3 _  .2 8.H.H.H.H.H.H.H.H.H.H.TX<.0",
" j.H.HXe 2 2 2 2 2X;.H.H } 2 / 5 j.H =.l.l.l.l.l.l.l Y.H.P.f.l.l.l.l.l.l.l.j '.H.H.H r.2 1X- 3 _  .2 8.H.H.H.H.H.H.H.H.H.H.T d k",
" j.H.H.H.H.H.H.H.H.H.H.H }.cX*.b.J.H n ! ! ! ! ! ! ! W.H.H.}.2.2.2.2.2.2.2.:X&X&X&.P r.2 1X- 3 _  XeXXX#.H.H.H.H.H.H.H.H.H ^ d k",
" j.H.H.H.H.H.H.H.H.H.H.H }  .c.! Q.#.h.h.h.h.h.h.h.h.h.h.h 6 5 5 5 5 5 5 5 5 5 5 5 C r.2 1X- 3 _  X$.d [.H.H.H.0.h.h.h.h.h.g.1 k",
" { j j j j j j j j j.(.H.TX#.U J W - Q Q Q Q Q Q Q.V.2.2.2X7 ( (.~.H.H.A j j.7 ( (.P.s N *X# S.JX>X$.w c j j jX0X#X#X#X#X#.Q.H k",
" j.H.H.H.H.H.H.H.H.H.H.H.H.H.H.H.H.H.H.H.H.H.H.H.H. .j.j.j.j.j.j ).H.H.H.H.H.<.j.j.Q.H.H.H.H.H.H 6X$.H.H.H.H.H.H.H $ 4X..H.4 X k",
" j.H.H.H.H.H.H.H.H.H.H.HX#.W L.W g.H.H.H.H.H.H.H.H.H.H.H.H.H.H.H.H.H.H.H.H.H.H.H.H.H.).Z.8 (.W.Z 6X$.H nXo.T./ d j XX= q.YX4.+ *",
" j.H.H.H.H.:.a [.H.H.H.H } 2 / 5 j.H.H.H.H.H.H.H.H.H.H.H.H.H.H.H.H.H.H.H.H.H.H.H.H.H r.2 1X- 3 j 6X$.H *.!X: ,.n.H.H.H.H &    .1",
" j.H.H.H . ~X5.d a A.H.H } 2 / 5 j.H.H.H.H.H.H.H.H.H.H.H.H.H.H.H.H.H.H B.}.}.}.K.H.H r.2 1X- 3 j 6X$.H l 9X: ,X1.H.H.H.H &.u.f.1",
" j.H.H.H E...r '.N >.H.H }.LX> 5 j.H.H.H.H.H.H.H.H.H.H.H.H.H.H.H.H.H.H.m m.z R %.H.H r.2 1X- 3 j 6X$.H.h.].} ,X1.H.H.H.H & p d.1",
"X  j j j.J D.XX  . >.H.HX& | <.`.I.H.H.H.H.H.H.H.H.H.H.H.H.H.H.H.H.H 6 z._.' _ % &.K r.2 1X- 3 j 6X$.H.T T v 5.< P !.R j F.t 6.1",
".H.H.H.H j p.i.n.2.S : : : : : :.(.H.H.H.H.H.H.H.H.H.H.H.H.H.H.H.H.H.Z MX7.-.qXO R K r.2 1X- 3 j 6X$X; : : , FX6.v.v @.H.H.H.6.1",
".H.H.H.H j r.b.B.2 tX> yX5X5.8X> b j j j j j.R.! z.).).).).).).H.H.@X@.U s.s Y A.b K.k.^.rX& L m 6 N 2X5X5.o.[X,.H.H.T.).).g FXq",
".H.H.H.H.`X+ h F r gX2.i.H.H.H.H.H.H.H.H.H.H.p u u u u u u.WXw.w.w u #.H s.Q i G.b K.H.H.H.H.H.H 6X$.H.H.H.H.H.E.w.w.d u u _.H.H",
".H.H.H.H.i.{ ) r.{.L Q T.H.H.H.H.H.H.H.H.H.H.H.H.H.H.H.H.H P.=.=.=.h #.H s./ s G.b.W j q.~.~.~.~.l...~ e j j z.F.=.=X#.H.H.H.H.H",
".H.H.H.H.H &.N.N.N.N 3.H.H.H.H.H.H.H.H.H.H.H.H.H.H.H.H.H.H.H.H.H.HX-.a v s.b HXo Z F.HX..N.N.N.N.N.N.N &.H C.A.Z.H.H.H.H.H.H.H.H",
".H.H.H.H.H.H.H.H.H.H.H.H.H.H.H.H.H.H.H.H.H.H.H.H.H.H.H.H.H.H.H.H.H.H.B.jX-Xq UX0   V.H.H.H.H.H.H.H.H.H.W j c h G.H.H.H.H.H.H.H.H",
".H.H.H.H.H.H.H.H.H.H.H.H.H.H.H.H.H.H.H.H.H.H.H.H.H.H.H.H.H.H.H.H.H.H.H N.m $ $.%.`.~.H.H.H.H.H.H.H.H.H.H.H.H.H.H.H.H.H.H.H.H.H.H",
".H.H.H.H.H.H.H.H.H.H.H.H.H.H.H.H.H.H.H.H.H.H.H.H.H.H.H.H.H.H.H.H.H.H.H.,         ;.H.H.H.H.H.H.H.H.H.H.H.H.H.H.H.H.H.H.H.H.H.H.H"
};
