/* XPM */
static char *citroen-r[] = {
/* width height ncolors chars_per_pixel */
"64 45 70 1",
/* colors */
"  c #000000",
". c #AFAFAF",
"X c #ADADAD",
"o c #ABABAB",
"O c #A9A9A9",
"+ c #A7A7A7",
"@ c #919191",
"# c #8F8F8F",
"$ c #8D8D8D",
"% c #8B8B8B",
"& c #898989",
"* c #757575",
"= c #737373",
"- c #717171",
"; c #595959",
": c #575757",
"> c #555555",
", c #535353",
"< c #515151",
"1 c #FEFEFE",
"2 c #FCFCFC",
"3 c #FAFAFA",
"4 c #3D3D3D",
"5 c #3B3B3B",
"6 c #393939",
"7 c #373737",
"8 c #E4E4E4",
"9 c #E2E2E2",
"0 c #1F1F1F",
"q c #1D1D1D",
"w c #CACACA",
"e c #C8C8C8",
"r c #C6C6C6",
"t c #C2C2C2",
"y c #010101",
"u c #AEAEAE",
"i c #ACACAC",
"p c #AAAAAA",
"a c #A8A8A8",
"s c #A6A6A6",
"d c #929292",
"f c #909090",
"g c #8E8E8E",
"h c #8C8C8C",
"j c #888888",
"k c #767676",
"l c #727272",
"z c #707070",
"x c #6E6E6E",
"c c #585858",
"v c #565656",
"b c #545454",
"n c #525252",
"m c #FFFFFF",
"M c #FDFDFD",
"N c #FBFBFB",
"B c #3E3E3E",
"V c #3C3C3C",
"C c #3A3A3A",
"Z c #383838",
"A c #363636",
"S c #E5E5E5",
"D c #E3E3E3",
"F c #E1E1E1",
"G c #1E1E1E",
"H c #C9C9C9",
"J c #C7C7C7",
"K c #C5C5C5",
"L c #C3C3C3",
"P c #C1C1C1",
/* pixels */
"mmmmmmmmmmmmmmmmmmmmmmmrpppp$>>>>>>vpppommmmmmmmmmmmmmmmmmmmmmmm",
"mmmmmmmmmmmmmmmmmmm1>>>gppppJmmmmmm1pppO>>>:mmmmmmmmmmmmmmmmmmmm",
"mmmmmmmmmmmmmmmm9p$vmmmmmmmmmmmmmmmmmmmmmmmh>vpommmmmmmmmmmmmmmm",
"mmmmmmmmmmmmmmm$lpJmmmmmmmmmmmmmmmmmmmmmmmmmm1pZ>emmmmmmmmmmmmmm",
"mmmmmmmmmmmmmr>vmmmmmmmmmmmmmmmmmmmmmmmmmmmmmmmmmhl8mmmmmmmmmmmm",
"mmmmmmmmmmmm>gmmmmmmmmmmmmmmmmmmmmmmmmmmmmmmmmmmmm9zfmmmmmmmmmmm",
"mmmmmmmmmm9-gmmmmmmmmmmmmmmmmmmmmmmmmmmmmmmmmmmmmmmMZ*mmmmmmmmmm",
"mmmmmmmmmmlDmmmmmmmmmmmmmmmmmmmmmmmmmmmmmmmmmmmmmmmm9Zfmmmmmmmmm",
"mmmmmmmm9lmmmmmmmmmmmmmmmmmmmmmmmmmmmmmmmmmmmmmmmmmmmm+Xmmmmmmmm",
"mmmmmmmmOommmmmmmmmmmmmmmmmmmmmmmmmmmmmmmmmmmmmmmmmmmm9=1mmmmmmm",
"mmmmmmmmvmmmmmmmmmmmmmmmmmmmmmmmmmmmmmmmmmmmmmmmmmmmmmm258mmmmmm",
"mmmmmmm$vmmmmmmmmmmmmmmmmmmmmmmmmmmmmmmmmmmmmmmmmmmmmmm1zXmmmmmm",
"mmmmmmm>mmmmmmmmmmmmmmmmmmmmmmmmmmmmmmmmmmmmmmmmmmmmmmmmm>mmmmmm",
"mmmmmmK#mmmmmmmmmmmmmmmmmmmmmmmmmmmmmmmmmmmmmmmmmmmmmmmmmK#mmmmm",
"mmmmmK>mmmmmmmmmmmmmmmmmmmmmmmmmmmmmmmmmmmmmmmmmmmmmmmmmmN;mmmmm",
"mmm1KqJmmmmmmmmmmmmmmmmmmmmmmmmmmmmmmmmmmmmmmmmmmmmmmmmmm1$emmmm",
"mr-6#mmmmmmmmmmmmmmmmmmmmmmmmmmmmmmmmmmmmmmmmmmmmmmmmmmmmmsummmm",
"rgoDmmmmmmmmmmmmmmmmmmmmmmmmmmmmmmmmmmmmmmmmmmmmmmmmmmmmmm+Vmmmm",
">mmmmmmmmmmmmmmmmmmmmmmmmmmmmmmmmmmmmmmmmmmmmmmmmmmmmmmmmmm>mmmm",
">mmmmmmmmmmmmmmmmmmmmmmmmmmmmmmmmmmmmmmmmmmmmmmmmmmmmmmmm11nbbfm",
"Z9mmmmmmmmmmmmmmmmmmmmmmmmmmmmmmmmmmmmmmmmmmmmmmmmmmmmmmm<    58",
"lp1mmmmmmmmmmmmmmmmmmmmmmmmmmmmmmmmmmmmmmmmmmmmmmmmmmmmmm<     u",
"mgZ9mmmmmmmmmmmmmmmmmmmmmmmmmmmmmmmmmmmmmmmmmmmmmmmmmmmmm%     u",
"mml6mmmmmmmmmmmmmmmmmmmmmmmmmmmmmmmmmmmmmmmmmmmmmmmmmmmmm&     C",
"mmm>Kmmmmmmmmmmmmmmmmmmmmmmmmmmmmmmmmmmmmmmmmmmmmmmmmmmms     Gw",
"mmmJ>mmmmmmmmmmmmmmmmmmmmmmmmmmmmmmmmmmmmmmmmmmmmmmmmmmm97    c1",
"mmmml9mmmmmmmmmmmmmmmmmmmmmmmmmmmmmmmmmmmmmmmmmmmmmmmmmmFA     u",
"mmmmpOmmmmmmmmmmmmmmmmmmmmmmmmmmmmmmmmmmmmmmmmmmmmmmmmmm+y    y.",
"mmmmJqmmmmmmmmmmmmmmmmmmmmmmmmmmmmmmmmmmmmmmmmmmmmmmmmmmm%    ;m",
"mmmmmv$mmmmmmmmmmmmmmmmmmmmmmmmmmmmmmmmmmmmmmmmmmmmmmmmmmNy ykHm",
"mmmmmmZ9mmmmmmmmmmmmmmmmmmmmmmmmmmmmmmmmmmmmmmmmmmmmmmmmm1x5@mmm",
"mmmmmmlOmmmmmmmmmmmmmmmmmmmmmmmmmmmmmmmmmmmmmmmmmmmmmmmm1j4Smmmm",
"mmmmmmJqmmmmmmmmmmmmmmmmmmmmmmmmmmmmmmmmmmmmmmmmmmmmmmm1xBmmmmmm",
"mmmmmmmJh1mmmmmmmmmmmmmmmmmmmmmmmmmmmmmmmmmmmmmmmmmmmmm348mmmmmm",
"mmmmmmmmC-mmmmmmmmmmmmmmmmmmmmmmmmmmmmmmmmmmmmmmmmmmmmF=mmmmmmmm",
"mmmmmmmmDCh1mmmmmmmmmmmmmmmmmmmmmmmmmmmmmmmmmmmmmmmmmM7ummmmmmmm",
"mmmmmmmmmmC-mmmmmmmmmmmmmmmmmmmmmmmmmmmmmmmmmmmmmmmmmL@mmmmmmmmm",
"mmmmmmmmmmDCh1mmmmmmmmmmmmmmmmmmmmmmmmmmmmmmmmmmmmmmt0mmmmmmmmmm",
"mmmmmmmmmmmm:$KmmmmmmmmmmmmmmmmmmmmmmmmmmmmmmmmmmmmtGHmmmmmmmmmm",
"mmmmmmmmmmmmmJGr1mmmmmmmmmmmmmmmmmmmmmmmmmmmmmmmm1L0Hmmmmmmmmmmm",
"mmmmmmmmmmmmmmm#=+Kmmmmmmmmmmmmmmmmmmmmmmmmmmmm1+-dmmmmmmmmmmmmm",
"mmmmmmmmmmmmmmmmDi0v22mmmmmmmmmmmmmmmmmmmmmm12P,BSmmmmmmmmmmmmmm",
"mmmmmmmmmmmmmmmmmmm1cc+++9mmmmmmmmmmmmmmmL++hccHmmmmmmmmmmmmmmmm",
"mmmmmmmmmmmmmmmmmmmmmmXX=C>>>>g222tb>>>>>0XXHmmmmmmmmmmmmmmmmmmm",
"mmmmmmmmmmmmmmmmmmmmmmmmmmmmmma    immmmmmmmmmmmmmmmmmmmmmmmmmmm"
};
