/* XPM */
static char *citroen-r[] = {
/* width height ncolors chars_per_pixel */
"64 44 156 2",
/* colors */
"   c #000000",
" . c #AFAFAF",
" X c #ABABAB",
" o c #A9A9A9",
" O c #A7A7A7",
" + c #A5A5A5",
" @ c #A3A3A3",
" # c #A1A1A1",
" $ c #9F9F9F",
" % c #9D9D9D",
" & c #9B9B9B",
" * c #999999",
" = c #919191",
" - c #8D8D8D",
" ; c #8B8B8B",
" : c #898989",
" > c #878787",
" , c #858585",
" < c #7F7F7F",
" 1 c #7D7D7D",
" 2 c #7B7B7B",
" 3 c #777777",
" 4 c #717171",
" 5 c #696969",
" 6 c #676767",
" 7 c #656565",
" 8 c #616161",
" 9 c #5F5F5F",
" 0 c #5D5D5D",
" q c #575757",
" w c #555555",
" e c #515151",
" r c #4F4F4F",
" t c #4D4D4D",
" y c #FEFEFE",
" u c #4B4B4B",
" i c #FCFCFC",
" p c #FAFAFA",
" a c #474747",
" s c #F8F8F8",
" d c #454545",
" f c #F6F6F6",
" g c #F4F4F4",
" h c #414141",
" j c #F2F2F2",
" k c #3F3F3F",
" l c #EEEEEE",
" z c #3B3B3B",
" x c #ECECEC",
" c c #EAEAEA",
" v c #E8E8E8",
" b c #353535",
" n c #E6E6E6",
" m c #E4E4E4",
" M c #E2E2E2",
" N c #2F2F2F",
" B c #E0E0E0",
" V c #DEDEDE",
" C c #DCDCDC",
" Z c #DADADA",
" A c #D6D6D6",
" S c #232323",
" D c #D4D4D4",
" F c #D2D2D2",
" G c #D0D0D0",
" H c #CCCCCC",
" J c #CACACA",
" K c #171717",
" L c #C6C6C6",
" P c #C0C0C0",
" I c #0D0D0D",
" U c #BEBEBE",
" Y c #BCBCBC",
" T c #BABABA",
" R c #B8B8B8",
" E c #B6B6B6",
" W c #B4B4B4",
" Q c #010101",
" ! c #B2B2B2",
" ~ c #B0B0B0",
" ^ c #AEAEAE",
" / c #ACACAC",
" ( c #AAAAAA",
" ) c #A8A8A8",
" _ c #A6A6A6",
" ` c #A2A2A2",
" ' c #A0A0A0",
" ] c #9C9C9C",
" [ c #9A9A9A",
" { c #989898",
" } c #969696",
" | c #949494",
".  c #909090",
".. c #8A8A8A",
".X c #888888",
".o c #868686",
".O c #808080",
".+ c #7E7E7E",
".@ c #7C7C7C",
".# c #7A7A7A",
".$ c #767676",
".% c #747474",
".& c #727272",
".* c #6A6A6A",
".= c #686868",
".- c #626262",
".; c #606060",
".: c #5C5C5C",
".> c #5A5A5A",
"., c #565656",
".< c #525252",
".1 c #4E4E4E",
".2 c #FFFFFF",
".3 c #4C4C4C",
".4 c #FDFDFD",
".5 c #4A4A4A",
".6 c #FBFBFB",
".7 c #F9F9F9",
".8 c #464646",
".9 c #F7F7F7",
".0 c #F5F5F5",
".q c #F3F3F3",
".w c #404040",
".e c #F1F1F1",
".r c #3E3E3E",
".t c #EFEFEF",
".y c #3C3C3C",
".u c #EDEDED",
".i c #3A3A3A",
".p c #EBEBEB",
".a c #383838",
".s c #E9E9E9",
".d c #363636",
".f c #E7E7E7",
".g c #E3E3E3",
".h c #303030",
".j c #E1E1E1",
".k c #2E2E2E",
".l c #DFDFDF",
".z c #2A2A2A",
".x c #282828",
".c c #D5D5D5",
".v c #D3D3D3",
".b c #D1D1D1",
".n c #1E1E1E",
".m c #C5C5C5",
".M c #C3C3C3",
".N c #101010",
".B c #C1C1C1",
".V c #0C0C0C",
".C c #BDBDBD",
".Z c #BBBBBB",
".A c #B7B7B7",
".S c #B5B5B5",
".D c #020202",
".F c #B3B3B3",
/* pixels */
".2.2.2.2.2.2.2.2.2.2.2.2.2.2.2.2.2.2.2.2.2.2.2.2.2.2.2.2.b ` ` ` ` ` ` F.2.2.2.2.2.2.2.2.2.2.2.2.2.2.2.2.2.2.2.2.2.2.2.2.2.2.2.2",
".2.2.2.2.2.2.2.2.2.2.2.2.2.2.2.2.2.2.2.2.u n n * 0 0 0 0 ;.Z.Z.Z.Z.Z.Z.. 0 0 0 P n n n.4.2.2.2.2.2.2.2.2.2.2.2.2.2.2.2.2.2.2.2.2",
".2.2.2.2.2.2.2.2.2.2.2.2.2.2.2.2.2.2.2 :.@ 3 3.M.2.2.2.2.2.2.2.2.2.2.2.2.2.2.2 % 3 3 b 1...2.2.2.2.2.2.2.2.2.2.2.2.2.2.2.2.2.2.2",
".2.2.2.2.2.2.2.2.2.2.2.2.2.2.2.9 H 5 0.v.q.2.2.2.2.2.2.2.2.2.2.2.2.2.2.2.2.2.2.2.2.2.f D F 0.5 H.9.2.2.2.2.2.2.2.2.2.2.2.2.2.2.2",
".2.2.2.2.2.2.2.2.2.2.2.2.2.2.B 0.3.q.2.2.2.2.2.2.2.2.2.2.2.2.2.2.2.2.2.2.2.2.2.2.2.2.2.2.2.2 /. .%.M.2.2.2.2.2.2.2.2.2.2.2.2.2.2",
".2.2.2.2.2.2.2.2.2.2.2.2 n ^ & l.9.2.2.2.2.2.2.2.2.2.2.2.2.2.2.2.2.2.2.2.2.2.2.2.2.2.2.2.2.2.2.2.e * ..f.2.2.2.2.2.2.2.2.2.2.2.2",
".2.2.2.2.2.2.2.2.2.2.2 p a 1.2.2.2.2.2.2.2.2.2.2.2.2.2.2.2.2.2.2.2.2.2.2.2.2.2.2.2.2.2.2.2.2.2.2.2.2.# d p.2.2.2.2.2.2.2.2.2.2.2",
".2.2.2.2.2.2.2.2.2.2 v.#.7.2.2.2.2.2.2.2.2.2.2.2.2.2.2.2.2.2.2.2.2.2.2.2.2.2.2.2.2.2.2.2.2.2.2.2.2.2.2 =.w.s.2.2.2.2.2.2.2.2.2.2",
".2.2.2.2.2.2.2.2.2.t.o.f.2.2.2.2.2.2.2.2.2.2.2.2.2.2.2.2.2.2.2.2.2.2.2.2.2.2.2.2.2.2.2.2.2.2.2.2.2.2.2 i.M.$.2.2.2.2.2.2.2.2.2.2",
".2.2.2.2.2.2.2.2.2.O C.2.2.2.2.2.2.2.2.2.2.2.2.2.2.2.2.2.2.2.2.2.2.2.2.2.2.2.2.2.2.2.2.2.2.2.2.2.2.2.2.2.2 &.B.2.2.2.2.2.2.2.2.2",
".2.2.2.2.2.2.2.2 M < p.2.2.2.2.2.2.2.2.2.2.2.2.2.2.2.2.2.2.2.2.2.2.2.2.2.2.2.2.2.2.2.2.2.2.2.2.2.2.2.2.2.2 p 1 P.2.2.2.2.2.2.2.2",
".2.2.2.2.2.2.2.2 1 <.2.2.2.2.2.2.2.2.2.2.2.2.2.2.2.2.2.2.2.2.2.2.2.2.2.2.2.2.2.2.2.2.2.2.2.2.2.2.2.2.2.2.2.2 J e.2.2.2.2.2.2.2.2",
".2.2.2.2.2.2.2.2.: p.2.2.2.2.2.2.2.2.2.2.2.2.2.2.2.2.2.2.2.2.2.2.2.2.2.2.2.2.2.2.2.2.2.2.2.2.2.2.2.2.2.2.2.2.2 Y #.2.2.2.2.2.2.2",
".2.2.2.2.2.2.2.S O.2.2.2.2.2.2.2.2.2.2.2.2.2.2.2.2.2.2.2.2.2.2.2.2.2.2.2.2.2.2.2.2.2.2.2.2.2.2.2.2.2.2.2.2.2.2 x.% i.2.2.2.2.2.2",
".2.2.2.2.2.2 ! 7.2.2.2.2.2.2.2.2.2.2.2.2.2.2.2.2.2.2.2.2.2.2.2.2.2.2.2.2.2.2.2.2.2.2.2.2.2.2.2.2.2.2.2.2.2.2.2.2.- p.2.2.2.2.2.2",
".2.2.2.9 A ! k B.2.2.2.2.2.2.2.2.2.2.2.2.2.2.2.2.2.2.2.2.2.2.2.2.2.2.2.2.2.2.2.2.2.2.2.2.2.2.2.2.2.2.2.2.2.2.2.2.l 1.2.2.2.2.2.2",
".2.2 P.;.3 X.2.2.2.2.2.2.2.2.2.2.2.2.2.2.2.2.2.2.2.2.2.2.2.2.2.2.2.2.2.2.2.2.2.2.2.2.2.2.2.2.2.2.2.2.2.2.2.2.2.2.2 0.2.2.2.2.2.2",
".2.m ] m.q.2.2.2.2.2.2.2.2.2.2.2.2.2.2.2.2.2.2.2.2.2.2.2.2.2.2.2.2.2.2.2.2.2.2.2.2.2.2.2.2.2.2.2.2.2.2.2.2.2.2.2.2.a U.2.2.2.2.2",
".2 0.2.2.2.2.2.2.2.2.2.2.2.2.2.2.2.2.2.2.2.2.2.2.2.2.2.2.2.2.2.2.2.2.2.2.2.2.2.2.2.2.2.2.2.2.2.2.2.2.2.2.2.2.2.2.2 _ E.2.2.2.2.2",
".2 0.2.2.2.2.2.2.2.2.2.2.2.2.2.2.2.2.2.2.2.2.2.2.2.2.2.2.2.2.2.2.2.2.2.2.2.2.2.2.2.2.2.2.2.2.2.2.2.2.2.2.2.2.2 v @.* Q.D N.2.2.2",
".2.> ].2.2.2.2.2.2.2.2.2.2.2.2.2.2.2.2.2.2.2.2.2.2.2.2.2.2.2.2.2.2.2.2.2.2.2.2.2.2.2.2.2.2.2.2.2.2.2.2.2.2.2.2 P         I X.2.2",
".2.e < #.2.2.2.2.2.2.2.2.2.2.2.2.2.2.2.2.2.2.2.2.2.2.2.2.2.2.2.2.2.2.2.2.2.2.2.2.2.2.2.2.2.2.2.2.2.2.2.2.2.2.2 P           ;.2.2",
".2.2.p u.X i.2.2.2.2.2.2.2.2.2.2.2.2.2.2.2.2.2.2.2.2.2.2.2.2.2.2.2.2.2.2.2.2.2.2.2.2.2.2.2.2.2.2.2.2.2.2.2.2.2 v.r         4.6.2",
".2.2.2.s.r l.2.2.2.2.2.2.2.2.2.2.2.2.2.2.2.2.2.2.2.2.2.2.2.2.2.2.2.2.2.2.2.2.2.2.2.2.2.2.2.2.2.2.2.2.2.2.2.2.2 7          .1.0.2",
".2.2.2.2 * 0.2.2.2.2.2.2.2.2.2.2.2.2.2.2.2.2.2.2.2.2.2.2.2.2.2.2.2.2.2.2.2.2.2.2.2.2.2.2.2.2.2.2.2.2.2.2.2.2.2 t        .z f.2.2",
".2.2.2.2.2 9.4.2.2.2.2.2.2.2.2.2.2.2.2.2.2.2.2.2.2.2.2.2.2.2.2.2.2.2.2.2.2.2.2.2.2.2.2.2.2.2.2.2.2.2.2.2.2.2.2 Y        .N.F.2.2",
".2.2.2.2.2.F o.2.2.2.2.2.2.2.2.2.2.2.2.2.2.2.2.2.2.2.2.2.2.2.2.2.2.2.2.2.2.2.2.2.2.2.2.2.2.2.2.2.2.2.2.2.2.2.2.n           ;.2.2",
".2.2.2.2.2.C.i.2.2.2.2.2.2.2.2.2.2.2.2.2.2.2.2.2.2.2.2.2.2.2.2.2.2.2.2.2.2.2.2.2.2.2.2.2.2.2.2.2.2.2.2.2.2.2.2 '.V       S.g.2.2",
".2.2.2.2.2.2.> W.2.2.2.2.2.2.2.2.2.2.2.2.2.2.2.2.2.2.2.2.2.2.2.2.2.2.2.2.2.2.2.2.2.2.2.2.2.2.2.2.2.2.2.2.2.2.2.2.-    .a |.2.2.2",
".2.2.2.2.2.2 B r j.2.2.2.2.2.2.2.2.2.2.2.2.2.2.2.2.2.2.2.2.2.2.2.2.2.2.2.2.2.2.2.2.2.2.2.2.2.2.2.2.2.2.2.2.2.2.2 L K.8.p.2.2.2.2",
".2.2.2.2.2.2 i.>.M.2.2.2.2.2.2.2.2.2.2.2.2.2.2.2.2.2.2.2.2.2.2.2.2.2.2.2.2.2.2.2.2.2.2.2.2.2.2.2.2.2.2.2.2.2.2 Z.x R.2.2.2.2.2.2",
".2.2.2.2.2.2.2 T.y.2.2.2.2.2.2.2.2.2.2.2.2.2.2.2.2.2.2.2.2.2.2.2.2.2.2.2.2.2.2.2.2.2.2.2.2.2.2.2.2.2.2.2.2.2.c.h E.2.2.2.2.2.2.2",
".2.2.2.2.2.2.2.2 E $.4.2.2.2.2.2.2.2.2.2.2.2.2.2.2.2.2.2.2.2.2.2.2.2.2.2.2.2.2.2.2.2.2.2.2.2.2.2.2.2.2.2.2.4.@ ~.2.2.2.2.2.2.2.2",
".2.2.2.2.2.2.2.2 x.d {.2.2.2.2.2.2.2.2.2.2.2.2.2.2.2.2.2.2.2.2.2.2.2.2.2.2.2.2.2.2.2.2.2.2.2.2.2.2.2.2.2.2 + R.2.2.2.2.2.2.2.2.2",
".2.2.2.2.2.2.2.2.2 m h } y.2.2.2.2.2.2.2.2.2.2.2.2.2.2.2.2.2.2.2.2.2.2.2.2.2.2.2.2.2.2.2.2.2.2.2.2.2.2.2 X u.2.2.2.2.2.2.2.2.2.2",
".2.2.2.2.2.2.2.2.2.2.g.d #.2.2.2.2.2.2.2.2.2.2.2.2.2.2.2.2.2.2.2.2.2.2.2.2.2.2.2.2.2.2.2.2.2.2.2.2.2.2 s < m.2.2.2.2.2.2.2.2.2.2",
".2.2.2.2.2.2.2.2.2.2.2 l z =.2.2.2.2.2.2.2.2.2.2.2.2.2.2.2.2.2.2.2.2.2.2.2.2.2.2.2.2.2.2.2.2.2.2.2.2 c.<. .2.2.2.2.2.2.2.2.2.2.2",
".2.2.2.2.2.2.2.2.2.2.2.2.l [ 8.l.2.2.2.2.2.2.2.2.2.2.2.2.2.2.2.2.2.2.2.2.2.2.2.2.2.2.2.2.2.2.2.2.2.2.5 4.2.2.2.2.2.2.2.2.2.2.2.2",
".2.2.2.2.2.2.2.2.2.2.2.2.2.2.A.= +.0.2.2.2.2.2.2.2.2.2.2.2.2.2.2.2.2.2.2.2.2.2.2.2.2.2.2.2.2.2.2 ! 2 - y.2.2.2.2.2.2.2.2.2.2.2.2",
".2.2.2.2.2.2.2.2.2.2.2.2.2.2.2 g R 6 r v.7.2.2.2.2.2.2.2.2.2.2.2.2.2.2.2.2.2.2.2.2.2.2.2.2.9 A.< (.j.2.2.2.2.2.2.2.2.2.2.2.2.2.2",
".2.2.2.2.2.2.2.2.2.2.2.2.2.2.2.2.2.2 ).% , ;.p.2.2.2.2.2.2.2.2.2.2.2.2.2.2.2.2.2.2.2.2 V ;., q.A.2.2.2.2.2.2.2.2.2.2.2.2.2.2.2.2",
".2.2.2.2.2.2.2.2.2.2.2.2.2.2.2.2.2.2.2.2 V.b 4 0 r * G G G G x.2.2.2 Z G G G G G > w 0.+.b.b g.2.2.2.2.2.2.2.2.2.2.2.2.2.2.2.2.2",
".2.2.2.2.2.2.2.2.2.2.2.2.2.2.2.2.2.2.2.2.2.2.2.2 V - - - - - 1.&.&.&.k - - - - - - c.2.2.2.2.2.2.2.2.2.2.2.2.2.2.2.2.2.2.2.2.2.2",
".2.2.2.2.2.2.2.2.2.2.2.2.2.2.2.2.2.2.2.2.2.2.2.2.2.2.2.2.2.2 5      .x.2.2.2.2.2.2.2.2.2.2.2.2.2.2.2.2.2.2.2.2.2.2.2.2.2.2.2.2.2"
};
