/* XPM */
static char *noname[] = {
/* width height ncolors chars_per_pixel */
"64 64 7 1",
/* colors */
"  c #000000",
". c #FEFEFE",
"X c #030303",
"o c #010101",
"O c #FFFFFF",
"+ c #FDFDFD",
"@ c #020202",
/* pixels */
"OOO.OOOOO.OOOO.  o  o  oo  .OO.OO.OOO.OOOOOOOOOOOOOOOOOOOOOOOOOO",
"O+OO.O..OOO..   o  O     o OOOOOOOO+OO.OOOOOOOOOOOOOOOOOOOOOOOOO",
".OO..OOO.O+O@      o oo o   O  .O.OOO.O.OOOOOOOOOOOOOOOOOOOOOOOO",
"OO.OOOO.OOO      O  o  O.        .OOOOOOOOOOOOOOOOOOOOOOOOOOOOOO",
"O+OOO+.OO  oo      oo OOO  o  @ oO..O.O.OOOOOOOOOOOOOOOOOOOOOOOO",
"OOO.OOOOO      O  o  OOOO         OOO.OOOOOOOOOOOOOOOOOOOOOOOOOO",
".OOOOO+      O     O.O.  @. o  o  O.+O+OOOOOOOOOOOOOOOOOOOOOOOOO",
"OOO.OO  o   o      .OO        o   OOO.OOOOOOOOOOOOOOOOOOOOOOOOOO",
"OOO   o   o  O  OO.o oO           OOOO+OOOOOOOOOOOOOOOOOOOOOOOOO",
"OOO o    @      OO    o           OO.OOOOOOOOOOOOOOOOOOOOOOOOOOO",
"Oo o  o    O o.OO @ Oo           OOOOO+.OOOOOOOOOOOOOOOOOOOOOOOO",
"  o  o   O   .OOo oo  oo         O.OO.OOOOOOOOOOOOOOOOOOOOOOOOOO",
"  oo O@   o OO o O .o            .O.OOOOOOOOOOOOOOOOOOOOOOOOOOOO",
"@   o  .o oO  o   oOo  o         OOOOO.OOOOOOOOOOOOOOOOOOOOOOOOO",
"  o o@ o OOO   O   O o           OOOOO.OOOOOOOOOOOOOOOOOOOOOOOOO",
" o   .o o+o o    O oo            OOOOOOOOOOOOOOOOOOOOOOOOOOOOOOO",
"      OO   Ooo                   OOO.O.OOO.OOOOOOOOOOOOOOOOOOOOO",
" ooOO.    o  O o                @OOOOOO.O.OO..OOOOOOOOOOOOOOOOOO",
"     O o    oOo                 ..OOOO.OO.OOOOO.OOOOOOOOOOOOOOOO",
" o@.OO Oo  O                    OOO..O.OOO..OOOOOOOOOOOOOOOOOOOO",
"  oOOOo  O .@                   .OOOOO.OOO.O..O.OOOOOOOOOOOOOOOO",
"@  OOO     @  o                 O.O OOOO.OOOOO.OOOOOOOOOOOOOOOOO",
"  o.O.o     o                   O    o OOOOOO.O.OOOOOOOOOOOOOOOO",
"o  OOO         o                 o  o o   OO.OOOOOOOOOOOOOOOOOOO",
"   OOO               o    o  o   OOOOOO         OOOO.OOOOOOO..OO",
"   OOO            oo  o o  o    OOOOOOOOO.  o o  ooOO.O..OO+OO.O",
"   OOO          o     o      oOOO.OOOO.OO.O.Oo      o .O.OOOO.O.",
"   OOO              oo      OOOOOOOOOOOOOOOOO+.O       oo..O.OOO",
"   OOO          o oo o   o OOOOOO..OO..OOO.O.OOOO+Oo      o O..O",
"   OOO           o     o OOOOO.O.OO..OO.OOOOO..OOOO+OO o     OOO",
"   OOO          o o     O.OOOOO.O.O..O.OO+OOOOOOOO+OOOO.O    o.O",
"   OOO             o  OOOOOOO.OOOOOOOOOO.OO.OO.OOOOOOOOO.OO   OO",
"   OOO  o   o o   oO.OOOOOOOOOOOOOOOOOOOOOOOOOOOO.OOO.OOO     OO",
"   OOO    X    o oOOOO.OOOOOOOOOOOOOOOOOOOOOOOOOOOOO.OO.   @o .O",
"   OOO   @ o o oo.OOO.O.OOOOOOOOOOOOOOOOOOOOOOOOO.OO+.O   O   OO",
"   OOO      o   OOO..OOOOOOOOOOOOOOOOOOOOOOOOOOOOOO.OO o O ooO.O",
"   OOO  o   o  OOO.OOO..OOOOOOOOOOOOOOOOOOOOOOOOO+OOO     O  OOO",
"   OOO     o  OOOO.OO.OOOOOOOOOOOOOOOOOOOOOOOOOOOOOO o O o   .OO",
"   OOO    o  oOOO.O.OOOOOOOOOOOOOOOOOOOOOOOOOOOOOOO o O o    o O",
"   OOO   o o  OOOOOOOOOOOOOOOOOOOOOOOOOOOOOOOOOOOO     O o    o ",
"   OOO          OOOOOO.OOOO.OO.OOOOOOOOOOO.OO.O.   O       o  o ",
" o OO.o         @ .OOOOOOOOOO.OOOOOOOOOOOOOO..Oo o        o  o  ",
"  @..O            oOOO..O+.OOOOOOOOOOOOOOO.OO.  O  O o    o    @",
"o  OOO           @ o  OO.O+OO.O.OOOOOOOOOOO.O o   o    o      o ",
"   OOO            o    .O.OOOOOOOOOOOOOOOOOO O  o   o   o  O  o ",
" o OO.o                 oO.O.O.OOOOOOOOOOO.    O ooo  @   O @  O",
"   OOO             o oo  o OOOO.OOOOOOOOOO  O   o o o      O ooO",
"  o  O             o         OOOOOOOOOOOO oo   O o   o O  O o  o",
"OO   o   o  o    o o      o o  oOOO.OO O   O     @    Oo     o.O",
"O.OO@  o       o Oo    o  o  o     O+OO    o   oo   O  O X   .OO",
"OOOO         o  OOO  o   @ oo @   o  OO    O      oo.       OOO.",
"OO.O  o  ooo  @ OO.O.Oo   o     oo oo     o  o    O o    o@.OO.O",
"OOOO   ooo  o  OOOOOO.OOO    o o     @  o      o O  O   o .OO.O.",
"OOO.O o    o  .OO..OOOOOO.        @       ooo  .O  @ o   OOO.O.O",
"O+OOOO o oo OOOOOOOOO..O+OOO  o     o       o  O.o      OOO+O.OO",
"OOOO.O  o   O.OOO.O.OOOOO.O.OO o           o  O o oo o .OO.O.OOO",
"OOOOOOOOOOOOOOOOOOOOOOOOOOOOOOOOOO      o o OO      o .OOOOOOOOO",
"OOOOOOOOOOOOOOOOOOOOOOOOOOOOOOOOOOO      o  .      o OOOOOOOOOOO",
"OOOOOOOOOOOOOOOOOOOOOOOOOOOOOOOO.OOOOO o  o oo   o OO.O.OOOOOOOO",
"OOOOOOOOOOOOOOOOOOOOOOOOOOOOOOOOO.OOOOO @  o       .OOOOOOOOOOOO",
"OOOOOOOOOOOOOOOOOOOOOOOOOOOOOOOO+OOOO.OOOo o  oo oOOO+OOOOOOOOOO",
"OOOOOOOOOOOOOOOOOOOOOOOOOOOOOOOOOO.OOO..O.O  o   O.OOO.OOOOOOOOO",
"OOOOOOOOOOOOOOOOOOOOOOOOOOOOOOOOOOO+OOOO..OO o  O.OOOOOOOOOOOOOO",
"OOOOOOOOOOOOOOOOOOOOOOOOOOOOOOOOOOO.OOOOOO..OOOOOOOOOOOOOOOOOOOO"
};
