/* XPM */
static char *noname[] = {
/* width height ncolors chars_per_pixel */
"64 64 8 1",
/* colors */
"  c #000000",
". c #FEFEFE",
"X c #FCFCFC",
"o c #030303",
"O c #010101",
"+ c #FFFFFF",
"@ c #FDFDFD",
"# c #020202",
/* pixels */
"++++++++++++++++.++.++.+    O        O  ++.+++.+++++++++++++++++",
"++++++++++++++++++.+++++   O  O O      #O.+.++++++++++++++++++++",
"+++++++++++++++++.+++OO  O         O O  O @+.++.++++++++++++++++",
"++++++++++++++++.++++ OO  O   O O O + #   O.++@+++++++++++++++++",
"++++++++++++++++++.+     #++++++++.++O  O  .+.++++++++++++++++++",
"+++++++++++++++++++.+  O .++.+++.+.++. O   #+.+.++++++++++++++++",
"+++++++++++++++++@++. O.+.+# .+.+  ++.+  # .+++.++++++++++++++++",
"+++++++++++++++++++++ O++++.O++++ ++++++  O.+..+++++++++++++++++",
"++.+++.++++++++++..+   ++.++++++++++++.+   +++++++++++++.+++++++",
"+++++.+.+++++++++.++  O+.++++@++.+++ ++  O @+++.++++++++++.+++++",
"+.+++.+++++++++++++++  O+. +.+++++++.+   +++++++++++++++.++.+.++",
"++.+++@+++++++++...+++O  ++.++.+.+.+++  ++..+.++++++++++.+++++.+",
"+.+.++.++++++++++++  O.+.+ .++.++++. +++.++++.+.++++++++++++++++",
"++.+.+++++++++++           ++    +@  O     +++++++++++++.++++.@+",
"+.++             # O  O    +++++++++  O  #      +++++++++++.+++.",
"++    O                     +++++   O     O  O           ++++.++",
"                  O                     O                 O++.++",
"   OOO   o ++.++++   O O                  ++O #  O      O   ++++",
" #        O+..++++    O                  O.+@++++         O .++@",
" O OO O #O     ..   #                     +@++.+     O   O O++.+",
"+O         #    +    O                     ++@ O  O   O O   ++@+",
"    O  ++++.+O    #O  #                 O        #@++ O   O ++++",
"   O  O+.++.+O      O                    O      +++@.+.+++    O ",
"+++ O+++++ O. O      O                          +.++.+++.+  O  O",
"+++++++++++++.++O      O     O              +.+. ++++++   ++.+++",
"++++++++++..++.+ O O     O  O     O     OO  ++X++++++++++++++.+.",
"++++++++.+++++.+     O      O OO   O  O  O O+.+++.++++.+.+++++.+",
"++++++++++++..++OOO   O   OO.+..O #  O OO O +++.++++++++++.+..+.",
"++++++++.+..+.++.    O      ++++     #   O  ++@++..++..+++..++++",
"+++++++++.+++++.+ #        O+X++O OO  OO O +.+++.++..++.+.+++++.",
"++++++++.+.+++++   OO   O    #   O  OO ++.++++@++.+..+.++.++..++",
"+++++++++++.++      O O  +          O  O++++.++.++++++++++.+++++",
"+++++++++.+ O    O  O ++++               .++.+++++++++++++++++++",
"+++++++++.O     O  O @++.+  #  O         ++@+++.++++++++++++++++",
"+++++++++O       O  ++++++                .++.++++++++++++++++++",
"++++++++. O O   O  #      O  O          O ++++.+++++++++++++++++",
"+++++++++     O O O  O OO                 +++.++++++++++++++++++",
"+++++++++++O      O       O O OO        O O ++.+++++++++++++++++",
"+++++++++.+.++ O # O   O     O              O++.++++++++++++++++",
"+++++++++.++.++          O                O O .+++++++++++++++++",
"+++++++++++++..+  O   O O O  +             O  ++++++++++++++++++",
"+++++++++++++      O        #+ #        O O O.++++++++++++++++++",
"+++++++++..++.++O     O++O   +#            # +++++++++++++++++++",
"++++++++.+++.+.+.+ #O  O   O +          O O  O++++++++++++++++++",
"+++++++++++@+++++++ +O  OO   .           O OO  +++++++++++++++++",
"+++++++++.++++++++. + OO     + O        O    O  ++++++++++++++++",
"+++++++++.+@++  +@+++.+.+   O.           O#  O O++++++++++++++++",
"+++++++++++++++++++..+.++ O  + O         O  O O ++++++++++++++++",
"+++++++++++++++++++++++++ O  +  O     O      O  ++++++++++++++++",
"+++++++++++++++++++++++++    +       O  O O    O O +++++++++++++",
"++++++++++++++++++++++++.   #+      O+.+++ O OO   O+++++++++++++",
"+++++++++++++++++++++++++  O +O    .+++++++++@     +++++++++++++",
"++++++++++++++++++++++++.O OO.O   ++.++.++.++++    +++++++++++++",
"+++++++++++++++++++++++++    +   +..++.+++++.+.   O+++++++++++++",
"++++++++++++++++++++++++++OO  O O.++ O .+O+.+++  O +++++++++++++",
"++++++++++++++++++++++++++  O    +.++@++++.++++.++++++++++++++++",
"+++++++++++++++++++++++++. O  O  +.++.++++++++++++++++++++++++++",
"++++++++++++++++++++++++.+O    O +++@+++++++++++++++++++++++++++",
"++++++++++++++++++++++++++ OO    ++++.+.++++++++++++++++++++++++",
"++++++++++++++++++++++++++   O  .++.++++++++++++++++++++++++++++",
"++++++++++++++++++++++++++# O   ++++++.+++++++++++++++++++++++++",
"+++++++++++++++++++++++++.O     .+++++.+++++++++++++++++++++++++",
"+++++++++++++++++++++++++.+O    +++..++.++++++++++++++++++++++++",
"++++++++++++++++++++++++++++.O++++.+++++++++++++++++++++++++++++"
};
