/* XPM */
static char *ezel-r[] = {
/* width height ncolors chars_per_pixel */
"64 52 216 2",
/* colors */
"   c #000000",
" . c #B1B1B1",
" X c #AFAFAF",
" o c #ADADAD",
" O c #ABABAB",
" + c #A9A9A9",
" @ c #A7A7A7",
" # c #A5A5A5",
" $ c #A3A3A3",
" % c #A1A1A1",
" & c #9F9F9F",
" * c #9D9D9D",
" = c #999999",
" - c #979797",
" ; c #959595",
" : c #939393",
" > c #919191",
" , c #8F8F8F",
" < c #8D8D8D",
" 1 c #8B8B8B",
" 2 c #898989",
" 3 c #878787",
" 4 c #858585",
" 5 c #838383",
" 6 c #818181",
" 7 c #7F7F7F",
" 8 c #7D7D7D",
" 9 c #7B7B7B",
" 0 c #797979",
" q c #777777",
" w c #757575",
" e c #737373",
" r c #717171",
" t c #6B6B6B",
" y c #696969",
" u c #676767",
" i c #656565",
" p c #636363",
" a c #616161",
" s c #5D5D5D",
" d c #5B5B5B",
" f c #595959",
" g c #575757",
" h c #535353",
" j c #515151",
" k c #4F4F4F",
" l c #4D4D4D",
" z c #FEFEFE",
" x c #4B4B4B",
" c c #FCFCFC",
" v c #494949",
" b c #FAFAFA",
" n c #474747",
" m c #F6F6F6",
" M c #434343",
" N c #F4F4F4",
" B c #F2F2F2",
" V c #3F3F3F",
" C c #F0F0F0",
" Z c #3D3D3D",
" A c #EEEEEE",
" S c #3B3B3B",
" D c #ECECEC",
" F c #393939",
" G c #EAEAEA",
" H c #373737",
" J c #E8E8E8",
" K c #353535",
" L c #E6E6E6",
" P c #E4E4E4",
" I c #313131",
" U c #E2E2E2",
" Y c #2F2F2F",
" T c #E0E0E0",
" R c #DEDEDE",
" E c #2B2B2B",
" W c #DCDCDC",
" Q c #292929",
" ! c #DADADA",
" ~ c #272727",
" ^ c #D8D8D8",
" / c #252525",
" ( c #D6D6D6",
" ) c #D4D4D4",
" _ c #212121",
" ` c #D2D2D2",
" ' c #D0D0D0",
" ] c #CECECE",
" [ c #1B1B1B",
" { c #CCCCCC",
" } c #C8C8C8",
" | c #151515",
".  c #C6C6C6",
".. c #131313",
".X c #C4C4C4",
".o c #111111",
".O c #C2C2C2",
".+ c #0D0D0D",
".@ c #BEBEBE",
".# c #BABABA",
".$ c #B8B8B8",
".% c #050505",
".& c #B6B6B6",
".* c #030303",
".= c #B4B4B4",
".- c #010101",
".; c #B2B2B2",
".: c #B0B0B0",
".> c #AEAEAE",
"., c #ACACAC",
".< c #A8A8A8",
".1 c #A6A6A6",
".2 c #A4A4A4",
".3 c #A0A0A0",
".4 c #9E9E9E",
".5 c #9C9C9C",
".6 c #9A9A9A",
".7 c #989898",
".8 c #969696",
".9 c #949494",
".0 c #929292",
".q c #8E8E8E",
".w c #8C8C8C",
".e c #8A8A8A",
".r c #888888",
".t c #868686",
".y c #848484",
".u c #828282",
".i c #808080",
".p c #7E7E7E",
".a c #7C7C7C",
".s c #7A7A7A",
".d c #787878",
".f c #767676",
".g c #747474",
".h c #727272",
".j c #707070",
".k c #6E6E6E",
".l c #6C6C6C",
".z c #686868",
".x c #666666",
".c c #646464",
".v c #626262",
".b c #606060",
".n c #5E5E5E",
".m c #5C5C5C",
".M c #5A5A5A",
".N c #585858",
".B c #565656",
".V c #545454",
".C c #525252",
".Z c #505050",
".A c #4E4E4E",
".S c #FFFFFF",
".D c #4C4C4C",
".F c #FDFDFD",
".G c #4A4A4A",
".H c #FBFBFB",
".J c #484848",
".K c #F9F9F9",
".L c #F7F7F7",
".P c #444444",
".I c #F5F5F5",
".U c #424242",
".Y c #F3F3F3",
".T c #F1F1F1",
".R c #3E3E3E",
".E c #EFEFEF",
".W c #3C3C3C",
".Q c #EDEDED",
".! c #EBEBEB",
".~ c #383838",
".^ c #E9E9E9",
"./ c #E7E7E7",
".( c #E5E5E5",
".) c #323232",
"._ c #E3E3E3",
".` c #303030",
".' c #2E2E2E",
".] c #DFDFDF",
".[ c #2C2C2C",
".{ c #DDDDDD",
".} c #2A2A2A",
".| c #DBDBDB",
"X  c #D9D9D9",
"X. c #262626",
"XX c #D7D7D7",
"Xo c #242424",
"XO c #D5D5D5",
"X+ c #D3D3D3",
"X@ c #202020",
"X# c #D1D1D1",
"X$ c #CFCFCF",
"X% c #1C1C1C",
"X& c #CDCDCD",
"X* c #1A1A1A",
"X= c #CBCBCB",
"X- c #181818",
"X; c #C9C9C9",
"X: c #C7C7C7",
"X> c #141414",
"X, c #C5C5C5",
"X< c #C3C3C3",
"X1 c #101010",
"X2 c #C1C1C1",
"X3 c #0E0E0E",
"X4 c #BDBDBD",
"X5 c #0A0A0A",
"X6 c #BBBBBB",
"X7 c #B9B9B9",
"X8 c #060606",
"X9 c #B7B7B7",
"X0 c #040404",
"Xq c #B5B5B5",
"Xw c #020202",
"Xe c #B3B3B3",
/* pixels */
".S.S.S.S.S.S.S.S.S.S.S.S.S.S.S.S.S.S.S.S.S.S.S.S.S.S.S.S.S.S.S.S.S.S.S.S.S.S.S.S.S.S.S.S.S.S.S.S.S.S.S.S.S.S.^.<.K.S.S.S.S.S.S.S",
".S.S.S.S.S.S.S.S.S.S.S.S.S.S.S.S.S.S.S.S.S.S.S.S.S.S.S.S.S.S.S.S.S.S.S.S.S.S.S.S.S.S.S.S.S.S.S.S.S.S.S.3 9.F.AXw.Q.S.S.S.S.S.S.S",
".S.S.S.S.S.S.S.S.S.S.S.S.S.S.S.S.S.S.S.S.S.S.S.S.S.S.S.S.S.S.S.S.S.S.S.S.S.S.S.S.S.S.S.S.S.S.S.S.S.S.S.g.<.m.A y.:.S.S.S.S.S.S.S",
".S.S.S.S.S.S.S.S.S.S.S.S.S.S.S.S.S.S.S.S.S.S.S.S.S.S.S.S.S.S.S.S.S.S.S.S.S.S.S.S.S.S.S.S.S.S.S.S.S.S.S.gX#.A V ` j.S.S.S.S.S.S.S",
".S.S.S.S.S.S.S.S.S.S.S.S.S.S.S.S.S.S.S.S.S.S.S.S.S.S.S.S.S.S.S.S.S.S.S.S.S.S.S.S.S.S.S.S.S.S.S.S.S.S.S.g U #.`XX g.S.S.S.S.S.S.S",
".S.S.S.S.S.S.S.S.S.S.S.S.S.S.S.S.S.S.S.S.S.S.S.S.S.S.S.S.S.S.S.S.S.S.S.S.S.S.S.S.S.S.S.S.S.S.S.S.S.S.S 8X .S > <.B.S.S.S.S.S.S.S",
".S.S.S.S.S.S.S.S.S.S.S.S.S.S.S.S.S.S.S.S.S.S.S.S.S.S.S.S.S.S.S.S.S.S.S.S.S.S.S.S.S.S.S.S.S.S.S.S.S.S.S.S g.SX .} QXX.S.S.S.S.S.S",
".S.S.S.S.S.S.S.S.S.S.S.S.S.S.S.S.S.S.S.S.S.S.S.S.S.S.S.S.S.S.S.S.S.S.S.S.S.S.S.S.S.S.S.S.S.S.S.S.H G G.q.W m.S y  .q z.S.S.S.S.S",
".S.S.S.S.S.S.S.S.S.S.S.S.S.S.S.S.S.S.S.S.S.S.S.S.S.S.S.S.S.S.S.S.S.S.S.S.S.S.S.S.S.S.S.S.S.S.Q :.d         >.S y     O.S.S.S.S.S",
".S.S.S.S.S.S.S.S.S.S.S.S.S.S.S.S.S.S.S.S.S.S.S.S.S.S.S.S.S.S.S.S.S.S.S.S.S.S.S.S.S.S.S.S.^ :.)      X8 [ | >.S 0Xw  .o.1 z.S.S.S",
".S.S.S.S.S.S.S.S.S.S.S.S.S.S.S.S.S.S.S.S.S.S.S.S.S.S.S.S.S.S.S.S.S.S.S.S.S.S.S.S.S.S.T <X%      .b.h ,.S.].O.S.S.n      .L.S.S.S",
".S.S.S.S.S.S.S.S.S.S.S.S.S.S.S.S.E.].].H.S.S.S.S.S.S.S.S.S.S.S.S.S.S.S.S.S.S.S.S c ;.`  .%X@ S } m.S.S.S.S.S.S.S C.vXw   e.S.S.S",
".S.S.S.S.S.S.S.S.S.S.S.S.S A.r.r 7 q q.t.r.r.r N.S.S.S.S.S.S.S.S.S.S.S.S.S.S.SX&.s     H.e.S.S.S.S.S.S.S.S.S.S.S.S.S.+   k.S.S.S",
".S.S.S.S.S.S.S.S.S.S.SX& M.z ] ]./.S.S ) ] ] ].v g g g g g.i ! ! ! ! ! ! ` g.VX%X0 / +.(.S.S.S.S.S.S.S.S.S.S.S.^ !.T.3 /X1X9.S.S",
".S.S.S.S.S.S.S.S.S B 5.pX7.S.S.S.S.S.S.S.S.S.S.S.S.S.S.S.S (.a.a.a.a.a.a.y.S.I.a 2.S.S.S.S.S.S.S.S.S.S.S.S.S.S y  .Z.K.S.'X#.S.S",
".S.S.S.S.S.S.S.S.Q.j.f m.S.S.S.S.S.S.S.S.S.S.S.S.S.S.S.S.S.S.S.S.S.S.S.S.S.S.S.S.S.S.S.S.S.S.S.S.S.S.S.S.S.S.S.u.*X* N.S g.S.S.S",
".S.S.S.S.S.S.S N 7 U.S.S.S.S.S.S.S.S.S.S.S.S.S.S.S.S.S.S.S.S.S.S.S.S.S.S.S.S.S.S.S.S.S.S.S.S.S.S.S.S +.S.S.S.S.S 1 ].S.S.' `.S.S",
".S.S.S.S.S.S D k.l.S.S.S.S.S.S.S.S.S.S.S.S.S.S.S.S.S.S.S.S.S.S.S.S.S.S.S.S.S.S.S.S.S.S.S.S.S.S.S.S.S.G *.S.S.S.S.S.S.S.S.8.1.S.S",
".S.S.S.S.S m.J  .l.S.S.S.S.S.S.S.S.S.S.S.S.S.S.S.S.S.S.S.S.S.S.S.S.S.S.S.S.S.S.S.S.S.S.S.S.S.S.S.S.$ 9 7 C.S.S.S.S.S.S.S ! 8 z.S",
".S.S.S.S.SX=  .% 1.S.S.S.S.S.S.S.S.S.S.S.S.S.S.S.S.S.S.S.S.S.S.S.S.S.S.S.S.S.S.S.S.S.S.S.S.S.S P.=.4.(.Q.M.i b.S.S.S.S.S.S.a !.S",
".S.S.S.SX;X@   |.S.S.S.S.S.S.S.S.S.S.S.S.S.S.S.S.S.S.S.S.S.S.S.S.S.S.S.S.S.S.S.S.S.S.S.S.S.S J.i %.S.S.S.( Z.zX,.S.S.S.S q e.B.S",
".S.S.S.S.4  X- /.S.S.S.S.S.S.S.S.S.S.S.S.u L.S.S.S.S.S.S.S.S.S.S.S.S.S.S.S.S.S.S.S.S.S.S.S._ 6.T.S.S.S.S.S.EX7 x.g J ^.S Y  .`Xq",
".S.S.S.K M   u g.S.S.S.S.S.S.S.S.S.S.S T I._.S.S.S.S.S.S.S.S.S.S.S.S.S.S.S.S.S.S.S.S.S.S G 7 D.S.S.S.S.S.S.S.S.S U 9 /X;.{.0 v O",
".S.S.S N     u g.S.S.S.S.S.S.S.S.S.S.SX;.i c.S.S.S.S.S.S.S.S.S.S.S.S.S.S.S.S.S.S.S.S.S.S x.5.S.S.S.S.S.S.S.S.S.S.S 1.*.dX+XO k.L",
".S.S.S >  X5X2 g.S.S.S.S.S.S.S.S.S.S.S.t '.S.S.S.S.S.S.S.S.S.S.S.S.S.S.S.S.S.S.S.S.S.S.S g.S.S.S.S.S.S.S.S.S.S.S.S.S r  X@Xo.$.S",
".S.S.S.D  .- r g.S.S.S.S.S.S.S.S.S B.b.x.S.S.S.S.S.S.S.S.S.S.S.S.S.S.S.S.S.S.S.S.S.S.S.S g.S.S.S.S.S.S.S.S.S.S.S.S.S b A A A.S.S",
".S.S.S.D     u . #.S.S.S.S.S.S.S.:.k.5 B.S.S.S.S.S.S.S.S.S.S.S.c {.S.S.S.S.S.S.S.S.S.SX9.~.S.S.S.S.S.S.S.S.S.S.S.S.S.S.S.S.S.S.S",
".S.S @X0  .%.9 C.`. .S.S.S.S.S #.[ l g F.=.L.S.S.S.S.S.S.S.S.SX6Xo.S.S.S.S.S.S.S.S.S m aX,.S.S.S.S.S.S.S.S.S.S.S.S.S.S.S.S.S.S.S",
".S.S $    X1.S.S :X<.S.S.S.S.:.8X#.S.S.> v h s.T.S.S.S.S.S.S.S.S.V -.S.S.S.S.S.S.S.S T x.Q.S.S.S.S.S.S.S.S.S.S.S.S.S.S.S.S.S.S.S",
".S.S $    X1.S.S :X<.S.S.S.Y.M _ ^.S.S.S e R.K i g + X X U.S.S.S.L d.S.S.S.S.S.S.S W.}.f.S.S.S.S.S.S.S.S.S.S.S.S.S.S.S.S.S.S.S.S",
".S.S $    X1.S.S :X<.S.S.S ! j 1.u.S.S.S e._.S.S.S o @ @ w.N.N.N g d.S.S.S.S.S.S.i IX> '.S.S.S.S.S.S.S.S.S.S.S.S.S.S.S.S.S.S.S.S",
".S.S $     v.S.S :X<.S.S.S V.<._ EX .S.S e._.S.S.S.S.S.S z z z z.H.~.;.S.S.S.; / u.q.N.S.S.S.S.S.S.S.S.S.S.S.S.S.S.S.S.S.S.S.S.S",
".S.H K  XwX7.S.T I.X.S.S.F f.S U.i B.S.S e._.S.S.S.S.S.S.S.S.S.S.S.2.;.S.S.#X.X$.S ,X:.S.S.S.S.S.S.S.S.S.S.S.S.S.S.S.S.S.S.S.S.S",
".S b     a.S.S G.l.S.S N.N ].S ).u.S.S.S e._.S.S.S.S.S.S.S.S.S.S.S.2.;.S b pX4.S.S ,X:.S.S.S.S.S.S.S.S.S.S.S.S.S.S.S.S.S.S.S.S.S",
".S b  X3X$.S.S w.h.S.S t.N C.S ).u.S.S ! 4.L.S.S.S.S.S.S.S.S.S.S.S.2.;.S C  X4.S z 2X:.S.S.S.S.S.S.S.S.S.S.S.S.S.S.S.S.S.S.S.S.S",
".S.#  Xe.S.S ^.R.S.S ).U.S.S.S ).u.S.SX;.w.S.S.S.S.S.S.S.S.S.S.S.S.2.;.S .  X4.S.(.} W.S.S.S.S.S.S.S.S.S.S.S.S.S.S.S.S.S.S.S.S.S",
".S.C.D G.S.S.7.q.S D Y.5.S.S.S ).s.F.SX;.w.S.S.S.S.S.S.S.S.S.S.S.S.2.;.S h.kX4.S 7XX.S.S.S.S.S.S.S.S.S.S.S.S.S.S.S.S.S.S.S.S.S.S",
".S.6.S.S.S.S.7.@.S %.h.S.S.S.S.(.) ^.SX;.w.S.S.S.S.S.S.S.S.S.S.S.F 3X#.S g =X4.S g.S.S.S.S.S.S.S.S.S.S.S.S.S.S.S.S.S.S.S.S.S.S.S",
".S.S.S.S.S.S.7.@.S.Z !.S.S.S.S.S.{.u.!.E 0 G.S.S.S.S.S.S.S.S.S.S.H d.S.S g =X4.S g.S.S.S.S.S.S.S.S.S.S.S.S.S.S.S.S.S.S.S.S.S.S.S",
".S.S.S.S.S.S.7.@.S.0.X.S.S.S.S.S.S._.) R.>.<.S.S.S.S.S.S.S.S.S.S.H K.].S g =X4.S g.S.S.S.S.S.S.S.S.S.S.S.S.S.S.S.S.S.S.S.S.S.S.S",
".S.S.S.S.S.S $Xe.S P.h.S.S.S.S.S.S.S.] q.S S.,.S.S.S.S.S.S.S.S.S z 8.;.S g =X4.S g.S.S.S.S.S.S.S.S.S.S.S.S.S.S.S.S.S.S.S.S.S.S.S",
".S.S.S.S.S.S.S g.S P.h.S.S.S.S.S.S.S.S 2X&.X.0.S.S.S.S.S.S.S.S.S.S.2.;XO 6 =X4.S g.S.S.S.S.S.S.S.S.S.S.S.S.S.S.S.S.S.S.S.S.S.S.S",
".S.S.S.S.S.S.SX;.w./.} ).S.S.S.S.S.S.SX; 9.E w.Q.S.S.S.S.S.S.S.S.S.2.; &X9 =X4.S g.S.S.S.S.S.S.S.S.S.S.S.S.S.S.S.S.S.S.S.S.S.S.S",
".S.S.S.S.S.S.S.Y.p._ < }.S.S.S.S.S.S.S U K._ . #.S.S.S.S.S.S.S.S.S.2.; &X9 =X4.S g.S.S.S.S.S.S.S.S.S.S.S.S.S.S.S.S.S.S.S.S.S.S.S",
".S.S.S.S.S.S.S.S : O.^ y D.S.S.S.S.S.S.S eX=.S i C.S.S.S.S.S.S.S.S.2.; &X9 =X4.S g.S.S.S.S.S.S.S.S.S.S.S.S.S.S.S.S.S.S.S.S.S.S.S",
".S.S.S.S.S.S.S.SX:.~.S.r q.S.S.S.S.S.S.S.&.JX7 p.A.L.S.S.S.S.S.S.S.2.;X& 2 =X4.S g.S.S.S.S.S.S.S.S.S.S.S.S.S.S.S.S.S.S.S.S.S.S.S",
".S.S.S.S.S.S.S.S.S.m.d.| EX6.S.S.S.S.S.S.S.U..     `.S.S.S.S.S.S.S.2.8.S.V > Z.S h J.S.S.S.S.S.S.S.S.S.S.S.S.S.S.S.S.S.S.S.S.S.S",
".S.S.S.S.S.S.S.S.S B n.$.P /.S.S.S.S.S.S.S U.i.i.i $.S.S.S.S.S.S.S `.`.S.5.x lXq.0.~._.S.S.S.S.S.S.S.S.S.S.S.S.S.S.S.S.S.S.S.S.S",
".S.S.S.S.S.S.S.S.S.S <X*  X8 >.S.S.S.S.S.S.S.S.S.S.S.S.S.S.S.S.S.S.S.k u L.[ 8.[Xo  .<.S.S.S.S.S.S.S.S.S.S.S.S.S.S.S.S.S.S.S.S.S",
".S.S.S.S.S.S.S.S.S.SX;.t.t.tX2.S.S.S.S.S.S.S.S.S.S.S.S.S.S.S.S.S.S.S b hX9 =X> {.t.t ;.S.S.S.S.S.S.S.S.S.S.S.S.S.S.S.S.S.S.S.S.S",
".S.S.S.S.S.S.S.S.S.S.S.S.S.S.S.S.S.S.S.S.S.S.S.S.S.S.S.S.S.S.S.S.S.S.S.; ~X>.* 7.S.S.S.S.S.S.S.S.S.S.S.S.S.S.S.S.S.S.S.S.S.S.S.S",
".S.S.S.S.S.S.S.S.S.S.S.S.S.S.S.S.S.S.S.S.S.S.S.S.S.S.S.S.S.S.S.S.S.S.S.S.J     t.S.S.S.S.S.S.S.S.S.S.S.S.S.S.S.S.S.S.S.S.S.S.S.S"
};
