/* XPM */
static char *ezel-r[] = {
/* width height ncolors chars_per_pixel */
"64 53 230 2",
/* colors */
"   c #000000",
" . c #B1B1B1",
" X c #AFAFAF",
" o c #ADADAD",
" O c #ABABAB",
" + c #A9A9A9",
" @ c #A7A7A7",
" # c #A5A5A5",
" $ c #A3A3A3",
" % c #A1A1A1",
" & c #9F9F9F",
" * c #9D9D9D",
" = c #9B9B9B",
" - c #999999",
" ; c #959595",
" : c #939393",
" > c #919191",
" , c #8F8F8F",
" < c #8D8D8D",
" 1 c #8B8B8B",
" 2 c #898989",
" 3 c #878787",
" 4 c #858585",
" 5 c #838383",
" 6 c #818181",
" 7 c #7D7D7D",
" 8 c #7B7B7B",
" 9 c #797979",
" 0 c #777777",
" q c #717171",
" w c #6F6F6F",
" e c #6D6D6D",
" r c #6B6B6B",
" t c #696969",
" y c #676767",
" u c #656565",
" i c #636363",
" p c #5F5F5F",
" a c #5D5D5D",
" s c #5B5B5B",
" d c #595959",
" f c #575757",
" g c #555555",
" h c #535353",
" j c #515151",
" k c #4F4F4F",
" l c #FEFEFE",
" z c #4B4B4B",
" x c #FCFCFC",
" c c #494949",
" v c #FAFAFA",
" b c #474747",
" n c #F8F8F8",
" m c #454545",
" M c #F6F6F6",
" N c #434343",
" B c #F4F4F4",
" V c #F2F2F2",
" C c #3F3F3F",
" Z c #F0F0F0",
" A c #3D3D3D",
" S c #EEEEEE",
" D c #3B3B3B",
" F c #ECECEC",
" G c #393939",
" H c #EAEAEA",
" J c #373737",
" K c #E8E8E8",
" L c #353535",
" P c #E6E6E6",
" I c #333333",
" U c #E4E4E4",
" Y c #313131",
" T c #E2E2E2",
" R c #2F2F2F",
" E c #E0E0E0",
" W c #DEDEDE",
" Q c #2B2B2B",
" ! c #DCDCDC",
" ~ c #292929",
" ^ c #DADADA",
" / c #272727",
" ( c #D8D8D8",
" ) c #252525",
" _ c #D6D6D6",
" ` c #232323",
" ' c #D4D4D4",
" ] c #D2D2D2",
" [ c #1F1F1F",
" { c #D0D0D0",
" } c #1D1D1D",
" | c #CECECE",
".  c #1B1B1B",
".. c #CCCCCC",
".X c #191919",
".o c #CACACA",
".O c #171717",
".+ c #C8C8C8",
".@ c #151515",
".# c #C6C6C6",
".$ c #131313",
".% c #C4C4C4",
".& c #111111",
".* c #0F0F0F",
".= c #C0C0C0",
".- c #0D0D0D",
".; c #BEBEBE",
".: c #0B0B0B",
".> c #090909",
"., c #BABABA",
".< c #B8B8B8",
".1 c #050505",
".2 c #B6B6B6",
".3 c #030303",
".4 c #B4B4B4",
".5 c #010101",
".6 c #B2B2B2",
".7 c #B0B0B0",
".8 c #AEAEAE",
".9 c #ACACAC",
".0 c #AAAAAA",
".q c #A8A8A8",
".w c #A4A4A4",
".e c #A2A2A2",
".r c #A0A0A0",
".t c #9E9E9E",
".y c #9C9C9C",
".u c #9A9A9A",
".i c #989898",
".p c #969696",
".a c #949494",
".s c #929292",
".d c #909090",
".f c #8E8E8E",
".g c #8C8C8C",
".h c #8A8A8A",
".j c #888888",
".k c #868686",
".l c #828282",
".z c #808080",
".x c #7E7E7E",
".c c #7C7C7C",
".v c #7A7A7A",
".b c #787878",
".n c #767676",
".m c #747474",
".M c #727272",
".N c #707070",
".B c #6E6E6E",
".V c #6C6C6C",
".C c #6A6A6A",
".Z c #686868",
".A c #646464",
".S c #626262",
".D c #606060",
".F c #5E5E5E",
".G c #5C5C5C",
".H c #5A5A5A",
".J c #585858",
".K c #545454",
".L c #525252",
".P c #505050",
".I c #4E4E4E",
".U c #FFFFFF",
".Y c #4C4C4C",
".T c #FDFDFD",
".R c #4A4A4A",
".E c #FBFBFB",
".W c #484848",
".Q c #F9F9F9",
".! c #464646",
".~ c #F7F7F7",
".^ c #444444",
"./ c #F5F5F5",
".( c #424242",
".) c #F3F3F3",
"._ c #404040",
".` c #F1F1F1",
".' c #3E3E3E",
".] c #EFEFEF",
".[ c #3C3C3C",
".{ c #EDEDED",
".} c #3A3A3A",
".| c #EBEBEB",
"X  c #383838",
"X. c #E9E9E9",
"XX c #363636",
"Xo c #343434",
"XO c #E5E5E5",
"X+ c #E3E3E3",
"X@ c #303030",
"X# c #E1E1E1",
"X$ c #2E2E2E",
"X% c #DFDFDF",
"X& c #2C2C2C",
"X* c #DDDDDD",
"X= c #2A2A2A",
"X- c #DBDBDB",
"X; c #282828",
"X: c #D9D9D9",
"X> c #262626",
"X, c #D7D7D7",
"X< c #242424",
"X1 c #D3D3D3",
"X2 c #D1D1D1",
"X3 c #1E1E1E",
"X4 c #CFCFCF",
"X5 c #1C1C1C",
"X6 c #CDCDCD",
"X7 c #181818",
"X8 c #C9C9C9",
"X9 c #C7C7C7",
"X0 c #141414",
"Xq c #C5C5C5",
"Xw c #121212",
"Xe c #C3C3C3",
"Xr c #101010",
"Xt c #C1C1C1",
"Xy c #0E0E0E",
"Xu c #BFBFBF",
"Xi c #BDBDBD",
"Xp c #BBBBBB",
"Xa c #080808",
"Xs c #B9B9B9",
"Xd c #060606",
"Xf c #B7B7B7",
"Xg c #040404",
"Xh c #B5B5B5",
"Xj c #020202",
"Xk c #B3B3B3",
/* pixels */
".U.U.U.U.U.U.U.U.U.U.U.U.U.U.U.U.U.U.U.U.U.U.U.U.U.U.U.U.U.U.U.U.U.U.U.U.U.U.U.U.U.U.U.U.U.U.U.U.U.U.UX..8 nX1.O 6.U.U.U.U.U.U.U",
".U.U.U.U.U.U.U.U.U.U.U.U.U.U.U.U.U.U.U.U.U.U.U.U.U.U.U.U.U.U.U.U.U.U.U.U.U.U.U.U.U.U.U.U.U.U.U.U.U.U.U.,.D.j.m w 6.U.U.U.U.U.U.U",
".U.U.U.U.U.U.U.U.U.U.U.U.U.U.U.U.U.U.U.U.U.U.U.U.U.U.U.U.U.U.U.U.U.U.U.U.U.U.U.U.U.U.U.U.U.U.U.U.U.U.U.,.p.R.1Xp ~ '.U.U.U.U.U.U",
".U.U.U.U.U.U.U.U.U.U.U.U.U.U.U.U.U.U.U.U.U.U.U.U.U.U.U.U.U.U.U.U.U.U.U.U.U.U.U.U.U.U.U.U.U.U.U.U.U.U.U.,.pXq  X*.x ].U.U.U.U.U.U",
".U.U.U.U.U.U.U.U.U.U.U.U.U.U.U.U.U.U.U.U.U.U.U.U.U.U.U.U.U.U.U.U.U.U.U.U.U.U.U.U.U.U.U.U.U.U.U.U.U.U.U.,.p v 1.!.x ].U.U.U.U.U.U",
".U.U.U.U.U.U.U.U.U.U.U.U.U.U.U.U.U.U.U.U.U.U.U.U.U.U.U.U.U.U.U.U.U.U.U.U.U.U.U.U.U.U.U.U.U.U.U.U.U.U.U E 7 V.U JX  ].U.U.U.U.U.U",
".U.U.U.U.U.U.U.U.U.U.U.U.U.U.U.U.U.U.U.U.U.U.U.U.U.U.U.U.U.U.U.U.U.U.U.U.U.U.U.U.U.U.U.U.U.U.U.U.U.U.U V g K.U.,  .}.U.U.U.U.U.U",
".U.U.U.U.U.U.U.U.U.U.U.U.U.U.U.U.U.U.U.U.U.U.U.U.U.U.U.U.U.U.U.U.U.U.U.U.U.U.U.U.U.U.U.U.U.U.U.U.U 7.c s  .f.U {  XwXs.U.U.U.U.U",
".U.U.U.U.U.U.U.U.U.U.U.U.U.U.U.U.U.U.U.U.U.U.U.U.U.U.U.U.U.U.U.U.U.U.U.U.U.U.U.U.U.U.U.U.U Z ] Q Q        .}.U {    X0.2.U.U.U.U",
".U.U.U.U.U.U.U.U.U.U.U.U.U.U.U.U.U.U.U.U.U.U.U.U.U.U.U.U.U.U.U.U.U.U.U.U.U.U.U.U.U.U.U.U.w.L          .M.b m.U P D    Xy.,.U.U.U",
".U.U.U.U.U.U.U.U.U.U.U.U.U.U.U.U.U.U.U.U.U.U.U.U.U.U.U.U.U.U.U.U.U.U.U.U.U.U.U.U.U VX4XX.-  .5X5.dX8X8 x.U ^.U.U UXX    .D n.U.U",
".U.U.U.U.U.U.U.U.U.U.U.U.U.U.UX:.s.s _.U.U.U.U.U.U.U.U.U.U.U.U.U.U.U.U.U.U.U.U.U S.Y    Xa e.M.U.U.U.U.U.U.U.U.U.U H D    Xi.U.U",
".U.U.U.U.U.U.U.U.U.U.T SX+ j j 0XuXu 8 j j j # S S S S S S v.U.U.U.U.U.U.E S S :XX  Xy a.%.U.U.U.U.U.U.U.U.U.U.U.U.U >Xg   ..U.U",
".U.U.U.U.U.U.U.U.U.U.rX=.B.U.U.U.U.U.U.U.U.U O i i i i i i <.y.y.y.y.y.y.f i k  Xr i E.U.U.U.U.U.U.U.U.U.U.U.U.{.y.0.U 4 G.*.U.U",
".U.U.U.U.U.U.U.U E.I & '.U.U.U.U.U.U.U.U.U.U.U.U.U.U.U.U.U.+.4.4.4.4.4.4.#.U Z.4.=.U.U.U.U.U.U.U.U.U.U.U.U.U.U {  .:.t.U.a.h.U.U",
".U.U.U.U.U.U.U ] u @.U.U.U.U.U.U.U.U.U.U.U.U.U.U.U.U.U.U.U.U.U.U.U.U.U.U.U.U.U.U.U.U.U.U.U.U.U.U.U.U.U.U.U.U.U EX&.- #.U.aXi.U.U",
".U.U.U.U.U.U W 6.`.U.U.U.U.U.U.U.U.U.U.U.U.U.U.U.U.U.U.U.U.U.U.U.U.U.U.U.U.U.U.U.U.U.U.U.U.U.U.U.U.U.a.~.U.U.U.U 'Xh.U.U.a.R.U.U",
".U.U.U.U.U '.X 5.U.U.U.U.U.U.U.U.U.U.U.U.U.U.U.U.U.U.U.U.U.U.U.U.U.U.U.U.U.U.U.U.U.U.U.U.U.U.U.U.U.U , z.U.U.U.U.U.U.U.U.T.P.U.U",
".U.U.U.U ^ Q   5.U.U.U.U.U.U.U.U.U.U.U.U.U.U.U.U.U.U.U.U.U.U.U.U.U.U.U.U.U.U.U.U.U.U.U.U.U.U.U.U.UX6.D 1.;.U.U.U.U.U.U.U.U.4.y.U",
".U.U.U.U.p  .- $.U.U.U.U.U.U.U.U.U.U.U.U.U.U.U.U.U.U.U.U.U.U.U.U.U.U.U.U.U.U.U.U.U.U.U.U.U.U.U KXi 5 Z v.s AX#.U.U.U.U.U.U B q.|",
".U.U.U @.>   Y.U.U.U.U.U.U.U.U.U.U.U.U.U.U.U.U.U.U.U.U.U.U.U.U.U.U.U.U.U.U.U.U.U.U.U.U.U.U.U v 9.a l.U.U.U.c D.k.U.U.U.UXt r.(.6",
".U.U.U y   [X .U.U.U.U.U.U.U.U.U.U.U.UXe &.U.U.U.U.U.U.U.U.U.U.U.U.U.U.U.U.U.U.U.U.U.U.U.UX..b S.U.U.U.U.U.QXO.K j.,XO.) O.*.@ `",
".U.UX:X@   < j.U.U.U.U.U.U.U.U.U.U.U.U p.a.U.U.U.U.U.U.U.U.U.U.U.U.U.U.U.U.U.U.U.U.U.U.U./.xX*.U.U.U.U.U.U.U.U.U.U = C.C.U.q.lX<",
".U.U.<     < j.U.U.U.U.U.U.U.U.U.U.U.U.W Z.U.U.U.U.U.U.U.U.U.U.U.U.U.U.U.U.U.U.U.U.U.U.U.H.z.U.U.U.U.U.U.U.U.U.U.UX#X7.@ ].`.l -",
".U.U.S  X3.# j.U.U.U.U.U.U.U.U.U.U.U.7.r.U.U.U.U.U.U.U.U.U.U.U.U.U.U.U.U.U.U.U.U.U.U.U.U j.U.U.U.U.U.U.U.U.U.U.U.U.U.%X5   fX@ (",
".U.U.:  .:.e j.U.U.U.U.U.U.U.U.U.U + / V.U.U.U.U.U.U.U.U.U.U.U.U.U.U.U.U.U.U.U.U.U.U.U.U j.U.U.U.U.U.U.U.U.U.U.U.U.U.U ^ { { T.U",
".U.U.:     <.h.#.U.U.U.U.U.U.UX, 1.m.o.U.U.U.U.U.U.U.U.U.U.U '.g.U.U.U.U.U.U.U.U.U.U.U.. L.U.U.U.U.U.U.U.U.U.U.U.U.U.U.U.U.U.U.U",
".U 6Xj  Xd.i ] ~ W.U.U.U.U.U HX$X7.P NX*./.U.U.U.U.U.U.U.U.U H.I 8.U.U.U.U.U.U.U.U.U x.l.u.U.U.U.U.U.U.U.U.U.U.U.U.U.U.U.U.U.U.U",
".U.G    .[.U.U.c '.U.U.U.U _.n *.U.U.e.I f.p |.U.U.U.U.U.U.U.U.T Y ^.U.U.U.U.U.U.U.UX#X$X-.U.U.U.U.U.U.U.U.U.U.U.U.U.U.U.U.U.U.U",
".U.G    .[.U.U.c '.U.U.U l.aXo M.U.U.UXi.VXp.l j % V V.).U.U.U l.x #.U.U.U.U.U.U.U.Q p.N.U.U.U.U.U.U.U.U.U.U.U.U.U.U.U.U.U.U.U.U",
".U.G    .[.U.U.c '.U.U.U SX<.G.J.U.U.UXi.a.U.U.U X.F.F.A % % % %.V #.U.U.U.U.U.U.7.K.:.w.U.U.U.U.U.U.U.U.U.U.U.U.U.U.U.U.U.U.U.U",
".U.G     A.U.U.c '.U.U.U.n.A.Q }.%.U.UXi.a.U.U.U.U.U.U n.7.7.7.7 0Xo.Q.U.U.U ^.PX=.G [.U.U.U.U.U.U.U.U.U.U.U.U.U.U.U.U.U.U.U.U.U",
" U.'     H.U.] h '.U.U.U j.U.T <.#.U.UXi.a.U.U.U.U.U.U.U.U.U.U.U.U.H.~.U.U { ) o.U 4...U.U.U.U.U.U.U.U.U.U.U.U.U.U.U.U.U.U.U.U.U",
".8    .S.~.U | g Z.U.U.<.i.U.Q.J.U.U.UXi.a.U.U.U.U.U.U.U.U.U.U.U.U.H.~.U.U w.w.U.U 4...U.U.U.U.U.U.U.U.U.U.U.U.U.U.U.U.U.U.U.U.U",
".8  X0.2.U.U.y 5.U.U.6X<X2.U.Q.J.U.U.U.tXk.U.U.U.U.U.U.U.U.U.U.U.U.H.~.UXe.3X#.U.U 4...U.U.U.U.U.U.U.U.U.U.U.U.U.U.U.U.U.U.U.U.U",
".8  .7.U.U.U.' |.U.U.!Xq.U.U.Q.J.U.U.U j.U.U.U.U.U.U.U.U.U.U.U.U.U.H.~.UXt  X#.U P L...U.U.U.U.U.U.U.U.U.U.U.U.U.U.U.U.U.U.U.U.U",
".-X;.~.U.U.c.F.U M w.R.U.U.U.Q.J.U.U.U j.U.U.U.U.U.U.U.U.U.U.U.U.U.H.~.U R. X#.U.2 >.E.U.U.U.U.U.U.U.U.U.U.U.U.U.U.U.U.U.U.U.U.U",
"X$X,.U.U.U.MX%.U (.^ K.U.U.U.QX>X4.U.U j.U.U.U.U.U.U.U.U.U.U.U.U.U.H.~.U j wX#.U j.U.U.U.U.U.U.U.U.U.U.U.U.U.U.U.U.U.U.U.U.U.U.U",
".|.U.U.U.U.MX%.U b.a.U.U.U.U l #.i l.U yX..U.U.U.U.U.U.U.U.U.U.UXh.y l.U j wX#.U j.U.U.U.U.U.U.U.U.U.U.U.U.U.U.U.U.U.U.U.U.U.U.U",
".U.U.U.U.U.MX%.U j.U.U.U.U.U.U.U.8.vX6Xi.a.U.U.U.U.U.U.U.U.U.U.U O #.U.U j wX#.U j.U.U.U.U.U.U.U.U.U.U.U.U.U.U.U.U.U.U.U.U.U.U.U",
".U.U.U.U.U.MX%.UXe.f.U.U.U.U.U.U.U.e ; V.M |.U.U.U.U.U.U.U.U.U.UXs ~ n.U j wX#.U j.U.U.U.U.U.U.U.U.U.U.U.U.U.U.U.U.U.U.U.U.U.U.U",
".U.U.U.U.UXh =.U (.b.U.U.U.U.U.U.U.U.D Z.6.^.U.U.U.U.U.U.U.U.U.U.U.H.~.U j wX#.U j.U.U.U.U.U.U.U.U.U.U.U.U.U.U.U.U.U.U.U.U.U.U.U",
".U.U.U.U.U.U.D Z (.C.Q.U.U.U.U.U.U.UX% q.U p.`.U.U.U.U.U.U.U.U.U.U.H.~ 5X6 wX#.U j.U.U.U.U.U.U.U.U.U.U.U.U.U.U.U.U.U.U.U.U.U.U.U",
".U.U.U.U.U.U | 5X. DX8.U.U.U.U.U.U.U.UXo {X9 2.U.U.U.U.U.U.U.U.U.U.H.~ u F wX#.U j.U.U.U.U.U.U.U.U.U.U.U.U.U.U.U.U.U.U.U.U.U.U.U",
".U.U.U.U.U.U.).xX%.dXt.U.U.U.U.U.U.U.U.s.a.` 8X+.U.U.U.U.U.U.U.U.U.H.~ u F wX#.U j.U.U.U.U.U.U.U.U.U.U.U.U.U.U.U.U.U.U.U.U.U.U.U",
".U.U.U.U.U.U.U.c ,.U.!Xq.U.U.U.U.U.U.UXi d./.9.w.U.U.U.U.U.U.U.U.U.H.~ u F wX#.U j.U.U.U.U.U.U.U.U.U.U.U.U.U.U.U.U.U.U.U.U.U.U.U",
".U.U.U.U.U.U.U ^.^ v . t.T.U.U.U.U.U.U F.YXf c.O $.U.U.U.U.U.U.U.U.H.~X1.x wX-.U j.U.U.U.U.U.U.U.U.U.U.U.U.U.U.U.U.U.U.U.U.U.U.U",
".U.U.U.U.U.U.U.U.Z.I ^ I 6.U.U.U.U.U.U.U &.>    .L S.U.U.U.U.U.U.U.HXs.U D 8.'.U N {.U.U.U.U.U.U.U.U.U.U.U.U.U.U.U.U.U.U.U.U.U.U",
".U.U.U.U.U.U.U.U V sXf R.&.U.U.U.U.U.U.U.U.4.9.9.9 Z.U.U.U.U.U.U.UX8 k.U.j.d R o.tX; !.U.U.U.U.U.U.U.U.U.U.U.U.U.U.U.U.U.U.U.U.U",
".U.U.U.U.U.U.U.U.U 3.5    .A.U.U.U.U.U.U.U.U.U.U.U.U.U.U.U.U.U.U.U.U C r |X< 3 /Xj  .p.U.U.U.U.U.U.U.U.U.U.U.U.U.U.U.U.U.U.U.U.U",
".U.U.U.U.U.U.U.U.UX1 % % %Xq.U.U.U.U.U.U.U.U.U.U.U.U.U.U.U.U.U.U.U.U U._ F wXo | % %.9.U.U.U.U.U.U.U.U.U.U.U.U.U.U.U.U.U.U.U.U.U",
".U.U.U.U.U.U.U.U.U.U.U.U.U.U.U.U.U.U.U.U.U.U.U.U.U.U.U.U.U.U.U.U.U.U.U.f.&Xd.3 1.U.U.U.U.U.U.U.U.U.U.U.U.U.U.U.U.U.U.U.U.U.U.U.U",
".U.U.U.U.U.U.U.U.U.U.U.U.U.U.U.U.U.U.U.U.U.U.U.U.U.U.U.U.U.U.U.U.U.U.U.U.$     4.U.U.U.U.U.U.U.U.U.U.U.U.U.U.U.U.U.U.U.U.U.U.U.U"
};
