/* XPM */
static char *fee-r[] = {
/* width height ncolors chars_per_pixel */
"64 43 135 2",
/* colors */
"   c #B1B1B1",
" . c #AFAFAF",
" X c #ADADAD",
" o c #ABABAB",
" O c #A9A9A9",
" + c #A7A7A7",
" @ c #A3A3A3",
" # c #A1A1A1",
" $ c #9F9F9F",
" % c #9B9B9B",
" & c #999999",
" * c #979797",
" = c #939393",
" - c #8F8F8F",
" ; c #8D8D8D",
" : c #878787",
" > c #858585",
" , c #7F7F7F",
" < c #7D7D7D",
" 1 c #737373",
" 2 c #6F6F6F",
" 3 c #6D6D6D",
" 4 c #6B6B6B",
" 5 c #676767",
" 6 c #616161",
" 7 c #5D5D5D",
" 8 c #595959",
" 9 c #575757",
" 0 c #535353",
" q c #FEFEFE",
" w c #FCFCFC",
" e c #FAFAFA",
" r c #474747",
" t c #F8F8F8",
" y c #F6F6F6",
" u c #F4F4F4",
" i c #F2F2F2",
" p c #F0F0F0",
" a c #EEEEEE",
" s c #ECECEC",
" d c #393939",
" f c #EAEAEA",
" g c #E8E8E8",
" h c #E6E6E6",
" j c #E4E4E4",
" k c #E0E0E0",
" l c #DEDEDE",
" z c #2B2B2B",
" x c #DADADA",
" c c #D8D8D8",
" v c #252525",
" b c #D6D6D6",
" n c #D4D4D4",
" m c #D2D2D2",
" M c #D0D0D0",
" N c #CECECE",
" B c #CCCCCC",
" V c #CACACA",
" C c #C8C8C8",
" Z c #C6C6C6",
" A c #C4C4C4",
" S c #C2C2C2",
" D c #C0C0C0",
" F c #BEBEBE",
" G c #BCBCBC",
" H c #BABABA",
" J c #B8B8B8",
" K c #B6B6B6",
" L c #B4B4B4",
" P c #B2B2B2",
" I c #B0B0B0",
" U c #AEAEAE",
" Y c #AAAAAA",
" T c #A8A8A8",
" R c #A6A6A6",
" E c #A4A4A4",
" W c #A2A2A2",
" Q c #A0A0A0",
" ! c #9C9C9C",
" ~ c #9A9A9A",
" ^ c #989898",
" / c #949494",
" ( c #909090",
" ) c #8E8E8E",
" _ c #848484",
" ` c #828282",
" ' c #808080",
" ] c #7E7E7E",
" [ c #747474",
" { c #707070",
" } c #6C6C6C",
" | c #666666",
".  c #646464",
".. c #525252",
".X c #FFFFFF",
".o c #4C4C4C",
".O c #FDFDFD",
".+ c #4A4A4A",
".@ c #FBFBFB",
".# c #484848",
".$ c #F9F9F9",
".% c #F7F7F7",
".& c #F5F5F5",
".* c #F1F1F1",
".= c #EFEFEF",
".- c #EDEDED",
".; c #EBEBEB",
".: c #E9E9E9",
".> c #363636",
"., c #E7E7E7",
".< c #E5E5E5",
".1 c #E3E3E3",
".2 c #E1E1E1",
".3 c #DDDDDD",
".4 c #DBDBDB",
".5 c #D9D9D9",
".6 c #D7D7D7",
".7 c #D5D5D5",
".8 c #D3D3D3",
".9 c #D1D1D1",
".0 c #CFCFCF",
".q c #CBCBCB",
".w c #181818",
".e c #C9C9C9",
".r c #C7C7C7",
".t c #C5C5C5",
".y c #C3C3C3",
".u c #C1C1C1",
".i c #BFBFBF",
".p c #BDBDBD",
".a c #BBBBBB",
".s c #B9B9B9",
".d c #B7B7B7",
".f c #B5B5B5",
".g c #B3B3B3",
/* pixels */
".X.X.X.X.X.X.X.X.X.X.X.X.X.X.X.X.X.X.X.X.X.X.X.X.X.X.X.X.X.X.X.X.X.X.X.X.X.X.X.X.X.X.X.X.X.X.X.X.X.X.X.X.X.X.X.X.X.X.X.X.X.X.X.X",
".X.X.X.X.X.X.X.X.X.X.X.X.X.X.X.X.X.X.X.X.X.X.X.X.X.X.X.X.X.X.X.X.X.X.X.X (.X.X.X.X.X.X.X.X.X.X.X.X.X.X.X.X.X.X.X.X.X.X.X.X.X.X.X",
".X.X.X.X.X.X.X.X.X.X.X.X.X.X.X.X.X.X.X.X.X.X.X.X.X.X.X.X.X.X.X.X.X.X.X m <.X.X.X.X.X.X.X.X.X.X.X.X.X.X.X.X.X.X.X.X.X.X.X.X.X.X.X",
".X.X.X.X.X.X.X.X.X.X.X.X.X.X.X.X.X.X.X.X.X.X.X.X.X.X.X.X.X.X.X.X.X.X t Z.  B.X.X.X.X.X.X.X.X.X.X.X.X.X.X.X.X.X.X.X.X.X.X.X.X.X.X",
".X.X.X.X.X.X.X.X.X.X.X.X.X.X.X.X.X.X.X.X.X.X.X.X.X.X.X.X.X.X.X.X.X.X C o ! F.X.X.X.X.X.X.X.X.X.X.X.X.X.X.X.X.X.X.X.X.X.X.X.X.X.X",
".X.X.X.X.X.X.X.X.X.X.X.X.X.X.X.X.X.X.X.X.X.X.X.X.X.X.X.X.X.X.X.q J 3 -.6 ].;.X.X.X.X.X.X.X.X.X.X.X.X.X.X.X.X.X.X.X.X.X.X.X.X.X.X",
".X.X.X.X.X.X.X.X.X.X.X.X.X.X.X.X.X.X.X.X.X.X.X.X.X.X.X.X.X.% I A *.w d v.1.X.X.X.X c ;.X.X.X.X.X.X.X.X.X.X.X.X.X.X.X.X.X.X.X.X.X",
".X.X.X.X.X.X.X.X.X.X.X.X.X.X.X.X.X.X.X.X.X.X.X.X.X.X.X.X.%.i C } ' ).> 5 y.X.X.*.X.<  .X.X ~ x.X.X.X.X.X.X.X.X.X.X.X.X.X.X.X.X.X",
".X.X.X.X.X.X.X.X.X.X.X.X.X.X.X.X.X.X.X.X.X.X.X.X.X.X.X.X D q 6.  Q + =.+.&.X.:.o s.X.X.X.X.;.O.X.X.X.X.X.X.X.X.X.X.X.X.X.X.X.X.X",
".X.X.X.X.X.X.X.X.X.X.X.X.X.X.X.X.X.X.X.X.X.X.X.X.X.X.X c h.e | 8 ~ l.0  .X.X.X f q.X.X.X.X.X.X.X.X.X.X.X.X.X.X.X.X.X.X.X.X.X.X.X",
".X.X.X.X.X.X.X.X.X.X.X.X.X.X.X.X.X.X.X.X.X.X.X.X.X.X.%.r.= ' 1 0 x < ^ q.X.X.X.X.X.X.X.X.X.X.X.X g F.X.X.X.X.X.X.X.X.X.X.X.X.X.X",
".X.X.X.X.X.X.X.X.X.X.X.X.X.X.X.X.X.X.X.X.X.X.X.X.X.X.r.%.r 1.> K &.a.X.X.X e M ` A.X.X.X.X f.p.X @ P.X.X.X.X.X.X.X.X.X.X.X.X.X.X",
".X.X.X.X.X.X.X.X.X.X.X.X.X.X.X.X.X.X.X.X.X.X.X.X.X.:.7.X 3 r !.X U 1 A l B Q.. z g.X.X.@ R { a.X.X.X.X.X.X.X.X.X.X.X.X.X.X.X.X.X",
".X.X.X.X.X.X.X.X.X.X.X.X.X.X.X.X.X.X.X.X.X.X.X.X.%.d.X.6.,.i.i.X.O ` G G * K E D.X.X B > c.X.X.X.X.X.X.X.X.X.X.X.X.X.X.X.X.X.X.X",
".X.X.X.X.X.X.X.X.X.X.X.X.X.X.X.X.X.X.X.X.X.X.X.; C q.X.i.X.i.g.X.X ..i B b y.X g [.# $.O.X.X.X.X.@ 9.&.X.X.X.X.X.X.X.X.X.X.X.X.X",
".X.X.X.X.X.X.X.X.X.X.X.X.X.X.X.X.X.X.X.X.X.X.-.i q.X.X.i.X.i ,.X.X u % %.i.i.g I l <.O.X.X.X.X.X.X., w.X.X.X.X.X.X.X.X.X.X.X.X.X",
".X.X.X.X.X.X.X.X.X.X.X.X.X.X.X.X.X.X g ).i.i.r q.X.X M H j $.  i.X.X.X.X.X.- @ T ..3.X.X.X.X.X.X.X.X.X.X.X.X.X.X.X.X.X.X.X.X.X.X",
".X.X.X.X.X.X.X.X.X.X.X.X.X.X.X.X.X.X.X p U.X.X.X.X.X.p S 4 7 ].s.X.X.X.X.X W.u w.X.X.X.X.X.X.X.X.X.X.X.X.X.X.X.X.X.X.X.X.X.X.X.X",
".X.X.X.X.X.X.X.X.X.X.X.X.X.X.X.X.X.X.X.X.<.5.X.X.X.9.-.X.4 X #.i.X.X.X.X.X 2.X.X.X.X.X.X.X.X.X I *.X.X.X.X.X.X.X.X.X.X.X.X.X.X.X",
".X.X.X.X.X.X.X.X.X.X.X.X.X.X.X.X.X.X.X.X.X.i.X.X x n.X.X.X x j O e.X.X.X e _.X.X.X.X.X.X.X.X.X a Z.X.X.X.X.X.X.X.X.X.X.X.X.X.X.X",
".X.X.X.X.X.X.X.X.X.X.X.X.X.X.X.X.X.X.X.X.X.i.X V j.X.X.X.X.i.X.,.r.X.X.X j ~.X.X.X.X.X.X.X.X.X.X.X.X.X.X.X.X.X.X.X.X.X.X.X.X.X.X",
".X.X.X.X.X.X.X.X.X.X.X.X.X.X.X.X.X.X.X.X.X U.u u.X.X.X.X p N.X.X G m.X.X O.f.X.X.X.X.X.X.X.X.X.X.X.X.X.X.X.X.X.X.X.X.X.X.X.X.X.X",
".X.X.X.X.X.X.X.X.X.X.X.X.X.X.X.X.X.X.X.X.X I.O.X.X.X.X.X.e.&.X.X.X.f n.X / x.X.X.X.X.X.X.X.X.X.X.X.X.X.X.X.X.X.X.X.X.X.X.X.X.X.X",
".X.X.X.X.X.X.X.X.X.X.X.X.X.X.X.X.X.X.X.X.X.X.X.X.X.X.X.$.t.X.X.X.X.X L.& : w.X.X.X.X.X.X.X.X.X.X.X.X.X.X.X.X.X.X.X.X.X.X.X.X.X.X",
".X.X.X.X.X.X.X.X.X.X.X.X.X.X.X.X.X.X.X.X.X.X.X.X.X.X.X S w.X.X.X.X.X.& ; %.X.X.X.X.X.X.X.X.X.X.X.X.X.X.X.X.X.X.X.X.X.X.X.X.X.X.X",
".X.X.X.X.X.X.X.X.X.X.X.X.X.X.X.X.X.X.X.X.X.X.X.X.X.X.$.t.X.X.X.X.X.X.X c O.X.X.X.X.X.X.X.X.X.X.X.X.X.X.X.X.X.X.X.X.X.X.X.X.X.X.X",
".X.X.X.X.X.X.X.X.X.X.X.X.X.X.X.X.X.X.X.X.X.X.X.X.X.X C y.X.X.X.X.X.X.X.X.i.X.X.X.X.X.X.X.X.X.X.X.X.X.X.X.X.X.X.X.X.X.X.X.X.X.X.X",
".X.X.X.X.X.X.X.X.X.X.X.X.X.X.X.X.X.X.X.X.X.X.X.X.X.X.i.X.X.X.X.X.X.X.X.X.i.X.X.X.X.X.X.X.X.X.X.X.X.X.X.X.X.X.X.X.X.X.X.X.X.X.X.X",
".X.X.X.X.X.X.X.X.X.X.X.X.X.X.X.X.X.X.X.X.X.X.X.X.X p N.X.X.X.X.X.X.X.X.X.i.X.X.X.X.X.X.X.X.X.X.X.X.X.X.X.X.X.X.X.X.X.X.X.X.X.X.X",
".X.X.X.X.X.X.X.X.X.X.X.X.X.X.X.X.X.X.X.X.X.X.X.X.X S w.X.X.X.X.X.X.X.X.X A e.X.X.X.X.X.X.X.X.X.X.X.X.X.X.X.X.X.X.X.X.X.X.X.X.X.X",
".X.X.X.X.X.X.X.X.X.X.X.X.X.X.X.X.X.X.X.X.X.X.X.X.X.i.X.X.X.X.X.X.X.X.X.X.,.6.X.X.X.X.X.X.X.X.X.X.X.X.X.X.X.X.X.X.X.X.X.X.X.X.X.X",
".X.X.X.X.X.X.X.X.X.X.X.X.X.X.X.X.X.X.X.X.X.X.X.X.3.2.X.X.X.r.X.X.X.X.X.X.X.i.X.X.X.X.X.X.X.X.X.X.X.X.X.X.X.X.X.X.X.X.X.X.X.X.X.X",
".X.X.X.X.X.X.X.X.X.X.X.X.X.X.X.X.X.X.X.X.X.X.X.X S w.X.X.X.i.X.X.X.X.X.X.X.i.X.X.X.X.X.X.X.X.X.X.X.X.X.X.X.X.X.X.X.X.X.X.X.X.X.X",
".X.X.X.X.X.X.X.X.X.X.X.X.X.X.X.X.X.X.X.X.X.X.X e A.X.X.X.X.5.<.X.X.X.X.X.X.y.@.X.X.X.X.X.X.X.X.X.X.X.X.X.X.X.X.X.X.X.X.X.X.X.X.X",
".X.X.X.X.X.X.X.X.X.X.X.X.X.X.X.X.X.X.X.X.X.X.X N p.X.7 i.X.5.<.X s.;.X.X.X a M.X.X.X.X.X.X.X.X.X.X.X.X.X.X.X.X.X.X.X.X.X.X.X.X.X",
".X.X.X.X.X.X.X.X.X.X.X.X.X.X.X.X.X.X.X.X.X.X.X.i.X.X.i.X.X.i.X.X B i.X.X.X.X.i.X.X.X.X.X.X.X.X.X.X.X.X.X.X.X.X.X.X.X.X.X.X.X.X.X",
".X.X.X.X.X.X.X.X.X.X.X.X.X.X.X.X.X.X.X.X.X.X.X.i.X.X.i.X.X.i.X.X.i.X.X.X.X.X.i.X.X.X.X.X.X.X.X.X.X.X.X.X.X.X.X.X.X.X.X.X.X.X.X.X",
".X.X.X.X.X.X.X.X.X.X.X.X.X.X.X.X.X.X.X.X.X.X h c.X.X.i.X.X.i.X.X.i.X.X.X.X.X.1.4.X.X.X.X.X.X.X.X.X.X.X.X.X.X.X.X.X.X.X.X.X.X.X.X",
".X.X.X.X.X.X.X.X.X.X.X.X.X.X.X.X.X.X.X.X.X.X S w.X.X.i.X.X.i.X.X.4.1.X.X.X.X.X.i.X.X.X.X.X.X.X.X.X.X.X.X.X.X.X.X.X.X.X.X.X.X.X.X",
".X.X.X.X.X.X.X.X.X.X.X.X.X.X.X.X.X.X.X.X.X.X.a.i.1 Y ^.8.,.g k.X n c.X w.,.0.i.q.X.X.X.X.X.X.X.X.X.X.X.X.X.X.X.X.X.X.X.X.X.X.X.X",
".X.X.X.X.X.X.X.X.X.X.X.X.X.X.X.X.X.X.X.X.X.X.X.X.4.*.X.4.6.6 C.i F J.i S.6.=.X.X.X.X.X.X.X.X.X.X.X.X.X.X.X.X.X.X.X.X.X.X.X.X.X.X",
".X.X.X.X.X.X.X.X.X.X.X.X.X.X.X.X.X.X.X.X.X.X.X.X.X.X.X.X.X.X.X.X.X.X.X.X.X.X.X.X.X.X.X.X.X.X.X.X.X.X.X.X.X.X.X.X.X.X.X.X.X.X.X.X",
".X.X.X.X.X.X.X.X.X.X.X.X.X.X.X.X.X.X.X.X.X.X.X.X.X.X.X.X.X.X.X.X.X.X.X.X.X.X.X.X.X.X.X.X.X.X.X.X.X.X.X.X.X.X.X.X.X.X.X.X.X.X.X.X"
};
