/* XPM */
static char *fee-r[] = {
/* width height ncolors chars_per_pixel */
"52 64 195 2",
/* colors */
"   c #000000",
" . c #B1B1B1",
" X c #AFAFAF",
" o c #ADADAD",
" O c #A9A9A9",
" + c #A7A7A7",
" @ c #A5A5A5",
" # c #A3A3A3",
" $ c #A1A1A1",
" % c #9F9F9F",
" & c #9D9D9D",
" * c #9B9B9B",
" = c #999999",
" - c #979797",
" ; c #959595",
" : c #939393",
" > c #919191",
" , c #8F8F8F",
" < c #8D8D8D",
" 1 c #8B8B8B",
" 2 c #878787",
" 3 c #858585",
" 4 c #838383",
" 5 c #818181",
" 6 c #7F7F7F",
" 7 c #7D7D7D",
" 8 c #757575",
" 9 c #737373",
" 0 c #717171",
" q c #6F6F6F",
" w c #6D6D6D",
" e c #6B6B6B",
" r c #696969",
" t c #656565",
" y c #616161",
" u c #5F5F5F",
" i c #5D5D5D",
" p c #595959",
" a c #575757",
" s c #555555",
" d c #535353",
" f c #515151",
" g c #FEFEFE",
" h c #FCFCFC",
" j c #494949",
" k c #FAFAFA",
" l c #F8F8F8",
" z c #F6F6F6",
" x c #434343",
" c c #F4F4F4",
" v c #F2F2F2",
" b c #3F3F3F",
" n c #F0F0F0",
" m c #3D3D3D",
" M c #EEEEEE",
" N c #ECECEC",
" B c #393939",
" V c #EAEAEA",
" C c #373737",
" Z c #E8E8E8",
" A c #E6E6E6",
" S c #E4E4E4",
" D c #313131",
" F c #E2E2E2",
" G c #E0E0E0",
" H c #2D2D2D",
" J c #DEDEDE",
" K c #292929",
" L c #DADADA",
" P c #272727",
" I c #D8D8D8",
" U c #252525",
" Y c #D6D6D6",
" T c #D4D4D4",
" R c #212121",
" E c #D2D2D2",
" W c #1F1F1F",
" Q c #D0D0D0",
" ! c #1D1D1D",
" ~ c #CCCCCC",
" ^ c #CACACA",
" / c #171717",
" ( c #C8C8C8",
" ) c #C6C6C6",
" _ c #C4C4C4",
" ` c #C2C2C2",
" ' c #0F0F0F",
" ] c #C0C0C0",
" [ c #0D0D0D",
" { c #BEBEBE",
" } c #BCBCBC",
" | c #BABABA",
".  c #B8B8B8",
".. c #B6B6B6",
".X c #B4B4B4",
".o c #B2B2B2",
".O c #B0B0B0",
".+ c #AEAEAE",
".@ c #ACACAC",
".# c #AAAAAA",
".$ c #A8A8A8",
".% c #A6A6A6",
".& c #A4A4A4",
".* c #A2A2A2",
".= c #A0A0A0",
".- c #9E9E9E",
".; c #9C9C9C",
".: c #9A9A9A",
".> c #989898",
"., c #969696",
".< c #949494",
".1 c #929292",
".2 c #909090",
".3 c #8E8E8E",
".4 c #8C8C8C",
".5 c #8A8A8A",
".6 c #888888",
".7 c #868686",
".8 c #848484",
".9 c #828282",
".0 c #808080",
".q c #7C7C7C",
".w c #7A7A7A",
".e c #787878",
".r c #767676",
".t c #747474",
".y c #727272",
".u c #707070",
".i c #6E6E6E",
".p c #6C6C6C",
".a c #6A6A6A",
".s c #686868",
".d c #666666",
".f c #626262",
".g c #606060",
".h c #5E5E5E",
".j c #5C5C5C",
".k c #5A5A5A",
".l c #545454",
".z c #505050",
".x c #FFFFFF",
".c c #4C4C4C",
".v c #FDFDFD",
".b c #FBFBFB",
".n c #F9F9F9",
".m c #464646",
".M c #F7F7F7",
".N c #444444",
".B c #F5F5F5",
".V c #424242",
".C c #F3F3F3",
".Z c #404040",
".A c #F1F1F1",
".S c #3E3E3E",
".D c #EFEFEF",
".F c #3C3C3C",
".G c #EDEDED",
".H c #3A3A3A",
".J c #EBEBEB",
".K c #E9E9E9",
".L c #363636",
".P c #E7E7E7",
".I c #343434",
".U c #E5E5E5",
".Y c #323232",
".T c #E3E3E3",
".R c #303030",
".E c #E1E1E1",
".W c #DFDFDF",
".Q c #2C2C2C",
".! c #DDDDDD",
".~ c #2A2A2A",
".^ c #DBDBDB",
"./ c #D7D7D7",
".( c #242424",
".) c #D5D5D5",
"._ c #222222",
".` c #D3D3D3",
".' c #D1D1D1",
".] c #1E1E1E",
".[ c #CDCDCD",
".{ c #CBCBCB",
".} c #C9C9C9",
".| c #C5C5C5",
"X  c #C3C3C3",
"X. c #101010",
"XX c #C1C1C1",
"Xo c #BFBFBF",
"XO c #BDBDBD",
"X+ c #0A0A0A",
"X@ c #BBBBBB",
"X# c #080808",
"X$ c #B9B9B9",
"X% c #B7B7B7",
"X& c #B5B5B5",
/* pixels */
".x.x.x.x.x.x.x.x.x.x.x.x.x.x.x.x.x.x.x.x.x.x.x.x.x.x.x.x.*.e.x.x.x.x.x.x.x.x.x.x.x.x.x.x.x.x.x.x.x.x.x.x",
".x.x.x.x.x.x.x.x.x.x.x.x.x.x.x.x.x.x.x.x.x.x.x.x.x.x.x V.0.8.x.x.x.x.x.x.x.x.x.x.x.x.x.x.x.x.x.x.x.x.x.x",
".x.x.x.x.x.x.x.x.x.x.x.x.x.x.x.x.x.x.x.x.x.x.x.x.x.x.x.: ..a.x.x.x.x.x.x.x.x.x.x.x.x.x.x.x.x.x.x.x.x.x.x",
".x.x.x.x.x.x.x.x.x.x.x.x.x.x.x.x.x.x.x.x.x.x.x.x.x.xXX.)X& '.x.x.x.x.x.x.x.x.x.x.x.x.x.x.x.x.x.x.x.x.x.x",
".x.x.x.x.x.x.x.x.x.x.x.x.x.x.x.x.x.x.x.x.x.x.x.x.x h *.b a ;.+.x.x.x.x.x.x.x.x.x.x.x.x.x.x.x.x.x.x.x.x.x",
".x.x.x.x.x.x.x.x.x.x.x.x.x.x.x.x.x.x.x.x.x.x.x.x.x.@.` 3.h n @.x.x.x.x.x.x.x.x.x.x.x.x.x.x.x.x.x.x.x.x.x",
".x.x.x.x.x.x.x.x.x.x.x.x.x.x.x.x.x.x.x.x.x k @.,.2.j.@.| O.e.A.x.x.x.x.x.x.x.x.x.x.x.x.x.x.x.x.x.x.x.x.x",
".x.x.x.x.x.x.x.x.x.x.x.x.x.x.x.x.x.x.x M * <.  w.] |.G.X x.{.x.x.x.x.x.x.x.x.x.x.x.x.x.x.x.x.x.x.x.x.x.x",
".x.x.x.x.x.x.x.x.x.x.x.x.x.x.x.x.x.xX@ 1 v.f. .RX+.]._ C E.x.x.x.x.x.x.x.x.T.m L.x.x.x.x.x.x.x.x.x.x.x.x",
".x.x.x.x.x.x.x.x.x.x.x.x.x.x.x.x.x ( $.A $X%.0.1 H.F.7 s J.x.x.x.x.x.x.x z.a j M.x.x.x k.T.x.x.x.x.x.x.x",
".x.x.x.x.x.x.x.x.x.x.x.x.x.x.x.x (.[.x.q.s /.} :.p U D.Y.U.x.x.x.x.W.b.x.x S F.P.x.x.x r s.B.x.x.x.x.x.x",
".x.x.x.x.x.x.x.x.x.x.x.x.x.x.x.}.[.x.).I.F @.,Xo. .w.~ R L.x.x.x.D.m.s.x.x.x.x.x.x.x.x.K.).v.x.x.x.x.x.x",
".x.x.x.x.x.x.x.x.x.x.x.x.x.x.x.,.x.x 8 y.g q `.1.;.v $.5.x.x.x.x Q.%.s.x.x.x.x.x.x.x.x.x.x.x.x.x.x.x.x.x",
".x.x.x.x.x.x.x.x.x.x.x.x.x.x...W.x.`.(.5.V ` 8 Z.x.M.q ].x.x.x.x.x.x v.x.x.x.x.x.x.x.x.x.x.x.x.x.x.x.x.x",
".x.x.x.x.x.x.x.x.x.x.x.x.x z %.x c.4.i.p d.2.} f.+.r O.x.x.x.x.x.x.x.x.x.x.x.x.x.x.x.x.x.x.x.x.x.x.x.x.x",
".x.x.x.x.x.x.x.x.x.x.x.x.x.%.D.x $.> 7 K.S.> l r O.<.x.x.x.x.x.x.x.x g.x.x.x.x.x.x.x.x.x.x.x.x.x V.N ~.x",
".x.x.x.x.x.x.x.x.x.x.x.x TXX.x g - , s '. .p > 1.x.x.x.x.x.x.x.x.x L ! F.x.x.x.x.x.x.x.x J A.x g.u.V Z.x",
".x.x.x.x.x.x.x.x.x.x.x.B + l.x.+X  [  .=.x.{ | 7.o.x.x.x.x.x.K.c u.5 t F.x.x.x.x.x.x.x.;.Q T.x.x.P.P.P.x",
".x.x.x.x.x.x.x.x.x.x.x |.^.x.x.Z.Q.Z p h.x h.-.& j.^.!.D.P.$.6.;.HX#.L.x.x.x.x.x.x ~ i p./.x.x.x.x.x.x.x",
".x.x.x.x.x.x.x.x.x.xXX.#.x.x T `.x.*.5.x.x.x.v.q.l.X.  9 e }.x g 0.S L.x.x.x.x M.q y Q.x.x.x.x.x.x.x.x.x",
".x.x.x.x.x.x.x.x.x A ..v.x.x o Z.x.*.5.x.x.x.x.: %.-.x.T r., e., }.n.x.x.x.A =.h ..x.x.x.x.x.x.x.x.x M.x",
".x.x.x.x.x.x.x.x.U.O.x.x.x.b.:.x.x.:.1.x.x.x.x./ :.,.x (.o.x.x.x.x.x L.u.l.m.5 G.x.x.x.x.x.x.x.x.x.& P.x",
".x.x.x.x.x.x.x Q * g.x.x.x M +.x.x.,.wX .x.x.x.x.; >.x.1 c.x.x.x.x h.d.pX..Z V.x.x.x.x.x.x.x.x.x.xX@.r.,",
".x.x.x.x.x.xX@ X.x.x.x.x.x.,.x.x.x., 8. .x.x.x.x.x.t., q.,.,.,.0., =.`.x.` 3.x.x.x.x.x.x.x.x.x.x.x.x.x.x",
".u *.' G *.: X.x.x.x.x.x.x.p.x.x L > 8. .x.x.x.x.x.x.x.x.x.x.x.,.x.x %.w 7 M.x.x.x.x.x.x.x.x.x.x.x.x.x.x",
".P 7 .X& k.b.x.x.x.x.x.x Y <.7 Y.a ) !.a Y.x.x.x.x.x.x.x.x.x.B d 4 6.{ k.x.x.x.x.x.x.x.x.x.x.x.x.x.x.x.x",
".x Z.6.P.x.x.x.x.x.x.x.x.- c + a.w.p.i.&.2.x.x.x.x.x.x.x.x.x `.z.x.x.x.x.x.x.x.x.x.x.x.x.x.x.x.x.x.x.x.x",
".x.x Z.%.x.x.x.x.x.x.x { I.x.x.` W P b. .,.x.x.x.x.x.x.x.x.x y ~.x.x.x.x.x.x.x.x.x.x.x.x.x.x.x }Xo.x.x.x",
".x.x.x.$.G.x.x.x.x.x A X.x.x.x.x.x.x.4 V.,.x.x.x.x.x.x.x.x.B H G.x.x.x.x.x.x.x.x.x.x.x.x.x.xX@ B.&.x.x.x",
".x.x.xX& G.x.x.x.x Z.8.v.x.x.x.x.x.x.,.xX&...x.x.x.x.x.x.x n m.x.x.x.x.x.x.x.x.x.x.x.x.x.x.x.x _.t.x.x.x",
".x.x.x.x.,.x.x.x.P.+.x.x.x.x.x.x.xX  E.x.D.q.x.x.x.x.x.x.x.@.0.x.x.x.x.x.x.x.x.x.x.x.x.x.x.x.x.x.x.x.x.x",
".x.x.x.x.,.x.xXO.+ g.x.x.x.x.x.x.x & l.x.x.% M.x.x.x.x.x.x 2 @.x.x.x.x.x.x.x.x.x.x.x.x.x.x.x.x.x.x.x.x.x",
".x.x.x n @.C.. I.x.x.x.x.x.x.x.x z %.x.x.x S 2.x.x.x.x.x.x j @.x.x.x.x.x.x.x.x.x.x.x.x.x.x.x.x.x.x.x.x.x",
".x.x.x.OX%.%.W.x.x.x.x.x.x.x.x.x # v.x.x.x.x |.y N.x.x.x.x.~.J.x.x.x.x.x.x.x.x.x.x.x.x.x.x.x.x.x.x.x.x.x",
".x.x.xX@ <.b.x.x.x.x.x.x.x.x.x g -.x.x.x.x.x.x F.j M.x.x.#.t.x.x.x.x.x.x.x.x.x.x.x.x.x.x.x.x.x.x.x.x.x.x",
".x.x.x.x.x.x.x.x.x.x.x.x.x.x.x.o.T.x.x.x.x.x.x.x S ;.x.x.9.3.x.x.x.x.x.x.x.x.x.x.x.x.x.x.x.x.x.x.x.x.x.x",
".x.x.x.x.x.x.x.x.x.x.x.x.x.x k.;.x.x.x.x.x.x.x.x.x O `.v =.,.x.x.x.x.x.x.x.x.x.x.x.x.x.x.x.x.x.x.x.x.x.x",
".x.x.x.x.x.x.x.x.x.x.x.x.x.x @ n.x.x.x.x.x.x.x.x.x.x.eX@ 5 (.x.x.x.x.x.x.x.x.x.x.x.x.x.x.x.x.x.x.x.x.x.x",
".x.x.x.x.x.x.x.x.x.x.x.x.x.n &.x.x.x.x.x.x.x.x.x.x.x v.e.s.E.x.x.x.x.x.x.x.x.x.x.x.x.x.x.x.x.x.x.x.x.x.x",
".x.x.x.x.x.x.x.x.x.x.x.x.xX$.!.x.x.x.x.x.x.x.x.x.x.x.x `.k.x.x.x.x.x.x.x.x.x.x.x.x.x.x.x.x.x.x.x.x.x.x.x",
".x.x.x.x.x.x.x.x.x.x.x.x.x.,.x.x.x.x.x.x.x.x.x.x.x.x.x.x.,.x.x.x.x.x.x.x.x.x.x.x.x.x.x.x.x.x.x.x.x.x.x.x",
".x.x.x.x.x.x.x.x.x.x.x.xX% J.x.x.x.x.x.x.x.x.x.x.x.x.x.x * k.x.x.x.x.x.x.x.x.x.x.x.x.x.x.x.x.x.x.x.x.x.x",
".x.x.x.x.x.x.x.x.x.x.x.x...W.x.x.x.x.x.x.x.x.x.x.x.x.x.xX& G.x.x.x.x.x.x.x.x.x.x.x.x.x.x.x.x.x.x.x.x.x.x",
".x.x.x.x.x.x.x.x.x.x.x h.;.v.x.x.x.x.x.x.x.x.x.x.x.x.x.xX& G.x.x.x.x.x.x.x.x.x.x.x.x.x.x.x.x.x.x.x.x.x.x",
".x.x.x.x.x.x.x.x.x.x.x.[ (.x.x.x.x.x.x.x.x.x.x.x.x.x.x.x.K.@.x.x.x.x.x.x.x.x.x.x.x.x.x.x.x.x.x.x.x.x.x.x",
".x.x.x.x.x.x.x.x.x.x.x.,.x.x.x.x.x.x.x.x.x.x.x.x.x.x.x.x.x.,.x.x.x.x.x.x.x.x.x.x.x.x.x.x.x.x.x.x.x.x.x.x",
".x.x.x.x.x.x.x.x.x.x.x.,.x.x.x.x.x.x.x.x.x.x.x.x.x.x.x.x.x.,.x.x.x.x.x.x.x.x.x.x.x.x.x.x.x.x.x.x.x.x.x.x",
".x.x.x.x.x.x.x.x.x.x.  J.x.x.x.x.x.x.x.x.x.x.x.x.x.x.x.x.x.,.x.x.x.x.x.x.x.x.x.x.x.x.x.x.x.x.x.x.x.x.x.x",
".x.x.x.x.x.x.x.x.x.M.-.x.x.x.x.x.x.G.v.x.x.x.x.x.x.x.x.x.x ~.}.x.x.x.x.x.x.x.x.x.x.x.x.x.x.x.x.x.x.x.x.x",
".x.x.x.x.x.x.x.x.x./ {.x.x.x.x.x.x.*.C.x.x.x.x.x.x.x.x.x.x n @.x.x.x.x.x.x.x.x.x.x.x.x.x.x.x.x.x.x.x.x.x",
".x.x.x.x.x.x.x.x.x.X F.x.x.x.x.x.x.*.C.x.x.x.x.x.x.x.x.x.x g -.x.x.x.x.x.x.x.x.x.x.x.x.x.x.x.x.x.x.x.x.x",
".x.x.x.x.x.x.x.x.x.,.x.x.x.x.x.x.x.*.C.x.x.x.x.x.x.x.x.x.x.x @.A.x.x.x.x.x.x.x.x.x.x.x.x.x.x.x.x.x.x.x.x",
".x.x.x.x.x.x.x.x @ n.x.x.x.x.x.x.x.M %.x.x.x.x.x.x.x.x.x.x.x `.`.x.x.x.x.x.x.x.x.x.x.x.x.x.x.x.x.x.x.x.x",
".x.x.x.x.x.x.x.x.>.v.x.x.x.T.x.x.x.x.,.x.x.x.x.x.x.x.x.x.x.x.J.#.x.x.x.x.x.x.x.x.x.x.x.x.x.x.x.x.x.x.x.x",
".x.x.x.x.x.x.x.P.+.x.x.x JX%.x.x.x.b.:.x.x.x l.@.x.x.x.x.x.x.x.,.x.x.x.x.x.x.x.x.x.x.x.x.x.x.x.x.x.x.x.x",
".x.x.x.x.x.x.x ^.{.x.x.x...W.x.x.x.*.C.x.x.x F.X.x.x.x.x.x.x.x o Z.x.x.x.x.x.x.x.x.x.x.x.x.x.x.x.x.x.x.x",
".x.x.x.x.x.x.x.=.B.x.x.x...W.x.x.x.*.C.x.x.x.,.x.x.x.x.x.x.x.x.v.>.x.x.x.x.x.x.x.x.x.x.x.x.x.x.x.x.x.x.x",
".x.x.x.x.x.x.b.:.x.x.x.x...W.x.x.x.*.C.x.x.x.,.x.x.x.x.x.x.x.x g -.x.x.x.x.x.x.x.x.x.x.x.x.x.x.x.x.x.x.x",
".x.x.x.x.x.x l &.x.x.x.x.-.M.x.x.x.*.C.x.x.x.,.x.x.x.x.x.x.x.x.x.#.J.x.x.x.x.x.x.x.x.x.x.x.x.x.x.x.x.x.x",
".x.x.x.x.x.x &.n.x.x.x.x.,.x.x.x.x.*.C.x.x.x.,.x.x.x.x.x.x.x.x.x.)XX.x.x.x.x.x.x.x.x.x.x.x.x.x.x.x.x.x.x",
".x.x.x.x.x.x.,.x.x.x.x.M.-.x.x.x.x.*.C.x.x.x.^X@.x.x.x.x.x.x.x.x.x.,.x.x.x.x.x.x.x.x.x.x.x.x.x.x.x.x.x.x",
".x.x.x.x.x G X.x.x.x.x.! ..x.x.x.x.* N.x.x.x.M.-.x.x.x.x.x.x.x.x.x.=.B.x.x.x.x.x.x.x.x.x.x.x.x.x.x.x.x.x",
".x.x.x.x.x Z 8.O I.x Q.s @X .x.x.x.W.1.x.x.x.M.-.x.x.x.x.x.x Y ].,.;.b.x.x.x.x.x.x.x.x.x.x.x.x.x.x.x.x.x",
".x.x.x.x.x.x.x.UXO.,.:.).) +.,.,.,., 3.1.1.1.s p.1.1.1.1.,.,Xo.).x.x.x.x.x.x.x.x.x.x.x.x.x.x.x.x.x.x.x.x"
};
