/* XPM */
static char * fietsalleen_gif_xpm[] = {
/* width height ncolors chars_per_pixel */
"64 64 31 1",
/* colors */
" 	c white",
".	c #EEEEEE",
"X	c #7B7B7B",
"o	c #494949",
"O	c #515151",
"+	c #727272",
"@	c #D4D4D4",
"#	c #C4C4C4",
"$	c #3A3A3A",
"%	c #363636",
"&	c #848484",
"*	c #595959",
"=	c #BAC0BA",
"-	c #979797",
";	c #616161",
":	c #959B95",
">	c #CCCCCC",
",	c #B3B3B3",
"<	c #A8AEA8",
"1	c #BCBCBC",
"2	c #A0A0A0",
"3	c #F2F7F2",
"4	c #414141",
"5	c #696969",
"6	c #A9A9A9",
"7	c #E2E2E2",
"8	c #F8F8F8",
"9	c #D2D8D2",
"0	c #DCDCDC",
"q	c #8D8D8D",
"w	c #F2F2F2",
/* pixels */
"                                                                ",
"                                                                ",
"                                                                ",
"                                                                ",
"                              .XoO+@                            ",
"                             #$%%$%%$@                          ",
"                             +%%%%%%%&                          ",
"                            *%%%%%%$%%@                         ",
"                           =$%-;*;;:%$X                         ",
"                           >%%,,,<,:%%O                         ",
"                            oo1$2&$<$%;                         ",
"                           342,&2556X%2                         ",
"                           :%#,<<226-%+                         ",
"                           =$--<X&2&*%2                         ",
"                           3OO+:<<,:4%7                         ",
"                            8%,,22<&$9                          ",
"                          .&-<<;<:-=1#                          ",
"                          O4o4&;**;;4468                        ",
"                    O4ooooo4o4oO62;4ooo44O038                   ",
"                  9ooooooo4o44oo$44ooooo4OoOO-                  ",
"                  &ooooOoooo4ooo4444ooooo4oooO                  ",
"                  54oooO  @5444oo444o-83.ooooo.                 ",
"                  #4oooo4= -4ooooo44oX  34oooo7                 ",
"                  3oo4ooo482o4oo4444o-  6o4ooo.                 ",
"                   +oooooo4244o44o44oX 5ooooOo                  ",
"                   &ooo44o4$444oo4ooo2044ooo4X                  ",
"                   .ooooo44$$o4oo44o4<.4&54oo7                  ",
"                    05<#X&+%%%%%%%%%%%$<2,2oo                   ",
"                       $4&X%%%%%%%%%%%$---,5,                   ",
"                       896=o4444%444o48    3                    ",
"                          74o4oo%4oooo7                         ",
"                           o4o4o%44ooo.                         ",
"                          ;554$4%44$o&                          ",
"                        9*++5;8875++*8                          ",
"                        5X555*  .;++50                          ",
"                       ++&+5+9  @5++XX                          ",
"                       &X+XX5++5%4+&+5                          ",
"                      8+++++55X5%%*X+5                          ",
"                       &XXXX+555%%4X5X2                         ",
"                       0+XXX++55%%$5+X;                         ",
"                        7;+++55;%%%XX+X3                        ",
"                         3;+++;4%%%X+++=                        ",
"                         &%*OO55%%%X+XX0                        ",
"                        $$$%%%-+$%%&++X                         ",
"                       #  @%$q2O4%%&+5+<                        ",
"                       2   $4$$%o%%&++X5                        ",
"                       ,   #: 3O;%%&++X;#                       ",
"                        96#   8O5%%X+++X;                       ",
"                              w4*%%&+++&;                       ",
"                               o%%%+OoO55                       ",
"                               oqo%%%%%%-*                      ",
"                              8o>:%%%$$%o$                      ",
"                               ;<+%%$%$%$$                      ",
"                               O>+$%%$$$4$                      ",
"                               ;,2%==#9,,4                      ",
"                               q2#$  8   8                      ",
"                               2-<$                             ",
"                               #;&%                             ",
"                               @o;%                             ",
"                               .4*$                             ",
"                                $44                             ",
"                                $$+                             ",
"                                $$2                             ",
"                                0@                              "};
