/* XPM */
static char * fietsgewoon_gif_xpm[] = {
/* width height ncolors chars_per_pixel */
"64 64 33 1",
/* colors */
" 	c white",
".	c #F8F8F8",
"X	c #F0F0F0",
"o	c #E8E8E8",
"O	c #C0C0C0",
"+	c #C8C8C8",
"@	c #282828",
"#	c #484C48",
"$	c #303030",
"%	c #A8A8A8",
"&	c #E0E0E0",
"*	c #404040",
"=	c #606060",
"-	c #101010",
";	c #080808",
":	c #202020",
">	c #909090",
",	c #686868",
"<	c #282C28",
"1	c #989898",
"2	c #D8D8D8",
"3	c #808080",
"4	c #505050",
"5	c #585858",
"6	c #D0D0D0",
"7	c #383838",
"8	c #707070",
"9	c #B8B8B8",
"0	c #181818",
"q	c #787878",
"w	c #484848",
"e	c #A0A0A0",
"r	c #888888",
/* pixels */
"       .      .              .                                . ",
"..                                       .. .                 ..",
"     .  . ...    ...   . .   ....   ...     .     .. ..   ...  .",
"  .. . . .   . .     .     . .      .. .  .  ....   .  ...   . X",
"        . ... .   ..     .      . .  .  ..  .     ..      ...   ",
"  .  .        . .  .. ..   . ... .X.  .  oO+.  .   ..           ",
"    .  . ..  .   .   .   ...  .   .X    .@#$% ..   . ...   .    ",
"  .  .     .  .      ..... .   ....X. . &*==-     .  .          ",
" . .  .  .    .  .           ..  .o. .  X*;;:  ... .    ... ..  ",
"  . .   .      .         . . .X.>*,XoX X.=-<<.    .  .  .       ",
" . .. .  . ... ..   ...  ..  ..=o==*>><X...1>2.           . ..  ",
"   .  ..  .     .  . . ..X ...X>#3+4o=,;5X .#:.  . .. .    .    ",
"...      . ..      ... X&%+6XXX+>O%>Xo;;<6..<@.             ..  ",
" ... ..   .       . 2>;:-:-#@:--%=;7@<@<:83X69%.     ...        ",
" .      .      . .  -::-::#2.>;--..... .o:%72@79        ...     ",
"    .     .  .  .   -:::-:-4..OO+. .   ..%,%**85  .. ...     .  ",
"   . .  .    .   .  >---::;4.        .  . 2,1:3*X ..    ...     ",
" .    .. . .    . . ..0;-<7>.....   ..   ...9q7;8   .      ..   ",
"   . .  .        .    6>33w=X  .       .  XX6;@;% ..    ...     ",
" .      .....  .. ... ..XO3:.    .......o>-;;;:+.  .  .    ..   ",
"  ..X.. ..XXX.X...X.XoX.X&>@2. .. X..+4;;;;;;;4  .     .     .  ",
"  . .X.X.XooX&oXXXoXXX2Xo237oX .. o+4:;;;;;@O7-6 X   ..    ..   ",
" .   .2#:;;;;-@<=881%1+e9o@@oooX+7;;;;;-4+XXX%;= ..    .     .  ",
"  . .XO<;43>4;1>7;;--;;;;;;;98;;;;;;=9..  . ..;; .   .  .  .    ",
" .. .oO1;;;;;;<44;->%%;,8=;;:;;;;;:%XX..X . ..;;.   .        .  ",
"  ....Xoo6+98=38#77-;;;;;4;;;;<3oXXX.XX ... X@;;+.   .   .      ",
"  .XXXXX+@;;;;;;4&66XXoo9;;;@XX.X... .X.   o-;;;7     . .   .   ",
"   .o.X8-;;;;;;;;896oX29:;:;:X. . .....  Xo,;;3@-   .  . ..     ",
" ...X2@;;;;;;;;;;;;>Xo>;;8%;;.   . .  .XX%;;;+o8;%6   ..  .     ",
" .XXO7;;;-+o6814;;;;O8;;%o>@;X. .  .X.XX,;;0X.O7--@.       ...  ",
" .XX4;;;;+XXX1X2<;;;:;;>2>;;;X. . ..XX.5;;:9. +-;8O   .  ..     ",
"   +;;;3.X..XO6oo3;;;;+2=;;;;OXo...X.X@;;3...XXX->...X....      ",
"  .@;;*+..XoX29oX%;;;;9;-:;>;@*<>Xoo4;;7O.X .XXX<-#@*8+.        ",
"  .;;;6%XooXXo9oo;;;;;#;@;38;533<6X%;;;o.XX  .oO;;;;;;;O...  .  ",
" .9;;7.@6XXX.2Oo;;-2;;;;;-;,;<33377;;@X.X o..%;;;;;;;;;;;>.. .  ",
" X@;:2.+7...X6*;;>>=;;;498%@;;;;,;;;2X.   XX9;;;;;;#;;;;;;,o.   ",
" 6;;#X .=...X>;;;7537;;1o771;;@;;;;8....  .X:;;;;;*X7>7;;;;8.   ",
" 3;;O....*.Xo;;;oXoX%;;52*=-@;;;;@3*.X.  ..=;;:>X;: ,3X97;;;+.  ",
" 7;;X.   X<,7;<847@-;;;;;;;;7;;;;43<...  X7;;;X..;;.%4X  #;;;.  ",
" 7;;X. . .9*=;;;;;;;;;;;;;;;;#;;:4>@..  .o;;;@XX.;;.9#.  6;;;X  ",
" :;;.X   +#@O;;;;;;:-:;;#*4;;<<4;8>@X....1;;-OOX.:;X9#.  .#;;,  ",
" 7;;.. X8O.+*:+.X.XXo5;@2@3=;;;-;33,XX o.:;;+.*X 7;X1,   .O7;;  ",
".5;;   34  X,>8X.X.Xo,;7273r;;;;@33>XX.XX;;;.X7%.=;+83 . +>7;;e ",
" 8;;6.92  ...5+<.. .6:;,o9333<<43,:.X.XXX;;;  o7XO;9<9o:,X.o;;e ",
" 2;;8X8     .=.X1736#;;9X.,<>3333;#56=;XO;;*....<6:#%%1   .X;;* ",
" o@;:16 ..  .=.XX%5:;;;6XX2,833>7r@77;;29;;3... 937;>7.   ..-;* ",
" .1;;@2     o9.   .o;;;X .XXX11OXoo;:7;o9;;1X ...5;;;,.  X..<;* ",
"  .;;;<   . 9X  ...4;;,. . ..X...X%-7;9X1;;%..XXo4;7;<......:;* ",
"   ;;;@+..  3   .X2;;;6..    X...67@;-Xo%;;1X..o,<;7;5..X  .7;* ",
" . +;;;77.  <   .9:;;;         ..1;;1..o9;;=..8w.Xo-+52..X..;;* ",
"  . 7;;;;,#8+..X=;;;5X X.  .   ...X.. .Xo;;<.86..  32X3%oX.X;;* ",
" .  6:;;;@55oX+1;;;;+X . X   .  ...  ..XX;;;X<.... %o.o779.o;;* ",
"  .. .<;;;;;;;;;;;;9..  ....  ..  .   ...;;;>....X.+o....o%7;;e ",
"     . 3-;;;;;;;;>o.   ..     .. ..  X .o,;;-....o.1..XX.o>;;@e ",
"  ..    6;;;;;;;4XX.   .    . .. XX    Xo+;;;...XX.8....X2<;;3  ",
"          X69+X...   .   .  ..   ...   .XX;;;1.XX..@. .Xo1;;;.  ",
" . ..  .  .        ..   . .   .. . .   . .2<;;82oXo8..X25;;;>   ",
"               .     .   .  . X.. . .  .XX.3;;;4o2O9XXX,;;;;o   ",
" . ..  . . ..      ..   . .   ..         X..7;;;;;-%8<;;;;:O.   ",
"  .  .. .   . .  . ...     .  .     .   .X.XX5;;;;;;;;;;;<X..   ",
" . ..  . .        .X.   .         .  .   X  XX:;;;;;;;;;;6. .   ",
" .   .. .     .         .. .             .  ...o3-;;;;4.X..     ",
"          .   . .   . .       .  .   .   X      ..XX.XX.X.   .  ",
"  .                                                             "};
