/* XPM */
static char *fluit-r[] = {
/* width height ncolors chars_per_pixel */
"64 21 133 2",
/* colors */
"   c #000000",
" . c #B1B1B1",
" X c #AFAFAF",
" o c #ADADAD",
" O c #ABABAB",
" + c #A7A7A7",
" @ c #A5A5A5",
" # c #A3A3A3",
" $ c #A1A1A1",
" % c #9F9F9F",
" & c #9D9D9D",
" * c #9B9B9B",
" = c #959595",
" - c #939393",
" ; c #8D8D8D",
" : c #8B8B8B",
" > c #898989",
" , c #878787",
" < c #858585",
" 1 c #838383",
" 2 c #818181",
" 3 c #7F7F7F",
" 4 c #7D7D7D",
" 5 c #7B7B7B",
" 6 c #777777",
" 7 c #757575",
" 8 c #737373",
" 9 c #6F6F6F",
" 0 c #6B6B6B",
" q c #696969",
" w c #5F5F5F",
" e c #595959",
" r c #515151",
" t c #FEFEFE",
" y c #FCFCFC",
" u c #FAFAFA",
" i c #F8F8F8",
" p c #F6F6F6",
" a c #F2F2F2",
" s c #F0F0F0",
" d c #3B3B3B",
" f c #ECECEC",
" g c #E8E8E8",
" h c #E6E6E6",
" j c #E4E4E4",
" k c #E0E0E0",
" l c #DEDEDE",
" z c #2B2B2B",
" x c #DCDCDC",
" c c #DADADA",
" v c #D4D4D4",
" b c #D2D2D2",
" n c #CECECE",
" m c #CCCCCC",
" M c #CACACA",
" N c #171717",
" B c #C6C6C6",
" V c #C4C4C4",
" C c #C0C0C0",
" Z c #BEBEBE",
" A c #BABABA",
" S c #B8B8B8",
" D c #B4B4B4",
" F c #B2B2B2",
" G c #B0B0B0",
" H c #AEAEAE",
" J c #AAAAAA",
" K c #A8A8A8",
" L c #A6A6A6",
" P c #A4A4A4",
" I c #A0A0A0",
" U c #9E9E9E",
" Y c #989898",
" T c #969696",
" R c #949494",
" E c #929292",
" W c #909090",
" Q c #8E8E8E",
" ! c #8C8C8C",
" ~ c #8A8A8A",
" ^ c #888888",
" / c #848484",
" ( c #828282",
" ) c #808080",
" _ c #7C7C7C",
" ` c #7A7A7A",
" ' c #747474",
" ] c #727272",
" [ c #707070",
" { c #6E6E6E",
" } c #6C6C6C",
" | c #6A6A6A",
".  c #686868",
".. c #626262",
".X c #606060",
".o c #5C5C5C",
".O c #5A5A5A",
".+ c #525252",
".@ c #505050",
".# c #FFFFFF",
".$ c #4C4C4C",
".% c #FDFDFD",
".& c #4A4A4A",
".* c #F9F9F9",
".= c #F7F7F7",
".- c #F5F5F5",
".; c #F3F3F3",
".: c #F1F1F1",
".> c #EFEFEF",
"., c #EDEDED",
".< c #E9E9E9",
".1 c #363636",
".2 c #343434",
".3 c #E5E5E5",
".4 c #323232",
".5 c #E3E3E3",
".6 c #E1E1E1",
".7 c #DFDFDF",
".8 c #DDDDDD",
".9 c #DBDBDB",
".0 c #282828",
".q c #D7D7D7",
".w c #D1D1D1",
".e c #1C1C1C",
".r c #CBCBCB",
".t c #C9C9C9",
".y c #C7C7C7",
".u c #C3C3C3",
".i c #C1C1C1",
".p c #0C0C0C",
".a c #B9B9B9",
".s c #B7B7B7",
".d c #040404",
/* pixels */
" m.1 ] < ; V.#.#.#.#.#.#.#.#.#.#.#.#.#.#.#.#.#.#.#.#.#.#.#.#.#.#.#.#.#.#.#.#.#.#.#.#.#.#.#.#.#.#.#.#.#.#.#.#.#.#.#.#.#.#.#.#.#.#",
".o | + $.3 o ] 2 + l.#.#.#.#.#.#.#.#.#.#.#.#.#.#.#.#.#.#.#.#.#.#.#.#.#.#.#.#.#.#.#.#.#.#.#.#.#.#.#.#.#.#.#.#.#.#.#.#.#.#.#.#.#.#",
" M q r 2 e Y.i V M - ] -.i n.#.#.#.#.#.#.#.#.#.#.#.#.#.#.#.#.#.#.#.#.#.#.#.#.#.#.#.#.#.#.#.#.#.#.#.#.#.#.#.#.#.#.#.#.#.#.#.#.#.#",
".#.# f G !.$.$ _.  D.9 Q & # ] 8.9 g.#.#.#.#.#.#.#.#.#.#.#.#.#.#.#.#.#.#.#.#.#.#.#.#.#.#.#.#.#.#.#.#.#.#.#.#.#.#.#.#.#.#.#.#.#.#",
".#.#.#.#.#.#.q 9.  A T , ].q p u E / ] < p p t.#.#.#.#.#.#.#.#.#.#.#.#.#.#.#.#.#.#.#.#.#.#.#.#.#.#.#.#.#.#.#.#.#.#.#.#.#.#.#.#.#",
".#.#.#.#.#.#.#.# ~ %.#.#.# * _ ) ) J.# f.4   5 L.#.#.#.#.#.#.#.#.#.#.#.#.#.#.#.#.#.#.#.#.#.#.#.#.#.#.#.#.#.#.#.#.#.#.#.#.#.#.#.#",
".#.#.#.#.#.#.#.# y {.w.#.#.#.# p p.#.#.#.    k.r.X.e U U.;.#.#.#.#.#.#.#.#.#.#.#.#.#.#.#.#.#.#.#.#.#.#.#.#.#.#.#.#.#.#.#.#.#.#.#",
".#.#.#.#.#.#.#.#.# j $ ] ^ S C.#.#.#.#.#.3 v y.#.w   [ v. .& S.a.#.#.#.#.#.#.#.#.#.#.#.#.#.#.#.#.#.#.#.#.#.#.#.#.#.#.#.#.#.#.#.#",
".#.#.#.#.#.#.#.#.#.#.#.#.<.a . ] ].t b.:.#.#.#.# a.a l.# o   5 S ].&.s b.,.#.#.#.#.#.#.#.#.#.#.#.#.#.#.#.#.#.#.#.#.#.#.#.#.#.#.#",
".#.#.#.#.#.#.#.#.#.#.#.#.#.#.#.#.# K % ) ] H f y.#.#.#.# k %.7.#.# N.0 % 1.X j f u.#.#.#.#.#.#.#.#.#.#.#.#.#.#.#.#.#.#.#.#.#.#.#",
".#.#.#.#.#.#.#.#.#.#.#.#.#.#.#.#.#.#.#.#.#.u < _ ` n.#.#.#.#.#.#.# W P.#.;  .2 < 4 `.i.#.#.#.#.#.#.#.#.#.#.#.#.#.#.#.#.#.#.#.#.#",
".#.#.#.#.#.#.#.#.#.#.#.#.#.#.#.#.#.#.#.#.#.#.# i.= # ] ) R O.#.#.#.#.#.# i 0 @.#.*.O.d [ W R x.#.#.#.#.#.#.#.#.#.#.#.#.#.#.#.#.#",
".#.#.#.#.#.#.#.#.#.#.#.#.#.#.#.#.#.#.#.#.#.#.#.#.#.#.#.:.8 B ] 8 X X.>.#.#.#.#.#.# W.@ y.6.8 = ] Q X s.#.#.#.#.#.#.#.#.#.#.#.#.#",
".#.#.#.#.#.#.#.#.#.#.#.#.#.#.#.#.#.#.#.#.#.#.#.#.#.#.#.#.#.#.# t.u.u ( ] L.t y.#.#.#.#.#.#.#.#.#.5.u 2 ] +.t.7.#.#.#.#.#.#.#.#.#",
".#.#.#.#.#.#.#.#.#.#.#.#.#.#.#.#.#.#.#.#.#.#.#.#.#.#.#.#.#.#.#.#.#.#.#.#.r K 7 ] B.5 a.#.#.#.#.#.#.#.#.# M K z w ^.5 a.#.#.#.#.#",
".#.#.#.#.#.#.#.#.#.#.#.#.#.#.#.#.#.#.#.#.#.#.#.#.#.#.#.#.#.#.#.#.#.#.#.#.#.#.#.# O Q 3 ] I.%.%.#.#.#.#.#.#.#.p.$.< Q 3 ] I.%.%.#",
".#.#.#.#.#.#.#.#.#.#.#.#.#.#.#.#.#.#.#.#.#.#.#.#.#.#.#.#.#.#.#.#.#.#.#.#.#.#.#.#.#.#.#.#.w ' 6 : :.-.#.#.#.# 5 &.#.#.#.#.w ' 6 :",
".#.#.#.#.#.#.#.#.#.#.#.#.#.#.#.#.#.#.#.#.#.#.#.#.#.#.#.#.#.#.#.#.#.#.#.#.#.#.#.#.#.#.#.#.#.# y h h _ 3 @ J.#.#.#.#.#.#.#.#.# y..",
".#.#.#.#.#.#.#.#.#.#.#.#.#.#.#.#.#.#.#.#.#.#.#.#.#.#.#.#.#.#.#.#.#.#.#.#.#.#.#.#.#.#.#.#.#.#.#.#.#.# a m.y ] ] D C g.#.#.#.#.# }",
".#.#.#.#.#.#.#.#.#.#.#.#.#.#.#.#.#.#.#.#.#.#.#.#.#.#.#.#.#.#.#.#.#.#.#.#.#.#.#.#.#.#.#.#.#.#.#.#.#.#.#.#.#.#.# Z F > ] % c.5 v.1",
".#.#.#.#.#.#.#.#.#.#.#.#.#.#.#.#.#.#.#.#.#.#.#.#.#.#.#.#.#.#.#.#.#.#.#.#.#.#.#.#.#.#.#.#.#.#.#.#.#.#.#.#.#.#.#.#.#.#.# W   d.+ -"
};
