/* XPM */
static char *fluit-r[] = {
/* width height ncolors chars_per_pixel */
"64 21 124 2",
/* colors */
"   c #000000",
" . c #ADADAD",
" X c #ABABAB",
" o c #A9A9A9",
" O c #A7A7A7",
" + c #A5A5A5",
" @ c #A3A3A3",
" # c #9D9D9D",
" $ c #9B9B9B",
" % c #999999",
" & c #979797",
" * c #959595",
" = c #939393",
" - c #919191",
" ; c #8F8F8F",
" : c #8B8B8B",
" > c #898989",
" , c #878787",
" < c #838383",
" 1 c #818181",
" 2 c #7D7D7D",
" 3 c #7B7B7B",
" 4 c #797979",
" 5 c #777777",
" 6 c #717171",
" 7 c #6D6D6D",
" 8 c #696969",
" 9 c #676767",
" 0 c #5F5F5F",
" q c #5D5D5D",
" w c #575757",
" e c #555555",
" r c #515151",
" t c #4D4D4D",
" y c #FEFEFE",
" u c #FCFCFC",
" i c #494949",
" p c #454545",
" a c #F6F6F6",
" s c #F4F4F4",
" d c #F2F2F2",
" f c #3F3F3F",
" g c #F0F0F0",
" h c #EEEEEE",
" j c #ECECEC",
" k c #393939",
" l c #373737",
" z c #E4E4E4",
" x c #313131",
" c c #E2E2E2",
" v c #E0E0E0",
" b c #DEDEDE",
" n c #DCDCDC",
" m c #D8D8D8",
" M c #D6D6D6",
" N c #D2D2D2",
" B c #D0D0D0",
" V c #CCCCCC",
" C c #CACACA",
" Z c #C4C4C4",
" A c #C2C2C2",
" S c #0F0F0F",
" D c #C0C0C0",
" F c #BEBEBE",
" G c #BCBCBC",
" H c #BABABA",
" J c #B8B8B8",
" K c #050505",
" L c #B6B6B6",
" P c #B4B4B4",
" I c #B2B2B2",
" U c #AAAAAA",
" Y c #A6A6A6",
" T c #A4A4A4",
" R c #A0A0A0",
" E c #9A9A9A",
" W c #989898",
" Q c #969696",
" ! c #949494",
" ~ c #929292",
" ^ c #909090",
" / c #8E8E8E",
" ( c #8A8A8A",
" ) c #888888",
" _ c #828282",
" ` c #808080",
" ' c #7E7E7E",
" ] c #7A7A7A",
" [ c #787878",
" { c #727272",
" } c #666666",
" | c #606060",
".  c #525252",
".. c #FFFFFF",
".X c #FDFDFD",
".o c #FBFBFB",
".O c #F9F9F9",
".+ c #444444",
".@ c #F5F5F5",
".# c #404040",
".$ c #EFEFEF",
".% c #EDEDED",
".& c #E9E9E9",
".* c #E7E7E7",
".= c #E5E5E5",
".- c #E3E3E3",
".; c #E1E1E1",
".: c #2E2E2E",
".> c #DFDFDF",
"., c #DDDDDD",
".< c #DBDBDB",
".1 c #D9D9D9",
".2 c #D7D7D7",
".3 c #D3D3D3",
".4 c #CDCDCD",
".5 c #CBCBCB",
".6 c #C9C9C9",
".7 c #141414",
".8 c #C3C3C3",
".9 c #C1C1C1",
".0 c #0E0E0E",
".q c #0C0C0C",
".w c #BBBBBB",
".e c #B5B5B5",
/* pixels */
".... W ).>......................................................................................................................",
".. R.  h & 5 : %.6..............................................................................................................",
".. { 0 k 1 U.6., . 5 @ U.&......................................................................................................",
".....3.e 7 6 e w &.w C V 8 5 R.w.<..............................................................................................",
".......... N.w & f ! ` 5 -.3 M.w $ 5.9 V d......................................................................................",
".................2 f.&.. D @ 5 5., 2 @ U 2 e O.,................................................................................",
".................. M E u........ %.O.....5   q % 5 9., h.o......................................................................",
".................... W ] 5 N.............* ) B.... S.: ) 3 (....................................................................",
".......................... + [ ` , J.............. ` Y.. C   i [ , , g..........................................................",
".............................. a.$ F 5 ` W Y............ v 9.8...$.0 x 5 ; O....................................................",
"...................................... a b B 5 ~ o V.............. | ^.. J K e 5 o o s..........................................",
".............................................. z.4 U 5 > H Z............ m p L...4.q.+ ( H Z....................................",
".......................................................% G I 5 [.5.5.O............ f ] j G I 5 [.5 v............................",
".............................................................. y X X ' 5 A.;.................. y X Q 5 = n.;....................",
"........................................................................ P * 5 [.%.%.X.................- E.# } 4.% s............",
".............................................................................. y > > 4 5.< y............... .7.X > _ 5 # y y....",
"........................................................................................ $ [ 1 , D........ @ <.........1 [ ] -..",
".............................................................................................@.$ L 5 ! W.=.................X 6..",
".................................................................................................... c b - 5 Q o N.......... 5..",
"............................................................................................................ v.4 T 5 / H.6 G t..",
".................................................................................................................... Y   l r #.."
};
