/* XPM */
static char *fornuis-r[] = {
/* width height ncolors chars_per_pixel */
"59 64 233 2",
/* colors */
"   c #000000",
" . c #AFAFAF",
" X c #ADADAD",
" o c #ABABAB",
" O c #A9A9A9",
" + c #A7A7A7",
" @ c #A5A5A5",
" # c #A3A3A3",
" $ c #A1A1A1",
" % c #9F9F9F",
" & c #9D9D9D",
" * c #9B9B9B",
" = c #999999",
" - c #939393",
" ; c #919191",
" : c #8F8F8F",
" > c #8D8D8D",
" , c #8B8B8B",
" < c #898989",
" 1 c #878787",
" 2 c #858585",
" 3 c #838383",
" 4 c #818181",
" 5 c #7F7F7F",
" 6 c #7D7D7D",
" 7 c #7B7B7B",
" 8 c #797979",
" 9 c #777777",
" 0 c #757575",
" q c #737373",
" w c #717171",
" e c #6F6F6F",
" r c #6D6D6D",
" t c #6B6B6B",
" y c #696969",
" u c #676767",
" i c #656565",
" p c #636363",
" a c #616161",
" s c #5F5F5F",
" d c #5D5D5D",
" f c #5B5B5B",
" g c #595959",
" h c #575757",
" j c #555555",
" k c #535353",
" l c #515151",
" z c #4F4F4F",
" x c #4D4D4D",
" c c #FEFEFE",
" v c #4B4B4B",
" b c #FCFCFC",
" n c #494949",
" m c #FAFAFA",
" M c #474747",
" N c #F8F8F8",
" B c #454545",
" V c #F6F6F6",
" C c #434343",
" Z c #F4F4F4",
" A c #414141",
" S c #F2F2F2",
" D c #3F3F3F",
" F c #F0F0F0",
" G c #3D3D3D",
" H c #EEEEEE",
" J c #3B3B3B",
" K c #ECECEC",
" L c #393939",
" P c #EAEAEA",
" I c #373737",
" U c #353535",
" Y c #E6E6E6",
" T c #333333",
" R c #E4E4E4",
" E c #313131",
" W c #2F2F2F",
" Q c #E0E0E0",
" ! c #2D2D2D",
" ~ c #DEDEDE",
" ^ c #2B2B2B",
" / c #DCDCDC",
" ( c #292929",
" ) c #DADADA",
" _ c #272727",
" ` c #D8D8D8",
" ' c #252525",
" ] c #D6D6D6",
" [ c #232323",
" { c #D4D4D4",
" } c #212121",
" | c #D2D2D2",
".  c #1F1F1F",
".. c #D0D0D0",
".X c #1D1D1D",
".o c #CECECE",
".O c #1B1B1B",
".+ c #CCCCCC",
".@ c #191919",
".# c #CACACA",
".$ c #171717",
".% c #C8C8C8",
".& c #C6C6C6",
".* c #131313",
".= c #111111",
".- c #C2C2C2",
".; c #0F0F0F",
".: c #C0C0C0",
".> c #0D0D0D",
"., c #BEBEBE",
".< c #BCBCBC",
".1 c #090909",
".2 c #BABABA",
".3 c #070707",
".4 c #B8B8B8",
".5 c #030303",
".6 c #B4B4B4",
".7 c #010101",
".8 c #B2B2B2",
".9 c #AEAEAE",
".0 c #ACACAC",
".q c #A8A8A8",
".w c #A6A6A6",
".e c #A4A4A4",
".r c #A2A2A2",
".t c #A0A0A0",
".y c #9E9E9E",
".u c #9C9C9C",
".i c #9A9A9A",
".p c #989898",
".a c #969696",
".s c #949494",
".d c #929292",
".f c #909090",
".g c #8E8E8E",
".h c #8C8C8C",
".j c #8A8A8A",
".k c #888888",
".l c #868686",
".z c #848484",
".x c #828282",
".c c #808080",
".v c #7E7E7E",
".b c #7C7C7C",
".n c #7A7A7A",
".m c #787878",
".M c #767676",
".N c #747474",
".B c #727272",
".V c #707070",
".C c #6E6E6E",
".Z c #6C6C6C",
".A c #6A6A6A",
".S c #686868",
".D c #666666",
".F c #626262",
".G c #606060",
".H c #5E5E5E",
".J c #5C5C5C",
".K c #5A5A5A",
".L c #585858",
".P c #565656",
".I c #545454",
".U c #525252",
".Y c #505050",
".T c #4E4E4E",
".R c #FFFFFF",
".E c #4C4C4C",
".W c #FDFDFD",
".Q c #4A4A4A",
".! c #FBFBFB",
".~ c #484848",
".^ c #F9F9F9",
"./ c #464646",
".( c #444444",
".) c #F5F5F5",
"._ c #424242",
".` c #F3F3F3",
".' c #404040",
".] c #F1F1F1",
".[ c #3E3E3E",
".{ c #EFEFEF",
".} c #3C3C3C",
".| c #3A3A3A",
"X  c #383838",
"X. c #363636",
"XX c #343434",
"Xo c #E5E5E5",
"XO c #323232",
"X+ c #E3E3E3",
"X@ c #303030",
"X# c #E1E1E1",
"X$ c #2E2E2E",
"X% c #DFDFDF",
"X& c #2C2C2C",
"X* c #2A2A2A",
"X= c #DBDBDB",
"X- c #282828",
"X; c #D9D9D9",
"X: c #262626",
"X> c #D7D7D7",
"X, c #242424",
"X< c #D5D5D5",
"X1 c #222222",
"X2 c #202020",
"X3 c #D1D1D1",
"X4 c #1E1E1E",
"X5 c #CFCFCF",
"X6 c #1C1C1C",
"X7 c #CDCDCD",
"X8 c #1A1A1A",
"X9 c #CBCBCB",
"X0 c #181818",
"Xq c #C9C9C9",
"Xw c #161616",
"Xe c #C7C7C7",
"Xr c #C5C5C5",
"Xt c #121212",
"Xy c #C3C3C3",
"Xu c #101010",
"Xi c #C1C1C1",
"Xp c #0E0E0E",
"Xa c #BFBFBF",
"Xs c #0C0C0C",
"Xd c #BDBDBD",
"Xf c #0A0A0A",
"Xg c #BBBBBB",
"Xh c #080808",
"Xj c #B9B9B9",
"Xk c #060606",
"Xl c #B7B7B7",
"Xz c #040404",
"Xx c #020202",
/* pixels */
".R.R.R.R.R.R.R.R.R.R.R.R.R.R.R.R.R.RX7.9.9.9.9.9.9.9.9.9.9.9.9.9.9.9.9.9.9.9.9.9.9.9.9.9.9.9.9.9.9.9.9.9.9.9.9.9.9.2.R",
".R.R.R.R.R.R.R.R.R.R.R.R.R.R.R.R.R s.k # # # # # # # # # # # # # # # # # # # # # # # # # # # # # # # # # # # # 2   '.R",
".R.R.R.R.R.R.R.R.R.R.R.R.R.RX7.s l.].! K.4.4.4.4.4.4.4.4X<.R.R.R.R.R.R.R.R.R.:.4.4.4.4.4.4 {.R.R.R.R.R.R.R.{.4 6 Z z.R",
".R.R.R.R.R.R.R.R.R.R.R.R.) u.j.<.R.R.R j                X* e.R.R.R.R.R.R ) uXs             (.Z.R.R.R.R.R.R.c.p.].R l.R",
".R.R.R.R.R.R.R.R.R.R...d f P.^.R.R.R.R M.@              .@./.R.R.R.R.R.RX5X8                XO.R.R.R.R.&.cX#.R.R.R l.R",
".R.R.R.R.R.R.R.R P.B 1.,.R.R.R.R.R.R.R.RXd > > > > > > >.<.R.R.R.R.R.R.R.RXa > > > > > > > > ~.R.R.R.w.h...R.R.R.R l.R",
".R.R.R.R.R.R {.g.DX% N.R b.o kX2X2X2X2X2X2X2.vX>.R.R.R.R.R.W.o.PX2X2X2X2X2X2X2 7 ].R.R.R.R.R.R.R ~.U o.W.R.R.R.R.R l.R",
".R.R.R.R Q.b.xXy.R.R.R.R H                     !.R.R.R.R.R S                     (.R.R.R.R.R.!.b 4 c.R.R.R.R.R.R.R l.R",
".R.R ) 1.V { m.R.R.R.R.R b ; _ _.>      .$ _ _Xy.R.R.R.R.R Z _ _ _Xp    Xf _ _ _Xa.R.R.R.R F.b {.].R.R.R.R.R.R.R.R l.R",
".R.8 8Xq.R.R.R.R.R.R.R.R.R.R.R.R @.m.m.m.&.R.R.R.R.R.R.R.R.R.R.R.R.q.m.m =.R.R.R.R.R.R.R.e 4X;.R.R.R.R.R.R.R.R.R.R l.R",
".R.J.T l l l l l l l l l l l l l l l l l l l l l l l l l l l l l l l l l l l l l l l l B @ ~.R.R.R.R.R.R.R.R.R.R.R l.R",
".R.J Z.RXo.d +.R.R.R.R...d.<.R.R.R.R.R.R.R.R.R.R.R.R.R.R.R.R.R.R.R.R.R.R.R.R.R.R.R.R.R :Xi.R.R.R.R.R.R.R.R.R.R.R.R l.R",
".R.J Z.).'  Xs = b.R P ^.M.b n.R.R M.T.T./ K.R | M.E :.!.R.N.T.T 3.^.R.R.R.) h.T.E.u.R :Xi.R.R.R.R.R.R.R.R.R.R.R.R l.R",
".R.J Z u         {.RX+ h.+.+._.R.R._.+.+.PXo.RXO >Xg ^Xr.R z.+.+ < @.R.R.R e s.+ o.n.R :Xi.R.R.R.R.R.R.R.R.R.R.R.R l.R",
".R.J Z |.;    .J S.R R gXe ;X6.R.R.'XeXe.IXo.R.~XqX9 rXr.R zXeXe.k +.R.R.R q.U.#.q.n.R :Xi.R.R.R.R.R.R.R.R.R.R.R.R l.R",
".R.J Z.R.D.L.L.9.R.R.RXl.L.L.o.R.R f.L.L.L H.R.V e.NX-X;.R 2.L.L :.R.R.R.R.R.K./ [.q.R :Xi.R.R.R.R.R.R.R.R.R.R.R.R l.R",
".R.J Z.R.R.R.R.R.R.R.R.R.R.R.R.R.R.R.R.R.R.R.R.R { O...R.R.R.R.R.R.R.R.R.R.R H OXl.R.R :Xi.R.R.R.R.R.R.R.R.R.R.R.R l.R",
".R.J Z.R.R.R.R.R.R.R.R.R.R.R.R.R.R.R.R.R.R.R.R.R.R.R.R.R.R.R.R.R.R.R.R.R.R.R.R.R.R.R.R :Xi.R.R.R.R.R.R.R.R.R.R.R.R l.R",
".R.J Z.t.G.G.G.G.G.G.G.G.G.G.G.G.G.G.G.G.G.G.G.G.G.G.G.G.G.G.G.G.G.G.G.G.G.G.G.G.G.G q :Xi.R.R.R.R.R.R.R.R.R.R.R.R l.R",
".R.J Z u / F F F F F F F F F F F F F F F F F F F F F F F F F F F F F F F F F F F F F.T :Xi.R.R.R.R.R.R.R.R.R.R.R.R l.R",
".R.J Z u P.R.R.R.R.R.R.R.R.R.R.R.R.R.R.R.R.R.R.R.R.R.R.R.R.R.R.R.R.R.R.R.R.R.R.R.R.R l :Xi.R.R.R.R.R.R.R.R.R.R.R.R l.R",
".R.J Z u P.R A.E.E.E.E.E.E.E.E.E.E.E.E.E.E.E.E.E.E.E.E.E.E.E.E.E.E.E.E.E.E.E.EXOX=.R l :Xi.R.R.R.R.R.R.R.R.R.R.R.R l.R",
".R.J Z u P.R x Y Y Y Y Y Y Y Y Y Y Y Y Y Y Y Y Y Y Y Y Y Y Y Y Y Y Y Y Y Y Y Y.C ].R l :Xi.R.R.R.R.R.R.R.R.R.R.R.R l.R",
".R.J Z u P.R pXdXdXdXdXdXdXdXdXdXdXdXdXdXdXdXdXdXdXdXdXdXdXdXdXdXdXdXdXdXdXdXd.B ~.R l :Xi.R.R.R.R.R.R.R.R.R.R.R.R l.R",
".R.J Z u P.R Y 5 5 5 5 5 5 5 5 5 5 5 5 5 5 5 5 5 5 5 5 5 5 5 5 5 5 5 5 5 5 5 5.-.R.R l :Xi.R.R.R.R.R.R.R.R.R.R.R.R l.R",
".R.J Z u P.R.R.R.R.R.R.R.R.R.R.R.R.R.R.R.R.R.R.R.R.R.R.R.R.R.R.R.R.R.R.R.R.R.R.R.R.R l :Xi.R.R.R.R.R.R.R.R.R.R.R.R l.R",
".R.J Z u P.R.R.R.R.R.R.R.R.R.R.R.R.R.R.R.R.R.R.R.R.R.R.R.R.R.R.R.R.R.R.R.R.R.R.R.R.R l :Xi.R.R.R.R.R.R.R.R.R.R.R.R l.R",
".R.J Z u P.RX;.|.|.|.|.(.'.|.Q.| n.|.~ J.|.Q.|.[./.|.|.Q.|.Q C A._._.|.~.} M i.R.R.R l :Xi.R.R.R.R.R.R.R.R.R.R.R.R l.R",
".R.J Z u P.R.o  XuX    r.'  .9   OXz %.;  .9   !.c    .9  .9.H z.I.K  .i.*.f l.R.R.R l :Xi.R.R.R.R.R.R.R.R.R.R.R.R l.R",
".R.J Z u P.R.o  .*X,.* 4Xt v.F B.S D.Z.3.A.'.3.zX1Xx.P h z e 1.  ,X0 J.C.}.m.}.R.R.R l :Xi.R.R.R.R.R.R.R.R.R.R.R.R l.R",
".R.J Z u P.R.o  .C  .'  .=.uXz.jX2.C.| W.(.' h.$  .P.L.L.a.C [ ,   G w L /./XX.R.R.R l :Xi.R.R.R.R.R.R.R.R.R.R.R.R l.R",
".R.J Z u P.R.o  X8.JX..7.b E 9X6 :.5XO 7   d.Y  .7 X.7.6 9 W s z.7 @.1.i n.7XX.R.R.R l :Xi.R.R.R.R.R.R.R.R.R.R.R.R l.R",
".R.J Z u P.R.o    X-Xt r.'._ t J L L.AX2 [.N  .; 5 ^.r.Q i._.Z.7 w.}.x i p vXX.R.R.R l :Xi.R.R.R.R.R.R.R.R.R.R.R.R l.R",
".R.J Z u P.R.o    X* ' 2.$.'.C L I G  .k.l.=   !.cX1.6X, a.9  .7 q.|XeX,.D.~XX.R.R.R l :Xi.R.R.R.R.R.R.R.R.R.R.R.R l.R",
".R.J Z u P.R.o  XO.U !X$ 7X@ 8X6.O.M ! I.T.7 _.xX-Xl k W 9XX.O >.O >X2.l } [XX.R.R.R l :Xi.R.R.R.R.R.R.R.R.R.R.R.R l.R",
".R.J Z u P.R.o   B.~ ^.|.V.[Xz.kX1 W 8Xk   yX. 9 5.N./X& 7 ( '.k.I.K.XX- 4X&XX.R.R.R l :Xi.R.R.R.R.R.R.R.R.R.R.R.R l.R",
".R.J Z u P.R.o  .MX:X, p I C U U   : ,Xf   d.Y.P.cX:.z <Xh W.' e 7 WXX B I.F.~.R.R.R l :Xi.R.R.R.R.R.R.R.R.R.R.R.R l.R",
".R.J Z u P.R.o  .FXX _.U.EX  ! n.GX,X*  .I.K x.- IX- 4.@ J.B U ) W 7 ! L e DXX.R.R.R l.o.x.R.R.R.R.R.R.R.R.R.R.R.R l.R",
".R.J Z u P.R.o   I  .n _.@.MXf.H.V.7  .z _ 2 2 J w.~ s _ } :.Z.I ! 7Xp ^.g [XX.R.R.R l.R l.R.R.R.R.R.R.R.R.R.R.R.R l.R",
".R.J Z u P.R.o   k DX6XX 8  Xk + lXx  .n T.d.MXw 5.Z   fXO 4 x.J.U   f.Q 4 UXX.R.R.R l.R l.R.R.R.R.R.R.R.R.R.R.R.R l.R",
".R.J Z u P.R.o  X. e ' v.~Xu 2 U   U f.E a % (.z (.v   M 9 &.;X* 0   y d n.EXX.R.R.R l.R l.R.R.R.R.R.R.R.R.R.R.R.R l.R",
".R.J Z u P.R.o  .9 L 4./Xh X.T h   ' 4X-XeXX.c.v C   I 4 5X*.v (   z 4 4Xf B._.R.R.R l.R l.R.R.R.R.R.R.R.R.R.R.R.R l.R",
".R.J Z u P.R.o g.'X: >.XX,.y.;XfXf :. .&.b ' 0.Y  .nX- *X4 7 TXx 5X& :X2.vX*.|.R.R.R l.R l.R.R.R.R.R.R.R.R.R.R.R.R l.R",
".R.J Z u P.R.o  .E.m._.V.#    .L.t z.w.6 AX3XXXi.V 3.,X3.V ^.#.V %.r x.q -.9 A.R.R.R l.R l.R.R.R.R.R.R.R.R.R.R.R.R l.R",
".R.J Z u P.RX3.* GX@ _ l x.*.*X- l _ l A I lX@.~ l l l l l _ l l l l _ l l l.Q.R.R.R l.R l.R.R.R.R.R.R.R.R.R.R.R.R l.R",
".R.J Z u P.R.R.R.R.R.R.R.R.R.R.R.R.R.R.R.R.R.R.R.R.R.R.R.R.R.R.R.R.R.R.R.R.R.R.R.R.R l.R l.R.R.R.R.R.R.R.R.R.R.R.R l.R",
".R.J Z u P.R.R.R.R.R.R.R.R.R.R.R.R.R.R.R.R.R.R.R.R.R.R.R.R.R.R.R.R.R.R.R.R.R.R.R.R.R l.R l.R.R.R.R.R.R.R.R.R.R.R.R l.R",
".R.J Z u P.R.R.R.R.R.R.R.R.R.R.R.R.R.R.R.R.R.R.R.R.R.R.R.R.R.R.R.R.R.R.R.R.R.R.R.R.R l.R l.R.R.R.R.R.R.R.R.R.R.R.R l.R",
".R.J Z u.E k k k k k k k k k k k k k k k k k k k k k k k k k k k k k k k k k k k k k W.R l.R.R.R.R.R.R.R.R.R.R.R.R l.R",
".R.J ~ ..9.9.9.9.9.9.9.9.9.9.9.9.9.9.9.9.9.9.9.9.9.9.9.9.9.9.9.9.9.9.9.9.9.9.9.9.9.9.4.R l.R.R.R.R.R.R.R.R.R.R.R.R l.R",
".R.J.9.G $ $ $ $ $ $ $ $ $ $ $ $ $ $ $ $ $ $ $ $ $ $ $ $ $ $ $ $ $ $ $ $ $ $ $ $ $ $ D.R l.R.R.R.R.R.R.R.R.R.R.R.R l.R",
".R.J.9.p.R.R.R.R.R.R.R.R.R.R.R.R.R.R.R.R.R.R.R.R.R.R.R.R.R.R.R.R.R.R.R.R.R.R.R.R.R.R l.R l.R.R.R.R.R.R.R.R.R.R S 2 `.R",
".R.J.9.p.R.R.R.R.R.R.R.R.R.R.R.R.R.R.R.R.R.R.R.R.R.R.R.R.R.R.R.R.R.R.R.R.R.R.R.R.R.R l.R l.R.R.R.R.R.R.R.R.R.R 2X9.R.R",
".R.J.9.p.RX%XrXrXrXrXrXrXrXrXrXrXrXrXrXrXrXrXrXrXrXrXrXrXrXrXrXrXrXrXrXrXrXrXrXr V.R l.R l.R.R.R.R.R.R.R.R S.l `.R.R.R",
".R.J.9.p.R.B.C.v.v.v.v.v.v.v.v.v.v.v.v.v.v.v.v.v.v.v.v.v.v.v.v.v.v.v.v.v.v.v.v.} ].R l.R l.R.R.R.R.R.R.R.R.l.#.R.R.R.R",
".R.J.9.p.R.B.0 Y Y Y Y Y Y Y Y Y Y Y Y Y Y Y Y Y Y Y Y Y Y Y Y Y Y Y Y Y Y Y Y.C ].R l.R l.R.R.R.R.R.R S 2 `.R.R.R.R.R",
".R.J.9.p.RXjX:.B.B.B.B.B.B.B.B.B.B.B.B.B.B.B.B.B.B.B.B.B.B.B.B.B.B.B.B.B.B.B.B I ].R l.R l.R.R.R.R.R.R 2X9.R.R.R.R.R.R",
".R.J.9.p.R.R ` | | | | | | | | | | | | | | | | | | | | | | | | | | | | | | | | | N.R l.R l.R.R.R.R.`.z `.R.R.R.R.R.R.R",
".R.J.9.p.R.R.R.R.R.R.R.R.R.R.R.R.R.R.R.R.R.R.R.R.R.R.R.R.R.R.R.R.R.R.R.R.R.R.R.R.R.R l.R l.R.R.R.R.z.+.R.R.R.R.R.R.R.R",
".R.J.9.p.R.R.R.R.R.R.R.R.R.R.R.R.R.R.R.R.R.R.R.R.R.R.R.R.R.R.R.R.R.R.R.R.R.R.R.R.R.R l.R l.R.R V 4 `.R.R.R.R.R.R.R.R.R",
".R.J.9.p.R.R.R.R.R.R.R.R.R.R.R.R.R.R.R.R.R.R.R.R.R.R.R.R.R.R.R.R.R.R.R.R.R.R.R.R.R.R l.R l.R.!.lX5.R.R.R.R.R.R.R.R.R.R",
".R.J.9 : F F F F F F F F F F F F F F F F F F F F F F F F F F F F F F F F F F F F F F.T.R l.^.x {.R.R.R.R.R.R.R.R.R.R.R",
".R.J.% a a a a a a a a a a a a a a a a a a a a a a a a a a a a a a a a a a a a a a a.N.R.Q.l |.R.R.R.R.R.R.R.R.R.R.R.R",
".R.J.Q x x x x x x x x x x x x x x x x x x x x x x x x x x x x x x x x x x x x x x x x xX2...R.R.R.R.R.R.R.R.R.R.R.R.R"
};
