/* XPM */
static char *fornuis-r[] = {
/* width height ncolors chars_per_pixel */
"58 64 241 2",
/* colors */
"   c #000000",
" . c #B1B1B1",
" X c #AFAFAF",
" o c #ADADAD",
" O c #ABABAB",
" + c #A9A9A9",
" @ c #A7A7A7",
" # c #A5A5A5",
" $ c #A3A3A3",
" % c #A1A1A1",
" & c #9F9F9F",
" * c #9D9D9D",
" = c #9B9B9B",
" - c #979797",
" ; c #959595",
" : c #939393",
" > c #919191",
" , c #8F8F8F",
" < c #8D8D8D",
" 1 c #8B8B8B",
" 2 c #898989",
" 3 c #878787",
" 4 c #838383",
" 5 c #818181",
" 6 c #7F7F7F",
" 7 c #7D7D7D",
" 8 c #7B7B7B",
" 9 c #797979",
" 0 c #777777",
" q c #757575",
" w c #737373",
" e c #717171",
" r c #6F6F6F",
" t c #6D6D6D",
" y c #6B6B6B",
" u c #696969",
" i c #676767",
" p c #656565",
" a c #636363",
" s c #616161",
" d c #5F5F5F",
" f c #5D5D5D",
" g c #5B5B5B",
" h c #595959",
" j c #575757",
" k c #555555",
" l c #535353",
" z c #515151",
" x c #4F4F4F",
" c c #4D4D4D",
" v c #FEFEFE",
" b c #4B4B4B",
" n c #FCFCFC",
" m c #494949",
" M c #FAFAFA",
" N c #474747",
" B c #F8F8F8",
" V c #454545",
" C c #F6F6F6",
" Z c #434343",
" A c #F4F4F4",
" S c #414141",
" D c #F2F2F2",
" F c #3F3F3F",
" G c #F0F0F0",
" H c #3D3D3D",
" J c #EEEEEE",
" K c #3B3B3B",
" L c #ECECEC",
" P c #EAEAEA",
" I c #373737",
" U c #E8E8E8",
" Y c #353535",
" T c #E6E6E6",
" R c #333333",
" E c #E4E4E4",
" W c #313131",
" Q c #E2E2E2",
" ! c #2F2F2F",
" ~ c #2D2D2D",
" ^ c #DEDEDE",
" / c #2B2B2B",
" ( c #DCDCDC",
" ) c #292929",
" _ c #DADADA",
" ` c #272727",
" ' c #D8D8D8",
" ] c #252525",
" [ c #232323",
" { c #D4D4D4",
" } c #212121",
" | c #D2D2D2",
".  c #1F1F1F",
".. c #D0D0D0",
".X c #1D1D1D",
".o c #CECECE",
".O c #1B1B1B",
".+ c #CCCCCC",
".@ c #191919",
".# c #CACACA",
".$ c #171717",
".% c #C8C8C8",
".& c #151515",
".* c #C6C6C6",
".= c #131313",
".- c #C4C4C4",
".; c #111111",
".: c #C2C2C2",
".> c #0F0F0F",
"., c #C0C0C0",
".< c #0D0D0D",
".1 c #BEBEBE",
".2 c #0B0B0B",
".3 c #BCBCBC",
".4 c #BABABA",
".5 c #070707",
".6 c #B8B8B8",
".7 c #050505",
".8 c #B6B6B6",
".9 c #030303",
".0 c #B4B4B4",
".q c #010101",
".w c #B2B2B2",
".e c #AEAEAE",
".r c #A8A8A8",
".t c #A4A4A4",
".y c #A2A2A2",
".u c #A0A0A0",
".i c #9E9E9E",
".p c #9C9C9C",
".a c #989898",
".s c #969696",
".d c #949494",
".f c #929292",
".g c #909090",
".h c #8E8E8E",
".j c #8C8C8C",
".k c #8A8A8A",
".l c #888888",
".z c #868686",
".x c #848484",
".c c #828282",
".v c #808080",
".b c #7E7E7E",
".n c #7C7C7C",
".m c #7A7A7A",
".M c #787878",
".N c #767676",
".B c #747474",
".V c #727272",
".C c #707070",
".Z c #6E6E6E",
".A c #6C6C6C",
".S c #6A6A6A",
".D c #686868",
".F c #666666",
".G c #646464",
".H c #626262",
".J c #606060",
".K c #5E5E5E",
".L c #5A5A5A",
".P c #585858",
".I c #565656",
".U c #545454",
".Y c #525252",
".T c #505050",
".R c #4E4E4E",
".E c #FFFFFF",
".W c #4C4C4C",
".Q c #FDFDFD",
".! c #4A4A4A",
".~ c #FBFBFB",
".^ c #484848",
"./ c #F9F9F9",
".( c #464646",
".) c #F7F7F7",
"._ c #444444",
".` c #F5F5F5",
".' c #424242",
".] c #404040",
".[ c #F1F1F1",
".{ c #3E3E3E",
".} c #EFEFEF",
".| c #3C3C3C",
"X  c #EDEDED",
"X. c #3A3A3A",
"XX c #EBEBEB",
"Xo c #383838",
"XO c #E9E9E9",
"X+ c #363636",
"X@ c #E7E7E7",
"X# c #343434",
"X$ c #E5E5E5",
"X% c #323232",
"X& c #E3E3E3",
"X* c #303030",
"X= c #E1E1E1",
"X- c #2E2E2E",
"X; c #DFDFDF",
"X: c #2C2C2C",
"X> c #DDDDDD",
"X, c #2A2A2A",
"X< c #DBDBDB",
"X1 c #282828",
"X2 c #D9D9D9",
"X3 c #262626",
"X4 c #D7D7D7",
"X5 c #242424",
"X6 c #D5D5D5",
"X7 c #222222",
"X8 c #D3D3D3",
"X9 c #202020",
"X0 c #D1D1D1",
"Xq c #1E1E1E",
"Xw c #CFCFCF",
"Xe c #1C1C1C",
"Xr c #1A1A1A",
"Xt c #CBCBCB",
"Xy c #181818",
"Xu c #C9C9C9",
"Xi c #161616",
"Xp c #C7C7C7",
"Xa c #141414",
"Xs c #C5C5C5",
"Xd c #121212",
"Xf c #C3C3C3",
"Xg c #101010",
"Xh c #C1C1C1",
"Xj c #0E0E0E",
"Xk c #BFBFBF",
"Xl c #0C0C0C",
"Xz c #BDBDBD",
"Xx c #0A0A0A",
"Xc c #BBBBBB",
"Xv c #080808",
"Xb c #B9B9B9",
"Xn c #060606",
"Xm c #B7B7B7",
"XM c #040404",
"XN c #B5B5B5",
"XB c #020202",
/* pixels */
".E.E.E.E.E.E.E.E.E.E.E.E.E.E.E.[ X a.T.T.T.T.T.T.T.T.T.T.T.T.T.T.T.T.T.T.T.T.T.T.T.T.T.T.T.T.T.T.T.T.T.T.T.T.T.9    ",
".E.E.E.E.E.E.E.E.E.E.E.E.E.E @ y & L.E.E.E.E.E.E.E.E.E.E.E.E.E.E.E.E.E.E.E.E.E.E.E.E.E.E.E.E.E.E.E.E.E.E.E.E.a *.'  ",
".E.E.E.E.E.E.E.E.E.E.E L.,.P.r D.E B qXgXgXgXgXgXgXgXg pXp.E.E.E.E.E.E.[., /XgXgXgXgXgXg S.,./.E.E.E.E.EXw.TXm v.S  ",
".E.E.E.E.E.E.E.E.E.E.i 9 ,.).E.E.E Q                    .O.E.E.E.E.E.E.*                    X@.E.E.E.E.* 2.E.E.E.S  ",
".E.E.E.E.E.E.EXXXu.T . U.E.E.E.E.E.~ ^ f ! ! ! ! ! ! ! 4X=.E.E.E.E.E.E B.v ! ! ! ! ! ! ! ! - n.E.EXO t 2 C.E.E.E.S  ",
".E.E.E.E.E.E.a.v.z.E.E.E.E 2.v.v.v.v.v.v.vX6.E.E.E.E.E.E.E.E.y.v.v.v.v.v.v.v.3.E.E.E.E.E.E.E.E.E.d.v Q.E.E.E.E.E.S  ",
".E.E.E JXs.T.8X&.E.E.E., WXM               }.Z.E.E.E.E.EXO W.<              .$ V.E.E.E.E.E.EX&.d.4X$.E.E.E.E.E.E.S  ",
".E.E.a 7 2.E.E.E.E.E.EX8X,                   -.E.E.E.E.E E                    .G.E.E.E.E.E.1 eXc.E.E.E.E.E.E.E.E.S  ",
"Xk.TXm Q.E.E.E.E.E.E.E.EX4.1.1X3XjXjXj.g.1.1 v.E.E.E.E.E B.1.1.1 mXjXjX+.1.1.1.[.E.E.E C.- >./.E.E.E.E.E.E.E.E.E.S  ",
"X% % % % % % % % % % % % % % % % % % % % % % % % % % % % % % % % % % % % % % % % % % % q 1.E.E.E.E.E.E.E.E.E.E.E.S  ",
"X+ o o o o o o o o o o o o o o o o o o o o o o o o o o o o o o o o o o o o o o o o o e @.E.E.E.E.E.E.E.E.E.E.E.E.S  ",
".T.E L xXB h G.E.E QX..].z.-.E.[ . . .XN.E.E U . .X<.E.EXh . ..+.E.E.E.E.EXz . .X0.E @ @.E.E.E.E.E.E.E.E.E.E.E.E.S  ",
".T.E.U      .H.E.E %.IXt.p.(.E |.{.b.bX-.E.E N c s Y U.E.'.b.b.B.#.E.E.E O [.b.V.D.E @ @.E.E.E.E.E.E.E.E.E.E.E.E.S  ",
".T.EX.       m.E.E % 1.+.e.^.E |.G.+.+.'.E.E.|.*Xu.I _.E.!.+.+.x +.E.E.E.N 5.+.6.D.E @ @.E.E.E.E.E.E.E.E.E.E.E.E.S  ",
".T.E.,      .o.E.EX6 y g [.i.E |X: g gX5.E.E. .u.w ) _.E.{ g g tX2.E.E.E.:X5.g y.D.E @ @.E.E.E.E.E.E.E.E.E.E.E.E.S  ",
".T.E C ( ( ( B.E.E.EX@ ( ( n.E./ ( ( ( ^.E.EX> 4.'.j M.EX& ( ( U.E.E.E.E.EXsX.._ P.E @ @.E.E.E.E.E.E.E.E.E.E.E.E.S  ",
".T.E.E.E.E.E.E.E.E.E.E.E.E.E.E.E.E.E.E.E.E.E.E.E.E.E.E.E.E.E.E.E.E.E.E.E.E.E.E.E.E.E @ @.E.E.E.E.E.E.E.E.E.E.E.E.S  ",
".T.E E Q Q Q Q Q Q Q Q Q Q Q Q Q Q Q Q Q Q Q Q Q Q Q Q Q Q Q Q Q Q Q Q Q Q Q Q Q QX& @ @.E.E.E.E.E.E.E.E.E.E.E.E.S  ",
".T.E /.A.A.A.A.A.A.A.A.A.A.A.A.A.A.A.A.A.A.A.A.A.A.A.A.A.A.A.A.A.A.A.A.A.A.A.A.A.A ` @ @.E.E.E.E.E.E.E.E.E.E.E.E.S  ",
".T.E.T.E.E.E.E.E.E.E.E.E.E.E.E.E.E.E.E.E.E.E.E.E.E.E.E.E.E.E.E.E.E.E.E.E.E.E.E.E.E.T @ @.E.E.E.E.E.E.E.E.E.E.E.E.S  ",
".T.E.T.E J $ $ $ $ $ $ $ $ $ $ $ $ $ $ $ $ $ $ $ $ $ $ $ $ $ $ $ $ $ $ $ $ $ $XX.E.T @ @.E.E.E.E.E.E.E.E.E.E.E.E.S  ",
".T.E.T.E.. c = = = = = = = = = = = = = = = = = = = = = = = = = = = = = = = =.Y.%.E.T @ @.E.E.E.E.E.E.E.E.E.E.E.E.S  ",
".T.E.T.E...V T T T T T T T T T T T T T T T T T T T T T T T T T T T T T T T T 9.%.E.T @ @.E.E.E.E.E.E.E.E.E.E.E.E.S  ",
".T.E.T.EX  8.L.L.L.L.L.L.L.L.L.L.L.L.L.L.L.L.L.L.L.L.L.L.L.L.L.L.L.L.L.L.L.L 9XO.E.T @ @.E.E.E.E.E.E.E.E.E.E.E.E.S  ",
".T.E.T.E.E.`XXXXXXXXXXXXXXXXXXXXXXXXXXXXXXXXXXXXXXXXXXXXXXXXXXXXXXXXXXXXXXXX A.E.E.T @ @.E.E.E.E.E.E.E.E.E.E.E.E.S  ",
".T.E.T.E.E.E.E.E.E.E.E.E.E.E.E.E.E.E.E.E.E.E.E.E.E.E.E.E.E.E.E.E.E.E.E.E.E.E.E.E.E.T @ @.E.E.E.E.E.E.E.E.E.E.E.E.S  ",
".T.E.T.E.E P { { { { { { { { { { { { { { { { { { { { { { { { { { { { { { {X<.E.E.E.T @ @.E.E.E.E.E.E.E.E.E.E.E.E.S  ",
".T.E.T.E.E.v        .U.q   k   k   k  Xn x  X5X*     k   k R } / )  .!.2.'.|.E.E.E.T @ @.E.E.E.E.E.E.E.E.E.E.E.E.S  ",
".T.E.T.E.E.v  .W ~Xx.tXB.; &.> %.<.y  Xq.f  .I h  .> %.< # r F.H.WXv.dXr 3 b.E.E.E.T @ @.E.E.E.E.E.E.E.E.E.E.E.E.S  ",
".T.E.T.E.E.v.<.|   IX*X9.xX5.c ` 6Xq ~.c   N.D  .@ 5 ` 6 0 j x.J  .B.|.c.N ).E.E.E.T @ @.E.E.E.E.E.E.E.E.E.E.E.E.S  ",
".T.E.T.E.E.vXvX:Xl r   z.K.$.v / [.m [.O.BX%.q  .g.  +.xX% c.H  .nX#.C.%X9 ).E.E.E.T @ @.E.E.E.E.E.E.E.E.E.E.E.E.S  ",
".T.E.T.E.E.v   NX,   H.V I.MX%.b  .T dXM qX+   I 9 W.h.bX: 9 ~X9.jXq 3 [X, ).E.E.E.T @ @.E.E.E.E.E.E.E.E.E.E.E.E.S  ",
".T.E.T.E.E.v    .B   oXB Y.m ! ).I K.^ W I  X% 0X- ' R ~ 7X%.5.j.X.1.F.lX1 ).E.E.E.T @ @.E.E.E.E.E.E.E.E.E.E.E.E.S  ",
".T.E.T.E.E.v     I.].| R.A._ sX3 )Xa 3 <     u N f.b ).b.j   R.'.A.v !X% z ).E.E.E.T @ @.E.E.E.E.E.E.E.E.E.E.E.E.S  ",
".T.E.T.E.E.vXd j.(Xo W q K.(.U `X# u /.O   i m f.3XoX1.v.&.].CX+ 0 !.m / N ).E.E.E.T @ @.E.E.E.E.E.E.E.E.E.E.E.E.S  ",
".T.E.T.E.E.vXx ~.M.XXr 6X:X- g.< w.L  Xv.x }.k ,X: 9._.JX5 }.g y.'.$X9 7 )X%.E.E.E.T @ @.E.E.E.E.E.E.E.E.E.E.E.E.S  ",
".T.E.T.E.E.vXj Z.K /X3.K m ) H.& 6 t  .5.c ` 5.cX3.v p  .K W 4.W g ] !.K F K.E.E.E.T @ @.E.E.E.E.E.E.E.E.E.E.E.E.S  ",
".T.E.T.E.E.v.& a.X.LXo `.nXiX1.b.=XlXy.n R > - W ! 8.2.U g.L.o.{.CX#.(.K z ).E.E.E.T D.G B.E.E.E.E.E.E.E.E.E.E.E.S  ",
".T.E.T.E.E.v.> VXv k.YX, R.X.v p  .>.vX3 5.cX3 5.K m.=X..c.b ).R h.9 m.cXo ).E.E.E.T.E.P.).E.E.E.E.E.E.E.E.E.E.E.S  ",
".T.E.T.E.E.v.5X, 6  X+ 9  .^ iX3Xl.@ 3. X8 bX7.v V   7 ` =X9.nX#  .v / , ] ).E.E.E.T.E.P.).E.E.E.E.E.E.E.E.E.E.E.S  ",
".T.E.T.E.E.vXl.nX:.' i.q.].l !  .!.F.] 0 s.(.l ).D   s.v 7 /X7.H   w 8 /.( ).E.E.E.T.E.P.).E.E.E.E.E.E.E.E.E.E.E.S  ",
".T.E.T.E.E.v [.j 7 wXoXoX; [X9.q.L k l _ F r ,XeXn d.Z 7 `.xXa.7.B.Z eXl.K Z.E.E.E.T.E.P.).E.E.E.E.E.E.E.E.E.E.E.S  ",
".T.E.T.E.E.v w  .(.S   r.]   W ).vX- _X*Xo.C F   3X1 X  .n R.5 1Xq.j [ 3 ) ).E.E.E.T.E.P.).E.E.E.E.E.E.E.E.E.E.E.S  ",
".T.E.T.E.E.vXa d X H @ .     <.s 7.: : 6X; IX= @XcXw E @ H _ @.*Xs.R.#Xc...'.E.E.E.T.E.P.).E.E.E.E.E.E.E.E.E.E.E.S  ",
".T.E.T.E.E.t m c.R b.T.R.^.^.W x.W.T c.R.T b.T.T.T.T.T.T.!.T.T.T.T.!.T.T.T i.E.E.E.T.E.P.).E.E.E.E.E.E.E.E.E.E.E.S  ",
".T.E.T.E.E.E.E.E.E.E.E.E.E.E.E.E.E.E.E.E.E.E.E.E.E.E.E.E.E.E.E.E.E.E.E.E.E.E.E.E.E.T.E.P.).E.E.E.E.E.E.E.E.E.E.E.S  ",
".T.E.T.E.E.E.E.E.E.E.E.E.E.E.E.E.E.E.E.E.E.E.E.E.E.E.E.E.E.E.E.E.E.E.E.E.E.E.E.E.E.T.E.P.).E.E.E.E.E.E.E.E.E.E.E.S  ",
".T.E.T.E.E.E.E.E.E.E.E.E.E.E.E.E.E.E.E.E.E.E.E.E.E.E.E.E.E.E.E.E.E.E.E.E.E.E.E.E.E.T.E.P.).E.E.E.E.E.E.E.E.E.E.E.S  ",
".T.E F.T.T.T.T.T.T.T.T.T.T.T.T.T.T.T.T.T.T.T.T.T.T.T.T.T.T.T.T.T.T.T.T.T.T.T.T.T.TX..E.P.).E.E.E.E.E.E.E.E.E.E.E.S  ",
".TXN.l.l.l.l.l.l.l.l.l.l.l.l.l.l.l.l.l.l.l.l.l.l.l.l.l.l.l.l.l.l.l.l.l.l.l.l.l.l.l.j.E.P.).E.E.E.E.E.E.E.E.E.E.E.S  ",
".T.JXb.*.*.*.*.*.*.*.*.*.*.*.*.*.*.*.*.*.*.*.*.*.*.*.*.*.*.*.*.*.*.*.*.*.*.*.*.*.*.].E.P.).E.E.E.E.E.E.E.E.E.E./.Z.$",
".T.J.}.E.E.E.E.E.E.E.E.E.E.E.E.E.E.E.E.E.E.E.E.E.E.E.E.E.E.E.E.E.E.E.E.E.E.E.E.E.E.T.E.P.).E.E.E.E.E.E.E.E.E.E ,Xk.E",
".T.J.}.E.E.E.E.E.E.E.E.E.E.E.E.E.E.E.E.E.E.E.E.E.E.E.E.E.E.E.E.E.E.E.E.E.E.E.E.E.E.T.E.P.).E.E.E.E.E.E.E.E.Q 1.*.E.E",
".T.J.}.E.0 + + + + + + + + + + + + + + + + + + + + + + + + + + + + + + + + + + L.E.T.E.P.).E.E.E.E.E.E.E.Q <.-.E.E.E",
".T.J.}.E.| ; ; ; ; ; ; ; ; ; ; ; ; ; ; ; ; ; ; ; ; ; ; ; ; ; ; ; ; ; ; ; ; ; x.%.E.T.E.P.).E.E.E.E.E.E.E 1Xf.E.E.E.E",
".T.J.}.E F.* T T T T T T T T T T T T T T T T T T T T T T T T T T T T T T T T 9.%.E.T.E.P.).E.E.E.E.E./ ,.*.E.E.E.E.E",
".T.J.}.E 3 ! d d d d d d d d d d d d d d d d d d d d d d d d d d d d d d d dX%.%.E.T.E.P.).E.E.E.E.E ,Xk.E.E.E.E.E.E",
".T.J.}.E MX$X$X$X$X$X$X$X$X$X$X$X$X$X$X$X$X$X$X$X$X$X$X$X$X$X$X$X$X$X$X$X$X$X$./.E.T.E.P.).E.E.E.) >.*.E.E.E.E.E.E.E",
".T.J.}.E.E.E.E.E.E.E.E.E.E.E.E.E.E.E.E.E.E.E.E.E.E.E.E.E.E.E.E.E.E.E.E.E.E.E.E.E.E.T.E.P.).E.E.E >.1.E.E.E.E.E.E.E.E",
".T.J.}.E.E.E.E.E.E.E.E.E.E.E.E.E.E.E.E.E.E.E.E.E.E.E.E.E.E.E.E.E.E.E.E.E.E.E.E.E.E.T.E.P.).E.) >.*.E.E.E.E.E.E.E.E.E",
".T.J.}.E.E.E.E.E.E.E.E.E.E.E.E.E.E.E.E.E.E.E.E.E.E.E.E.E.E.E.E.E.E.E.E.E.E.E.E.E.E.T.E.P.).E >.1.E.E.E.E.E.E.E.E.E.E",
".T.JX< P P P P P P P P P P P P P P P P P P P P P P P P P P P P P P P P P P P P P P.!.E.P.[ ,.*.E.E.E.E.E.E.E.E.E.E.E",
".T.i.G.G.G.G.G.G.G.G.G.G.G.G.G.G.G.G.G.G.G.G.G.G.G.G.G.G.G.G.G.G.G.G.G.G.G.G.G.G.G u.E.P 3.,.E.E.E.E.E.E.E.E.E.E.E.E",
".$ b b b b b b b b b b b b b b b b b b b b b b b b b b b b b b b b b b b b b b b b b bXrXf.E.E.E.E.E.E.E.E.E.E.E.E.E"
};
