/* XPM */
static char *gans-r[] = {
/* width height ncolors chars_per_pixel */
"64 46 180 2",
/* colors */
"   c #000000",
" . c #B1B1B1",
" X c #AFAFAF",
" o c #ADADAD",
" O c #ABABAB",
" + c #A9A9A9",
" @ c #A3A3A3",
" # c #9F9F9F",
" $ c #9D9D9D",
" % c #999999",
" & c #979797",
" * c #959595",
" = c #939393",
" - c #8F8F8F",
" ; c #8B8B8B",
" : c #898989",
" > c #858585",
" , c #818181",
" < c #7F7F7F",
" 1 c #7D7D7D",
" 2 c #7B7B7B",
" 3 c #797979",
" 4 c #777777",
" 5 c #737373",
" 6 c #717171",
" 7 c #6F6F6F",
" 8 c #6D6D6D",
" 9 c #6B6B6B",
" 0 c #696969",
" q c #656565",
" w c #5F5F5F",
" e c #5B5B5B",
" r c #575757",
" t c #555555",
" y c #515151",
" u c #4F4F4F",
" i c #4D4D4D",
" p c #FEFEFE",
" a c #4B4B4B",
" s c #FCFCFC",
" d c #494949",
" f c #FAFAFA",
" g c #474747",
" h c #F8F8F8",
" j c #454545",
" k c #F6F6F6",
" l c #434343",
" z c #F4F4F4",
" x c #414141",
" c c #F2F2F2",
" v c #3F3F3F",
" b c #F0F0F0",
" n c #3D3D3D",
" m c #EEEEEE",
" M c #ECECEC",
" N c #393939",
" B c #EAEAEA",
" V c #373737",
" C c #E6E6E6",
" Z c #333333",
" A c #E4E4E4",
" S c #313131",
" D c #E2E2E2",
" F c #2F2F2F",
" G c #E0E0E0",
" H c #2D2D2D",
" J c #DEDEDE",
" K c #DCDCDC",
" L c #292929",
" P c #DADADA",
" I c #D8D8D8",
" U c #252525",
" Y c #D6D6D6",
" T c #D2D2D2",
" R c #D0D0D0",
" E c #1D1D1D",
" W c #CECECE",
" Q c #1B1B1B",
" ! c #CCCCCC",
" ~ c #CACACA",
" ^ c #C8C8C8",
" / c #151515",
" ( c #C6C6C6",
" ) c #C4C4C4",
" _ c #111111",
" ` c #C2C2C2",
" ' c #0D0D0D",
" ] c #BEBEBE",
" [ c #0B0B0B",
" { c #BABABA",
" } c #B8B8B8",
" | c #050505",
".  c #B6B6B6",
".. c #B4B4B4",
".X c #B0B0B0",
".o c #ACACAC",
".O c #AAAAAA",
".+ c #A6A6A6",
".@ c #A2A2A2",
".# c #A0A0A0",
".$ c #9C9C9C",
".% c #9A9A9A",
".& c #989898",
".* c #969696",
".= c #929292",
".- c #909090",
".; c #8E8E8E",
".: c #8C8C8C",
".> c #8A8A8A",
"., c #888888",
".< c #868686",
".1 c #848484",
".2 c #828282",
".3 c #808080",
".4 c #7E7E7E",
".5 c #7A7A7A",
".6 c #787878",
".7 c #747474",
".8 c #707070",
".9 c #6C6C6C",
".0 c #686868",
".q c #666666",
".w c #646464",
".e c #626262",
".r c #606060",
".t c #5E5E5E",
".y c #5C5C5C",
".u c #585858",
".i c #565656",
".p c #525252",
".a c #505050",
".s c #4E4E4E",
".d c #FFFFFF",
".f c #4C4C4C",
".g c #FDFDFD",
".h c #FBFBFB",
".j c #484848",
".k c #F9F9F9",
".l c #F7F7F7",
".z c #444444",
".x c #F5F5F5",
".c c #424242",
".v c #F3F3F3",
".b c #F1F1F1",
".n c #3E3E3E",
".m c #EFEFEF",
".M c #3C3C3C",
".N c #3A3A3A",
".B c #EBEBEB",
".V c #E9E9E9",
".C c #E7E7E7",
".Z c #E5E5E5",
".A c #323232",
".S c #E3E3E3",
".D c #303030",
".F c #E1E1E1",
".G c #2C2C2C",
".H c #DBDBDB",
".J c #282828",
".K c #D7D7D7",
".L c #242424",
".P c #D5D5D5",
".I c #222222",
".U c #D3D3D3",
".Y c #202020",
".T c #1E1E1E",
".R c #CFCFCF",
".E c #1C1C1C",
".W c #CDCDCD",
".Q c #C5C5C5",
".! c #121212",
".~ c #C3C3C3",
".^ c #C1C1C1",
"./ c #BFBFBF",
".( c #BDBDBD",
".) c #0A0A0A",
"._ c #BBBBBB",
".` c #B9B9B9",
".' c #B7B7B7",
".] c #040404",
/* pixels */
".d.d.d.d.d.d.d.v P 9 U U U U.4 P P.g.d.d.d.d.d.d.d.d.d.d.d.d.d.d.d.d.d.d.d.d.d.d.d.d.d.d.d.d.d.d.d.d.d.d.d.d.d.d.d.d.d.d.d.d.d.d",
".d.d J.........= a { (...~.d.+ a a o.Q.d.d.d.d.d.d.d.d.d.d.d.d.d.d.d.d.d.d.d.d.d.d.d.d.d.d.d.d.d.d.d.d.d.d.d.d.d.d.d.d.d.d.d.d.d",
".m -.a        .p.d.d n   Z.d.d.d.d 3 4.`.d.d.d.d.d.d.d.d.d.d.d.d.d.d.d.d.d.d.d.d.d.d.d.d.d.d.d.d.d.d.d.d.d.d.d.d.d.d.d.d.d.d.d.d",
" b.*.*.n      .I 0.Q X.* O.d.d.d.d.d.Q.r.d.d.d.d.d.d.d.d.d.d.d.d.d.d.d.d.d.d.d.d.d.d.d.d.d.d.d.d.d.d.d.d.d.d.d.d.d.d.d.d.d.d.d.d",
".d.d.d.K._._._ <   $.d.d.d.d.d.d.d.d.m.;.z.^.d.d.d.d.d.d.d.d.d.d.d.d.d.d.d.d.d.d.d.d.d.d.d.d.d.d.d.d.d.d.d.d.d.d.d.d.d.d.d.d.d.d",
".d.d.d.d.d.d.d.x G 8 U U.f.d.d.d.d.d.d #  .O.d.d.d.d.d.d.d.d.d.d.d.d.d.d.d.d.d.d.d.d.d.d.d.d.d.d.d.d.d.d.d.d.d.d.d.d.d.d.d.d.d.d",
".d.d.d.d.d.d.d.d.d.d.d z.s.U.V.d.d.d.d #  .O.d.d.d.d.d.d.d.d.d.d.d.d.d.d.d.d.d.d.d.d.d.d.d.d.d.d.d.d.d.d.d.d.d.d.d.d.d.d.d.d.d.d",
".d.d.d.d.d.d.d.d.d.d.d.d !  .4.d.d.d.d #  .O.d.d.d.d.d.d.d.d.d.d.d.d.d.d.d.d.d.d.d.d.d.d.d.d.d.d.d.d.d.d.d.d.d.d.d.d.d.d.d.d.d.d",
".d.d.d.d.d.d.d.d.d.d.d.k > 4 {.d.d.d.d #  .O.d.d.d.d.d.d.d.d.d.d.d.d.d.d.d.d.d.d.d.d.d.d.d.d.d.d.d.d.d.d.d.d.d.d.d.d.d.d.d.d.d.d",
".d.d.d.d.d.d.d.d.d.d.d.b Z.d.d.d.d.d.d #  .O.d.d.d.d.d.d.d.d.d.d.d.d.d.d.d.d.d.d.d.d.d.d.d.d.d.d.d.d.d.d.d.d.d.d.d.d.d.d.d.d.d.d",
".d.d.d.d.d.d.d.d.d.d 9.z W.d.d.d.d.d.U 7 `.B.d.d.d.d.d.d.d.d.d.d.d.d.d.d.d.d.d.d.d.d.d.d.d.d.d.d.d.d.d.d.d.d.d.d.d.d.d.d.d.d.d.d",
".d.d.d.d.d.d.d.d.d k.z Q.d.d.d.d.d c.(.0.d.d.d.d.d.d.d.d.d.d.d.d.d.d.d.d.d.d.d.d.d.d.d.d.d.d.d.d.d.d.d.d.d.d.d.d.d.d.d.d.d.d.d.d",
".d.d.d.d.d.d.d.d.d.e `.d.d.d.d.d.d _.N.d.d.d.d.d.d.d.d.d.d.d.d.d.d.d.d.d.d.d.d.d.d.d.d.d.d.d.d.d.d.d.d.d.d.d.d.d.d.d.d.d.d.d.d.d",
".d.d.d.d.d.d.d D.+ 4.K.d.d.d.d (.+.t <.d.d.d.d.d.d.d.d.d.d.d.d.d.d.d.d.d.d.d.d.d.d.d.d.d.d.d.d.d.d.d.d.d.d.d.d.d.d.d.d.d.d.d.d.d",
".d.d.d.d.d.d.d o   $.d.d.d.d.d.y   m.d.d.d.d.d.d.d.d.d.d.d.d.d.d.d.d.d.d.d.d.d.d.d.d.d.d.d.d.d.d.d.d.d.d.d.d.d.d.d.d.d.d.d.d.d.d",
".d.d.d.d.d.h.y 5 @.H.d.d.d.d.d.y   m.d.d.d.d.d.d.d.d.d.d.d.d.d.d.d.d.d.d.d.d.d.d.d.d.d.d.d.d.d.d.d.d.d.d.d.d.d.d.d.d.d.d.d.d.d.d",
".d.d.d.d.d h  .p.d.d.d.d.d.d.d.y   m.d.d.d.d.d.d.d.d.d.d.d.d.d.d.d.d.d.d.d.d.d.d.d.d.d.d.d.d.d.d.d.d.d.d.d.d.d.d.d.d.d.d.d.d.d.d",
".d.d.d.v B.c m.v.d.d.d.d.d.d.d 0 /.L.p B B h.d.d.d.d.d.d.d.d.d.d.d.d.d.d.d.d.d.d.d.d.d.d.d.d.d.d.d.d.d.d.d.d.d.d.d.d.d.d.d.d.d.d",
".d.d.d 0   G.d.d.d.d.d.d.d.d.d.d.d.d T.N.N &.Q.Q.Q.Q.Q.Q k.d.d.d.d.d.d.d.d.d.d.d.d.d.d.d.d.d.d.d.d.d.d.d.d.d.d.d.d.d.d.d.d.d.d.d",
".d.d.P.5.r M.d.d.d.d.d.d.d.d.d.d.d.d.d.d.d *.r.r.r.r.r.r * # # # # # # # # # # # # # #.W.d.d.d.d.d.d.d.d.d.d.d.d.d.d.d.d.d.d.d.d",
".d.d -.*.d.d.d.d.d.d.d.d.d.d.d.d.d.d.d.d.d.d.d.d.d.d.d.d.& > > > > > > > > > > > > > >.3.5.F.d.d.d.d.d.d.d.d.d.d.d.d.d.d.d.d.d.d",
" C t.5 K.d.d.d.d.d.d.d.d.d.d.d.d.d.d.d.d.d.d.d.d.d.d.d.d.d.d.d.d.d.d.d.d.d.d.d.d.d.d.d Y.O.0 t.5.d.d.d.d.d.d.d.d.d.d.d.d.d.d.d.d",
" P  .8.d.d.d.d.d.d.d.d.d.d.d.d.d.d.d.d.d.d.d.d.d.d.d.d.d.d.d.d.d.d.d.d.d.d.d.d.d.d.d.d.d.d P R o F %.d.d.d.d.d.d.d.d.d.d.d.d.d.d",
" P  .8.d.d.d.d.d.d.d.d.d.d.d.d.d.d.d.d.d.d.d.d.d.d.d.d.d.d.d.d.d.d.d.d.d.d.d.d.d.d.d k.S.S.k.d.g.x ; U U K.d.d.d.d.d.d.d.d.d.d.d",
".o x *.d.d.d.d.d.d.d.d.d.d.d.d.d.d.d.d.d.d.d.d.d.d.d.d.d.d.d.d.d.d.d.d.d.d.d.d.d.d.d./ x x.@ ] ] ] ] ] ].E ] ] ] B.d.d.d.d.d.d.d",
" U.d.d.d.d.d.d.d.d.d.d.d.d.d.d.d.d.d.d.d.d.d.d.d.d.d.d.d.d.d.d.d.d.d.d.d.d.d.d.d.h % % % % 6.q.a     l.q.q.q.q.q : % % % % % D.d",
"., 5 ..d.d.d.d.d.d.d.d.d.d.d.d.d.d.d.d.d.d.d.d.d.d.d.d.d.d.d.d.d.d.d.d.d.d.d.d.d f.:.:.:.: 3 5.6.:.: I.d.d.d.d.d.X.:.:.q    .p 5",
" P  .8.d.d.d.d.d.d.d.d.d.d.d.d.d.d.d.d.d.d.d.d.d.d.d.d.d.d.d.d.d.d.d.d.d.d.d.d.d.d.d.d.d.d ` . `.d.d.d.d.d.d.d.d.d.d.V N  .w . .",
".k.K.>.J.J.Z.d.d.d.d.d.d.d.d.d.d.d.d.d.d.d.d.d.d.d.d.d.d.d.d.d.d.d.d.d.d.d.d.d.d.d.d.d.d.d.d.d.d.d.d.d.d.d.d.d.d.d.f.n.K.K m.d.d",
".d.d p s s v U.r K K.l.d.d.d.d.d.d.d.d.d.d.d.d.d.d.d.d.d.d.d.d.d.d.d.d.d.d.d.d.d.d.d.d.d.d.d.d.d.d.d.d.d s K * U U I s.d.d.d.d.d",
".d.d.d.d.d.d.d ).j.j.$.'.Q.d.d.d.d.d.d.d.d.d.d.d.d.d.d.d.d.d.d.d.d.d.d.d.d.d.d.d.d.d.d.d.d.d.d.d.d.d.d.d.X.j -.d.d.d.d.d.d.d.d.d",
".d.d.d.d.d.d.d.d.d.d.- 8.7.= ^.d.d.d.d.d.d. .B.d.d.d.d.d.d.d.d.d.d.d.d.d.d.d.d.d.d.d.d.d.d.d.d.d.d.d.'.= 1.d.d.d.d.d.d.d.d.d.d.d",
".d.d.d.d.d.d.d.d.d.d.d.d.V =.3 ~.d.d.d.d.d t R.d.d.d.d.d.d.d.d.d.d.d.d.d.d.d.d.d.d.d.d.d.d.d.d.d.d...< = f.d.d.d.d.d.d.d.d.d.d.d",
".d.d.d.d.d.d.d.d.d.d.d.d.d.d K.8 g.v.d.d.d R.y e.d.d.d.d.d.d.d.d.d.d.d.d.d.d.d.d.d.d.d.d.d.d.d.K g ,.C.d.d.d.d.d.d.d.d.d.d.d.d.d",
".d.d.d.d.d.d.d.d.d.d.d.d.d.d.d.t.].B s.d.d.d F.E.d.d.d.d.d.d.d.g.h.r D.d.d.d.d.d.d.h.h.h.h t U i J.m.d.d.d.d.d.d.d.d.d.d.d.d.d.d",
".d.d.d.d.d.d.d.d.d.d.d.d.d.d.d.d.d V.a Y Y.b y.M G.d.d.d.d.d.d.=   }.d h Y Y Y Y.R L L L L.R.d.d.d.d.d.d.d.d.d.d.d.d.d.d.d.d.d.d",
".d.d.d.d.d.d.d.d.d.d.d.d.d.d.d.d.d.d.K u u.-.X $ H.X.X.X.X.X.X q   <.X.# u u u u r.d.d.d.d.d.d.d.d.d.d.d.d.d.d.d.d.d.d.d.d.d.d.d",
".d.d.d.d.d.d.d.d.d.d.d.d.d.d.d.d.d.d.d.d.d.@.7.7.i            .A.7.7.7 ;.d.d.d.d.d.d.d.d.d.d.d.d.d.d.d.d.d.d.d.d.d.d.d.d.d.d.d.d",
".d.d.d.d.d.d.d.d.d.d.d.d.d.d.d.d.d.d.d.d.d.d.d.d ]      .2.% 7 8.d.d.d.d.d.d.d.d.d.d.d.d.d.d.d.d.d.d.d.d.d.d.d.d.d.d.d.d.d.d.d.d",
".d.d.d.d.d.d.d.d.d.d.d.d.d.d.d.d.d.d.d.d.d.d.d.d ]      .K.d.' 8.d.d.d.d.d.d.d.d.d.d.d.d.d.d.d.d.d.d.d.d.d.d.d.d.d.d.d.d.d.d.d.d",
".d.d.d.d.d.d.d.d.d.d.d.d.d.d.d h z p.d.d.d h z z.` [ |  .K.d.' 8.d.d.d.d.d.d.d.d.d.d.d.d.d.d.d.d.d.d.d.d.d.d.d.d.d.d.d.d.d.d.d.d",
".d.d.d.d.d.d.d.d.d.d.d.d.d.d.C 0.D.Q.R.R.R j   | q.d 5  .K.d.' 8.d.d.d.d.d.d.d.d.d.d.d.d.d.d.d.d.d.d.d.d.d.d.d.d.d.d.d.d.d.d.d.d",
".d.d.d.d.d.d.d.d.d.d.d.d m + t.9 + [  .Y.i E  .! + + 2.i A.d.' 8.d.d.d.d.d.d.d.d.d.d.d.d.d.d.d.d.d.d.d.d.d.d.d.d.d.d.d.d.d.d.d.d",
".d.d.d.d.d.d.d.d.d.d.d.d A 2 2.G   5 w S.1.G   ' 2 2.~.d.d.d.' 8.d.d.d.d.d.d.d.d.d.d.d.d.d.d.d.d.d.d.d.d.d.d.d.d.d.d.d.d.d.d.d.d",
".d.d.d.d.d.d.d.d.d.d.d.d.d.d.d.y  .u d    .9.T.).t.t.t.t.t.t l.J.t T.d.d.d.d.d.d.d.d.d.d.d.d.d.d.d.d.d.d.d.d.d.d.d.d.d.d.d.d.d.d",
".d.d.d.d.d.d.d.d.d.d.d.d.d.d.d.y          .O F                     }.d.d.d.d.d.d.d.d.d.d.d.d.d.d.d.d.d.d.d.d.d.d.d.d.d.d.d.d.d.d"
};
