/* XPM */
static char *gans-r[] = {
/* width height ncolors chars_per_pixel */
"64 44 111 2",
/* colors */
"   c #000000",
" . c #AFAFAF",
" X c #ADADAD",
" o c #ABABAB",
" O c #A3A3A3",
" + c #9B9B9B",
" @ c #999999",
" # c #979797",
" $ c #919191",
" % c #8F8F8F",
" & c #8D8D8D",
" * c #858585",
" = c #838383",
" - c #7D7D7D",
" ; c #7B7B7B",
" : c #717171",
" > c #6F6F6F",
" , c #696969",
" < c #676767",
" 1 c #656565",
" 2 c #636363",
" 3 c #5D5D5D",
" 4 c #595959",
" 5 c #535353",
" 6 c #515151",
" 7 c #4F4F4F",
" 8 c #FEFEFE",
" 9 c #F4F4F4",
" 0 c #3F3F3F",
" q c #3D3D3D",
" w c #ECECEC",
" e c #EAEAEA",
" r c #373737",
" t c #353535",
" y c #333333",
" u c #313131",
" i c #E2E2E2",
" p c #E0E0E0",
" a c #2B2B2B",
" s c #272727",
" d c #D8D8D8",
" f c #D6D6D6",
" g c #D4D4D4",
" h c #212121",
" j c #D2D2D2",
" k c #1F1F1F",
" l c #1D1D1D",
" z c #CECECE",
" x c #CCCCCC",
" c c #CACACA",
" v c #C8C8C8",
" b c #151515",
" n c #131313",
" m c #C4C4C4",
" M c #C2C2C2",
" N c #010101",
" B c #B0B0B0",
" V c #AEAEAE",
" C c #ACACAC",
" Z c #AAAAAA",
" A c #A4A4A4",
" S c #A0A0A0",
" D c #9C9C9C",
" F c #9A9A9A",
" G c #989898",
" H c #969696",
" J c #929292",
" K c #909090",
" L c #8E8E8E",
" P c #888888",
" I c #868686",
" U c #848484",
" Y c #7A7A7A",
" T c #727272",
" R c #707070",
" E c #6A6A6A",
" W c #686868",
" Q c #666666",
" ! c #646464",
" ~ c #626262",
" ^ c #606060",
" / c #5A5A5A",
" ( c #545454",
" ) c #525252",
" _ c #505050",
" ` c #FFFFFF",
" ' c #FDFDFD",
" ] c #F5F5F5",
" [ c #EDEDED",
" { c #EBEBEB",
" } c #E9E9E9",
" | c #363636",
".  c #343434",
".. c #323232",
".X c #E1E1E1",
".o c #DFDFDF",
".O c #282828",
".+ c #D9D9D9",
".@ c #D7D7D7",
".# c #D5D5D5",
".$ c #202020",
".% c #CFCFCF",
".& c #CDCDCD",
".* c #CBCBCB",
".= c #C9C9C9",
".- c #161616",
".; c #141414",
".: c #C5C5C5",
".> c #C1C1C1",
"., c #0A0A0A",
".< c #020202",
/* pixels */
" ` ` ` ` ` ` ` ` ` ` ` ` x x x x f ` ` ` ` ` ` ` ` ` ` ` ` ` ` ` ` ` ` ` ` ` ` ` ` ` ` ` ` ` ` ` ` ` ` ` ` ` ` ` ` ` ` ` ` ` ` `",
" ` ` ` ` ` ` ` ` ` ` M @ Q Q Q Q R @ @ { ` ` ` ` ` ` ` ` ` ` ` ` ` ` ` ` ` ` ` ` ` ` ` ` ` ` ` ` ` ` ` ` ` ` ` ` ` ` ` ` ` ` ` `",
" ` ` ` ` ` M Q Q Q Q * @ p Q Q.X e @ @ R * ` ` ` ` ` ` ` ` ` ` ` ` ` ` ` ` ` ` ` ` ` ` ` ` ` ` ` ` ` ` ` ` ` ` ` ` ` ` ` ` ` ` `",
" ` ` ` ` y k         F `.*    .& ` ` ` f X I ` ` ` ` ` ` ` ` ` ` ` ` ` ` ` ` ` ` ` ` ` ` ` ` ` ` ` ` ` ` ` ` ` ` ` ` ` ` ` ` ` `",
" ` ` ` ` ` ` U y y y.; N ` ` ` ` ` ` ` `.# : x ] ` ` ` ` ` ` ` ` ` ` ` ` ` ` ` ` ` ` ` ` ` ` ` ` ` ` ` ` ` ` ` ` ` ` ` ` ` ` ` `",
" ` ` ` ` ` ` ` ` ` ` O Q @ @ @ { ` ` ` ` ` G  .& ` ` ` ` ` ` ` ` ` ` ` ` ` ` ` ` ` ` ` ` ` ` ` ` ` ` ` ` ` ` ` ` ` ` ` ` ` ` ` `",
" ` ` ` ` ` ` ` ` ` ` ` ` @ @ q.& ` ` ` ` ` G  .& ` ` ` ` ` ` ` ` ` ` ` ` ` ` ` ` ` ` ` ` ` ` ` ` ` ` ` ` ` ` ` ` ` ` ` ` ` ` ` `",
" ` ` ` ` ` ` ` ` ` ` ` ` ` ` p 6 3 ` ` ` ` G  .& ` ` ` ` ` ` ` ` ` ` ` ` ` ` ` ` ` ` ` ` ` ` ` ` ` ` ` ` ` ` ` ` ` ` ` ` ` ` ` `",
" ` ` ` ` ` ` ` ` ` ` ` ` ` ` p ) 3 ` ` ` ` G  .& ` ` ` ` ` ` ` ` ` ` ` ` ` ` ` ` ` ` ` ` ` ` ` ` ` ` ` ` ` ` ` ` ` ` ` ` ` ` ` `",
" ` ` ` ` ` ` ` ` ` ` ` ` ` ` 1.& ` ` ` ` ` G  .& ` ` ` ` ` ` ` ` ` ` ` ` ` ` ` ` ` ` ` ` ` ` ` ` ` ` ` ` ` ` ` ` ` ` ` ` ` ` ` `",
" ` ` ` ` ` ` ` ` ` ` ` ` p 1 * { ` ` ` `.o Y F { ` ` ` ` ` ` ` ` ` ` ` ` ` ` ` ` ` ` ` ` ` ` ` ` ` ` ` ` ` ` ` ` ` ` ` ` ` ` ` `",
" ` ` ` ` ` ` ` ` ` ` ` `.* N F ` ` ` ` 8 c W ` ` ` ` ` ` ` ` ` ` ` ` ` ` ` ` ` ` ` ` ` ` ` ` ` ` ` ` ` ` ` ` ` ` ` ` ` ` ` ` ` `",
" ` ` ` ` ` ` ` ` ` ` ` 8.  ` ` ` ` ` `...  ` ` ` ` ` ` ` ` ` ` ` ` ` ` ` ` ` ` ` ` ` ` ` ` ` ` ` ` ` ` ` ` ` ` ` ` ` ` ` ` ` ` `",
" ` ` ` ` ` ` ` ` ` `.> G I ` ` ` `.# G : I ` ` ` ` ` ` ` ` ` ` ` ` ` ` ` ` ` ` ` ` ` ` ` ` ` ` ` ` ` ` ` ` ` ` ` ` ` ` ` ` ` ` `",
" ` ` ` ` ` ` ` ` ` ` 1 N ` ` ` ` ` G  .& ` ` ` ` ` ` ` ` ` ` ` ` ` ` ` ` ` ` ` ` ` ` ` ` ` ` ` ` ` ` ` ` ` ` ` ` ` ` ` ` ` ` ` `",
" ` ` ` ` ` ` ` ` f.. %.& ` ` ` ` ` G  .& ` ` ` ` ` ` ` ` ` ` ` ` ` ` ` ` ` ` ` ` ` ` ` ` ` ` ` ` ` ` ` ` ` ` ` ` ` ` ` ` ` ` ` `",
" ` ` ` ` ` ` ` ` C.  V ` ` ` ` ` ` G   O f ` ` ` ` ` ` ` ` ` ` ` ` ` ` ` ` ` ` ` ` ` ` ` ` ` ` ` ` ` ` ` ` ` ` ` ` ` ` ` ` ` ` `",
" ` ` ` ` ` `.> G I ` ` ` ` ` ` ` ` M < < : G G { ` ` ` ` ` ` ` ` ` ` ` ` ` ` ` ` ` ` ` ` ` ` ` ` ` ` ` ` ` ` ` ` ` ` ` ` ` ` ` `",
" ` ` ` ` ` ` Q   ` ` ` ` ` ` ` ` ` ` ` ` e F F > 1 1 1 1 1 A ` ` ` ` ` ` ` ` ` ` ` ` ` ` ` ` ` ` ` ` ` ` ` ` ` ` ` ` ` ` ` ` ` `",
" ` ` ` ` ` X %.& ` ` ` ` ` ` ` ` ` ` ` ` ` ` `.@.&.&.&.&.& L y y y y y y y y y y y y y t 8 8 ` ` ` ` ` ` ` ` ` ` ` ` ` ` ` ` ` `",
" ` ` ` `.* L V ` ` ` ` ` ` ` ` ` ` ` ` ` ` ` ` ` ` ` ` ` ` ` ` ` ` ` ` ` ` ` ` ` ` ` ` '.  T.* x ` ` ` ` ` ` ` ` ` ` ` ` ` ` ` `",
" ` ` ` `   Q ` ` ` ` ` ` ` ` ` ` ` ` ` ` ` ` ` ` ` ` ` ` ` ` ` ` ` ` ` ` ` ` ` ` ` ` ` ` `.> < W G M ` ` ` ` ` ` ` ` ` ` ` ` ` `",
" ` ` ` `   Q ` ` ` ` ` ` ` ` ` ` ` ` ` ` ` ` ` ` ` ` ` ` ` ` ` ` ` ` ` ` ` ` ` ` ` ` ` ` ` ` ` 8 F U 1 < ` ` ` ` ` ` ` ` ` ` ` `",
" ` ` ` 8 N < ` ` ` ` ` ` ` ` ` ` ` ` ` ` ` ` ` ` ` ` ` ` ` ` ` ` ` ` ` ` ` ` ` ` ` ` ` / y I 8 8 8 } x c 3 8 8 8 ` ` ` ` ` ` ` `",
" ` ` ` y ` ` ` ` ` ` ` ` ` ` ` ` ` ` ` ` ` ` ` ` ` ` ` ` ` ` ` ` ` ` ` ` ` ` ` ` ` } c c c & t.     .$ t t t t r c c c c c p ` `",
" ` ` ` I #.> ` ` ` ` ` ` ` ` ` ` ` ` ` ` ` ` ` ` ` ` ` ` ` ` ` ` ` ` ` ` ` ` ` ` `.> W W W ; # H W W m ` ` ` ` ' W W W n   0 # w",
" ` ` ` `   Q ` ` ` ` ` ` ` ` ` ` ` ` ` ` ` ` ` ` ` ` ` ` ` ` ` ` ` ` ` ` ` ` ` ` ` ` ` ` ` f + D ` ` ` ` ` ` ` ` ` ` S n h + + [",
" ` ` ` ` z K y y ' ' 8 ` ` ` ` ` ` ` ` ` ` ` ` ` ` ` ` ` ` ` ` ` ` ` ` ` ` ` ` ` ` ` ` ` ` ` ` ` ` ` ` ` ` ` 8 ' j y J z.+ ` ` `",
" ` ` ` ` ` ` ` ` t t % c.# ` ` ` ` ` ` ` ` ` ` ` ` ` ` ` ` ` ` ` ` ` ` ` ` ` ` ` ` ` ` ` ` ` ` ` ` ` ` ` 9 c > t ^ ` ` ` ` ` ` `",
" ` ` ` ` ` ` ` ` ` ` A W T # # { ` ` ` ` ` ` ` ` ` ` ` ` ` ` ` ` ` ` ` ` ` ` ` ` ` ` ` ` ` ` ` ` ` ` ` 8 & W.: ` ` ` ` ` ` ` ` `",
" ` ` ` ` ` ` ` ` ` ` ` ` { + + > U ` ` ` ` ` ` = ` ` ` ` ` ` ` ` ` ` ` ` ` ` ` ` ` ` ` ` ` ` ` ` ` ` S 1 B ` ` ` ` ` ` ` ` ` ` `",
" ` ` ` ` ` ` ` ` ` ` ` ` ` ` ` d V * ' ` ` ` ` t ' 8 ` ` ` ` ` ` ` ` ` ` ` ` ` ` ` ` ` ` ` ` ` ` ' Z J.% ` ` ` ` ` ` ` ` ` ` ` `",
" ` ` ` ` ` ` ` ` ` ` ` ` ` ` ` ` ` G  .& ` ` ` 8   W ` ` ` ` ` ` ` `.o ] ` ` ` ` ` ` ` ` ` } c v t P ` ` ` ` ` ` ` ` ` ` ` ` ` `",
" ` ` ` ` ` ` ` ` ` ` ` ` ` ` ` ` ` M W L C ` ` 8   W ` ` ` ` ` ` } # Y i ` ` ` ` ` g # # # U W E ` ` ` ` ` ` ` ` ` ` ` ` ` ` ` `",
" ` ` ` ` ` ` ` ` ` ` ` ` ` ` ` ` ` ` ` . K ! ! p + * M ` ` ` ` ` c   + `.o ! ! ! ! ; + + + m ` ` ` ` ` ` ` ` ` ` ` ` ` ` ` ` ` `",
" ` ` ` ` ` ` ` ` ` ` ` ` ` ` ` ` ` ` ` ` ] z z 6 y k k u u u u u s.<.$ y 5 z z z z i ` ` ` ` ` ` ` ` ` ` ` ` ` ` ` ` ` ` ` ` ` `",
" ` ` ` ` ` ` ` ` ` ` ` ` ` ` ` ` ` ` ` ` ` ` ` ` ` ` !    .- t t t ` ` ` ` ` ` ` ` ` ` ` ` ` ` ` ` ` ` ` ` ` ` ` ` ` ` ` ` ` ` `",
" ` ` ` ` ` ` ` ` ` ` ` ` ` ` ` ` ` ` ` ` ` ` ` ` ` ` !     W ` ' t ` ` ` ` ` ` ` ` ` ` ` ` ` ` ` ` ` ` ` ` ` ` ` ` ` ` ` ` ` ` `",
" ` ` ` ` ` ` ` ` ` ` ` ` ` ` ` ` ` ` ` ` ` ` ` ` ` ` !     W ` ' t ` ` ` ` ` ` ` ` ` ` ` ` ` ` ` ` ` ` ` ` ` ` ` ` ` ` ` ` ` ` `",
" ` ` ` ` ` ` ` ` ` ` ` ` ` ` ` ` ` o y f ' ' ' 4 u.. $.&   W ` ' t ` ` ` ` ` ` ` ` ` ` ` ` ` ` ` ` ` ` ` ` ` ` ` ` ` ` ` ` ` ` `",
" ` ` ` ` ` ` ` ` ` ` ` ` ` ` ` g S 6.= s  .- |.,   ).= v | P ` ' t ` ` ` ` ` ` ` ` ` ` ` ` ` ` ` ` ` ` ` ` ` ` ` ` ` ` ` ` ` ` `",
" ` ` ` ` ` ` ` ` ` ` ` ` ` ` ` I , 0   ( 5 q H l   a , E ` ` ` ' t ` ` ` ` ` ` ` ` ` ` ` ` ` ` ` ` ` ` ` ` ` ` ` ` ` ` ` ` ` ` `",
" ` ` ` ` ` ` ` ` ` ` ` ` ` ` ` ` ` G   _ 7     -  .O 2 2 2 2 2 ~ b 2 M ` ` ` ` ` ` ` ` ` ` ` ` ` ` ` ` ` ` ` ` ` ` ` ` ` ` ` ` `",
" ` ` ` ` ` ` ` ` ` ` ` ` ` ` ` ` ` G           x                     + ` ` ` ` ` ` ` ` ` ` ` ` ` ` ` ` ` ` ` ` ` ` ` ` ` ` ` ` `"
};
