/* XPM */
static char *gitaar-r[] = {
/* width height ncolors chars_per_pixel */
"64 59 218 2",
/* colors */
"   c #000000",
" . c #B1B1B1",
" X c #AFAFAF",
" o c #A9A9A9",
" O c #A7A7A7",
" + c #A1A1A1",
" @ c #9F9F9F",
" # c #9B9B9B",
" $ c #999999",
" % c #979797",
" & c #959595",
" * c #939393",
" = c #8F8F8F",
" - c #8D8D8D",
" ; c #8B8B8B",
" : c #898989",
" > c #878787",
" , c #858585",
" < c #838383",
" 1 c #818181",
" 2 c #7F7F7F",
" 3 c #7D7D7D",
" 4 c #7B7B7B",
" 5 c #797979",
" 6 c #777777",
" 7 c #757575",
" 8 c #737373",
" 9 c #717171",
" 0 c #6F6F6F",
" q c #6B6B6B",
" w c #676767",
" e c #656565",
" r c #636363",
" t c #616161",
" y c #5F5F5F",
" u c #5D5D5D",
" i c #5B5B5B",
" p c #575757",
" a c #555555",
" s c #515151",
" d c #4F4F4F",
" f c #4D4D4D",
" g c #FEFEFE",
" h c #FCFCFC",
" j c #494949",
" k c #F8F8F8",
" l c #454545",
" z c #F6F6F6",
" x c #434343",
" c c #F4F4F4",
" v c #414141",
" b c #F2F2F2",
" n c #3F3F3F",
" m c #F0F0F0",
" M c #3D3D3D",
" N c #EEEEEE",
" B c #ECECEC",
" V c #393939",
" C c #EAEAEA",
" Z c #373737",
" A c #E8E8E8",
" S c #353535",
" D c #E6E6E6",
" F c #333333",
" G c #E4E4E4",
" H c #313131",
" J c #E2E2E2",
" K c #2F2F2F",
" L c #E0E0E0",
" P c #2D2D2D",
" I c #2B2B2B",
" U c #DCDCDC",
" Y c #DADADA",
" T c #272727",
" R c #D8D8D8",
" E c #252525",
" W c #D6D6D6",
" Q c #232323",
" ! c #D4D4D4",
" ~ c #212121",
" ^ c #D2D2D2",
" / c #1F1F1F",
" ( c #1D1D1D",
" ) c #1B1B1B",
" _ c #CCCCCC",
" ` c #191919",
" ' c #CACACA",
" ] c #171717",
" [ c #C8C8C8",
" { c #151515",
" } c #131313",
" | c #C4C4C4",
".  c #111111",
".. c #C2C2C2",
".X c #0F0F0F",
".o c #0D0D0D",
".O c #BEBEBE",
".+ c #0B0B0B",
".@ c #BCBCBC",
".# c #090909",
".$ c #BABABA",
".% c #070707",
".& c #050505",
".* c #030303",
".= c #B4B4B4",
".- c #010101",
".; c #B2B2B2",
".: c #B0B0B0",
".> c #AEAEAE",
"., c #ACACAC",
".< c #AAAAAA",
".1 c #A8A8A8",
".2 c #A4A4A4",
".3 c #A2A2A2",
".4 c #A0A0A0",
".5 c #9E9E9E",
".6 c #9C9C9C",
".7 c #9A9A9A",
".8 c #969696",
".9 c #949494",
".0 c #929292",
".q c #909090",
".w c #8C8C8C",
".e c #8A8A8A",
".r c #888888",
".t c #868686",
".y c #848484",
".u c #828282",
".i c #808080",
".p c #7E7E7E",
".a c #7C7C7C",
".s c #7A7A7A",
".d c #787878",
".f c #767676",
".g c #747474",
".h c #727272",
".j c #707070",
".k c #6E6E6E",
".l c #6C6C6C",
".z c #6A6A6A",
".x c #666666",
".c c #646464",
".v c #626262",
".b c #606060",
".n c #5E5E5E",
".m c #5C5C5C",
".M c #5A5A5A",
".N c #565656",
".B c #545454",
".V c #525252",
".C c #505050",
".Z c #4E4E4E",
".A c #FFFFFF",
".S c #4C4C4C",
".D c #FDFDFD",
".F c #4A4A4A",
".G c #FBFBFB",
".H c #484848",
".J c #F9F9F9",
".K c #464646",
".L c #F7F7F7",
".P c #444444",
".I c #F5F5F5",
".U c #424242",
".Y c #F3F3F3",
".T c #404040",
".R c #F1F1F1",
".E c #3E3E3E",
".W c #EFEFEF",
".Q c #3C3C3C",
".! c #EBEBEB",
".~ c #383838",
".^ c #E9E9E9",
"./ c #363636",
".( c #E7E7E7",
".) c #E5E5E5",
"._ c #323232",
".` c #E3E3E3",
".' c #303030",
".] c #E1E1E1",
".[ c #2E2E2E",
".{ c #DFDFDF",
".} c #DDDDDD",
".| c #2A2A2A",
"X  c #282828",
"X. c #262626",
"XX c #D7D7D7",
"Xo c #242424",
"XO c #D5D5D5",
"X+ c #222222",
"X@ c #202020",
"X# c #D1D1D1",
"X$ c #1E1E1E",
"X% c #CFCFCF",
"X& c #1C1C1C",
"X* c #CDCDCD",
"X= c #1A1A1A",
"X- c #CBCBCB",
"X; c #181818",
"X: c #C9C9C9",
"X> c #161616",
"X, c #C7C7C7",
"X< c #121212",
"X1 c #C3C3C3",
"X2 c #101010",
"X3 c #C1C1C1",
"X4 c #0E0E0E",
"X5 c #BFBFBF",
"X6 c #0C0C0C",
"X7 c #BDBDBD",
"X8 c #0A0A0A",
"X9 c #BBBBBB",
"X0 c #080808",
"Xq c #B9B9B9",
"Xw c #040404",
"Xe c #B5B5B5",
"Xr c #020202",
"Xt c #B3B3B3",
/* pixels */
".A.A.A D P   VXX N.A.A.A.A.A.A.A.A.A.A.A.A.A.A.A.A.A.A.A.A.A.A.A.A.A.A.A.A.A.A.A.A.A.A.A.A.A.A.A.A.A.A.A.A.A.A.A.A.A.A.A.A.A.A.A",
" b.>.> 8. .#.Q  .9.A.A.A.A.A.A.A.A.A.A.A.A.A.A.A.A.A.A.A.A.A.A.A.A.A.A.A.A.A.A.A.A.A.A.A.A.A.A.A.A.A.A.A.A.A.A.A.A.A.A.A.A.A.A.A",
" 9     aX&X4 < 5 1.{.A.A.A.A.A.A.A.A.A.A.A.A.A.A.A.A.A.A.A.A.A.A.A.A.A.A.A.A.A.A.A.A.A.A.A.A.A.A.A.A.A.A.A.A.A.A.A.A.A.A.A.A.A.A",
"         2 ` =.n ,.j w.A.A.A.A.A.A.A.A.A.A.A.A.A.A.A.A.A.A.A.A.A.A.A.A.A.A.A.A.A.A.A.A.A.A.A.A.A.A.A.A.A.A.A.A.A.A.A.A.A.A.A.A.A",
" o nX:.F I.; uX:.gX4.*.b.A.A.A.A.A.A.A.A.A.A.A.A.A.A.A.A.A.A.A.A.A.A.A.A.A.A.A.A.A.A.A.A.A.A.A.A.A.A.A.A.A.A.A.A.A.A.A.A.A.A.A.A",
".D.<.o - B l oX .  @ P.*.o.p.L.A.A.A.A.A.A.A.A.A.A.A.A.A.A.A.A.A.A.A.A.A.A.A.A.A.A.A.A.A.A.A.A.A.A.A.A.A.A.A.A.A.A.A.A.A.A.A.A.A",
".A.>    .9 A r.@.fX<.3 S     X.A.A.A.A.A.A.A.A.A.A.A.A.A.A.A.A.A.A.A.A.A.A.A.A.A.A.A.A.A.A.A.A.A.A.A.A.A.A.A.A.A.A.A.A.A.A.A.A.A",
".A.>       ; :.l <.f `X:     e N.A.A.A.A.A.A.A.A.A.A.A.A.A.A.A.A.A.A.A.A.A.A.A.A.A.A.A.A.A.A.A.A.A.A.A.A.A.A.A.A.A.A.A.A.A.A.A.A",
".A.}.9.9 / 3X& q <.`X@.B  .Z KXX.A.A.A.A.A.A.A.A.A.A.A.A.A.A.A.A.A.A.A.A.A.A.A.A.A.A.A.A.A.A.A.A.A.A.A.A.A.A.A.A.A.A.A.A.A.A.A.A",
".A.A.A.A./.~     T x.%X .@.{.C V.A.A.A.A.A.A.A.A.A.A.A.A.A.A.A.A.A.A.A.A.A.A.A.A.A.A.A.A.A.A.A.A.A.A.A.A.A.A.A.A.A.A.A.A.A.A.A.A",
".A.A.A.A CX*X4X4X4X4X4.E.R.iX0   ) y k.A.A.A.A.A.A.A.A.A.A.A.A.A.A.A.A.A.A.A.A.A.A.A.A.A.A.A.A.A.A.A.A.A.A.A.A.A.A.A.A.A.A.A.A.A",
".A.A.A.A.A.A.A.A.A.A.AXO./X=         y.!.A.A.A.A.A.A.A.A.A.A.A.A.A.A.A.A.A.A.A.A.A.A.A.A.A.A.A.A.A.A.A.A.A.A.A.A.A.A.A.A.A.A.A.A",
".A.A.A.A.A.A.A.A.A.A.A.A.A.<X$        .x.!.A.A.A.A.A.A.A.A.A.A.A.A.A.A.A.A.A.A.A.A.A.A.A.A.A.A.A.A.A.A.A.A.A.A.A.A.A.A.A.A.A.A.A",
".A.A.A.A.A.A.A.A.A.A.A.A.A.A.C 9         '.A.A.A.A.A.A.A.A.A.A.A.A.A.A.A.A.A.A.A.A.A.A.A.A.A.A.A.A.A.A.A.A.A.A.A.A.A.A.A.A.A.A.A",
".A.A.A.A.A.A.A.A.A.A.A.A.A.A [ y         n z.A.A.A.A.A.A.A.A.A.A.A.A.A.A.A.A.A.A.A.A.A.A.A.A.A.A.A.A.A.A.A.A.A.A.A.A.A.A.A.A.A.A",
".A.A.A.A.A.A.A.A.A.A.A.A.A.A.A.}      .r PX. t.A.A.A.A.A.A.A.A.A.A.A.A.A.A.A.A.A.A.A.A.A.A.A.A.A.A.A.A.A.A.A.A.A.A.A.A.A.A.A.A.A",
".A.A.A.A.A.A.A.A.A.A.A.A.A.A.A.A.AX9X>    X-.1.h N.A.A.A.A.A.A.A.A.A.A.A.A.A.A.A.A.A.A.A.A.A.A.A.A.A.A.A.A.A.A.A.A.A.A.A.A.A.A.A",
".A.A.A.A.A.A.A.A.A.A.A.A.A.A.A.A.A.A.,X$    .[ > > C.A.A.A.A.A.A.A.A.A.A.A.A.A.A.A.A.A.A.A.A.A.A.A.A.A.A.A.A.A.A.A.A.A.A.A.A.A.A",
".A.A.A.A.A.A.A.A.A.A.A.A.A.A.A.A.A.A.A.< `     V.p <.Y.A.A.A.A.A.A.A.A.A.A.A.A.A.A.A.A.A.A.A.A.A.A.A.A.A.A.A.A.A.A.A.A.A.A.A.A.A",
".A.A.A.A.A.A.A.A.A.A.A.A.A.A.A.A.A.A.A.A S $.f   Z = e.i.A.A.A.A.A.A.A.A.A.A.A.A.A.A.A.A.A.A.A.A.A.A.A.A.A.A.A.A.A.A.A.A.A.A.A.A",
".A.A.A.A.A.A.A.A.A.A.A.A.A.A.A.A.A.A.A.AXO M T a a TX9.<.i.A.A.A.A.A.A.A.A.A.A.A.A.A.A.A.A.A.A.A.A.A.A.A.A.A.A.A.A.A.A.A.A.A.A.A",
".A.A.A.A.A.A.A.A.A.A.A.A.A.A.A.A.A.A.A.A.A.YXq {.&  X6.~.w 2.L.A.A.A.A.A.A.A.A.A.A.A.A.A.A.A.A.A.A.A.A.A.A.A.A.A.A.A.A.A.A.A.A.A",
".A.A.A.A.A.A.A.A.A.A.A.A.A.A.A.A.A.A.A.A.A.A.A.: (          .i c.A.A.A.A.A.A.A.A.A.A.A.A.A.A.A.A.A.A.A.A.A.A.A.A.A.A.A.A.A.A.A.A",
".A.A.A.A.A.A.A.A.A.A.A.A.A.A.A.A.A.A.A.A.A.A.A.A.<X&    X  F  .a.2.A.A.A.A.A.A.A.A.A.A.A.A.A.A.A.A.A.A.A.A.A.A.A.A.A.A.A.A.A.A.A",
".A.A.A.A.A.A.A.A.A.A.A.A.A.A.A.A.A.A.A.A.A.A.A.A.A.:.X  X  1.[  . .7Xq q q q q q q q m.A.A.A.A.A.A.A.A.A.A.A.A.A.A.A.A.A.A.A.A.A",
".A.A.A.A.A.A.A.A.A.A.A.A.A.A.A.A.A.A.A.A.A.A.A.A.A.AX1.9   Q.8 (   { Q 6.@.@.@.@.@.@.M.A.A.A.A.A.A.A.A.A.A.A.A.A.A.A.A.A.A.A.A.A",
".A.A.A.A.A.A.A.A.A.A.A.A.A.A.A.A.A.A.A.A.A.A.A.A.A.A.A _.#.h y.@XeXw.k m.A.A.A.A.A.A.} E.z k.A.A.A.A.A.A.A.A.A.A.A.A.A.A.A.A.A.A",
".A.A.A.A.A.A.A.A.A.A.A.A.A.A.A.A.A.A.A.A.A.A.A.A.A.A.A.AXe `.e /  .T < *X: h.A.A.A.A.A !X+ >.A.A.A.A.A.A.A.A.A.A.A.A.A.A.A.A.A.A",
".A.A.A.A.A.A.A.A.A.A.A.A.A.A.A.A.A.A.A.A.A.A.A.A.A.A.A.A.A.d        .S 6 y O.A.A.A.A.A.A.4 a.4 m.A.A.A.A.A.A.A.A.A.A.A.A.A.A.A.A",
".A.A.A.A.A.A.A.A.A.A.A.A.A.A.A.A.A.A.A.A.A.A.A.A.A.A.A.AX* V u {      .S.d ,.6.A.A.A.A.A ^ n   R.A.A.A.A.A.A.A.A.A.A.A.A.A.A.A.A",
".A.A.A.A.A.A.A.A.A.A.A.A.A.A.A.A.A.A.A.A.A.A.A.A.A.A.A Y._.m DX9 *         x {.7.A.A.A.A.AXO X y.A.A.A.A.A.A.A.A.A.A.A.A.A.A.A.A",
".A.A.A.A.A.A.A.A.A.A.A.A.A.A.A.A.A.A.A.A.A.A.A.A.A.A.EX@.- >.A.A.J *.x d.-  .-. X X X X .d.A.AX  g.A.A.A.A.A.A.A.A.A.A.A.A.A.A.A",
".A.A.A.A.A.A.A.A.A.A.A.A.A.A.A.A.A.A.A.A.A.A.A.A.A.AX=./.4 >.A.A.AX9 {.r W.P.1X;    ..X#X= 9 W.P Q.`.A.A.A.A.A.A.A.A.A.A.A.A.A.A",
".A.A.A.A.A.A.A.A.A.A.A.A.A.A.A.A.A.A.A.A.A.A.A.A.AX1 i.f.4 >.A.A.A.A.,X$   #.z >X+  X8X5.OX.  XX s 0.>.].A.A.A.A.A.A.A.A.A.A.A.A",
".A.A.A.A.A.A.A.A.A.A.A.A.A.A.A.A.A.A.A.A.A.A.A.A.A x.).A.4 >.A.A.A.A.A.< 5 {.v V.p 5X6 (Xt.d  .h.A ! 5 1.t *.A.A.A.A.A.A.A.A.A.A",
".A.A.A.A.A.A.A.A.A.A.A.A.A.A.A.A.A.A.A.A.A.A.A.A.A.$.c 2.4 H _.A.A.A.A.A.AX$ 6  ./ u.0   Q.u.3X=.A.A.A |.3X< u u uXO.A.A.A.A.A.A",
".A.A.A.A.A.A.A.A.A.A.A.A.A.A.A.A.A.A.A.A.A.A.A.A.A.AX=./.! yXo L.A.A.A.A.AX .R.g    .~ @  X& SXt.A.A.A.A.AX* ' ' '.m v.A.A.A.A.A",
".A.A.A.A.A.A.A.A.A.A.A.A.A.A.A.A.A.A.A.A.A.A.A.A.A.A F ` w k y |.` B.A.A.AX. f @ :XX.[.~ >    X6 A.A.A.A.A.A.A.A.A.I DX+.o 2 z.A",
".A.A.A.A.A.A.A.A.A.A.A.A.A.A.A.A.A.A.A.A.A.A.A.A.A.A.AXX.j.{.A t V.QX9 D.A.!.cX9.f.P.1 S         pX#.A.A.A.A.A.A.A.A.AXX.PX@.:.A",
".A.A.A.A.A.A.A.A.A.A.A.A.A.A.A.A.A.A.A.A.A.A.A.A.A.A.A.A.4.Z.}.A.(.l V u * @ R.E.N * ].g      .- -.d * R.A.A.A.A.A.A.A.A.A . > N",
".A.A.A.A.A.A.A.A.A.A.A.A.A.A.A.A.A.A.A.A.A.A.A.A.A.A.A.AXX.K j q <.A _.9.9 }.0 ^.9.9.9.g Z.K   3. .d.9.s L.AXX qX3.A.A.A.A.A d R",
".A.A.A.A.A.A.A.A.A.A.A.A.A.A.A.A.A.A.A.A.A.A.A.A.A.A.A.A.A UX7 (.+.U.6.A.A.,.P.A.A.A.A.R = /  .~.5 {.U.q i.] rX7.`.A.A.A.A.A ^ a",
".A.A.A.A.A.A.A.A.A.A.A.A.A.A.A.A.A.A.A.A.A.A.A.A.A.A.A.A.A.A.A.^.).) ; /X=.R X 4.A.A.A.A.I.l  X6 V %X4X>.:.P J.A.A.A.A.A.A.A.A T",
".A.A.A.A.A.A.A.A.A.A.A.A.A.A.A.A.A.A.A.A.A.A.A.A.A.A.A.A.A.A.A.A.A.A.A.i ZX,X9 a A.A.A.A.A & Z ..[.T [.l.+.>.n [ [.R.A.A.A.A.A T",
".A.A.A.A.A.A.A.A.A.A.A.A.A.A.A.A.A.A.A.A.A.A.A.A.A.A.A.A.A.A.A.A.A.A.A.A.AX$ = Z.9.A.A.A.A.A.A.d & y y.r.lX> 7   Z =.I.A.A.A.A T",
".A.A.A.A.A.A.A.A.A.A.A.A.A.A.A.A.A.A.A.A.A.A.A.A.A.A.A.A.A.A.A.A.A.A.A.A.A.p.P *.9.A.A.A.A.A.A.A ,.d.d.u 4.d    .K /.).A.A.A.A T",
".A.A.A.A.A.A.A.A.A.A.A.A.A.A.A.A.A.A.A.A.A.A.A.A.A.A.A.A.A.A.A.A.A.A.A.A.A.`.P *.9.A.A.A.A.A.A.A W     F #.S K X j  .V.A.A.A.A T",
".A.A.A.A.A.A.A.A.A.A.A.A.A.A.A.A.A.A.A.A.A.A.A.A.A.A.A.A.A.A.A.A.A.A.A.A.A.`.P *.9 g.A.A.A.A.A.A.J R R d /XrX8 TX2 @Xo g.A.A.A T",
".A.A.A.A.A.A.A.A.A.A.A.A.A.A.A.A.A.A.A.A.A.A.A.A.A.A.A.A.A.A.A.A.A.A.A.A.A.`.P.2.   .).A.A.A.A.A.A.A.A.A aXr          .[ W B.` ~",
".A.A.A.A.A.A.A.A.A.A.A.A.A.A.A.A.A.A.A.A.A.A.A.A.A.A.A.A.A.A.A.A.A.A.A.A.A.`.P.A q  .).A.A.A.A.A.A.A.A.A.A s        .P     > d l",
".A.A.A.A.A.A.A.A.A.A.A.A.A.A.A.A.A.A.A.A.A.A.A.A.A.A.A.A.A.A.A.A.A.A.A.A.A.` QXq.;.s ;.A.A.A.A.A.A.A.A.A.A m.s.s F  .j     > d R",
".A.A.A.A.A.A.A.A.A.A.A.A.A.A.A.A.A.A.A.A.A.A.A.A.A.A.A.A.A.A.A.A.A.A.A.A.A.I 6.l.A.AX .A.A.A.A.A.A.A.A.A.A.A.A.AX:.|.#.3.3 3 -.R",
".A.A.A.A.A.A.A.A.A.A.A.A.A.A.A.A.A.A.A.A.A.A.A.A.A.A.A.A.A.A.A.A.A.A.A.A.A.AX9.l.A.A (.b.A.A.A.A.A.A.A.A.A.A.A.A.A RX3 S S.y.W.A",
".A.A.A.A.A.A.A.A.A.A.A.A.A.A.A.A.A.A.A.A.A.A.A.A.A.A.A.A.A.A.A.A.A.A.A.A.A.AX1 { $.A A `.m b.A.A.A.A.A.A.A.A.A.A.A C R.F.Y.J.A.A",
".A.A.A.A.A.A.A.A.A.A.A.A.A.A.A.A.A.A.A.A.A.A.A.A.A.A.A.A.A.A.A.A.A.A.A.A.A.A.A.: :X9 kXX I rX9.I.A.A.A.A.A.A.A.AXX.'.H.A.A.A.A.A",
".A.A.A.A.A.A.A.A.A.A.A.A.A.A.A.A.A.A.A.A.A.A.A.A.A.A.A.A.A.A.A.A.A.A.A.A.A.A.A.A o.l =.< [ F   3.A.A.A.A.A.A J * M.C m.A.A.A.A.A",
".A.A.A.A.A.A.A.A.A.A.A.A.A.A.A.A.A.A.A.A.A.A.A.A.A.A.A.A.A.A.A.A.A.A.A.A.A.A.A.A.A.A % ] +X, & ].z.7.A.A :.z 7 & & G.A.A.A.A.A.A",
".A.A.A.A.A.A.A.A.A.A.A.A.A.A.A.A.A.A.A.A.A.A.A.A.A.A.A.A.A.A.A.A.A.A.A.A.A.A.A.A.A.A.GX7 =.U.UX8   {.U.UX4.=X%.A.A.A.A.A.A.A.A.A",
".A.A.A.A.A.A.A.A.A.A.A.A.A.A.A.A.A.A.A.A.A.A.A.A.A.A.A.A.A.A.A.A.A.A.A.A.A.A.A.A.A.A.A.A.4                .Y.A.A.A.A.A.A.A.A.A.A"
};
