/* XPM */
static char *gitaar-r[] = {
/* width height ncolors chars_per_pixel */
"64 56 142 2",
/* colors */
"   c #000000",
" . c #B1B1B1",
" X c #AFAFAF",
" o c #ADADAD",
" O c #ABABAB",
" + c #A9A9A9",
" @ c #A7A7A7",
" # c #A3A3A3",
" $ c #A1A1A1",
" % c #9F9F9F",
" & c #9D9D9D",
" * c #9B9B9B",
" = c #999999",
" - c #979797",
" ; c #959595",
" : c #8F8F8F",
" > c #8D8D8D",
" , c #858585",
" < c #838383",
" 1 c #818181",
" 2 c #7D7D7D",
" 3 c #7B7B7B",
" 4 c #797979",
" 5 c #737373",
" 6 c #717171",
" 7 c #6F6F6F",
" 8 c #696969",
" 9 c #676767",
" 0 c #656565",
" q c #636363",
" w c #5F5F5F",
" e c #5D5D5D",
" r c #5B5B5B",
" t c #555555",
" y c #535353",
" u c #515151",
" i c #4F4F4F",
" p c #FEFEFE",
" a c #FCFCFC",
" s c #3F3F3F",
" d c #3D3D3D",
" f c #3B3B3B",
" g c #ECECEC",
" h c #EAEAEA",
" j c #373737",
" k c #353535",
" l c #333333",
" z c #313131",
" x c #E2E2E2",
" c c #2F2F2F",
" v c #E0E0E0",
" b c #2D2D2D",
" n c #2B2B2B",
" m c #292929",
" M c #272727",
" N c #D8D8D8",
" B c #D6D6D6",
" V c #D4D4D4",
" C c #212121",
" Z c #1F1F1F",
" A c #D0D0D0",
" S c #1D1D1D",
" D c #CECECE",
" F c #CCCCCC",
" G c #CACACA",
" H c #151515",
" J c #131313",
" K c #C2C2C2",
" L c #090909",
" P c #030303",
" I c #010101",
" U c #AEAEAE",
" Y c #ACACAC",
" T c #AAAAAA",
" R c #A4A4A4",
" E c #9E9E9E",
" W c #9C9C9C",
" Q c #9A9A9A",
" ! c #989898",
" ~ c #969696",
" ^ c #949494",
" / c #909090",
" ( c #8E8E8E",
" ) c #8C8C8C",
" _ c #868686",
" ` c #848484",
" ' c #828282",
" ] c #7C7C7C",
" [ c #7A7A7A",
" { c #787878",
" } c #767676",
" | c #727272",
".  c #707070",
".. c #6E6E6E",
".X c #6A6A6A",
".o c #686868",
".O c #666666",
".+ c #646464",
".@ c #626262",
".# c #5E5E5E",
".$ c #5C5C5C",
".% c #5A5A5A",
".& c #545454",
".* c #525252",
".= c #505050",
".- c #4E4E4E",
".; c #FFFFFF",
".: c #FDFDFD",
".> c #F5F5F5",
"., c #404040",
".< c #3E3E3E",
".1 c #3C3C3C",
".2 c #3A3A3A",
".3 c #EBEBEB",
".4 c #E9E9E9",
".5 c #363636",
".6 c #343434",
".7 c #323232",
".8 c #303030",
".9 c #E1E1E1",
".0 c #DFDFDF",
".q c #2C2C2C",
".w c #2A2A2A",
".e c #282828",
".r c #D9D9D9",
".t c #D7D7D7",
".y c #D5D5D5",
".u c #202020",
".i c #1E1E1E",
".p c #CFCFCF",
".a c #CDCDCD",
".s c #CBCBCB",
".d c #C9C9C9",
".f c #161616",
".g c #141414",
".h c #C5C5C5",
".j c #C3C3C3",
".k c #C1C1C1",
".l c #BFBFBF",
".z c #0C0C0C",
".x c #0A0A0A",
".c c #020202",
/* pixels */
".;.;.;.;.;.; v F B.;.;.;.;.;.;.;.;.;.;.;.;.;.;.;.;.;.;.;.;.;.;.;.;.;.;.;.;.;.;.;.;.;.;.;.;.;.;.;.;.;.;.;.;.;.;.;.;.;.;.;.;.;.;.;",
".;.;.;.;.; B d   Z = B.;.;.;.;.;.;.;.;.;.;.;.;.;.;.;.;.;.;.;.;.;.;.;.;.;.;.;.;.;.;.;.;.;.;.;.;.;.;.;.;.;.;.;.;.;.;.;.;.;.;.;.;.;",
".;.;.; `.O [ d   [   Q.;.;.;.;.;.;.;.;.;.;.;.;.;.;.;.;.;.;.;.;.;.;.;.;.;.;.;.;.;.;.;.;.;.;.;.;.;.;.;.;.;.;.;.;.;.;.;.;.;.;.;.;.;",
".;.; `.x  .g.g  .* F. .t.;.;.;.;.;.;.;.;.;.;.;.;.;.;.;.;.;.;.;.;.;.;.;.;.;.;.;.;.;.;.;.;.;.;.;.;.;.;.;.;.;.;.;.;.;.;.;.;.;.;.;.;",
".;.; `.x l Z 3.* o l :.e m.9.;.;.;.;.;.;.;.;.;.;.;.;.;.;.;.;.;.;.;.;.;.;.;.;.;.;.;.;.;.;.;.;.;.;.;.;.;.;.;.;.;.;.;.;.;.;.;.;.;.;",
".;.;.; , = ,.O :.  = d.*  .< =.3.;.;.;.;.;.;.;.;.;.;.;.;.;.;.;.;.;.;.;.;.;.;.;.;.;.;.;.;.;.;.;.;.;.;.;.;.;.;.;.;.;.;.;.;.;.;.;.;",
".;.;.;.;   m K o.  = d.* [     y.;.;.;.;.;.;.;.;.;.;.;.;.;.;.;.;.;.;.;.;.;.;.;.;.;.;.;.;.;.;.;.;.;.;.;.;.;.;.;.;.;.;.;.;.;.;.;.;",
".;.;.;.;     Z B o l :.e.* [   I.;.;.;.;.;.;.;.;.;.;.;.;.;.;.;.;.;.;.;.;.;.;.;.;.;.;.;.;.;.;.;.;.;.;.;.;.;.;.;.;.;.;.;.;.;.;.;.;",
".;.;.;.;.6.6 H.w m.s.  B m 4  .w.6.;.;.;.;.;.;.;.;.;.;.;.;.;.;.;.;.;.;.;.;.;.;.;.;.;.;.;.;.;.;.;.;.;.;.;.;.;.;.;.;.;.;.;.;.;.;.;",
".;.;.;.;.;.;.O [    .$ !  .w 9 v Z K.;.;.;.;.;.;.;.;.;.;.;.;.;.;.;.;.;.;.;.;.;.;.;.;.;.;.;.;.;.;.;.;.;.;.;.;.;.;.;.;.;.;.;.;.;.;",
".;.;.;.;.;.; K Q           9.; <   m 0.9.;.;.;.;.;.;.;.;.;.;.;.;.;.;.;.;.;.;.;.;.;.;.;.;.;.;.;.;.;.;.;.;.;.;.;.;.;.;.;.;.;.;.;.;",
".;.;.;.;.;.;.;.;.a.a.a.a.a : l.x       m p.;.;.;.;.;.;.;.;.;.;.;.;.;.;.;.;.;.;.;.;.;.;.;.;.;.;.;.;.;.;.;.;.;.;.;.;.;.;.;.;.;.;.;",
".;.;.;.;.;.;.;.;.;.;.;.;.;.;.;.$        .w v.;.;.;.;.;.;.;.;.;.;.;.;.;.;.;.;.;.;.;.;.;.;.;.;.;.;.;.;.;.;.;.;.;.;.;.;.;.;.;.;.;.;",
".;.;.;.;.;.;.;.;.;.;.;.;.;.;.; p H d       9.;.;.;.;.;.;.;.;.;.;.;.;.;.;.;.;.;.;.;.;.;.;.;.;.;.;.;.;.;.;.;.;.;.;.;.;.;.;.;.;.;.;",
".;.;.;.;.;.;.;.;.;.;.;.;.;.;.;.; :.1       m K.;.;.;.;.;.;.;.;.;.;.;.;.;.;.;.;.;.;.;.;.;.;.;.;.;.;.;.;.;.;.;.;.;.;.;.;.;.;.;.;.;",
".;.;.;.;.;.;.;.;.;.;.;.;.;.;.;.;.> 3 I  .w 4 Z.6 p.;.;.;.;.;.;.;.;.;.;.;.;.;.;.;.;.;.;.;.;.;.;.;.;.;.;.;.;.;.;.;.;.;.;.;.;.;.;.;",
".;.;.;.;.;.;.;.;.;.;.;.;.;.;.;.;.;.;.; r     3 G y v.;.;.;.;.;.;.;.;.;.;.;.;.;.;.;.;.;.;.;.;.;.;.;.;.;.;.;.;.;.;.;.;.;.;.;.;.;.;",
".;.;.;.;.;.;.;.;.;.;.;.;.;.;.;.;.;.;.; p.*     I ( 3 B.;.;.;.;.;.;.;.;.;.;.;.;.;.;.;.;.;.;.;.;.;.;.;.;.;.;.;.;.;.;.;.;.;.;.;.;.;",
".;.;.;.;.;.;.;.;.;.;.;.;.;.;.;.;.;.;.;.; h.$     H 3 [.9.;.;.;.;.;.;.;.;.;.;.;.;.;.;.;.;.;.;.;.;.;.;.;.;.;.;.;.;.;.;.;.;.;.;.;.;",
".;.;.;.;.;.;.;.;.;.;.;.;.;.;.;.;.;.;.;.;.; ! ].s   H : u e p.;.;.;.;.;.;.;.;.;.;.;.;.;.;.;.;.;.;.;.;.;.;.;.;.;.;.;.;.;.;.;.;.;.;",
".;.;.;.;.;.;.;.;.;.;.;.;.;.;.;.;.;.;.;.;.;.; `.6.w 4   R Y 6.3.;.;.;.;.;.;.;.;.;.;.;.;.;.;.;.;.;.;.;.;.;.;.;.;.;.;.;.;.;.;.;.;.;",
".;.;.;.;.;.;.;.;.;.;.;.;.;.;.;.;.;.;.;.;.;.;.; p.*       Z.%.$.3.;.;.;.;.;.;.;.;.;.;.;.;.;.;.;.;.;.;.;.;.;.;.;.;.;.;.;.;.;.;.;.;",
".;.;.;.;.;.;.;.;.;.;.;.;.;.;.;.;.;.;.;.;.;.;.;.; h r           y.;.;.;.;.;.;.;.;.;.;.;.;.;.;.;.;.;.;.;.;.;.;.;.;.;.;.;.;.;.;.;.;",
".;.;.;.;.;.;.;.;.;.;.;.;.;.;.;.;.;.;.;.;.;.;.;.;.;.3 u     y u I.7 ,.; p p p p p p p.;.;.;.;.;.;.;.;.;.;.;.;.;.;.;.;.;.;.;.;.;.;",
".;.;.;.;.;.;.;.;.;.;.;.;.;.;.;.;.;.;.;.;.;.;.;.;.;.;.;.$.w   3 u     3 M k k k k k k /.>.;.;.;.;.;.;.;.;.;.;.;.;.;.;.;.;.;.;.;.;",
".;.;.;.;.;.;.;.;.;.;.;.;.;.;.;.;.;.;.;.;.;.;.;.;.;.;.;.; G   s (.o.<   t.;.;.;.;.;.; # ( o.;.;.;.;.;.;.;.;.;.;.;.;.;.;.;.;.;.;.;",
".;.;.;.;.;.;.;.;.;.;.;.;.;.;.;.;.;.;.;.;.;.;.;.;.;.;.;.; h.$ d /.+ f.#. .;.;.;.;.;.;.; Y H R.;.;.;.;.;.;.;.;.;.;.;.;.;.;.;.;.;.;",
".;.;.;.;.;.;.;.;.;.;.;.;.;.;.;.;.;.;.;.;.;.;.;.;.;.;.;.;.;.3 u M    .i o l _ p.;.;.;.; p #.o.:.;.;.;.;.;.;.;.;.;.;.;.;.;.;.;.;.;",
".;.;.;.;.;.;.;.;.;.;.;.;.;.;.;.;.;.;.;.;.;.;.;.;.;.;.;.;.;.4 i.w      .c G > /.>.;.;.;.; V Z  .p.;.;.;.;.;.;.;.;.;.;.;.;.;.;.;.;",
".;.;.;.;.;.;.;.;.;.;.;.;.;.;.;.;.;.;.;.;.;.;.;.;.;.;.;.;.4.% s.9.o.<      .< f 3.;.;.;.;.;.k.o :.;.;.;.;.;.;.;.;.;.;.;.;.;.;.;.;",
".;.;.;.;.;.;.;.;.;.;.;.;.;.;.;.;.;.;.;.;.;.;.;.;.;.;.; ' i   *.;.; B d ]       I.+.+.+.+ ,.;.; l.;.;.;.;.;.;.;.;.;.;.;.;.;.;.;.;",
".;.;.;.;.;.;.;.;.;.;.;.;.;.;.;.;.;.;.;.;.;.;.;.;.;.;.; z n [ *.;.;.; 0 m F 4 2.e     2.s.z ,.:.7.$ p.;.;.;.;.;.;.;.;.;.;.;.;.;.;",
".;.;.;.;.;.;.;.;.;.;.;.;.;.;.;.;.;.;.;.;.;.;.;.;.;.;.0.* w - *.;.;.;.; r   y 7 Y.w     R V Z  .a k | G.>.;.;.;.;.;.;.;.;.;.;.;.;",
".;.;.;.;.;.;.;.;.;.;.;.;.;.;.;.;.;.;.;.;.;.;.;.;.;.;.+ D.; - *.;.;.;.; p.o d.$.i >.o m.c o ~   ].;.k.o ( - K.;.;.;.;.;.;.;.;.;.;",
".;.;.;.;.;.;.;.;.;.;.;.;.;.;.;.;.;.;.;.;.;.;.;.;.;.; K 7 ` - d.9.;.;.;.;.; -.#.i H.+ _ S H 3 *.u.;.;.; U [ m.+.+ ,.;.;.;.;.;.;.;",
".;.;.;.;.;.;.;.;.;.;.;.;.;.;.;.;.;.;.;.;.;.;.;.;.;.;.; z.6 h.*.w.;.;.;.;.; - Q.y  .c Z Y.c.g z X.;.;.;.;.> D D D o l X.:.:.;.;.;",
".;.;.;.;.;.;.;.;.;.;.;.;.;.;.;.;.;.;.;.;.;.;.;.;.;.;.;.$.w.o.; e G G h.;.; Y H F.& G 7.z %    .c.y.;.;.;.;.;.;.;.;.; <.x n v.;.;",
".;.;.;.;.;.;.;.;.;.;.;.;.;.;.;.;.;.;.;.;.;.;.;.;.;.;.;.; v 3 B p.o.<.$ !.;.; # ( >.o ,.        I | K.;.;.;.;.;.;.;.;.; `.*.X.;.;",
".;.;.;.;.;.;.;.;.;.;.;.;.;.;.;.;.;.;.;.;.;.;.;.;.;.;.;.;.; - d.9.; B * Z.+.+ K o H.+ M.=       I.  `.+ x.;.;.;.;.;.;.;.; h `.j.;",
".;.;.;.;.;.;.;.;.;.;.;.;.;.;.;.;.;.;.;.;.;.;.;.;.;.;.;.;.;.3.*.w z `.:.t D 3 Z.t D D D F b {   #.z 6 F.*.: p 1.5.;.;.;.;.; ~ W.;",
".;.;.;.;.;.;.;.;.;.;.;.;.;.;.;.;.;.;.;.;.;.;.;.;.;.;.;.;.;.;.;.:.5.5.5 o.d.0 , U.;.;.;.;.y.u  .c T.u   $ t ) ..;.;.;.;.;.;.;.@ A",
".;.;.;.;.;.;.;.;.;.;.;.;.;.;.;.;.;.;.;.;.;.;.;.;.;.;.;.;.;.;.;.;.;.;.; ,  .o.; l.;.;.;.;.; ~  .&.u < 8.f ) ] B.;.;.;.;.;.;.;.@ A",
".;.;.;.;.;.;.;.;.;.;.;.;.;.;.;.;.;.;.;.;.;.;.;.;.;.;.;.;.;.;.;.;.;.;.; p W , K.7 `.;.;.;.; B W.. 3 m q : H 3 4 q `.;.;.;.;.;.@ A",
".;.;.;.;.;.;.;.;.;.;.;.;.;.;.;.;.;.;.;.;.;.;.;.;.;.;.;.;.;.;.;.;.;.;.;.;.; !.i X.5.;.;.;.;.;.; B y F F.* $.f J P O _.;.;.;.;.@ A",
".;.;.;.;.;.;.;.;.;.;.;.;.;.;.;.;.;.;.;.;.;.;.;.;.;.;.;.;.;.;.;.;.;.;.;.;.;.;.+ F.5.;.;.;.;.;.;.;.d     $ t } C k   y h.;.;.;.@ A",
".;.;.;.;.;.;.;.;.;.;.;.;.;.;.;.;.;.;.;.;.;.;.;.;.;.;.;.;.;.;.;.;.;.;.;.;.;.;.+ F.5.;.;.;.;.;.;.;.0 8 8.f }  .$ ^.f.< &.;.;.;.@ A",
".;.;.;.;.;.;.;.;.;.;.;.;.;.;.;.;.;.;.;.;.;.;.;.;.;.;.;.;.;.;.;.;.;.;.;.;.;.;.+ F H q K.;.;.;.;.;.;.;.; o         H.2 d x.;.;.@ A",
".;.;.;.;.;.;.;.;.;.;.;.;.;.;.;.;.;.;.;.;.;.;.;.;.;.;.;.;.;.;.;.;.;.;.;.;.;.;.+ D R   W.;.;.;.;.;.;.;.; p R.c       I I M.$ +.g A",
".;.;.;.;.;.;.;.;.;.;.;.;.;.;.;.;.;.;.;.;.;.;.;.;.;.;.;.;.;.;.;.;.;.;.;.;.;.;.+ #.y.5 /.>.;.;.;.;.;.;.;.;.; Y.5 k   y.-   j ; &.;",
".;.;.;.;.;.;.;.;.;.;.;.;.;.;.;.;.;.;.;.;.;.;.;.;.;.;.;.;.;.;.;.;.;.;.;.;.;.; R.f.;.; q.p.;.;.;.;.;.;.;.;.;.;.;.: y  ., 8 5 <.h.;",
".;.;.;.;.;.;.;.;.;.;.;.;.;.;.;.;.;.;.;.;.;.;.;.;.;.;.;.;.;.;.;.;.;.;.;.;.;.;.; l.;.; q.*.;.;.;.;.;.;.;.;.;.;.;.; h W 4 q 7.h.;.;",
".;.;.;.;.;.;.;.;.;.;.;.;.;.;.;.;.;.;.;.;.;.;.;.;.;.;.;.;.;.;.;.;.;.;.;.;.;.;.; l r.; x.w r.:.;.;.;.;.;.;.;.;.;.; p a q +.r.;.;.;",
".;.;.;.;.;.;.;.;.;.;.;.;.;.;.;.;.;.;.;.;.;.;.;.;.;.;.;.;.;.;.;.;.;.;.;.;.;.;.;.: t.d h.: n y.d.>.;.;.;.;.;.;.; p E.f ..;.;.;.;.;",
".;.;.;.;.;.;.;.;.;.;.;.;.;.;.;.;.;.;.;.;.;.;.;.;.;.;.;.;.;.;.;.;.;.;.;.;.;.;.;.; v 8 ` -.0.<   3.;.;.;.;.;.;.l ^.f @.;.;.;.;.;.;",
".;.;.;.;.;.;.;.;.;.;.;.;.;.;.;.;.;.;.;.;.;.;.;.;.;.;.;.;.;.;.;.;.;.;.;.;.;.;.;.;.;.;.j Z ` B W Z q #.;.: q q _ W ..;.;.;.;.;.;.;",
".;.;.;.;.;.;.;.;.;.;.;.;.;.;.;.;.;.;.;.;.;.;.;.;.;.;.;.;.;.;.;.;.;.;.;.;.;.;.;.;.;.;.; N o.8.8 L  .g.8 c.q.p g.;.;.;.;.;.;.;.;.;"
};
