/* XPM */
static char *haan-r[] = {
/* width height ncolors chars_per_pixel */
"61 64 178 2",
/* colors */
"   c #B1B1B1",
" . c #AFAFAF",
" X c #ADADAD",
" o c #ABABAB",
" O c #A9A9A9",
" + c #A7A7A7",
" @ c #A5A5A5",
" # c #A3A3A3",
" $ c #A1A1A1",
" % c #9F9F9F",
" & c #9D9D9D",
" * c #9B9B9B",
" = c #999999",
" - c #979797",
" ; c #959595",
" : c #939393",
" > c #919191",
" , c #8F8F8F",
" < c #8D8D8D",
" 1 c #8B8B8B",
" 2 c #898989",
" 3 c #878787",
" 4 c #858585",
" 5 c #838383",
" 6 c #818181",
" 7 c #7F7F7F",
" 8 c #7D7D7D",
" 9 c #7B7B7B",
" 0 c #797979",
" q c #777777",
" w c #757575",
" e c #717171",
" r c #6F6F6F",
" t c #6D6D6D",
" y c #676767",
" u c #656565",
" i c #616161",
" p c #5F5F5F",
" a c #5D5D5D",
" s c #5B5B5B",
" d c #575757",
" f c #555555",
" g c #515151",
" h c #4F4F4F",
" j c #FEFEFE",
" k c #FCFCFC",
" l c #FAFAFA",
" z c #474747",
" x c #F8F8F8",
" c c #454545",
" v c #F6F6F6",
" b c #F4F4F4",
" n c #F2F2F2",
" m c #F0F0F0",
" M c #EEEEEE",
" N c #ECECEC",
" B c #393939",
" V c #EAEAEA",
" C c #E8E8E8",
" Z c #E6E6E6",
" A c #E4E4E4",
" S c #E2E2E2",
" D c #E0E0E0",
" F c #DEDEDE",
" G c #DCDCDC",
" H c #292929",
" J c #DADADA",
" K c #D8D8D8",
" L c #D6D6D6",
" P c #D4D4D4",
" I c #212121",
" U c #D2D2D2",
" Y c #D0D0D0",
" T c #CECECE",
" R c #CCCCCC",
" E c #CACACA",
" W c #C8C8C8",
" Q c #C6C6C6",
" ! c #C4C4C4",
" ~ c #C2C2C2",
" ^ c #C0C0C0",
" / c #BEBEBE",
" ( c #BCBCBC",
" ) c #BABABA",
" _ c #B8B8B8",
" ` c #B6B6B6",
" ' c #B4B4B4",
" ] c #B2B2B2",
" [ c #B0B0B0",
" { c #AEAEAE",
" } c #ACACAC",
" | c #AAAAAA",
".  c #A8A8A8",
".. c #A6A6A6",
".X c #A4A4A4",
".o c #A2A2A2",
".O c #A0A0A0",
".+ c #9E9E9E",
".@ c #9C9C9C",
".# c #9A9A9A",
".$ c #989898",
".% c #969696",
".& c #949494",
".* c #929292",
".= c #909090",
".- c #8E8E8E",
".; c #8C8C8C",
".: c #8A8A8A",
".> c #888888",
"., c #868686",
".< c #848484",
".1 c #828282",
".2 c #808080",
".3 c #7E7E7E",
".4 c #7C7C7C",
".5 c #7A7A7A",
".6 c #787878",
".7 c #767676",
".8 c #747474",
".9 c #727272",
".0 c #707070",
".q c #6E6E6E",
".w c #6C6C6C",
".e c #6A6A6A",
".r c #686868",
".t c #666666",
".y c #646464",
".u c #626262",
".i c #606060",
".p c #5C5C5C",
".a c #5A5A5A",
".s c #585858",
".d c #565656",
".f c #545454",
".g c #505050",
".h c #FFFFFF",
".j c #FDFDFD",
".k c #FBFBFB",
".l c #F9F9F9",
".z c #F7F7F7",
".x c #F5F5F5",
".c c #F3F3F3",
".v c #F1F1F1",
".b c #EFEFEF",
".n c #EDEDED",
".m c #EBEBEB",
".M c #E9E9E9",
".N c #E7E7E7",
".B c #E5E5E5",
".V c #323232",
".C c #E3E3E3",
".Z c #E1E1E1",
".A c #2E2E2E",
".S c #DFDFDF",
".D c #DDDDDD",
".F c #2A2A2A",
".G c #DBDBDB",
".H c #D9D9D9",
".J c #D7D7D7",
".K c #D5D5D5",
".L c #D3D3D3",
".P c #D1D1D1",
".I c #CFCFCF",
".U c #CDCDCD",
".Y c #CBCBCB",
".T c #C9C9C9",
".R c #C7C7C7",
".E c #C5C5C5",
".W c #121212",
".Q c #C3C3C3",
".! c #C1C1C1",
".~ c #BFBFBF",
".^ c #BDBDBD",
"./ c #BBBBBB",
".( c #B9B9B9",
".) c #B7B7B7",
"._ c #B5B5B5",
".` c #B3B3B3",
/* pixels */
".h.h.h.h.h.h.h.h.h.h.h.h.h.h.h.h.h.h.h.h.h.h.h.h.h.h.h.h.h.h.h.h.h.h.h.h.h.h.h.h.h.h.h.h.h.h.h.j h.D ..: b.h.h.h.h.h.h.h.h",
".h.h.h.h.h.h.h.h.h.h.h.h.h.h.h.h.h.h.h.h.h.h.h.h.h.h.h.h.h.h.h.h.h.h.h.h.h.h.h.h.h.h.h.h.h.h.h.j y u.o.~ 7.i.H.h.h.h.h.h.h",
".h.h.h.h.h.h.h.h.h.h.h.h.h.h.h.h.h.h.h.h.h.h.h.h.h.h.h.h.h.h.h.h.h.h.h.h.h.h.h.h.h.h.h.h.h.h.h.j.*.h.h l L L.d ..h.h.h.h.h",
".h.h.h.h.h.h.h.h.h.h.h.h.h.h.h.h.h.h.h.h.h.h.h.h.h.h.h.h.h.h.h.h.h.h.h.h.h.h.h.h.h.h.h.h.h.h.h.h.^.L.h.h.h.h.k.Z 8.h.h.h.h",
".h.h.h.h.h.h.h.h.h.h.h.h.h.h.h.h.h.h.h.h.h.h.h.h.h.h.h.h.h.h.h.h.h.h.h.h.h.h.h.h.h.h.h.h.h.h.h.h.h.^.L.h.h.h.h.h.5 l.h.h.h",
".h.h.h.h.h.h.h.h.h.h.h.h.h.h.h.h.h.h.h.h.h.h.h.h.h.h.h.h.h.h.h.h.h.h.h.h.h.h.h.h.h.h.h.h.h.h.h.h.h.h.^.+ D.h.h.h ].#.h.h.h",
".h.h.h.h.h.h.h.h.h.h.h.h.h.h.h.h.h.h.h.h.h.h.h.h.h.h.h.h.h.h.h.h.h.h.h.h.h.h.h.h.h.h.h.h.h.h.h.h.h m.E.f.3.F.%.h.z ,.h.h.h",
".h.h.h.h.h.h.h.h.h.h.h.h.h.h.h.h.h.h.h.h.h.h.h.h.h.h.h.h.h.h.h.h.h.h.h.h.h.h.h.h.h.h.h.h.h.h.h.h. .O.Y : r * W W.$ Q.h.h.h",
".h.h.h.h.h.h.h.h.h.h.h.h.h.h.h.h.h.h.h.h.h.h.h.h.h.h.h.h.h.h.h.h.h.h.h.h.h.h.h.h.h.h.h.h.h.h.h.  C.h.h 0.h.A.W W 2 R.h.h.h",
".h.h.h.h.h.h.h.h.h.h.h.h.h.h.h.h.h.h.h.h.h.h.h.h.h.h.h.h.h.h.h.h.h.h.h.h.h.h.h.h.h.h.h.h.h.j | C.h.h.h.: <.9 o k.v o.9.h.h",
".h.h.h.h.h.h.h.h.h.h.h.h.h.h.h.h.h.h.h.h.h.h.h.h.h.h.h.h.h.h.h.h.h.h.h.h.h.h.h.h.h.h.h.h.j } Z.h.h.h.h { ! %.e.  u % ].h.h",
".h.h.h.h.h.h.h.h.h.h.h.h.h.h.h.h.h.h.h.h.h.h.h.h.h.h.h.h.h.h.h.h.h.h.h.h.h.h.h.h.h.h.h.h.K ).h.h.h.h.h.+ 2 }.$ &.e.l.h.h.h",
".h.h.h.h.h.h.h.h.h.h.h.h.h.h.h.h.h.h.h.h.h.h.h.h.h.h.h.h.h.h.h.h.h.h.h.h.h.h.h.h.h.h.h.j :.h.h.h.h.h.h k A ) ).h ~.*.h.h.h",
".h.h.h.h.h.h.h.h.h.h.h.h.h.h.h.h.h.h.h.h.h.h.h.h.h.h.h.h.h.h.h.h.h.h.h.h.h.h.h.h.h.h.h o.B.h.h.h.h.h.h.h.h.h <.v m.-.h.h.h",
".h.h.h.h.h.h.h.h.h.h.h.h.h.h.h.h.h.h.h.h.h.h.h.h.h.h.h.h.h.h.h.h.h.h.h.h.h.h.h.h.h.h.h #.n.h.h.h.h.h.h.h.h.h U.r z P.h.h.h",
".h.h.h.h.h.h.h.h.h.h.h.h.h.h.h.h.h.h.h.h.h.h.h.h.h.h.h.h.h.h.h.h.h.h.h.h.h.h.h.h.h.h.h >.h.h.h.h.h.h.h.h.h.h.h.z.e M.h.h.h",
".h.h.h.h.h.h.h.h.h.h.h.h.h.h.h.h.h.h.h.h.h.h.h.h.h.h.h.h.h.h.h.h.h.h.h.h.h.h.h.h.h.h.E.Y.h.h.h.h.h.h.h.h.h.h.h.h.h >.h.h.h",
".h.h.h.h.h.h.h.h.h.h.h.h.h.h.h.h.h.h.h.h.h.h.h.h.h.h.h.h.h.h.h.h.h.h.h.h.h.h.h.h.h.h >.h.h.h.h.h.h.h.h.h.h.h.h.h.h K _.h.h",
".h.h.h.h.h.h.h.h.h.h.h.h.h.h.h.h.h.h.h.h.h.h.h.h.h.h.h.h.h.h.h.h.h.h.h.h.h.h.h.h.h n.+.h.h.h.h.h.h.h.h.h.h.h.h.h.h.h.Q.U.h",
".h.h.h.h.h.h.h.h.h.h.h.h.h.h.h.h.h.h.h.h.h.h.h.h.h.h.h.h.h.h.h.h.h.h.h.h.h.h.h.h.h ( P.h.h.h.h.h.h.h.h.h.h.h.h.h.h.h C o k",
".h.h.h.h.h.h.h.h.h.h.h.h.h.h.h.h.h.h.h.h.h.h.h.h.h.h.h.h.h.h.h.h.h.h.h.h.h.h.h.h.h >.h.h.h.h.h.h.h.h.h.h.h.h.h.h.h.h.h | Z",
".h.h.h.h.h.h.h.h.h.h.h.h.h.h.h.h.h.h.h.h.h.h.h.h.h.h.h.h.h.h.h.h.h.h.h.h.h.h.h.h.h >.h.h.h.h.h.h.h.h.h.h.h.h.h.h.h.h.h.b $",
".h.h.h.h.h.h.h.h.h.h.h.h.h.h.h.h.h.h.h.h.h.h.h.h.h.h.h.h.h.h.h.h.h.h.h.h.h.h.h.h O.N.h.h.h.h.h.h.h.h.h.h.h.h.h.h.h.h.h.h.=",
".h.h.h.h.h.h.h.h.h.h.h.h.h.h.h.h.h.h.h.h.h.h.h.h.h.h.h.h.h.h.h.h.h.h.h.h.h.h.h.h - x.h.h.h.h.h.h.h.h.h.h.h.h.h.h.h.h.h.h.>",
".h.h.h.h.h.h.h.h.h.h.h.h.h.h.h.h.h.h.h.h.h.h.h.h.h.h.h.h.h.h.h.h.h.h.h.h.h.h.h.m @.h.h.h.h.h.h.h.h.h.h.h.h.h.h.h.h.h.h.h.>",
".h.h.h.h.h.h.h.h.h j F > > > > > > > >.@ m k.h.h.h.h.h.h.h.h.h.h.h.h.h.h.h.h j X A.h.h.h.h.h.h.h.h.h.h.h.h.h.h.h.h.h.h.h.>",
".h.h.h.h.h.h.h.h.H -  .h.h.h.h.h.h.h.h b %.&.% M.h.h.h.h.h.h.h.h.h.h.h.h.h.h K _.h.h.h.h.h.h.h.h.h.h.h.h.h.h.h.h.h.h.h.h.>",
".h.h.h.h.h.h x.#.) l.h.h.h.h.h.h.h.h.h.h.h.h l.o @ x.h.h.h.h.h.h.h.h.h.h.h.S <.h.h.h.h.h.h.h.h.h.h.h.h.h.h.h.h.h.h.h.h.h.>",
".h.h.h.h.j Y.$ v.h.h A >.c.h.h.h.z.z.z.k.h.h.h.h V &.l.h.h.h.h.h.h.h.h.h.j.& n.h.h.h.h.h.h.h.h.h.h.h.h.h.j j.h.h.h.h.h.h.>",
".h.h.h.h.( o.h.h m ' }.h.h Z # > = = = ; > W.m.h.h.l - U.h.h.h.h.h.h.h.h.X N.h.h.h.h.h.h.h.h.h.h.h.h.h.h.) K.h.h.h.h.h.h 2",
".h.h.h U /.h.h M + G.h.h o |.n.h.h.h.h.h.h W. .Q.h.h.h / U.h.h.h.h.h.h.o /.h.h.h.h.h.h.h.h.h.h.h.h.h.h v.#.h.h.h.h.h.h.h >",
".h.h U /.h.h Q.o x.h V >.B.h.h.h.h.h j j j j k.U > v.h.h / #.h.h.h.h.P /.h.h.h.h.h.h.h.h.h.h.h.h.h.h.h /.P.h.h.h.h.h.h J `",
".h.h.& k.h.v.+.h.h.M >.B.h.h.h D > >.*.*.*.* >.! C.# L.h.h / + l.h.J.(.h.h.h.h.h.h.h.h.h.h.h.h.h.h.h.h >.h.h.h.h.h.h.h +.M",
".h T.!.h M...k.h Z.p.h.h.h b.@ [.h N.(.2.h.h.h T.  @.B.h.h.h.R.T.J...c.h.h.h.h.h.h.h  .h.h.h.h.h.h.h._.G.h.h.h.h.h.h.h >.h",
".h -.l.h X.C.h C., S.h.h T.@ b.P :.X.J.n.B.m v.%.%.1.<.>.h.h.h.=.;.c.h.h.h.h.h.h.h n.+.h.h.h.h.h.h S . j.h.h.h.h.h.h ( P.h",
".D ].h.N O.h.j.> R.h.h %.! l + / k.h.N., 5.=.#.l.l.l.j.c.k.K S k k.h.h.h.h.h.h.h.h ( P.h :.h.h.h.S w j.h.h.h.h.h.h N.X.h.h",
".D.`.h >.h.h < 0.h.h %.!.S.4.M.h v.o r 5.(.h.h L ..a > *.K ,.h.h.h.h.h.h.$.m.h.h.h >.h.h >.h.h.C.d.N.h.h.h.h.h.h.h >.h.h.h",
" %.v.h >.h J.e W.h.c.@.S f N.h.h.1 : # `.h J - ) t -.h.S  .h.h @.h A m.N 0.h @.h G '.h ).K.h.Z.f.m.h.h.h.h.h.h.h '.G.h.h.h",
" >.h.@.c.h &.<.h.h ;.Z.X -.h.h.% ,.J._.h.K.s n.- -.j.    j.h x -.h.8 N 7 K.z = l % v G * , > . x.h.h.h.h.h.h.h.Z [ j.h.h.h",
" >.h.% l.v., >.h.m @.. > V.h.E.1.H [.S.l 6.b <.&.h o ,.h.h.h ] F m e C I.v.5.K.@.` : % + Y.h.h.h.h.h.h.h.h.h l. .n.h.h.h.h",
" >.h >.h.! _ >.h.+.N.@ >.h m.O > n &.h.% E G.@.h.S.:.h.h.h.h.$ x.h.# 9 >.<._.6..., R.h.h.h.h.h.h.h.h.h.h.h.h # N.h.h.h.h.h",
" >.k ;.h.!.I > k.&.$.R.!.h.K ; `.K '.h > D 6 j k.q.n.h.h.h P (.h.h.h.h.h.x k.b @.k.h.h.h.x.X.h.h.h.h.h.h.h T ~.h.h.h.h.h.h",
" > ) L.h.) K >.^.L > >.h.h |.< n.<.C / U.o.n.h.1.T.h.h.h.h >.h.h.h.h.h.R.w J.X.h.h.h.h.h >.h.h.h.h.h.h.l / ~.h.h.h.h.h.h.h",
" > ) L.h >.h > >.h., *.h.h e  .h | Z -.C...h x.t n.h.G.h.l -.h.h.h ! ; W V O k N.n.h.h `.H.h.h.h.h.h.h.X.P.h.h.h.h.h.h.h.h",
" > ) L n.+.h 3 * k 4 %.h.h y./.h G ' - :.z.h ` *.h.h >.h * 5 > i > R x.m.. l n.o $.R.) J.h.h.h.h.h F p ^.h.h.h.h.h.h.h.h.h",
" > Q E.K ).h.4.. @.D %.h x c A.h.v % - 1.h.h 9...h m %.h l.t.h.h.l P % @.h.b.+ | V.)  .B.h.h.h.h E : 5.j.h.h.h.h.h.h.h.h.h",
" >.h > >.h.h 4 R @.D %.h x.F.h.h.B q 0 G.h.h 9...h m %.h L q C.X - ( b v.@ $ @.J.. T.@.h.h.h C.X Q.~.P.h.h.h.h.h.h.h.h.h.h",
" >.h.= >.h.h }.. @.D %.h x.F.h.h.# N.V.l.h O 5 b.h Q.T.h.; w.  N.h j.P.# K >.Z.o.M.+.c j.Y >.  N.~ $.h.h.h.h.h.h.h.h.h.h.h",
" * b H x.h.h V.. @.D %.h x g K j.u.h.. V v.0.$ n.h >.h.h >.h.h.S >.*.~.` X.E *.z $.B.U >.E.h.h M.o.h.h.h.h.h.h.h.h.h.h.h.h",
".D.` u }.h.h.l - -.m %.h x.q.@.*.S.h.h.9 5.D V...h i.h C.s ] >  .h.U. .K {.Y.h _.*.$.2.h.h.h.M...h.h.h.h.h.h.h.h.h.h.h.h.h",
".m @.  C.h.h.h > >.z =.h x.* y %.h.h.h.r O.h V.. o s.^.s.2 F ].% :.Q.N : /.h W W M m.O.h.h.n.  l.h.h.h.h.h.h.h.h.h.h.h.h.h",
".h ; : x.h.h.h - 1.h.`.D x.$ o m.h.h.h k.j.h V B T.E.L k Q d F l N R i x.h.^ y.h.h.v = S F y j.h.h.h.h.h.h.h.h.h.h.h.h.h.h",
".h ).e.j.h.h.h W.a.h T.!.j :.h.h.h.h.h.h.h.h x ^.h.h.h.h.h E > >.o.7 _ v.X t.k.h.h.h.).6.  =.h.h.h.h.h.h.h.h.h.h.h.h.h.h.h",
".h.c '.h.h.h.h W.a.h v.X.x >.h.h.h.h.h.h.h.h.h.h.h.h.h.h.h.h.h.h.h.h.g 1 5.z.h.h.h.h.h >.j.*.h.h.h.h.h.h.h.h.h.h.h.h.h.h.h",
".h.h.h.h.h.h.h W.a.h.h.J.( -.l.h.h.h.h.h.h.h.h.h.h.h.h.h.h.h.h.h.h.h >.h >.h.h.h.h.h.h.+.v -.l.h.h.h.h.h.h.h.h.h.h.h.h.h.h",
".h.h.h.h.h.h.h N.3.h.h.h.  /./.h.h.h.h.h.h.h.h.h.h.h.h.h.h.h.h.h.h.h >.h >.h.h.h.h.h.h o.B P (.h.h.h.h.h.h.h.h.h.h.h.h.h.h",
".h.h.h.h.h.h.h.h.(.h.h.h.j.r :.h.h.h.h.h.h.h.h.h.h.h.h.h.h.h.h.h.h.h >.h >.h.h.h.h.h.h.n.o P (.h.h.h.h.h.h.h.h.h.h.h.h.h.h",
".h.h.h.h.h.h.h.h.h.h.h.h.h S w.h.h.h.h.h.h.h.h.h.h.h.h.h.h.h.h.h.h.k.-.v %.h.h.h.h.h D B | k.&.h.h.h.h.h.h.h.h.h.h.h.h.h.h",
".h.h.h.h.h.h.h.h.h.h.h.h.h.h.h.h.h.h.h.h.h.h.h.h.h.h.h.h.h.h.h.h.^.r.0 S {.h.h.h.h.h !.M >.h -.l.h.h.h.h.h.h.h.h.h.h.h.h.h",
".h.h.h.h.h.h.h.h.h.h.h.h.h.h.h.h.h.h.h.h.h.h.h.h.h.h.h.h.h.h.h.h.Q L.  S {.h.h.h.h.h.h.h >.h ] F.h.h.h.h.h.h.h.h.h.h.h.h.h",
".h.h.h.h.h.h.h.h.h.h.h.h.h.h.h.h.h.h.h.h.h.h.h.h.h.h.h.h.h.h.h.h j._ K S {.h.h.h.h.h.j.. [.k.z.@.Y v v v v.j.h.h.h.h.h.h.h",
".h.h.h.h.h.h.h.h.h.h.h.h.h.h.h.h.h.h.h.h.h.h.h.h.h.h.h.h.h.h.h N ;.: x.N e > > > > '...4.# ; ~.l }.q.q.q a Q.h.h.h.h.h.h.h",
".h.h.h.h.h.h.h.h.h.h.h.h.h.h.h.h.h.h.h.h.h.h.h.h.h.h.h.h.h.h.h.1 <.+.! P          .y S.h.h.h T -.> ( ( (  .2.k.h.h.h.h.h.h",
".h.h.h.h.h.h.h.h.h.h.h.h.h.h.h.h.h.h.h.h.h.h.h.h.h.h.h.h.h.h.h.h.h.h :./.S.S.S.S.S K.#.h.h.h.h.h.v.h.h.h.h.c j.h.h.h.h.h.h"
};
