/* XPM */
static char *haan-r[] = {
/* width height ncolors chars_per_pixel */
"64 43 123 2",
/* colors */
"   c #B1B1B1",
" . c #AFAFAF",
" X c #ADADAD",
" o c #ABABAB",
" O c #A9A9A9",
" + c #A7A7A7",
" @ c #A5A5A5",
" # c #A1A1A1",
" $ c #9F9F9F",
" % c #9D9D9D",
" & c #9B9B9B",
" * c #999999",
" = c #979797",
" - c #959595",
" ; c #939393",
" : c #8F8F8F",
" > c #8D8D8D",
" , c #8B8B8B",
" < c #898989",
" 1 c #878787",
" 2 c #858585",
" 3 c #838383",
" 4 c #7F7F7F",
" 5 c #7B7B7B",
" 6 c #6D6D6D",
" 7 c #6B6B6B",
" 8 c #FEFEFE",
" 9 c #FCFCFC",
" 0 c #FAFAFA",
" q c #F8F8F8",
" w c #F6F6F6",
" e c #F4F4F4",
" r c #F2F2F2",
" t c #F0F0F0",
" y c #EEEEEE",
" u c #ECECEC",
" i c #EAEAEA",
" p c #E8E8E8",
" a c #E6E6E6",
" s c #E4E4E4",
" d c #E2E2E2",
" f c #E0E0E0",
" g c #DEDEDE",
" h c #DCDCDC",
" j c #DADADA",
" k c #D8D8D8",
" l c #D6D6D6",
" z c #D4D4D4",
" x c #D2D2D2",
" c c #D0D0D0",
" v c #CECECE",
" b c #CCCCCC",
" n c #CACACA",
" m c #C8C8C8",
" M c #C6C6C6",
" N c #C4C4C4",
" B c #C2C2C2",
" V c #C0C0C0",
" C c #BEBEBE",
" Z c #BCBCBC",
" A c #BABABA",
" S c #B8B8B8",
" D c #B6B6B6",
" F c #B4B4B4",
" G c #B2B2B2",
" H c #B0B0B0",
" J c #AEAEAE",
" K c #ACACAC",
" L c #AAAAAA",
" P c #A8A8A8",
" I c #A6A6A6",
" U c #A4A4A4",
" Y c #A2A2A2",
" T c #A0A0A0",
" R c #9E9E9E",
" E c #9C9C9C",
" W c #9A9A9A",
" Q c #989898",
" ! c #969696",
" ~ c #949494",
" ^ c #929292",
" / c #909090",
" ( c #828282",
" ) c #808080",
" _ c #FFFFFF",
" ` c #FDFDFD",
" ' c #FBFBFB",
" ] c #F9F9F9",
" [ c #F7F7F7",
" { c #F5F5F5",
" } c #F3F3F3",
" | c #F1F1F1",
".  c #EFEFEF",
".. c #EDEDED",
".X c #EBEBEB",
".o c #E9E9E9",
".O c #E7E7E7",
".+ c #E5E5E5",
".@ c #E3E3E3",
".# c #E1E1E1",
".$ c #DFDFDF",
".% c #DDDDDD",
".& c #DBDBDB",
".* c #D9D9D9",
".= c #D7D7D7",
".- c #D5D5D5",
".; c #D3D3D3",
".: c #D1D1D1",
".> c #CFCFCF",
"., c #CDCDCD",
".< c #CBCBCB",
".1 c #C9C9C9",
".2 c #C7C7C7",
".3 c #C5C5C5",
".4 c #C3C3C3",
".5 c #C1C1C1",
".6 c #BFBFBF",
".7 c #BDBDBD",
".8 c #BBBBBB",
".9 c #B9B9B9",
".0 c #B7B7B7",
".q c #B5B5B5",
".w c #B3B3B3",
/* pixels */
" _ _ _ _ _ _ _ _ _ _ _ _ _ _ _ _ _ _ _ _ _ _ _ _ _ _ _ _ _ _ _ _ _ _ _ _ _ _ _ _ _ _ _ _ _ _ _ _ _ _ _ _ _ _ _ _ _ _ _ _ _ _ _ _",
" _ _ _ _ _ _ _ _ _ _ _ _ _ _ _ _ _ _ _ _ _ _ _ _ _ _ _ _ _ _ _ _ _ _ _ _ _ _ _ _ _ _ _ _ _ _ _ _ _ _ _ _ _ _ _ _ _ _ _ _ _ _ _ _",
" _ _ _ _ _ _ _ _ _ _ _ _ _ _ _ _ _ _ _ _ _ _ _ _ _ _ _ _ _ _ _ _ _ _ _ _ _ _ _ c ].= _ _ _ _ _ _ _ _ _ _ _ _ _ _ _ _ _ _ _ _ _ _",
" _ _ _ _ _ _ _ _ _ _ _ _ _ _ _ _ _ _ _ _ _ _ _ _ _ _ _ _ _ _ _ _ _ _ _ _ _ _ _ P $ X W.& _ _ _ _ _ _ _ _ _ _ _ _ _ _ _ _ _ _ _ _",
" _ _ _ _ _ _ _ _ _ _ _ _ _ _ _ _ _ _ _ _ _ _ _ _ _ _ _ _ _ _ _ _ _ _ _ _ _ _ _ k a _ _ m.3 _ _ _ _ _ _ _ _ _ _ _ _ _ _ _ _ _ _ _",
" _ _ _ _ _ _ _ _ _ _ _ _ _ _ _ _ _ _ _ _ _ _ _ _ _ _ _ _ _ _ _ _ _ _ _ _ _ _ _ _ k.1 _ _ $ _ _ _ _ _ _ _ _ _ _ _ _ _ _ _ _ _ _ _",
" _ _ _ _ _ _ _ _ _ _ _ _ _ _ _ _ _ _ _ _ _ _ _ _ _ _ _ _ _ _ _ _ _ _ _ _ _ _ _.X V 3 7 s . _ _ _ _ _ _ _ _ _ _ _ _ _ _ _ _ _ _ _",
" _ _ _ _ _ _ _ _ _ _ _ _ _ _ _ _ _ _ _ _ _ _ _ _ _ _ _ _ _ _ _ _ _ _ _ _ _ _.X.; 8 X 6 ) J.O _ _ _ _ _ _ _ _ _ _ _ _ _ _ _ _ _ _",
" _ _ _ _ _ _ _ _ _ _ _ _ _ _ _ _ _ _ _ _ _ _ _ _ _ _ _ _ _ _ _ _ _ _ _ _ _.X.; _ _ O L K @ H _ _ _ _ _ _ _ _ _ _ _ _ _ _ _ _ _ _",
" _ _ _ _ _ _ _ _ _ _ _ _ _ _ _ _ _ _ _ _ _ _ _ _ _ _ _ _ _ _ _ _ _ _ _ _ _.6 _ _ _.2 L.4 - _ _ _ _ _ _ _ _ _ _ _ _ _ _ _ _ _ _ _",
" _ _ _ _ _ _ _ _ _ _ _ _ _ _ _ _ _ _ _ _ _ _ _ _ _ _ _ _ _ _ _ _ _ _ _ _.+.* _ _ _ _ ] U * _ _ _ _ _ _ _ _ _ _ _ _ _ _ _ _ _ _ _",
" _ _ _ _ _ _ _ _ _ _ _ _ _ _ _ _ _ _ _ _ _ _ _ _ _ _ _ _ _ _ _ _ _ _ _ _.5 ` _ _ _ _ _ e $ _ _ _ _ _ _ _ _ _ _ _ _ _ _ _ _ _ _ _",
" _ _ _ _ _ _ _ _ _ _ _ _ _ _ _ _ _ _ _ _ _ _ _ _ _ _ _ _ _ _ _ _ _ _ _ _.6 _ _ _ _ _ _ _ r b _ _ _ _ _ _ _ _ _ _ _ _ _ _ _ _ _ _",
" _ _ _ _ _ _ _ _ _ _ _ _ _ _ _ _ _ _ _ _ _ _ _ _ _ _ _ _ _ _ _ _ _ _ _.%.# _ _ _ _ _ _ _ _ m w _ _ _ _ _ _ _ _ _ _ _ _ _ _ _ _ _",
" _ _ _ _ _ _ _ _ _ _ _ _ _ _ _ _ _ _ _ _ _ _ _ _ _ _ _ _ _ _ _ _ _ _ _.6 _ _ _ _ _ _ _ _ _ 8 V _ _ _ _ _ _ _ _ _ _ _ _ _ _ _ _ _",
" _ _ _ _ _ _ _ _ _ _ _ _ _ _ _ _ _ _ _ _ _ _ _ _ _ _ _ _ _ _ _ _ _ _ _.6 _ _ _ _ _ _ _ _ _ _.6 _ _ _ _ _ _ _ _ _ _ _ _ _ _ _ _ _",
" _ _ _ _ _ _ _ _ _ _ _ _ _ _ _ _ _ _ _ _ _ _ _ _ _ _ _ _ _ _ _ _ _ _.%.# _ _ _ _ _ _ _ _ _ _.6 _ _ _ _ _ _ _ _ _ _ _ _ _ _ _ _ _",
" _ _ _ _ _ _ _ _ _ _ _ _ _ _ _ _ [.3.6.6.6.6.6 B k _ _ _ _ _ _ _ _ _.6 _ _ _ _ _ _ _ _ _ _ _.6 _ _ _ _ _ _ _ _ _ _ _ _ _ _ _ _ _",
" _ _ _ _ _ _ _ _ _ _ _ _ _ _ _ k.2 ] p _ _ _ _ 9 a.6.. _ _ _ _ _ _ N.o _ _ _ _ _ _ _ _ _ _ _.6 _ _ _ _ _ _ _ _ _ _ _ _ _ _ _ _ _",
" _ _ _ _ _ _ _ _ _ _ _ _ _ _.0 a u V | g.6.6.6 B.+ _.:.% _ _ _ _ h d _ _ _ _ _ _ _ ' k _ _ _.6 _ _ _ _ _ _ _ _ _ _ _ _ _ _ _ _ _",
" _ _ _ _ _ _ _ _ _ _ _ _ _ m w k x w V f _ _ _ 9.*.2 '.#., _ _ s n _ _ _ _ _ _ _ _., | _ _ _.6 _ _ _ _ _ _ _ _ _ _ _ _ _ _ _ _ _",
" _ _ _ _ _ _ _ _ _ _ _ _.&.@ p l [ G ] q M.6 J.8.6 A C _.#., 0 N _ _ _ _ e _ _ _ '.4 _ _ _ [.2 _ _ _ _ _ _ _ _ _ _ _ _ _ _ _ _ _",
" _ _ _ _ _ _ _ _ _ _ _ _.6 _.6 _ @ e.$ M.;.6 V k l Z = m _ k X 9 _ _ _ u x { _ _., | _ _ _ v t _ _ _ _ _ _ _ _ _ _ _ _ _ _ _ _ _",
" _ _ _ _ _ _ _ _ _ _ _ _.6 m w %.%.* m.0 s j , L p.= o m Z q _ _.% [ _ B 9.6 _ ..- _ _ _.X.; _ _ _ _ _ _ _ _ _ _ _ _ _ _ _ _ _ _",
" _ _ _ _ _ _ _ _ _ _ _ c y.6.$ * _ S = y j *.q.@ o / c B r z.@ x $ v r.4 k.3 Z.> _ _ _ 9 B _ _ _ _ _ _ _ _ _ _ _ _ _ _ _ _ _ _ _",
" _ _ _ _ _ _ _ _ _ _ _.4 a.; H C v D.9.. E.5 u P . l P w _.6 v & 1 > Y I.9 c ' _ _ _ _ v t _ _ _ _ _ _ _ _ _ _ _ _ _ _ _ _ _ _ _",
" _ _ _ _ _ _ _ _ _ _ _.6 n e.6.6.6 $.$.5.7 D.2.4 h B.& _ s j 9 p j.o.7 ' _.$ w _ _ _ f g _ _ _ _ _ _ _ _ _ _ _ _ _ _ _ _ _ _ _ _",
" _ _ _ _ _ _ _ _ _ _ _.6.6 _.6 T F O _ / y S.6.6 ] & 0 '.6 _ 0.1 S N r _. .> _ _ _ c g _ _ _ _ _ _ _ _ _ _ _ _ _ _ _ _ _ _ _ _ _",
" _ _ _ _ _ _ _ _ _ _ _.6.6.$.$ 2 N.q _ 4 _.6 ^ u ..$.>.  > D Z z.4.X . M M _ _ 9 I.1 _ _ _ _ _ _ _ _ _ _ _ _ _ _ _ _ _ _ _ _ _ _",
" _ _ _ _ _ _ _ _ _ _ _.6 n.q ` :.6.6 _ 4 _ L ~ _ -.o.6 _ ( n.6 f.> ..6 S l _ k B.w _ _ _ _ _ _ _ _ _ _ _ _ _ _ _ _ _ _ _ _ _ _ _",
" _ _ _ _ _ _ _ _ _ _ _ c.8 G _.0.6.6 _ 4 s n +.@ : 9.6 | A.O.4.8.w ..>.4.<.6 a V.. _ _ _ _ _ _ _ _ _ _ _ _ _ _ _ _ _ _ _ _ _ _ _",
" _ _ _ _ _ _ _ _ _ _ _ _ K L _.,  .6 _ 5 @ 9.7 # k.- E J ; ..2.6.0.X.8 G.; _.:.. _ _ _ _ _ _ _ _ _ _ _ _ _ _ _ _ _ _ _ _ _ _ _ _",
" _ _ _ _ _ _ _ _ _ _ _ _.9.3 _.# % n e J.$ _ 0 e.% # n u W Z.8 +.  Q r.. L # s _ _ _ _ _ _ _ _ _ _ _ _ _ _ _ _ _ _ _ _ _ _ _ _ _",
" _ _ _ _ _ _ _ _ _ _ _ _ M [ _ _ 4...:.6 _ _ _ _ _ _ _ _ 0 g.  ; ; i _ _.6 l p _ _ _ _ _ _ _ _ _ _ _ _ _ _ _ _ _ _ _ _ _ _ _ _ _",
" _ _ _ _ _ _ _ _ _ _ _ _ _ _ _ _ ! _ c J _ _ _ _ _ _ _ _ _ _ _.6.6 _ _ _.$.-.1 _ _ _ _ _ _ _ _ _ _ _ _ _ _ _ _ _ _ _ _ _ _ _ _ _",
" _ _ _ _ _ _ _ _ _ _ _ _ _ _ _ _ a _ _ ( } _ _ _ _ _ _ _ _ _ _.6.6 _ _ _.;.3.6 _ _ _ _ _ _ _ _ _ _ _ _ _ _ _ _ _ _ _ _ _ _ _ _ _",
" _ _ _ _ _ _ _ _ _ _ _ _ _ _ _ _ _ _ _ ] 9 _ _ _ _ _ _ _ _ _ D =.6 _ _ _.1 A.6 _ _ _ _ _ _ _ _ _ _ _ _ _ _ _ _ _ _ _ _ _ _ _ _ _",
" _ _ _ _ _ _ _ _ _ _ _ _ _ _ _ _ _ _ _ _ _ _ _ _ _ _ _ _ _ _ { B.6 _ _ _.$.q.$ b.+.+ e _ _ _ _ _ _ _ _ _ _ _ _ _ _ _ _ _ _ _ _ _",
" _ _ _ _ _ _ _ _ _ _ _ _ _ _ _ _ _ _ _ _ _ _ _ _ _ _ _ _ _ g < b S I I % C l.6 K * * R _ _ _ _ _ _ _ _ _ _ _ _ _ _ _ _ _ _ _ _ _",
" _ _ _ _ _ _ _ _ _ _ _ _ _ _ _ _ _ _ _ _ _ _ _ _ _ _ _ _ _ _ _.,.- k k.: f _ _ { _ _ { _ _ _ _ _ _ _ _ _ _ _ _ _ _ _ _ _ _ _ _ _",
" _ _ _ _ _ _ _ _ _ _ _ _ _ _ _ _ _ _ _ _ _ _ _ _ _ _ _ _ _ _ _ _ _ _ _ _ _ _ _ _ _ _ _ _ _ _ _ _ _ _ _ _ _ _ _ _ _ _ _ _ _ _ _ _",
" _ _ _ _ _ _ _ _ _ _ _ _ _ _ _ _ _ _ _ _ _ _ _ _ _ _ _ _ _ _ _ _ _ _ _ _ _ _ _ _ _ _ _ _ _ _ _ _ _ _ _ _ _ _ _ _ _ _ _ _ _ _ _ _",
" _ _ _ _ _ _ _ _ _ _ _ _ _ _ _ _ _ _ _ _ _ _ _ _ _ _ _ _ _ _ _ _ _ _ _ _ _ _ _ _ _ _ _ _ _ _ _ _ _ _ _ _ _ _ _ _ _ _ _ _ _ _ _ _"
};
