/* XPM */
static char *hamer-r[] = {
/* width height ncolors chars_per_pixel */
"64 57 175 2",
/* colors */
"   c #000000",
" . c #B1B1B1",
" X c #AFAFAF",
" o c #ADADAD",
" O c #ABABAB",
" + c #A9A9A9",
" @ c #A7A7A7",
" # c #A5A5A5",
" $ c #A3A3A3",
" % c #9F9F9F",
" & c #999999",
" * c #959595",
" = c #939393",
" - c #919191",
" ; c #8D8D8D",
" : c #8B8B8B",
" > c #898989",
" , c #858585",
" < c #818181",
" 1 c #7F7F7F",
" 2 c #7D7D7D",
" 3 c #7B7B7B",
" 4 c #797979",
" 5 c #777777",
" 6 c #757575",
" 7 c #737373",
" 8 c #717171",
" 9 c #6F6F6F",
" 0 c #6D6D6D",
" q c #6B6B6B",
" w c #696969",
" e c #676767",
" r c #656565",
" t c #636363",
" y c #616161",
" u c #5F5F5F",
" i c #5D5D5D",
" p c #575757",
" a c #555555",
" s c #535353",
" d c #515151",
" f c #4F4F4F",
" g c #FEFEFE",
" h c #FCFCFC",
" j c #FAFAFA",
" k c #F8F8F8",
" l c #F6F6F6",
" z c #F4F4F4",
" x c #414141",
" c c #F2F2F2",
" v c #F0F0F0",
" b c #ECECEC",
" n c #EAEAEA",
" m c #353535",
" M c #E6E6E6",
" N c #E4E4E4",
" B c #313131",
" V c #E2E2E2",
" C c #2F2F2F",
" Z c #E0E0E0",
" A c #2D2D2D",
" S c #DCDCDC",
" D c #DADADA",
" F c #252525",
" G c #D6D6D6",
" H c #D4D4D4",
" J c #212121",
" K c #D2D2D2",
" L c #D0D0D0",
" P c #CECECE",
" I c #CCCCCC",
" U c #CACACA",
" Y c #C8C8C8",
" T c #C6C6C6",
" R c #C4C4C4",
" E c #C2C2C2",
" W c #C0C0C0",
" Q c #BEBEBE",
" ! c #BCBCBC",
" ~ c #BABABA",
" ^ c #B8B8B8",
" / c #B6B6B6",
" ( c #B4B4B4",
" ) c #B0B0B0",
" _ c #ACACAC",
" ` c #AAAAAA",
" ' c #A8A8A8",
" ] c #A4A4A4",
" [ c #A0A0A0",
" { c #9C9C9C",
" } c #9A9A9A",
" | c #989898",
".  c #969696",
".. c #949494",
".X c #929292",
".o c #909090",
".O c #8E8E8E",
".+ c #8C8C8C",
".@ c #8A8A8A",
".# c #888888",
".$ c #868686",
".% c #848484",
".& c #828282",
".* c #808080",
".= c #7E7E7E",
".- c #7C7C7C",
".; c #7A7A7A",
".: c #787878",
".> c #767676",
"., c #747474",
".< c #727272",
".1 c #6E6E6E",
".2 c #6A6A6A",
".3 c #686868",
".4 c #666666",
".5 c #646464",
".6 c #626262",
".7 c #606060",
".8 c #5E5E5E",
".9 c #5A5A5A",
".0 c #585858",
".q c #565656",
".w c #545454",
".e c #505050",
".r c #4E4E4E",
".t c #FFFFFF",
".y c #4C4C4C",
".u c #FDFDFD",
".i c #4A4A4A",
".p c #FBFBFB",
".a c #F9F9F9",
".s c #464646",
".d c #F7F7F7",
".f c #444444",
".g c #F5F5F5",
".h c #424242",
".j c #F3F3F3",
".k c #404040",
".l c #F1F1F1",
".z c #3E3E3E",
".x c #EFEFEF",
".c c #3C3C3C",
".v c #EDEDED",
".b c #3A3A3A",
".n c #EBEBEB",
".m c #E9E9E9",
".M c #363636",
".N c #E7E7E7",
".B c #E5E5E5",
".V c #E3E3E3",
".C c #303030",
".Z c #E1E1E1",
".A c #DFDFDF",
".S c #DDDDDD",
".D c #DBDBDB",
".F c #282828",
".G c #D9D9D9",
".H c #D7D7D7",
".J c #D5D5D5",
".K c #D3D3D3",
".L c #D1D1D1",
".P c #CFCFCF",
".I c #CDCDCD",
".U c #CBCBCB",
".Y c #181818",
".T c #C9C9C9",
".R c #C7C7C7",
".E c #C5C5C5",
".W c #C3C3C3",
".Q c #BFBFBF",
".! c #BDBDBD",
".~ c #BBBBBB",
".^ c #B9B9B9",
"./ c #B5B5B5",
".( c #B3B3B3",
/* pixels */
".t.t.t.t.t.t.t.t.t.t.t.t.t.t.t.t.t.t.t.t.t.t.t.t.t.t.t.t.t G X.b.o l.t.t.t.t.t.t.t.t.t.t.t.t.t.t.t.t.t.t.t.t.t.t.t.t.t.t.t.t.t.t",
".t.t.t.t.t.t.t.t.t.t.t.t.t.t.t.t.t.t.t.t.t.t.t.t.t.t.u.@.@ 3 :.t `.o.t.t.t.t.t.t.t.t.t.t.t.t.t.t.t.t.t.t.t.t.t.t.t.t.t.t.t.t.t.t",
".t.t.t.t.t.t.t.t.t.t.t.t.t.t.t.t.t.t.t.t.t.t.t.t T.e d X X.N.t.t.t (.e o.t.t.t.t.t.t.t.t.t.t.t.t.t.t.t.t.t.t.t.t.t.t.t.t.t.t.t.t",
".t.t.t.t.t.t.t.t.t.t.t.t.t.t.t.t.t.t.t.t k D D f., n n.t.t.t.t.t.t.u n.+ (.t.t.t.t.t.t.t.t.t.t.t.t.t.t.t.t.t.t.t.t.t.t.t.t.t.t.t",
".t.t.t.t.t.t.t.t.t.t.t.t.t.t.t.t.t.t.t ~.. u u n.t.t.t.t.t.t.t.t.t.t.t.t ,./.t.t.t.t.t.t.t.t.t.t.t.t.t.t.t.t.t.t.t.t.t.t.t.t.t.t",
".t.t.t.t.t.t.t.t.t.t.t.t.t.t.t.t.a r r : _.t.t.t.t.t.t.t.t.t.t.t.t.t.t.t.t.Y `.t.t.t.t.t.t.t.t.t.t.t.t.t.t.t.t.t.t.t.t.t.t.t.t.t",
".t.t.t.t.t.t.t.t.t.t.t.t.t.l X.b.k H H.j.t.t.t.t.t.t.t.t.t.t.t.t.t g.x.O.b ] 7.t.t.t.t.t.t.t.t.t.t.t.t.t.t.t.t.t.t.t.t.t.t.t.t.t",
".t.t.t.t.t.t.t.t.t.t.t.A./ a.@.t.t.t.t.t.t.t.t.t.t.t.t.t.t.t.t.t.L o.i O.t.H.;.N.t.t.t.t.t.t.t.t.t.t.t.t.t.t.t.t.t.t.t.t.t.t.t.t",
".t.t.t.t.t.t.t.t.t.t N 1.% c.t.t.t.t.t.t.t.t.t.t.t.t.t.t.t.t n 3 < ;.t.t.t.t.+ o.t.t.t.t.t.t.t.t.t.t.t.t.t.t.t.t.t.t.t.t.t.t.t.t",
".t.t.t.t.t.t.t.t.t.t u.D.t.t.t.t.t.t.t.t.t.t.t.t.t.t.t.t.t 4.w.Q.N.t.t.t.t x 4 n.t.t.t.t.t.t.t.t.t.t.t.t.t.t.t.t.t.t.t.t.t.t.t.t",
".t.t.t.t.t.t.t v 1.b l.t.t.t.t.t.t.t.t.t.t.t.t.t.t.Z Y.b.b W j.t.t.p U 2.b k h.t.t.t.t.t.t.t.t.t.t.t.t.t.t.t.t.t.t.t.t.t.t.t.t.t",
".t.t.t.t.t.t k.$ ~.t.t.t.t.t.t.t.t.t.t.t.t.t.t z.o.= 8.t.t.t.t.t ~ ; 9 !.t.t.t.t.t.t.t.t.t.t.t.t.t.t.t.t.t.t.t.t.t.t.t.t.t.t.t.t",
".t.t.t.t.t.t 5 E.t.t.t.t.t.t.t.t.t.t.t.t.t.t =.8 +.G.t.t.t.t N.q > ).t.t.t.t.t.t.t.t.t.t.t.t.t.t.t.t.t.t.t.t.t.t.t.t.t.t.t.t.t.t",
".t.t.t.t.j.-.T.t.t.t.t.t.t.t.t.t.t.t.t.m E.b @ I Z Z Z Z Z q a N.g.t.t.t.t.t.t.t.t.t.t.t.t.t.t.t.t.t.t.t.t.t.t.t.t.t.t.t.t.t.t.t",
".t.t.t o >.!.t.t.t.t.t.t.t.t.t.t h # # 9.:.t.E.5.9.9.9.9 C.,.a.t.t.t.t.t.t.t.t.t.t.t.t.t.t.t.t.t.t.t.t.t.t.t.t.t.t.t.t.t.t.t.t.t",
".t.t & - !.t.t.t.t.t.t.t.t.v q q 0.... V.t E ,.l.t.t.t.t I...$.t.t.t.t.t.t.t.t.t.t.t.t.t.t.t.t.t.t.t.t.t.t.t.t.t.t.t.t.t.t.t.t.t",
".u % [.p.t.t.t h.g.g P.b.b.y P P L.t.t.t.G J @.t.t.t.t.t.t.t x.a.t.t.t.t.t.t.t.t.t.t.t.t.t.t.t.t.t.t.t.t.t.t.t.t.t.t.t.t.t.t.t.t",
".E.q.~.a M.~.~ |.f.f q.t.t.t.t.t.t.t.t.t { w.t.t.t.t.t.t.t.t.Z.<.B.t.t.t.t.t.t.t.t.t.t.t.t.t.t.t.t.t.t.t.t.t.t.t.t.t.t.t.t.t.t.t",
".E.b 1.*.* 1 1 ].t.t.t.t.t.t.t.t.t.S.*.*.3 w.t.t.t.t.t.t.t.t.t.I.* b.t.t.t.t.t.t.t.t.t.t.t.t.t.t.t.t.t.t.t.t.t.t.t.t.t.t.t.t.t.t",
".7.G.t.C.K.t.t.t.t.t.t.t.t.t Q.s.s r.^.^.x.@.!.t.t.t.t.t.t.t.t.t H.4.t.t.t.t.t.t.t.t.t.t.t.t.t.t.t.t.t.t.t.t.t.t.t.t.t.t.t.t.t.t",
".w M.0.Z.t.V L L L L ..b.b.b 3.j.j l.t.t.t +. .J.t.t.t.t.t.t.t.t.t.N.3.m.t.t.t.t.t.t.t.t.t.t.t.t.t.t.t.t.t.t.t.t.t.t.t.t.t.t.t.t",
".S.= C >.  3 w w w w.#.t.t.t.t.t.t.t.t.t.t.t % 0 ^.t.t.t.t.t.t.t.t.t.L < M.t.t.t.t.t.t.t.t.t.t.t.t.t.t.t.t.t.t.t.t.t.t.t.t.t.t.t",
".t.J $ $ $ D.t.t.t.t.t.t.t.t.t.t.t.t.t.t.t.t.t M.w.t.t.t.t.t.t.t.t.t.t P 0 g.t.t.t.t.t.t.t.t.t.t.t.t.t.t.t.t.t.t.t.t.t.t.t.t.t.t",
".t.t.t.t.t.t.t.t.t.t.t.t.t.t.t.t.t.t.t.t.t.t.t h ' } M.t.t.t.t.t.t.t.t.t M y.l.t.t.t.t.t.t.t.t.t.t.t.t.t.t.t.t.t.t.t.t.t.t.t.t.t",
".t.t.t.t.t.t.t.t.t.t.t.t.t.t.t.t.t.t.t.t.t.t.t.t.t [ a W.t.t.t.t.t.t.t.t.t.G 3 N.t.t.t.t.t.t.t.t.t.t.t.t.t.t.t.t.t.t.t.t.t.t.t.t",
".t.t.t.t.t.t.t.t.t.t.t.t.t.t.t.t.t.t.t.t.t.t.t.t.t.t.p.z.t.t.t.t.t.t.t.t.t.t I.; c.t.t.t.t.t.t.t.t.t.t.t.t.t.t.t.t.t.t.t.t.t.t.t",
".t.t.t.t.t.t.t.t.t.t.t.t.t.t.t.t.t.t.t.t.t.t.t.t.t.t g # * g.t.t.t.t.t.t.t.t.t D.6 h.t.t.t.t.t.t.t.t.t.t.t.t.t.t.t.t.t.t.t.t.t.t",
".t.t.t.t.t.t.t.t.t.t.t.t.t.t.t.t.t.t.t.t.t.t.t.t.t.t.t.t.$.(.t.t.t.t.t.t.t.t.t.t S i.t.t.t.t.t.t.t.t.t.t.t.t.t.t.t.t.t.t.t.t.t.t",
".t.t.t.t.t.t.t.t.t.t.t.t.t.t.t.t.t.t.t.t.t.t.t.t.t.t.t.t W.& &.t.t.t.t.t.t.t.t.t.v.= P.t.t.t.t.t.t.t.t.t.t.t.t.t.t.t.t.t.t.t.t.t",
".t.t.t.t.t.t.t.t.t.t.t.t.t.t.t.t.t.t.t.t.t.t.t.t.t.t.t.t.t U $.X.t.t.t.t.t.t.t.t.t.V.> Z.t.t.t.t.t.t.t.t.t.t.t.t.t.t.t.t.t.t.t.t",
".t.t.t.t.t.t.t.t.t.t.t.t.t.t.t.t.t.t.t.t.t.t.t.t.t.t.t.t.t.t h | #.t.t.t.t.t.t.t.t.t z.6 V.t.t.t.t.t.t.t.t.t.t.t.t.t.t.t.t.t.t.t",
".t.t.t.t.t.t.t.t.t.t.t.t.t.t.t.t.t.t.t.t.t.t.t.t.t.t.t.t.t.t.t E.$ ].t.t.t.t.t.t.t.t.t.d 7.P.t.t.t.t.t.t.t.t.t.t.t.t.t.t.t.t.t.t",
".t.t.t.t.t.t.t.t.t.t.t.t.t.t.t.t.t.t.t.t.t.t.t.t.t.t.t.t.t.t.t.t.W & -.t.t.t.t.t.t.t.t.t N 1 G.t.t.t.t.t.t.t.t.t.t.t.t.t.t.t.t.t",
".t.t.t.t.t.t.t.t.t.t.t.t.t.t.t.t.t.t.t.t.t.t.t.t.t.t.t.t.t.t.t.t.t.v a b.p.t.t.t.t.t.t.t.t.n t n.t.t.t.t.t.t.t.t.t.t.t.t.t.t.t.t",
".t.t.t.t.t.t.t.t.t.t.t.t.t.t.t.t.t.t.t.t.t.t.t.t.t.t.t.t.t.t.t.t.t.t.T.r } g.t.t.t.t.t.t.t.t.t e K.t.t.t.t.t.t.t.t.t.t.t.t.t.t.t",
".t.t.t.t.t.t.t.t.t.t.t.t.t.t.t.t.t.t.t.t.t.t.t.t.t.t.t.t.t.t.t.t.t.t.t.t.c.u.t.t.t.t.t.t.t.t.t.N < L.t.t.t.t.t.t.t.t.t.t.t.t.t.t",
".t.t.t.t.t.t.t.t.t.t.t.t.t.t.t.t.t.t.t.t.t.t.t.t.t.t.t.t.t.t.t.t.t.t.t.t.L.3.t.t.t.t.t.t.t.t.t.t.B.2.m.t.t.t.t.t.t.t.t.t.t.t.t.t",
".t.t.t.t.t.t.t.t.t.t.t.t.t.t.t.t.t.t.t.t.t.t.t.t.t.t.t.t.t.t.t.t.t.t.t.t.t K 4.v.t.t.t.t.t.t.t.t.t g.c.t.t.t.t.t.t.t.t.t.t.t.t.t",
".t.t.t.t.t.t.t.t.t.t.t.t.t.t.t.t.t.t.t.t.t.t.t.t.t.t.t.t.t.t.t.t.t.t.t.t.t.t W.% z.t.t.t.t.t.t.t.t.t.$.(.t.t.t.t.t.t.t.t.t.t.t.t",
".t.t.t.t.t.t.t.t.t.t.t.t.t.t.t.t.t.t.t.t.t.t.t.t.t.t.t.t.t.t.t.t.t.t.t.t.t.t.t.R.<.t.t.t.t.t.t.t.t.t l.O./.t.t.t.t.t.t.t.t.t.t.t",
".t.t.t.t.t.t.t.t.t.t.t.t.t.t.t.t.t.t.t.t.t.t.t.t.t.t.t.t.t.t.t.t.t.t.t.t.t.t.t.t K 6.l.t.t.t.t.t.t.t.t.d.%.!.t.t.t.t.t.t.t.t.t.t",
".t.t.t.t.t.t.t.t.t.t.t.t.t.t.t.t.t.t.t.t.t.t.t.t.t.t.t.t.t.t.t.t.t.t.t.t.t.t.t.t.t R.$.x.t.t.t.t.t.t.t.t.t 1 ~.t.t.t.t.t.t.t.t.t",
".t.t.t.t.t.t.t.t.t.t.t.t.t.t.t.t.t.t.t.t.t.t.t.t.t.t.t.t.t.t.t.t.t.t.t.t.t.t.t.t.t.t E.:.t.t.t.t.t.t.t.t.t h : ..t.t.t.t.t.t.t.t",
".t.t.t.t.t.t.t.t.t.t.t.t.t.t.t.t.t.t.t.t.t.t.t.t.t.t.t.t.t.t.t.t.t.t.t.t.t.t.t.t.t.t.t K.1 k.t.t.t.t.t.t.t.t.j.#.! g.t.t.t.t.t.t",
".t.t.t.t.t.t.t.t.t.t.t.t.t.t.t.t.t.t.t.t.t.t.t.t.t.t.t.t.t.t.t.t.t.t.t.t.t.t.t.t.t.t.t.t.U < b.t.t.t.t.t.t.t.t.t.- Q.t.t.t.t.t.t",
".t.t.t.t.t.t.t.t.t.t.t.t.t.t.t.t.t.t.t.t.t.t.t.t.t.t.t.t.t.t.t.t.t.t.t.t.t.t.t.t.t.t.t.t.t.Q.=.p.t.t.t.t.t.t.t.t.t.b.t.t.t.t.t.t",
".t.t.t.t.t.t.t.t.t.t.t.t.t.t.t.t.t.t.t.t.t.t.t.t.t.t.t.t.t.t.t.t.t.t.t.t.t.t.t.t.t.t.t.t.t.t P q.t.t.t.t.t.t.t.t.t O.h ~.t.t.t.t",
".t.t.t.t.t.t.t.t.t.t.t.t.t.t.t.t.t.t.t.t.t.t.t.t.t.t.t.t.t.t.t.t.t.t.t.t.t.t.t.t.t.t.t.t.t.t.t Y.<.t.t.t.t.t.t.t.t g.d.7.S.t.t.t",
".t.t.t.t.t.t.t.t.t.t.t.t.t.t.t.t.t.t.t.t.t.t.t.t.t.t.t.t.t.t.t.t.t.t.t.t.t.t.t.t.t.t.t.t.t.t.t V 2 D.t.t.t.t.t.t.t.t.t $ ;./.t.t",
".t.t.t.t.t.t.t.t.t.t.t.t.t.t.t.t.t.t.t.t.t.t.t.t.t.t.t.t.t.t.t.t.t.t.t.t.t.t.t.t.t.t.t.t.t.t.t.t.G 7 b.t.t.t.t.t.t.t.t.t.(.O (.t",
".t.t.t.t.t.t.t.t.t.t.t.t.t.t.t.t.t.t.t.t.t.t.t.t.t.t.t.t.t.t.t.t.t.t.t.t.t.t.t.t.t.t.t.t.t.t.t.t.t b.7 b.t.t.t.t.t.t.t.t.t b w /",
".t.t.t.t.t.t.t.t.t.t.t.t.t.t.t.t.t.t.t.t.t.t.t.t.t.t.t.t.t.t.t.t.t.t.t.t.t.t.t.t.t.t.t.t.t.t.t.t.t.t b 7.G.t.t.t.t.t.t.R @.O.F  ",
".t.t.t.t.t.t.t.t.t.t.t.t.t.t.t.t.t.t.t.t.t.t.t.t.t.t.t.t.t.t.t.t.t.t.t.t.t.t.t.t.t.t.t.t.t.t.t.t.t.t.t D 2 V.t.t.t.B 0.F.=.$ B.<",
".t.t.t.t.t.t.t.t.t.t.t.t.t.t.t.t.t.t.t.t.t.t.t.t.t.t.t.t.t.t.t.t.t.t.t.t.t.t.t.t.t.t.t.t.t.t.t.t.t.t.t.t V i.a.t.a.M p I.A F., z",
".t.t.t.t.t.t.t.t.t.t.t.t.t.t.t.t.t.t.t.t.t.t.t.t.t.t.t.t.t.t.t.t.t.t.t.t.t.t.t.t.t.t.t.t.t.t.t.t.t.t.t.t.t.a.6.! m.w.!.! s 1.t.t",
".t.t.t.t.t.t.t.t.t.t.t.t.t.t.t.t.t.t.t.t.t.t.t.t.t.t.t.t.t.t.t.t.t.t.t.t.t.t.t.t.t.t.t.t.t.t.t.t.t.t.t.t.t.t.S.k  .; 2 2.v.t.t.t",
".t.t.t.t.t.t.t.t.t.t.t.t.t.t.t.t.t.t.t.t.t.t.t.t.t.t.t.t.t.t.t.t.t.t.t.t.t.t.t.t.t.t.t.t.t.t.t.t.t.t.t.t.t.t.t.&   A.t.t.t.t.t.t"
};
