/* XPM */
static char *hamer-r[] = {
/* width height ncolors chars_per_pixel */
"64 56 165 2",
/* colors */
"   c #000000",
" . c #B1B1B1",
" X c #AFAFAF",
" o c #ADADAD",
" O c #A7A7A7",
" + c #A5A5A5",
" @ c #A3A3A3",
" # c #A1A1A1",
" $ c #9F9F9F",
" % c #9D9D9D",
" & c #9B9B9B",
" * c #999999",
" = c #979797",
" - c #939393",
" ; c #919191",
" : c #8F8F8F",
" > c #8D8D8D",
" , c #8B8B8B",
" < c #898989",
" 1 c #878787",
" 2 c #858585",
" 3 c #838383",
" 4 c #818181",
" 5 c #7F7F7F",
" 6 c #7D7D7D",
" 7 c #7B7B7B",
" 8 c #797979",
" 9 c #777777",
" 0 c #757575",
" q c #737373",
" w c #717171",
" e c #6F6F6F",
" r c #6B6B6B",
" t c #696969",
" y c #676767",
" u c #656565",
" i c #5F5F5F",
" p c #5D5D5D",
" a c #595959",
" s c #575757",
" d c #555555",
" f c #515151",
" g c #4F4F4F",
" h c #4D4D4D",
" j c #FEFEFE",
" k c #4B4B4B",
" l c #FCFCFC",
" z c #FAFAFA",
" x c #474747",
" c c #F8F8F8",
" v c #454545",
" b c #F6F6F6",
" n c #F4F4F4",
" m c #414141",
" M c #F2F2F2",
" N c #F0F0F0",
" B c #EEEEEE",
" V c #3B3B3B",
" C c #ECECEC",
" Z c #E8E8E8",
" A c #E6E6E6",
" S c #E4E4E4",
" D c #E2E2E2",
" F c #E0E0E0",
" G c #DEDEDE",
" H c #DCDCDC",
" J c #DADADA",
" K c #252525",
" L c #D6D6D6",
" P c #D4D4D4",
" I c #D2D2D2",
" U c #1F1F1F",
" Y c #D0D0D0",
" T c #CECECE",
" R c #CACACA",
" E c #C6C6C6",
" W c #C4C4C4",
" Q c #111111",
" ! c #C2C2C2",
" ~ c #C0C0C0",
" ^ c #BEBEBE",
" / c #0B0B0B",
" ( c #BCBCBC",
" ) c #BABABA",
" _ c #B8B8B8",
" ` c #B6B6B6",
" ' c #B4B4B4",
" ] c #B2B2B2",
" [ c #AEAEAE",
" { c #ACACAC",
" } c #AAAAAA",
" | c #A6A6A6",
".  c #A4A4A4",
".. c #A2A2A2",
".X c #A0A0A0",
".o c #9E9E9E",
".O c #9C9C9C",
".+ c #9A9A9A",
".@ c #989898",
".# c #969696",
".$ c #949494",
".% c #929292",
".& c #8E8E8E",
".* c #8C8C8C",
".= c #8A8A8A",
".- c #888888",
".; c #868686",
".: c #848484",
".> c #828282",
"., c #808080",
".< c #7E7E7E",
".1 c #7C7C7C",
".2 c #7A7A7A",
".3 c #787878",
".4 c #747474",
".5 c #727272",
".6 c #707070",
".7 c #6C6C6C",
".8 c #6A6A6A",
".9 c #686868",
".0 c #626262",
".q c #606060",
".w c #5E5E5E",
".e c #545454",
".r c #525252",
".t c #505050",
".y c #4E4E4E",
".u c #FFFFFF",
".i c #FDFDFD",
".p c #FBFBFB",
".a c #484848",
".s c #F9F9F9",
".d c #F7F7F7",
".f c #424242",
".g c #F3F3F3",
".h c #F1F1F1",
".j c #3E3E3E",
".k c #EFEFEF",
".l c #EDEDED",
".z c #E9E9E9",
".x c #E7E7E7",
".c c #E5E5E5",
".v c #E3E3E3",
".b c #303030",
".n c #E1E1E1",
".m c #DFDFDF",
".M c #DDDDDD",
".N c #DBDBDB",
".B c #D9D9D9",
".V c #D7D7D7",
".C c #242424",
".Z c #D5D5D5",
".A c #D3D3D3",
".S c #CFCFCF",
".D c #CDCDCD",
".F c #C9C9C9",
".G c #C7C7C7",
".H c #C5C5C5",
".J c #C3C3C3",
".K c #C1C1C1",
".L c #BFBFBF",
".P c #BDBDBD",
".I c #B7B7B7",
".U c #B5B5B5",
".Y c #B3B3B3",
/* pixels */
".u.u.u.u.u.u.u.u.u.u.u.u.u.u.u.u.u.u.u.u.u.u.u.u.u.u.u.u.u.u.u.S.S.u.u.u.u.u.u.u.u.u.u.u.u.u.u.u.u.u.u.u.u.u.u.u.u.u.u.u.u.u.u.u",
".u.u.u.u.u.u.u.u.u.u.u.u.u.u.u.u.u.u.u.u.u.u.u.u.u.u.u.u.u.n 6 4 4 ~.u.u.u.u.u.u.u.u.u.u.u.u.u.u.u.u.u.u.u.u.u.u.u.u.u.u.u.u.u.u",
".u.u.u.u.u.u.u.u.u.u.u.u.u.u.u.u.u.u.u.u.u.u.u.u.u.p.s @ m.q W N N 4.S.p.u.u.u.u.u.u.u.u.u.u.u.u.u.u.u.u.u.u.u.u.u.u.u.u.u.u.u.u",
".u.u.u.u.u.u.u.u.u.u.u.u.u.u.u.u.u.u.u.u.u.u.u M _ t x %.u.u.u.u.u.u w y G.u.u.u.u.u.u.u.u.u.u.u.u.u.u.u.u.u.u.u.u.u.u.u.u.u.u.u",
".u.u.u.u.u.u.u.u.u.u.u.u.u.u.u.u.u.u.u.u.u E 9.2.-.N.u.u.u.u.u.u.u.u.u G 5.v.u.u.u.u.u.u.u.u.u.u.u.u.u.u.u.u.u.u.u.u.u.u.u.u.u.u",
".u.u.u.u.u.u.u.u.u.u.u.u.u.u.u.u.u.i.g.g f 7 R P.u.u.u.u.u.u.u.u.u.u.u.u.v p.d.u.u.u.u.u.u.u.u.u.u.u.u.u.u.u.u.u.u.u.u.u.u.u.u.u",
".u.u.u.u.u.u.u.u.u.u.u.u.u.u.u D ].  h h.k.u.u.u.u.u.u.u.u.u.u.u.u.u.u.z ].w.y.u.u.u.u.u.u.u.u.u.u.u.u.u.u.u.u.u.u.u.u.u.u.u.u.u",
".u.u.u.u.u.u.u.u.u.u.u.u.u.u 2.1.&.o.u.u.u.u.u.u.u.u.u.u.u.u.u.u.u.u.% 8.&.N.y.u.u.u.u.u.u.u.u.u.u.u.u.u.u.u.u.u.u.u.u.u.u.u.u.u",
".u.u.u.u.u.u.u.u.u.u.u.i . m ( D.u.u.u.u.u.u.u.u.u.u.u.u.u.u.u M.K m X.M.u.i $. .u.u.u.u.u.u.u.u.u.u.u.u.u.u.u.u.u.u.u.u.u.u.u.u",
".u.u.u.u.u.u.u.u.u.u.u . :.u.u.u.u.u.u.u.u.u.u.u.u.u.u.u.u C {.8 5.u.u.u.u.P ;.Y.u.u.u.u.u.u.u.u.u.u.u.u.u.u.u.u.u.u.u.u.u.u.u.u",
".u.u.u.u.u.u.u.u.u.S r =.u.u.u.u.u.u.u.u.u.u.u.u.u.u.u ) r 0.$ S.u.u.u.Z r.*.U.u.u.u.u.u.u.u.u.u.u.u.u.u.u.u.u.u.u.u.u.u.u.u.u.u",
".u.u.u.u.u.u.u.u F.5 L c.u.u.u.u.u.u.u.u.u.u.u.u n.x.a 1 L F.u.u.s.x y r L.d.u.u.u.u.u.u.u.u.u.u.u.u.u.u.u.u.u.u.u.u.u.u.u.u.u.u",
".u.u.u.u.u.u.u.D q.u.u.u.u.u.u.u.u.u.u.u.u.u.u {.: a c.u.u.u.u.P.% a.B.u.u.u.u.u.u.u.u.u.u.u.u.u.u.u.u.u.u.u.u.u.u.u.u.u.u.u.u.u",
".u.u.u.u.u.u Y 3 C.u.u.u.u.u.u.u.u.u.u.u.u ^ u.#.G.u.u.u.u.N u > '.u.u.u.u.u.u.u.u.u.u.u.u.u.u.u.u.u.u.u.u.u.u.u.u.u.u.u.u.u.u.u",
".u.u.u.u.k J.6 N.u.u.u.u.u.u.u.u.u.p.n.n.t.> H.J m m m m m.a.D b.u.u.u.u.u.u.u.u.u.u.u.u.u.u.u.u.u.u.u.u.u.u.u.u.u.u.u.u.u.u.u.u",
".u.u.u S 6 y.u.u.u.u.u.u.u.u n.X.X = i i N.u.L 4.u.u.u.u.u.0 5.x.u.u.u.u.u.u.u.u.u.u.u.u.u.u.u.u.u.u.u.u.u.u.u.u.u.u.u.u.u.u.u.u",
".u.u.p w.A.u.u.u.u.u.u N i i y.X.X o.u.u.u ( U B.u.u.u.u.u.u.> ^.u.u.u.u.u.u.u.u.u.u.u.u.u.u.u.u.u.u.u.u.u.u.u.u.u.u.u.u.u.u.u.u",
".u.u d E B.i.N.N Y m m.t D D.c.u.u.u.u.u.s 5 *.i.u.u.u.u.u.u.h.8 S.u.u.u.u.u.u.u.u.u.u.u.u.u.u.u.u.u.u.u.u.u.u.u.u.u.u.u.u.u.u.u",
".u.u.j u 4.@ u u.6.u.u.u.u.u.u.u.u.u.V.+ ; V {.u.u.u.u.u.u.u.u.u q T.u.u.u.u.u.u.u.u.u.u.u.u.u.u.u.u.u.u.u.u.u.u.u.u.u.u.u.u.u.u",
".u }.#.u 9 1.u.u.u.u.u.u.u.u.u.K a a.3 |.U J.5 n.u.u.u.u.u.u.u.u Z.<.B.u.u.u.u.u.u.u.u.u.u.u.u.u.u.u.u.u.u.u.u.u.u.u.u.u.u.u.u.u",
".u.% [ ^ 1 z M.Z.Z.Z.Z.G m m m 5 Z Z.h.u.u.u e.F Z.u.u.u.u.u.u.u.u.g r.n.u.u.u.u.u.u.u.u.u.u.u.u.u.u.u.u.u.u.u.u.u.u.u.u.u.u.u.u",
".u.u.& r g.$.- r r r r 8.u.u.u.u.u.u.u.u.u.u.u 0 6.m.u.u.u.u.u.u.u.u.p 9.D.u.u.u.u.u.u.u.u.u.u.u.u.u.u.u.u.u.u.u.u.u.u.u.u.u.u.u",
".u.u.i { { {.H.u.u.u.u.u.u.u.u.u.u.u.u.u.u.u.u.u.& ].u.u.u.u.u.u.u.u.u Z.1.N.u.u.u.u.u.u.u.u.u.u.u.u.u.u.u.u.u.u.u.u.u.u.u.u.u.u",
".u.u.u.u.u.u.u.u.u.u.u.u.u.u.u.u.u.u.u.u.u.u.u.u.d 0.F.c.u.u.u.u.u.u.u.u b.7 G.u.u.u.u.u.u.u.u.u.u.u.u.u.u.u.u.u.u.u.u.u.u.u.u.u",
".u.u.u.u.u.u.u.u.u.u.u.u.u.u.u.u.u.u.u.u.u.u.u.u.u.u 9 5 F.u.u.u.u.u.u.u.u c.2.D.u.u.u.u.u.u.u.u.u.u.u.u.u.u.u.u.u.u.u.u.u.u.u.u",
".u.u.u.u.u.u.u.u.u.u.u.u.u.u.u.u.u.u.u.u.u.u.u.u.u.u.u.- _.u.u.u.u.u.u.u.u.u Z 8 G.u.u.u.u.u.u.u.u.u.u.u.u.u.u.u.u.u.u.u.u.u.u.u",
".u.u.u.u.u.u.u.u.u.u.u.u.u.u.u.u.u.u.u.u.u.u.u.u.u.u.u z q.A.u.u.u.u.u.u.u.u.u.s.7.N.u.u.u.u.u.u.u.u.u.u.u.u.u.u.u.u.u.u.u.u.u.u",
".u.u.u.u.u.u.u.u.u.u.u.u.u.u.u.u.u.u.u.u.u.u.u.u.u.u.u.u.u m.u.u.u.u.u.u.u.u.u.u.l.e.u.u.u.u.u.u.u.u.u.u.u.u.u.u.u.u.u.u.u.u.u.u",
".u.u.u.u.u.u.u.u.u.u.u.u.u.u.u.u.u.u.u.u.u.u.u.u.u.u.u.u.u $ x Y.u.u.u.u.u.u.u.u z - ].u.u.u.u.u.u.u.u.u.u.u.u.u.u.u.u.u.u.u.u.u",
".u.u.u.u.u.u.u.u.u.u.u.u.u.u.u.u.u.u.u.u.u.u.u.u.u.u.u.u.u j z.6 I.u.u.u.u.u.u.u.u.i.& '.u.u.u.u.u.u.u.u.u.u.u.u.u.u.u.u.u.u.u.u",
".u.u.u.u.u.u.u.u.u.u.u.u.u.u.u.u.u.u.u.u.u.u.u.u.u.u.u.u.u.u.u.u.f.u.u.u.u.u.u.u.u.u.u.% [.u.u.u.u.u.u.u.u.u.u.u.u.u.u.u.u.u.u.u",
".u.u.u.u.u.u.u.u.u.u.u.u.u.u.u.u.u.u.u.u.u.u.u.u.u.u.u.u.u.u.u.u.o m.A.u.u.u.u.u.u.u.u.s.% '.u.u.u.u.u.u.u.u.u.u.u.u.u.u.u.u.u.u",
".u.u.u.u.u.u.u.u.u.u.u.u.u.u.u.u.u.u.u.u.u.u.u.u.u.u.u.u.u.u.u.u.u.u m.u.u.u.u.u.u.u.u.u.u.* '.u.u.u.u.u.u.u.u.u.u.u.u.u.u.u.u.u",
".u.u.u.u.u.u.u.u.u.u.u.u.u.u.u.u.u.u.u.u.u.u.u.u.u.u.u.u.u.u.u.u.u.u $.1 !.u.u.u.u.u.u.u.u.u - o.u.u.u.u.u.u.u.u.u.u.u.u.u.u.u.u",
".u.u.u.u.u.u.u.u.u.u.u.u.u.u.u.u.u.u.u.u.u.u.u.u.u.u.u.u.u.u.u.u.u.u j W.2 L.u.u.u.u.u.u.u.u c -.U j.u.u.u.u.u.u.u.u.u.u.u.u.u.u",
".u.u.u.u.u.u.u.u.u.u.u.u.u.u.u.u.u.u.u.u.u.u.u.u.u.u.u.u.u.u.u.u.u.u.u.u %. .u.u.u.u.u.u.u.u.u.u.*.U.u.u.u.u.u.u.u.u.u.u.u.u.u.u",
".u.u.u.u.u.u.u.u.u.u.u.u.u.u.u.u.u.u.u.u.u.u.u.u.u.u.u.u.u.u.u.u.u.u.u.u.u #.X.u.u.u.u.u.u.u.u.u.u.$ o.u.u.u.u.u.u.u.u.u.u.u.u.u",
".u.u.u.u.u.u.u.u.u.u.u.u.u.u.u.u.u.u.u.u.u.u.u.u.u.u.u.u.u.u.u.u.u.u.u.u.u l.X +.i.u.u.u.u.u.u.u.u H.9.p.u.u.u.u.u.u.u.u.u.u.u.u",
".u.u.u.u.u.u.u.u.u.u.u.u.u.u.u.u.u.u.u.u.u.u.u.u.u.u.u.u.u.u.u.u.u.u.u.u.u.u.u.O. .u.u.u.u.u.u.u.u.u _ : c.u.u.u.u.u.u.u.u.u.u.u",
".u.u.u.u.u.u.u.u.u.u.u.u.u.u.u.u.u.u.u.u.u.u.u.u.u.u.u.u.u.u.u.u.u.u.u.u.u.u.u.u # $.u.u.u.u.u.u.u.u.u ` ,.u.u.u.u.u.u.u.u.u.u.u",
".u.u.u.u.u.u.u.u.u.u.u.u.u.u.u.u.u.u.u.u.u.u.u.u.u.u.u.u.u.u.u.u.u.u.u.u.u.u.u.u l # + l.u.u.u.u.u.u.u.u (.=.s.u.u.u.u.u.u.u.u.u",
".u.u.u.u.u.u.u.u.u.u.u.u.u.u.u.u.u.u.u.u.u.u.u.u.u.u.u.u.u.u.u.u.u.u.u.u.u.u.u.u.u.u & +.u.u.u.u.u.u.u.u.u.I :.s.u.u.u.u.u.u.u.u",
".u.u.u.u.u.u.u.u.u.u.u.u.u.u.u.u.u.u.u.u.u.u.u.u.u.u.u.u.u.u.u.u.u.u.u.u.u.u.u.u.u.u.u...o.u.u.u.u.u.u.u.u.u.I <.u.u.u.u.u.u.u.u",
".u.u.u.u.u.u.u.u.u.u.u.u.u.u.u.u.u.u.u.u.u.u.u.u.u.u.u.u.u.u.u.u.u.u.u.u.u.u.u.u.u.u.u.p.. | l.u.u.u.u.u.u.u.u ( , c.u.u.u.u.u.u",
".u.u.u.u.u.u.u.u.u.u.u.u.u.u.u.u.u.u.u.u.u.u.u.u.u.u.u.u.u.u.u.u.u.u.u.u.u.u.u.u.u.u.u.u.u & +.u.u.u.u.u.u.u.u.u >.Y.u.u.u.u.u.u",
".u.u.u.u.u.u.u.u.u.u.u.u.u.u.u.u.u.u.u.u.u.u.u.u.u.u.u.u.u.u.u.u.u.u.u.u.u.u.u.u.u.u.u.u.u.u...o.u.u.u.u.u.u.u.u I.4 2.u.u.u.u.u",
".u.u.u.u.u.u.u.u.u.u.u.u.u.u.u.u.u.u.u.u.u.u.u.u.u.u.u.u.u.u.u.u.u.u.u.u.u.u.u.u.u.u.u.u.u.u.p = [.u.u.u.u.u.u.u.u A.U.=.u.u.u.u",
".u.u.u.u.u.u.u.u.u.u.u.u.u.u.u.u.u.u.u.u.u.u.u.u.u.u.u.u.u.u.u.u.u.u.u.u.u.u.u.u.u.u.u.u.u.u.u.J.- n.u.u.u.u.u.u.u.u.M.< $.i.u.u",
".u.u.u.u.u.u.u.u.u.u.u.u.u.u.u.u.u.u.u.u.u.u.u.u.u.u.u.u.u.u.u.u.u.u.u.u.u.u.u.u.u.u.u.u.u.u.u.u W 6.u.u.u.u.u.u.u.u.u.A # 2.u.u",
".u.u.u.u.u.u.u.u.u.u.u.u.u.u.u.u.u.u.u.u.u.u.u.u.u.u.u.u.u.u.u.u.u.u.u.u.u.u.u.u.u.u.u.u.u.u.u.u.u T.<.g.u.u.u.u.u.u.u.u.u * 7 b",
".u.u.u.u.u.u.u.u.u.u.u.u.u.u.u.u.u.u.u.u.u.u.u.u.u.u.u.u.u.u.u.u.u.u.u.u.u.u.u.u.u.u.u.u.u.u.u.u.u.u ! 1 b.u.u.u.u.u.z * * g  .L",
".u.u.u.u.u.u.u.u.u.u.u.u.u.u.u.u.u.u.u.u.u.u.u.u.u.u.u.u.u.u.u.u.u.u.u.u.u.u.u.u.u.u.u.u.u.u.u.u.u.u.u.H 7.u.u.u.u.= v.y O v.r.z",
".u.u.u.u.u.u.u.u.u.u.u.u.u.u.u.u.u.u.u.u.u.u.u.u.u.u.u.u.u.u.u.u.u.u.u.u.u.u.u.u.u.u.u.u.u.u.u.u.u.u.u.u T 5.h.d.,.C F.m k s.g.u",
".u.u.u.u.u.u.u.u.u.u.u.u.u.u.u.u.u.u.u.u.u.u.u.u.u.u.u.u.u.u.u.u.u.u.u.u.u.u.u.u.u.u.u.u.u.u.u.u.u.u.u.u.u.K.; 9.b 1 - 4.7 l.u.u",
".u.u.u.u.u.u.u.u.u.u.u.u.u.u.u.u.u.u.u.u.u.u.u.u.u.u.u.u.u.u.u.u.u.u.u.u.u.u.u.u.u.u.u.u.u.u.u.u.u.u.u.u.u.u.G / K.% o.A.u.u.u.u",
".u.u.u.u.u.u.u.u.u.u.u.u.u.u.u.u.u.u.u.u.u.u.u.u.u.u.u.u.u.u.u.u.u.u.u.u.u.u.u.u.u.u.u.u.u.u.u.u.u.u.u.u.u.u.u Q  .Y.u.u.u.u.u.u"
};
