/* XPM */
static char *hark-r[] = {
/* width height ncolors chars_per_pixel */
"64 52 67 1",
/* colors */
"  c #000000",
". c #ADADAD",
"X c #ABABAB",
"o c #A9A9A9",
"O c #A7A7A7",
"+ c #A5A5A5",
"@ c #919191",
"# c #8F8F8F",
"$ c #8D8D8D",
"% c #8B8B8B",
"& c #737373",
"* c #717171",
"= c #6F6F6F",
"- c #6D6D6D",
"; c #575757",
": c #555555",
"> c #535353",
", c #FEFEFE",
"< c #FCFCFC",
"1 c #FAFAFA",
"2 c #3D3D3D",
"3 c #3B3B3B",
"4 c #353535",
"5 c #E2E2E2",
"6 c #E0E0E0",
"7 c #1F1F1F",
"8 c #1D1D1D",
"9 c #CACACA",
"0 c #C8C8C8",
"q c #C6C6C6",
"w c #C4C4C4",
"e c #C2C2C2",
"r c #030303",
"t c #010101",
"y c #AEAEAE",
"u c #AAAAAA",
"i c #A6A6A6",
"p c #929292",
"a c #909090",
"s c #8E8E8E",
"d c #8C8C8C",
"f c #8A8A8A",
"g c #787878",
"h c #747474",
"j c #727272",
"k c #707070",
"l c #5A5A5A",
"z c #585858",
"x c #565656",
"c c #545454",
"v c #525252",
"b c #FFFFFF",
"n c #FDFDFD",
"m c #3C3C3C",
"M c #3A3A3A",
"N c #E5E5E5",
"B c #E3E3E3",
"V c #E1E1E1",
"C c #202020",
"Z c #1E1E1E",
"A c #1C1C1C",
"S c #C9C9C9",
"D c #C7C7C7",
"F c #C5C5C5",
"G c #C3C3C3",
"H c #040404",
"J c #020202",
/* pixels */
"bbbqqbbbbbbbbbbbbbbbbbbbbbbbbbbbbbbbbbbbbbbbbbbbbbbbbbbbbbbbbbbb",
"bb:AsDbbbbbbbbbbbbbbbbbbbbbbbbbbbbbbbbbbbbbbbbbbbbbbbbbbbbbbbbbb",
"bb*Bbsqbbbbbbbbbbbbbbbbbbbbbbbbbbbbbbbbbbbbbbbbbbbbbbbbbbbbbbbbb",
"bbB*bbsDbbbbbbbbbbbbbbbbbbbbbbbbbbbbbbbbbbbbbbbbbbbbbbbbbbbbbbbb",
"bbbb*BbsuBbbbbbbbbbbbbbbbbbbbbbbbbbbbbbbbbbbbbbbbbbbbbbbbbbbbbbb",
"bbbbB*bbujbbbbbbbbbbbbbbbbbbbbbbbbbbbbbbbbbbbbbbbbbbbbbbbbbbbbbb",
"bbbbbb*ubbjBbbbbbbbbbbbbbbbbbbbbbbbbbbbbbbbbbbbbbbbbbbbbbbbbbbbb",
"bbbbbbBusb5jbbbbbbbbbbbbbbbbbbbbbbbbbbbbbbbbbbbbbbbbbbbbbbbbbbbb",
"bbbbbbbbqsbbjBbbbbbbbbbbbbbbbbbbbbbbbbbbbbbbbbbbbbbbbbbbbbbbbbbb",
"bbbbbbbbbDsbBj,bbbbbbbbbbbbbbbbbbbbbbbbbbbbbbbbbbbbbbbbbbbbbbbbb",
"bbbbbbbbbbqsb,jBbbbbbbbbbbbbbbbbbbbbbbbbbbbbbbbbbbbbbbbbbbbbbbbb",
"bbbbbbbbbbbDsbBj,bbbbbbbbbbbbbbbbbbbbbbbbbbbbbbbbbbbbbbbbbbbbbbb",
"bbbbbbbbbbbbqsb,xsbbbbbbbbbbbbbbbbbbbbbbbbbbbbbbbbbbbbbbbbbbbbbb",
"bbbbbbbbbbbbbqsbbqsbbbbbbbbbbbbbbbbbbbbbbbbbbbbbbbbbbbbbbbbbbbbb",
"bbbbbbbbbbbbbbqsbbqsbbbbbbbbbbbbbbbbbbbbbbbbbbbbbbbbbbbbbbbbbbbb",
"bbbbbbbbbbbbbbbqsbbqsbbbbbbbbbbbbbbbbbbbbbbbbbbbbbbbbbbbbbbbbbbb",
"bbbbbbbbbbbbbbbbqsqbqsbbbbbbbbbbbbbbbbbbbbbbbbbbbbbbbbbbbbbbbbbb",
"bbbbbbbbbbbbbbbbbDsqbqsbbbbbbbbbbbbbbbbbbbbbbbbbbbbbbbbbbbbbbbbb",
"bbbbbbbbbbbbbbbbbbbsqbqsbbbbbbbbbbbbbbbbbbbbbbbbbbbbbbbbbbbbbbbb",
"bbbbbbbbbbbbbbbbbbbbsDbqs,bbbbbbbbbbbbbbbbbbbbbbbbbbbbbbbbbbbbbb",
"bbbbbbbbbbbbbbbbbbbbbsqbq;qbbbbbbbbbbbbbbbbbbbbbbbbbbbbbbbbbbbbb",
"bbbbbbbbbbbbbbbbbbbbbbsDb,sDbbbbbbbbbbbbbbbbbbbbbbbbbbbbbbbbbbbb",
"bbbbbbbbbbbbbbbbbbbbbbbsqbbsqbbbbbbbbbbbbbbbbbbbbbbbbbbbbbbbbbbb",
"bbbbbbbbbbbbbbbbbbbbbbbbsDb,sDbbbbbbbbbbbbbbbbbbbbbbbbbbbbbbbbbb",
"bbbbbbbbbbbbbbbbbbbbbbbbbsqbbsqbbbbbbbbbbbbbbbbbbbbbbbbbbbbbbbbb",
"bbbbbbbbbbbbbbbbbbbbbbbbb,sq,,sqbbbbbbbbbbbbbbbbbbbbbbbbbbbbbbbb",
"bbbbbbbbbbbbbbbbbbbbbbbbbbbs&Bbsqbbbbbbbbbbbbbbbbbbbbbbbbbbbbbbb",
"bbbbbbbbbbbbbbbbbbbbbbbbbbbbB&,,sq,bbbbbbbbbbbbbbbbbbbbbbbbbbbbb",
"bbbbbbbbbbbbbbbbbbbbbbbbbbbbb,&Bbs&Bbbbbbbbbbbbbbbbbbbbbbbbbbbbb",
"bbbbbbbbbbbbbbbbbbbbbbbbbbbbbbB&,bB&,bbbbbbbbbbbbbbbbbbbbbbbbbbb",
"bbbbbbbbbbbbbbbbbbbbbbbbbbbbbbb,&Bb,&Bbbbbbbbbbbbbbbbbbbbbbbbbbb",
"bbbbbbbbbbbbbbbbbbbbbbbbbbbbbbbbB&,bB&,bbbbbbbbbbbbbbbbbbbbbbbbb",
"bbbbbbbbbbbbbbbbbbbbbbbbbbbbbbbbb,&Bbn&Bbbbbbbbbbbbbbbbbbbbbbbbb",
"bbbbbbbbbbbbbbbbbbbbbbbbbbbbbbbbbbB&,bB&,bbbbbbbbbbbbbbbbbbbbbbb",
"bbbbbbbbbbbbbbbbbbbbbbbbbbbbbbbbbbb,&Bbn&Bbbbbbbbbbbbbbbbbbbbbbb",
"bbbbbbbbbbbbbbbbbbbbbbbbbbbbbbbbbbbbB&n,B*#,bbbbbbbbbbbbbbbbbbbb",
"bbbbbbbbbbbbbbbbbbbbbbbbbbbbbbbbbbbbbn;#bbF#bbbbbbbbbbbbbbbbbbbb",
"bbbbbbbbbbbbbbbbbbbbbbbbbbbbbbbbbbbbbbbq#,bq#,bbbbbbbbbbbbbbbbbb",
"bbbbbbbbbbbbbbbbbbbbbbbbbbbbbbbbbbbbbbbbF#bbF#bbbbbbbbbbbbVobbbb",
"bbbbbbbbbbbbbbbbbbbbbbbbbbbbbbbbbbbbbbbbbq#,e8cqbbbbbb,nG:&XcDbb",
"bbbbbbbbbbbbbbbbbbbbbbbbbbbbbbbbbbbbbbbbbbq$zSFZFbbbbGdzpb6O-2qb",
"bbbbbbbbbbbbbbbbbbbbbbbbbbbbbbbbbbbbbbbbbbb:vDbFZF<%:CSn<f4*tM%0",
"bbbbbbbbbbbbbbbbbbbbbbbbbbbbbbbbbbbbbbbbbbbnz#bbFzzSbGOk7%78h4 y",
"bbbbbbbbbbbbbbbbbbbbbbbbbbbbbbbbbbbbbbbbbbbn<cabbb<1:8XkZa$Zi  y",
"bbbbbbbbbbbbbbbbbbbbbbbbbbbbbbbbbbbbbbbbVOO*zSb,OiMJFdMBiyiHimz9",
"bbbbbbbbbbbbbbbbbbbbbbbbbbbbbbbbbbbb,<G:&..N<1v>jHkuAw .iyOg5Nbb",
"bbbbbbbbbbbbbbbbbbbbbbbbbbbbbbbbbbbwdz@bbbV+ tzZF< u u .F9bbbbbb",
"bbbbbbbbbbbbbbbbbbbbbbbbbbbbbbbbbbbq7q,<G>j3*&svz< ur..Nbbbbbbbb",
"bbbbbbbbbbbbbbbbbbbbbbbbbbbbbbbbbbbbb#d8&jddzvzvznzSbbbbbbbbbbbb",
"bbbbbbbbbbbbbbbbbbbbbbbbbbbbbbbbbbbbb,#s*=zvzvlDSbbbbbbbbbbbbbbb",
"bbbbbbbbbbbbbbbbbbbbbbbbbbbbbbbbbbbbbbb>zvz>@abbbbbbbbbbbbbbbbbb",
"bbbbbbbbbbbbbbbbbbbbbbbbbbbbbbbbbbbbbbb>zcS0bbbbbbbbbbbbbbbbbbbb"
};
