/* XPM */
static char *hark-r[] = {
/* width height ncolors chars_per_pixel */
"64 54 178 2",
/* colors */
"   c #000000",
" . c #B1B1B1",
" X c #AFAFAF",
" o c #ADADAD",
" O c #ABABAB",
" + c #A7A7A7",
" @ c #A5A5A5",
" # c #A3A3A3",
" $ c #A1A1A1",
" % c #9F9F9F",
" & c #9D9D9D",
" * c #9B9B9B",
" = c #999999",
" - c #959595",
" ; c #8F8F8F",
" : c #8D8D8D",
" > c #8B8B8B",
" , c #898989",
" < c #878787",
" 1 c #858585",
" 2 c #838383",
" 3 c #818181",
" 4 c #7F7F7F",
" 5 c #7D7D7D",
" 6 c #7B7B7B",
" 7 c #797979",
" 8 c #777777",
" 9 c #737373",
" 0 c #717171",
" q c #6D6D6D",
" w c #676767",
" e c #656565",
" r c #636363",
" t c #616161",
" y c #5D5D5D",
" u c #5B5B5B",
" i c #575757",
" p c #555555",
" a c #535353",
" s c #4F4F4F",
" d c #FEFEFE",
" f c #4B4B4B",
" g c #FCFCFC",
" h c #494949",
" j c #FAFAFA",
" k c #474747",
" l c #F8F8F8",
" z c #454545",
" x c #F6F6F6",
" c c #F4F4F4",
" v c #414141",
" b c #F2F2F2",
" n c #3D3D3D",
" m c #EEEEEE",
" M c #ECECEC",
" N c #373737",
" B c #E8E8E8",
" V c #353535",
" C c #E6E6E6",
" Z c #333333",
" A c #E4E4E4",
" S c #E2E2E2",
" D c #2F2F2F",
" F c #E0E0E0",
" G c #2D2D2D",
" H c #DEDEDE",
" J c #2B2B2B",
" K c #DCDCDC",
" L c #292929",
" P c #DADADA",
" I c #272727",
" U c #D8D8D8",
" Y c #252525",
" T c #D6D6D6",
" R c #D4D4D4",
" E c #D2D2D2",
" W c #1F1F1F",
" Q c #D0D0D0",
" ! c #CACACA",
" ~ c #C8C8C8",
" ^ c #131313",
" / c #C2C2C2",
" ( c #C0C0C0",
" ) c #0D0D0D",
" _ c #090909",
" ` c #BABABA",
" ' c #B6B6B6",
" ] c #B4B4B4",
" [ c #B2B2B2",
" { c #B0B0B0",
" } c #AEAEAE",
" | c #ACACAC",
".  c #AAAAAA",
".. c #A8A8A8",
".X c #A6A6A6",
".o c #A4A4A4",
".O c #A2A2A2",
".+ c #A0A0A0",
".@ c #9E9E9E",
".# c #9C9C9C",
".$ c #9A9A9A",
".% c #989898",
".& c #969696",
".* c #949494",
".= c #929292",
".- c #8E8E8E",
".; c #8C8C8C",
".: c #8A8A8A",
".> c #888888",
"., c #848484",
".< c #828282",
".1 c #808080",
".2 c #7E7E7E",
".3 c #7C7C7C",
".4 c #7A7A7A",
".5 c #787878",
".6 c #767676",
".7 c #747474",
".8 c #727272",
".9 c #707070",
".0 c #6C6C6C",
".q c #6A6A6A",
".w c #626262",
".e c #5E5E5E",
".r c #4E4E4E",
".t c #FFFFFF",
".y c #4C4C4C",
".u c #FDFDFD",
".i c #FBFBFB",
".p c #F9F9F9",
".a c #464646",
".s c #F7F7F7",
".d c #F5F5F5",
".f c #424242",
".g c #F3F3F3",
".h c #F1F1F1",
".j c #EFEFEF",
".k c #EDEDED",
".l c #EBEBEB",
".z c #383838",
".x c #E9E9E9",
".c c #363636",
".v c #E7E7E7",
".b c #E5E5E5",
".n c #323232",
".m c #E3E3E3",
".M c #303030",
".N c #E1E1E1",
".B c #2E2E2E",
".V c #DFDFDF",
".C c #2C2C2C",
".Z c #DDDDDD",
".A c #DBDBDB",
".S c #282828",
".D c #262626",
".F c #222222",
".G c #D3D3D3",
".H c #202020",
".J c #D1D1D1",
".K c #CFCFCF",
".L c #1C1C1C",
".P c #CDCDCD",
".I c #1A1A1A",
".U c #CBCBCB",
".Y c #181818",
".T c #C9C9C9",
".R c #C7C7C7",
".E c #141414",
".W c #C5C5C5",
".Q c #C3C3C3",
".! c #C1C1C1",
".~ c #BFBFBF",
".^ c #0A0A0A",
"./ c #BBBBBB",
".( c #B7B7B7",
".) c #B5B5B5",
"._ c #020202",
".` c #B3B3B3",
/* pixels */
" . z y P.t.t.t.t.t.t.t.t.t.t.t.t.t.t.t.t.t.t.t.t.t.t.t.t.t.t.t.t.t.t.t.t.t.t.t.t.t.t.t.t.t.t.t.t.t.t.t.t.t.t.t.t.t.t.t.t.t.t.t.t",
" D *.N.2 A.t.t.t.t.t.t.t.t.t.t.t.t.t.t.t.t.t.t.t.t.t.t.t.t.t.t.t.t.t.t.t.t.t.t.t.t.t.t.t.t.t.t.t.t.t.t.t.t.t.t.t.t.t.t.t.t.t.t.t",
" `.% j c 7.V.t.t.t.t.t.t.t.t.t.t.t.t.t.t.t.t.t.t.t.t.t.t.t.t.t.t.t.t.t.t.t.t.t.t.t.t.t.t.t.t.t.t.t.t.t.t.t.t.t.t.t.t.t.t.t.t.t.t",
".t.).%.t.j.1 K.t.t.t.t.t.t.t.t.t.t.t.t.t.t.t.t.t.t.t.t.t.t.t.t.t.t.t.t.t.t.t.t.t.t.t.t.t.t.t.t.t.t.t.t.t.t.t.t.t.t.t.t.t.t.t.t.t",
".t.t ` =.p M 0.1 c.t.t.t.t.t.t.t.t.t.t.t.t.t.t.t.t.t.t.t.t.t.t.t.t.t.t.t.t.t.t.t.t.t.t.t.t.t.t.t.t.t.t.t.t.t.t.t.t.t.t.t.t.t.t.t",
".t.t.t ] =.t.t.P 1 j.t.t.t.t.t.t.t.t.t.t.t.t.t.t.t.t.t.t.t.t.t.t.t.t.t.t.t.t.t.t.t.t.t.t.t.t.t.t.t.t.t.t.t.t.t.t.t.t.t.t.t.t.t.t",
".t.t.t.t `.r.T.t R.2 j.t.t.t.t.t.t.t.t.t.t.t.t.t.t.t.t.t.t.t.t.t.t.t.t.t.t.t.t.t.t.t.t.t.t.t.t.t.t.t.t.t.t.t.t.t.t.t.t.t.t.t.t.t",
".t.t.t.t.t.t.>.W.t.G 1 c.t.t.t.t.t.t.t.t.t.t.t.t.t.t.t.t.t.t.t.t.t.t.t.t.t.t.t.t.t.t.t.t.t.t.t.t.t.t.t.t.t.t.t.t.t.t.t.t.t.t.t.t",
".t.t.t.t.t.t.i >.W.t.P 4.t.t.t.t.t.t.t.t.t.t.t.t.t.t.t.t.t.t.t.t.t.t.t.t.t.t.t.t.t.t.t.t.t.t.t.t.t.t.t.t.t.t.t.t.t.t.t.t.t.t.t.t",
".t.t.t.t.t.t.t.i.>.T.t U 2.h.t.t.t.t.t.t.t.t.t.t.t.t.t.t.t.t.t.t.t.t.t.t.t.t.t.t.t.t.t.t.t.t.t.t.t.t.t.t.t.t.t.t.t.t.t.t.t.t.t.t",
".t.t.t.t.t.t.t.t.t.;.!.t ! 2.t.t.t.t.t.t.t.t.t.t.t.t.t.t.t.t.t.t.t.t.t.t.t.t.t.t.t.t.t.t.t.t.t.t.t.t.t.t.t.t.t.t.t.t.t.t.t.t.t.t",
".t.t.t.t.t.t.t.t.t x.;.T.t U.< E.t.t.t.t.t.t.t.t.t.t.t.t.t.t.t.t.t.t.t.t.t.t.t.t.t.t.t.t.t.t.t.t.t.t.t.t.t.t.t.t.t.t.t.t.t.t.t.t",
".t.t.t.t.t.t.t.t.t.t.t : (.t.U.4. .t.t.t.t.t.t.t.t.t.t.t.t.t.t.t.t.t.t.t.t.t.t.t.t.t.t.t.t.t.t.t.t.t.t.t.t.t.t.t.t.t.t.t.t.t.t.t",
".t.t.t.t.t.t.t.t.t.t.t.d :.T.t.t # |.u.t.t.t.t.t.t.t.t.t.t.t.t.t.t.t.t.t.t.t.t.t.t.t.t.t.t.t.t.t.t.t.t.t.t.t.t.t.t.t.t.t.t.t.t.t",
".t.t.t.t.t.t.t.t.t.t.t.t.t.: /.t.t.+ |.t.t.t.t.t.t.t.t.t.t.t.t.t.t.t.t.t.t.t.t.t.t.t.t.t.t.t.t.t.t.t.t.t.t.t.t.t.t.t.t.t.t.t.t.t",
".t.t.t.t.t.t.t.t.t.t.t.t.t l >.T.t.t #. .t.t.t.t.t.t.t.t.t.t.t.t.t.t.t.t.t.t.t.t.t.t.t.t.t.t.t.t.t.t.t.t.t.t.t.t.t.t.t.t.t.t.t.t",
".t.t.t.t.t.t.t.t.t.t.t.t.t.t.t., ..N.t.O. .t.t.t.t.t.t.t.t.t.t.t.t.t.t.t.t.t.t.t.t.t.t.t.t.t.t.t.t.t.t.t.t.t.t.t.t.t.t.t.t.t.t.t",
".t.t.t.t.t.t.t.t.t.t.t.t.t.t.t.t.# 7 b.t @ +.t.t.t.t.t.t.t.t.t.t.t.t.t.t.t.t.t.t.t.t.t.t.t.t.t.t.t.t.t.t.t.t.t.t.t.t.t.t.t.t.t.t",
".t.t.t.t.t.t.t.t.t.t.t.t.t.t.t.t.t b.6 A g @. .t.t.t.t.t.t.t.t.t.t.t.t.t.t.t.t.t.t.t.t.t.t.t.t.t.t.t.t.t.t.t.t.t.t.t.t.t.t.t.t.t",
".t.t.t.t.t.t.t.t.t.t.t.t.t.t.t.t.t.t A 4 B.t @...t.t.t.t.t.t.t.t.t.t.t.t.t.t.t.t.t.t.t.t.t.t.t.t.t.t.t.t.t.t.t.t.t.t.t.t.t.t.t.t",
".t.t.t.t.t.t.t.t.t.t.t.t.t.t.t.t.t.t.t B.5 M.u.o.r F.t.t.t.t.t.t.t.t.t.t.t.t.t.t.t.t.t.t.t.t.t.t.t.t.t.t.t.t.t.t.t.t.t.t.t.t.t.t",
".t.t.t.t.t.t.t.t.t.t.t.t.t.t.t.t.t.t.t.t M.2 S.t.t.2.K.t.t.t.t.t.t.t.t.t.t.t.t.t.t.t.t.t.t.t.t.t.t.t.t.t.t.t.t.t.t.t.t.t.t.t.t.t",
".t.t.t.t.t.t.t.t.t.t.t.t.t.t.t.t.t.t.t.t.t S.8.s.t m.2 F.t.t.t.t.t.t.t.t.t.t.t.t.t.t.t.t.t.t.t.t.t.t.t.t.t.t.t.t.t.t.t.t.t.t.t.t",
".t.t.t.t.t.t.t.t.t.t.t.t.t.t.t.t.t.t.t.t.t.t.s.7 F.t.t.3 Q.t.t.t.t.t.t.t.t.t.t.t.t.t.t.t.t.t.t.t.t.t.t.t.t.t.t.t.t.t.t.t.t.t.t.t",
".t.t.t.t.t.t.t.t.t.t.t.t.t.t.t.t.t.t.t.t.t.t.t F 9 l.t.j 3.A.t.t.t.t.t.t.t.t.t.t.t.t.t.t.t.t.t.t.t.t.t.t.t.t.t.t.t.t.t.t.t.t.t.t",
".t.t.t.t.t.t.t.t.t.t.t.t.t.t.t.t.t.t.t.t.t.t.t.t l.8 S.t j.3 T.t.t.t.t.t.t.t.t.t.t.t.t.t.t.t.t.t.t.t.t.t.t.t.t.t.t.t.t.t.t.t.t.t",
".t.t.t.t.t.t.t.t.t.t.t.t.t.t.t.t.t.t.t.t.t.t.t.t.t S 5.>.t.d 2.G.t.t.t.t.t.t.t.t.t.t.t.t.t.t.t.t.t.t.t.t.t.t.t.t.t.t.t.t.t.t.t.t",
".t.t.t.t.t.t.t.t.t.t.t.t.t.t.t.t.t.t.t.t.t.t.t.t.t.t.k.W.-.d b.4 F.t.t.t.t.t.t.t.t.t.t.t.t.t.t.t.t.t.t.t.t.t.t.t.t.t.t.t.t.t.t.t",
".t.t.t.t.t.t.t.t.t.t.t.t.t.t.t.t.t.t.t.t.t.t.t.t.t.t.t.t.~ :.t d.2.,.d.t.t.t.t.t.t.t.t.t.t.t.t.t.t.t.t.t.t.t.t.t.t.t.t.t.t.t.t.t",
".t.t.t.t.t.t.t.t.t.t.t.t.t.t.t.t.t.t.t.t.t.t.t.t.t.t.t.t.t.T > l m.T.4 c.t.t.t.t.t.t.t.t.t.t.t.t.t.t.t.t.t.t.t.t.t.t.t.t.t.t.t.t",
".t.t.t.t.t.t.t.t.t.t.t.t.t.t.t.t.t.t.t.t.t.t.t.t.t.t.t.t.t.t / >.t.t.Z 3 m.t.t.t.t.t.t.t.t.t.t.t.t.t.t.t.t.t.t.t.t.t.t.t.t.t.t.t",
".t.t.t.t.t.t.t.t.t.t.t.t.t.t.t.t.t.t.t.t.t.t.t.t.t.t.t.t.t.t.t.T.,.t.t T 8 d.t.t.t.t.t.t.t.t.t.t.t.t.t.t.t.t.t.t.t.t.t.t.t.t.t.t",
".t.t.t.t.t.t.t.t.t.t.t.t.t.t.t.t.t.t.t.t.t.t.t.t.t.t.t.t.t.t.t.t.T.:.p.t.v.4.l.t.t.t.t.t.t.t.t.t.t.t.t.t.t.t.t.t.t.t.t.t.t.t.t.t",
".t.t.t.t.t.t.t.t.t.t.t.t.t.t.t.t.t.t.t.t.t.t.t.t.t.t.t.t.t.t.t.t.t /.:.t.t.G 7.t.t.t.t.t.t.t.t.t.t.t.t.t.t.t.t.t.t.t.t.t.t.t.t.t",
".t.t.t.t.t.t.t.t.t.t.t.t.t.t.t.t.t.t.t.t.t.t.t.t.t.t.t.t.t.t.t.t.t.t.T :.d.t B.5.l.t.t.t.t.t.t.t.t.t.t.t.t.t.t.t.t.t.t.t.t.t.t.t",
".t.t.t.t.t.t.t.t.t.t.t.t.t.t.t.t.t.t.t.t.t.t.t.t.t.t.t.t.t.t.t.t.t.t.t.~ :.t.t R 5 j.t.t.t.t.t.t.t.t.t.t.t.t.t.t.t.t.t.t.t.t.t.t",
".t.t.t.t.t.t.t.t.t.t.t.t.t.t.t.t.t.t.t.t.t.t.t.t.t.t.t.t.t.t.t.t.t.t.t.t.T.; H.t.m a %.i.t.t.t.t.t.t.t.t.t.t.t.t.t.t.t.t.t.t.t.t",
".t.t.t.t.t.t.t.t.t.t.t.t.t.t.t.t.t.t.t.t.t.t.t.t.t.t.t.t.t.t.t.t.t.t.t.t.t (.8.(.t.t o %.t.t.t.t.t.t.t.t.t.t.t.t.t.t.t.t.t.t.t.t",
".t.t.t.t.t.t.t.t.t.t.t.t.t.t.t.t.t.t.t.t.t.t.t.t.t.t.t.t.t.t.t.t.t.t.t.t.t.t g.&./.t.t [.@ g.t.t.t.t.t.t.t.t.t.t.t.t.t.t.t.t.t.t",
".t.t.t.t.t.t.t.t.t.t.t.t.t.t.t.t.t.t.t.t.t.t.t.t.t.t.t.t.t.t.t.t.t.t.t.t.t.t.t.t.= `.t.t X.@.t.t.t.t.t.t.t.t.t.t.t.t.t {.J.t.t.t",
".t.t.t.t.t.t.t.t.t.t.t.t.t.t.t.t.t.t.t.t.t.t.t.t.t.t.t.t.t.t.t.t.t.t.t.t.t.t.t.t.t.&.(.t }.I i.P.t.t.t.t.t.t.t.t.t y i.@ 3 w.t.t",
".t.t.t.t.t.t.t.t.t.t.t.t.t.t.t.t.t.t.t.t.t.t.t.t.t.t.t.t.t.t.t.t.t.t.t.t.t.t.t.t.t g.&.$ h Q X.L Q.t.t.t.t.N.).r.r.j.d / '.C.4.l",
".t.t.t.t.t.t.t.t.t.t.t.t.t.t.t.t.t.t.t.t.t.t.t.t.t.t.t.t.t.t.t.t.t.t.t.t.t.t.t.t.t.t.t Z q F.t [.F.R.t [ q n 9.t.t U q.S f.^.3.5",
".t.t.t.t.t.t.t.t.t.t.t.t.t.t.t.t.t.t.t.t.t.t.t.t.t.t.t.t.t.t.t.t.t.t.t.t.t.t.t.t.t.t.t.Q.B.`.t.t...f.r *.V.U.T.O.M w.y.D I 1 ) _",
".t.t.t.t.t.t.t.t.t.t.t.t.t.t.t.t.t.t.t.t.t.t.t.t.t.t.t.t.t.t.t.t.t.t.t.t.t.t.t.t.t.t.t.t.t.f ].t.t.t.t.t.% h y.2 G.3.3.q.3 V    ",
".t.t.t.t.t.t.t.t.t.t.t.t.t.t.t.t.t.t.t.t.t.t.t.t.t.t.t.t.t.t.t.t.t.t.t.t.t.t.t.t.j.v.v t.r X H.t.v.v p.c.+ 6 N K.T.y.t W.3.z.Y.Y",
".t.t.t.t.t.t.t.t.t.t.t.t.t.t.t.t.t.t.t.t.t.t.t.t.t.t.t.t.t.t.t.t.t.t.t.t.t.t ].$ 8 e e M.t x.$.$.a  .< e.D.R v u.t.r.t.n {.*.t.t",
".t.t.t.t.t.t.t.t.t.t.t.t.t.t.t.t.t.t.t.t.t.t.t.t.t.t.t.t.t.t.t.t.t.t.t.u.0.r =.`.b.t d.Z.y z._._ C.` W O J 0 v u.t s.t !.t.t.t.t",
".t.t.t.t.t.t.t.t.t.t.t.t.t.t.t.t.t.t.t.t.t.t.t.t.t.t.t.t.t.t.t.t.t.t U Y &.t.t.t.U { 7.Y L k.K.y s.t.E < J 0.3.-.t.t.t.t.t.t.t.t",
".t.t.t.t.t.t.t.t.t.t.t.t.t.t.t.t.t.t.t.t.t.t.t.t.t.t.t.t.t.t.t.t.t.t.t.U - +.:.w ,.M 6 > 4 e e.y s.t.E < o ~.t.t.t.t.t.t.t.t.t.t",
".t.t.t.t.t.t.t.t.t.t.t.t.t.t.t.t.t.t.t.t.t.t.t.t.t.t.t.t.t.t.t.t.t.t.t.t g.X.= r.9 2 ; J.3.c e.7 8.t.k x.t.t.t.t.t.t.t.t.t.t.t.t",
".t.t.t.t.t.t.t.t.t.t.t.t.t.t.t.t.t.t.t.t.t.t.t.t.t.t.t.t.t.t.t.t.t.t.t.t.t.t @.r...^.=.H.3.f.(.t.t.t.t.t.t.t.t.t.t.t.t.t.t.t.t.t",
".t.t.t.t.t.t.t.t.t.t.t.t.t.t.t.t.t.t.t.t.t.t.t.t.t.t.t.t.t.t.t.t.t.t.t.t.t.t.g  .. ^ $.e.x.N.t.t.t.t.t.t.t.t.t.t.t.t.t.t.t.t.t.t",
".t.t.t.t.t.t.t.t.t.t.t.t.t.t.t.t.t.t.t.t.t.t.t.t.t.t.t.t.t.t.t.t.t.t.t.t.t.t.g  ...r.t.t.t.t.t.t.t.t.t.t.t.t.t.t.t.t.t.t.t.t.t.t"
};
