/* XPM */
static char *hoed-r[] = {
/* width height ncolors chars_per_pixel */
"64 34 144 2",
/* colors */
"   c #000000",
" . c #B1B1B1",
" X c #AFAFAF",
" o c #ADADAD",
" O c #ABABAB",
" + c #A9A9A9",
" @ c #A7A7A7",
" # c #A5A5A5",
" $ c #A3A3A3",
" % c #A1A1A1",
" & c #9F9F9F",
" * c #9D9D9D",
" = c #9B9B9B",
" - c #999999",
" ; c #979797",
" : c #959595",
" > c #939393",
" , c #919191",
" < c #8F8F8F",
" 1 c #8D8D8D",
" 2 c #8B8B8B",
" 3 c #898989",
" 4 c #878787",
" 5 c #858585",
" 6 c #818181",
" 7 c #7F7F7F",
" 8 c #7D7D7D",
" 9 c #7B7B7B",
" 0 c #797979",
" q c #757575",
" w c #737373",
" e c #717171",
" r c #6F6F6F",
" t c #6D6D6D",
" y c #6B6B6B",
" u c #636363",
" i c #616161",
" p c #5F5F5F",
" a c #5B5B5B",
" s c #595959",
" d c #FEFEFE",
" f c #4B4B4B",
" g c #FCFCFC",
" h c #494949",
" j c #FAFAFA",
" k c #F6F6F6",
" l c #F4F4F4",
" z c #F2F2F2",
" x c #3F3F3F",
" c c #3D3D3D",
" v c #ECECEC",
" b c #E8E8E8",
" n c #E6E6E6",
" m c #E4E4E4",
" M c #E2E2E2",
" N c #E0E0E0",
" B c #2D2D2D",
" V c #DEDEDE",
" C c #DCDCDC",
" Z c #DADADA",
" A c #D6D6D6",
" S c #D0D0D0",
" D c #CECECE",
" F c #CCCCCC",
" G c #CACACA",
" H c #C8C8C8",
" J c #C6C6C6",
" K c #C4C4C4",
" L c #C2C2C2",
" P c #C0C0C0",
" I c #BEBEBE",
" U c #BCBCBC",
" Y c #BABABA",
" T c #B8B8B8",
" R c #B2B2B2",
" E c #B0B0B0",
" W c #AEAEAE",
" Q c #ACACAC",
" ! c #A6A6A6",
" ~ c #A2A2A2",
" ^ c #A0A0A0",
" / c #9E9E9E",
" ( c #9C9C9C",
" ) c #9A9A9A",
" _ c #969696",
" ` c #949494",
" ' c #909090",
" ] c #8C8C8C",
" [ c #8A8A8A",
" { c #888888",
" } c #868686",
" | c #848484",
".  c #828282",
".. c #808080",
".X c #7E7E7E",
".o c #7C7C7C",
".O c #7A7A7A",
".+ c #787878",
".@ c #767676",
".# c #747474",
".$ c #6C6C6C",
".% c #686868",
".& c #646464",
".* c #606060",
".= c #5E5E5E",
".- c #585858",
".; c #545454",
".: c #505050",
".> c #FFFFFF",
"., c #FDFDFD",
".< c #4A4A4A",
".1 c #FBFBFB",
".2 c #F7F7F7",
".3 c #444444",
".4 c #F5F5F5",
".5 c #424242",
".6 c #F3F3F3",
".7 c #EDEDED",
".8 c #EBEBEB",
".9 c #383838",
".0 c #E9E9E9",
".q c #E5E5E5",
".w c #E3E3E3",
".e c #E1E1E1",
".r c #DDDDDD",
".t c #DBDBDB",
".y c #D9D9D9",
".u c #D7D7D7",
".i c #D5D5D5",
".p c #D3D3D3",
".a c #D1D1D1",
".s c #CFCFCF",
".d c #CDCDCD",
".f c #CBCBCB",
".g c #C9C9C9",
".h c #C7C7C7",
".j c #C5C5C5",
".k c #C3C3C3",
".l c #C1C1C1",
".z c #BFBFBF",
".x c #BDBDBD",
".c c #BBBBBB",
".v c #B9B9B9",
".b c #B5B5B5",
/* pixels */
".>.>.>.>.>.>.>.>.>.>.>.>.>.>.>.>.>.>.>.>.> } p y y y y y y y [ ` ` ` C.>.>.>.>.>.>.>.>.>.>.>.>.>.>.>.>.>.>.>.>.>.>.>.>.>.>.>.>.>",
".>.>.>.>.>.>.>.>.>.>.>.>.>.>.>.>.>.>.>.>.6 9 j.>.>.>.>.>.>.> N.i.i.i 1 y { I.q.>.>.>.>.>.>.>.>.>.>.>.>.>.>.>.>.>.>.>.>.>.>.>.>.>",
".>.>.>.>.>.>.>.>.>.>.>.>.>.>.>.>.>.>.>.> _.p.>.>.>.>.>.>.>.>.>.> b b ` y.  Q 5 y 1 b l.>.>.>.>.>.>.>.>.>.>.>.>.>.>.>.>.>.>.>.>.>",
".>.>.>.>.>.>.>.>.>.>.>.>.>.>.>.>.>.>.> M 4.>.> ^ 8 8 8 8 8 8 8 8. .  A.>.>.>.>.>.r.  7 8.w.>.>.>.>.>.>.>.>.>.>.>.>.>.>.>.>.>.>.>",
".>.>.>.>.>.>.>.>.>.>.>.>.>.>.>.>.>.>.> @ L.>.> z.7.7.7.7.7.7.7.7.>.>.>.>.>.>.>.>.>.>.4.7 4 y } @ n.>.>.>.>.>.>.>.>.>.>.>.>.>.>.>",
".>.>.>.>.>.>.>.>.>.>.>.>.>.>.>.>.>.>.7.o.>.>.>.>.>.>.>.>.>.>.>.>.>.>.>.>.>.>.>.>.>.>.>.>.>.> m.k | y D k.>.>.>.>.>.>.>.>.>.>.>.>",
".>.>.>.>.>.>.>.>.>.>.>.>.>.>.>.>.>.> (.d.>.>.>.>.>.>.>.>.>.>.>.>.>.>.>.>.>.>.>.>.>.>.>.>.>.>.>.>.>.> ( w H.>.>.>.>.>.>.>.>.>.>.>",
".>.>.>.>.>.>.>.>.>.>.>.>.>.>.>.>.>.> y.>.>.>.>.>.>.>.>.>.>.>.>.>.>.>.>.>.>.>.>.>.>.>.>.>.>.>.>.>.>.>.>.h $.>.>.>.>.>.>.>.>.>.>.>",
".>.>.>.>.>.>.>.>.>.>.>.>.>.>.>.>.> { M.>.>.>.>.>.>.>.>.>.>.>.>.>.>.>.>.>.>.>.>.>.>.>.>.>.>.>.>.>.>.>.>.h $.>.>.>.>.>.>.>.>.>.>.>",
".>.>.>.>.>.>.>.>.>.>.>.>.>.>.>.> b | g.>.>.>.>.>.>.>.>.>.>.>.>.>.>.>.>.>.>.>.>.>.>.>.>.>.>.>.>.>.>.>.>.h $.>.>.>.>.>.>.>.>.>.>.>",
".>.>.>.>.>.>.>.>.>.>.>.>.>.>.>.> %.g.>.>.>.>.>.>.>.>.>.>.>.>.>.>.>.>.>.>.>.>.>.>.>.>.>.>.>.>.>.>.>.>.>.h $.>.>.>.>.>.>.>.>.>.>.>",
".>.>.>.>.>.>.>.>.>.>.>.>.>.>.>.> y.>.>.>.>.>.>.>.>.>.>.>.>.>.>.>.>.>.>.>.>.>.>.>.>.>.>.>.>.>.>.>.>.>.>.h $.>.>.>.>.>.>.>.>.>.>.>",
".>.>.>.>.>.>.>.>.>.>.>.>.>.>.>.j #.>.>.>.>.>.>.>.>.>.>.>.>.>.>.>.>.>.>.>.>.>.>.>.>.>.>.>.>.>.>.>.>.>.>.h $.>.>.>.>.>.>.>.>.>.>.>",
".>.>.>.>.>.>.>.>.>.>.>.>.>.>.> R T.>.>.>.>.>.>.>.>.>.>.>.>.>.>.>.>.>.>.>.>.>.>.>.>.>.>.>.>.>.>.>.>.>.>.h $.>.>.>.>.>.>.>.>.>.>.>",
".>.>.>.>.>.>.>.>.>.>.>.>.>.>.> y.>.>.>.>.>.>.>.>.>.>.>.>.>.>.>.>.>.>.>.>.>.>.>.>.>.>.>.>.>.>.>.>.>.>.> *.d.>.>.>.>.>.>.>.>.>.>.>",
".>.>.>.>.>.>.>.>.>.>.>.>.>.> - <.b.b.b.j.>.>.>.>.>.>.>.>.>.>.>.>.>.>.>.>.>.>.>.>.>.>.>.>.>.>.>.>.>.>.> y.>.>.>.>.>.>.>.>.>.>.>.>",
".>.>.>.>.>.>.>.>.>.>.>.>.> d { ~.b.b.b # y y y y y y y y y , V V V V V V.,.>.>.>.>.>.>.>.>.>.>.>.>.>.> y.>.>.>.>.>.>.>.>.>.>.>.>",
".>.>.>.>.>.>.>.>.>.>.>.>.> k.#.>.>.>.>.>.>.>.>.>.>.>.>.>.>.y 2 2 2 2 2 2.@.#.# ..>.>.>.>.>.>.>.>.>.>.> y.>.>.>.>.>.>.>.>.>.>.>.>",
".>.>.>.>.>.>.>.>.>.>.>.>.> P +.>.>.>.>.>.>.>.>.>.>.>.>.>.>.>.>.>.>.>.>.>.2 k k.v y y y ) * * G.>.>.>.> y.>.>.>.>.>.>.>.>.>.>.>.>",
".>.>.>.>.>.>.>.>.>.>.>.> l.@.>.>.>.>.>.>.>.>.>.>.>.>.>.>.>.>.>.>.>.>.>.>.>.>.>.>.>.>.>.s F F ^ y y y K.*.>.>.>.>.>.>.>.>.>.>.>.>",
".>.>.>.>.>.>.>.>.>.>.>.> F /.>.>.>.>.>.>.>.>.>.>.>.>.>.>.>.>.>.>.>.>.>.>.>.>.>.>.>.>.>.>.>.>.>.>.>.> !.-.>.>.>.>.>.>.>.>.>.>.>.>",
".>.>.>.>.>.>.>.>.>.>.>.> / F.>.>.>.>.>.>.>.>.>.>.>.>.>.>.>.>.>.>.>.>.>.>.>.>.>.>.>.>.>.>.>.>.>.>.>.>.>.: } } } } } }.0.>.>.>.>.>",
".>.>.>.>.>.>.>.>.> k E ; a y y y.# E E E E E E E E S.>.>.>.>.>.>.>.>.>.>.>.>.>.>.>.>.>.>.>.>.>.>.>.>.>.&.w.w.w.w.w.w.. y 1 E.8.>",
".>.>.>.>.>.> d Z U u.#.p.>.>.>.> k Y Y Y Y Y Y Y Y ) y y y y y y y 4 Z Z Z Z Z Z m.>.>.>.>.>.>.>.>.>.> y.>.>.>.>.>.>.>.>.r o s R",
".>.>.>.>.>.q t x W.>.>.>.>.>.>.>.>.>.>.>.>.>.>.>.>.>.>.>.>.>.>.>.>.w ' ' ' ' ' ' 4 r r r r r r -.>.>.> y.>.>.>.>.>.>.>.> T.O.+ :",
".>.>.>.f 3 5.1.,.>.>.>.>.>.>.>.>.>.>.>.>.>.>.>.>.>.>.>.>.>.>.>.>.>.>.>.>.>.>.>.> d.1.1.1.1.1.1.a y y y.% { G.>.>.>.> O 9 R.t ' B",
".> F.& &.e.>.>.>.>.>.>.>.>.>.>.>.>.>.>.>.>.>.>.>.>.>.>.>.>.>.>.>.>.>.>.>.>.>.>.>.>.>.>.>.>.>.>.>.>.>.>.> M ^ }.q L.$ E Q y 1 D.#",
".v.3 X.>.>.>.>.>.>.>.>.>.>.>.>.>.>.>.>.>.>.>.>.>.>.>.>.>.>.>.>.>.>.>.>.>.>.>.>.>.>.>.>.>.>.>.>.>.>.>.>.1 v X.< h `.$ 0 W k.l q Z",
" f.i.>.>.>.>.>.>.>.>.>.>.>.>.>.>.>.>.>.>.>.>.>.>.>.>.>.>.>.>.>.>.>.>.>.>.>.>.>.>.>.>.>.>.>.>.>.>.> Y 6.. B c...X.X.,.> Q.. +.>.>",
"   < O O O.8.>.>.>.>.>.>.>.>.>.>.>.>.>.>.>.>.>.>.>.>.>.>.>.>.>.>.>.>.>.>.>.>.>.>.>.>.> X O O O.5 y.=.; s.c P = O O.$ y.x.6.>.>.>",
".z.5 e ` $ 7 y y J.i.i.i.r.>.>.>.>.>.>.>.>.>.>.>.>.>.>.>.>.y.i.i.i.i.i.i.i | y y y y y.c.z.z O @.i.i r y y >.z.z.z d.>.>.>.>.>.>",
".>.> T : } y y y.9 ` ` ` ] y y y y y y y y y y y y y y y y ' ` ` ` ` ` ` ` n.> I y y y y y y.X : : :.1.>.>.>.>.>.>.>.>.>.>.>.>.>",
".>.>.>.>.>.>.>.>.u y y y y | ` ` ` ` ` ` ` ` ` ` ` ` ` ` ` r y y y y y y y y y Q.>.>.>.>.>.>.>.>.>.>.>.>.>.>.>.>.>.>.>.>.>.>.>.>",
".>.>.>.>.>.>.>.>.>.>.>.>.> i                               b.>.>.>.>.>.>.>.>.>.>.>.>.>.>.>.>.>.>.>.>.>.>.>.>.>.>.>.>.>.>.>.>.>.>"
};
