/* XPM */
static char *hoed-r[] = {
/* width height ncolors chars_per_pixel */
"64 33 132 2",
/* colors */
"   c #B1B1B1",
" . c #AFAFAF",
" X c #ABABAB",
" o c #A7A7A7",
" O c #A5A5A5",
" + c #9F9F9F",
" @ c #9B9B9B",
" # c #999999",
" $ c #979797",
" % c #939393",
" & c #919191",
" * c #8F8F8F",
" = c #8D8D8D",
" - c #898989",
" ; c #878787",
" : c #858585",
" > c #838383",
" , c #818181",
" < c #7D7D7D",
" 1 c #7B7B7B",
" 2 c #737373",
" 3 c #717171",
" 4 c #6F6F6F",
" 5 c #6D6D6D",
" 6 c #696969",
" 7 c #676767",
" 8 c #636363",
" 9 c #575757",
" 0 c #555555",
" q c #535353",
" w c #4F4F4F",
" e c #FEFEFE",
" r c #FCFCFC",
" t c #FAFAFA",
" y c #F8F8F8",
" u c #454545",
" i c #F6F6F6",
" p c #F4F4F4",
" a c #3F3F3F",
" s c #F0F0F0",
" d c #EEEEEE",
" f c #ECECEC",
" g c #EAEAEA",
" h c #E8E8E8",
" j c #E6E6E6",
" k c #E2E2E2",
" l c #E0E0E0",
" z c #DEDEDE",
" x c #2B2B2B",
" c c #DCDCDC",
" v c #DADADA",
" b c #D8D8D8",
" n c #D4D4D4",
" m c #D2D2D2",
" M c #CCCCCC",
" N c #CACACA",
" B c #C8C8C8",
" V c #C2C2C2",
" C c #C0C0C0",
" Z c #BEBEBE",
" A c #BCBCBC",
" S c #BABABA",
" D c #B8B8B8",
" F c #B6B6B6",
" G c #B4B4B4",
" H c #B2B2B2",
" J c #B0B0B0",
" K c #AEAEAE",
" L c #ACACAC",
" P c #A6A6A6",
" I c #A4A4A4",
" U c #A2A2A2",
" Y c #A0A0A0",
" T c #9E9E9E",
" R c #9C9C9C",
" E c #9A9A9A",
" W c #969696",
" Q c #949494",
" ! c #929292",
" ~ c #909090",
" ^ c #8E8E8E",
" / c #8C8C8C",
" ( c #8A8A8A",
" ) c #888888",
" _ c #868686",
" ` c #828282",
" ' c #808080",
" ] c #7E7E7E",
" [ c #7C7C7C",
" { c #7A7A7A",
" } c #787878",
" | c #747474",
".  c #727272",
".. c #707070",
".X c #6E6E6E",
".o c #626262",
".O c #606060",
".+ c #5E5E5E",
".@ c #525252",
".# c #4E4E4E",
".$ c #FFFFFF",
".% c #FDFDFD",
".& c #FBFBFB",
".* c #484848",
".= c #F9F9F9",
".- c #F7F7F7",
".; c #F5F5F5",
".: c #F3F3F3",
".> c #EFEFEF",
"., c #EDEDED",
".< c #EBEBEB",
".1 c #E9E9E9",
".2 c #E7E7E7",
".3 c #E5E5E5",
".4 c #E1E1E1",
".5 c #DFDFDF",
".6 c #DDDDDD",
".7 c #2A2A2A",
".8 c #D9D9D9",
".9 c #222222",
".0 c #D3D3D3",
".q c #CFCFCF",
".w c #CDCDCD",
".e c #CBCBCB",
".r c #C9C9C9",
".t c #C7C7C7",
".y c #C1C1C1",
".u c #BFBFBF",
".i c #BDBDBD",
".p c #B7B7B7",
".a c #B5B5B5",
".s c #B3B3B3",
/* pixels */
".$.$.$.$.$.$.$.$.$.$.$.$.$.$.$.$.$.$.$.$.$.$ # ~ ~ ~ ~ ~ ~ ~.u.$.$.$.$.$.$.$.$.$.$.$.$.$.$.$.$.$.$.$.$.$.$.$.$.$.$.$.$.$.$.$.$.$",
".$.$.$.$.$.$.$.$.$.$.$.$.$.$.$.$.$.$.$.$.$ v ).6.6.6.6.6.6.6 K 4 4 4 ^ H.y.$.$.$.$.$.$.$.$.$.$.$.$.$.$.$.$.$.$.$.$.$.$.$.$.$.$.$",
".$.$.$.$.$.$.$.$.$.$.$.$.$.$.$.$.$.$.$.$.% ` d.$.$.$.$.$.$.$.$.$.$.$.e ~ - 4 U n z.$.$.$.$.$.$.$.$.$.$.$.$.$.$.$.$.$.$.$.$.$.$.$",
".$.$.$.$.$.$.$.$.$.$.$.$.$.$.$.$.$.$.$.$., ,.$.% i i i i i i i i Q 4 > E K.$ M E ~ 4 D i e.$.$.$.$.$.$.$.$.$.$.$.$.$.$.$.$.$.$.$",
".$.$.$.$.$.$.$.$.$.$.$.$.$.$.$.$.$.$.$.$ 4.$.$.4 } } } } } } } } v.$.$.$.$.$.$.$.$.$ F } : ; M.$.$.$.$.$.$.$.$.$.$.$.$.$.$.$.$.$",
".$.$.$.$.$.$.$.$.$.$.$.$.$.$.$.$.$.$.$ n #.$.$.$.$.$.$.$.$.$.$.$.$.$.$.$.$.$.$.$.$.$.$.$.<.2 U 4 U D.$.$.$.$.$.$.$.$.$.$.$.$.$.$",
".$.$.$.$.$.$.$.$.$.$.$.$.$.$.$.$.$.$.$ :.1.$.$.$.$.$.$.$.$.$.$.$.$.$.$.$.$.$.$.$.$.$.$.$.$.$.$.$ M F 2 N t.$.$.$.$.$.$.$.$.$.$.$",
".$.$.$.$.$.$.$.$.$.$.$.$.$.$.$.$.$.$.e U.$.$.$.$.$.$.$.$.$.$.$.$.$.$.$.$.$.$.$.$.$.$.$.$.$.$.$.$.$.$.& 0.1.$.$.$.$.$.$.$.$.$.$.$",
".$.$.$.$.$.$.$.$.$.$.$.$.$.$.$.$.$.$ ^ l.$.$.$.$.$.$.$.$.$.$.$.$.$.$.$.$.$.$.$.$.$.$.$.$.$.$.$.$.$.$.$ :.1.$.$.$.$.$.$.$.$.$.$.$",
".$.$.$.$.$.$.$.$.$.$.$.$.$.$.$.$.$ n E.$.$.$.$.$.$.$.$.$.$.$.$.$.$.$.$.$.$.$.$.$.$.$.$.$.$.$.$.$.$.$.$ :.1.$.$.$.$.$.$.$.$.$.$.$",
".$.$.$.$.$.$.$.$.$.$.$.$.$.$.$.$ e _ h.$.$.$.$.$.$.$.$.$.$.$.$.$.$.$.$.$.$.$.$.$.$.$.$.$.$.$.$.$.$.$.$ :.1.$.$.$.$.$.$.$.$.$.$.$",
".$.$.$.$.$.$.$.$.$.$.$.$.$.$.$.$.&. .$.$.$.$.$.$.$.$.$.$.$.$.$.$.$.$.$.$.$.$.$.$.$.$.$.$.$.$.$.$.$.$.$ :.1.$.$.$.$.$.$.$.$.$.$.$",
".$.$.$.$.$.$.$.$.$.$.$.$.$.$.$.$ ..u.$.$.$.$.$.$.$.$.$.$.$.$.$.$.$.$.$.$.$.$.$.$.$.$.$.$.$.$.$.$.$.$.$ :.1.$.$.$.$.$.$.$.$.$.$.$",
".$.$.$.$.$.$.$.$.$.$.$.$.$.$.$.$ 4.$.$.$.$.$.$.$.$.$.$.$.$.$.$.$.$.$.$.$.$.$.$.$.$.$.$.$.$.$.$.$.$.$.$ :.1.$.$.$.$.$.$.$.$.$.$.$",
".$.$.$.$.$.$.$.$.$.$.$.$.$.$.$.5 ^.$.$.$.$.$.$.$.$.$.$.$.$.$.$.$.$.$.$.$.$.$.$.$.$.$.$.$.$.$.$.$.$.$ r `.>.$.$.$.$.$.$.$.$.$.$.$",
".$.$.$.$.$.$.$.$.$.$.$.$.$.$.$ ) S.8.8.8 s.$.$.$.$.$.$.$.$.$.$.$.$.$.$.$.$.$.$.$.$.$.$.$.$.$.$.$.$.$.: {.$.$.$.$.$.$.$.$.$.$.$.$",
".$.$.$.$.$.$.$.$.$.$.$.$.$.$ e.O Q Q Q Q < 4 4 4 4 4 4 4 4 4 t.&.&.&.&.& e.$.$.$.$.$.$.$.$.$.$.$.$.$.: {.$.$.$.$.$.$.$.$.$.$.$.$",
".$.$.$.$.$.$.$.$.$.$.$.$.$.$ D F.$.$.$.$.$.$.$.$.$.$.$.$.$.$ 2. . . . .  ; = =.p.$.$.$.$.$.$.$.$.$.$.: {.$.$.$.$.$.$.$.$.$.$.$.$",
".$.$.$.$.$.$.$.$.$.$.$.$.$.$ Y.w.$.$.$.$.$.$.$.$.$.$.$.$.$.$.$.$.$.$.$.$ h.4.4.p 4 4 4 L K K.6.$.$.$.: {.$.$.$.$.$.$.$.$.$.$.$.$",
".$.$.$.$.$.$.$.$.$.$.$.$.$ f `.$.$.$.$.$.$.$.$.$.$.$.$.$.$.$.$.$.$.$.$.$.$.$.$.$.$.$.$.y.u.u & 4 4 '.t {.$.$.$.$.$.$.$.$.$.$.$.$",
".$.$.$.$.$.$.$.$.$.$.$.$.$ W b.$.$.$.$.$.$.$.$.$.$.$.$.$.$.$.$.$.$.$.$.$.$.$.$.$.$.$.$.$.$.$.$.$.$ d $ {.$.$.$.$.$.$.$.$.$.$.$.$",
".$.$.$.$.$.$.$.$.$.$.$.$.$ >.<.$.$.$.$.$.$.$.$.$.$.$.$.$.$.$.$.$.$.$.$.$.$.$.$.$.$.$.$.$.$.$.$.$.$.$.: a > > > > > U.$.$.$.$.$.$",
".$.$.$.$.$.$.$.$.$.$.1 O ) 8 4 4 4 ; O O O O O O O O.&.$.$.$.$.$.$.$.$.$.$.$.$.$.$.$.$.$.$.$.$.$.$.$.: 3.<.<.<.<.< M 4 4 I.u.$.$",
".$.$.$.$.$.$.$.&.t P.o E j.$.$.$.$.2.r.r.r.r.r.r.r.r 2 4 4 4 4 4 4. .t.t.t.t.t.t n.$.$.$.$.$.$.$.$.$.: {.$.$.$.$.$.$.$.$ N ] 0.$",
".$.$.$.$.$.-.q 6.O B.$.$.$.$.$.$.$.$.$.$.$.$.$.$.$.$.$.$.$.$.$.$.$ r o o o o o o E 4 4 4 4 4 4 O h h.6 4.%.$.$.$.$.$ r h 3 + q i",
".$.$.$.$ C ] T.$.$.$.$.$.$.$.$.$.$.$.$.$.$.$.$.$.$.$.$.$.$.$.$.$.$.$.$.$.$.$.$.$.$.$.$.$.$.$.$.r : : : : 1 k.$.$.$ z 1 :.% = 5 W",
".$.$.a.* K y.$.$.$.$.$.$.$.$.$.$.$.$.$.$.$.$.$.$.$.$.$.$.$.$.$.$.$.$.$.$.$.$.$.$.$.$.$.$.$.$.$.$.$.$.$.$.; / Q.e ( ~   > 4.4 X.u",
".$ C 0 n.$.$.$.$.$.$.$.$.$.$.$.$.$.$.$.$.$.$.$.$.$.$.$.$.$.$.$.$.$.$.$.$.$.$.$.$.$.$.$.$.$.$.$.$.$.$.$.5.i ' x.O > 4.s.< Z { Z.$",
".$.# A.$.$.$.$.$.$.$.$.$.$.$.$.$.$.$.$.$.$.$.$.$.$.$.$.$.$.$.$.$.$.$.$.$.$.$.$.$.$.$.$.$.$.$.$.5.5 | w.X.7.+ # J V.5 m 4 . p.$.$",
".$.9.@...... z.$.$.$.$.$.$.$.$.$.$.$.$.$.$.$.$.$.$.$.$.$.$.$.$.$.$.$.$.$.$.$.$.$.$.$.$ |.... 4 a * * * *.; *.... [ * R.$.$.$.$.$",
".$.% % ` ~.a * 4 4 ~ ! ! !.u.$.$.$.$.$.$.$.$.$.$.$.$.$.$.$ V ! ! ! ! ! ! ! [ 4 4 4 4 4.=.%.% Z & ! / 4 4 4 z.%.% e.$.$.$.$.$.$.$",
".$.$.$ g c.p 4 4 4 7 ~ ~ ~ 8 8 4 4 4 4 4 4 4 4 4 4 4 4 4 4 , ~ ~ ~ ~ ~ ~ ~ o G @ 4 4 4 4 4 4 K c c k.$.$.$.$.$.$.$.$.$.$.$.$.$.$",
".$.$.$.$.$.$.$.$.$.3 S S S S 9 u u u u u u u u u u u u u u _ S S S S S S S S S.0.$.$.$.$.$.$.$.$.$.$.$.$.$.$.$.$.$.$.$.$.$.$.$.$"
};
