/* XPM */
static char *hond-r[] = {
/* width height ncolors chars_per_pixel */
"64 46 173 2",
/* colors */
"   c #000000",
" . c #B1B1B1",
" X c #AFAFAF",
" o c #ADADAD",
" O c #A9A9A9",
" + c #A7A7A7",
" @ c #A5A5A5",
" # c #A3A3A3",
" $ c #A1A1A1",
" % c #9D9D9D",
" & c #9B9B9B",
" * c #999999",
" = c #979797",
" - c #959595",
" ; c #939393",
" : c #919191",
" > c #8F8F8F",
" , c #8B8B8B",
" < c #898989",
" 1 c #878787",
" 2 c #858585",
" 3 c #838383",
" 4 c #818181",
" 5 c #7F7F7F",
" 6 c #7D7D7D",
" 7 c #797979",
" 8 c #777777",
" 9 c #737373",
" 0 c #717171",
" q c #6F6F6F",
" w c #6D6D6D",
" e c #6B6B6B",
" r c #696969",
" t c #676767",
" y c #616161",
" u c #5F5F5F",
" i c #5B5B5B",
" p c #555555",
" a c #535353",
" s c #4D4D4D",
" d c #FEFEFE",
" f c #4B4B4B",
" g c #FCFCFC",
" h c #FAFAFA",
" j c #474747",
" k c #F8F8F8",
" l c #F6F6F6",
" z c #F4F4F4",
" x c #F2F2F2",
" c c #F0F0F0",
" v c #EEEEEE",
" b c #3B3B3B",
" n c #ECECEC",
" m c #EAEAEA",
" M c #E8E8E8",
" N c #E6E6E6",
" B c #333333",
" V c #E4E4E4",
" C c #313131",
" Z c #E2E2E2",
" A c #2F2F2F",
" S c #E0E0E0",
" D c #2D2D2D",
" F c #DEDEDE",
" G c #DCDCDC",
" H c #292929",
" J c #DADADA",
" K c #272727",
" L c #D6D6D6",
" P c #232323",
" I c #D4D4D4",
" U c #D2D2D2",
" Y c #D0D0D0",
" T c #CCCCCC",
" R c #191919",
" E c #C8C8C8",
" W c #C6C6C6",
" Q c #C4C4C4",
" ! c #111111",
" ~ c #C2C2C2",
" ^ c #BEBEBE",
" / c #BABABA",
" ( c #B8B8B8",
" ) c #B6B6B6",
" _ c #B4B4B4",
" ` c #ACACAC",
" ' c #AAAAAA",
" ] c #A8A8A8",
" [ c #A6A6A6",
" { c #A4A4A4",
" } c #A2A2A2",
" | c #A0A0A0",
".  c #9E9E9E",
".. c #9C9C9C",
".X c #969696",
".o c #929292",
".O c #909090",
".+ c #8E8E8E",
".@ c #8C8C8C",
".# c #8A8A8A",
".$ c #888888",
".% c #868686",
".& c #828282",
".* c #808080",
".= c #7E7E7E",
".- c #7C7C7C",
".; c #7A7A7A",
".: c #787878",
".> c #6E6E6E",
"., c #6C6C6C",
".< c #6A6A6A",
".1 c #646464",
".2 c #626262",
".3 c #5E5E5E",
".4 c #5A5A5A",
".5 c #585858",
".6 c #525252",
".7 c #4E4E4E",
".8 c #FFFFFF",
".9 c #4C4C4C",
".0 c #FDFDFD",
".q c #FBFBFB",
".w c #484848",
".e c #F9F9F9",
".r c #464646",
".t c #F7F7F7",
".y c #F5F5F5",
".u c #F3F3F3",
".i c #404040",
".p c #EFEFEF",
".a c #3C3C3C",
".s c #EDEDED",
".d c #3A3A3A",
".f c #EBEBEB",
".g c #E9E9E9",
".h c #E7E7E7",
".j c #343434",
".k c #E5E5E5",
".l c #323232",
".z c #E3E3E3",
".x c #303030",
".c c #E1E1E1",
".v c #2E2E2E",
".b c #DFDFDF",
".n c #2C2C2C",
".m c #DDDDDD",
".M c #2A2A2A",
".N c #DBDBDB",
".B c #282828",
".V c #D7D7D7",
".C c #D5D5D5",
".Z c #D3D3D3",
".A c #D1D1D1",
".S c #1E1E1E",
".D c #CFCFCF",
".F c #1C1C1C",
".G c #CDCDCD",
".H c #1A1A1A",
".J c #CBCBCB",
".K c #C9C9C9",
".L c #161616",
".P c #C7C7C7",
".I c #141414",
".U c #C5C5C5",
".Y c #C3C3C3",
".T c #101010",
".R c #BFBFBF",
".E c #BBBBBB",
".W c #080808",
".Q c #B9B9B9",
".! c #B7B7B7",
".~ c #B5B5B5",
".^ c #B3B3B3",
/* pixels */
".8.8.8.8.8.8.8.8.8.8.8.8.8.8.8.8.8.8.8.8.8.8.8.8.8.8.8.8.8.8.8.8.8.8.8.8.8.8.8.8.8.8.8.8.8.8.8.8.8.8 v | | 8 | X.8.8.8.8.8.8.8.8",
".8.8.8.8.8.8.8.8.8.8.8.8.8.8.8.8.8.8.8.8.8.8.8.8.8.8.8.8.8.8.8.8.8.8.8.8.8.8.8.8.8.8.8.8.8.8.8.8.0...< ^ ^.h ^ X u.:.8.8.8.8.8.8",
".8.8.8.8.8.8.8.8.8.8.8.8.8.8.8.8.8.8.8.8.8.8.8.8.8.8.8.8.8.8.8.8.8.8.8.8.8.8.8.8.8.8.8.8.8.8.8.8 $  .G.8.8.8.8.8.8 , 2.8.8.8.8.8",
".8.8.8.8.8.8.8.8.8.8.8.8.8.8.8.8.8.8.8.8.8.8.8.8.8.8.8.8.8.8.8.8.8.8.8.8.8.8.8.8.8.8.8.8.8.8.8 / } 6.G.8.8.0 G G P R.M.Y.J.8.8.8",
".8.8.8.8.8.8.8.8.8.8.8.8.8.8.8.8.8.8.8.8.8.8.8.8.8.8.8.8.8.8.8.8.8.8.8.8.8.8.8.8.8.8.8.8.8.8.8.= S :.G.8.8.y r.p & & J &.l.1.@.8",
".8.8.8.8.8.8.8.8.8.8.8.8.8.8.8.8.8.8.8.8.8.8.8.8.8.8.8.8.8.8.8.8.8.8.8.8.8.8.8.8.8.8.8.8.8.8 T.o.8 :.G.8.8.y r.8.8.8.8.8.q h.S.<",
".8.8.8.8.8.8.8.8.8.8.8.8.8.8.8.8.8.8.8.8.8.8.8.8.8.8.8.8.8.8.8.8.8.8.8.8.8.8.8.8.8.8.8.8.8 h 0 x.8 :.G.8.8.y r.8.8.8.8.8.8.8.S.T",
".8.8.8.8.8.8.8.8.8.8.8.8.8.8.8.8.8.8.8.8.8.8.8.8.8.8.8.8.8.8.8.8.8.8.8.8.8.8.8.8.8.8.8.8.8.G :.8.8 :.&.8.8.y r.8.8.8.8.8.8.8.S |",
".8.8.8.8.8.8.8.8.8.8.8.8.8.8.8.8.8.8.8.8.8.8.8.8.8.8.8.8.8.8.8.8.8.8.8.8.8.8.8.8.8.8.8.8.  w v.8.8 v s N.8.y r.8.8 q b.B.B.B.3 c",
".8.8.8.8.8.8.8.8.8.8.8.8.8.8.8.8.8.8.8.8.8.8.8.8.8.8.8.8.8.8.8.8.8.8.8.8.8.8.8.8.8.8.8.u 6.s.8.8.8.8.O.d r e 3 r r r.%.X.X.X.u.8",
".8.8.8.8.8.8.8.8.8.8.8.8.8.8.8.8.8.8.8.8.8.8.8.8.8.8.8.8.8.8.8.8.8.8.8.8.8.8.8.8.8.8.z w 9.8.8.8.8.8.0.y.y n H.Z.y.y.q.8.8.8.8.8",
".8.8.8.8.8.8.8.8.8.8.8.8.8.8.8.8.8.8.8.8.8.8.8.8.8.8.8.8.8.8.8.8.8.8.8.8.8.8 c.f.G u.r ].+ L.8.8.8.8.8.8.8 ,.Z.8.8.8.8.8.8.8.8.8",
".8.8.8.8.8.8.8.8.8.8.8.8.8.8.8.8.8.8.8.8.8.8.8 @.@.@.@.@.@.@.@.@.@.@.@.@.@.@.; 9 :.8.8. .@.-.@ k.8.8.8.8.m 4.8.8.8.8.8.8.8.8.8.8",
".8.8.8.8.8.8.8.8.8.8.8.8.8.8.8.8.8.8.8.8.A.K u.Q U U U U U U U U U U U U U U.u.8.8.8.8.q U.* y Q Y.8.8.8 #.E.8.8.8.8.8.8.8.8.8.8",
".8.8.8.8.8.8.8.8.8.8.8.8.8.8.8.8.8.8.8 X.+ -.8.8.8.8.8.8.8.8.8.8.8.8.8.8.8.8.8.8.8.8.8.8.8.g 6.j >.>.z.8 u.8.8.8.8.8.8.8.8.8.8.8",
".8.8.8.8.8.8.8.8.8.8.8.8.8.8.8.8.8 G q X d.8.8.8.8.8.8.8.8.8.8.8.8.8.8.8.8.8.8.8.8.8.8.8.8.8 l ~ -.Y.# X ,.8.8.8.8.8.8.8.8.8.8.8",
".8.8.8.8.8.8.8.8.8.8.8.8.8.8.8 h.h.a Y.8.8.8.8.8.8.8.8.8.8.8.8.8.8.8.8.8.8.8.8.8.8.8.8.8.8.8.8.8.R.l e.w.f.8.8.8.8.8.8.8.8.8.8.8",
".8.8.8.8.8.8.8.8.8.8.8.8.8.8.8.@ 8.8.8.8.8.8.8.8.8.8.8.8.8.8.8.8.8.8.8.8.8.8.8.8.8.8.8.8.8.8.8.8.8.8.k.l.f.8.8.8.8.8.8.8.8.8.8.8",
".8.8.8.8.8.8.8.8.8.8.8.8.8 J : L S.k.8.8.8.8.8.8.8.8.8.8.8.8.8.8.8.8.8.8.8.8.8.8.8.8.8.8.8.8.8.8.8.8.8 9.f.8.8.8.8.8.8.8.8.8.8.8",
" 9 9 9 9 E.8.8.8.8.8.8.. 9.$.G.Z.n ^.8.8.8.8.8.8.8.8.8.8.8.8.8.8.8.8.8.8.8.8.8.8.8.8.8.8.8.8.8.8.8.8.8 9.f.8.8.8.8.8.8.8.8.8.8.8",
" A 8.U.f.X u u u u u u ~.f ^ _ A /.8.8.8.8.8.8.8.8.8 Y.8.8.8.8.8.8.8.8.8.8.8.,.8.8.8.8.8.8.8.8.8.8.8.C.#.0.8.8.8.8.8.8.8.8.8.8.8",
".b ' 2.&.y.y g.8.8.8 g.y . % '.4.8.8.8.8.8.8.8.8.8 g i.8.8.8.8.8.8.8.8.8.8.8 u.8.8.8.8.8.8.8.8.8.8.8.G :.8.8.8.8.8.8.8.8.8.8.8.8",
".8.8.8 G r r.#.X.X.X 1 r o.8.8.* F.8.8.8.8.8.8.8.8.Q j.8.8.8.8.8.8.8.8.8.8.8 =.P.8.8.8.8.8.8.8.8.8.8 u.8.8.8.8.8.8.8.8.8.8.8.8.8",
".8.8.8.8.8.8.V E E E J.8.8.8.8 X X.8.8.8.8.8.8.8.8.r.^.8.8.8.8.8.8.8.8.8.8.8 N.:.8.8.8.8.8.8.8.8.8 O.~.8.8.8.8.8.8.8.8.8.8.8.8.8",
".8.8.8.8.8.8.8.8.8.8.8.8.8.8.8 X X.8.8.8.8.8.8.8.! +.8.8.8.8.8.8.8.8.8.8.8.8 N.:.8.8.8.8.8.8.8.8.t.= M.8.8.8.8.8.8.8.8.8.8.8.8.8",
".8.8.8.8.8.8.8.8.8.8.8.8.8.8.8.U *.8.8.8.8.8.8 X C J.Q.Q.p.8.8.8.8.8.8.8.8.8 N.:.8.8.8.8.8.8.8.g.7.X.8.8.8.8.8.8.8.8.8.8.8.8.8.8",
".8.8.8.8.8.8.8.8.8.8.8.8.8.8.8.8 u.8.8.8.8.8 (.x.C.Q e @ q u u u * h h h h h.y.&.k.8.8.8 h.; u [ 8.8.8.8.8.8.8.8.8.8.8.8.8.8.8.8",
".8.8.8.8.8.8.8.8.8.8.8.8.8.8.8 S.=.8.8.8.8 ) H F.8.Q @.8.8.8.8.8.U.1.1.1.1.1.@.6.V.8.8.f D V.8 X X.8.8.8.8.8.8.8.8.8.8.8.8.8.8.8",
".8.8.8.8.8.8.8.8.8.8.8.8.8.8.8.i /.8.8.8 / K G.8.8.Q @.8.8.8.8.8.8.8.8.8.8.8.Z t.V.8.8.f 9.8.8 { /.8.8.8.8.8.8.8.8.8.8.8.8.8.8.8",
".8.8.8.8.8.8.8.8.8.8.8.8.8.8.~ O.8.8 M 6.*.j.8.8.8 ,.Z.8.8.8.8.8.8.8.8.8.8.8.8 1.V.8.8.f 9.8.8 u.8.8.8.8.8.8.8.8.8.8.8.8.8.8.8.8",
".8.8.8.8.8.8.8.8.8.8.8.8.8 '.l z.8.8 w.c.. o.8.8.m 4.8.8.8.8.8.8.8.8.8.8.8.8.8 1.V.8.8 ~ 9.8.8 u.8.8.8.8.8.8.8.8.8.8.8.8.8.8.8.8",
".8.8.8.8.8.8.8.8.8.8.8.8.8.9 L.8.8 / { +.!.8.8 N 4 l.8.8.8.8.8.8.8.8.8.8.8.8.8 1.V.8.8 f 9.8.8 u.8.8.8.8.8.8.8.8.8.8.8.8.8.8.8.8",
".8.8.8.8.8.8.8.8.8.8.8.8.@ U.8.8 / {.8 9.f.8.X.1.8.8.8.8.8.8.8.8.8.8.8.8.8.8.8 1.V.8.8 f 9.8.> c.8.8.8.8.8.8.8.8.8.8.8.8.8.8.8.8",
".8.8.8.8.8.8.8.8.8.8.8.0 <.V v t {.8.8 9.f.8.X E.8.8.8.8.8.8.8.8.8.8.8.8.8.8.8 1.V.8.8 f 9.8.> c.8.8.8.8.8.8.8.8.8.8.8.8.8.8.8.8",
".8.8.8.8.8.8.8.8.8.8.8.f 9.8.> c.8.8.8 ( [.8.K -.8.8.8.8.8.8.8.8.8.8.8.8.8.8.8 1.V.8.8 p (.8.> c.8.8.8.8.8.8.8.8.8.8.8.8.8.8.8.8",
".8.8.8.8.8.8.8.8.8.8.8.f 9 I.@.0.8.8.8.8 9.f.8 u.8.8.8.8.8.8.8.8.8.8.8.8.8.8.8 1.V.8.8 u.8.8.> c.8.8.8.8.8.8.8.8.8.8.8.8.8.8.8.8",
".8.8.8.8.8.8.8.8.8.8.8.f 9.G :.8.8.8.8.8 _ '.8 ] ).8.8.8.8.8.8.8.8.8.8.8.8.8.8 1.V.8.8 u.8.8.> c.8.8.8.8.8.8.8.8.8.8.8.8.8.8.8.8",
".8.8.8.8.8.8.8.8.8.8.8.2 g.G :.8.8.8.8.8 _ '.8.V 1.8.8.8.8.8.8.8.8.8.8.8.8.8.8 1.V.8 `.L.8.8.> c.8.8.8.8.8.8.8.8.8.8.8.8.8.8.8.8",
".8.8.8.8.8.8.8.8.8.8.8 u.8.G :.8.8.8.8.8 m.& c.N.%.0.8.8.8.8.8.8.8.8.8.8.8.8.8 1.V.8 '.I.8.N 1.q.8.8.8.8.8.8.8.8.8.8.8.8.8.8.8.8",
".8.8.8.8.8.8.8.8.8.8.8 u.8.k 4 k.8.8.8.8.8.y r.8.: N.8.8.8.8.8.8.8.8.8.8.8.8.8 1.V.8 '.I.8.G :.8.8.8.8.8.8.8.8.8.8.8.8.8.8.8.8.8",
".8.8.8.8.8.8.8.8.8.8.8 u.8.8.> c.8.8.8.8.8.y r.8 m.$.K.8.8.8.8.8.8.8.8.8.8.8.8 1.V.8 '.I.8.G :.8.8.8.8.8.8.8.8.8.8.8.8.8.8.8.8.8",
".8.8.8.8.8.8.8.8.8.8.8 a o.8.Y &.8.8.8.8.8.q 3.b.8 Z - {.8.8.8.8.8.8.8.8.8.8.8 1 7.8 G.i.8 m.- l.8.8.8.8.8.8.8.8.8.8.8.8.8.8.8.8",
".8.8.8.8.8.8.8.8.8.8.8.k s c.8 W.o.D.8.8.8.8.Q B.V.Z >.%.i.8.8.8.8.8.8.8.8.8.8 h f G.8 n 4 c.e 5 X.8.8.8.8.8.8.8.8.8.8.8.8.8.8.8",
".8.8.8.8.8.8.8.8.8.8.8.e _ 6.f ;.Q >.Z.8.8.8.8 Q 1 u.v C.r.8.8.8.8.8.8.8.8.8.8.8 % ; d N.j W { * ! *.8.8.8.8.8.8.8.8.8.8.8.8.8.8",
".8.8.8.8.8.8.8.8.8.8.8.8.8.@.l.5.W.@ :.8.8.8.8.8.8.8.8.8.8.8.8.8.8.8.8.8.8.8.8.8.8 o ,.- 4.x.G B.-.>.8.8.8.8.8.8.8.8.8.8.8.8.8.8",
".8.8.8.8.8.8.8.8.8.8.8.8.8.8.k U U U l.8.8.8.8.8.8.8.8.8.8.8.8.8.8.8.8.8.8.8.8.8.8.8.+.F.I.W.H !. .k.8.8.8.8.8.8.8.8.8.8.8.8.8.8"
};
