/* XPM */
static char *hond-r[] = {
/* width height ncolors chars_per_pixel */
"64 46 182 2",
/* colors */
"   c #000000",
" . c #B1B1B1",
" X c #AFAFAF",
" o c #ADADAD",
" O c #ABABAB",
" + c #A9A9A9",
" @ c #A7A7A7",
" # c #A5A5A5",
" $ c #A3A3A3",
" % c #A1A1A1",
" & c #9F9F9F",
" * c #9D9D9D",
" = c #9B9B9B",
" - c #999999",
" ; c #979797",
" : c #959595",
" > c #939393",
" , c #919191",
" < c #8F8F8F",
" 1 c #8D8D8D",
" 2 c #8B8B8B",
" 3 c #878787",
" 4 c #858585",
" 5 c #838383",
" 6 c #818181",
" 7 c #7F7F7F",
" 8 c #7D7D7D",
" 9 c #7B7B7B",
" 0 c #797979",
" q c #777777",
" w c #757575",
" e c #737373",
" r c #717171",
" t c #6F6F6F",
" y c #6D6D6D",
" u c #6B6B6B",
" i c #636363",
" p c #616161",
" a c #5F5F5F",
" s c #5D5D5D",
" d c #5B5B5B",
" f c #595959",
" g c #575757",
" h c #515151",
" j c #4D4D4D",
" k c #FEFEFE",
" l c #4B4B4B",
" z c #FCFCFC",
" x c #FAFAFA",
" c c #474747",
" v c #F8F8F8",
" b c #F6F6F6",
" n c #434343",
" m c #F2F2F2",
" M c #F0F0F0",
" N c #3D3D3D",
" B c #EEEEEE",
" V c #3B3B3B",
" C c #ECECEC",
" Z c #EAEAEA",
" A c #E8E8E8",
" S c #E6E6E6",
" D c #333333",
" F c #E4E4E4",
" G c #313131",
" H c #E2E2E2",
" J c #2F2F2F",
" K c #E0E0E0",
" L c #2D2D2D",
" P c #DEDEDE",
" I c #DCDCDC",
" U c #292929",
" Y c #D8D8D8",
" T c #D6D6D6",
" R c #D2D2D2",
" E c #D0D0D0",
" W c #CECECE",
" Q c #CCCCCC",
" ! c #C8C8C8",
" ~ c #C6C6C6",
" ^ c #C4C4C4",
" / c #C2C2C2",
" ( c #C0C0C0",
" ) c #BEBEBE",
" _ c #BCBCBC",
" ` c #BABABA",
" ' c #B8B8B8",
" ] c #B6B6B6",
" [ c #B4B4B4",
" { c #B2B2B2",
" } c #B0B0B0",
" | c #ACACAC",
".  c #AAAAAA",
".. c #A8A8A8",
".X c #A6A6A6",
".o c #A4A4A4",
".O c #A2A2A2",
".+ c #A0A0A0",
".@ c #9E9E9E",
".# c #9C9C9C",
".$ c #989898",
".% c #969696",
".& c #929292",
".* c #909090",
".= c #8C8C8C",
".- c #8A8A8A",
".; c #888888",
".: c #868686",
".> c #848484",
"., c #828282",
".< c #808080",
".1 c #7E7E7E",
".2 c #7C7C7C",
".3 c #7A7A7A",
".4 c #787878",
".5 c #767676",
".6 c #747474",
".7 c #727272",
".8 c #707070",
".9 c #6E6E6E",
".0 c #6C6C6C",
".q c #6A6A6A",
".w c #686868",
".e c #646464",
".r c #606060",
".t c #5C5C5C",
".y c #5A5A5A",
".u c #525252",
".i c #4E4E4E",
".p c #FFFFFF",
".a c #4C4C4C",
".s c #FDFDFD",
".d c #4A4A4A",
".f c #FBFBFB",
".g c #484848",
".h c #F9F9F9",
".j c #464646",
".k c #F7F7F7",
".l c #444444",
".z c #F5F5F5",
".x c #424242",
".c c #F3F3F3",
".v c #404040",
".b c #F1F1F1",
".n c #EFEFEF",
".m c #EDEDED",
".M c #3A3A3A",
".N c #EBEBEB",
".B c #E9E9E9",
".V c #363636",
".C c #E7E7E7",
".Z c #343434",
".A c #E5E5E5",
".S c #323232",
".D c #E3E3E3",
".F c #E1E1E1",
".G c #DFDFDF",
".H c #2C2C2C",
".J c #DDDDDD",
".K c #DBDBDB",
".L c #282828",
".P c #D9D9D9",
".I c #D7D7D7",
".U c #D5D5D5",
".Y c #D3D3D3",
".T c #202020",
".R c #D1D1D1",
".E c #CFCFCF",
".W c #CBCBCB",
".Q c #C9C9C9",
".! c #C7C7C7",
".~ c #C5C5C5",
".^ c #C3C3C3",
"./ c #C1C1C1",
".( c #BFBFBF",
".) c #0C0C0C",
"._ c #BDBDBD",
".` c #BBBBBB",
".' c #B9B9B9",
".] c #060606",
".[ c #B7B7B7",
".{ c #B3B3B3",
/* pixels */
".p.p.p.p.p.p.p.p.p.p.p.p.p.p.p.p.p.p.p.p.p.p.p.p.p.p.p.p.p.p.p.p.p.p.p.p.p.p.p.p.p.p.p.p.p.p.p.p.p.p.p.p.p /.p.p.p.p.p.p.p.p.p.p",
".p.p.p.p.p.p.p.p.p.p.p.p.p.p.p.p.p.p.p.p.p.p.p.p.p.p.p.p.p.p.p.p.p.p.p.p.p.p.p.p.p.p.p.p.p.p.p.p.p.D.o.e.e.+.e %.Y.c.p.p.p.p.p.p",
".p.p.p.p.p.p.p.p.p.p.p.p.p.p.p.p.p.p.p.p.p.p.p.p.p.p.p.p.p.p.p.p.p.p.p.p.p.p.p.p.p.p.p.p.p.p.p.p.K L ).p.p.p.p /.r.[.p.p.p.p.p.p",
".p.p.p.p.p.p.p.p.p.p.p.p.p.p.p.p.p.p.p.p.p.p.p.p.p.p.p.p.p.p.p.p.p.p.p.p.p.p.p.p.p.p.p.p.p.p.p T.q.L.p.p.p.p.p.E $.Z.:.p.p.p.p.p",
".p.p.p.p.p.p.p.p.p.p.p.p.p.p.p.p.p.p.p.p.p.p.p.p.p.p.p.p.p.p.p.p.p.p.p.p.p.p.p.p.p.p.p.p.p.p.s 4 K.e.p.p.p.'.Y 4.T G.* d |.G x.p",
".p.p.p.p.p.p.p.p.p.p.p.p.p.p.p.p.p.p.p.p.p.p.p.p.p.p.p.p.p.p.p.p.p.p.p.p.p.p.p.p.p.p.p.p.p.p.N.4.p.e.p.p.p &.^.p.p.p.p I 5.g 3.p",
".p.p.p.p.p.p.p.p.p.p.p.p.p.p.p.p.p.p.p.p.p.p.p.p.p.p.p.p.p.p.p.p.p.p.p.p.p.p.p.p.p.p.p.p.p.p.8 m.p.e.p.p.p &.^.p.p.p.p.p.p 2.]..",
".p.p.p.p.p.p.p.p.p.p.p.p.p.p.p.p.p.p.p.p.p.p.p.p.p.p.p.p.p.p.p.p.p.p.p.p.p.p.p.p.p.p.p.p.p.W.$.p.p i.c.p.p &.^.p.p.p.p.p.p 2 U.F",
".p.p.p.p.p.p.p.p.p.p.p.p.p.p.p.p.p.p.p.p.p.p.p.p.p.p.p.p.p.p.p.p.p.p.p.p.p.p.p.p.p.p.p.p./ 5.U.p.p #.0.p.p &.^.p Y 3 3 3 3.d 4.p",
".p.p.p.p.p.p.p.p.p.p.p.p.p.p.p.p.p.p.p.p.p.p.p.p.p.p.p.p.p.p.p.p.p.p.p.p.p.p.p.p.p.p.p.k.1.I.p.p.p.h.Z.O.( < %.(.{ ,.v.v.v.:.h.p",
".p.p.p.p.p.p.p.p.p.p.p.p.p.p.p.p.p.p.p.p.p.p.p.p.p.p.p.p.p.p.p.p.p.p.p.p.p.p.p.p.p.p z 7 5.p.p.p.p.p Y $ $.;.Z $ $ o.p.p.p.p.p.p",
".p.p.p.p.p.p.p.p.p.p.p.p.p.p.p.p.p.p.p.p.p.p.p.p.p.p.p.p.p.p.p.p.p.p.p.p.p.p.p.p C >.r +.<.z.p.p.p.p.p.p.p.:.J.p.p.p.p.p.p.p.p.p",
".p.p.p.p.p.p.p.p.p.p.p.p.p.p.p.p.p.p.p.p.p.p.p.c.W.W.W.W.W.W.W.W.W.W.W.W.W.W.=.e.5.E.E 1 {.;.E.p.p.p.p.p K.,.p.p.p.p.p.p.p.p.p.p",
".p.p.p.p.p.p.p.p.p.p.p.p.p.p.p.p.p.p.p.p.p.p.` e ; ; ; ; ; ; ; ; ; ; ; ; ; ; T.p.p.p.p m ;.3 n.p.p.p.p.p.w.f.p.p.p.p.p.p.p.p.p.p",
".p.p.p.p.p.p.p.p.p.p.p.p.p.p.p.p.p.p.p.p -.e.. z.p.p.p.p.p.p.p.p.p.p.p.p.p.p.p.p.p.p.p.p.p.E.1 G e.O.p Q ;.p.p.p.p.p.p.p.p.p.p.p",
".p.p.p.p.p.p.p.p.p.p.p.p.p.p.p.p.p.p T.e.Q.p.p.p.p.p.p.p.p.p.p.p.p.p.p.p.p.p.p.p.p.p.p.p.p.p T.% ' { :.{...p.p.p.p.p.p.p.p.p.p.p",
".p.p.p.p.p.p.p.p.p.p.p.p.p.p.p.p.p.R N.p.p.p.p.p.p.p.p.p.p.p.p.p.p.p.p.p.p.p.p.p.p.p.p.p.p.p.p.p 0.d.1.i.p.p.p.p.p.p.p.p.p.p.p.p",
".p.p.p.p.p.p.p.p.p.p.p.p.p.p.p m.>.&.b.p.p.p.p.p.p.p.p.p.p.p.p.p.p.p.p.p.p.p.p.p.p.p.p.p.p.p.p.p.f.n [ c.p.p.p.p.p.p.p.p.p.p.p.p",
".p.p.p.p.p.p.p.p.p.p.p.p.p.p.D < P.A.k.p.p.p.p.p.p.p.p.p.p.p.p.p.p.p.p.p.p.p.p.p.p.p.p.p.p.p.p.p.p.p.p.e.p.p.p.p.p.p.p.p.p.p.p.p",
".p.#.<.<.<./.p.p.p.p.p.p.$.<.<.F `.S.K.p.p.p.p.p.p.p.p.p.p.p.p.p.p.p.p.p.p.p.p.p.p.p.p.p.p.p.p.p.p.p.p.e.p.p.p.p.p.p.p.p.p.p.p.p",
".p.e g [.D.O.e.e.e.e.e.e.W.D ' &.Z.D.p.p.p.p.p.p.p.p m.F.p.p.p.p.p.p.p.p.p.p w.p.p.p.p.p.p.p.p.p.p.p &.^.p.p.p.p.p.p.p.p.p.p.p.p",
".p.b O > w.n.n x.p.p.p v.n.#. .* 2.p.p.p.p.p.p.p.p.p.~ >.p.p.p.p.p.p.p.p.p.p.e.p.p.p.p.p.p.p.p.p.p.p , R.p.p.p.p.p.p.p.p.p.p.p.p",
".p.p.p.p B.6.6.> 2 2 2 6.6.!.p.B 6 v.p.p.p.p.p.p.p.p.d ^.p.p.p.p.p.p.p.p.p.p.  '.p.p.p.p.p.p.p.p.p.k.0.p.p.p.p.p.p.p.p.p.p.p.p.p",
".p.p.p.p.p.p.p F.I.I.I A.p.p.p.p.6.n.p.p.p.p.p.p.p.. s.p.p.p.p.p.p.p.p.p.p.p.p.e.p.p.p.p.p.p.p.p.p 9 A.p.p.p.p.p.p.p.p.p.p.p.p.p",
".p.p.p.p.p.p.p.p.p.p.p.p.p.p.p.p.6.n.p.p.p.p.p.p x.3 C.p.p.p.p.p.p.p.p.p.p.p.p.e.p.p.p.p.p.p.p.p.U 2.p.p.p.p.p.p.p.p.p.p.p.p.p.p",
".p.p.p.p.p.p.p.p.p.p.p.p.p.p.p.p | ].p.p.p.p.p.C.M # | ; _.p.p.p.p.p.p.p.p.p.p.e.p.p.p.p.p.p.p W J.Q.p.p.p.p.p.p.p.p.p.p.p.p.p.p",
".p.p.p.p.p.p.p.p.p.p.p.p.p.p.p.p.p.e.p.p.p.p.B l.&.p.y.W.X.e.e.e.9.E.E.E.E.E C.*.Y.p.p.h.E.9.8 3.`.p.p.p.p.p.p.p.p.p.p.p.p.p.p.p",
".p.p.p.p.p.p.p.p.p.p.p.p.p.p.p.p X [.p.p.p b V :.p.p.e.p.p.p.p.p.z > > > > > 9.x.!.p.p.G.a.z.p 3.K.p.p.p.p.p.p.p.p.p.p.p.p.p.p.p",
".p.p.p.p.p.p.p.p.p.p.p.p.p.p.p Y.V.z.p.p.A.7.8 k.p.p.e.p.p.p.p.p.p.p.p.p.p.p x ;.!.p.p.G 5.p v., A.p.p.p.p.p.p.p.p.p.p.p.p.p.p.p",
".p.p.p.p.p.p.p.p.p.p.p.p.p.p m.4 H.p.f.+.1.w 3.p.p . ..p.p.p.p.p.p.p.p.p.p.p.p =.!.p.p.G 5.p.N.4.p.p.p.p.p.p.p.p.p.p.p.p.p.p.p.p",
".p.p.p.p.p.p.p.p.p.p.p.p.p.p j.3.p.p.D.<.P.-.p.p.s.1.C.p.p.p.p.p.p.p.p.p.p.p.p =.!.p.p 1 5.p.N.4.p.p.p.p.p.p.p.p.p.p.p.p.p.p.p.p",
".p.p.p.p.p.p.p.p.p.p.p.p.p E.= x.p.A.;.z.q v.p _.,.c.p.p.p.p.p.p.p.p.p.p.p.p.p =.!.p.p.l 5.p./.O.p.p.p.p.p.p.p.p.p.p.p.p.p.p.p.p",
".p.p.p.p.p.p.p.p.p.p.p.p.p.w.f.f.C.: Z.p.e.p.p.u.D.p.p.p.p.p.p.p.p.p.p.p.p.p.p =.!.p.p.l 5.p.e.p.p.p.p.p.p.p.p.p.p.p.p.p.p.p.p.p",
".p.p.p.p.p.p.p.p.p.p.p.p S 7.s &.2.k.p.p.e.p.p.e.p.p.p.p.p.p.p.p.p.p.p.p.p.p.p =.!.p.p.l 5.p.e.p.p.p.p.p.p.p.p.p.p.p.p.p.p.p.p.p",
".p.p.p.p.p.p.p.p.p.p.p.p.W ; S 8.p.p.p.p o ].p.[ O.p.p.p.p.p.p.p.p.p.p.p.p.p.p =.!.p.p.r M.p.e.p.p.p.p.p.p.p.p.p.p.p.p.p.p.p.p.p",
".p.p.p.p.p.p.p.p.p.p.p.p.W ; &.^.p.p.p.p S.2.p ~ *.p.p.p.p.p.p.p.p.p.p.p.p.p.p =.!.p.p.e.p.p.e.p.p.p.p.p.p.p.p.p.p.p.p.p.p.p.p.p",
".p.p.p.p.p.p.p.p.p.p.p.p.@.~ &.^.p.p.p.p.p.e.p.p.e.p.p.p.p.p.p.p.p.p.p.p.p.p.p =.!.p.P.j.p.p.e.p.p.p.p.p.p.p.p.p.p.p.p.p.p.p.p.p",
".p.p.p.p.p.p.p.p.p.p.p.p.e.p &.^.p.p.p.p.p., K.p.e.p.p.p.p.p.p.p.p.p.p.p.p.p.p =.!.p @.T.p B.6.p.p.p.p.p.p.p.p.p.p.p.p.p.p.p.p.p",
".p.p.p.p.p.p.p.p.p.p.p.p.e.p &.^.p.p.p.p.p.h.,.C ( $.p.p.p.p.p.p.p.p.p.p.p.p.p =.!.p @.T.p.{ X.p.p.p.p.p.p.p.p.p.p.p.p.p.p.p.p.p",
".p.p.p.p.p.p.p.p.p.p.p.p.e.p.p.e.p.p.p.p.p.p 2.I.s.3.N.p.p.p.p.p.p.p.p.p.p.p.p =.!.p @.T.p.{ X.p.p.p.p.p.p.p.p.p.p.p.p.p.p.p.p.p",
".p.p.p.p.p.p.p.p.p.p.p.p d.m.p.4.N.p.p.p.p.p &.^.p A.4.o k.p.p.p.p.p.p.p.p.p.p = |.p ].H.p (.O.p.p.p.p.p.p.p.p.p.p.p.p.p.p.p.p.p",
".p.p.p.p.p.p.p.p.p.p.p.p 3 ;.p B.1 b.p.p.p.p.p.x.Q.p.. ) r.K.p.p.p.p.p.p.p.p.p.Y l.p.p + `.p }.{.p.p.p.p.p.p.p.p.p.p.p.p.p.p.p.p",
".p.p.p.p.p.p.p.p.p.p.p.p.J a.!.b.R y.@.p.p.p.p.R p @ 5.) a.(.p.p.p.p.p.p.p.p.p.p t :.p.c h A ! 3 D.G.p.p.p.p.p.p.p.p.p.p.p.p.p.p",
".p.p.p.p.p.p.p.p.p.p.p.p.p.p N f u q.. {.p.p.p.p k.`.`.`.` B.p.p.p.p.p.p.p.p.p.p.c.-.P.=.t t._ D i $.p.p.p.p.p.p.p.p.p.p.p.p.p.p",
".p.p.p.p.p.p.p.p.p.p.p.p.p.p.p.+ 5 5 ,.p.p.p.p.p.p.p.p.p.p.p.p.p.p.p.p.p.p.p.p.p.p.p.t.a.v.).a.M., R.p.p.p.p.p.p.p.p.p.p.p.p.p.p",
".p.p.p.p.p.p.p.p.p.p.p.p.p.p.p.p.p.p.p.p.p.p.p.p.p.p.p.p.p.p.p.p.p.p.p.p.p.p.p.p.p.p @          .K.p.p.p.p.p.p.p.p.p.p.p.p.p.p.p"
};
