/* XPM */
static char *jurk-r[] = {
/* width height ncolors chars_per_pixel */
"55 64 209 2",
/* colors */
"   c #000000",
" . c #B1B1B1",
" X c #AFAFAF",
" o c #ADADAD",
" O c #ABABAB",
" + c #A9A9A9",
" @ c #A7A7A7",
" # c #A5A5A5",
" $ c #A3A3A3",
" % c #A1A1A1",
" & c #9F9F9F",
" * c #9D9D9D",
" = c #9B9B9B",
" - c #999999",
" ; c #979797",
" : c #959595",
" > c #939393",
" , c #919191",
" < c #8F8F8F",
" 1 c #8D8D8D",
" 2 c #8B8B8B",
" 3 c #898989",
" 4 c #878787",
" 5 c #838383",
" 6 c #818181",
" 7 c #7F7F7F",
" 8 c #7D7D7D",
" 9 c #7B7B7B",
" 0 c #797979",
" q c #777777",
" w c #757575",
" e c #737373",
" r c #717171",
" t c #6F6F6F",
" y c #6D6D6D",
" u c #6B6B6B",
" i c #696969",
" p c #656565",
" a c #636363",
" s c #616161",
" d c #5F5F5F",
" f c #5D5D5D",
" g c #5B5B5B",
" h c #595959",
" j c #575757",
" k c #555555",
" l c #535353",
" z c #515151",
" x c #4F4F4F",
" c c #4D4D4D",
" v c #FEFEFE",
" b c #4B4B4B",
" n c #FCFCFC",
" m c #494949",
" M c #FAFAFA",
" N c #474747",
" B c #F8F8F8",
" V c #F6F6F6",
" C c #F4F4F4",
" Z c #414141",
" A c #F2F2F2",
" S c #3F3F3F",
" D c #F0F0F0",
" F c #3D3D3D",
" G c #EEEEEE",
" H c #3B3B3B",
" J c #ECECEC",
" K c #393939",
" L c #EAEAEA",
" P c #E8E8E8",
" I c #353535",
" U c #E6E6E6",
" Y c #333333",
" T c #E4E4E4",
" R c #313131",
" E c #E2E2E2",
" W c #2F2F2F",
" Q c #E0E0E0",
" ! c #2D2D2D",
" ~ c #DEDEDE",
" ^ c #DCDCDC",
" / c #DADADA",
" ( c #D8D8D8",
" ) c #252525",
" _ c #D6D6D6",
" ` c #232323",
" ' c #D4D4D4",
" ] c #212121",
" [ c #D2D2D2",
" { c #1F1F1F",
" } c #D0D0D0",
" | c #1D1D1D",
".  c #CECECE",
".. c #CACACA",
".X c #171717",
".o c #151515",
".O c #C6C6C6",
".+ c #C4C4C4",
".@ c #111111",
".# c #C2C2C2",
".$ c #0F0F0F",
".% c #C0C0C0",
".& c #0D0D0D",
".* c #BEBEBE",
".= c #090909",
".- c #BABABA",
".; c #B8B8B8",
".: c #050505",
".> c #B6B6B6",
"., c #B4B4B4",
".< c #B2B2B2",
".1 c #B0B0B0",
".2 c #ACACAC",
".3 c #AAAAAA",
".4 c #A8A8A8",
".5 c #A6A6A6",
".6 c #A4A4A4",
".7 c #A2A2A2",
".8 c #A0A0A0",
".9 c #9E9E9E",
".0 c #9C9C9C",
".q c #9A9A9A",
".w c #989898",
".e c #969696",
".r c #949494",
".t c #8E8E8E",
".y c #8C8C8C",
".u c #8A8A8A",
".i c #888888",
".p c #868686",
".a c #848484",
".s c #828282",
".d c #808080",
".f c #7E7E7E",
".g c #7C7C7C",
".h c #7A7A7A",
".j c #767676",
".k c #727272",
".l c #6E6E6E",
".z c #6C6C6C",
".x c #6A6A6A",
".c c #666666",
".v c #646464",
".b c #606060",
".n c #5E5E5E",
".m c #5C5C5C",
".M c #5A5A5A",
".N c #585858",
".B c #545454",
".V c #4E4E4E",
".C c #FFFFFF",
".Z c #4C4C4C",
".A c #FDFDFD",
".S c #4A4A4A",
".D c #FBFBFB",
".F c #484848",
".G c #F9F9F9",
".H c #F7F7F7",
".J c #F5F5F5",
".K c #424242",
".L c #F3F3F3",
".P c #404040",
".I c #F1F1F1",
".U c #3E3E3E",
".Y c #EFEFEF",
".T c #EDEDED",
".R c #3A3A3A",
".E c #EBEBEB",
".W c #E9E9E9",
".Q c #E7E7E7",
".! c #343434",
".~ c #E5E5E5",
".^ c #323232",
"./ c #303030",
".( c #E1E1E1",
".) c #2E2E2E",
"._ c #DFDFDF",
".` c #DDDDDD",
".' c #2A2A2A",
".] c #282828",
".[ c #262626",
".{ c #D7D7D7",
".} c #242424",
".| c #D5D5D5",
"X  c #D3D3D3",
"X. c #202020",
"XX c #D1D1D1",
"Xo c #1E1E1E",
"XO c #CFCFCF",
"X+ c #1C1C1C",
"X@ c #CDCDCD",
"X# c #1A1A1A",
"X$ c #CBCBCB",
"X% c #181818",
"X& c #C9C9C9",
"X* c #161616",
"X= c #C7C7C7",
"X- c #121212",
"X; c #C3C3C3",
"X: c #C1C1C1",
"X> c #BFBFBF",
"X, c #0C0C0C",
"X< c #BDBDBD",
"X1 c #0A0A0A",
"X2 c #BBBBBB",
"X3 c #B9B9B9",
"X4 c #060606",
"X5 c #B7B7B7",
"X6 c #020202",
/* pixels */
".C.C.C.C.C.C.C.C.C.C.C.C.C.CX=.*.*.*.*.z Z Z.o F Z Z g.*.* % Z Z.@ Z SX- Z.X.*.*.L.C.C.C.C.C.C.C.C.C.C.C.C.C.C",
".C.C.C.C.C.C.C.C.C.C.C.C [ 8.@./.s.$.! '.C.C l G.C.C.~.s.s &.C.C.K.C.G ` 8 6.M   t.C.C.C.C.C.C.C.C.C.C.C.C.C.C",
".C.C.C.C.C.C.C.C.C.C n.G.6X6 + /.C | p.C.C.C l G.C.C.C.C.C.C.C.C % H } 1  ...T.+.- H o.C.C.C.C.C.C.C.C.C.C.C.C",
".C.C.C.C.C.C.C.C.C P.j N 4 p ^.C.C | p.C.C.C l G.C.C.C.C.C.C.C.CX<  .+X5  ...C.C.T.X 3X>.C.C.C.C.C.C.C.C.C.C.C",
".C.C.C.C.C.C.C.C.C.2.r.C.C p ^.C.C | p.C.C.C l G.C.C.C.C.C.C.C.CX<  .+X5  ...C.C.T.B.-.p @.C.C.C.C.C.C.C.C.C.C",
".C.C.C.C.C.C.C B U.c.W.C.C._.S.d.C } <X3.C.C l G.C.C.C.C.C.C.C.CX5X,X=X5  ...C.C j.m.C PX#.1.C.C.C.C.C.C.C.C.C",
".C.C.C.C.C.C.C r.: 4.C.C.C.C ` d.C.C.q.5.C.C 4 O '.C.C.C.C.C.C.C.K.C.CX5  ...C.C Z.C.C.C # =.C.C.C.C.C.C.C.C.C",
".C.C.C.C.C.C ' 6.e.C.C.C.C.C ` d.C.C [ 9 A.C.C.e 6 r.G.C.C ~ r r O.C.CX5  ...C.C Z.C.C.C.{.g.s.C.C.C.C.C.C.C.C",
".C.C.C.C.C.J.[.e.C.C.C.C.C.C Y |.<.C.C.v F 3.T.T (.* K Z.! z.*.*.T.T P.m }.J.C.C Z.C.C.C.C.vX+ C.C.C.C.C.C.C.C",
".C.C.C.C.C.L c.C.C.C.C.C.C.C.C.8.8.C.C.C.CX5 l l l l q.C 5 l l l l l l 5.C.C.C.C Z.C.C.C.C ; m.b.C.C.C.C.C.C.C",
".C.C.C.C.1.c c.C.C.C.C.C.C.C.C.8.8.C.C.C.C.C.C.C.C.C.C.C.C.C.C.C.C.C.C.C.C.C.C.C Z.C.C.C.C.C.(.b.C.C.C.C.C.C.C",
".C.C.C.C qX1 E.C.C.C.C.C.C.C.C.8.8.C.C.C.C.C.C.C.C.C.C.C.C.C.C.C.C.C.C.C.C.C.C.CXX t.C.C.C.C M :.1.C.C.C.C.C.C",
".C.C.C.C.5 fX:.C.C.C.C.C.C.C.< 3X:.C.C.C.C.C.C.C.C.C.C.C.C.C.C.C.C.C.C.C.C.C.C.C.T.B.C.C.C.C.C & %.C.C.C.C.C.C",
".C.C.C.C.C.L {X2.C.C.C.C.C.C ` d.C.C.C.C.C.C.C.C.C.C.C.C.C.C.C.C.C.C.C.C.C.C.C.C.T ]X>.C.C.C.C & %.C.C.C.C.C.C",
".C.C.C.C.C.A.7.^.Z.(.( M.C.C ` d.C.C.C.C.C.C.C.C.C.C.C.C.C.C.C.C.C.C.C.C.C.C.C.C n.r :.C.C.T.( 1 %.C.C.C.C.C.C",
".C.C.C.C.C.C.C.C C d d :.8.8X* d.C.C.C.C.C.C.C.C.C.C.C.C.C.C.C.C.C.C.C.C.C.C.C.C.C O f.8.8 0 d d.+.C.C.C.C.C.C",
".C.C.C.C.C.C.C.C.C.C.C X.8.8X* d.C.C.C.C.C.C.C.C.C.C.C.C.C.C.C.C.C.C.C.C.C.C.C.C.C O f.8.8 /.C.C.C.C.C.C.C.C.C",
".C.C.C.C.C.C.C.C.C.C.C.C.C.C ` d.C.C.C.C.C.C.C.C.C.C.C.C.C.C.C.C.C.C.C.C.C.C.C.C.Y.n.L.C.C.C.C.C.C.C.C.C.C.C.C",
".C.C.C.C.C.C.C.C.C.C.C.C.C.C ` d.C.C.C.C $.+.C.C.C.C.C.C.C.C.C.C.,.C.C.C.C.C.C.C.T.B.C.C.C.C.C.C.C.C.C.C.C.C.C",
".C.C.C.C.C.C.C.C.C.C.C.C.C.C ` d.C.C.C.C.X u.C.C.C.C.C.C.C.C.C.C.K.C.C.C.C.C.C.C.T.B.C.C.C.C.C.C.C.C.C.C.C.C.C",
".C.C.C.C.C.C.C.C.C.C.C.C.C.C ` d.C.C.C.C.U.k.I.C.C.C.C.C.C.C.C.C.K.C v.(.C.C.C.C z D.C.C.C.C.C.C.C.C.C.C.C.C.C",
".C.C.C.C.C.C.C.C.C.C.C.C.C.C.d.h.{.C.C.C.C.r.2.C.C., M.C.C.C.C.C.K.C.2 :.C.C.C.C Z.C.C.C.C.C.C.C.C.C.C.C.C.C.C",
".C.C.C.C.C.C.C.C.C.C.C.C.C.C.C.8.8.C.C.C.C.r.2.C.C c C.C.C.C.C.C : lX#.C.C.C.C.C Z.C.C.C.C.C.C.C.C.C.C.C.C.C.C",
".C.C.C.C.C.C.C.C.C.C.C.C.C.C.C.G 6.X.mXOXO.y = n :.2 v.C.C.C.C.CX<  .'.C.C.C.>.@X=.C.C.C.C.C.C.C.C.C.C.C.C.C.C",
".C.C.C.C.C.C.C.C.C.C.C.C.C.C.C.C.C | ! r r 8.).a x a.5.C.C.C.C O i   y.t.t.t a   }.C.C.C.C.C.C.C.C.C.C.C.C.C.C",
".C.C.C.C.C.C.C.C.C.C.C.C.C.C.C.C.C | p.C.C._.<.<.<.< * c c c c.w.<.<.<.<.<.<.g   }.C.C.C.C.C.C.C.C.C.C.C.C.C.C",
".C.C.C.C.C.C.C.C.C.C.C.C.C.C.C.C.` N.R Z Z.' W.$ dX&X=.*.*.*.*.OX&X&.b Z Z Z !   }.C.C.C.C.C.C.C.C.C.C.C.C.C.C",
".C.C.C.C.C.C.C.C.C.C.C.C.C.C.C.C d E.C.C.C.r.2.@ I q q q qXo q q.N  .z.C.C.C _ q 1.C.C.C.C.C.C.C.C.C.C.C.C.C.C",
".C.C.C.C.C.C.C.C.C.C.C.C.C.C.C.-.t.H.C.C.N.j P.@ r.C.C.C.h.O.C.C.T.; R.C.C.C.C.C Z.C.C.C.C.C.C.C.C.C.C.C.C.C.C",
".C.C.C.C.C.C.C.C.C.C.C.C.C.C.].b.A.C.C.C.X u.C.@ r.C.C.C N M.C.C.C.C.J b.C.C.C.C.W j.C.C.C.C.C.C.C.C.C.C.C.C.C",
".C.C.C.C.C.C.C.C.C.C.C.C.C.C ` d.C.C.C o 8.,.C.@ r.C.C.C N M.C.C.C.C.G.F.C.C.C.C V 7X$.C.C.C.C.C.C.C.C.C.C.C.C",
".C.C.C.C.C.C.C.C.C.C.C.C.C.y o _.C.C.C h P.C.C.@ r.C.C.C N M.C.C.C.C.A = Z (.C.C.C O :.C.C.C.C.C.C.C.C.C.C.C.C",
".C.C.C.C.C.C.C.C.C.C.C.C.5.q.C.C.C.C.~ y G.C.C.@ r.CX&  .;.C.C.C.C.C.CX5  ...C.C.C.C.xX%.C.C.C.C.C.C.C.C.C.C.C",
".C.C.C.C.C.C.C.C.C.C.C ,.f. .C.C.C.C.q.5.C.C.C.@ r.CX&  .;.C.C.C.C.C.C ^ 5.a.C.C.C.C.xX%.C.C.C.C.C.C.C.C.C.C.C",
".C.C.C.C.C.C.C.C.C.C n ! f.C.C.C.C M -.4.C.C.C.@ r.CX&  .;.C.C.C.C.C.C.C.C.. q.C.C.C.l |.D.C.C.C.C.C.C.C.C.C.C",
".C.C.C.C.C.C.C.C.C P.j.(.C.C.C.C.C | p.C.C.C.C k -.CX&  .;.C.C.C.C.C.C.C.C.L.V.C.C.C.C.Q.M.C.C.C.C.C.C.C.C.C.C",
".C.C.C.C.C.C.C.C.C.2.r.C.C.C.C.C.C | p.C.C.C.C.C.C.CX&  .;.C.C.C.C.C.C.C.C.L.V.C.C.C.C C.sX&.C.C.C.C.C.C.C.C.C",
".C.C.C.C.C.C.C.C.I.c.W.C.C.C.C.C.C | p.C.C.C.C.C.C.CX&  .;.C.C.C.C.C.C.C.C n * I /.C.C.C # =.C.C.C.C.C.C.C.C.C",
".C.C.C.C.C.C.C.C.T l.C.C.C.C.C.C.C | p.C.C.C.C.C.C.CX&  .;.C.C.C.C.C.C.C.C.C .   }.C.C.CX:.u.-.C.C.C.C.C.C.C.C",
".C.C.C.C.C.C.C X.k.,.C.C.C.C.C.C # 2X2.C.C.C.C.C.C.CX&  .;.C.C.C.C.C.C.C.C.C.` < L.C.C.C.C.vXo.C.C.C.C.C.C.C.C",
".C.C.C.C.C.C M e `.C.C.C.C.C.C.C d E.C.C.C.C.C.C.C.C.J } i.D.C.C.C.C.C.C.C.C.C.C.C.C.C.C.C EX< 8.C.C.C.C.C.C.C",
".C.C.C.C.C.C.<.t.C.C.C.C.C.C.C.C d E.C.C.C.C.C.C.C.C.C.C.C.C.C.C.C.C.C.C.C.C.C.C.C.C.C.C.C.C.E w Q.C.C.C.C.C.C",
".C.C.C.C.C.C.<.t.C.C.C.C.C.C.C.C d E.C.C.C.C.C.C.C.C.C.C.C.C.C.C.C.C.C.C.C.C.C.C.C.C.C.C.C.C.C & %.C.C.C.C.C.C",
".C.C.C.C.C.J f.T.C.C.C.C.C.C.C.C.~ M.C.C.C.C.C.C.C.C.C.C.C.C.C.C.C.C.C.C.C.C.C.C.C.C.C.C.C.C.C.4 = L.C.C.C.C.C",
".C.C.C.CXO %.y.C.C.C.C.C.C.C.C.C.C.C.C.C.C.C.C.C.C.C.C.C.C.C.C.C.C.C.C.C.C.C.C.C.C.C.C.C.C.C.C.C.n.}.C.C.C.C.C",
".C.C.C.C qX,.C.C.C.C.C.C.C.C.C.C.C.C.C.C.C.C.C.C.C.C.C.C.C.C.C.C.C.C.C.C.C.C.C.C.C.C.C.C.C.C.C.C.% >.7.C.C.C.C",
".C.C.C.#.p ~.C.C.C.C.C.C.C.C.C.C.C.C.C.C.C.C.C.C.C.C.C.C.C.C.C.C.C.C.C.C.C.C.C.C.C.C.C.C.C.C.C.C.C._.z.J.C.C.C",
".C.C.C.;.i.C.C.C.C.C.C.C.C.C.C.C.C.C.C.C.C.C.C.C.C.C.C.C.C.C.C.C.C.C.C.C.C.C.C.C.C.C.C.C.C.C.C.C.C.C - @.C.C.C",
".C.C.D rX .C.C.C.C.C.C.C.C.C.C.C.C.C.C.C.C.C.C.C.C.C.C.C.C.C.C.C.C.C.C.C.C.C.C.C.C.C.C.C.C.C.C.C.C.C - @.C.C.C",
".C.T.{ s.C.C.C.C.C.C.C.C.C.C.C.C.C.C.C.C.C.C.C.C.C.C.C.C.C.C.C.C.C.C.C.C.C.C.C.C.C.C.C.C.C.C.C.C.C.C - @.C.C.C",
".C 8X4.C.C.C.C.C.C.C.C.C.C.C.C.C.C.C.C.C.C.C.C.C.C.C.C.C.C.C.C.C.C.C.C.C.C.C.C.C.C.C.C.C.C.C.C.C.C.C.# 4.3.C.C",
".C 8X4.C.C.C.C.C.C.C.C.C.C.C.C.C.C.C.C.C.C.C.C.C.C.C.C.C.C.C.C.C.C.C.C.C.C.C.C.C.C.C.C.C.C.C.C.C.C.C.C.N.'.C.C",
".+.s.W.C.C.C.C.C.C.C.C.C.C.C.C.C.C.C.C.C.C.C.C.C.C.C.C.C.C.C.C.C.C.C.C.C.C.C.C.C.C.C.C.C.C.C.C.C.C.C.C.N.'.C.C",
".*.s.C.C.C.C.C.C.C.C.C.C.C.C.C.C.C.C.C.C.C.C.C.C.C.C.C.C.C.C.C.C.C.C.C.C.C.C.C.C.C.C.C.C.C.C.C.C.C.C.C &.kX:.C",
" i.{.C.C.C.C.C.C.C.C.C.C.C.C.C.C.C.C.C.C.C.C.C.C.C.C.C.C.C.C.C.C.C.C.C.C.C.C.C.C.C.C.C.C.C.C.C.C.C.C.C.C.|.z.C",
" Z.C.C.C.C.C.C.C.C.C.C.C.C.C.C.C.C.C.C.C.C.C.C.C.C.C.C.C.C.C.C.C.C.C.C.C.C.C.C.C.C.C.C.C.C.C.C.C.C.C.C.C.|.z.C",
" Z.C.C.C.C.C.C.C.C.C.C.C.C.C.C.C.C.C.C.C.C.C.C.C.C.C.C.C.C.C.C.C.C.C.C.C.C.C.C.C.C.C.C.C.C.C.C.C.C.C.C.C.|.z.C",
" Z.C.C.C.C.C.C.C.C.C.C.C.C.C.C.C.C.C.C.C.C.C.C.C.C.C.C.C.C.C.C.C.C.C.C.C.C.C.C.C.C.C.C.C.C.C.C.C.C.C.C.C A.i.Z",
" Z.C.C.C.C.C.C.C.C.C.C.C.C.C.C.C.C.C.C.C.C.C.C.C.C.C.C.C.C.C.C.C.C.C.C.C.C.C.C.C.C.C.C.C.C.C.C.C.C.C.C.C.C >  ",
" Z.C.C.C.C.C.C.C.C.C.C.C.C.C.C.C.C.C.C.C.C.C.C.C.C.C.C.C.C.C.C.C.C.C.C.C.C.C.C.C.C.C.C.C.C.C.C.C.C.C.C.C.C >  ",
".0 #.C.C.C.C.C.C.C.C.C.C.C.C.C.C.C.C.C.C.C.C.C.C.C.C.C.C.C.C.C.C.C.C.C.C.C.C.C.C.C.C.C.C.C.C.C.C.C.C.C.C.C >  ",
"X@X..=X;X;X;X;X;X;X;X;X;X;X; l Z Z.,X;X;X;X; J.C.C.C.C.C.C.C.C.C.C.C.C.C.C.C.TX;X;X; U.C.C.C.C.C.C.C.C.C.C >  ",
".CX<.f.f.f.f.f.f.f.f.f.f.f.f.T.C.C 1.f.f.f m j 6X3.C.C.C.C.C.C.C.C.C.9 6 6 6.d.f.f.f.d 6 6 6 6.1.C.C.C.C.C >  ",
".C.C.C.C.C.C.C.C.C.C.C.C.C.C.C.C.C.C.C.C.C TX>.&X+.P.P.P.P.P.P.P.P.P.7X>X>X>X .C.C.C /X>X>X>X> <.P.P.P.P.P )  "
};
