/* XPM */
static char *jurk-r[] = {
/* width height ncolors chars_per_pixel */
"57 64 204 2",
/* colors */
"   c #000000",
" . c #B1B1B1",
" X c #AFAFAF",
" o c #ADADAD",
" O c #ABABAB",
" + c #A9A9A9",
" @ c #A7A7A7",
" # c #A5A5A5",
" $ c #A3A3A3",
" % c #A1A1A1",
" & c #9F9F9F",
" * c #9D9D9D",
" = c #9B9B9B",
" - c #979797",
" ; c #959595",
" : c #939393",
" > c #919191",
" , c #8F8F8F",
" < c #8D8D8D",
" 1 c #8B8B8B",
" 2 c #898989",
" 3 c #878787",
" 4 c #858585",
" 5 c #838383",
" 6 c #818181",
" 7 c #7F7F7F",
" 8 c #7D7D7D",
" 9 c #7B7B7B",
" 0 c #797979",
" q c #777777",
" w c #757575",
" e c #737373",
" r c #717171",
" t c #6F6F6F",
" y c #6B6B6B",
" u c #696969",
" i c #656565",
" p c #636363",
" a c #616161",
" s c #5F5F5F",
" d c #5D5D5D",
" f c #5B5B5B",
" g c #575757",
" h c #555555",
" j c #535353",
" k c #515151",
" l c #4F4F4F",
" z c #FEFEFE",
" x c #FCFCFC",
" c c #494949",
" v c #FAFAFA",
" b c #F8F8F8",
" n c #454545",
" m c #F6F6F6",
" M c #434343",
" N c #F4F4F4",
" B c #414141",
" V c #F2F2F2",
" C c #3F3F3F",
" Z c #F0F0F0",
" A c #3D3D3D",
" S c #EEEEEE",
" D c #3B3B3B",
" F c #ECECEC",
" G c #EAEAEA",
" H c #373737",
" J c #E8E8E8",
" K c #353535",
" L c #E6E6E6",
" P c #333333",
" I c #E4E4E4",
" U c #2F2F2F",
" Y c #E0E0E0",
" T c #2D2D2D",
" R c #DEDEDE",
" E c #2B2B2B",
" W c #DCDCDC",
" Q c #292929",
" ! c #DADADA",
" ~ c #D8D8D8",
" ^ c #D6D6D6",
" / c #232323",
" ( c #D4D4D4",
" ) c #1F1F1F",
" _ c #D0D0D0",
" ` c #CECECE",
" ' c #CCCCCC",
" ] c #C8C8C8",
" [ c #151515",
" { c #C6C6C6",
" } c #111111",
" | c #C0C0C0",
".  c #BEBEBE",
".. c #BCBCBC",
".X c #BABABA",
".o c #070707",
".O c #B8B8B8",
".+ c #B6B6B6",
".@ c #B4B4B4",
".# c #B2B2B2",
".$ c #B0B0B0",
".% c #AEAEAE",
".& c #ACACAC",
".* c #AAAAAA",
".= c #A6A6A6",
".- c #A0A0A0",
".; c #9E9E9E",
".: c #9C9C9C",
".> c #989898",
"., c #969696",
".< c #949494",
".1 c #929292",
".2 c #909090",
".3 c #8E8E8E",
".4 c #8A8A8A",
".5 c #888888",
".6 c #848484",
".7 c #828282",
".8 c #808080",
".9 c #7E7E7E",
".0 c #7C7C7C",
".q c #7A7A7A",
".w c #787878",
".e c #767676",
".r c #747474",
".t c #707070",
".y c #6E6E6E",
".u c #6C6C6C",
".i c #6A6A6A",
".p c #686868",
".a c #666666",
".s c #646464",
".d c #626262",
".f c #5E5E5E",
".g c #5C5C5C",
".h c #5A5A5A",
".j c #585858",
".k c #565656",
".l c #545454",
".z c #525252",
".x c #505050",
".c c #4E4E4E",
".v c #FFFFFF",
".b c #4C4C4C",
".n c #FDFDFD",
".m c #4A4A4A",
".M c #FBFBFB",
".N c #484848",
".B c #F9F9F9",
".V c #464646",
".C c #F7F7F7",
".Z c #444444",
".A c #F5F5F5",
".S c #424242",
".D c #F3F3F3",
".F c #404040",
".G c #F1F1F1",
".H c #3E3E3E",
".J c #EFEFEF",
".K c #3C3C3C",
".L c #EDEDED",
".P c #EBEBEB",
".I c #383838",
".U c #E9E9E9",
".Y c #363636",
".T c #E7E7E7",
".R c #343434",
".E c #E5E5E5",
".W c #323232",
".Q c #E3E3E3",
".! c #303030",
".~ c #E1E1E1",
".^ c #DFDFDF",
"./ c #DDDDDD",
".( c #DBDBDB",
".) c #282828",
"._ c #D9D9D9",
".` c #D7D7D7",
".' c #242424",
".] c #D5D5D5",
".[ c #D3D3D3",
".{ c #202020",
".} c #D1D1D1",
".| c #1E1E1E",
"X  c #CDCDCD",
"X. c #1A1A1A",
"XX c #CBCBCB",
"Xo c #C9C9C9",
"XO c #C7C7C7",
"X+ c #C5C5C5",
"X@ c #C3C3C3",
"X# c #C1C1C1",
"X$ c #BFBFBF",
"X% c #0C0C0C",
"X& c #BDBDBD",
"X* c #0A0A0A",
"X= c #BBBBBB",
"X- c #080808",
"X; c #B9B9B9",
"X: c #B7B7B7",
"X> c #040404",
"X, c #B5B5B5",
"X< c #020202",
"X1 c #B3B3B3",
/* pixels */
".v.v.v.v.v.v.v.v.v.v.v.v.v.v.v.v.v.v.v.v.v.v.LX,X,X,X,X,X,X$.v.v.UX,X,X,X,X,X,X, ~.v.v.v.v.v.v.v.v.v.v.v.v.v.v.v.v",
".v.v.v.v.v.v.v.v.v.v.v.v.v.v.v.v.v R.u.u.u.u.e : : g.a : :.3.u.u.w : 9 M :.s.h q P.u &.v.v.v.v.v.v.v.v.v.v.v.v.v.v",
".v.v.v.v.v.v.v.v.v.v.v.v.v.v.v.v.t /.).X.5  ./.v.v - ..v.v v././.T.v W q ~.X.' n./.z.R $.^.v.v.v.v.v.v.v.v.v.v.v.v",
".v.v.v.v.v.v.v.v.v.v.v.v.v.v.= < 9 B.v.v *  .A.v.v - ..v.v.v.v.v.v.v.v 1X-.v.s.!.v.v.v.f.Y.v.v.v.v.v.v.v.v.v.v.v.v",
".v.v.v.v.v.v.v.v.v.v.v.v.v $ %X=.T.m.v.v *  .A.v.v - ..v.v.v.v.v.v.v.v 1X-.v.s.!.v.v.v.f ;.m.].v.v.v.v.v.v.v.v.v.v",
".v.v.v.v.v.v.v.v.v.v.v.v.J.8._.v.v.t X.J...xX$.v.v - ..v.v.v.v.v.v.v.v 1X-.v.s.!.v.v I.F.P.v M '.v.v.v.v.v.v.v.v.v",
".v.v.v.v.v.v.v.v.v.v.v & k.9.v.v.vX+  X .v.v.m.v.v - ..v.v.v.v.v.v.v L 8.:.v.s.!.v.v @ a.C.v $.f.v.v.v.v.v.v.v.v.v",
".v.v.v.v.v.v.v.v.v.v Z y j.G.v.v.vX+  X .v.v s G.v N 0 t.} b.v.v.G.}.+ <.v.v.s.!.v.v @ %.v.v.J.i.} x.v.v.v.v.v.v.v",
".v.v.v.v.v.v.v.v.v.B.h &.v.v.v.v.vX+  .w.v.vX$ c ;.v.v !.w 4 3 3 5.w.3.v.v._.9 >.v.v @ %.v.v.v %  .G.v.v.v.v.v.v.v",
".v.v.v.v.v.v.v.v.v.D B J.v.v.v.v.v.GX#.H.v.v ZX#X1.m.m.m.m UX# C.|.m.m.m.m.Y.-.v.v.v @ %.v.v.v.=X% u.v.v.v.v.v.v.v",
".v.v.v.v.v.v.v.v.` %.k.v.v.v.v.v.v.v.v.m.v.v.v.v.v.v.v.v.v.v.v.v.v.v.v.v.v.v.v.v.v.v @ %.v.v.v.v.v.m.v.v.v.v.v.v.v",
".v.v.v.v.v.v.v.v 3.oX$.v.v.v.v.v.v.v.v.m.v.v.v.v.v.v.v.v.v.v.v.v.v.v.v.v.v.v.v.v.v.v R q.D.v.v.v.v ;X1.v.v.v.v.v.v",
".v.v.v.v.v.v.v.v.- D W.v.v.v.v.v.v.DXX i.v.v.v.v.v.v.v.v.v.v.v.v.v.v.v.v.v.v.v.v.v.v.v.f.P.v.v.v.vX@ 4.v.v.v.v.v.v",
".v.v.v.v.v.v.v.v.v.D E _.v.v.v.v.vX+  X .v.v.v.v.v.v.v.v.v.v.v.v.v.v.v.v.v.v.v.v.v.v.v.f.1.v.v.v.vX@ 4.v.v.v.v.v.v",
".v.v.v.v.v.v.v.v.v x.4 K y.L S.v.vX+  X .v.v.v.v.v.v.v.v.v.v.v.v.v.v.v.v.v.v.v.v.v.v.v W n.v.v b.LX, 4.v.v.v.v.v.v",
".v.v.v.v.v.v.v.v.v.v.v.v R.g a $ $.9  X .v.v.v.v.v.v.v.v.v.v.v.v.v.v.v.v.v.v.v.v.v.v.v.v.Y $ $ 2.g.g ..v.v.v.v.v.v",
".v.v.v.v.v.v.v.v.v.v.v.v.v.v.B # #.8  X .v.v.v.v.v.v.v.v.v.v.v.v.v.v.v.v.v.v.v.v.v.v.v.v H # # {.v.v.v.v.v.v.v.v.v",
".v.v.v.v.v.v.v.v.v.v.v.v.v.v.v.v.vX+  X .v.v.v.v.v.v.v.v.v.v.v.v.v.v.v.v.v.v.v.v.v.v.v.p.~.v.v.v.v.v.v.v.v.v.v.v.v",
".v.v.v.v.v.v.v.v.v.v.v.v.v.v.v.v.vX+  X .v.v.v.O 1.v.v.v.v.v.v.v.v.v GX:.v.v.v.v.v.v.v.f.P.v.v.v.v.v.v.v.v.v.v.v.v",
".v.v.v.v.v.v.v.v.v.v.v.v.v.v.v.v.vX+  X .v.v.v.e.|.v.v.v.v.v.v.v.v.v.].r.v.v.v.v.v.v.C.s.L.v.v.v.v.v.v.v.v.v.v.v.v",
".v.v.v.v.v.v.v.v.v.v.v.v.v.v.v.v.vX+  X .v.v.v.* uX+.v.v.v.v.v.v.v.v.].r.v Y._.v.v.v @ %.v.v.v.v.v.v.v.v.v.v.v.v.v",
".v.v.v.v.v.v.v.v.v.v.v.v.v.v.v.v.v F O w.v.v.v.v.~.p.v.v & L.v.v.v.v.].r v.t R.v.v.v @ %.v.v.v.v.v.v.v.v.v.v.v.v.v",
".v.v.v.v.v.v.v.v.v.v.v.v.v.v.v.v.v.v.v rX$X$.n.v.~.p.v S.w.Q.v.v.v.v.n 1X*.z.v.v.v ` :X;.v.v.v.v.v.v.v.v.v.v.v.v.v",
".v.v.v.v.v.v.v.v.v.v.v.v.v.v.v.v.v.v.v N h   r.e.w 6.]X; ,.v.v.v.v.v.v 1X> X.v.v.v.K.j.v.v.v.v.v.v.v.v.v.v.v.v.v.v",
".v.v.v.v.v.v.v.v.v.v.v.v.v.v.v.v.v.v.v.v *  XX.[X@.I A.H H s.~.~.~.~ d.Y ).m.m.m.m }.j.v.v.v.v.v.v.v.v.v.v.v.v.v.v",
".v.v.v.v.v.v.v.v.v.v.v.v.v.v.v.v.v.v.v.v *   > - - - -X1.v G.p.p.p.p F.v x - - - - /.j.v.v.v.v.v.v.v.v.v.v.v.v.v.v",
".v.v.v.v.v.v.v.v.v.v.v.v.v.v.v.v.v.v.v S.r . . ..:.N.Y [.c.c.c.c.c.c.c.c k . . . . Q.j.v.v.v.v.v.v.v.v.v.v.v.v.v.v",
".v.v.v.v.v.v.v.v.v.v.v.v.v.v.v.v.v.v.v.. <.v.v._.& >.c n.M.M.M ].0.M.M +.Z.l.v.v.v x.= $.v.v.v.v.v.v.v.v.v.v.v.v.v",
".v.v.v.v.v.v.v.v.v.v.v.v.v.v.v.v.v.^.t :.v.v.v.e.|.v.c.V.v.v.v.m.v.v.v.v x 4XO.v.v.v._ 9 N.v.v.v.v.v.v.v.v.v.v.v.v",
".v.v.v.v.v.v.v.v.v.v.v.v.v.v.v.v.vX+  X .v.v m.w.H.v.c.V.v.v.v.m.v.v.v.v.v o =.v.v.v.v.r (.v.v.v.v.v.v.v.v.v.v.v.v",
".v.v.v.v.v.v.v.v.v.v.v.v.v.v.v.v.v.2.y.Q.v.vX$ 2.v.v.c.V.v.v.v.m.v.v.v.v.v.} 5.=.v.v.v.v.m.v.v.v.v.v.v.v.v.v.v.v.v",
".v.v.v.v.v.v.v.v.v.v.v.v.v.v.v.v.5 |.v.v.v.v. .4.v.v.c.V.v.E.N.>.v.v.v.v.v.v.s.!.v.v.v.v #.N ~.v.v.v.v.v.v.v.v.v.v",
".v.v.v.v.v.v.v.v.v.v.v.v.v.v vX1.t N.v.v.v.v.m.v.v.v.c.V.v.(  X:.v.v.v.v.v.v.1 s.`.v.v.vXo  Xo.v.v.v.v.v.v.v.v.v.v",
".v.v.v.v.v.v.v.v.v.v.v.v.v.v.L   #.v.v.v.v.v.m.v.v.v.c.V.v.(  X:.v.v.v.v.v.v.v.P 6 W.v.vXo  Xo.v.v.v.v.v.v.v.v.v.v",
".v.v.v.v.v.v.v.v.v.v.v.v.v G e.^ N.v.v.v.*.{ Y.v.v.v y.s.v.(  X:.v.v.v.v.v.v.v.v 4X@.v.v b.^.h.v.v.v.v.v.v.v.v.v.v",
".v.v.v.v.v.v.v.v.v.v.v.v.v 6XO.v.v.v.v.v *  .A.v.v.v.v.v.v.(  X:.v.v.v.v.v.v.v.v 4X@.v.v.v.v :.+.v.v.v.v.v.v.v.v.v",
".v.v.v.v.v.v.v.v.v.v.v.v._ 7.G.v.v.v.v.v *  .A.v.v.v.v.v.v.(  X:.v.v.v.v.v.v.v.v Y s 5.v.v.v.P.f.v.v.v.v.v.v.v.v.v",
".v.v.v.v.v.v.v.v.v.v.v.vXX.9.v.v.v.v.v.v *  .A.v.v.v.v.v.v.(  X:.v.v.v.v.v.v.v.v.v.K.j.v.v.v.G e o.M.v.v.v.v.v.v.v",
".v.v.v.v.v.v.v.v.v.v.v.; t '.v.v.v.v.v Z 0 =.M.v.v.v.v.v.v.(  X:.v.v.v.v.v.v.v.v.v.#X&.v.v.v.v %  .G.v.v.v.v.v.v.v",
".v.v.v.v.v.v.v.v.v.v.J.u.h.v.v.v.v.v.v.T.d.v.v.v.v.v.v.v.v.M.E q.v.v.v.v.v.v.v.v.v.v.v.v.v.v.v.A.E f.v.v.v.v.v.v.v",
".v.v.v.v.v.v.v.v.v.v + &.v.v.v.v.v.v.v.T.d.v.v.v.v.v.v.v.v.v.v.v.v.v.v.v.v.v.v.v.v.v.v.v.v.v.v.v.v.6X+.v.v.v.v.v.v",
".v.v.v.v.v.v.v.v.v z # #.v.v.v.v.v.v.v J.i.v.v.v.v.v.v.v.v.v.v.v.v.v.v.v.v.v.v.v.v.v.v.v.v.v.v.v.vX@ 4.v.v.v.v.v.v",
".v.v.v.v.v.v.v.v.v.D.k.v.v.v.v.v.v.v.v.v.v.v.v.v.v.v.v.v.v.v.v.v.v.v.v.v.v.v.v.v.v.v.v.v.v.v.v.v.v ~ 6.$.v.v.v.v.v",
".v.v.v.v.v.v.v.v.@ aX#.v.v.v.v.v.v.v.v.v.v.v.v.v.v.v.v.v.v.v.v.v.v.v.v.v.v.v.v.v.v.v.v.v.v.v.v.v.v.v.qX..v.v.v.v.v",
".v.v.v.v.v.v.v.A.6 C.v.v.v.v.v.v.v.v.v.v.v.v.v.v.v.v.v.v.v.v.v.v.v.v.v.v.v.v.v.v.v.v.v.v.v.v.v.v.v.v.A.].t.v.v.v.v",
".v.v.v.v.v.v.v.}.w.v.v.v.v.v.v.v.v.v.v.v.v.v.v.v.v.v.v.v.v.v.v.v.v.v.v.v.v.v.v.v.v.v.v.v.v.v.v.v.v.v.v V.8 ^.v.v.v",
".v.v.v.v.v.v.vXO.7.v.v.v.v.v.v.v.v.v.v.v.v.v.v.v.v.v.v.v.v.v.v.v.v.v.v.v.v.v.v.v.v.v.v.v.v.v.v.v.v.v.v.v = o.v.v.v",
".v.v.v.v.v.v.v.m.v.v.v.v.v.v.v.v.v.v.v.v.v.v.v.v.v.v.v.v.v.v.v.v.v.v.v.v.v.v.v.v.v.v.v.v.v.v.v.v.v.v.v.v = o.v.v.v",
".v.v.v.v.vXX.j.%.v.v.v.v.v.v.v.v.v.v.v.v.v.v.v.v.v.v.v.v.v.v.v.v.v.v.v.v.v.v.v.v.v.v.v.v.v.v.v.v.v.v.v.v = o.v.v.v",
".v.v.v.v.v X  .Q.v.v.v.v.v.v.v.v.v.v.v.v.v.v.v.v.v.v.v.v.v.v.v.v.v.v.v.v.v.v.v.v.v.v.v.v.v.v.v.v.v.v.v.v v g.b.v.v",
".v.v.v.v x 8 4 V.v.v.v.v.v.v.v.v.v.v.v.v.v.v.v.v.v.v.v.v.v.v.v.v.v.v.v.v.v.v.v.v.v.v.v.v.v.v.v.v.v.v.v.v.v.z.S.v.v",
".v.v.v.v.B.x.v.v.v.v.v.v.v.v.v.v.v.v.v.v.v.v.v.v.v.v.v.v.v.v.v.v.v.v.v.v.v.v.v.v.v.v.v.v.v.v.v.v.v.v.v.v.v p.c.D.v",
".v.v.v.v.@.<.v.v.v.v.v.v.v.v.v.v.v.v.v.v.v.v.v.v.v.v.v.v.v.v.v.v.v.v.v.v.v.v.v.v.v.v.v.v.v.v.v.v.v.v.v.v.v.vX& 1.v",
".v.v.v.v.m.v.v.v.v.v.v.v.v.v.v.v.v.v.v.v.v.v.v.v.v.v.v.v.v.v.v.v.v.v.v.v.v.v.v.v.v.v.v.v.v.v.v.v.v.v.v.v.v.vX& 1.v",
".v.v.v.v.m.v.v.v.v.v.v.v.v.v.v.v.v.v.v.v.v.v.v.v.v.v.v.v.v.v.v.v.v.v.v.v.v.v.v.v.v.v.v.v.v.v.v.v.v.v.v.v.v.vX& 1.v",
".v.v.v.v.m.v.v.v.v.v.v.v.v.v.v.v.v.v.v.v.v.v.v.v.v.v.v.v.v.v.v.v.v.v.v.v.v.v.v.v.v.v.v.v.v.v.v.v.v.v.v.v.v.v.~.9 J",
".v.v.v.v.m.v.v.v.v.v.v.v.v.v.v.v.v.v.v.v.v.v.v.v.v.v.v.v.v.v.v.v.v.v.v.v.v.v.v.v.v.v.v.v.v.v.v.v.v.v.v.v.v.v.v.r.]",
".v.v.v.v.m.v.v.v.v.v.v.v.v.v.v.v.v.v.v.v.v.v.v.v.v.v.v.v.v.v.v.v.v.v.v.v.v.v.v.v.v.v.v.v.v.v.v.v.v.v.v.v.v.v.v.r.]",
".v.v.v.vX+.6.v.v.v.v.v.v.v.v.v.v.v.v.v.v.v.v.v.v.v.v.v.v.v.v.v.v.v.v.v.v.v.v.v.v.v.v.v.v.v.v.v.v.v.v.v.v.v.v.v.r.]",
".v.v.v.v.M.WX< $X:X:X:X:X:X:X:X:X:.;.m.m.rX:X:X:X: (.v.v.v.v.v.v.v.v.v.v.v.v.v.v.v ]X:X: {.v.v.v.v.v.v.v.v.v.v.r.]",
".v.v.v.v.v./ > > > > > > > > > > >.*.v.v.] > > >.8 T.y.,.v.v.v.v.v.v.v.v v.y.y.y.y 2 > >.4.y.y.y.y.2.v.v.v.v.v.r.]",
".v.v.v.v.v.v.v.v.v.v.v.v.v.v.v.v.v.v.v.v.v.v.v.v.M.( d.!.m.m.m.m.m.m.m.m l.(.(.(.(.C.v.v.C.(.(.(.(X;.m.m.m.m.m.Y.(",
".v.v.v.v.v.v.v.v.v.v.v.v.v.v.v.v.v.v.v.v.v.v.v.v.v.v.v.v.v.v.v.v.v.v.v.v.v.v.v.v.v.v.v.v.v.v.v.v.v.v.v.v.v.v.v.v.v",
".v.v.v.v.v.v.v.v.v.v.v.v.v.v.v.v.v.v.v.v.v.v.v.v.v.v.v.v.v.v.v.v.v.v.v.v.v.v.v.v.v.v.v.v.v.v.v.v.v.v.v.v.v.v.v.v.v"
};
