/* XPM */
static char *kachel-r[] = {
/* width height ncolors chars_per_pixel */
"45 64 164 2",
/* colors */
"   c #000000",
" . c #B1B1B1",
" X c #AFAFAF",
" o c #ADADAD",
" O c #ABABAB",
" + c #A9A9A9",
" @ c #A7A7A7",
" # c #A5A5A5",
" $ c #A3A3A3",
" % c #A1A1A1",
" & c #9F9F9F",
" * c #9D9D9D",
" = c #999999",
" - c #979797",
" ; c #959595",
" : c #939393",
" > c #919191",
" , c #8F8F8F",
" < c #8D8D8D",
" 1 c #8B8B8B",
" 2 c #898989",
" 3 c #878787",
" 4 c #858585",
" 5 c #838383",
" 6 c #818181",
" 7 c #7F7F7F",
" 8 c #7B7B7B",
" 9 c #797979",
" 0 c #757575",
" q c #737373",
" w c #6F6F6F",
" e c #6D6D6D",
" r c #6B6B6B",
" t c #656565",
" y c #636363",
" u c #616161",
" i c #5D5D5D",
" p c #575757",
" a c #555555",
" s c #4F4F4F",
" d c #FEFEFE",
" f c #FCFCFC",
" g c #494949",
" h c #FAFAFA",
" j c #F8F8F8",
" k c #F6F6F6",
" l c #434343",
" z c #F4F4F4",
" x c #F2F2F2",
" c c #F0F0F0",
" v c #EEEEEE",
" b c #ECECEC",
" n c #393939",
" m c #EAEAEA",
" M c #E8E8E8",
" N c #E6E6E6",
" B c #E4E4E4",
" V c #E2E2E2",
" C c #E0E0E0",
" Z c #DEDEDE",
" A c #DCDCDC",
" S c #292929",
" D c #DADADA",
" F c #D6D6D6",
" G c #D4D4D4",
" H c #D2D2D2",
" J c #D0D0D0",
" K c #CECECE",
" L c #1B1B1B",
" P c #CCCCCC",
" I c #C8C8C8",
" U c #C6C6C6",
" Y c #C4C4C4",
" T c #111111",
" R c #C2C2C2",
" E c #C0C0C0",
" W c #0D0D0D",
" Q c #BEBEBE",
" ! c #BCBCBC",
" ~ c #090909",
" ^ c #BABABA",
" / c #B8B8B8",
" ( c #B6B6B6",
" ) c #B4B4B4",
" _ c #B2B2B2",
" ` c #B0B0B0",
" ' c #AAAAAA",
" ] c #A6A6A6",
" [ c #A4A4A4",
" { c #A2A2A2",
" } c #A0A0A0",
" | c #9E9E9E",
".  c #9C9C9C",
".. c #9A9A9A",
".X c #989898",
".o c #969696",
".O c #949494",
".+ c #929292",
".@ c #909090",
".# c #8E8E8E",
".$ c #8C8C8C",
".% c #8A8A8A",
".& c #888888",
".* c #868686",
".= c #848484",
".- c #828282",
".; c #808080",
".: c #7E7E7E",
".> c #7C7C7C",
"., c #7A7A7A",
".< c #787878",
".1 c #767676",
".2 c #707070",
".3 c #6E6E6E",
".4 c #646464",
".5 c #626262",
".6 c #606060",
".7 c #5C5C5C",
".8 c #565656",
".9 c #545454",
".0 c #525252",
".q c #4E4E4E",
".w c #FFFFFF",
".e c #4C4C4C",
".r c #FDFDFD",
".t c #FBFBFB",
".y c #484848",
".u c #F9F9F9",
".i c #F7F7F7",
".p c #F5F5F5",
".a c #F3F3F3",
".s c #F1F1F1",
".d c #EFEFEF",
".f c #3C3C3C",
".g c #EDEDED",
".h c #EBEBEB",
".j c #E9E9E9",
".k c #E7E7E7",
".l c #E5E5E5",
".z c #E3E3E3",
".x c #E1E1E1",
".c c #DFDFDF",
".v c #DDDDDD",
".b c #DBDBDB",
".n c #D9D9D9",
".m c #D7D7D7",
".M c #D5D5D5",
".N c #D3D3D3",
".B c #D1D1D1",
".V c #CFCFCF",
".C c #CDCDCD",
".Z c #CBCBCB",
".A c #C9C9C9",
".S c #C7C7C7",
".D c #C5C5C5",
".F c #C3C3C3",
".G c #C1C1C1",
".H c #BFBFBF",
".J c #BDBDBD",
".K c #BBBBBB",
".L c #B9B9B9",
".P c #B7B7B7",
".I c #B5B5B5",
".U c #B3B3B3",
/* pixels */
".w.w.w.w.w.w.w.w.w.w.w.w.w.w.w.w.w.w.w.w.w.w.w.w.w.w.w.w.w.w.w.w.w.w N }.w.w.w.w.w.w.w E  ",
".w.w.w.w.w.w.w.w.w.w h.x.x.x.x.x.b 3 R.x.x.x.x.x.w.w.w.w.w.w.w.w.w.w J (.w.w.w.w.w.w.w E  ",
".w.w.w.w.w.w.w m.C 3.$ # # # #.@.: H - 5 # # # # 3.@ H x.w.w.w.w.w.w J (.w.w.w.w.w.w.w E  ",
".w.w.w.w.w.w N }.L.w z.F ; 3.0.6.<.<.< e 9 3 3 E.z k ).O.S.w.w.w.w.w J u 3 3.J f.w.w.w.U.f",
".w.w.w.w.w . } f.w.C.+ ..6 3 !.F.F.F.F.F ; 3 X R $ O.w.w.H ,.w.w.w.w ^ P.w.w.A.%.L.w.w 3.w",
".w.w.w.w.w 3.w.w x.O.w >.c.w.w.w.w.w.w.w.w.w #.O.w J (.w.w | M.w.w.w.1 # # c.w.w.C.o.w 3.w",
".w.w.w.w.w.5.a.w k.@.w &.I.w.w.w.w.w.w.w.w.w.2 o.w.K.Z.w.w n.z.w.w.w 6.x.x.o <.A.w.w.w 3.w",
".w.w.w.w.w.- : 3.w.j 3 }.X.*.* 3 3 3 3 3.*.* B Y 3.S d + 3.&.z.w.w.d.y [ d.w.u.J ,.w.w 3.w",
".w.w.w.w.w ; _.d 3 3.Z.N.<.:.& 3 3 3 3 3.&.-.< ..P 3.&.B J q.w.w.d -.w ' y = k.w.w.w.V.P.w",
".w.w.w.w.w 3 G - ( C { - - > 3 3 3 3 3 3 3 < - - `.M 3.+ ( 3.w.d.; 3.G k.w.n.@ _.w.w.V.P.w",
".w.w.w.w.w 3.w.w J ] } 3 *.B.B.B.B.B.B.B.B.B , 3 ] ..w.w.w 3.P i O.w.D {.c.w.w.M.w.w } N.w",
".w.w.w.w.w 3.<.H U.w.w.w.j.I.I.I.I.I.I.I.I.I.i.w R R m.w.w.7.V d 9 _.w.g @.o.w.w.w.w 3.w.w",
".w.w.w.w.w 3 3.S E 3 ,.U.U.U.U.t.w.w.s.U.U.U.U * S l @.w.w 3.w.w.w G r.j.w / x.w.w P ^.w.w",
".w.w.w.w.w 3 3.w.V [.m.N.N.N.N 1 3 3 ;.N.N.N.N N 2.c @.w.w 3.w.w.w.w V 9 m.w.w.w P ^.w.w.w",
".w.w.w.w.w 3 3.w 4 V @ 3 3 3 : ; ; : 3 3 3 3 3 d g p.Z.w.w 3.w.w.w.w.w m E.w.w P ^.w.w.w.w",
".w.w.w.w.w 3 a.H 3.w.w.w.w.w.a.s.s.a.w.w.w.w 3.w M >.w.w.w 3.w.w.w.w.w.w.w.w.O ^.w.w.w.w.w",
".w.w.w.w.w 3 3.q s.O.d.d.t.w.w.w.w.w.w.w.w.w 3.w.c.#.u.w.w 3.w.w.w.w.w.t.V 3 x.w.w.w.w.w.w",
".w.w.w.w.w 3 3.<.w x - - 1.>.c.w.w.w.w.w.w.w 3.r T L @.w.w 3.w.w.w b ] 1.P.w.w.w.w.w.w.w.w",
".w.w.w.w.w 3 a.8.1.m.w.w.w.#.;.w.w.w.w.w.w.w 2.t 2.c @.w.w 3.w.N +.. C.w.w.w.w.w.w.w.w.w.w",
".w.w.w.w.w 3 3 A.- X 3 3 3 0.i.w.w.w.w.w.w.w.O c.e . !.w.w.7 3.U.v.w.w.w.w.w.w.w.w.w.w.w.w",
".w.w.w.w.w 3 3.w 3.w.w.w.w.w.w.w.w.w.w.w.w.w.O x H.>.w.w.w 3.w.w.w.w.w.w.w.w.w.w.w.w.w.w.w",
".w.w.w.w.w 3 3.w 3.w.w.w.w.w.w.w.w.w.w.w.w.w.O x v.X.w.w.w 3.w.w.w.w.w.w.w.w.w.w.w.w.w.w.w",
".w.w.w.w.w 3 3.w.;.N.w.w.w.w.w.w.w.w.w.w.w.w.O x v.X.w.w.w 3.w.w.w.w.w.w.w.w.w.w.w.w.w.w.w",
".w.w.w.w.w 3 3.w.s.- 3 3 3 3 c.r.r.P 3 3 3 3.- k W ~ O.w.w 3.w.w.w.w.w.w.w.w.w.w.w.w.w.w.w",
".w.w.w.w.w 3.o /.i.w.w.w.w.w.o 2 2.V.w.w.w.w.w.r 2.c @.w.w 3.w.w.w.w.w.w.w.w.w.w.w.w.w.w.w",
".w.w.w.w.w 3.w K , 3 E.c.c.u.w.w.w.w.w.w.w B.c Z.y., _.w.w 3.w.w.w.w.w.w.w.w.w.w.w.w.w.w.w",
".w.w.w.w.w 3.w.w.w.w U @ @ < 3 3 3 3 3 3 3 { @ @ F.w.w.w.w 3.w.w.w.w.w.w.w.w.w.w.w.w.w.w.w",
".w.w.w.w.w 3.w.w.w.w.w.w.w.w.w.w.w.w.w.w.w.w.w.w.w.w.w.w.w 3.w.w.w.w.w.w.w.w.w.w.w.w.w.w.w",
".w.w.w.w.w 3.w.w.w.w.w.w.w.w.w.w.w.w.w.w.w.w.w.w.w.w.w.w.w 3.w.w.w.w.w.w.w.w.w.w.w.w.w.w.w",
".w.w.w.w.w 3.w.w.w.w.w.w.w.w.w.w.w.w.w.w.w.w.w.w.w.w.w.w.w 3.w.w.w.w.w.w.w.w.w.w.w.w.w.w.w",
".w.w.w.w.w 3.w.w.w.w.w.w.w.w.w.w.w.w.w.w.w.w.w.w.w.w.w.w.w 3.w.w.w.w.w.w.w.w.w.w.w.w.w.w.w",
".w.w.w.w.w 3.w.w.w.w.w.w.w.w.w.w.w.w.w.w.w.w.w.w.w.w.w.w.w 3.w.w.w.w.w.w.w.w.w.w.w.w.w.w.w",
".w.w.w.w.w 3.w.w.w.w.w.w.w.w.w.w.w.w.w.w.w.w.w.w.w.w.w.w.w 3.w.w.w.w.w.w.w.w.w.w.w.w.w.w.w",
".w.w.w.w.w 3.w.w.w.w.w.w.w.w.w.w.w.w.w.w.w.w.w.w.w.w.w.w.w 3.w.w.w.w.w.w.w.w.w.w.w.w.w.w.w",
".w.w.w.w.w 3.w.w.w.w.w.w.w.w.w.w.w.w.w.w.w.w.w.w.w.w.w.w.w 3.w.w.w.w.w.w.w.w.w.w.w.w.w.w.w",
".w.w.w.w.w 3.w.w.w.w.w.w.w.w.w.w.w.w.w.w.w.w.w.w.w.w.w.w.w 3.w.w.w.w.w.w.w.w.w.w.w.w.w.w.w",
".w.w.w.w.w 3.w.w.w.w.w.w.w.w.w.w.w.w.w.w.w.w.w.w.w.w.w.w.w 3.w.w.w.w.w.w.w.w.w.w.w.w.w.w.w",
".w.w.w.w.w 3.w.w.w.w.w.w.w.w.w.w.w.w.w.w.w.w.w.w.w.w.w.w.w 3.w.w.w.w.w.w.w.w.w.w.w.w.w.w.w",
".w.w.w.w.w 3.w d.9.# : o.w.w.w.w.w.w.w.w.w # : :.C.w.w.w.w 3.w.w.w.w.w.w.w.w.w.w.w.w.w.w.w",
".w.w.w.w.w 3.w d.& j.a.n 3 3 3 3 3 3 3 3 3.x.a.s 2.w.w.w.w 3.w.w.w.w.w.w.w.w.w.w.w.w.w.w.w",
".w.w.w.w.w 3.w d.&.w.w.w.w.w.w.w.w.w.w.w.w.w.w.r 2.w.w.w.w 3.w.w.w.w.w.w.w.w.w.w.w.w.w.w.w",
".w.w.w.w.w 3.w d.&.w % 7 A.w.w.w.w.t Z N.w.w.w.r 2.w.w.w.w 3.w.w.w.w.w.w.w.w.w.w.w.w.w.w.w",
".w.w.w.w.w 3.w d.&.w 3 R & C.w.w.w C.3.3.w.w.w.r 2.w.w.w.w 3.w.w.w.w.w.w.w.w.w.w.w.w.w.w.w",
".w.w.w.w.w 3.w d.&.w.> Q.P ] 3 3 3.: . 0.w.w.w.r 2.w.w.w.w 3.w.w.w.w.w.w.w.w.w.w.w.w.w.w.w",
".w.w.w.w.w 3.w d.&.w D 7 3 3 3 X . . 1 ..w.w.w.r 2.w.w.w.w 3.w.w.w.w.w.w.w.w.w.w.w.w.w.w.w",
".w.w.w.w.w 3.w d.7.w.w.w.w.w.w.m.M.M c.w.w.w.w.r 2.w.w.w.w 3.w.w.w.w.w.w.w.w.w.w.w.w.w.w.w",
".w.w.w.w.w 3.w.w Z 3 2 : : b.w.w.w.w.w.l : : : 3.K.w.w.w.w 3.w.w.w.w.w.w.w.w.w.w.w.w.w.w.w",
".w.w.w.w.w 3.w.w.w.w.r.a.a.. 3 3 3 3 3 %.a.a.a d.w.w.w.w.w 3.w.w.w.w.w.w.w.w.w.w.w.w.w.w.w",
".w.w.w.w.w 3.w.w.w.w.w.w.w.w.w.w.w.w.w.w.w.w.w.w.w.w.w.w.w 3.w.w.w.w.w.w.w.w.w.w.w.w.w.w.w",
".w.w.w.w.w 3.w.w.w.w.w.w N Z Z Z Z x.w.w.w.w.w.w.w.w.w.w.w 3.w.w.w.w.w.w.w.w.w.w.w.w.w.w.w",
".w.w.w.w.w 3.w.w f K } 3 % + + + + ; 3 3 3 } K.l.w.w.w.w.w 3.w.w.w.w.w.w.w.w.w.w.w.w.w.w.w",
".w.w.w.w b.>.w.w.M 3 N.w.w.w.w.w.w.w.w.w.w N / % +.w.w.w.w.7 & E.w.w.w.w.w.w.w.w.w.w.w.w.w",
".w.w P : 5 w.w.w 3.w.w.w.w.w.w.w.w.w.w.w.w.w.w.w @.c.w.w.w.7.O R *.c.w.w.w.w.w.w.w.w.w.w.w",
".w.L = ' |.;.w.w 3.w.w.w.w.w.w.w.w.w.w.w.w.w.w.w f.%.w.w.w 3 D - Q '.c.w.w.w.w.w.w.w.w.w.w",
" Q > o J.w 3.w d.&.w.w.w.w.w.w.w.w.w.w.w.w.w.w.w.w 3.w.w.w 3.w.a.U * : Q.w.w.w.w.w.w.w.w.w",
".* Z r.w.w 3.w d.&.w.w.w.w.w.w.w.w.w.w.w.w.w.w.w.w.b O.w.w 3.w.w d o H.& d.w.w.w.w.w.w.w.w",
" 3.x #.w.w t ..U.A.w.w.w.w.w.w.w.w.w.w.w.w.w.w.w.w.c @.w.w.@.w.w.w.c @.% U.w.w.w.w.w.w.w.w",
" 3.a <.p.w.w.M...w.w.w.w.w.w.w.w.w.w.w.w.w.w.w.w.w.z.4 3 3.h.w.w.r.  A | M.w.w.w.w.w.w.w.w",
".=.h.S.o.w.w.w.w.w.w.w.w.w.w.w.w.w.w.w.w.w.w.w.w.w.w.w.w.w.w.w.w ' ) k.@.w.w.w.w.w.w.w.w.w",
".n { M.G.X F.w.w.w.w.w.w.w.w.w.w.w.w.w.w.w.w.w.w.w.w.w.w.w.w B [ ] H.@.h.w.w.w.w.w.w.w.w.w",
".w j #.F v `.X.M.w.w.w.w.w.w.w.w.w.w.w.w.w.w.w.w.w.w.w.w.k % {.x o ).w.w.w.w.w.w.w.w.w.w.w",
".w.w j.F , %.z . 3.% % B.w.w.w.w.w.w.w.w.w.w.w.w.u %.@ 3 &.l O 2.n.w.w.w.w.w.w.w.w.w.w.w.w",
".w.w.w.w.i.l.+.$.+ ,.H { 3 3 3 3.+.+.+.+ , 3 3 3 < [ 2.+ , 3.b d.w.w.w.w.w.w.w.w.w.w.w.w.w",
".w.w.w.w.w.w.w h z z o.* 5 5 5 5.<.<.<.< 8 5 5 5 3 I z z.i.w.w.w.w.w.w.w.w.w.w.w.w.w.w.w.w"
};
