/* XPM */
static char *kat-r[] = {
/* width height ncolors chars_per_pixel */
"64 38 172 2",
/* colors */
"   c #000000",
" . c #B1B1B1",
" X c #AFAFAF",
" o c #ADADAD",
" O c #ABABAB",
" + c #A9A9A9",
" @ c #A7A7A7",
" # c #A5A5A5",
" $ c #A3A3A3",
" % c #A1A1A1",
" & c #9F9F9F",
" * c #9D9D9D",
" = c #9B9B9B",
" - c #979797",
" ; c #959595",
" : c #919191",
" > c #8B8B8B",
" , c #898989",
" < c #878787",
" 1 c #858585",
" 2 c #838383",
" 3 c #818181",
" 4 c #7F7F7F",
" 5 c #7D7D7D",
" 6 c #7B7B7B",
" 7 c #797979",
" 8 c #777777",
" 9 c #737373",
" 0 c #717171",
" q c #6F6F6F",
" w c #6D6D6D",
" e c #696969",
" r c #676767",
" t c #656565",
" y c #616161",
" u c #5F5F5F",
" i c #5B5B5B",
" p c #575757",
" a c #555555",
" s c #535353",
" d c #FEFEFE",
" f c #4B4B4B",
" g c #FCFCFC",
" h c #FAFAFA",
" j c #474747",
" k c #F8F8F8",
" l c #454545",
" z c #F6F6F6",
" x c #F4F4F4",
" c c #F2F2F2",
" v c #F0F0F0",
" b c #EEEEEE",
" n c #ECECEC",
" m c #393939",
" M c #373737",
" N c #E8E8E8",
" B c #E6E6E6",
" V c #E4E4E4",
" C c #E2E2E2",
" Z c #2F2F2F",
" A c #E0E0E0",
" S c #2D2D2D",
" D c #DEDEDE",
" F c #DCDCDC",
" G c #D8D8D8",
" H c #D6D6D6",
" J c #D4D4D4",
" K c #D2D2D2",
" L c #D0D0D0",
" P c #CECECE",
" I c #CCCCCC",
" U c #CACACA",
" Y c #C8C8C8",
" T c #C4C4C4",
" R c #C2C2C2",
" E c #0F0F0F",
" W c #BEBEBE",
" Q c #BCBCBC",
" ! c #BABABA",
" ~ c #B8B8B8",
" ^ c #050505",
" / c #B6B6B6",
" ( c #B4B4B4",
" ) c #B2B2B2",
" _ c #AEAEAE",
" ` c #ACACAC",
" ' c #AAAAAA",
" ] c #A8A8A8",
" [ c #A6A6A6",
" { c #A4A4A4",
" } c #A2A2A2",
" | c #A0A0A0",
".  c #9E9E9E",
".. c #9C9C9C",
".X c #9A9A9A",
".o c #969696",
".O c #949494",
".+ c #929292",
".@ c #909090",
".# c #8E8E8E",
".$ c #8C8C8C",
".% c #8A8A8A",
".& c #888888",
".* c #868686",
".= c #848484",
".- c #828282",
".; c #808080",
".: c #7E7E7E",
".> c #7C7C7C",
"., c #7A7A7A",
".< c #787878",
".1 c #767676",
".2 c #747474",
".3 c #727272",
".4 c #6E6E6E",
".5 c #6C6C6C",
".6 c #6A6A6A",
".7 c #686868",
".8 c #666666",
".9 c #646464",
".0 c #626262",
".q c #5E5E5E",
".w c #5C5C5C",
".e c #5A5A5A",
".r c #585858",
".t c #565656",
".y c #545454",
".u c #505050",
".i c #FFFFFF",
".p c #FDFDFD",
".a c #4A4A4A",
".s c #FBFBFB",
".d c #484848",
".f c #F9F9F9",
".g c #F7F7F7",
".h c #444444",
".j c #F5F5F5",
".k c #F3F3F3",
".l c #404040",
".z c #F1F1F1",
".x c #EFEFEF",
".c c #EDEDED",
".v c #EBEBEB",
".b c #E9E9E9",
".n c #E7E7E7",
".m c #E5E5E5",
".M c #E3E3E3",
".N c #E1E1E1",
".B c #DFDFDF",
".V c #DDDDDD",
".C c #282828",
".Z c #D9D9D9",
".A c #D7D7D7",
".S c #D5D5D5",
".D c #D3D3D3",
".F c #D1D1D1",
".G c #CFCFCF",
".H c #CDCDCD",
".J c #C9C9C9",
".K c #C7C7C7",
".L c #141414",
".P c #C5C5C5",
".I c #C3C3C3",
".U c #C1C1C1",
".Y c #BFBFBF",
".T c #BDBDBD",
".R c #B9B9B9",
".E c #060606",
".W c #B7B7B7",
".Q c #040404",
".! c #B5B5B5",
".~ c #B3B3B3",
/* pixels */
".i.i.i.i.i.i.i.i.i.i.i.i.i.I.i.i.i.i.i.i.i.i.i.i.i.i.i.i.i.i.i.i.i.i.i.i.i.i.i.i.i.i.i.i.i.i.i.i.i.i.i.i.i.i.i.i.i.i.i.i.i.i.i.i",
".i.i } K.i.i.i.i.i.i.i.p [ ; o.i.i.i.i.i.i.i.i.i.i.i.i.i.i.i.i.i.i.i.i.i.i.i.i.i.i.i.i.i.i.i.i.i.i.i.i.i.i.i.i.i.i.i.i.i.i.i.i.i",
".i.i.- w.-.p.i.i.i.i.i.v 9.m.; k.i.i.i.i.i.i.i.i.i.i.i.i.i.i.i.i.i.i.i.i.i.i {.-.-.-.-.-.-.-.-.- G.i.i.i.i.i.i.i.i.i.i.i.i.i.i.i",
".i.i.- _ 7.=.x.M.I.I.p.3 n.i.4 U.i.i.i.i.i.i.i.i.i.i.i.i.i.i.i.i.i k.I O u u ! F F F F F F F F F.*.%.I.I.S.i.i.i.i.i.i.i.i.i.i.i",
".i.i.- F.9.A J.: = =.8 < '.i.4.u.i.i.i.i.i.i.i.i.i.i.i.i.i.i.i.i.9.6 =.~.i.i.i.i.i.i.i.i.i.i.i.i.i J = = >.9.9.9 /.i.i.i.i.i.i.i",
".i.i.- F g.i.i g.i.i h.z.w.M.4.5.M.i.i.i.i.i.i.i.i.i.i.i ! # r u h.s.i.i.i.i.i.i.i.i.i.i.i.i.i.i.i.i.i.i d h h h ] u.$ Y.i.i.i.i",
".i.i.V t /.i.i.i.i.i.i.i.i.i.A O X.i.i.i.i.i.j B B B.M u {.R.g.i.i.i.i.i.i.i.i.i.i.i.i.i.i.i.i.i.i.i.i.i.i.i.i.i.i.i K.o U.i.i.i",
".i.i.i.O U.i.i.i.i.i.i.i.i.i.i X X.i.i.i F < 3.<.<.< 6.i.i.i.i.i.i.i.i.i.i.i.i.i.i.i.i.i.i.i.i.i.i.i.i.i (.i.i.i.i.i.i.i.X T.i.i",
".i.i V f.b.i.i.i.i.i U I.i.i.i c 1.$ Y.#.-.A.n.i.i.i.i.i.i.i.i.i.i.i.i.i.i.i.i.i.i.i.i.i.i.i.i.i.i.i.i.i 0.c.i.i.i.i.i.i.f.: B.i",
".i.i.-.q.l g.i.i.i @.Q.3.i.i.i.i.i K.o L.i.i.i.i.i.i.i.i.i.i.i.i.i.i.i.i.i.i.i.i.i.i.i.i.i.i.i.i.i.i.i.i ( '.U 3.i.i.i.i.i.J ;.i",
".i.i.-.E  .P.i.i U.Q   (.i.i.i ) ).i.i.i.i.i.i.i.i.i.i.i.i.i.i.i.i.i.i.i.i.i.i.i.i.i.i.i.i.i.i.i.i.i.i.i g.0.s.h u.2.N.i.i.i u.i",
".i.i.-.1.L.e.i.i.% ( ( F.i.i.i +.!.i.i.i.i.i.i.i.i.i.i.i.i.i.i.i.i.i.i.i.i.i.i.i.i.i.i.i.i.i.i.i.i.i.i.i.i u.i.7 z.R #.i.i.i.8 k",
".i.i ! {.i u.i.i.i.i.@ 1.i.i.i u.i.i.i.i.i.i.i.i.i.i.i.i.i.i.i.i.i.i.i.i.i.i.i.i.i.i.i.i.i.i.i.i.i.i.i.i.i u.i.A <.R #.i.i.i W |",
".i.f.H > S _.H.m.T u P c.i.i.& H.i.i.i.i.i.i.i.i.i.i.i.i.i.i.i.i.i.i.i.i.i.i.i.i.i.i.i.i.i.i.i.i.i.i.i.i.i u.i.Y & @.W.i.i.i W |",
".i c : : m i  .< ! '.f.i.i.M.-.f.i.i.i.i.i.i.i.i.i.i.i.i.i.i.i.i.i.i.i.i @ g.i.i.i.i.i.i.i.i.i.i.i.i.i.i J.%.i.d.4 `.i.i.i.i W |",
".i z X p.E [.4 @.C.9 _.n.i g.f.i.i.i.i.i.i.i.i.i.i.i.i.i.i.i.i.i.i.i.i.i.9 h.i.i Q X.0 u u u u u u u u u i.e u.F v d.i.i.i.i | W",
".i : ] 6 X X w E E E.E j |.k.i.i.i.i.i.i.i.i.i.i.i.i.i.i.i.i.i.i.i.i.i.i.9.j C u $ X g.i.i.i.i.i.i.i.i.i.i.i.i.i.i.i.i.i.i.g r.i",
".i c.;.v.i.i.i.i.i.i u.i W.%.i.i.i.i.i.i.i.i.i.i.i.i.i.i.i.i.i.i.i.i.i.i @.=.>.i.i.i.i.i.i.i.i.i.i.i.i.i.i.i.i.i.i.i.i.i v 4 b.i",
".i.f B.i.i.i.i.i.i.i =.I.i.i.i.i.i.i.i.i.i.i.i.i.i.i.i.i.i.i.i.i.i.i.i.i V.,.i.i.i.i.i.i.v K K K.z.i.i.i.i.i.i k K K L u.4.n.i.i",
".i.i.i.i.i.i.i.i.i.i ' (.i.i.i.i.i.i.i.i.i.i.i.i.i.i.i.i.i.i.i.i.i.i.i.i.9 h.i.i.i o 9 9.:.$.$.$ 6 9 9 9 9 9 9 8.$.$.#.i.i.i.i.i",
".i.i.i.i.i.i.i.i.i.i k.8.i.i.i.!.!.i.i.i.i.i.i.i.i.i L.i.i.i.i.i.i.i.i Y e.o.r M u ..v.v x.i.i.i.z.v D.J.v.v.v.: F.i.i.i.i.i.i.i",
".i.i.i.i.i.i.i.i.i.i.i Q }.i.i V 4.f.i.i.i.i.i.i.i.i t.f.i.i.i.i.i.i.i.v ' Y.n 7.p.i.i.i.i.i.i.i.i.i 1.Z.i.i.i G < d.i.i.i.i.i.i",
".i.i.i.i.i.i.i.i.i.i.i.k 5 n.i.i v.4.i.i.i.i.i.i.i.i h.9.i.i.i.i.i.i.i.i.i.i.i ~ [.i.i.i.i.i.i.i.i.i u.i.i.i.i.i.< B.i.i.i.i.i.i",
".i.i.i.i.i.i.i.i.i.i.i.i B , b.i g =.K.i.i.i.i.i.i.i h.9.i.i.i.i.i.i.i.i.i.i.i.i . o.i.i.i.i.i.i.i.i.r.c.i.i.i.i C e _.i.i.i.i.i",
".i.i.i.i.i.i.i.i.i.i.i.i.i.n.: }.i.i.. R.i.i.i.i.i.i.p 3.B.i.i.i.i.i.i.i.i.i c.< 6.: h.i.i.i.i.i.i.i.a 4.j.i.i.i.i.i . o.i.i.i.i",
".i.i.i.i.i.i.i.i.i.i.i.i.i.i.z Q u u.6.t.U.i.i.i.i.i.i =.I.i.i.i.i.i.i.I.R y.5 B.v v.9 &.Z.i.i.i.i.i u.z e. .i.i.i.i h.9.i.i.i.i",
".i.i.i.i.i.i.i.i.i.i.i.i.i.i.i.i.i.i.x #.e.p.i.i.i.i g m.a u.w u u u u = #.p.i.i.i.i.i.Y 1 A.i.i.i.i +.!.i.0 g.i.i.i.o Y.i.i.i.i",
".i.i.i.i.i.i.i.i.i.i.i.i.i.i.i.i.i.i.i.i ( '.i.i.i.i h.9.i.i u.i.i.i.i.i.i.i.i.i.i.i.i.i.i u.i.i.i.i K.$.i.j e.i.i.i u.i.i.i.i.i",
".i.i.i.i.i.i.i.i.i.i.i.i.i.i.i.i.i.i.i.i.c 0.i.i.i.i.m 7.i.i u.i.i.i.i.i.i.i.i.i.i.i.i.i.i.~ O.i.i.i G , g.j e.i.i.j e.i.i.i.i.i",
".i.i.i.i.i.i.i.i.i.i.i.i.i.i.i.i.i.i.i.i.i u.i.i.i.i u.i.i.i u.i.i.i.i.i.i.i.i.i.i.i.i.i.i.H :.i.i.i N.;.j.j e.i.i.R #.i.i.i.i.i",
".i.i.i.i.i.i.i.i.i.i.i.i.i.i.i.i.i.i.i.i.i 1.Z.i.i.i u.i.i.i.~ O.i.i.i.i.i.i.i.i.i.i.i.i.i . o.i.i.i.! +.i.j e.i.i.R #.i.i.i.i.i",
".i.i.i.i.i.i.i.i.i.i.i.i.i.i.i.i.i.i.i.i.i.j e.i.i.D.&. .i.i W |.i.i.i.i.i.i.i.i.i.i.i.i.i u.i.i.i.i u.i.i.j e.i.i.; D.i.i.i.i.i",
".i.i.i.i.i.i.i.i.i.i.i.i.i.i.i.i.i.i.i.i.i.T %.i.i.R.9.9.i.i W |.i.i.i.i.i.i.i.i.i.i.i.g 2.M.i.i.f.=.G.>.3 * %.i.i u.i.i.i.i.i.i",
".i.i.i.i.i.i.i.i.i.i.i.i.i.i.i.i.i.i h.N.N a.i.i.i.1 W G.i.i 8.n.i.i.i.i.i.i.i.i.i.c.N K.=.i.i.i.B.3 , C n.U.i.i.X T.i.i.i.i.i.i",
".i.i.i.i.i.i.i.i.i.i.i.i.i.i.i.i.i.i.X 5 5.-.i.i.i u.i.i.i.Y &.i.i.i.i.i.i.i.i.i.o 4 5 <.i.i.i.i u :.H.i.i.i.i.v 4 c.i.i.i.i.i.i",
".i.i.i.i.i.i.i.i.i.i.i.i.i.i.i.i.i.m 7.i.i.i.i.i.B s u u u &.s.i.i.i.i.i.i.i.i -.Y.z.i.i.i J l u.W v 8 u u u u 9.x.i.i.i.i.i.i.i",
".i.i.i.i.i.i.i.i.i.i.i.i.i.i.i.i.i J q.9.+.i.i 1 Z B.i.i.i.i.i.i.i.i.i.i.i.i.i <.y.Y.i.i.R q J.i.i.i.i.i.i.i.i.i.i.i.i.i.i.i.i.i",
".i.i.i.i.i.i.i.i.i.i.i.i.i.i.i.i.i.i.s h ) ^ ^.P h.i.i.i.i.i.i.i.i.i.i.i.i.i.i.p h.6 ^ ^.2.s.i.i.i.i.i.i.i.i.i.i.i.i.i.i.i.i.i.i"
};
