/* XPM */
static char *kat-r[] = {
/* width height ncolors chars_per_pixel */
"64 39 186 2",
/* colors */
"   c #000000",
" . c #B1B1B1",
" X c #AFAFAF",
" o c #ADADAD",
" O c #ABABAB",
" + c #A9A9A9",
" @ c #A7A7A7",
" # c #A5A5A5",
" $ c #A3A3A3",
" % c #A1A1A1",
" & c #9F9F9F",
" * c #9D9D9D",
" = c #9B9B9B",
" - c #999999",
" ; c #979797",
" : c #959595",
" > c #939393",
" , c #8F8F8F",
" < c #8D8D8D",
" 1 c #8B8B8B",
" 2 c #898989",
" 3 c #878787",
" 4 c #838383",
" 5 c #818181",
" 6 c #7F7F7F",
" 7 c #7D7D7D",
" 8 c #7B7B7B",
" 9 c #797979",
" 0 c #777777",
" q c #757575",
" w c #737373",
" e c #6F6F6F",
" r c #6D6D6D",
" t c #6B6B6B",
" y c #696969",
" u c #676767",
" i c #656565",
" p c #636363",
" a c #616161",
" s c #5F5F5F",
" d c #5D5D5D",
" f c #5B5B5B",
" g c #595959",
" h c #575757",
" j c #555555",
" k c #FEFEFE",
" l c #4B4B4B",
" z c #FCFCFC",
" x c #494949",
" c c #FAFAFA",
" v c #F8F8F8",
" b c #F6F6F6",
" n c #F4F4F4",
" m c #F2F2F2",
" M c #3F3F3F",
" N c #F0F0F0",
" B c #EEEEEE",
" V c #ECECEC",
" C c #393939",
" Z c #E6E6E6",
" A c #E4E4E4",
" S c #313131",
" D c #E2E2E2",
" F c #E0E0E0",
" G c #2D2D2D",
" H c #DEDEDE",
" J c #DCDCDC",
" K c #DADADA",
" L c #272727",
" P c #D8D8D8",
" I c #D6D6D6",
" U c #232323",
" Y c #D4D4D4",
" T c #D2D2D2",
" R c #D0D0D0",
" E c #CECECE",
" W c #CCCCCC",
" Q c #CACACA",
" ! c #C8C8C8",
" ~ c #C6C6C6",
" ^ c #C4C4C4",
" / c #C2C2C2",
" ( c #C0C0C0",
" ) c #BEBEBE",
" _ c #0B0B0B",
" ` c #BCBCBC",
" ' c #090909",
" ] c #BABABA",
" [ c #B8B8B8",
" { c #B6B6B6",
" } c #B4B4B4",
" | c #010101",
".  c #B0B0B0",
".. c #AEAEAE",
".X c #ACACAC",
".o c #AAAAAA",
".O c #A8A8A8",
".+ c #A6A6A6",
".@ c #A4A4A4",
".# c #A2A2A2",
".$ c #A0A0A0",
".% c #9E9E9E",
".& c #9C9C9C",
".* c #989898",
".= c #969696",
".- c #929292",
".; c #909090",
".: c #8E8E8E",
".> c #8C8C8C",
"., c #8A8A8A",
".< c #888888",
".1 c #868686",
".2 c #848484",
".3 c #828282",
".4 c #808080",
".5 c #7E7E7E",
".6 c #7C7C7C",
".7 c #7A7A7A",
".8 c #787878",
".9 c #767676",
".0 c #747474",
".q c #727272",
".w c #707070",
".e c #6C6C6C",
".r c #6A6A6A",
".t c #686868",
".y c #666666",
".u c #646464",
".i c #626262",
".p c #606060",
".a c #5E5E5E",
".s c #5C5C5C",
".d c #5A5A5A",
".f c #525252",
".g c #505050",
".h c #4E4E4E",
".j c #FFFFFF",
".k c #4C4C4C",
".l c #FDFDFD",
".z c #FBFBFB",
".x c #484848",
".c c #F9F9F9",
".v c #464646",
".b c #F7F7F7",
".n c #F5F5F5",
".m c #F3F3F3",
".M c #F1F1F1",
".N c #EFEFEF",
".B c #EBEBEB",
".V c #383838",
".C c #E9E9E9",
".Z c #E7E7E7",
".A c #E5E5E5",
".S c #323232",
".D c #E3E3E3",
".F c #E1E1E1",
".G c #DFDFDF",
".H c #DDDDDD",
".J c #2A2A2A",
".K c #DBDBDB",
".L c #D9D9D9",
".P c #D7D7D7",
".I c #D5D5D5",
".U c #D3D3D3",
".Y c #D1D1D1",
".T c #CFCFCF",
".R c #CDCDCD",
".E c #CBCBCB",
".W c #C9C9C9",
".Q c #C7C7C7",
".! c #C5C5C5",
".~ c #121212",
".^ c #C3C3C3",
"./ c #101010",
".( c #C1C1C1",
".) c #0E0E0E",
"._ c #BFBFBF",
".` c #0C0C0C",
".' c #BDBDBD",
".] c #BBBBBB",
".[ c #B9B9B9",
".{ c #B7B7B7",
".} c #040404",
".| c #B5B5B5",
"X  c #020202",
"X. c #B3B3B3",
/* pixels */
".j.!.j.j.j.j.j.j.j.j.j H q W.j.j.j.j.j.j.j.j.j.j.j.j.j.j.j.j.j.j.j.j.j.j.j.j.j.j.j.j.j.j.j.j.j.j.j.j.j.j.j.j.j.j.j.j.j.j.j.j.j.j",
".j.g.*.M.j.j.j.j.j.j z.q P.w z.j.j.j.j.j.j.j.j.j.j.j.j.j.j.j.j.j.j.j.j.j.j.j.M.N.N.N.N.N.N.N.N.N v.j.j.j.j.j.j.j.j.j.j.j.j.j.j.j",
".j.d : h.Q.j.j.j.j.j [ %.j.- !.j.j.j.j.j.j.j.j.j.j.j.j.j.j.j.j.j.j.j.j.T : :.w.r.r.r.r.r.r.r.r.r 5...j.j.j.j.j.j.j.j.j.j.j.j.j.j",
".j.d.Z t.-.H.*.d.d K p.B.j.- x.j.j.j.j.j.j.j.j.j.j.j.j.j.j.j.j.n F O.d., ^ ^.b.j.j.j.j.j.j.j.j.j F O.d.d f F F F A.j.j.j.j.j.j.j",
".j.d.j.O.j Z.(.j.j 6 E S.H.- U.j.j.j.j.j.j.j.j.j.j.j.j.j.j H.1.3 9...j.j.j.j.j.j.j.j.j.j.j.j.j.j.j.j.j.j k 9 9 9 8.1 *.j.j.j.j.j",
".j.9 R n.j.j.j.j.j.j k Y.m.+ - >.j.j.j.j.j.j.j.j.j.j.Z.{.d 8 Y D.j.j.j.j.j.j.j.j.j.j.j.j.j.j.j.j.j.j.j.j.j.j.j.j.c Y.'.d R.j.j.j",
".j v.g ^.j.j.j.j.j.j.j.j.j.j J 7.j.j.j.j.j.z.9.9.9.9.4.#.j.j.j.j.j.j.j.j.j.j.j.j.j.j.j.j.j.j.j.j.j.j.j.j.j.j.j.j.j.j.j.j.;.W.j.j",
".j.M e.c.j.j.j.j.j.j.j.j.j.j.A.5 W.j.N ( d.a.D.D.D.D.M.j.j.j.j.j.j.j.j.j.j.j.j.j.j.j.j.j.j.j.j.j.j.j.j.j.e.j.j.j.j.j.j.j v.; R.j",
".j.>.J J.j.j.j.j.j r.t.j.j.j.j.R ,.y w - z.j.j.j.j.j.j.j.j.j.j.j.j.j.j.j.j.j.j.j.j.j.j.j.j.j.j.j.j.j.j.j ` *.j.j.j.j.j.j.j.j.d.j",
".j j a L.j.j.j V.h | %.j.j.j n.P.l.m b.j.j.j.j.j.j.j.j.j.j.j.j.j.j.j.j.j.j.j.j.j.j.j.j.j.j.j.j.j.j.j.j.j k.q.H C.> . m.j.j.j O..",
".j lX  _ @.j.j._.}.}.o.j.j.j J 7.j.j.j.j.j.j.j.j.j.j.j.j.j.j.j.j.j.j.j.j.j.j.j.j.j.j.j.j.j.j.j.j.j.j.j.j.j $.{ > 4.O.2.j.j.j X.o",
".j.d `.f 9.j.j ;.j.j /.j.j.j.X o.j.j.j.j.j.j.j.j.j.j.j.j.j.j.j.j.j.j.j.j.j.j.j.j.j.j.j.j.j.j.j.j.j.j.j.j.j $.{.].%.j.d.j.j.j W 1",
".j.Q ;.Y 4.j.j c V a -.j.j.b.i.j.j.j.j.j.j.j.j.j.j.j.j.j.j.j.j.j.j.j.j.j.j.j.j.j.j.j.j.j.j.j.j.j.j.j.j.j.j $.{.j.d.j.d.j.j.j.j j",
" P.- j.~.-.-.R : r v.j.j.j.- !.j.j.j.j.j.j.j.j.j.j.j.j.j.j.j.j.j.j.j.j.j.j.j.j.j.j.j.j.j.j.j.j.j.j.j.j.j.j $.{.Y.< Q ,.j.j.j.j j",
" V ~ # M 9.` - `.:.b.j.j.m 2.m.j.j.j.j.j.j.j.j.j.j.j.j.j.j.j.j.j.j.j.j.j.5.j.j.j.j.j J J J J J J J J J J.K s W.:.h , b.j.j.j.j j",
".U.3 x./.3 6.3.).h.3.I.j.j.j.j.j.j.j.j.j.j.j.j.j.j.j.j.j.j.j.j.j.j.j.j.j.d.j.j.j.,.3 7 7 7 7 7 7 7 7 7 7 7 7 7 }.j.j.j.j.j.j P 6",
".1 X.:.P.P.t.S.S.S.~.k.2.Y.j.j.j.j.j.j.j.j.j.j.j.j.j.j.j.j.j.j.j.j.j.j.j.d.AX..d.T.P.j.j.j.j.j.j.j.j.j.j.j.j.j.j.j.j.j.j.j.j.%.]",
".R.>.j.j.j.j.j.j.j.d.j.I.=.j.j.j.j.j.j.j.j.j.j.j.j.j.j.j.j.j.j.j.j.j.j.j.%.4 @.j.j.j.j.j.j.j.j.j.j.j.j.j.j.j.j.j.j.j.j.j.j +. .j",
".b v.j.j.j.j.j.j.j +. .j.j.j.j.j.j.j.j.j.j.j.j.j.j.j.j.j.j.j.j.j.j.j.j.j.|.@.j.j.j.j.j.j A.'.'.' F.j.j.j.j.j.j.j W.'.' 3.d.  k.j",
".j.j.j.j.j.j.j.j.j ..O.j.j.j.j.j.j.j.j.j.j.j.j.j.j.j.j.j.j.j.j.j.j.j.j.j.d.j.j.j.j = p p.7.&.&.&.5 p p p p p p p ,.&.& T.j.j.j.j",
".j.j.j.j.j.j.j.j.j z d.j.j.j.H.3.j.j.j.j.j.j.j.j.j.m I.j.j.j.j.j.j.j.j , 2.3.x.V.d ) b b c.j.j.j c b b / b b b . $.j.j.j.j.j.j.j",
".j.j.j.j.j.j.j.j.j.j.Q.-.j.j n.2.F.j.j.j.j.j.j.j.j K 5 k.j.j.j.j.j.j.j.L.X.P.Q >.j.j.j.j.j.j.j.j.j.j - (.j.j.j.j.a.z.j.j.j.j.j.j",
".j.j.j.j.j.j.j.j.j.j.l 0 A.j.j.j.d.j.j.j.j.j.j.j.j.j.5.K.j.j.j.j.j.j.j.j.j.j.j $ {.j.j.j.j.j.j.j.j.j.t.M.j.j.j.j H.6.j.j.j.j.j.j",
".j.j.j.j.j.j.j.j.j.j.j Z.4 m.j.jX..O.l.j.j.j.j.j.j.j.5.K.j.j.j.j.j.j.j.j.j.j.j.j.%.].j.j.j.j.j.j.j.j.t.D.j.j.j.j b < q.n.j.j.j.j",
".j.j.j.j.j.j.j.j.j.j.j.j n 7 *.j.j . +.j.j.j.j.j.j.j.{.#.j.j.j.j.j.j.j.j.j.j Z.:.1.2 k.j.j.j.j.j.j.j.t.0 P.j.j.j.j.j A 5 n.j.j.j",
".j.j.j.j.j.j.j.j.j.j.j.j.j.C `.d.d.d 5 - k.j.j.j.j.j.j.d.j.j.j.j.j.j.z.L ^.d w.E K H fX..C.j.j.j.j.j.t D 5.< n.j.j.j.j.0.A.j.j.j",
".j.j.j.j.j.j.j.j.j.j.j.j.j.j.j.j.j.j <.S b.j.j.j.j.j ) G.5.5.5.5.5.5.5 5.=.j.j.j.j.j.j @.4 F.j.j.j.j } #.j $.{.j.j.j Z.4 m.j.j.j",
".j.j.j.j.j.j.j.j.j.j.j.j.j.j.j.j.j.j.j.C.w.j.j.j.j.j.5 `.K & 2.K.K.K.G.j.j.j.j.j.j.j.j.j N y.j.j.j.j.j.d.j m u.j.j.j E 1.j.j.j.j",
".j.j.j.j.j.j.j.j.j.j.j.j.j.j.j.j.j.j.j.j 2 R.j.j.j.j.5.K.j.[.$.j.j.j.j.j.j.j.j.j.j.j.j.j.j.+X..j.j.j.j.d.j.j.d.j.j.j E 1.j.j.j.j",
".j.j.j.j.j.j.j.j.j.j.j.j.j.j.j.j.j.j.j.j o.X.j.j.j J.4 z.j.[.$.j.j.j.j.j.j.j.j.j.j.j.j.j.j.F.8.j.j.j.j > ~.j.d.j.j.j.u.n.j.j.j.j",
".j.j.j.j.j.j.j.j.j.j.j.j.j.j.j.j.j.j.j.j o.X.j.j.j.L 5.j.j.A 0 z.j.j.j.j.j.j.j.j.j.j.j.j.j.F.8.j.j.j.j.d.j.j.d.j.j.j.d.j.j.j.j.j",
".j.j.j.j.j.j.j.j.j.j.j.j.j.j.j.j.j.j.j.j.l.s.j.j.j X.4.m.j.j s c.j.j.j.j.j.j.j.j.j.j.j.j.j d z.j.j.j t.N.j.j.d.j.j I 4.j.j.j.j.j",
".j.j.j.j.j.j.j.j.j.j.j.j.j.j.j.j.j.j.j.j.z.a.j.j.j g 9.K.j.j s c.j.j.j.j.j.j.j.j.j.j.j k.|.@.j.j.j R.> / f n.a.j.j 4 I.j.j.j.j.j",
".j.j.j.j.j.j.j.j.j.j.j.j.j.j.j.j.j.j.j.j o.X.j.j T.w i.C.j.D 9 z.j.j.j.j.j.j.j.j.j.j.j.M.t.j.j.j.j.d.^.= k i.U.j m.4 Z.j.j.j.j.j",
".j.j.j.j.j.j.j.j.j.j.j.j.j.j.j.j.j.M u.d.v }.j.j.:.E.j.j.j. .o.j.j.j.j.j.j.j.j.j.Z.>.d.p.L.j.j.j -.- 1 z.j.j.j.j R 2.j.j.j.j.j.j",
".j.j.j.j.j.j.j.j.j.j.j.j.j.j.j.j.j.q.Z.j.j.j.j.j.: e 1 1 1.&.j.j.j.j.j.j.j.j.j `.9.R.j.j.j.M 1 1 6 E.3 1 1 1 1 1 1.j.j.j.j.j.j.j",
".j.j.j.j.j.j.j.j.j.j.j.j.j.j.j.j H 4 R.I k.j.N ~.9.T.T.T.T.z.j.j.j.j.j.j.j.j.j t.Q N.j.j B.(.8.T.C.j.D.T.T.T.T.T n.j.j.j.j.j.j.j",
".j.j.j.j.j.j.j.j.j.j.j.j.j.j.j.j.j.].2.2 8 8.5.2 ].j.j.j.j.j.j.j.j.j.j.j.j.j.j [.2.5 8 8 6.-.j.j.j.j.j.j.j.j.j.j.j.j.j.j.j.j.j.j",
".j.j.j.j.j.j.j.j.j.j.j.j.j.j.j.j.j.j.j.j '   a.j.j.j.j.j.j.j.j.j.j.j.j.j.j.j.j.j.j.s    .t.j.j.j.j.j.j.j.j.j.j.j.j.j.j.j.j.j.j.j"
};
