/* XPM */
static char *ketel-r[] = {
/* width height ncolors chars_per_pixel */
"64 61 192 2",
/* colors */
"   c #000000",
" . c #B1B1B1",
" X c #AFAFAF",
" o c #ADADAD",
" O c #ABABAB",
" + c #A7A7A7",
" @ c #A3A3A3",
" # c #A1A1A1",
" $ c #9F9F9F",
" % c #9D9D9D",
" & c #9B9B9B",
" * c #999999",
" = c #979797",
" - c #959595",
" ; c #939393",
" : c #919191",
" > c #8F8F8F",
" , c #8D8D8D",
" < c #8B8B8B",
" 1 c #898989",
" 2 c #878787",
" 3 c #858585",
" 4 c #838383",
" 5 c #818181",
" 6 c #7F7F7F",
" 7 c #7B7B7B",
" 8 c #737373",
" 9 c #717171",
" 0 c #6F6F6F",
" q c #6D6D6D",
" w c #676767",
" e c #656565",
" r c #636363",
" t c #616161",
" y c #5D5D5D",
" u c #5B5B5B",
" i c #595959",
" p c #575757",
" a c #555555",
" s c #535353",
" d c #515151",
" f c #4F4F4F",
" g c #4D4D4D",
" h c #FEFEFE",
" j c #FCFCFC",
" k c #494949",
" l c #FAFAFA",
" z c #474747",
" x c #454545",
" c c #F6F6F6",
" v c #F4F4F4",
" b c #414141",
" n c #F2F2F2",
" m c #3F3F3F",
" M c #F0F0F0",
" N c #ECECEC",
" B c #393939",
" V c #EAEAEA",
" C c #373737",
" Z c #E8E8E8",
" A c #353535",
" S c #E6E6E6",
" D c #333333",
" F c #E4E4E4",
" G c #313131",
" H c #E2E2E2",
" J c #2F2F2F",
" K c #E0E0E0",
" L c #2D2D2D",
" P c #DEDEDE",
" I c #2B2B2B",
" U c #DCDCDC",
" Y c #272727",
" T c #D8D8D8",
" R c #252525",
" E c #D6D6D6",
" W c #232323",
" Q c #D4D4D4",
" ! c #212121",
" ~ c #D2D2D2",
" ^ c #D0D0D0",
" / c #1D1D1D",
" ( c #CECECE",
" ) c #CACACA",
" _ c #171717",
" ` c #C8C8C8",
" ' c #151515",
" ] c #C6C6C6",
" [ c #131313",
" { c #C4C4C4",
" } c #111111",
" | c #C2C2C2",
".  c #0D0D0D",
".. c #BEBEBE",
".X c #BCBCBC",
".o c #B8B8B8",
".O c #B6B6B6",
".+ c #B4B4B4",
".@ c #B2B2B2",
".# c #B0B0B0",
".$ c #ACACAC",
".% c #AAAAAA",
".& c #A8A8A8",
".* c #A6A6A6",
".= c #A2A2A2",
".- c #A0A0A0",
".; c #9E9E9E",
".: c #9C9C9C",
".> c #9A9A9A",
"., c #949494",
".< c #929292",
".1 c #909090",
".2 c #8E8E8E",
".3 c #8C8C8C",
".4 c #8A8A8A",
".5 c #888888",
".6 c #868686",
".7 c #848484",
".8 c #828282",
".9 c #808080",
".0 c #7C7C7C",
".q c #7A7A7A",
".w c #787878",
".e c #767676",
".r c #747474",
".t c #727272",
".y c #707070",
".u c #6E6E6E",
".i c #6C6C6C",
".p c #6A6A6A",
".a c #686868",
".s c #666666",
".d c #646464",
".f c #626262",
".g c #606060",
".h c #5C5C5C",
".j c #585858",
".k c #565656",
".l c #505050",
".z c #4E4E4E",
".x c #FFFFFF",
".c c #FDFDFD",
".v c #4A4A4A",
".b c #FBFBFB",
".n c #484848",
".m c #F9F9F9",
".M c #464646",
".N c #F7F7F7",
".B c #444444",
".V c #F5F5F5",
".C c #424242",
".Z c #F3F3F3",
".A c #404040",
".S c #F1F1F1",
".D c #EFEFEF",
".F c #EDEDED",
".G c #3A3A3A",
".H c #EBEBEB",
".J c #383838",
".K c #E9E9E9",
".L c #363636",
".P c #E7E7E7",
".I c #343434",
".U c #E5E5E5",
".Y c #323232",
".T c #E3E3E3",
".R c #303030",
".E c #2E2E2E",
".W c #DFDFDF",
".Q c #DDDDDD",
".! c #DBDBDB",
".~ c #D9D9D9",
".^ c #D7D7D7",
"./ c #242424",
".( c #D5D5D5",
".) c #D1D1D1",
"._ c #CFCFCF",
".` c #1C1C1C",
".' c #CDCDCD",
".] c #1A1A1A",
".[ c #CBCBCB",
".{ c #181818",
".} c #C9C9C9",
".| c #C7C7C7",
"X  c #C5C5C5",
"X. c #C3C3C3",
"XX c #C1C1C1",
"Xo c #BFBFBF",
"XO c #BDBDBD",
"X+ c #BBBBBB",
"X@ c #B9B9B9",
"X# c #B7B7B7",
/* pixels */
".x.x.x.x.x.x.x.x.x.x.x.x.x.x.x.x.x.x.x.x.x.x.x.x.x.x.x.x.x.x.x.x.x.x.x.m.|.|.|.|.|.|.N.x.x.x.x.x.x.x.x.x.x.x.x.x.x.x.x.x.x.x.x.x",
".x.x.x.x.x.x.x.x.x.x.x.x.x.x.x.x.x.x.x.x.x.x.x.x.x.x.x.x.x T > > > > >.3.y.y.y.y.y.y < > > > > >.(.x.x.x.x.x.x.x.x.x.x.x.x.x.x.x",
".x.x.x.x.x.x.x.x.x.x.x.x.x.x.x.x.x.x.x.x.x.x.x.x.x.x.x.x.K B.g R.&.&.& ..x.x.x.x.x.x.+.&.&.& 1  .L p.6.x.x.x.x.x.x.x.x.x.x.x.x.x",
".x.x.x.x.x.x.x.x.x.x.x.x.x.x.x.x.x.x.x.x.x.x.x.x.x.x.x.x J   :.J.x.x.x.x.x.x.x.x.x.x.x.x.x.x ^  .3 ~ b.Z.x.x.x.x.x.x.x.x.x.x.x.x",
".x.x.x.x.x.x.x.x.x.x.x.x.x.x.x.x.x.x.x.x.x.x.x.x.x.x.x.x _   :.J.x.x.x.x.x.x.x.x.x.x.x.x.x.x ^   $.D  .9.x.x.x.x.x.x.x.x.x.x.x.x",
".x.x.x.x.x.x.x.x.x.x.x.x.x.x.x.x.x.x.x.x.x.x.x.x.x.x.x.x _   :.J.x.x.x.x.x.x.x.x.x.x.x.x.x.x ^   $.D  .9.x.x.x.x.x.x.x.x.x.x.x.x",
".x.x.x.x.x.x.x.x.x.x.x.x.x.x.x.x.x.x.x.x.x.x.x.x.x.x.x.q.:   :.J.x.x.x.x.x.x.x.x.x.x.x.x.x.x ^.z Z.D.L 6.}.x.x.x.x.x.x.x.x.x.x.x",
".x.x.x.x.x.x.x.x.x.x.x.x.x.x.x.x.x.x.x.x.x.x.x.x.x.x.P.f.[ } A D.J.J.J.J.J.J.J.J.J.J.J.J.J.J C.I.J A.n 6.o.x.x.x.x.x.x.x.x.x.x.x",
".x.x.x.x.x.x.x.x.x.x.x.x.x.x.x.x.x.x.x.x.x.x.x.x.x.x 2.# *.;.x.x.x.x.x.x.x.x.x.x.x.x.x.x.x.x.x.x.x c.e 6 1.m.x.x.x.x.x.x.x.x.x.x",
".x.x.x.x.x.x.x.x.x.x.x.x.x.x.x.x.x.x.x.x.x.x.x.x.x.x 2.#.J.x.x.x.x.x.x.x.x.x.x.x.x.x.x.x.x.x.x.x.x.xX#.9 z M.x.x.x.x.x.x.x.x.x.x",
".x.x.x.x.x.x.x.x.x.x.x.x.x.x.x.x.x.x.x.x.x.x.x.x.x.x 2.#.J.x.x.x.x.x.x.x.x.x.x.x.x.x.x.x.x.x.x.x.x.x.X.9 f H.x.x.x.x.x.x.x.x.x.x",
".x.x.x.x.x.x.x.x.x.x.x.x.x.x.x.x.x.x.x.x.x.x.x.x.x N 4 ;.i.x.x.x.x.x.x.x.x.x.x.x.x.x.x.x.x.x.x.x.x.x.x 6.o.J.x.x.x.x.x.x.x.x.x.x",
".x.x.x.x.x.x.x.x.x.x.x.x.x.x.x.x.x.x.x.x.x.x.x.x.xXo.w f Z.x.x.x.x.x.x.x.x.x.x.x.x.x.x.x.x.x.x.x.x.x.x 6.o.J.x.x.x.x.x.x.x.x.x.x",
".x.x.x.x.x.x.x.x.x.x.x.x.x.x.x.x.x.x.x.x.x.x.x.x.m t U f Z.x.x.x.x.x.x.x.x.x.x.x.x.x.x.x.x.x.x.x.x.x.x.Q e # <.x.x.x.x.x.x.x.x.x",
".x.x.x.x.x.x.x.x.x.x.x.x.x.x.x.x.x.x.x.x.x.x.x.x.N.A.3.$ h.x.x.x.x.x.x.x.x.x.x.x.x.x.x.x.x.x.x.x.x.x.x.x z (.i.F.x.x.x.x.x.x.x.x",
".x.x.x.x.x.x.x.x.x.x.x.x.x.x.x.x.x.x.x.x.x.x.x.x O.3 2.#.x.x.x.x.x.x.x.x.x.x.x.x.x.x.x.x.x.x.x.x.x.x.x.x.1 +.; *.x.x.x.x.x.x.x.x",
".x.x.x.x.x.x.x.x.x.x.x.x.x.x.x.x.x.x.x.x.x.x.x.x.J.x 2.#.x.x.x.x.x.x.x.x.x.x.x.x.x.x.x.x.x.x.x.x.x.x.x.x.x.J.; *.x.x.x.x.x.x.x.x",
".x.x.x.x.x.x.x.x.x.x.x.x.x.x.x.x.x.x.x.x.x.x.x.x.J ).q n.x.x.x.x.x.x.x.x.x.x.x.x.x.x.x.x.x.x.x.x.x.x.x.x.x.J.D.u.~.x.x.x.x.x.x.x",
".x.x.x.x.x.x.x.x.x.x.x.x.x.x.x.x.x.x.x.x.x.x.x E tXo.w.x.x.x.x.x.x.x.x.x.x.x.x.x.x.x.x.x.x.x.x.x.x.x.x.x.x r Q.s.).x.x.x.x.x.x.x",
".x.x.x.x.x.x.x.x.x.x.x.x.x.x.x.x.x.x.x.x.x.x.x.a.[.9X+.x.x.x.x.x.x.x.x.x.x.x.x.x.x.x.x.x.x.x.x.x.x.x.x.x.x E t.@.6.x.x.x.x.x.x.x",
".x.x.x.x.x.x.x.x.x.x.x.x.x.x.x.x.x.x.x.x.x.x.x.a.|.A.x.x.x.x.x.x.x.x.x.x.x.x.x.~ k...x.x.x.x.x.x.x.x.x.x.x E t.x.J.x.x.x.x.x.x.x",
".x.x.x.x.x.x.x.x.x.x.x.x.x.x.x.x.x.x.x.x.x.x.x.a.% y.x.x.x.x.x.x.x.x.x.x.x V m.I Y.Y.M F.x.x.x.x.x.x.x.x.x j.>.-.J.x.x.x.x.x.x.x",
".x.x.x.x.x.x.x.x.x.x.x.x.x.x.x.x.x.x.x.x.x.x U.q.].x.x.x.x P.-.-.-.-.-.-Xo.r k.c.x.x.K G.-.-.-.-.-.-.- ^.x.x.; *.J.x.x.x.x.x.x.x",
".x.x.x.x.x.x.x.x.x.x.x.x.x.x.x.x.x.x.x.x.x.x.- =.J.x.o.a.a.B.k = = = = =X@.rX..x.x.x.K.E = = = = = = = 6.a c.^ 7 , >.x.x.x.x.x.x",
".x.x.x.x j.b.x.x.x.x.x.x.x.x.x.x.x.x.x.x.x.x.-.<.R.J 6._._ 2 ,.c.x.x.x.x.x.w Y v.N.N z s.x.x.x.x.x.xXX.7._ b 5 r.|.C.x.x.x.x.x.x",
".x.x.x.m.8 wXo h.x.x.x.x.x.x.x.x.x.x.x.x.x.V.w  .G.x.x.x.x.X.` = (.x.x.x.x.x q.A.A.A.l.x.x.x.x.UXoX#.e.x.x.x.O.] -.C.x.x.x.x.x.x",
".x.x.x.,.w.w /.:.x.x.x.x.x.x.x.x.x.x.x.x.x T L.w.7 2 2 2 v.x.@.w 7 2 2.,.x.x.x.x.x.x.x.x.x.* 2 5.w.9.x.x.x.2 2.L   WXX.x.x.x.x.x",
".x.x <.$.x.xX. % fXo.x.x.x.x.x.x.x.x.x.x.x.p.'.xXo.#.#.#.j f f d.F.#.#.* f f f f f f f f f =.# ^ : f f f f.%.#.#.#.8.q.x.x.x.x.x",
".x.& [ ].x.x.x l -.R x P.D.x.x.x.x.x c P.a K.x.x.x.x.x.x V Z Z S.J.J.J.L ! !.-.|.|.| C ! !.Y.J.J.* Z Z Z Z h.x.x.x.m.,.$.T.x.x.x",
".x.x.<./.x.x.x.x.x.x n m.k.*.b.x.x l : i._.x.x.x.x.x.x.x.x.x.x.x.x.x.x.x.x.x.9 i i i.K.x.x.x.x.x.x.x.x.x.x.x.x.x.x.x.x <.d ].x.x",
".x.x.x &.u.X.x.x.x.x.x P : :.y +.x.5 X.x.x.x.x.x.x.x.x.x.x.x.x.x.x.x.x.x.x.x.x.x.x.x.x.x.x.x.x.x.x.x.x.x.x.x.x.x.x.x.x.x M.7 |.x",
".x.x.x l.4 1.x.x.x.x.x.x.x.x.[.1 C.@.c.c h.x.x.x.x.x.x.x.x.x.x.x.x.x.x.x.x.x.x.x.x.x.x.x.x.x.x.x.x.x.x.x.x.x.x.x.x.x.x h.c V 8 E",
".x.x.x.x.x - @ h.x.x.x.x.x.x.x.x.6. .G.G %X .!.x.x.x.x.x.x.x.x.x.x.x.x.x.x.x.x.x.x.x.x.x.x.x.x.x.x.x.x.x.x.x.x.x.cX X .d.G.G.{.[",
".x.x.x.x.x.x., @.x.x.x.x.x.x.x.x.x.J.x.x.>.t.0 , , ,X..x.x.x.x.x.x.x.x.x.x.x.x.x.x.x.x.x.x.x.x.x.x.x.x.x.x.F , ,.3.t.t.(.x.x.i.[",
".x.x.x.x.x.x.x &.:.x.x.x.x.x.x.x.x.J.x.x.x.x.W.%.%.%.8 a a.1.x.x.x.x.x.x.x.x.x.x.x.x.x.x.x.x.x.x - a a a a r.%.% o.x.x.x.x.x.i.[",
".x.x.x.x.x.x.x.m &.*.b.x.x.x.x.x.x U u.x.x.x.x.x.x.x.S H H +.J.J.J.J.J.v F F F F F F F F.4.J.J.J.= H H H H.P.x.x.x.x.x.x.x.x.i.[",
".x.x.x.x.x.x.x.x.x :.*.x.x.x.x.x.x.S.M.x.x.x.x.x.x.x.x.x.x.x.x.x.x.x.x.F s s s s s s s s o.x.x.x.x.x.x.x.x.x.x.x.x.x.x.x.x.x.i.[",
".x.x.x.x.x.x.x.x.x.x.J.x.x.x.x.x.x.S.M.x.x.x.x.x.x.x.x.x.x.x.x.x.x.x.x.x.x.x.x.x.x.x.x.x.x.x.x.x.x.x.x.x.x.x.x.x.x.x.x.x.x.x.i.[",
".x.x.x.x.x.x.x.x.x.xXX.e.x.x.x.x.x.S.M.x.x.x.x.x.x.x.x.x.x.x.x.x.x.x.x.x.x.x.x.x.x.x.x.x.x.x.x.x.x.x.x.x.x.x.x.x.x.x.x.x.x.x.i.[",
".x.x.x.x.x.x.x.x.x.x.x | /.X.x.x.x.S.M.x.x.x.x.x.x.x.x.x.x.x.x.x.x.x.x.x.x.x.x.x.x.x.x.x.x.x.x.x.x.x.x.x.x.x.x.x.x.x.x.x.x.x.i.[",
".x.x.x.x.x.x.x.x.x.x.x.x.+.5 l.x.x.S.M.x.x.x.x.x.x.x.x.x.x.x.x.x.x.x.x.x.x.x.x.x.x.x.x.x.x.x.x.x.x.x.x.x.x.x.x.x.x.x.x.x.x.x.i.[",
".x.x.x.x.x.x.x.x.x.x.x.x.xXO.q.x.x.S.M.x.x.x.x.x.x.x.x.x.x.x.x.x.x.x.x.x.x.x.x.x.x.x.x.x.x.x.x.x.x.x.x.x.x.x.x.x.x.x.x.x.x.x.i.[",
".x.x.x.x.x.x.x.x.x.x.x.x.x.x.. 9.N d S.x.x.x.x.x.x.x.x.x.x.x.x.x.x.x.x.x.x.x.x.x.x.x.x.x.x.x.x.x.x.x.x.x.x.x.x.x.x.x.x.x.x.x.i.[",
".x.x.x.x.x.x.x.x.x.x.x.x.x.x K J q I.x.x.x.x.x.x.x.x.x.x.x.x.x.x.x.x.x.x.x.x.x.x.x.x.x.x.x.x.x.x.x.x.x.x.x.x.x.x.x.x.x.x.x.x.i.[",
".x.x.x.x.x.x.x.x.x.x.x.x.x.x.x._.I.e.x.x.x.x.x.x.x.x.x.x.x.x.x.x.x.x.x.x.x.x.x.x.x.x.x.x.x.x.x.x.x.x.x.x.x.x.x.x.x.x.x.x.x.x.i.[",
".x.x.x.x.x.x.x.x.x.x.x.x.x.x.x.x.f.(.x.x.x.x.x.x.x.x.x.x.x.x.x.x.x.x.x.x.x.x.x.x.x.x.x.x.x.x.x.x.x.x.x.x.x.x.x.x.x.x.x.x.x.x.i.[",
".x.x.x.x.x.x.x.x.x.x.x.x.x.x.x.x.f.(.x.x.x.x.x.x.x.x.x.x.x.x.x.x.x.x.x.x.x.x.x.x.x.x.x.x.x.x.x.x.x.x.x.x.x.x.x.x.x.x.x.x.x.x.i.[",
".x.x.x.x.x.x.x.x.x.x.x.x.x.x.x.x.f.(.x.x.x.x.x.x.x.x.x.x.x.x.x.x.x.x.x.x.x.x.x.x.x.x.x.x.x.x.x.x.x.x.x.x.x.x.x.x.x.x.x.x.x.x.i.[",
".x.x.x.x.x.x.x.x.x.x.x.x.x.x.x.x.f.(.x.x.x.x.x.x.x.x.x.x.x.x.x.x.x.x.x.x.x.x.x.x.x.x.x.x.x.x.x.x.x.x.x.x.x.x.x.x.x.x.x.x.x.x.i.[",
".x.x.x.x.x.x.x.x.x.x.x.x.x.x.x.x.f.(.x.x.x.x.x.x.x.x.x.x.x.x.x.x.x.x.x.x.x.x.x.x.x.x.x.x.x.x.x.x.x.x.x.x.x.x.x.x.x.x.x.x.x.x.i.[",
".x.x.x.x.x.x.x.x.x.x.x.x.x.x.x.x.f.(.x.x.x.x.x.x.x.x.x.x.x.x.x.x.x.x.x.x.x.x.x.x.x.x.x.x.x.x.x.x.x.x.x.x.x.x.x.x.x.x.x.x.x.x.i.[",
".x.x.x.x.x.x.x.x.x.x.x.x.x.x.x.x.f.(.x.x.x.x.x.x.x.x.x.x.x.x.x.x.x.x.x.x.x.x.x.x.x.x.x.x.x.x.x.x.x.x.x.x.x.x.x.x.x.x.x.x.x.x.i.[",
".x.x.x.x.x.x.x.x.x.x.x.x.x.x.x.x.f.(.x.x.x.x.x.x.x.x.x.x.x.x.x.x.x.x.x.x.x.x.x.x.x.x.x.x.x.x.x.x.x.x.x.x.x.x.x.x.x.x.x.x.x.x.i.[",
".x.x.x.x.x.x.x.x.x.x.x.x.x.x.x.x.f.(.x.x.x.x.x.x.x.x.x.x.x.x.x.x.x.x.x.x.x.x.x.x.x.x.x.x.x.x.x.x.x.x.x.x.x.x.x.x.x.x.x.x.x.x.i.[",
".x.x.x.x.x.x.x.x.x.x.x.x.x.x.x.x.f.(.x.x.x.x.x.x.x.x.x.x.x.x.x.x.x.x.x.x.x.x.x.x.x.x.x.x.x.x.x.x.x.x.x.x.x.x.x.x.x.x.x.x.x.x.i.[",
".x.x.x.x.x.x.x.x.x.x.x.x.x.x.x.x.f a.1.x.x.x.x.x.x.x.x.x.x.x.x.x.x.x.x.x.x.x.x.x.x.x.x.x.x.x.x.x.x.x.x.x.x.x.x.x.x.x.x.x.x ` I.[",
".x.x.x.x.x.x.x.x.x.x.x.x.x.x.x.x.T.) +.J.J Z.V.V.c.x.x.x.x.x.x.x.x.x.x.x.x.x.x.x.x.x.x.x.x.x.x.x.x.x.x.x.x.x.x.x.N.V.V 9.J 0.) c",
".x.x.x.x.x.x.x.x.x.x.x.x.x.x.x.x.x.x.x.x.x f.C.C.*XOXO.H.x.x.x.x.x.x.x.x.x.x.x.x.x.x.x.x.x.x.x.x.x.x.x.x.xXXXOXO.j.C.C ].x.x.x.x",
".x.x.x.x.x.x.x.x.x.x.x.x.x.x.x.x.x.x.x.x.x.x.x.x ;.q.q.8 3 3 ).x.x.x.x.x.x.x.x.x.x.x.x.x.x.x.x.x.x.x.x | 3 7.q.q.P.x.x.x.x.x.x.x",
".x.x.x.x.x.x.x.x.x.x.x.x.x.x.x.x.x.x.x.x.x.x.x.x.x.x.x ).@.@.w g g g {.x.x.x.x.x.x.x.x.x.x 7 g g g g g.9.@ l.x.x.x.x.x.x.x.x.x.x",
".x.x.x.x.x.x.x.x.x.x.x.x.x.x.x.x.x.x.x.x.x.x.x.x.x.x.x.x.x.x.Z V V V.h ' ' ' ' ' ' ' ' ' '.+ V V V V V.V.x.x.x.x.x.x.x.x.x.x.x.x"
};
