/* XPM */
static char *ketel-r[] = {
/* width height ncolors chars_per_pixel */
"64 63 204 2",
/* colors */
"   c #000000",
" . c #B1B1B1",
" X c #AFAFAF",
" o c #ADADAD",
" O c #A9A9A9",
" + c #A7A7A7",
" @ c #A5A5A5",
" # c #A3A3A3",
" $ c #A1A1A1",
" % c #9F9F9F",
" & c #9D9D9D",
" * c #999999",
" = c #979797",
" - c #959595",
" ; c #919191",
" : c #8F8F8F",
" > c #8D8D8D",
" , c #8B8B8B",
" < c #898989",
" 1 c #878787",
" 2 c #858585",
" 3 c #838383",
" 4 c #818181",
" 5 c #7F7F7F",
" 6 c #7D7D7D",
" 7 c #7B7B7B",
" 8 c #797979",
" 9 c #777777",
" 0 c #757575",
" q c #737373",
" w c #717171",
" e c #6F6F6F",
" r c #6D6D6D",
" t c #696969",
" y c #676767",
" u c #656565",
" i c #636363",
" p c #616161",
" a c #5F5F5F",
" s c #5D5D5D",
" d c #5B5B5B",
" f c #595959",
" g c #555555",
" h c #535353",
" j c #515151",
" k c #4D4D4D",
" l c #FEFEFE",
" z c #4B4B4B",
" x c #FCFCFC",
" c c #494949",
" v c #FAFAFA",
" b c #F8F8F8",
" n c #F6F6F6",
" m c #434343",
" M c #F4F4F4",
" N c #414141",
" B c #F2F2F2",
" V c #3F3F3F",
" C c #F0F0F0",
" Z c #3D3D3D",
" A c #EEEEEE",
" S c #3B3B3B",
" D c #ECECEC",
" F c #393939",
" G c #EAEAEA",
" H c #373737",
" J c #E8E8E8",
" K c #E6E6E6",
" L c #333333",
" P c #E4E4E4",
" I c #E2E2E2",
" U c #2F2F2F",
" Y c #E0E0E0",
" T c #2D2D2D",
" R c #DEDEDE",
" E c #2B2B2B",
" W c #DCDCDC",
" Q c #DADADA",
" ! c #272727",
" ~ c #D8D8D8",
" ^ c #252525",
" / c #D6D6D6",
" ( c #232323",
" ) c #D4D4D4",
" _ c #212121",
" ` c #D2D2D2",
" ' c #D0D0D0",
" ] c #CECECE",
" [ c #CCCCCC",
" { c #191919",
" } c #CACACA",
" | c #C8C8C8",
".  c #C6C6C6",
".. c #131313",
".X c #C4C4C4",
".o c #111111",
".O c #C2C2C2",
".+ c #C0C0C0",
".@ c #BCBCBC",
".# c #090909",
".$ c #BABABA",
".% c #070707",
".& c #B8B8B8",
".* c #B6B6B6",
".= c #030303",
".- c #B4B4B4",
".; c #B2B2B2",
".: c #B0B0B0",
".> c #AEAEAE",
"., c #ACACAC",
".< c #AAAAAA",
".1 c #A8A8A8",
".2 c #A6A6A6",
".3 c #A4A4A4",
".4 c #A2A2A2",
".5 c #A0A0A0",
".6 c #9E9E9E",
".7 c #9C9C9C",
".8 c #989898",
".9 c #969696",
".0 c #949494",
".q c #929292",
".w c #909090",
".e c #8E8E8E",
".r c #8C8C8C",
".t c #8A8A8A",
".y c #888888",
".u c #868686",
".i c #828282",
".p c #808080",
".a c #7E7E7E",
".s c #7C7C7C",
".d c #787878",
".f c #767676",
".g c #747474",
".h c #707070",
".j c #686868",
".k c #646464",
".l c #606060",
".z c #5E5E5E",
".x c #5C5C5C",
".c c #5A5A5A",
".v c #585858",
".b c #565656",
".n c #545454",
".m c #525252",
".M c #505050",
".N c #4E4E4E",
".B c #FFFFFF",
".V c #4C4C4C",
".C c #FDFDFD",
".Z c #4A4A4A",
".A c #FBFBFB",
".S c #F9F9F9",
".D c #464646",
".F c #F7F7F7",
".G c #444444",
".H c #F5F5F5",
".J c #424242",
".K c #F3F3F3",
".L c #404040",
".P c #F1F1F1",
".I c #3E3E3E",
".U c #EFEFEF",
".Y c #3C3C3C",
".T c #3A3A3A",
".R c #EBEBEB",
".E c #383838",
".W c #E9E9E9",
".Q c #363636",
".! c #E7E7E7",
".~ c #E5E5E5",
".^ c #323232",
"./ c #303030",
".( c #E1E1E1",
".) c #DFDFDF",
"._ c #DDDDDD",
".` c #DBDBDB",
".' c #282828",
".] c #D9D9D9",
".[ c #262626",
".{ c #D7D7D7",
".} c #242424",
".| c #D5D5D5",
"X  c #D3D3D3",
"X. c #202020",
"XX c #D1D1D1",
"Xo c #1E1E1E",
"XO c #CFCFCF",
"X+ c #1C1C1C",
"X@ c #181818",
"X# c #C9C9C9",
"X$ c #C7C7C7",
"X% c #141414",
"X& c #C5C5C5",
"X* c #C3C3C3",
"X= c #C1C1C1",
"X- c #BDBDBD",
"X; c #BBBBBB",
"X: c #B9B9B9",
"X> c #060606",
"X, c #B7B7B7",
"X< c #B5B5B5",
"X1 c #B3B3B3",
/* pixels */
".B.B.B.B.B.B.B.B.B.B.B.B.B.B.B.B.B.B.B.B.B.B.B.B.B.B.B.B.B.{XOXOXOXOXO.9././././././X;XOXOXOXOXO I.B.B.B.B.B.B.B.B.B.B.B.B.B.B.B",
".B.B.B.B.B.B.B.B.B.B.B.B.B.B.B.B.B.B.B.B.B.B.B.B.B.B.B.B.+X+.V.' p p p *.B.B.B.B.B.B.g p p p a   V.6.6 x.B.B.B.B.B.B.B.B.B.B.B.B",
".B.B.B.B.B.B.B.B.B.B.B.B.B.B.B.B.B.B.B.B.B.B.B.B.B.B.BX- !.%X$.j.B.B.B.B.B.B.B.B.B.B.B.B.B.B.A   F ;X. n.B.B.B.B.B.B.B.B.B.B.B.B",
".B.B.B.B.B.B.B.B.B.B.B.B.B.B.B.B.B.B.B.B.B.B.B.B.B.B.B.t  .%X$.j.B.B.B.B.B.B.B.B.B.B.B.B.B.B.A   u.B F f.B.B.B.B.B.B.B.B.B.B.B.B",
".B.B.B.B.B.B.B.B.B.B.B.B.B.B.B.B.B.B.B.B.B.B.B.B.B.B.B.t  .%X$.j.B.B.B.B.B.B.B.B.B.B.B.B.B.B.A   u.B F.'.B.B.B.B.B.B.B.B.B.B.B.B",
".B.B.B.B.B.B.B.B.B.B.B.B.B.B.B.B.B.B.B.B.B.B.B.B.B.B J 3Xo.%X$.j.B.B.B.B.B.B.B.B.B.B.B.B.B.B.A.o.8.B F a |.B.B.B.B.B.B.B.B.B.B.B",
".B.B.B.B.B.B.B.B.B.B.B.B.B.B.B.B.B.B.B.B.B.B.B.B.B.BX; 0.c.=.l.^ 7 7 7 7 7 7 7 7 7 7 7 7 7 7 8 { 7 7X+XO.v.B.B.B.B.B.B.B.B.B.B.B",
".B.B.B.B.B.B.B.B.B.B.B.B.B.B.B.B.B.B.B.B.B.B.B.B.B.P y.{.c.8X<X<X<X<X<X<X<X<X<X<X<X<X<X<X<X<X<X<X<X<.'XO.v.B.B.B.B.B.B.B.B.B.B.B",
".B.B.B.B.B.B.B.B.B.B.B.B.B.B.B.B.B.B.B.B.B.B.B.B.B.R.G.9.6.A.B.B.B.B.B.B.B.B.B.B.B.B.B.B.B.B.B.B.B.B.R N % -.B.B.B.B.B.B.B.B.B.B",
".B.B.B.B.B.B.B.B.B.B.B.B.B.B.B.B.B.B.B.B.B.B.B.B.B.R.G.t @.B.B.B.B.B.B.B.B.B.B.B.B.B.B.B.B.B.B.B.B.B.B./ + <.B.B.B.B.B.B.B.B.B.B",
".B.B.B.B.B.B.B.B.B.B.B.B.B.B.B.B.B.B.B.B.B.B.B.B.B.R.G.t @.B.B.B.B.B.B.B.B.B.B.B.B.B.B.B.B.B.B.B.B.B.B 5.i.p R.B.B.B.B.B.B.B.B.B",
".B.B.B.B.B.B.B.B.B.B.B.B.B.B.B.B.B.B.B.B.B.B.B.B.B.h.q.s Y.B.B.B.B.B.B.B.B.B.B.B.B.B.B.B.B.B.B.B.B.B.B.{.v.fX:.B.B.B.B.B.B.B.B.B",
".B.B.B.B.B.B.B.B.B.B.B.B.B.B.B.B.B.B.B.B.B.B.B.B b HX; 0.B.B.B.B.B.B.B.B.B.B.B.B.B.B.B.B.B.B.B.B.B.B.B.] d 9X< l.B.B.B.B.B.B.B.B",
".B.B.B.B.B.B.B.B.B.B.B.B.B.B.B.B.B.B.B.B.B.B.B.B k R.5.0.B.B.B.B.B.B.B.B.B.B.B.B.B.B.B.B.B.B.B.B.B.B.B.B + <.D G.B.B.B.B.B.B.B.B",
".B.B.B.B.B.B.B.B.B.B.B.B.B.B.B.B.B.B.B.B.B.B.B.B kXO.G.B.B.B.B.B.B.B.B.B.B.B.B.B.B.B.B.B.B.B.B.B.B.B.B.B + <.0.7.B.B.B.B.B.B.B.B",
".B.B.B.B.B.B.B.B.B.B.B.B.B.B.B.B.B.B.B.B.B.B.B.:.t Y.G.B.B.B.B.B.B.B.B.B.B.B.B.B.B.B.B.B.B.B.B.B.B.B.B.B W.a.|./.B.B.B.B.B.B.B.B",
".B.B.B.B.B.B.B.B.B.B.B.B.B.B.B.B.B.B.B.B.B.B.B 6.;.R.G.B.B.B.B.B.B.B.B.B.B.B.B.B.B.B.B.B.B.B.B.B.B.B.B.B.B.fX:./.B.B.B.B.B.B.B.B",
".B.B.B.B.B.B.B.B.B.B.B.B.B.B.B.B.B.B.B.B.B.B.B 6.; L.C.B.B.B.B.B.B.B.B.B.B.B.B.B.B.B.B.B.B.B.B.B.B.B.B.B.B.fX: I.N.B.B.B.B.B.B.B",
".B.B.B.B.B.B.B.B.B.B.B.B.B.B.B.B.B.B.B.B.B.B.( 5 ]./.B.B.B.B.B.B.B.B.B.B.B.B.B.B.B.B.B.B.B.B.B.B.B.B.B.B.B O : W z.B.B.B.B.B.B.B",
".B.B.B.B.B.B.B.B.B.B.B.B.B.B.B.B.B.B.B.B.B.B.>.i.7.0.B.B.B.B.B.B.B.B.B.B.B.B.B.B.B.B.B.B.B.B.B.B.B.B.B.B.B.B.D R 2.*.B.B.B.B.B.B",
".B.B.B.B.B.B.B.B.B.B.B.B.B.B.B.B.B.B.B.B.B.B.>.i k I.B.B.B.B.B.B.B.B.B.B.B.B.B.X.LX*.B.B.B.B.B.B.B.B.B.B.B.B.D G.-.s.B.B.B.B.B.B",
".B.B.B.B.B.B.B.B.B.B.B.B.B.B.B.B.B.B.B.B.B.B.> w.c K.B.B.B.B.B.B.B.B.B.B.B.! ( E _ E.Y K.B.B.B.B.B.B.B.B.B.B.K.Y.-.s.B.B.B.B.B.B",
".B.B.B.B.B.B.B.B.B.B.B.B.B.B.B.B.B.B.B.B.B.H.w.'.;.B.B.B.BX;.>.>.>.>.>.> Q m a.B.B.B A T.>.>.>.>.>.>.>X;.B.B.B./.-.s.B.B.B.B.B.B",
".B.B.B.B.B.B.B.B.B.B.B.B.B.B.B.B.B.B.B.B.B R j 6.;.H 6 6 6X@.i.i.i.i.i.i.  m D.B.B.B A _.i.i.i.i.i.i.i 4 6X*.B.r.a.p.|.B.B.B.B.B",
".B.B.B.B.B.B.B.B.B.B.B.B.B.B.B.B.B.B.B.B.B R j 6.Q g.;.;.;.}.B.B.B.B.B.B.B m.x.B.B.B.z N.B.B.B.B.B.B.B i.;.s k.| z 3.,.B.B.B.B.B",
".B.B M.N.( B.B.B.B.B.B.B.B.B.B.B.B.B.B.B.B ].#X@.3 P.B.B.B.T.Z.R.F.B.B.B.B G.[./././ ^.W.B.B.B.A.R.R.c.(.B.U I.T.D 8.,.B.B.B.B.B",
".B.~ 9.G S.I R.B.B.B.B.B.B.B.B.B.B.B.B.B.BX@.G.pX;X;X; Q.B v.G.G ,X;X;X .B.B.B.B.B.B.B.B.B )X;.4.G.G.|.B.B.`X; +    .a n.B.B.B.B",
".W.i.X.B D 0.p.t.K.B.B.B.B.B.B.B.B.B.B.B +.y.BX: 0 0 0 5.t.t.t.$ o 0 0 6.t.t.t.t.t.t.t.t.t 6 0.qXX.t.t.t.t 5 0 0 0 0.[._.B.B.B.B",
" c p.B.B.B.B './ j.y.B.B.B.B.B.B.B.B.B #.q.S.B.B.B.B.B / @ @ @.u.c.c.c.T     * @ @ @X%     F.c.c.d @ @ @ @.|.B.B.B.B.O r.B.B.B.B",
" XX% #.B.B.B.B I /.1 T . b.B.B.B.B )./ >.H.B.B.B.B.B.B.B.B.B.B A / / / / / /.Y./././.O / / / / / K.B.B.B.B.B.B.B.B.B.B `./ 1 x.B",
".BX1 <X$ x.B.B.B.B.B.4.E.IX$ R.B ` s.B.B.B.B.B.B.B.B.B.B.B.B.B.B.B.B.B.B.B.B.B.B.B.B.B.B.B.B.B.B.B.B.B.B.B.B.B.B.B.B.B.B.B.1 ;.H",
".B.B O { B.B.B.B.B.B.B.B.S.j.s = w.C.B.B.B.B.B.B.B.B.B.B.B.B.B.B.B.B.B.B.B.B.B.B.B.B.B.B.B.B.B.B.B.B.B.B.B.B.B.B.B.B.B.B.B.B $.e",
".B.B.B . 5.B.B.B.B.B.B.B.B.B ) S.m y y.@.B.B.B.B.B.B.B.B.B.B.B.B.B.B.B.B.B.B.B.B.B.B.B.B.B.B.B.B.B.B.B.B.B.B.B.B.B.B.B.F y y y..",
".B.B.B.BX,.d.B.B.B.B.B.B.B.B.B R.'X$X# 9.Q.M.B.B.B.B.B.B.B.B.B.B.B.B.B.B.B.B.B.B.B.B.B.B.B.B.B.B.B.B.B.B.B.B.B.B.B &.Q.IX#X#X# ^",
".B.B.B.B lX, 2.K.B.B.B.B.B.B.B.B L x.B x.S.)./././ Z ) ) ) b.B.B.B.B.B.B.B.B.B.B.B.B.B.B.B.B.B.B A ) ) ) ) ) s././.q.S.S.B.B.B U",
".B.B.B.B.B.B.< : n.B.B.B.B.B.B.B.sX1.B.B.B.B.B.B.B B d d d.8.3.3.3.3.3X&.B.B.B.B.B.B.B.B /.3.3.3 1 d d d d d `.B.B.B.B.B.B.B.B U",
".B.B.B.B.B.B.B o.i.B.B.B.B.B.B.B.B./.B.B.B.B.B.B.B.B.B.B.B %.r.r.r.r.r 3 q q q q q q q q.a.r.r.r.$.B.B.B.B.B.B.B.B.B.B.B.B.B.B U",
".B.B.B.B.B.B.B.B.&.d.B.B.B.B.B.B.B./.B.B.B.B.B.B.B.B.B.B.B.B.B.B.B.B.B.!.@.@.@.@.@.@.@.@ Q.B.B.B.B.B.B.B.B.B.B.B.B.B.B.B.B.B.B U",
".B.B.B.B.B.B.B.B.R.n.U.B.B.B.B.B.B./.B.B.B.B.B.B.B.B.B.B.B.B.B.B.B.B.B.B.B.B.B.B.B.B.B.B.B.B.B.B.B.B.B.B.B.B.B.B.B.B.B.B.B.B.B U",
".B.B.B.B.B.B.B.B.B ].s ..K.B.B.B.B./.B.B.B.B.B.B.B.B.B.B.B.B.B.B.B.B.B.B.B.B.B.B.B.B.B.B.B.B.B.B.B.B.B.B.B.B.B.B.B.B.B.B.B.B.B U",
".B.B.B.B.B.B.B.B.B.BX* E.].B.B.B.B./.B.B.B.B.B.B.B.B.B.B.B.B.B.B.B.B.B.B.B.B.B.B.B.B.B.B.B.B.B.B.B.B.B.B.B.B.B.B.B.B.B.B.B.B.B U",
".B.B.B.B.B.B.B.B.B.B.B } u.B.B.B.B./.B.B.B.B.B.B.B.B.B.B.B.B.B.B.B.B.B.B.B.B.B.B.B.B.B.B.B.B.B.B.B.B.B.B.B.B.B.B.B.B.B.B.B.B.B U",
".B.B.B.B.B.B.B.B.B.B.B.B R.x.H.B.P.I.B.B.B.B.B.B.B.B.B.B.B.B.B.B.B.B.B.B.B.B.B.B.B.B.B.B.B.B.B.B.B.B.B.B.B.B.B.B.B.B.B.B.B.B.B U",
".B.B.B.B.B.B.B.B.B.B.B.B.BX&.M K L x.B.B.B.B.B.B.B.B.B.B.B.B.B.B.B.B.B.B.B.B.B.B.B.B.B.B.B.B.B.B.B.B.B.B.B.B.B.B.B.B.B.B.B.B.B U",
".B.B.B.B.B.B.B.B.B.B.B.B.B.).J.bX+ x.B.B.B.B.B.B.B.B.B.B.B.B.B.B.B.B.B.B.B.B.B.B.B.B.B.B.B.B.B.B.B.B.B.B.B.B.B.B.B.B.B.B.B.B.B U",
".B.B.B.B.B.B.B.B.B.B.B.B.B.B ~ V 4 l.B.B.B.B.B.B.B.B.B.B.B.B.B.B.B.B.B.B.B.B.B.B.B.B.B.B.B.B.B.B.B.B.B.B.B.B.B.B.B.B.B.B.B.B.B U",
".B.B.B.B.B.B.B.B.B.B.B.B.B.B.B.k [.B.B.B.B.B.B.B.B.B.B.B.B.B.B.B.B.B.B.B.B.B.B.B.B.B.B.B.B.B.B.B.B.B.B.B.B.B.B.B.B.B.B.B.B.B.B U",
".B.B.B.B.B.B.B.B.B.B.B.B.B.B.B.k [.B.B.B.B.B.B.B.B.B.B.B.B.B.B.B.B.B.B.B.B.B.B.B.B.B.B.B.B.B.B.B.B.B.B.B.B.B.B.B.B.B.B.B.B.B.B U",
".B.B.B.B.B.B.B.B.B.B.B.B.B.B.B.k [.B.B.B.B.B.B.B.B.B.B.B.B.B.B.B.B.B.B.B.B.B.B.B.B.B.B.B.B.B.B.B.B.B.B.B.B.B.B.B.B.B.B.B.B.B.B U",
".B.B.B.B.B.B.B.B.B.B.B.B.B.B.B.k [.B.B.B.B.B.B.B.B.B.B.B.B.B.B.B.B.B.B.B.B.B.B.B.B.B.B.B.B.B.B.B.B.B.B.B.B.B.B.B.B.B.B.B.B.B.B U",
".B.B.B.B.B.B.B.B.B.B.B.B.B.B.B.k [.B.B.B.B.B.B.B.B.B.B.B.B.B.B.B.B.B.B.B.B.B.B.B.B.B.B.B.B.B.B.B.B.B.B.B.B.B.B.B.B.B.B.B.B.B.B U",
".B.B.B.B.B.B.B.B.B.B.B.B.B.B.B.k [.B.B.B.B.B.B.B.B.B.B.B.B.B.B.B.B.B.B.B.B.B.B.B.B.B.B.B.B.B.B.B.B.B.B.B.B.B.B.B.B.B.B.B.B.B.B U",
".B.B.B.B.B.B.B.B.B.B.B.B.B.B.B.k [.B.B.B.B.B.B.B.B.B.B.B.B.B.B.B.B.B.B.B.B.B.B.B.B.B.B.B.B.B.B.B.B.B.B.B.B.B.B.B.B.B.B.B.B.B.B U",
".B.B.B.B.B.B.B.B.B.B.B.B.B.B.B.k [.B.B.B.B.B.B.B.B.B.B.B.B.B.B.B.B.B.B.B.B.B.B.B.B.B.B.B.B.B.B.B.B.B.B.B.B.B.B.B.B.B.B.B.B.B.B U",
".B.B.B.B.B.B.B.B.B.B.B.B.B.B.B.k [.B.B.B.B.B.B.B.B.B.B.B.B.B.B.B.B.B.B.B.B.B.B.B.B.B.B.B.B.B.B.B.B.B.B.B.B.B.B.B.B.B.B.B.B.B.B U",
".B.B.B.B.B.B.B.B.B.B.B.B.B.B.B.k [.B.B.B.B.B.B.B.B.B.B.B.B.B.B.B.B.B.B.B.B.B.B.B.B.B.B.B.B.B.B.B.B.B.B.B.B.B.B.B.B.B.B.B.B.B.B U",
".B.B.B.B.B.B.B.B.B.B.B.B.B.B.B.k.wX=.B.B.B.B.B.B.B.B.B.B.B.B.B.B.B.B.B.B.B.B.B.B.B.B.B.B.B.B.B.B.B.B.B.B.B.B.B.B.B.B.B.B.B.B ' _",
".B.B.B.B.B.B.B.B.B.B.B.B.B.B.B X.s 6 3 3 Y.B.B.B.B.B.B.B.B.B.B.B.B.B.B.B.B.B.B.B.B.B.B.B.B.B.B.B.B.B.B.B.B.B.B.B.B.B.B b 3 3 5.s",
".B.B.B.B.B.B.B.B.B.B.B.B.B.B.B.B.B C.,., t h h.<.B.B.B.B.B.B.B.B.B.B.B.B.B.B.B.B.B.B.B.B.B.B.B.B.B.B.B.B.B.B.B.B [ h h.v.,., Y.B",
".B.B.B.B.B.B.B.B.B.B.B.B.B.B.B.B.B.B.B.B K._._ 2././.k.P.P.P.B.B.B.B.B.B.B.B.B.B.B.B.B.B.B.B.B.B.B.B.B.C.P.t././ i._._.).B.B.B.B",
".B.B.B.B.B.B.B.B.B.B.B.B.B.B.B.B.B.B.B.B.B.B.B.B.B.B [ V V m.+.+.+.+ l.B.B.B.B.B.B.B.B.B.B.{.+.+.+.+.+., V.2.B.B.B.B.B.B.B.B.B.B",
".B.B.B.B.B.B.B.B.B.B.B.B.B.B.B.B.B.B.B.B.B.B.B.B.B.B.B.B.B.A e e e e :.w.w.w.w.w.w.w.w.w.w 7 e e e e e.u.B.B.B.B.B.B.B.B.B.B.B.B",
".B.B.B.B.B.B.B.B.B.B.B.B.B.B.B.B.B.B.B.B.B.B.B.B.B.B.B.B.B.B.B.B.B.BX>                    .4.B.B.B.B.B.B.B.B.B.B.B.B.B.B.B.B.B.B"
};
