/* XPM */
static char *koe-r[] = {
/* width height ncolors chars_per_pixel */
"64 43 152 2",
/* colors */
"   c #000000",
" . c #B1B1B1",
" X c #AFAFAF",
" o c #ADADAD",
" O c #ABABAB",
" + c #A9A9A9",
" @ c #A7A7A7",
" # c #A3A3A3",
" $ c #A1A1A1",
" % c #9F9F9F",
" & c #9D9D9D",
" * c #9B9B9B",
" = c #979797",
" - c #959595",
" ; c #919191",
" : c #8F8F8F",
" > c #8D8D8D",
" , c #8B8B8B",
" < c #858585",
" 1 c #7F7F7F",
" 2 c #7D7D7D",
" 3 c #777777",
" 4 c #737373",
" 5 c #6F6F6F",
" 6 c #6D6D6D",
" 7 c #676767",
" 8 c #656565",
" 9 c #636363",
" 0 c #5F5F5F",
" q c #515151",
" w c #4F4F4F",
" e c #4D4D4D",
" r c #FEFEFE",
" t c #FCFCFC",
" y c #FAFAFA",
" u c #F8F8F8",
" i c #F6F6F6",
" p c #434343",
" a c #F4F4F4",
" s c #F2F2F2",
" d c #F0F0F0",
" f c #EEEEEE",
" g c #ECECEC",
" h c #EAEAEA",
" j c #E8E8E8",
" k c #353535",
" l c #E6E6E6",
" z c #E4E4E4",
" x c #E2E2E2",
" c c #2F2F2F",
" v c #DEDEDE",
" b c #DCDCDC",
" n c #292929",
" m c #DADADA",
" M c #D6D6D6",
" N c #D4D4D4",
" B c #D2D2D2",
" V c #D0D0D0",
" C c #CECECE",
" Z c #CCCCCC",
" A c #CACACA",
" S c #C8C8C8",
" D c #151515",
" F c #C6C6C6",
" G c #131313",
" H c #C4C4C4",
" J c #111111",
" K c #0F0F0F",
" L c #C0C0C0",
" P c #BEBEBE",
" I c #BCBCBC",
" U c #BABABA",
" Y c #070707",
" T c #B8B8B8",
" R c #050505",
" E c #B6B6B6",
" W c #B4B4B4",
" Q c #010101",
" ! c #B2B2B2",
" ~ c #B0B0B0",
" ^ c #AEAEAE",
" / c #AAAAAA",
" ( c #A6A6A6",
" ) c #A4A4A4",
" _ c #A2A2A2",
" ` c #A0A0A0",
" ' c #9E9E9E",
" ] c #9C9C9C",
" [ c #9A9A9A",
" { c #989898",
" } c #969696",
" | c #949494",
".  c #929292",
".. c #8C8C8C",
".X c #888888",
".o c #848484",
".O c #828282",
".+ c #7C7C7C",
".@ c #7A7A7A",
".# c #727272",
".$ c #6C6C6C",
".% c #6A6A6A",
".& c #666666",
".* c #565656",
".= c #545454",
".- c #FFFFFF",
".; c #4C4C4C",
".: c #FDFDFD",
".> c #FBFBFB",
"., c #F9F9F9",
".< c #F7F7F7",
".1 c #F5F5F5",
".2 c #F3F3F3",
".3 c #404040",
".4 c #F1F1F1",
".5 c #EFEFEF",
".6 c #EBEBEB",
".7 c #383838",
".8 c #E9E9E9",
".9 c #E7E7E7",
".0 c #E5E5E5",
".q c #E3E3E3",
".w c #303030",
".e c #E1E1E1",
".r c #DFDFDF",
".t c #DDDDDD",
".y c #DBDBDB",
".u c #D9D9D9",
".i c #242424",
".p c #D5D5D5",
".a c #D3D3D3",
".s c #202020",
".d c #CFCFCF",
".f c #CDCDCD",
".g c #CBCBCB",
".h c #C9C9C9",
".j c #C7C7C7",
".k c #C5C5C5",
".l c #121212",
".z c #C3C3C3",
".x c #C1C1C1",
".c c #BFBFBF",
".v c #0C0C0C",
".b c #BDBDBD",
".n c #BBBBBB",
".m c #080808",
".M c #B9B9B9",
".N c #060606",
".B c #B7B7B7",
".V c #B5B5B5",
".C c #020202",
".Z c #B3B3B3",
/* pixels */
".-.-.-.-.-.-.-.-.-.-.-.-.-.-.-.-.-.-.-.-.-.-.-.-.-.-.-.-.-.-.-.-.-.-.-.-.-.-.-.-.-.-.-.-.-.-.-.-.-.-.-.-.-.-.-.-.-.-.-.-.-.-.-.-",
".-.-.-.-.-.-.-.-.-.-.-.-.-.-.-.-.-.-.-.-.-.-.-.-.-.-.-.-.-.-.-.-.-.-.-.-.-.-.-.-.-.-.-.-.-.-.-.-.-.-.-.-.-.-.-.-.-.-.-.-.-.-.-.-",
".-.-.-.-.-.-.-.-.-.-.-.-.-.-.-.-.-.-.-.-.-.-.-.-.-.-.-.-.-.-.-.-.-.-.-.-.-.-.-.-.-.-.-.-.-.-.-.-.-.-.-.-.-.-.-.-.-.-.-.-.-.-.-.-",
".-.-.-.-.-.-.-.-.-.-.-.-.-.-.-.-.-.-.-.-.-.-.-.-.-.-.-.-.-.-.-.-.-.-.-.-.-.-.-.-.-.-.-.-.-.-.-.-.-.-.-.-.-.-.-.-.-.-.-.-.-.-.-.-",
".-.-.-.-.-.-.-.-.-.-.-.-.-.-.-.-.-.-.-.-.-.-.-.-.-.-.-.-.-.-.-.-.-.-.-.-.-.-.-.-.-.-.-.-.-.-.-.-.-.-.-.-.-.-.-.-.-.-.-.-.-.-.-.-",
".-.-.-.-.-.-.-.-.-.-.-.-.-.-.-.-.-.-.-.-.-.-.-.-.-.-.-.-.-.-.-.-.-.-.-.-.-.-.-.-.-.-.-.-.-.-.-.-.-.-.-.-.-.-.-.-.-.-.-.-.-.-.-.-",
".-.-.-.-.-.-.-.-.-.-.-.-.-.-.-.-.-.-.-.-.-.-.-.-.-.-.-.-.-.-.-.-.-.-.-.-.-.-.-.-.-.-.-.-.-.-.-.-.-.-.-.-.-.-.-.-.-.-.-.-.-.-.-.-",
".-.-.-.-.-.-.-.-.-.-.-.-.-.-.-.-.-.-.-.-.-.-.-.-.-.-.-.-.-.-.-.-.-.-.-.-.-.-.-.-.-.-.-.-.-.-.-.-.-.-.-.-.-.-.-.-.-.-.-.-.-.-.-.-",
".-.-.-.-.-.-.-.-.-.-.-.-.-.-.-.-.-.-.-.-.-.-.-.-.-.-.-.-.-.-.-.-.-.-.-.-.-.-.-.-.-.-.-.-.-.-.-.-.-.- f l.-.-.-.-.-.-.-.-.-.-.-.-",
".-.-.-.-.-.-.-.-.-.-.-.-.-.-.-.-.-.-.-.-.-.-.-.-.-.-.-.-.-.-.-.-.-.-.-.-.-.-.-.-.-.-.-.-.-.-.-.-.-.6 k.e.- N.-.-.-.-.-.-.-.-.-.-",
".-.-.-.-.-.-.-.-.-.-.-.-.-.-.-.-.-.-.-.-.-.-.-.-.-.-.-.-.-.-.-.-.-.-.-.-.-.-.-.-.-.-.-.-.-.-.-.- u c <.- ].@.-.-.-.-.-.-.-.-.-.-",
".-.-.-.-.-.-.-.-.-.-.-.-.-.-.-.-.-.8.g.g.g.g.g.a.-.-.-.-.-.-.-.-.-.-.-.r.g | , ! ;.g i.-.-.- N.1.Z  .$ 1 R B.-.-.-.-.-.-.-.-.-.-",
".-.-.-.-.-.-.-.-.-.-.-.-.-.-.-.1 L.p.u.2 ' D  .C.v.v e T.c.c }.;.;.i.v R  .l } T   X S.c.c.c ] - 8 0 P ~ k.p.-.-.-.-.-.-.-.-.-.-",
".-.-.-.-.-.-.-.-.-.-.-.-.-.-.- E = O a w Q         Y ~.-.- < R             H.-.%   p > E.-.- ` ....2.- M o H.-.-.-.-.-.-.-.-.-.-",
".-.-.-.-.-.-.-.-.-.-.-.-.-.- C -.<.- T Q           9.-.-.-.s               m.- 4       Q >.- r.1.>.-.- r.M.-.-.-.-.-.-.-.-.-.-.-",
".-.-.-.-.-.-.-.-.-.-.-.-.-.- &.V.-.-.            Y.a.-.-.- n              .#.- a.=.w L 2 0.-.-.-.-.-.x ).c.-.-.-.-.-.-.-.-.-.-.-",
".-.-.-.-.-.-.-.-.-.-.-.-.-.- 3.B.-.- F K       G :.-.-.- d.i           J Y.O.-.-.-.-.- r u.-.B.-.-.-.q.z.c.-.-.-.-.-.-.-.-.-.-.-",
".-.-.-.-.-.-.-.-.-.-.-.-.-.t $.c.-.-.- a f.q T.1.-.-.-.-.:.V 2.N      .X d.:.-.-.-.-.-.-.-.- O.-.-.-.-.-.1.M.-.-.-.-.-.-.-.-.-.-",
".-.-.-.-.-.-.-.-.-.-.-.-.-.f ..c.<.& g.-.-.-.-.-.-.-.-.-.-.-.- @.N    .B.-.-.-.-.-.-.-.-.-.- x ..-.-.-.-.-.p.h.-.-.-.-.-.-.-.-.-",
".-.-.-.-.-.-.-.-.-.-.-.-.-.f . ' K   7.-.-.-.-.-.-.-.-.-.-.-.-.-.*   q t.-.-.-.-.-.-.- a.-.- V . 5 ~ N.8.-.+ ;.-.-.-.-.-.-.-.-.-",
".-.-.-.-.-.-.-.-.-.-.-.-.-.f ..d    .7.-.-.-.-.-.-.-.-.-.-.-.-.- u.y.<.- y.,.-.-.-.-.-.c.-.c f.-.- r v 6 ].Z b.-.-.-.-.-.-.-.-.-",
".-.-.-.-.-.-.-.-.-.-.-.-.-.f ..> K.m.V.-.-.-.-.-.-.-.-.-.-.-.-.-.-.-.-.-.g.2.-.-.-.- N.h L.q.-.-.-.-.-.2.1.>.-.-.-.-.-.-.-.-.-.-",
".-.-.-.-.-.-.-.-.-.-.-.-.- E P.<.3 W.-.-.- U y.-.-.-.-.-.-.-.-.-.-.-.-.-.c.-.-.-.-.0.c V C.-.-.-.-.-.-.-.-.-.-.-.-.-.-.-.-.-.-.-",
".-.-.-.-.-.-.-.-.-.-.-.-.-.M.c Z s.-.-.-.c ).c.c.g.-.-.-.-.-.-.-.-.-.-.-.c.-.-.-.M.c t.b.-.-.-.-.-.-.-.-.-.-.-.-.-.-.-.-.-.-.-.-",
".-.-.-.-.-.-.-.-.-.-.-.-.-.c X.V.-.-.-.V.r.-.-.- (.Z.p.-.-.-.-.-.-.-.-.-.j.9.-.q.g.- ^ d.-.-.-.-.-.-.-.-.-.-.-.-.-.-.-.-.-.-.-.-",
".-.-.-.-.-.-.-.-.-.-.-.-.-.c &.y.- h 1.6.-.-.-.0 X.-.u %.M.u.u.9.-.-.-.- z m.-.V t.g W.-.-.-.-.-.-.-.-.-.-.-.-.-.-.-.-.-.-.-.-.-",
".-.-.-.-.-.-.-.-.-.-.-.-.- O #.- h N.h { i m.8 *.:.-.-.-.1.0.0.j.c.c.c.c.n m.> 9.b /.-.-.-.-.-.-.-.-.-.-.-.-.-.-.-.-.-.-.-.-.-.-",
".-.-.-.-.-.-.-.-.-.-.-.-.- ,.z u F.-.c.a L.X (.c.-.-.-.-.-.-.-.-.-.-.-.- z m l ;.-.c.-.-.-.-.-.-.-.-.-.-.-.-.-.-.-.-.-.-.-.-.-.-",
".-.-.-.-.-.-.-.-.-.-.-.-.-.x.c.d.5.- E.5 5 V v x.-.-.-.-.-.-.-.-.-.-.-.- j M l {.-.c.-.-.-.-.-.-.-.-.-.-.-.-.-.-.-.-.-.-.-.-.-.-",
".-.-.-.-.-.-.-.-.-.-.-.-.-.-.c.d.5.-.p x.c.-.-.-.-.-.-.-.-.-.-.-.-.-.-.-.-.c.z C.a X.-.-.-.-.-.-.-.-.-.-.-.-.-.-.-.-.-.-.-.-.-.-",
".-.-.-.-.-.-.-.-.-.-.-.-.-.-.c.d.5.-.-.B m b.-.-.-.-.-.-.-.-.-.-.-.-.-.-.-.c.c t U X.-.-.-.-.-.-.-.-.-.-.-.-.-.-.-.-.-.-.-.-.-.-",
".-.-.-.-.-.-.-.-.-.-.-.-.-.-.c.d.5.-.-.5.d U t.-.-.-.-.-.-.-.-.-.-.-.-.-.-.c.c.-.c.c.-.-.-.-.-.-.-.-.-.-.-.-.-.-.-.-.-.-.-.-.-.-",
".-.-.-.-.-.-.-.-.-.-.-.-.-.-.c.,.k.-.-.- _.0 @.-.-.-.-.-.-.-.-.-.-.-.-.-.-.c.b.4.B b x.-.-.-.-.-.-.-.-.-.-.-.-.-.-.-.-.-.-.-.-.-",
".-.-.-.-.-.-.-.-.-.-.-.-.-.- A a +.1.-.-.8 _ | b.-.-.-.-.-.-.-.-.-.-.-.-.- E M E.g.g [.5.-.-.-.-.-.-.-.-.-.-.-.-.-.-.-.-.-.-.-.-",
".-.-.-.-.-.-.-.-.-.-.-.-.-.-.- # I.b.-.-.-.Z.c ~.-.-.-.-.-.-.-.-.-.-.-.-.- t ] o L.o @ P.-.-.-.-.-.-.-.-.-.-.-.-.-.-.-.-.-.-.-.-",
".-.-.-.-.-.-.-.-.-.-.-.-.-.-.- A.c E.>.-.-.-.-.-.-.-.-.-.-.-.-.-.-.-.-.-.-.-.B.c Z.-.-.-.-.-.-.-.-.-.-.-.-.-.-.-.-.-.-.-.-.-.-.-",
".-.-.-.-.-.-.-.-.-.-.-.-.-.-.-.-.-.-.-.-.-.-.-.-.-.-.-.-.-.-.-.-.-.-.-.-.-.-.-.-.-.-.-.-.-.-.-.-.-.-.-.-.-.-.-.-.-.-.-.-.-.-.-.-",
".-.-.-.-.-.-.-.-.-.-.-.-.-.-.-.-.-.-.-.-.-.-.-.-.-.-.-.-.-.-.-.-.-.-.-.-.-.-.-.-.-.-.-.-.-.-.-.-.-.-.-.-.-.-.-.-.-.-.-.-.-.-.-.-",
".-.-.-.-.-.-.-.-.-.-.-.-.-.-.-.-.-.-.-.-.-.-.-.-.-.-.-.-.-.-.-.-.-.-.-.-.-.-.-.-.-.-.-.-.-.-.-.-.-.-.-.-.-.-.-.-.-.-.-.-.-.-.-.-",
".-.-.-.-.-.-.-.-.-.-.-.-.-.-.-.-.-.-.-.-.-.-.-.-.-.-.-.-.-.-.-.-.-.-.-.-.-.-.-.-.-.-.-.-.-.-.-.-.-.-.-.-.-.-.-.-.-.-.-.-.-.-.-.-",
".-.-.-.-.-.-.-.-.-.-.-.-.-.-.-.-.-.-.-.-.-.-.-.-.-.-.-.-.-.-.-.-.-.-.-.-.-.-.-.-.-.-.-.-.-.-.-.-.-.-.-.-.-.-.-.-.-.-.-.-.-.-.-.-",
".-.-.-.-.-.-.-.-.-.-.-.-.-.-.-.-.-.-.-.-.-.-.-.-.-.-.-.-.-.-.-.-.-.-.-.-.-.-.-.-.-.-.-.-.-.-.-.-.-.-.-.-.-.-.-.-.-.-.-.-.-.-.-.-",
".-.-.-.-.-.-.-.-.-.-.-.-.-.-.-.-.-.-.-.-.-.-.-.-.-.-.-.-.-.-.-.-.-.-.-.-.-.-.-.-.-.-.-.-.-.-.-.-.-.-.-.-.-.-.-.-.-.-.-.-.-.-.-.-"
};
