/* XPM */
static char *koe-r[] = {
/* width height ncolors chars_per_pixel */
"64 41 193 2",
/* colors */
"   c #000000",
" . c #B1B1B1",
" X c #AFAFAF",
" o c #ADADAD",
" O c #ABABAB",
" + c #A9A9A9",
" @ c #A7A7A7",
" # c #A5A5A5",
" $ c #A3A3A3",
" % c #A1A1A1",
" & c #9F9F9F",
" * c #9D9D9D",
" = c #9B9B9B",
" - c #999999",
" ; c #959595",
" : c #939393",
" > c #919191",
" , c #8F8F8F",
" < c #8D8D8D",
" 1 c #8B8B8B",
" 2 c #898989",
" 3 c #878787",
" 4 c #858585",
" 5 c #838383",
" 6 c #7F7F7F",
" 7 c #7D7D7D",
" 8 c #7B7B7B",
" 9 c #797979",
" 0 c #777777",
" q c #757575",
" w c #737373",
" e c #6F6F6F",
" r c #6D6D6D",
" t c #6B6B6B",
" y c #696969",
" u c #676767",
" i c #636363",
" p c #616161",
" a c #5D5D5D",
" s c #575757",
" d c #4F4F4F",
" f c #4D4D4D",
" g c #FEFEFE",
" h c #4B4B4B",
" j c #FCFCFC",
" k c #494949",
" l c #FAFAFA",
" z c #474747",
" x c #F8F8F8",
" c c #454545",
" v c #F6F6F6",
" b c #F4F4F4",
" n c #414141",
" m c #F2F2F2",
" M c #F0F0F0",
" N c #EEEEEE",
" B c #3B3B3B",
" V c #ECECEC",
" C c #393939",
" Z c #EAEAEA",
" A c #E8E8E8",
" S c #E6E6E6",
" D c #333333",
" F c #E4E4E4",
" G c #313131",
" H c #E2E2E2",
" J c #E0E0E0",
" K c #2D2D2D",
" L c #2B2B2B",
" P c #DADADA",
" I c #D8D8D8",
" U c #252525",
" Y c #D6D6D6",
" T c #232323",
" R c #D4D4D4",
" E c #212121",
" W c #D2D2D2",
" Q c #D0D0D0",
" ! c #1D1D1D",
" ~ c #CECECE",
" ^ c #1B1B1B",
" / c #CCCCCC",
" ( c #CACACA",
" ) c #C6C6C6",
" _ c #131313",
" ` c #C4C4C4",
" ' c #C2C2C2",
" ] c #C0C0C0",
" [ c #BEBEBE",
" { c #0B0B0B",
" } c #BABABA",
" | c #070707",
".  c #B8B8B8",
".. c #050505",
".X c #B6B6B6",
".o c #030303",
".O c #B4B4B4",
".+ c #B0B0B0",
".@ c #AEAEAE",
".# c #ACACAC",
".$ c #AAAAAA",
".% c #A8A8A8",
".& c #A6A6A6",
".* c #A4A4A4",
".= c #A2A2A2",
".- c #A0A0A0",
".; c #9E9E9E",
".: c #9C9C9C",
".> c #9A9A9A",
"., c #989898",
".< c #969696",
".1 c #949494",
".2 c #929292",
".3 c #909090",
".4 c #8E8E8E",
".5 c #8C8C8C",
".6 c #8A8A8A",
".7 c #888888",
".8 c #868686",
".9 c #848484",
".0 c #828282",
".q c #808080",
".w c #7C7C7C",
".e c #7A7A7A",
".r c #787878",
".t c #767676",
".y c #727272",
".u c #707070",
".i c #6C6C6C",
".p c #6A6A6A",
".a c #686868",
".s c #666666",
".d c #646464",
".f c #5C5C5C",
".g c #5A5A5A",
".h c #585858",
".j c #525252",
".k c #505050",
".l c #4E4E4E",
".z c #FFFFFF",
".x c #FDFDFD",
".c c #FBFBFB",
".v c #F9F9F9",
".b c #464646",
".n c #F7F7F7",
".m c #F5F5F5",
".M c #F3F3F3",
".N c #F1F1F1",
".B c #EFEFEF",
".V c #3C3C3C",
".C c #EDEDED",
".Z c #3A3A3A",
".A c #EBEBEB",
".S c #383838",
".D c #E9E9E9",
".F c #363636",
".G c #E7E7E7",
".H c #343434",
".J c #E5E5E5",
".K c #323232",
".L c #E3E3E3",
".P c #303030",
".I c #E1E1E1",
".U c #DFDFDF",
".Y c #DDDDDD",
".T c #DBDBDB",
".R c #D9D9D9",
".E c #D7D7D7",
".W c #D5D5D5",
".Q c #D3D3D3",
".! c #D1D1D1",
".~ c #CFCFCF",
".^ c #1C1C1C",
"./ c #CDCDCD",
".( c #CBCBCB",
".) c #181818",
"._ c #C9C9C9",
".` c #C7C7C7",
".' c #C5C5C5",
".] c #C3C3C3",
".[ c #101010",
".{ c #C1C1C1",
".} c #BFBFBF",
".| c #BDBDBD",
"X  c #0A0A0A",
"X. c #BBBBBB",
"XX c #080808",
"Xo c #B9B9B9",
"XO c #060606",
"X+ c #B7B7B7",
"X@ c #040404",
"X# c #020202",
"X$ c #B3B3B3",
/* pixels */
".z.z.z.z.z.z.z.z.z.z.z.z.z.z.z.z.z.z.z.z.z.z.z.z.z.z.z.z.z.z.z.z.z.z.z.z.z.z.z.z.z.z.z.z.z.z.z.z.z.z.z.z.z.z.z.z.C.H.-.z.z.z.z.z",
".z.z.z.z.z.z.z.z.z.z.z.z.z.z.z.z.z.z.z.z.z.z.z.z.z.z.z.z.z.z.z.z.z.z.z.z.z.z.z.z.z.z.z.z.z.z.z.z.z.z.z.z.z.z.z N C L v.z.x.9.M.z",
".z.z.z.z.z.z.z.z.z.z.z.z.z.z.z.z.z.z.z.z.z.z.z.z.z.z.z.z.z.z.z.z.z.z.z.z.z.z.z.z.z.z.z.z.z.z.z.z.z.z.z.z.z.z.C C  .~.z.z 5 B.c.z",
".z.z.z.z.z.z.z.z.z.z.z.z.z.z.z.z.z.z.z.z.z.z.z.z.z.z.z.z.z.z.z.z.z.z.z.z.z.z.z.z.z.z.z.z.z.z.z.z.z.z.z.z.z.z.3  .V.Q.m 6X#.6.z.z",
".z.z.z.z.z g M * * * * * =.,.,., / l l l.z.z.z.z.z.z.z.z.z.z.z l l l %.,.0.F.F k.:.F.s * W l.x.z.z.z W *.N l i     4.p  X .Q.z.z",
".z.z.z.z F.;.#.z.z.z.z W.V            XX a.q * #X. * *.p a a a.o             h.W [   _ V (.= & * * *.s.z O n.7 D K.N.x  .k.Q.z.z",
".z.z.z F. .W.3 *.W M.a.[                 G.D.z.n.U.] h |                XO.>.m.z t    .#.z.z.z.z.z.z %.6.3 e t J.m.z.x.l.#.e.z.z",
".z.z.z *.< 2.T.z.z f                  .P Z.z.z.z.J                      .Z.z.z.z.S    .) z z 3.m.z.z.c.y.# ]X+.z.z.z g.;.7 ~.z.z",
".z.z ..2 @.z.z.z [X#                   R.z.z.z.z.7                      .Z.z.z.z.S            .b m.z.z j v.z.c.z.z.z.z.(._.z.z.z",
".z.z * -.z.z.z.z r                   !.D.z.z.z.z 5                       E Z.z.z .X@    .) y.o  X..z.z.z.z.z.z.z.z.z.z.z *.z.z.z",
".z.N.g <.z.z.z.z r                  X+.z.z.z.z.z.;                         q.z.z.z.+.b.b X.z.#.[ ~.z.z.z.z.z.z.z.z.d.h.J *.z.z.z",
".z.] p ,.z.z.z.z &              .. c.z.z.z.z.z.z @                        .0.z.z.z.z.z.z.z.z.z Z.z.z.z.%.z.z.z.z.z . 5.m *.z.z.z",
".z * * *.z.z.z.z m.1.f.f.f UXO.f [.z.z.z.z.z.z.z c                   i w.y.m.z.z.z.z.z.z.z.z.z.z.z.z.m.0.z.z.z.z.z.z.z.z.  F.z.z",
".z * * *.z.z.z.z.z.z.z.z.z.c.v.z.z.z.z.z.z.z.z.z j.v.{.K            .J.z.z.z.z.z.z.z.z.z.z.z.z.z.z.z b 5.z.z.z.z.z.z.z.z.m 4 j.z",
".z 1 X % j.z *.R.z.z.z.z.z.z.z.z.z.z.z.z.z.z.z.z.z.z.z.D K        ...D.z.z.z.z.z.z.z.z.z.z.z.z.z.z.z.z > J.z.z.z.z.z.z.z.z.N.9 j",
".z.7X$ R.4 = {.^.T.z.z.z.z.z.z.z.z.z.z.z.z.z.z.z.z.z.z.z.D _       u.z.z.z.z.z.z.z.z.z.z.z.z.z.z.z.z.z.z <.@.I.z.z.z.z.z.z (.+ <",
".z.7X$ PXX      .9.z.z.z.z.z.z.z.z.z.z.z.z.z.z.z.z.z.z.z.z.9     ^ x.z.z.z.z.z.z.z.z.z.z.z.z.m.c.z.z V * *.5.H <.= N.L.z.z.6.e y",
".z.7X$.z.F      .P.z.z.z.z.z.z.z.z.z.z.z.z.z.z.z.z.z.z.z.z x ' *.Y.z.z.z.z.z.z.z.z.z.z.z.z.z.* x.z ) ..z.z.z.z.z.W.@ e.e.N.U * R",
".z.7X$.z f      .i.z.z.z.z.z.z.z.z.z.z.z.z.z.z.z.z.z.z.z.z.z.z.z.z.z.z.z.].z.z.z.z.z.z.z.z J.&.z Z ..z.z.z.z.z.z.z.z <.9 , *.v.z",
".z.7X$.z.,    .P Z.z.z.z.z.z.z.z.z.z.z.z.z.z.z.z.z.z.z.z.z.z.z.z.z.z.z.z *.z.z.z.z.z.z.z.z 0.N.D.6.c.z.z.z.z.z.z.z.z.z.z.z.z.z.z",
".W .X$.z.,   G Z.z.z.z.z.zX..z.z.z.z.z.z.z.z.z.z.z.z.z.z.z.z.z.z.z.z.z.z *.z.z.z.z.z.z.z ~ ~.z e.A.z.z.z.z.z.z.z.z.z.z.z.z.z.z.z",
"., (X$.z = # v.z.z.z.z l.; ~.z.z.z.z.z.z.z.z.z.z.z.z.z.z.z.z.z.z.z.z.z.B o.z.z.z.z.z.A *.%.z ; H.z.z.z.z.z.z.z.z.z.z.z.z.z.z.z.z",
" *.DX$ g.;.z.z.z.z.z.z.-.e * * *.: F.z.z.z.z.z.z.z.z.z.z.z.z.z.z.z.z.z % j.z.z.z.z.J u P.z.n.&.z.z.z.z.z.z.z.z.z.z.z.z.z.z.z.z.z",
" *.D.> ) Y.z.z.z.z.z.&.!.z.z.z.z.N 7.5.Y.z.z.z.z.z.z.z.z.z.z.z.z.z.z.z.z 4.z.z.z.x.e.z.z.z.r.z.z.z.z.z.z.z.z.z.z.z.z.z.z.z.z.z.z",
" *.D.&.r.z.z.z.z M.8 Q.z.z.z.z.z.z O `.} ;.L.z.z.z.z.z.z.z.z.z.z.z.z.z.z.3.z.z.z ~.~.z.z./.-.z.z.z.z.z.z.z.z.z.z.z.z.z.z.z.z.z.z",
" *.D 9 I.z.z.z '.b.N.z.z.z.z.z.z `.2.z.z A <.0.$ b.z.z.z.z.z.z.z.z.z.z.z *.z.z.z *.z.z.L.s.N.z.z.z.z.z.z.z.z.z.z.z.z.z.z.z.z.z.z",
" *.X., g.z.z.|.T.=.8.z.z.z.z.z R.w j.z.z.z.z v P = * * - 8 * *.% Q Q Q Q *.z.z I n *.r.0 l.z.z.z.z.z.z.z.z.z.z.z.z.z.z.z.z.z.z.z",
" *.j.z.z.z.|.U.z } :.O m =.>.' 4 m.z.z.z.z.z.z.z.z.z.z.z.z.z.z.m././././ *.z.z.@ u.z.z *.z.z.z.z.z.z.z.z.z.z.z.z.z.z.z.z.z.z.z.z",
" * a.z.z.|.U.z.z *.z *.U.*.:.r *.z.z.z.z.z.z.z.z.z.z.z.z.z.z.z.z.z.z.z.z *.z.z * *.z.z *.z.z.z.z.z.z.z.z.z.z.z.z.z.z.z.z.z.z.z.z",
".>.u.z.z *.z.z.Q._.z.8., d.B $.6.z.z.z.z.z.z.z.z.z.z.z.z.z.z.z.z.z.z.z.z *.z.z * *.z.z *.z.z.z.z.z.z.z.z.z.z.z.z.z.z.z.z.z.z.z.z",
".R.|.`.z *.z.z A >.z.C s.z.z.z.z.z.z.z.z.z.z.z.z.z.z.z.z.z.z.z.z.z.z.z.z.#.N.z * *.z.z *.z.z.z.z.z.z.z.z.z.z.z.z.z.z.z.z.z.z.z.z",
".z.DX$.z *.z.z.z ' I.z *.z.z.z.z.z.z.z.z.z.z.z.z.z.z.z.z.z.z.z.z.z.z.z.z.'.E.z * R $.G.3.z.z.z.z.z.z.z.z.z.z.z.z.z.z.z.z.z.z.z.z",
".z.DX$.z *.z.z.z.z `.R } H.z.z.z.z.z.z.z.z.z.z.z.z.z.z.z.z.z.z.z.z.z.z.z.m.%.z *.x.e A.3.z.z.z.z.z.z.z.z.z.z.z.z.z.z.z.z.z.z.z.z",
".z.DX$.z *.z.z.z.z x 6.m.%.z.z.z.z.z.z.z.z.z.z.z.z.z.z.z.z.z.z.z.z.z.z.z.z *.z *.z *.z *.z.z.z.z.z.z.z.z.z.z.z.z.z.z.z.z.z.z.z.z",
".z.m.%.z *.z.z.z.z.z.# M.+.C.z.z.z.z.z.z.z.z.z.z.z.z.z.z.z.z.z.z.z.z.z.z.z *X+ S.z *.z &.x.z.z.z.z.z.z.z.z.z.z.z.z.z.z.z.z.z.z.z",
".z.z *.z *.z.z.z.z.zXo.L.z.d N.z.z.z.z.z.z.z.z.z.z.z.z.z.z.z.z.z.z.z.z.z.z * V ..z *.z.$ m.z.z.z.z.z.z.z.z.z.z.z.z.z.z.z.z.z.z.z",
".z.z *.z *.z.z.z.z.z._ > M.W 1.z.z.z.z.z.z.z.z.z.z.z.z.z.z.z.z.z.z.z.z.z.z *.z.r.z ,.n g.;.z.z.z.z.z.z.z.z.z.z.z.z.z.z.z.z.z.z.z",
".z.z & g.A +.z.z.z.z.z.T.0 N 6. .z.z.z.z.z.z.z.z.z.z.z.z.z.z.z.z.z.z.z.z.z.t.T O / S #.v.@ }.z.z.z.z.z.z.z.z.z.z.z.z.z.z.z.z.z.z",
".z.z S.X j h X.z.z.z.z.z $ # R.* x.z.z.z.z.z.z.z.z.z.z.z.z.z.z.z.z.z.z.z.z.N 4.z =.|.5.1 + +.L.z.z.z.z.z.z.z.z.z.z.z.z.z.z.z.z.z",
".z.z.z < & m ` I.z.z.z.z.W * *.,.~.z.z.z.z.z.z.z.z.z.z.z.z.z.z.z.z.z.z.z.z.z > %X. &._.3.: 0 ..z.z.z.z.z.z.z.z.z.z.z.z.z.z.z.z.z",
".z.z.z.w.S.S.K.i.z.z.z.z.z.z.z.z.z.z.z.z.z.z.z.z.z.z.z.z.z.z.z.z.z.z.z.z.z.z.l.H.S T F.z.z.z.z.z.z.z.z.z.z.z.z.z.z.z.z.z.z.z.z.z"
};
