/* XPM */
static char *konijn-r[] = {
/* width height ncolors chars_per_pixel */
"64 60 167 2",
/* colors */
"   c #000000",
" . c #B1B1B1",
" X c #AFAFAF",
" o c #ADADAD",
" O c #ABABAB",
" + c #A9A9A9",
" @ c #A7A7A7",
" # c #A5A5A5",
" $ c #A3A3A3",
" % c #A1A1A1",
" & c #9F9F9F",
" * c #9D9D9D",
" = c #9B9B9B",
" - c #999999",
" ; c #979797",
" : c #959595",
" > c #939393",
" , c #919191",
" < c #8F8F8F",
" 1 c #8D8D8D",
" 2 c #898989",
" 3 c #878787",
" 4 c #858585",
" 5 c #838383",
" 6 c #818181",
" 7 c #7F7F7F",
" 8 c #7D7D7D",
" 9 c #797979",
" 0 c #777777",
" q c #737373",
" w c #717171",
" e c #6D6D6D",
" r c #6B6B6B",
" t c #676767",
" y c #636363",
" u c #616161",
" i c #5F5F5F",
" p c #595959",
" a c #555555",
" s c #515151",
" d c #FEFEFE",
" f c #FCFCFC",
" g c #494949",
" h c #FAFAFA",
" j c #F8F8F8",
" k c #F6F6F6",
" l c #F4F4F4",
" z c #414141",
" x c #F2F2F2",
" c c #F0F0F0",
" v c #3D3D3D",
" b c #EEEEEE",
" n c #ECECEC",
" m c #EAEAEA",
" M c #373737",
" N c #E8E8E8",
" B c #E6E6E6",
" V c #E4E4E4",
" C c #313131",
" Z c #E2E2E2",
" A c #E0E0E0",
" S c #DEDEDE",
" D c #DCDCDC",
" F c #DADADA",
" G c #D8D8D8",
" H c #D6D6D6",
" J c #D4D4D4",
" K c #D2D2D2",
" L c #D0D0D0",
" P c #CECECE",
" I c #CCCCCC",
" U c #CACACA",
" Y c #C8C8C8",
" T c #C6C6C6",
" R c #C4C4C4",
" E c #C2C2C2",
" W c #C0C0C0",
" Q c #BEBEBE",
" ! c #0B0B0B",
" ~ c #BCBCBC",
" ^ c #090909",
" / c #BABABA",
" ( c #B8B8B8",
" ) c #B6B6B6",
" _ c #B4B4B4",
" ` c #B2B2B2",
" ' c #B0B0B0",
" ] c #AEAEAE",
" [ c #ACACAC",
" { c #AAAAAA",
" } c #A8A8A8",
" | c #A6A6A6",
".  c #A4A4A4",
".. c #A2A2A2",
".X c #A0A0A0",
".o c #9E9E9E",
".O c #9C9C9C",
".+ c #9A9A9A",
".@ c #989898",
".# c #969696",
".$ c #949494",
".% c #929292",
".& c #909090",
".* c #8E8E8E",
".= c #8C8C8C",
".- c #8A8A8A",
".; c #888888",
".: c #868686",
".> c #848484",
"., c #808080",
".< c #7E7E7E",
".1 c #7C7C7C",
".2 c #7A7A7A",
".3 c #767676",
".4 c #747474",
".5 c #727272",
".6 c #707070",
".7 c #6E6E6E",
".8 c #6A6A6A",
".9 c #686868",
".0 c #666666",
".q c #626262",
".w c #606060",
".e c #5E5E5E",
".r c #5C5C5C",
".t c #5A5A5A",
".y c #FFFFFF",
".u c #FDFDFD",
".i c #4A4A4A",
".p c #FBFBFB",
".a c #F9F9F9",
".s c #F7F7F7",
".d c #F5F5F5",
".f c #F3F3F3",
".g c #F1F1F1",
".h c #EFEFEF",
".j c #EDEDED",
".k c #3A3A3A",
".l c #EBEBEB",
".z c #E9E9E9",
".x c #E7E7E7",
".c c #343434",
".v c #E5E5E5",
".b c #323232",
".n c #E3E3E3",
".m c #E1E1E1",
".M c #DFDFDF",
".N c #DBDBDB",
".B c #D9D9D9",
".V c #D7D7D7",
".C c #D5D5D5",
".Z c #D3D3D3",
".A c #D1D1D1",
".S c #CFCFCF",
".D c #CDCDCD",
".F c #C9C9C9",
".G c #161616",
".H c #C7C7C7",
".J c #C5C5C5",
".K c #C1C1C1",
".L c #BFBFBF",
".P c #BDBDBD",
".I c #BBBBBB",
".U c #B9B9B9",
".Y c #B7B7B7",
".T c #B5B5B5",
".R c #B3B3B3",
/* pixels */
".y.y.y.y.y.y.y.y.y.y.y.y.y.y.y.y.y.y.y.y.y.y.y.y.y.y.y.y.y.y.y.y.y.y.y.y.y.y.y.y.y.y.y.y.y.y.y.y h ` t u J.y.y.y.y.y.y.y.y.y.y.y",
".y.y.y.y.y.y.y.y.y.y.y.y.y.y.y.y.y.y.y.y.y.y.y.y.y.y.y.y.y.y.y.y.y.y.y.y.y.y.y.y.y.y.y.y.y.y.y.y.o | j.g.*.y.y.y.y.y.y.y.y.y.y.y",
".y.y.y.y.y.y.y.y.y.y.y.y.y.y.y.y.y.y.y.y.y.y.y.y.y.y.y.y.y.y.y.y.y.y.y.y.y.y.y.y.y.y.y.y.y.y.y.A =.y.y.y.D.F c.; e [.d.y.y.y.y.y",
".y.y.y.y.y.y.y.y.y.y.y.y.y.y.y.y.y.y.y.y.y.y.y.y.y.y.y.y.y.y.y.y.y.y.y.y.y.y.y.y.y.y.y.y.y.y.y #.g `.y.y.u 3.e.n.y ` X.y.y.y.y.y",
".y.y.y.y.y.y.y.y.y.y.y.y.y.y.y.y.y.y.y.y.y.y.y.y.y.y.y.y.y.y.y.y.y.y.y.y.y.y.y.y.y.y.y.y.y.y n 7.x '.y.y.y.#.I.= @ d.. l.y.y.y.y",
".y.y.y.y.y.y.y.y.y.y.y.y.y.y.y.y.y.y.y.y.y.y.y.y.y.y.y.y.y.y.y.y.y.y.y.y.y.y.y.y.y.y.y.y.y.y.N.I $ Y.y.y.y Y v S & ] [ m.y.y.y.y",
".y.y.y.y.y.y.y.y.y.y.y.y.y.y.y.y.y.y.y.y.y.y.y.y.y.y.y.y.y.y.y.y.y.y.y.y.y.y.y.y.y.y.y.y.y.y.N.I ;.y.y A n Y E.y.y ; [ m.y.y.y.y",
".y.y.y.y.y.y.y.y.y.y.y.y.y.y.y.y.y.y.y.y.y.y.y.y.y.y.y.y.y.y.y.y.y.y.y.y.y.y.y.y.y.y.y.y.y.y.N.I ;.y.y.L.V Y P.y.y ; [ m.y.y.y.y",
".y.y.y.y.y.y.y.y.y.y.y.y.y.y.y.y.y.y.y.y.y.y.y.y.y.y.y.y.y.y.y.y.y.y.y.y.y.y.y.y.y.y.y.y.y.y.N.I.# f.y o.z Y P.y.y b.2.f.y.y.y.y",
".y.y.y.y.y.y.y.y.y.y.y.y.y.y.y.y.y.y.y.y.y.y.y.y.y.y.y.y.y.y.y.y.y.y.y.y.y.y.y.y.y.y.y.y.y.y.n.R Q ..y ;.y Y P.y.y I U.y.y.y.y.y",
".y.y.y.y.y.y.y.y.y.y.y.y.y.y.y.y.y.y.y.y.y.y.y.y.y.y.y.y.y.y.y.y.y.y.y.y.y.y.y.y.y.y.y.y.y.y.y ;.h @.y ;.y Y P.y.y ;.y.y.y.y.y.y",
".y.y.y.y.y.y.y.y.y.y.y.y.y.y.y.y.y.y.y.y.y.y.y.y.y.y.y.y.y.y.y.y.y.y.y.y.y.y.y.y.y.y.y.y.y.y.y.I.N + m 3.y :.V.y $.F.y.y.y.y.y.y",
".y.y.y.y.y.y.y.y.y.y.y.y.y.y.y.y.y.y.y.y.y.y.y.y.y.y.y.y.y.y.y.y.y.y.y.y.y.y.y.y.y.y.y.y.y.y.y.y ;.h ; ,.y ;.y.y.o j.y.y.y.y.y.y",
".y.y.y.y.y.y.y.y.y.y.y.y.y.y.y.y.y.y.y.y.y.y.y.y.y.y.y.y.y.y.y.y.y.y.y.y.y.y.y.y.y.y.y.y.y.y.y.y.@.J : }.y < j.y ;.y.y.y.y.y.y.y",
".y.y.y.y.y.y.y.y.y.y.y.y.y.y.y.y.y.y.y.y.y.y.y.y.y.y.y.y.y.y.y.y.y.y.y.y.y.y.y.y.y.y.y.y.y.y.y.y j 5 l.+.y.L ~ c |.y.y.y.y.y.y.y",
".y.y.y.y.y.y.y.y.y.y.y.y.y.y.y.y.y.y.y.y.y.y.y.y.y.y.y.y.y.y.y.y.y.y.y.y.y.y.y.y.y.y.y.y.y.y.y.y B.2.y.y.y.y $ w.U.y.y.y.y.y.y.y",
".y.y.y.y.y.y.y.y.y.y.y.y.y.y.y.y.y.y.y.y.y.y.y.y.y.y.y.y.y.y.y.y.y.y.y.y.y.y.y.y.y.y.y.y.y.y.y Y i N.y.y.y.y.y.Z.<.P.y.y.y.y.y.y",
".y.y.y.y.y.y.y.y.y.y.y.y.y.y.y.y.y.y.y.y.y.y.y.y.y.y.y.y.y.y.y.y.y.y.y.y.y.y.y.y.y.y.y.y.y.y '.;.g.y.y.y.y.y.y.y.y.X.& d.y.y.y.y",
".y.y.y.y.y.y.y.y.y.y.y.y.y.y.y.y.y.y.y.y.y.y.y.y.y.y.y.y.y.y.y.y.y.y.y.y.y.y.y.y.y.y.y.y.y.x.8.y.y.y.y.y.y.y.y.y.y.y.o.&.y.y.y.y",
".y.y.y.y.y.y.y.y.y.y.y.y.y.y.y.y.y.y.y.y.y.y.y.y.y.y.y.y.y.y.y.y.y.y.y.y.y.y.y.y.y.y.y.y.v i.z.y.y.y.y.y.y.y.y.y.y.y.y 7 D.y.y.y",
".y.y.y.y.y.y.y.y.y.y.y.y.y.y.y.y.y.y.y.y.y.y.y.y.y.y.y.y.y.y.y.y.y.y.y.y.y.y.y.y.y.y D.X.:.y.y.y.y.y.y.y.y.y.y S %.@ c.l O.y.y.y",
".y.y.y.y.y.y.y.y.y.y.y.y.y.y.y.y.y.y.y.y.y.y.y.y.y.y.y.y.y.y.y.y.y.y.y.y.y.y.y.y.I.@ / k.y.y.y.y.y.y.y.y.y.y.y.8    .I.y ;.y.y.y",
".y.y.y.y.y.y.y.y.y.y.y.y.y.y.y.y.y.y.y.y.y.y.y.y.y.y.y.y.y.y.y.y.y.y.y.y.y.y.K t.N d.y.y.y.y.y.y.y.y.y.y.y.y.y F !  .I.y +.j.y.y",
".y.y.y.y.y.y.y.y.y.y.y.y.y.y.y.y.y.y.y.y.y.y.y.y.y.y.y.y.y.y.y.y.y.y.y.y /.3 1 j.y.y.y.y.y.y `.y.y.y.y.y.y.y.y.y K.J.h.y ) A.K c",
".y.y.y.y.y.y.y.y.y.y.y.y.y.y.y.y.y.y.y.y.y.y.y.y.l F ( ; ; ; ; ; ; ; ; ; D k.y.y.y.y.y.y.y.y.*.B.y.y.y.y.y.y.y.y.y.y.y.y S.t 4 G",
".y.y.y.y.y.y.y.y.y.y.y.y.y.y.y.y.y.y.y.y.y.y O.O O ~ S.y.y.y.y.y.y.y.y.y.y.y.y.y.y.y.y.y.y.y.x X.y.y.y.y.y.y.y.y.y.y.y.y.y.B.b 6",
".y.y.y.y.y.y.y.y.y.y.y.y.y.y.y.y.y.y j E ; ;.l h.y.y.y.y.y.y.y.y.y.y.y.y.y.y.y.y.y.y.y.y.y.y.y 2 ].y.y.y.y.y.y.y.y.v V x.y.y.% F",
".y.y.y.y.y.y.y.y.y.y.y.y.y.y.y.y.z @.o J.y.y.y.y.y.y.y.y.y.y.y.y.y.y.y.y.y.y.y.y.y.y.y.y.y.y.y.y.* U.y.y.y.y.y J.o.1.c `.y 3.6 Z",
".y.y.y.y.y.y.y.y.y.y.y.y.y.y x.K o c.y.y.y.y.y.y.y.y.y.y.y.y.y.y.y.y.y.y.y.y.y.y.y.y.y.y.y.y.y.y f.. *.j.d.p.j ~ x #.P.8.C y.z.y",
".y.y.y.y.y.y.y.y.y.y.y.y.y.C. .C.y.y.y.y.y.y.y.y.y.y.y.y.y.y.y.y.y.y.y.y.y.y.y.y.y.y.y.y.y.y.y.y.y.y.a + 0.8.8 > M.T a 9 9.d.y.y",
".y.y.y.y.y.y.y.y.y.y.y d o.K.y.y.y.y.y.y.y.y.y.y.y.y.y.y.y.y.y.y.y.y.y.y.y.y.y.y.y.y.y.y.y.y.y.y.y.y.y.y k.X.y.I W.I.X n.y.y.y.y",
".y.y.y.y.y.y.y.y.y.y.z -.z.y.y.y.y.y.y.y.y.y.y.y.y.y.y.y.y.y.y.y.y.y.y.y.y.y.y.y.y.y.y.y.y.y.y.y.y.y.y.y ;.y.y.y.y.y.y.y.y.y.y.y",
".y.y.y.y.y.y.y.y.y N ].y.y.y.y.y.y.y.y.y.y.y.y.y.y.y.y.y.y.y.y.y.y.y.y.y.y.y.y.y.y.y.y.y.y.y.y.y.y.y.y.y ;.y.y.y.y.y.y.y.y.y.y.y",
".y.y.y.y.y.y.y.y.u [.l.y.y.y.y.y.y.y.y.y.y.y.y.y.y.y.y.y.y.y.y.y.y.y.y.y.y.y.y.y.y.y.y.y.y.y.y.y.y.y.y.f $.y.y.y.y.y.y.y.y.y.y.y",
".y.y.y.y.y.y.y.y o.z.y.y.y.y.y.y.y.y.y.y.y.y.y.y.y.y.y.y.y.y.y.y.y.y.y.y.y.y.y.y.y.y.y.y.y.y.y.y.y.y.y.L.V.y.y.y.y.y.y.y.y.y.y.y",
".y.y.y.y.y.y.y I.I.y.y.y.y.y.y.y.y.y.y.y.y.y.y x d.y.y.y.y.y.y.y.y.y.y.y.y.y.y.y.y.y.y.y.y.y.y.y.y.y.u 1.u.y.y.y.y.y.y.y.y.y.y.y",
".y.y.y.y.y.y.y.:.d.y.y.y.y.y.y.y.y.y.y.y.y.y.y B '.y.y.y.y.y.y.y.y.y.y.y.y.y.y.y.y.y.y.y.y.y.y.y.y.y I.=.y.y.y.y.y.y.y.y.y.y.y.y",
".y.y.y.y.y.y.d %.y.y.y.y.y.y.y.y.y.y.y.y.y.y.y.y N #.u.y.y.y.y.y.y.y.y.y.y.y.y.y.y.y.y.y.y.y.y.y.y.y r j.y.y.y.y.y.y.y.y.y.y.y.y",
".y.y.y.y.y.y n {.y.y.y.y.y.y.y.y.y.y.y.y.y.y.y.y.y.  }.y.y.y.y.y.y.m.y.y.y.y.y.y.y.y.y.y.y.y.y.y.y o U.y.y.y.y.y.y.y.y.y.y.y.y.y",
".y.y.y.y.y.y 0.d.y.y.y.y.y.y.y.y.y.y.y.y.y.y.y.y.y.y ,.N.y.y.y.y.y ;.y.y.y.y.y.y.y.y.y.y.y.y.y.y n =.p.y.y.y.y.y.y.y.y.y.y.y.y.y",
".y.y.y.y.y n {.y.y.y.y.y.y.y.y.y.y.y.y.y.y.y.y.y.y.y.l [.y.y.y.y.y ;.y.y.y.y.y.y.y.y.y.y.y.y.y m.e.v.y.y.y.y.y.y.y.y.y.y.y.y.y.y",
".y.y.y.y d.O.p.y.y.y.y.y.y.y.y.y.y.y.y.y.y.y.y.y.y.y.y.2 x.y.y.y } b.y.y.y.y.y.y.y.y.y.y.y.a _.& n.y.y.y.y.y.y.y.y.y.y.y.y.y.y.y",
".y.y.y.y.n.R.y.y.y.y.y.y.y.y.y.y.y.y.y.y.y.y.y.y.y.y.y.T Z.y.y.y.@ d.y.y.y.y.y.y.y.y.y.z O q J.y.y.y.y.y.y.y.y.y.y.y.y.y.y.y.y.y",
".y.y.y.y.n.R.y.y.y.y.y.y.y.y.y.y.y.y.y.y.y.y.y.y.y.y.y K -.y.y.y.@ d.y.y.y.y.y.y.y.y.L.> m.y.y.y.y.y.y.y.y.y.y.y.y.y.y.y.y.y.y.y",
".y.y.y.y.@ d.y.y.y.y.y.y.y.y.y.y.y.y.y.y.y.y.y.y.y.y.y.y ;.y.y.y J E.y.y.y.y.y.y.y.8.#.5.y.y.y.y.y.y.y.y.y.y.y.y.y.y.y.y.y.y.y.y",
".y.y.y.y ;.y.y.y.y.y.y.y.y.y.y.y.y.y.y.y.y.y.y.y.y.y.y.y ;.y.y.y.y ;.y.y.y.y.y.y.D &.y 6.u.y.y.y.y.y.y.y.y.y.y.y.y.y.y.y.y.y.y.y",
" , p.* k ;.y.y.y.y.y.y.y.y.y.y.y.y.y.y.y.y.y.y.y.y.y.y.y ;.y.y.y.y ,.s.y.y.y.y.d.e.-.y.p.O.y.y.y.y.y.y.y.y.y.y.y.y.y.y.y.y.y.y.y",
" s.y Q =.S.H.y.y.y.y.y.y.y.y.y.y.y.y.y.y.y.y.y.y.y.y.y.y ;.y.y.j. .w.J.y.y.y.y b } ;.y.y ;.y.y.y.y.y.y.y.y.y.y.y.y.y.y.y.y.y.y.y",
" *.a f. .r +.y.y.y.y.y.y.y.y.y.y.y.y.y.y.y.y.y.y.y.y.y.s.%.A.q + x.z.>.f.y.y.y b } ;.y.y 1.y.y.y.y.y.y.y.y.y.y.y.y.y.y.y.y.y.y.y",
" L T.y.y k.8.l.y.y.y.y.y.y.y.y.y.y.y.y.y.y.y.y.y.y.y.y.T.i.J ;.y.y.y.n 8.D.y.y b } ;.y (.$.y.y.y.y.y.y.y.y.y.y.y.y.y.y.y.y.y.y.y",
" B 7 d.y.y k & D.y.y.y.y.y.y.y.y.y.y.y.y.y.y.y.y.y.y.y.1.n.y ;.y.y.y.y.p.- d.y b }.+.A - k.y.y.y.y.y.y.y.y.y.y.y.y.y.y.y.y.y.y.y",
".y : -.y.y.y.y.y.y.y.y.y.y.y.y.y.y.y.y.y.y.y.y.y.y.y.j 7.y.h @.y.y.y.y.y.;.l.y b }.a * - X.y.y.y.y.y.y.y.y.y.y.y.y.y.y.y.y.y.y.y",
".y.y : - f.y.y.y.y.y.y.y.y.y.y.y.y.y.y.y.y.y.y.y.y.u e J.y O.z.y.y.y.y.y O N.y.d %.y ; g d.y.y.y.y.y.y.y.y.y.y.y.y.y.y.y.y.y.y.y",
".y.y.y.Y.8 +.a.y.y.y.y.y.y.y.y.y.y.y.y.y.y.y.y.y.m.7 Y.y.+.$.y.y.y.y.y.y.M <.y.y ;.y.y.y.y.y.y.y.y.y.y.y.y.y.y.y.y.y.y.y.y.y.y.y",
".y.y.y.y h X.9.R.y.y.y.y.y.y.y.y.y j.@ ; ; ;.@ q.G.b ; 9 ^ C.c ; ;.7 Q.y.y.7.y.y.Y ).y.y.y.y.y.y.y.y.y.y.y.y.y.y.y.y.y.y.y.y.y.y",
".y.y.y.y.y.y d ( ; ~ K.j.y.y S K +.4 d.y.y.y d.u.u ..,.; L.N.S 1 L d 3.A.y x } h d.1 , V.y.y.y.y.y.y.y.y.y.y.y.y.y.y.y.y.y.y.y.y",
".y.y.y.y.y.y.y.y.y F R + ;.5 ( R.j.y.y.y.y.y.y.y.y.y H.k.U.*.2 x y ; ; t.n.y b 5.y.y F.;.4 R.y.y.y.y.y.y.y.y.y.y.y.y.y.y.y.y.y.y",
".y.y.y.y.y.y.y.y.y.y.y.y.y.I.N.y B D D D D D D D d.y.y.s &.U E 2.9 d.y.y.y.y.y R.* I x.y j.0 l.y.y.y.y.y.y.y.y.y.y.y.y.y.y.y.y.y",
".y.y.y.y.y.y.y.y.y.y.y.y.y B 4 ; '.I.I.I.I.I.I.I.@ ; ; 7.$.t * ~.y.y.y.y.y.y.y.y b ( 8 ; ;.; f.y.y.y.y.y.y.y.y.y.y.y.y.y.y.y.y.y",
".y.y.y.y.y.y.y.y.y.y.y.y.y.y.y.y.y.y.y.y.y.y.y.y.y.y.y.T   z.y.y.y.y.y.y.y.y.y.y.y.y.y.y.y.y.y.y.y.y.y.y.y.y.y.y.y.y.y.y.y.y.y.y"
};
