/* XPM */
static char *konijn-r[] = {
/* width height ncolors chars_per_pixel */
"64 43 112 2",
/* colors */
"   c #B1B1B1",
" . c #AFAFAF",
" X c #ADADAD",
" o c #ABABAB",
" O c #A9A9A9",
" + c #A7A7A7",
" @ c #A3A3A3",
" # c #A1A1A1",
" $ c #9B9B9B",
" % c #999999",
" & c #979797",
" * c #959595",
" = c #939393",
" - c #919191",
" ; c #8B8B8B",
" : c #838383",
" > c #7F7F7F",
" , c #737373",
" < c #595959",
" 1 c #575757",
" 2 c #555555",
" 3 c #FEFEFE",
" 4 c #FCFCFC",
" 5 c #FAFAFA",
" 6 c #F8F8F8",
" 7 c #F6F6F6",
" 8 c #F4F4F4",
" 9 c #F2F2F2",
" 0 c #F0F0F0",
" q c #EEEEEE",
" w c #ECECEC",
" e c #EAEAEA",
" r c #E8E8E8",
" t c #E6E6E6",
" y c #E4E4E4",
" u c #E0E0E0",
" i c #DEDEDE",
" p c #DCDCDC",
" a c #DADADA",
" s c #D8D8D8",
" d c #D6D6D6",
" f c #D4D4D4",
" g c #D2D2D2",
" h c #D0D0D0",
" j c #CECECE",
" k c #CCCCCC",
" l c #C8C8C8",
" z c #C6C6C6",
" x c #131313",
" c c #C4C4C4",
" v c #C2C2C2",
" b c #C0C0C0",
" n c #BCBCBC",
" m c #BABABA",
" M c #B8B8B8",
" N c #B6B6B6",
" B c #B4B4B4",
" V c #B2B2B2",
" C c #AEAEAE",
" Z c #ACACAC",
" A c #AAAAAA",
" S c #A8A8A8",
" D c #A6A6A6",
" F c #A4A4A4",
" G c #A2A2A2",
" H c #9C9C9C",
" J c #9A9A9A",
" K c #989898",
" L c #969696",
" P c #949494",
" I c #929292",
" U c #8C8C8C",
" Y c #848484",
" T c #7C7C7C",
" R c #6E6E6E",
" E c #FFFFFF",
" W c #FDFDFD",
" Q c #FBFBFB",
" ! c #F9F9F9",
" ~ c #F7F7F7",
" ^ c #F5F5F5",
" / c #F3F3F3",
" ( c #F1F1F1",
" ) c #EFEFEF",
" _ c #EDEDED",
" ` c #EBEBEB",
" ' c #E9E9E9",
" ] c #E7E7E7",
" [ c #E5E5E5",
" { c #DFDFDF",
" } c #DDDDDD",
" | c #DBDBDB",
".  c #D9D9D9",
".. c #D7D7D7",
".X c #D5D5D5",
".o c #D3D3D3",
".O c #D1D1D1",
".+ c #CFCFCF",
".@ c #CDCDCD",
".# c #CBCBCB",
".$ c #C9C9C9",
".% c #C7C7C7",
".& c #C5C5C5",
".* c #C3C3C3",
".= c #C1C1C1",
".- c #BFBFBF",
".; c #BDBDBD",
".: c #BBBBBB",
".> c #B9B9B9",
"., c #B7B7B7",
".< c #B5B5B5",
".1 c #B3B3B3",
/* pixels */
" E E E E E E E E E E E E E E E E E E E E E E E E E E E E E E E E E E E E E E E E E E E E E E E E E E E E E E E E E E E E E E E E",
" E E E E E E E E E E E E E E E E E E E E E E E E E E E E E E E E E E E E E E E E E E E E E E E E E E E E E E E E E E E E E E E E",
" E E E E E E E E E E E E E E E E E E E E E E E E E E E E E E E E E E E E E E E E E E 5 Z * 8 E E E E E E E E E E E E E E E E E E",
" E E E E E E E E E E E E E E E E E E E E E E E E E E E E E E E E E E E E E E E E E E o 9 ! c w V 8 E E E E E E E E E E E E E E E",
" E E E E E E E E E E E E E E E E E E E E E E E E E E E E E E E E E E E E E E E E E 8 c.X E N & 6 @ E E E E E E E E E E E E E E E",
" E E E E E E E E E E E E E E E E E E E E E E E E E E E E E E E E E E E E E E E E E m.& i E w R $ s.+ E E E E E E E E E E E E E E",
" E E E E E E E E E E E E E E E E E E E E E E E E E E E E E E E E E E E E E E E E E.-.- E.O _ h ) b j E E E E E E E E E E E E E E",
" E E E E E E E E E E E E E E E E E E E E E E E E E E E E E E E E E E E E E E E E E.- m 7.- _.O 5.: [ E E E E E E E E E E E E E E",
" E E E E E E E E E E E E E E E E E E E E E E E E E E E E E E E E E E E E E E E E E } j h.- _.O ~.% E E E E E E E E E E E E E E E",
" E E E E E E E E E E E E E E E E E E E E E E E E E E E E E E E E E E E E E E E E E 3 b.- . l t.; ( E E E E E E E E E E E E E E E",
" E E E E E E E E E E E E E E E E E E E E E E E E E E E E E E E E E E E E E E E E E E.*.= O.: ^.- E E E E E E E E E E E E E E E E",
" E E E E E E E E E E E E E E E E E E E E E E E E E E E E E E E E E E E E E E E E E E 5 B p ~  .< E E E E E E E E E E E E E E E E",
" E E E E E E E E E E E E E E E E E E E E E E E E E E E E E E E E E E E E E E E E E r L ) E E ~ A.$ E E E E E E E E E E E E E E E",
" E E E E E E E E E E E E E E E E E E E E E E E E E E E E E E E E E E E E E E E E 5 L W E E E E E.=.; E E E E E E E E E E E E E E",
" E E E E E E E E E E E E E E E E E E E E E E E E E E E E E E E E E E E E E E E p D ) E E E E E 0 7 o E E E E E E E E E E E E E E",
" E E E E E E E E E E E E E E E E E E E E E E E E E E E E E E E E E E E E E h.- p W E E E E E 9 x 1 q h E E E E E E E E E E E E E",
" E E E E E E E E E E E E E E E E E E E E E E E E E E E E E E E E E E E.+ K i E E E ] E E E E E J H 3 b ] E E E E E E E E E E E E",
" E E E E E E E E E E E E E E E E E E E E E E E E E E E.o.-.-.-.-.-.-.- r W E E E E o E E E E E E E E # R 9 E E E E E E E E E E E",
" E E E E E E E E E E E E E E E E E E E E E E E E {.-.- ` E E E E E E E E E E E E E ) @ E E E E 4 g ` 3 G E E E E E E E E E E E E",
" E E E E E E E E E E E E E E E E E E E E E E a.- { E E E E E E E E E E E E E E E E E u N ~ E `.: - + *.; E E E E E E E E E E E E",
" E E E E E E E E E E E E E E E E E E E E 6.= y E E E E E E E E E E E E E E E E E E E E 6 v P @ , ; L k E E E E E E E E E E E E E",
" E E E E E E E E E E E E E E E E E E E.  z W E E E E E E E E E E E E E E E E E E E E E E E.- Q q e E E E E E E E E E E E E E E E",
" E E E E E E E E E E E E E E E E E E i u E E E E E E E E E E E E E E E E E E E E E E E E 9 k E E E E E E E E E E E E E E E E E E",
" E E E E E E E E E E E E E E E E E w g E E E E E E E E E E E E E E E E E E E E E E E E E.* Q E E E E E E E E E E E E E E E E E E",
" E E E E E E E E E E E E E E E E E   W E E E E E E E E.  Q E E E E E E E E E E E E E E 4 S E E E E E E E E E E E E E E E E E E E",
" E E E E E E E E E E E E E E E E E.- E E E E E E E E E Q X Q E E E E E E E E E E E E E.$ i E E E E E E E E E E E E E E E E E E E",
" E E E E E E E E E E E E E E E E j u E E E E E E E E E E w.: E E E z E E E E E E E E _., E E E E E E E E E E E E E E E E E E E E",
" E E E E E E E E E E E E E E E E.- E E E E E E E E E E E E m Q E /.# E E E E E E E.. o 5 E E E E E E E E E E E E E E E E E E E E",
" E E E E E E E E E E E E E E E f e E E E E E E E E E E E E d s E u i E E E E E.. ... E E E E E E E E E E E E E E E E E E E E E E",
" E E E E E E E E E E E E E E E.& ! E E E E E E E E E E E E Q n E w g E E E E A U E E E E E E E E E E E E E E E E E E E E E E E E",
" E E E E E E E E E E E E E.: '.- E E E E E E E E E E E E E E.- E E.- E E E.#.1.% 0 E E E E E E E E E E E E E E E E E E E E E E E",
" E E E E E E E E E E E E [ o $.1 ^ E E E E E E E E E E E E E.- /.# : Q E E.,.- 4 v E E E E E E E E E E E E E E E E E E E E E E E",
" E E E E E E E E E E E E E.- ! ..; E E E E E E E E E E E E e Y = / w C / E.-.- |.* E E E E E E E E E E E E E E E E E E E E E E E",
" E E E E E E E E E E E E E F 9 E | ` E E E E E E E E E E E.1 `.- E E Q A E.- . N 0 E E E E E E E E E E E E E E E E E E E E E E E",
" E E E E E E E E E E E E E 6 I ` E E E E E E E E E E E E ` @ w.# E E E M E.- e > 5 E E E E E E E E E E E E E E E E E E E E E E E",
" E E E E E E E E E E E E E E 6.1 D ` E E E E E Q.#.-.@   <., 2 G.-.& Q.1 Q.@ e E E E E E E E E E E E E E E E E E E E E E E E E E",
" E E E E E E E E E E E E E E E E 6.-.-.& y.X.-.1 / E ( | b T & . X z L q.% ~ F.: 8 E E E E E E E E E E E E E E E E E E E E E E E",
" E E E E E E E E E E E E E E E E E E E ! a.1 Q [ [ [ [ ) E f.> D $.= a 5 8 + i ' $ t E E E E E E E E E E E E E E E E E E E E E E",
" E E E E E E E E E E E E E E E E E E E E E.#.*. . . . .+.- N %.= _ E E E E Q z.- M ! E E E E E E E E E E E E E E E E E E E E E E",
" E E E E E E E E E E E E E E E E E E E E E E E E E E E E E E E E E E E E E E E E E E E E E E E E E E E E E E E E E E E E E E E E",
" E E E E E E E E E E E E E E E E E E E E E E E E E E E E E E E E E E E E E E E E E E E E E E E E E E E E E E E E E E E E E E E E",
" E E E E E E E E E E E E E E E E E E E E E E E E E E E E E E E E E E E E E E E E E E E E E E E E E E E E E E E E E E E E E E E E",
" E E E E E E E E E E E E E E E E E E E E E E E E E E E E E E E E E E E E E E E E E E E E E E E E E E E E E E E E E E E E E E E E"
};
