/* XPM */
static char *leeuw-r[] = {
/* width height ncolors chars_per_pixel */
"64 36 180 2",
/* colors */
"   c #000000",
" . c #B1B1B1",
" X c #AFAFAF",
" o c #ADADAD",
" O c #ABABAB",
" + c #A7A7A7",
" @ c #A5A5A5",
" # c #A3A3A3",
" $ c #A1A1A1",
" % c #9D9D9D",
" & c #9B9B9B",
" * c #999999",
" = c #979797",
" - c #959595",
" ; c #939393",
" : c #919191",
" > c #8D8D8D",
" , c #8B8B8B",
" < c #898989",
" 1 c #878787",
" 2 c #858585",
" 3 c #838383",
" 4 c #818181",
" 5 c #7F7F7F",
" 6 c #7D7D7D",
" 7 c #7B7B7B",
" 8 c #797979",
" 9 c #757575",
" 0 c #737373",
" q c #717171",
" w c #6F6F6F",
" e c #6D6D6D",
" r c #6B6B6B",
" t c #696969",
" y c #656565",
" u c #636363",
" i c #616161",
" p c #5F5F5F",
" a c #5D5D5D",
" s c #5B5B5B",
" d c #595959",
" f c #575757",
" g c #555555",
" h c #535353",
" j c #515151",
" k c #4F4F4F",
" l c #4D4D4D",
" z c #FEFEFE",
" x c #4B4B4B",
" c c #FCFCFC",
" v c #FAFAFA",
" b c #474747",
" n c #F8F8F8",
" m c #454545",
" M c #F6F6F6",
" N c #434343",
" B c #F4F4F4",
" V c #F2F2F2",
" C c #3F3F3F",
" Z c #F0F0F0",
" A c #3D3D3D",
" S c #EEEEEE",
" D c #3B3B3B",
" F c #ECECEC",
" G c #EAEAEA",
" H c #373737",
" J c #E8E8E8",
" K c #E6E6E6",
" L c #333333",
" P c #E2E2E2",
" I c #2F2F2F",
" U c #2D2D2D",
" Y c #DEDEDE",
" T c #DCDCDC",
" R c #DADADA",
" E c #D6D6D6",
" W c #D4D4D4",
" Q c #D2D2D2",
" ! c #D0D0D0",
" ~ c #CECECE",
" ^ c #CCCCCC",
" / c #191919",
" ( c #CACACA",
" ) c #C8C8C8",
" _ c #C4C4C4",
" ` c #C2C2C2",
" ' c #0F0F0F",
" ] c #C0C0C0",
" [ c #BEBEBE",
" { c #BCBCBC",
" } c #BABABA",
" | c #B6B6B6",
".  c #B4B4B4",
".. c #B2B2B2",
".X c #B0B0B0",
".o c #AAAAAA",
".O c #A8A8A8",
".+ c #A6A6A6",
".@ c #A4A4A4",
".# c #A2A2A2",
".$ c #A0A0A0",
".% c #9E9E9E",
".& c #9C9C9C",
".* c #9A9A9A",
".= c #969696",
".- c #949494",
".; c #929292",
".: c #909090",
".> c #8E8E8E",
"., c #8C8C8C",
".< c #8A8A8A",
".1 c #888888",
".2 c #868686",
".3 c #848484",
".4 c #828282",
".5 c #808080",
".6 c #7E7E7E",
".7 c #7C7C7C",
".8 c #7A7A7A",
".9 c #767676",
".0 c #727272",
".q c #707070",
".w c #6E6E6E",
".e c #6C6C6C",
".r c #6A6A6A",
".t c #646464",
".y c #626262",
".u c #606060",
".i c #5C5C5C",
".p c #5A5A5A",
".a c #565656",
".s c #545454",
".d c #525252",
".f c #505050",
".g c #4E4E4E",
".h c #FFFFFF",
".j c #4C4C4C",
".k c #FDFDFD",
".l c #4A4A4A",
".z c #FBFBFB",
".x c #F9F9F9",
".c c #464646",
".v c #F7F7F7",
".b c #F5F5F5",
".n c #424242",
".m c #F3F3F3",
".M c #404040",
".N c #F1F1F1",
".B c #EFEFEF",
".V c #EDEDED",
".C c #EBEBEB",
".Z c #383838",
".A c #E9E9E9",
".S c #363636",
".D c #E5E5E5",
".F c #E3E3E3",
".G c #303030",
".H c #E1E1E1",
".J c #2E2E2E",
".K c #DFDFDF",
".L c #DDDDDD",
".P c #DBDBDB",
".I c #D7D7D7",
".U c #D5D5D5",
".Y c #D3D3D3",
".T c #202020",
".R c #CFCFCF",
".E c #CDCDCD",
".W c #CBCBCB",
".Q c #C9C9C9",
".! c #C7C7C7",
".~ c #C5C5C5",
".^ c #C3C3C3",
"./ c #C1C1C1",
".( c #BDBDBD",
".) c #BBBBBB",
"._ c #B9B9B9",
".` c #B7B7B7",
".' c #B5B5B5",
".] c #B3B3B3",
/* pixels */
".h.h.h.h.h.h.h.h.h.h.h.h.h.h.h.h.h.h.h.h.h.h.h.h.h.h.h.h.h.h.h.h.h.h.h.h.h.h.h.h.h.h.h.h.h.h.h.h.h.h.h.h.h ].$.C.h.h.h.h.h.h.h.h",
".h.h.h.h.h.h.h.h.h.h.h.h.h.h.h.h.h.h.h.h.h.h.h.h.h.h.h.h.h.h.h.h.h.h.h.h.h.h.h.h.h.h.h.h.h.h.h.h.k.H.H.*.a.- [ w.=.H B.h F.h.h.h",
".h.h.h.h.h.h.h.h.h.h.h.h.h.h.h.h.h.h.h.h.h.h.h.h.h.h.h.h.h.h.h.h.h.h.h.h.h.h.h.h.h.h.h.h.h.h.h <.4 6 6 _.< W.h.1   q.5.4.n.h.h.h",
".h.h.h.h.h.h.h.h.h.h.h.h.h.h.h.h.h.h.h.h.h.h.h.h.h.h.h.h.h.h.h.h.h.h.h.h.h.h.h.h.h.h.h.h.h } p.U Y.h.h Y.5.h.h H.T F J T f.h.h.h",
".h.h.h.h.h.h.h.h.h.h.h.h.h.h.h.h.h.h.h.h.h.h.h.h.h.h.h.h.h.h.h.h.h.h.h.h.h.h.h.h.h.h.h.h._ @.h.h.h.h.h 0.C.h.h k !.h.h.h p.h.h.h",
".h.h.h.h.h.h.h.h.h.h.h.h.h.h.h.h.h.h.h.h.h.h.h.h.h.h.h.h.h.h.h.h.h.h.h.h.h.h.h.h.h.h.h } @ z.h.h.h.h.h 0.C.h.h c.h.h.h.h ,.Y.h.h",
".h.h.h.h.h.h.h.h.h.h.h.h.h.h.h.h.h.h.h.h.h.h.h.h.h.h.h.h.h.h.h.h.h.h.h.h.h.h.h.h.h.h }.@.h.h.h.h z.N.h 4.`./.h.z :.V.h ] !.6.A.h",
".h.h.h.h.h.h.h.h.h.h.h.h.h.h.h.h.h.h.h.h.h.h.h F 1 1 1 1.F.h.h.h.h.h.h.h.h.h.h.h.D 1.+.h.h.h.h.h Z.w.h.h. .o.h G.Z K.h.h.h }.@.h",
".h.h.h.h.h.h.h.h.h.h.h.h.h.h.h.h.h.h.h.h ^ _ p.0.I.I.I.I 7 p p p p p ; ) ) ).7 p 8.I.k.h.h.h.h S 1 J.h.h. .o.h.h - y.h.h.h.h 0.C",
".h.h.h.h.h.h.h.h.h.h.h.h.h.h.h.h.h.h.h o.;.*.h.h.h.h.h.h.h.h.h.h.h.h.W.=.=.= P.h.h +.x.h.h.h.h X X.h.h.h. .o.h.h.h p.h.h.h...g.$",
".h.h.h.h.h.h.h.h.h.h.h.h.h.h.h.h.h.h o . z.h.h.h.h.h.h.h.h.h.h.h.h.h.h.h.h.h.h.h (.-.h | 8.h.h (.-.h.h.h. .o.h.h.h p.h.h.m @ > ]",
".h.h.h.h.h.h.h.h.h.h.h.h.h.h.h.h z X o.C.N.h.h.h.h.h.h.h.h.b.k.h.h.h.h.h.h.h.h.h ].%.h.( U.K.h.h p.h.h.h } ..h.h.h L.y.C.V.$.u.h",
".h.h.h.h.h.h.h.h.h.h.h.h.h.h.h.h X X.< C.s.h.h.h.h.h.h.h.h 6.H.h.h.h.h.h.h.h.h.h p.h.h.h., Q.h.h.$ [.h.h.h.h.h.h.h p.  0 0 D.B.h",
".h.h.h.h.h.h.h.h.h.h.h.h.h.h.h o.>.%.=., p.h.h.h.h.h.h.h.h 6.H.h.h.h.h.h.h.h.h.h p.h.h.h.# {.h.h Z d.b.h.h.h.h.h.h j e.h.L.A.h.h",
".h.h.h.h.h.h.h.h.h.h.h.h.h.h o.3.2 ] :.E p.h.h.h.h.h.h.h.h 6.H.h.h.h.h.h.h.h.h.h p.h.h.h.h p.h.h n.d.E.h.h.h.h.h.h / @.h.h.h.h.h",
".h.h.h.h.h.h.h.h.h.h.h.h.h ! i.: v.h p.h p.h.h.h.h.h.h.h.h.v.k.h.h.h.h.h.h.h.h.h.g Y.h.h.h k.L.h.h.] O.h.h.h.h.E.U 2 v.h.h.h.h.h",
".h.h.h.h.h.h.h.h.h.h.h.h.h.y.r v.h.h p.h.t v.h.h.h.h.h.h.h.h.h.h.h.h.h.h.h.h.h.h {.5.2.z.h &.J.b.h.h.E.h.h.h.h.O.4.v.h.h.h.h.h.h",
".h.h.h.h.h.h.h.h.h.h.h.h.E.j.h.h.h.h p.h. .o.h.h.h.h.h.h.h.h.h.h.h.h.h.h.h.h.h.h.h.h k. .h.E   Z.h.h.h.h.h.h Q.9.).h.h.h.h.h.h.h",
".h.h.h.h.h.h.h.h.h.h.h.z.1.).h.h.h.h p.h Z.w.h.h.h.h.h.h.h J.e p p }.h.h.h.h.h.h.h.h.o. .h.b.0.t.N.h.h.h.h T., B.h.h.h.h.h.h.h.h",
".h.h.h.h.h.h.h.h.h.h.h.C 0.h.h.h.h.h p.h.h p.h.h.h.h.h.h F.5 V.h.h.+ 0 F.h.h.h.h.h.h.o.i.h.h.h ' X.h.h.h E.G.h.h.h.h.h.h.h.h.h.h",
".h.h.h.h.h.h.h.h.h.h K 3 B.h.h.h.h.h p.h.h.A 9.h.h.h.h.h h g p.-. ...9.q. . .).h.h.h.X.S p p p k.C.8.h.h &.`.h.h.h.h.h.h.h.h.h.h",
".h.C.p.7.b.h.h.h.h.h +.`.h.h.h.h.h.h p.h.h c 1 R.h.h.h {.#.h.h (.o.o 2 x r.o # p a s N.c.h.h.h.-.' I p p.(.h.h.h.h.h.h.h.h.h.h.h",
".h.H 6.6 t - P.h.h./ %.h.h.h.h.h.h Q.,.h.h.h.= ).h.h.h &.^.h.h.h.h.h.h.h.h.h.h.h ).=.h *.~.h.h X j.h.h.h.h.h.h.h.h.h.h.h.h.h.h.h",
".h.H t v.h : b F.( %.k.h.h.h.h.h.m.9 B.h.h 7.Z X.h.h z.;.E.h.h.h.h.h.h.h.h.h.h.h ).=.h.C i n.h X X.h.h.h.h.h.h.h.h.h.h.h.h.h.h.h",
".h.N m 1.h.h.d.M.,.h.h.h.h.h.h.h #.).h.h 3 1 ~ m.h.h v.t.h.h.h.h.h.h.h.h.h.h.h.h ).=.h.C A -.h X X.h.h.h.h.h.h.h.h.h.h.h.h.h.h.h",
".h.h.m.y p p a K.z.h.h.h.h.h.h $.(.h.m.1.P.v.h p.h.h v.t.h.h.h.h.h.h.h.h.h.h.h.h ).=.h.C 0 p.h X X.h.h.h.h.h.h.h.h.h.h.h.h.h.h.h",
".h.h.h.h.h.h.h.h.h.h.h.h.h.h.h p.h.k.< E.h.h.h p.h.h.= ).h.h.h.h.h.h.h.h.h.h.h.h ).=.h.C 0 p.h X X.h.h.h.h.h.h.h.h.h.h.h.h.h.h.h",
".h.h.h.h.h.h.h.h.h.h.h.h.h.h.h p.h :.E.h.h.h.h.> !.h.& `.h.h.h.h.h.h.h.h.h.h.h.h ).=.h.m 6 l.h X X.h.h.h.h.h.h.h.h.h.h.h.h.h.h.h",
".h.h.h.h.h.h.h.h.h.h.h.h.h.h.h p.h :.E.h.h.h.h.I 1.h.z.e.v.h.h.h.h.h.h.h.h.h.h.h ).=.h.h.&.Z.h }.@.h.h.h.h.h.h.h.h.h.h.h.h.h.h.h",
".h.h.h.h.h.h.h.h.h.h.h.h.h.h.h p.h.Q -.h.h.h.h.C 5 V.h &.^.h.h.h.h.h.h.h.h.h.h.h ).l v.h.h p.h.h p.h.h.h.h.h.h.h.h.h.h.h.h.h.h.h",
".h.h.h.h.h.h.h.h.h.h.h.h.h.h.h 0 `.h _.*.h.h.h.h.* _.h.m ,.K.h.h.h.h.h.h.h.h.h.h.x 3._ F.h ].%.h.F.1 V.h.h.h.h.h.h.h.h.h.h.h.h.h",
".h.h.h.h.h.h.h.h.h.h.h.h.h.h.h.H.Z.@ Q.,.h.h.h.h.h =.!.h V 5.1.h.h.h.h.h.h.h.h.h.h.h.w.f.h.1 7 :.h E.1.h.h.h.h.h.h.h.h.h.h.h.h.h",
".h.h.h.h.h.h.h.h.h.h.h.h.h.h.h.h M p 7.h.h.h.h.h.h.h *.$.$.$.s.h.h.h.h.h.h.h.h.h.h.h.h.> p p }.E u.$.e.`.h.h.h.h.h.h.h.h.h.h.h.h",
".h.h.h.h.h.h.h.h.h.h.h.h.h.h.h.h.h.h.h.h.h.h.h.h.h.h z [ [ [.R.h.h.h.h.h.h.h.h.h.h.h.h.h.h.h.h.h.z [ V.h.h.h.h.h.h.h.h.h.h.h.h.h",
".h.h.h.h.h.h.h.h.h.h.h.h.h.h.h.h.h.h.h.h.h.h.h.h.h.h.h.h.h.h.h.h.h.h.h.h.h.h.h.h.h.h.h.h.h.h.h.h.h.h.h.h.h.h.h.h.h.h.h.h.h.h.h.h",
".h.h.h.h.h.h.h.h.h.h.h.h.h.h.h.h.h.h.h.h.h.h.h.h.h.h.h.h.h.h.h.h.h.h.h.h.h.h.h.h.h.h.h.h.h.h.h.h.h.h.h.h.h.h.h.h.h.h.h.h.h.h.h.h"
};
