/* XPM */
static char *leeuw-r[] = {
/* width height ncolors chars_per_pixel */
"64 34 181 2",
/* colors */
"   c #000000",
" . c #B1B1B1",
" X c #AFAFAF",
" o c #ADADAD",
" O c #A9A9A9",
" + c #A7A7A7",
" @ c #A5A5A5",
" # c #A3A3A3",
" $ c #A1A1A1",
" % c #9F9F9F",
" & c #9D9D9D",
" * c #9B9B9B",
" = c #999999",
" - c #979797",
" ; c #959595",
" : c #939393",
" > c #919191",
" , c #8D8D8D",
" < c #8B8B8B",
" 1 c #898989",
" 2 c #878787",
" 3 c #858585",
" 4 c #838383",
" 5 c #818181",
" 6 c #7F7F7F",
" 7 c #7D7D7D",
" 8 c #7B7B7B",
" 9 c #797979",
" 0 c #777777",
" q c #757575",
" w c #737373",
" e c #717171",
" r c #6F6F6F",
" t c #6D6D6D",
" y c #6B6B6B",
" u c #696969",
" i c #676767",
" p c #636363",
" a c #616161",
" s c #5F5F5F",
" d c #5B5B5B",
" f c #595959",
" g c #575757",
" h c #515151",
" j c #4F4F4F",
" k c #FEFEFE",
" l c #4B4B4B",
" z c #FCFCFC",
" x c #FAFAFA",
" c c #474747",
" v c #F8F8F8",
" b c #F6F6F6",
" n c #434343",
" m c #F4F4F4",
" M c #414141",
" N c #F2F2F2",
" B c #3F3F3F",
" V c #F0F0F0",
" C c #EEEEEE",
" Z c #3B3B3B",
" A c #393939",
" S c #EAEAEA",
" D c #373737",
" F c #E8E8E8",
" G c #353535",
" H c #E6E6E6",
" J c #333333",
" K c #E4E4E4",
" L c #E2E2E2",
" P c #2F2F2F",
" I c #E0E0E0",
" U c #DEDEDE",
" Y c #DCDCDC",
" T c #292929",
" R c #DADADA",
" E c #D8D8D8",
" W c #252525",
" Q c #D6D6D6",
" ! c #D4D4D4",
" ~ c #D2D2D2",
" ^ c #D0D0D0",
" / c #1D1D1D",
" ( c #CECECE",
" ) c #CACACA",
" _ c #C6C6C6",
" ` c #C4C4C4",
" ' c #C2C2C2",
" ] c #C0C0C0",
" [ c #BEBEBE",
" { c #BCBCBC",
" } c #B8B8B8",
" | c #B6B6B6",
".  c #B4B4B4",
".. c #010101",
".X c #B2B2B2",
".o c #B0B0B0",
".O c #AAAAAA",
".+ c #A6A6A6",
".@ c #A4A4A4",
".# c #A2A2A2",
".$ c #A0A0A0",
".% c #9E9E9E",
".& c #9C9C9C",
".* c #9A9A9A",
".= c #989898",
".- c #969696",
".; c #949494",
".: c #929292",
".> c #909090",
"., c #8E8E8E",
".< c #8C8C8C",
".1 c #8A8A8A",
".2 c #888888",
".3 c #868686",
".4 c #848484",
".5 c #828282",
".6 c #808080",
".7 c #7E7E7E",
".8 c #7C7C7C",
".9 c #7A7A7A",
".0 c #767676",
".q c #747474",
".w c #727272",
".e c #6A6A6A",
".r c #686868",
".t c #646464",
".y c #626262",
".u c #5C5C5C",
".i c #545454",
".p c #505050",
".a c #4E4E4E",
".s c #FFFFFF",
".d c #4C4C4C",
".f c #FDFDFD",
".g c #4A4A4A",
".h c #FBFBFB",
".j c #F9F9F9",
".k c #464646",
".l c #F7F7F7",
".z c #F5F5F5",
".x c #424242",
".c c #F3F3F3",
".v c #F1F1F1",
".b c #EFEFEF",
".n c #EDEDED",
".m c #EBEBEB",
".M c #E9E9E9",
".N c #363636",
".B c #E7E7E7",
".V c #343434",
".C c #E5E5E5",
".Z c #E3E3E3",
".A c #E1E1E1",
".S c #2E2E2E",
".D c #DFDFDF",
".F c #DDDDDD",
".G c #DBDBDB",
".H c #282828",
".J c #D9D9D9",
".K c #262626",
".L c #D7D7D7",
".P c #D5D5D5",
".I c #222222",
".U c #D3D3D3",
".Y c #D1D1D1",
".T c #CFCFCF",
".R c #1C1C1C",
".E c #CDCDCD",
".W c #CBCBCB",
".Q c #C9C9C9",
".! c #C7C7C7",
".~ c #C5C5C5",
".^ c #C3C3C3",
"./ c #C1C1C1",
".( c #BFBFBF",
".) c #BDBDBD",
"._ c #BBBBBB",
".` c #B9B9B9",
".' c #B7B7B7",
".] c #B5B5B5",
".[ c #B3B3B3",
/* pixels */
".s.s.s.s.s.s.s.s.s.s.s.s.s.s.s.s.s.s.s.s.s.s.s.s.s.s.s.s.s.s.s.s.s.s.s.s.s.s.s.s.s.s.s.s.s.s.s.s.s.s.s.J.+.5 f.6 }.s.s.s.s.s.s.s",
".s.s.s.s.s.s.s.s.s.s.s.s.s.s.s.s.s.s.s.s.s.s.s.s.s.s.s.s.s.s.s.s.s.s.s.s.s.s.s.s.s.s.s.s.s.s.s m C f f 6.- 7.s ~.H.i 6 m ` [.s.s",
".s.s.s.s.s.s.s.s.s.s.s.s.s.s.s.s.s.s.s.s.s.s.s.s.s.s.s.s.s.s.s.s.s.s.s.s.s.s.s.s.s.s.s.s.s.A.& p u.s.s.s f.s.s 7  .<.J p c.#.s.s",
".s.s.s.s.s.s.s.s.s.s.s.s.s.s.s.s.s.s.s.s.s.s.s.s.s.s.s.s.s.s.s.s.s.s.s.s.s.s.s.s.s.s.s.s N 7 {.s.s.s.s X O.s.s 7.V.A.s.s |.#.s.s",
".s.s.s.s.s.s.s.s.s.s.s.s.s.s.s.s.s.s.s.s.s.s.s.s.s.s.s.s.s.s.s.s.s.s.s.s.s.s.s.s.s.s.s L.8 v.s.s.s.s.s.:.~.s.s.] S.s.s.s |.#.s.s",
".s.s.s.s.s.s.s.s.s.s.s.s.s.s.s.s.s.s.s.s.s.s.s.s.s.s.s.s.s.s.s.s.s.s.s.s.s.s.s.s.s.s.n 5.M.s.s.s.s.s.s.:./ C.s.s v.v.s.s R 5.B.s",
".s.s.s.s.s.s.s.s.s.s.s.s.s.s.s.s.s.s.s.s.s.s.s.s.s.s.s.s.s.s.s.s.s.s.s.s.s.s.s.s.s.C 6.c.s.s.s.s x.].s.~ ' 0.s.s 7.<.s.s +.s f.s",
".s.s.s.s.s.s.s.s.s.s.s.s.s.s.s.s.s.s.s.s x.P ' f f f f $.P.P.P.P.P.L.s.s.s.j.P.P.; w.m.s.s.s.s.s Y.8.s.s I 0.s.s o q.h.s.s.s.&._",
".s.s.s.s.s.s.s.s.s.s.s.s.s.s.s.s.s.s b.8 7 4.-.s.s.s.s.' 4 4 4 4 4 4.8.8.8 7 4 4 `.s.s.s.s.s.s ~ 3.s.s.s I 0.s.s H Z.C.s.s.s Q.7",
".s.s.s.s.s.s.s.s.s.s.s.s.s.s.s.s.s.m 5.G.D.s.s.s.s.s.s.s.s.s.s.s.s.f.G.G.G I.s.s.Z.<.s.v S.s.s +.o.s.s.s I 0.s.s.s w.C.s.s.s.u /",
".s.s.s.s.s.s.s.s.s.s.s.s.s.s.s.s.h.8.D.s.s.s.s.s.s.s.s.s.s.s.s.s.s.s.s.s.s.s.s.s 9 U.s a *.s.s E.6.s.s.s I 0.s.s.s w.C.s.s.+.w.4",
".s.s.s.s.s.s.s.s.s.s.s.s.s.s.s S 7.L.( R.s.s.s.s.s.s.s.s.n.B.s.s.s.s.s.s.s.s.s m.8 H.s.).H.z.s.s f.s.s.s F =.s.s.s w.p ;.Y.! 3./",
".s.s.s.s.s.s.s.s.s.s.s.s.s.s.s.9 R M p.e.s.s.s.s.s.s.s.s.` %.s.s.s.s.s.s.s.s.s ~.3.s.s.s.t.c.s.s | $.s.s.s.s.s.s.s w ].4.1.K.'.s",
".s.s.s.s.s.s.s.s.s.s.s.s.s S.9.O 8 -.+.e.s.s.s.s.s.s.s.s.` %.s.s.s.s.s.s.s.s.s ~.3.s.s.s > _.s.s.z.k.m.s.s.s.s.s.s w.2.].h.v.s.s",
".s.s.s.s.s.s.s.s.s.s.s.s.s.9.0.#.F 0 !.e.s.s.s.s.s.s.s.s.` %.s.s.s.s.s.s.s.s.s ~.3.s.s.s.s f.s.s z.t._.s.s.s.s.s.s w B.s.s.s.s.s",
".s.s.s.s.s.s.s.s.s.s.s.s u.3 ].s v s C.e.s.s.s.s.s.s.s.s k.f.s.s.s.s.s.s.s.s.s ~ f m.s.s.s B.A.s.s [.*.s.s.s.s !.A 8.m.s.s.s.s.s",
".s.s.s.s.s.s.s.s.s.s.s ! W._.s.s v s C y.f.s.s.s.s.s.s.s.s.s.s.s.s.s.s.s.s.s.s V o.y.o k.s 7 G k.s.s.Q.s.s.s.s ~ e R.s.s.s.s.s.s",
".s.s.s.s.s.s.s.s.s.s.s 5.=.s.s.s v s.s ; '.s.s.s.s.s.s.s.s.s.s.s.s.s.s.s.s.s.s.s.s Y T.M.s.X   k.s.s.s.s.s.s V 6.6.s.s.s.s.s.s.s",
".s.s.s.s.s.s.s.s.s.s b.p L.s.s.s v s.s L.0.s.s.s.s.s.s.s x > f f., x.s.s.s.s.s.s.s.s r.M.s S.d.6 x.s.s.s.s.l.4 Y.s.s.s.s.s.s.s.s",
".s.s.s.s.s.s.s.s.s.s.w H.s.s.s.s v s.s.s f.s.s.s.s.s.s.s >.!.s.s ).2.(.s.s.s.s.s.s.s r.@.s.s.s...o.s.s.s N j ^.s.s.s.s.s.s.s.s.s",
".s.s.s.s.s.s.s.s.s ) :.j.s.s.s.s v s.s.s '.-.s.s.s.s.s., P f 3.Z.Z ..V ].Z.Z.v.s.s.j ].K f f f n.C.2.s.s.Y.e m.s.s.s.s.s.s.s.s.s",
" <.>.s.s.s.s.s.s.s f.s.s.s.s.s.s v s.s.s V 6 F.s.s.s K.7.z.s.U.q.q q <.S.q.q 6 < < t.x.d.s.s.s.8 ~ G < <.1.s.s.s.s.s.s.s.s.s.s.s",
" c d f.'.M.s.s.j -.!.s.s.s.s.s.s I 0.s.s.s <.E.s.s.s.^.;.s.s.s.s.s z.E ~.s.s.B.E a.[.M i V.s.s +.x.E.E.E m.s.s.s.s.s.s.s.s.s.s.s",
" f.s.s.- D.Z.s -./.s.s.s.s.s.s.P 4.s.s.s.%.k.E.s.s.s.^.;.s.s.s.s.s.s.s.s.s.s.s.s 9 U.s.) *.s.s +.o.s.s.s.s.s.s.s.s.s.s.s.s.s.s.s",
".S &.s z 8 < B.!.s.s.s.s.s.s.s *.).s z ( u.<.g.s.s.s u.b.s.s.s.s.s.s.s.s.s.s.s.s 9 U.s.).N.L.s +.o.s.s.s.s.s.s.s.s.s.s.s.s.s.s.s",
" Q P q q n y./.s.s.s.s.s.s.s + ..s.s &.1.Z.s f.s.s.s f.s.s.s.s.s.s.s.s.s.s.s.s.s 9 U.s.) * f.s +.o.s.s.s.s.s.s.s.s.s.s.s.s.s.s.s",
".s.m L L L.j.s.s.s.s.s.s.s.) *.s.f * [.s.s.s f.s.s.D 9.s.s.s.s.s.s.s.s.s.s.s.s.s 9 U.s.) * f.s +.o.s.s.s.s.s.s.s.s.s.s.s.s.s.s.s",
".s.s.s.s.s.s.s.s.s.s.s.s.s.] #.s.& {.s.s.s.s f.s.s q L.s.s.s.s.s.s.s.s.s.s.s.s.s 9 U.s.) * f.s +.o.s.s.s.s.s.s.s.s.s.s.s.s.s.s.s",
".s.s.s.s.s.s.s.s.s.s.s.s.s.] #.s f.s.s.s.s.s.T.2.s.z.y.s.s.s.s.s.s.s.s.s.s.s.s.s 9 U.s x.r.a.s +.o.s.s.s.s.s.s.s.s.s.s.s.s.s.s.s",
".s.s.s.s.s.s.s.s.s.s.s.s.s.] #.s f.s.s.s.s.s.J 6.s.s * {.s.s.s.s.s.s.s.s.s.s.s.s 9 U.s.s.~.i.s U 9.s.s.s.s.s.s.s.s.s.s.s.s.s.s.s",
".s.s.s.s.s.s.s.s.s.s.s.s.s.] #.s.z 9 F.s.s.s k.6.J.s Q 2.j.s.s.s.s.s.s.s.s.s.s.s.@ c.s.s.s q.Z.s.1.E.s.s.s.s.s.s.s.s.s.s.s.s.s.s",
".s.s.s.s.s.s.s.s.s.s.s.s.s H.0 , k.$ }.s.s.s.s ! 3 k.s.E.< z.s.s.s.s.s.s.s.s.s.s.s # g C.s . @.f z.1.Y.s.s.s.s.s.s.s.s.s.s.s.s.s",
".s.s.s.s.s.s.s.s.s.s.s.s.s.s.s B r 1.Y.s.s.s.s.s.D.5.z.s ~.I.l.s.s.s.s.s.s.s.s.s.s.s.# J.@ A q.q +.s h.W.s.s.s.s.s.s.s.s.s.s.s.s",
".s.s.s.s.s.s.s.s.s.s.s.s.s.s.s H.  ^.s.s.s.s.s.s.s.L g l l.R.l.s.s.s.s.s.s.s.s.s.s.s.s._. . .C.C.o l.= !.s.s.s.s.s.s.s.s.s.s.s.s"
};
