/* XPM */
static char *lepel-r[] = {
/* width height ncolors chars_per_pixel */
"64 44 115 2",
/* colors */
"   c #000000",
" . c #B1B1B1",
" X c #AFAFAF",
" o c #ABABAB",
" O c #A5A5A5",
" + c #A1A1A1",
" @ c #9D9D9D",
" # c #9B9B9B",
" $ c #999999",
" % c #979797",
" & c #959595",
" * c #919191",
" = c #8D8D8D",
" - c #878787",
" ; c #858585",
" : c #838383",
" > c #818181",
" , c #7D7D7D",
" < c #7B7B7B",
" 1 c #777777",
" 2 c #717171",
" 3 c #6F6F6F",
" 4 c #676767",
" 5 c #656565",
" 6 c #5F5F5F",
" 7 c #5D5D5D",
" 8 c #595959",
" 9 c #535353",
" 0 c #4F4F4F",
" q c #FEFEFE",
" w c #FCFCFC",
" e c #F6F6F6",
" r c #F4F4F4",
" t c #3F3F3F",
" y c #3B3B3B",
" u c #ECECEC",
" i c #EAEAEA",
" p c #373737",
" a c #353535",
" s c #333333",
" d c #313131",
" f c #E2E2E2",
" g c #E0E0E0",
" h c #2B2B2B",
" j c #292929",
" k c #272727",
" l c #D8D8D8",
" z c #D4D4D4",
" x c #212121",
" c c #1F1F1F",
" v c #D0D0D0",
" b c #CCCCCC",
" n c #CACACA",
" m c #C8C8C8",
" M c #151515",
" N c #C4C4C4",
" B c #C0C0C0",
" V c #0D0D0D",
" C c #0B0B0B",
" Z c #010101",
" A c #B0B0B0",
" S c #ACACAC",
" D c #AAAAAA",
" F c #A6A6A6",
" G c #A2A2A2",
" H c #A0A0A0",
" J c #9C9C9C",
" K c #9A9A9A",
" L c #989898",
" P c #969696",
" I c #8E8E8E",
" U c #868686",
" Y c #848484",
" T c #828282",
" R c #808080",
" E c #7A7A7A",
" W c #787878",
" Q c #727272",
" ! c #707070",
" ~ c #6E6E6E",
" ^ c #6A6A6A",
" / c #686868",
" ( c #666666",
" ) c #646464",
" _ c #626262",
" ` c #5E5E5E",
" ' c #5A5A5A",
" ] c #545454",
" [ c #505050",
" { c #FFFFFF",
" } c #FDFDFD",
" | c #F5F5F5",
".  c #3C3C3C",
".. c #EBEBEB",
".X c #E9E9E9",
".o c #363636",
".O c #343434",
".+ c #323232",
".@ c #E1E1E1",
".# c #DFDFDF",
".$ c #2C2C2C",
".% c #2A2A2A",
".& c #282828",
".* c #D9D9D9",
".= c #D7D7D7",
".- c #D5D5D5",
".; c #D3D3D3",
".: c #1E1E1E",
".> c #CDCDCD",
"., c #CBCBCB",
".< c #C9C9C9",
".1 c #161616",
".2 c #141414",
".3 c #C3C3C3",
".4 c #0C0C0C",
/* pixels */
" { { { { { { { { { { { { { { { { { { { { { { { { { { { { { { { { { { { { { { { { { { { { { { { { { { { { { { { q b b b b.= { { {",
" { { { { { { { { { { { { { { { { { { { { { { { { { { { { { { { { { { { { { { { { { { { { { { { { { { { { {.- $ %.1 ( ( 5 x $ l {",
" { { { { { { { { { { { { { { { { { { { { { { { { { { { { { { { { { { { { { { { { { { { { { { { { { { + ( ( < $ $ X { { q $ 8 @ {",
" { { { { { { { { { { { { { { { { { { { { { { { { { { { { { { { { { { { { { { { { { { { { { { { { { o.2 F b.@ { { { { { { { & @ {",
" { { { { { { { { { { { { { { { { { { { { { { { { { { { { { { { { { { { { { { { { { { { { { { g n C - { { { { { { { { { { { { _ v",
" { { { { { { { { { { { { { { { { { { { { { { { { { { { { { { { { { { { { { { { { { { { { {.- y Z U { { { { { { { { { { { {.- y v",
" { { { { { { { { { { { { { { { { { { { { { { { { { { { { { { { { { { { { { { { { { { { {.#.  ` K { { { { { { { { { { { { { & ` u",
" { { { { { { { { { { { { { { { { { { { { { { { { { { { { { { { { { { { { { { { { { { { }.& ].. { { { { { { { { { { o s.* { & @ {",
" { { { { { { { { { { { { { { { { { { { { { { { { { { { { { { { { { { { { { { { { { { {.;.o { { { { { { { { { { { m.1.O.* m.1 . {",
" { { { { { { { { { { { { { { { { { { { { { { { { { { { { { { { { { { { { { { { { { { { d - { { { { { { { { { { q I F { } 1 ^ { {",
" { { { { { { { { { { { { { { { { { { { { { { { { { { { { { { { { { { { { { { { { { { { s { { { { { { { { { { { R p { { R x N { {",
" { { { { { { { { { { { { { { { { { { { { { { { { { { { { { { { { { { { { { { { { { { q s { { { { { { { { { { > V.= D.+ V l { { {",
" { { { { { { { { { { { { { { { { { { { { { { { { { { { { { { { { { { { { { { { { { i 0.$ { { { { { {.#.,., =.O l H.1.O.* { { { {",
" { { { { { { { { { { { { { { { { { { { { { { { { { { { { { { { { { { { { { { { q L ' t f { { { { { { G 4 4 F B P.1 F { { { { { {",
" { { { { { { { { { { { { { { { { { { { { { { { { { { { { { { { { { { { { { { + )   t l { { { { { { { { } 5 5 k , A { { { { { { {",
" { { { { { { { { { { { { { { { { { { { { { { { { { { { { { { { { { { { {.;.+ M F.> f q 8 s s s s s s s a.>.>.> e { { { { { { { {",
" { { { { { { { { { { { { { { { { { { { { { { { { { { { { { { { { { {.#.< C - { q.,., 3.o { { { { { { { { { { { { { { { { { { { {",
" { { { { { { { { { { { { { { { { { { { { { { { { { { { { { { { { {.- E 4 - { B %  .% N { { { { { { { { { { { { { { { { { { { { {",
" { { { { { { { { { { { { { { { { { { { { { { { { { { { { { { { {.# <.= { { { ) , K.3 { { { { { { { { { { { { { { { { { { { { { {",
" { { { { { { { { { { { { { { { { { { { { { { { { { { { { { { q 8 9.@ { { z s * | { { { { { { { { { { { { { { { { { { { { { { { {",
" { { { { { { { { { { { { { { { { { { { { { { { { { { { { r., 3.o { {.# n ` { { { { { { { { { { { { { { { { { { { { { { { { { { {",
" { { { { { { { { { { { { { { { { { { { { { { { { { { { q I 4.3 { {.- E / { { { { { { { { { { { { { { { { { { { { { { { { { { { {",
" { { { { { { { { { { { { { { { { { { { { { { { { { { { : X { { {.# <.= { { { { { { { { { { { { { { { { { { { { { { { { { { { { {",
" { { { { { { { { { { { { { { { { { { { { { { { { { o s A { { q w 9.@ { { { { { { { { { { { { { { { { { { { { { { { { { { { { { {",
" { { { { { { { { { { { { { { { { { { { { { { { z o a A { { { ).$ { { { { { { { { { { { { { { { { { { { { { { { { { { { { { { { {",
" { { { { { { { { { { { { { { { { { { { { { { B 2 - { { {.X % E f { { { { { { { { { { { { { { { { { { { { { { { { { { { { { { { {",
" { { { { { { { { { { { { { { { { { { { { { B ; u { { { T 3 # l { { { { { { { { { { { { { { { { { { { { { { { { { { { { { { { { {",
" { { { { { { { { { { { { { { { { { { { { z c # { { { q.O l { { { { { { { { { { { { { { { { { { { { { { { { { { { { { { { { { { {",
" { { { { { { { { { { { { { { { { { {.#.< ` { { { {.X ! l { { { { { { { { { { { { { { { { { { { { { { { { { { { { { { { { { { { {",
" { { { { { { { { { { { { { { { { i %.  ] { { { { i Y N { { { { { { { { { { { { { { { { { { { { { { { { { { { { { { { { { { { { {",
" { { { { { { { { { { { { { { { T 3 # #.. { { { T 3 N { { { { { { { { { { { { { { { { { { { { { { { { { { { { { { { { { { { { { {",
" { { { { { { { { { { { { { q :.4 l { { { { q : A l { { { { { { { { { { { { { { { { { { { { { { { { { { { { { { { { { { { { { { {",
" { { { { { { { { { { { z n I X { { { { { r W K { { { { { { { { { { { { { { { { { { { { { { { { { { { { { { { { { { { { { { { { {",
" { { { { { { { { {.- % 2 / O { { { { { q = /.3 { { { { { { { { { { { { { { { { { { { { { { { { { { { { { { { { { { { { { { { { {",
" { { { { { { { { g.  7.. { { { { { { { : A { { { { { { { { { { { { { { { { { { { { { { { { { { { { { { { { { { { { { { { { { { {",
" { { { { { q } 8 j ] u { { { { { { } : A { { { { { { { { { { { { { { { { { { { { { { { { { { { { { { { { { { { { { { { { { { { {",
" { { { { n I a a { { { { { { { z S a X { { { { { { { { { { { { { { { { { { { { { { { { { { { { { { { { { { { { { { { { { { { { {",
" { { { S M O { { { { { { { { B.: - { { { { { { { { { { { { { { { { { { { { { { { { { { { { { { { { { { { { { { { { { { { { { { {",
" { { { s X { { { { { { { { B.& , { { { { { { { { { { { { { { { { { { { { { { { { { { { { { { { { { { { { { { { { { { { { { { { {",
" { { { s { { { { { { q } z c , | { { { { { { { { { { { { { { { { { { { { { { { { { { { { { { { { { { { { { { { { { { { { { { { {",
" { { { ` z { { { {.X [ h 6 { { { { { { { { { { { { { { { { { { { { { { { { { { { { { { { { { { { { { { { { { { { { { { { { { { {",
" { { { { Q P P i i ' t.@ { { { { { { { { { { { { { { { { { { { { { { { { { { { { { { { { { { { { { { { { { { { { { { { { { { { {",
" { { { {.. J J ~ 0 t l { { { { { { { { { { { { { { { { { { { { { { { { { { { { { { { { { { { { { { { { { { { { { { { { { { { { {",
" { { { { { { { s   4 { { { { { { { { { { { { { { { { { { { { { { { { { { { { { { { { { { { { { { { { { { { { { { { { { { { { { {"
};
