/* XPM */
static char *lepel-r[] = {
/* width height ncolors chars_per_pixel */
"64 46 181 2",
/* colors */
"   c #000000",
" . c #B1B1B1",
" X c #ADADAD",
" o c #ABABAB",
" O c #A9A9A9",
" + c #A7A7A7",
" @ c #A5A5A5",
" # c #A3A3A3",
" $ c #A1A1A1",
" % c #9F9F9F",
" & c #9D9D9D",
" * c #9B9B9B",
" = c #999999",
" - c #979797",
" ; c #939393",
" : c #919191",
" > c #8D8D8D",
" , c #8B8B8B",
" < c #898989",
" 1 c #878787",
" 2 c #858585",
" 3 c #818181",
" 4 c #7F7F7F",
" 5 c #7B7B7B",
" 6 c #797979",
" 7 c #777777",
" 8 c #757575",
" 9 c #737373",
" 0 c #6F6F6F",
" q c #6D6D6D",
" w c #6B6B6B",
" e c #696969",
" r c #656565",
" t c #616161",
" y c #5B5B5B",
" u c #595959",
" i c #555555",
" p c #4F4F4F",
" a c #FEFEFE",
" s c #4B4B4B",
" d c #FCFCFC",
" f c #FAFAFA",
" g c #474747",
" h c #454545",
" j c #F6F6F6",
" k c #F2F2F2",
" l c #F0F0F0",
" z c #EEEEEE",
" x c #3B3B3B",
" c c #ECECEC",
" v c #EAEAEA",
" b c #373737",
" n c #E8E8E8",
" m c #353535",
" M c #E6E6E6",
" N c #333333",
" B c #E4E4E4",
" V c #313131",
" C c #E0E0E0",
" Z c #2D2D2D",
" A c #DEDEDE",
" S c #2B2B2B",
" D c #DCDCDC",
" F c #DADADA",
" G c #272727",
" H c #D8D8D8",
" J c #252525",
" K c #232323",
" L c #D4D4D4",
" P c #1F1F1F",
" I c #D0D0D0",
" U c #1D1D1D",
" Y c #CECECE",
" T c #CCCCCC",
" R c #191919",
" E c #CACACA",
" W c #C8C8C8",
" Q c #151515",
" ! c #C6C6C6",
" ~ c #131313",
" ^ c #111111",
" / c #C2C2C2",
" ( c #C0C0C0",
" ) c #0D0D0D",
" _ c #BCBCBC",
" ` c #090909",
" ' c #BABABA",
" ] c #B8B8B8",
" [ c #050505",
" { c #B6B6B6",
" } c #B4B4B4",
" | c #B2B2B2",
".  c #AEAEAE",
".. c #ACACAC",
".X c #A6A6A6",
".o c #A2A2A2",
".O c #A0A0A0",
".+ c #9E9E9E",
".@ c #9C9C9C",
".# c #9A9A9A",
".$ c #969696",
".% c #949494",
".& c #929292",
".* c #8C8C8C",
".= c #868686",
".- c #848484",
".; c #828282",
".: c #808080",
".> c #7E7E7E",
"., c #7C7C7C",
".< c #767676",
".1 c #747474",
".2 c #707070",
".3 c #6E6E6E",
".4 c #6A6A6A",
".5 c #686868",
".6 c #666666",
".7 c #646464",
".8 c #626262",
".9 c #606060",
".0 c #5E5E5E",
".q c #5C5C5C",
".w c #5A5A5A",
".e c #565656",
".r c #525252",
".t c #4E4E4E",
".y c #FFFFFF",
".u c #4C4C4C",
".i c #FDFDFD",
".p c #4A4A4A",
".a c #FBFBFB",
".s c #464646",
".d c #F7F7F7",
".f c #444444",
".g c #F5F5F5",
".h c #424242",
".j c #F3F3F3",
".k c #3E3E3E",
".l c #EFEFEF",
".z c #EDEDED",
".x c #3A3A3A",
".c c #EBEBEB",
".v c #383838",
".b c #E9E9E9",
".n c #363636",
".m c #E7E7E7",
".M c #343434",
".N c #E5E5E5",
".B c #323232",
".V c #E3E3E3",
".C c #E1E1E1",
".Z c #DFDFDF",
".A c #2C2C2C",
".S c #DDDDDD",
".D c #DBDBDB",
".F c #282828",
".G c #D9D9D9",
".H c #262626",
".J c #D7D7D7",
".K c #242424",
".L c #222222",
".P c #202020",
".I c #D1D1D1",
".U c #CFCFCF",
".Y c #1C1C1C",
".T c #CDCDCD",
".R c #CBCBCB",
".E c #C9C9C9",
".W c #161616",
".Q c #C5C5C5",
".! c #121212",
".~ c #C1C1C1",
".^ c #0E0E0E",
"./ c #BFBFBF",
".( c #BDBDBD",
".) c #0A0A0A",
"._ c #BBBBBB",
".` c #B9B9B9",
".' c #B7B7B7",
".] c #040404",
".[ c #B5B5B5",
/* pixels */
".y.y.y.y.y.y.y.y.y.y.y.y.y.y.y.y.y.y.y.y.y.y.y.y.y.y.y.y.y.y.y.y.y.y.y.y.y.y.y.y.y.y.y.y.y.y.y.y.y.y.y.y.y j F F h P J J.W 5 F f",
".y.y.y.y.y.y.y.y.y.y.y.y.y.y.y.y.y.y.y.y.y.y.y.y.y.y.y.y.y.y.y.y.y.y.y.y.y.y.y.y.y.y.y.y.y.y.y.y.y.y Y } }.# s s s.C.y.y } s.W.D",
".y.y.y.y.y.y.y.y.y.y.y.y.y.y.y.y.y.y.y.y.y.y.y.y.y.y.y.y.y.y.y.y.y.y.y.y.y.y.y.y.y.y.y.y.y.y.y.y.y ! V.w.2 ;.y.y.y.y.y.y.y.y.p.D",
".y.y.y.y.y.y.y.y.y.y.y.y.y.y.y.y.y.y.y.y.y.y.y.y.y.y.y.y.y.y.y.y.y.y.y.y.y.y.y.y.y.y.y.y.y.y.y A e.:.$ v.y.y.y.y.y.y.y.y.y.y } 0",
".y.y.y.y.y.y.y.y.y.y.y.y.y.y.y.y.y.y.y.y.y.y.y.y.y.y.y.y.y.y.y.y.y.y.y.y.y.y.y.y.y.y.y.y.y.y.r m.f A.y.y.y.y.y.y.y.y.y.y.y.y.y.K",
".y.y.y.y.y.y.y.y.y.y.y.y.y.y.y.y.y.y.y.y.y.y.y.y.y.y.y.y.y.y.y.y.y.y.y.y.y.y.y.y.y.y.y.y.a p `.n.c.y.y.y.y.y.y.y.y.y.y.y.y.y.9.)",
".y.y.y.y.y.y.y.y.y.y.y.y.y.y.y.y.y.y.y.y.y.y.y.y.y.y.y.y.y.y.y.y.y.y.y.y.y.y.y.y.y.y.y v.t.L.l.y.y.y.y.y.y.y.y.y.y.y L.Z.y.y.p.D",
".y.y.y.y.y.y.y.y.y.y.y.y.y.y.y.y.y.y.y.y.y.y.y.y.y.y.y.y.y.y.y.y.y.y.y.y.y.y.y.y.y.y.y.-.M H.y.y.y.y.y.y.y.y.y.y.y._.] h.y.I.B.D",
".y.y.y.y.y.y.y.y.y.y.y.y.y.y.y.y.y.y.y.y.y.y.y.y.y.y.y.y.y.y.y.y.y.y.y.y.y.y.y.y.y.y.J.s $.y.y.y.y.y.y.y.y.y.y.y.y S.1.@.y 0 i c",
".y.y.y.y.y.y.y.y.y.y.y.y.y.y.y.y.y.y.y.y.y.y.y.y.y.y.y.y.y.y.y.y.y.y.y.y.y.y.y.y.y.y O.u.D.y.y.y.y.y.y.y.y.y.y.y.% ;.i.y.( S.[.y",
".y.y.y.y.y.y.y.y.y.y.y.y.y.y.y.y.y.y.y.y.y.y.y.y.y.y.y.y.y.y.y.y.y.y.y.y.y.y.y.y.y.y O 5.y.y.y.y.y.y.y.y.y.y.y - ~ L.y E.K.3.z.y",
".y.y.y.y.y.y.y.y.y.y.y.y.y.y.y.y.y.y.y.y.y.y.y.y.y.y.y.y.y.y.y.y.y.y.y.y.y.y.y.y.y d.O 5.y.y.y.y.y.y.y.y.y d.@ ~.o.l U Q e.g.y.y",
".y.y.y.y.y.y.y.y.y.y.y.y.y.y.y.y.y.y.y.y.y.y.y.y.y.y.y.y.y.y.y.y.y.y.y.y.y.y.y.y.i @ ^.$.y.y.y.y.y.y.S T T + N $ D K.B.4.y.y.y.y",
".y.y.y.y.y.y.y.y.y.y.y.y.y.y.y.y.y.y.y.y.y.y.y.y.y.y.y.y.y.y.y.y.y.y.y.y.y.y.y _ % ^ :.y.y.y.y.y.y.y.& u u 3 D.X.M.p.a.y.y.y.y.y",
".y.y.y.y.y.y.y.y.y.y.y.y.y.y.y.y.y.y.y.y.y.y.y.y.y.y.y.y.y.y.y.y.y.y.y.y.y ! 3.P [.$.y.y.y.y.y.y.y.y.y.y 1 3 p.f.>.b.y.y.y.y.y.y",
".y.y.y.y.y.y.y.y.y.y.y.y.y.y.y.y.y.y.y.y.y.y.y.y.y.y.y.y.y.y.y.y.y.y.y B.q.B.8 # +.y W.q.q.q.q.q.q.q.q.q % # # L.y.y.y.y.y.y.y.y",
".y.y.y.y.y.y.y.y.y.y.y.y.y.y.y.y.y.y.y.y.y.y.y.y.y.y.y.y.y.y.y.y.y.y d Z.k.E v.y.y.G.K t.E.E.E.E.E.E.E.E d.y.y.y.y.y.y.y.y.y.y.y",
".y.y.y.y.y.y.y.y.y.y.y.y.y.y.y.y.y.y.y.y.y.y.y.y.y.y.y.y.y.y.y.y.j.q J.v.j.g v g.! s z j.y.y.y.y.y.y.y.y.y.y.y.y.y.y.y.y.y.y.y.y",
".y.y.y.y.y.y.y.y.y.y.y.y.y.y.y.y.y.y.y.y.y.y.y.y.y.y.y.y.y.y.y M 8 W.y.y.y , K.x.h.y.y.y.y.y.y.y.y.y.y.y.y.y.y.y.y.y.y.y.y.y.y.y",
".y.y.y.y.y.y.y.y.y.y.y.y.y.y.y.y.y.y.y.y.y.y.y.y.y.y.y.y.y k %.- _.y.y.l %.; (.y.y.y.y.y.y.y.y.y.y.y.y.y.y.y.y.y.y.y.y.y.y.y.y.y",
".y.y.y.y.y.y.y.y.y.y.y.y.y.y.y.y.y.y.y.y.y.y.y.y.y.y.y.y.y w.H.`.y.y.i., 2.(.y.y.y.y.y.y.y.y.y.y.y.y.y.y.y.y.y.y.y.y.y.y.y.y.y.y",
".y.y.y.y.y.y.y.y.y.y.y.y.y.y.y.y.y.y.y.y.y.y.y.y.y.y.y < i O /.y.y.-.e ].y.y.y.y.y.y.y.y.y.y.y.y.y.y.y.y.y.y.y.y.y.y.y.y.y.y.y.y",
".y.y.y.y.y.y.y.y.y.y.y.y.y.y.y.y.y.y.y.y.y.y.y.y.y.y > % I a.y.y 1 #.I.y.y.y.y.y.y.y.y.y.y.y.y.y.y.y.y.y.y.y.y.y.y.y.y.y.y.y.y.y",
".y.y.y.y.y.y.y.y.y.y.y.y.y.y.y.y.y.y.y.y.y.y.y d.V - - d.y.y.d : & d.y.y.y.y.y.y.y.y.y.y.y.y.y.y.y.y.y.y.y.y.y.y.y.y.y.y.y.y.y.y",
".y.y.y.y.y.y.y.y.y.y.y.y.y.y.y.y.y.y.y.y.y.y.y.. ^ >.y.y.y./ * ;.y.y.y.y.y.y.y.y.y.y.y.y.y.y.y.y.y.y.y.y.y.y.y.y.y.y.y.y.y.y.y.y",
".y.y.y.y.y.y.y.y.y.y.y.y.y.y.y.y.y.y.y.y.y._ =.5 >.y.y.y.y ^ :.y.y.y.y.y.y.y.y.y.y.y.y.y.y.y.y.y.y.y.y.y.y.y.y.y.y.y.y.y.y.y.y.y",
".y.y.y.y.y.y.y.y.y.y.y.y.y.y.y.y.y.y.y.y {.-.*.a.y.y.y.+ 9 *.y.y.y.y.y.y.y.y.y.y.y.y.y.y.y.y.y.y.y.y.y.y.y.y.y.y.y.y.y.y.y.y.y.y",
".y.y.y.y.y.y.y.y.y.y.y.y.y.y.y.y.y.y.y.(.;.N.y.y.y ].t ; . a.y.y.y.y.y.y.y.y.y.y.y.y.y.y.y.y.y.y.y.y.y.y.y.y.y.y.y.y.y.y.y.y.y.y",
".y.y.y.y.y.y.y.y.y.y.y.y.y.y.y.y.y.y Y R 2.y.y.y.y =.<.j.y.y.y.y.y.y.y.y.y.y.y.y.y.y.y.y.y.y.y.y.y.y.y.y.y.y.y.y.y.y.y.y.y.y.y.y",
".y.y.y.y.y.y.y.y.y.y.y.y.y.y.y.y.V.T.e d a.y.y.a X 5 a.y.y.y.y.y.y.y.y.y.y.y.y.y.y.y.y.y.y.y.y.y.y.y.y.y.y.y.y.y.y.y.y.y.y.y.y.y",
".y.y.y.y.y.y.y.y.y.y.y.y.y.y.D.' G.r.y.y.y.y.y.  7.y.y.y.y.y.y.y.y.y.y.y.y.y.y.y.y.y.y.y.y.y.y.y.y.y.y.y.y.y.y.y.y.y.y.y.y.y.y.y",
".y.y.y.y.y.y.y.y.y.y.y.y.b.&.: q q.g.y.y.y {.&.>.y.y.y.y.y.y.y.y.y.y.y.y.y.y.y.y.y.y.y.y.y.y.y.y.y.y.y.y.y.y.y.y.y.y.y.y.y.y.y.y",
".y.y.y.y.y.y.y.y.y.y.y.d.e N W.y.y.y.y.y |.= ;.a.y.y.y.y.y.y.y.y.y.y.y.y.y.y.y.y.y.y.y.y.y.y.y.y.y.y.y.y.y.y.y.y.y.y.y.y.y.y.y.y",
".y.y.y.y.y.y.y.y.y.y.y.0 ].I.y.y.y.y.y '.;.m.y.y.y.y.y.y.y.y.y.y.y.y.y.y.y.y.y.y.y.y.y.y.y.y.y.y.y.y.y.y.y.y.y.y.y.y.y.y.y.y.y.y",
".y.y.y.y.y.y a.a - J J.U.y.y.y.y.y.y E R 1.y.y.y.y.y.y.y.y.y.y.y.y.y.y.y.y.y.y.y.y.y.y.y.y.y.y.y.y.y.y.y.y.y.y.y.y.y.y.y.y.y.y.y",
".y.y.y.y.y a . ) >.y.y.y.y.y.y.y.y.R.w.y.y.y.y.y.y.y.y.y.y.y.y.y.y.y.y.y.y.y.y.y.y.y.y.y.y.y.y.y.y.y.y.y.y.y.y.y.y.y.y.y.y.y.y.y",
".y.y.y.y.Q o.^ 1.y.y.y.y.y.y.y.y.~.7.y.y.y.y.y.y.y.y.y.y.y.y.y.y.y.y.y.y.y.y.y.y.y.y.y.y.y.y.y.y.y.y.y.y.y.y.y.y.y.y.y.y.y.y.y.y",
".y.y T , J.6.*.y.y.y.y.y.y.y ! , 6 j.y.y.y.y.y.y.y.y.y.y.y.y.y.y.y.y.y.y.y.y.y.y.y.y.y.y.y.y.y.y.y.y.y.y.y.y.y.y.y.y.y.y.y.y.y.y",
" n r.,.#.#.j.y.y.y.y.y.y C r 4.# v.y.y.y.y.y.y.y.y.y.y.y.y.y.y.y.y.y.y.y.y.y.y.y.y.y.y.y.y.y.y.y.y.y.y.y.y.y.y.y.y.y.y.y.y.y.y.y",
" b.v.D.y.y.y.y.y.y.y.y.g N.h.Z.y.y.y.y.y.y.y.y.y.y.y.y.y.y.y.y.y.y.y.y.y.y.y.y.y.y.y.y.y.y.y.y.y.y.y.y.y.y.y.y.y.y.y.y.y.y.y.y.y",
".L.z.y.y.y.y.y.y.y.y.d Z b z.y.y.y.y.y.y.y.y.y.y.y.y.y.y.y.y.y.y.y.y.y.y.y.y.y.y.y.y.y.y.y.y.y.y.y.y.y.y.y.y.y.y.y.y.y.y.y.y.y.y",
" J.y.y.y.y.y.y l.U.U.e x.y.y.y.y.y.y.y.y.y.y.y.y.y.y.y.y.y.y.y.y.y.y.y.y.y.y.y.y.y.y.y.y.y.y.y.y.y.y.y.y.y.y.y.y.y.y.y.y.y.y.y.y",
".8 /.y.y.y.y l 9.F.e.J.y.y.y.y.y.y.y.y.y.y.y.y.y.y.y.y.y.y.y.y.y.y.y.y.y.y.y.y.y.y.y.y.y.y.y.y.y.y.y.y.y.y.y.y.y.y.y.y.y.y.y.y.y",
" c.>.-.- A d q G.`.y.y.y.y.y.y.y.y.y.y.y.y.y.y.y.y.y.y.y.y.y.y.y.y.y.y.y.y.y.y.y.y.y.y.y.y.y.y.y.y.y.y.y.y.y.y.y.y.y.y.y.y.y.y.y",
".y.V $ $.2 y.Y./.y.y.y.y.y.y.y.y.y.y.y.y.y.y.y.y.y.y.y.y.y.y.y.y.y.y.y.y.y.y.y.y.y.y.y.y.y.y.y.y.y.y.y.y.y.y.y.y.y.y.y.y.y.y.y.y",
".y.y.y.y.f  .A.y.y.y.y.y.y.y.y.y.y.y.y.y.y.y.y.y.y.y.y.y.y.y.y.y.y.y.y.y.y.y.y.y.y.y.y.y.y.y.y.y.y.y.y.y.y.y.y.y.y.y.y.y.y.y.y.y"
};
