/* XPM */
static char *maan-r[] = {
/* width height ncolors chars_per_pixel */
"64 64 149 2",
/* colors */
"   c #B1B1B1",
" . c #AFAFAF",
" X c #ADADAD",
" o c #ABABAB",
" O c #A9A9A9",
" + c #A7A7A7",
" @ c #A5A5A5",
" # c #A3A3A3",
" $ c #A1A1A1",
" % c #9F9F9F",
" & c #9D9D9D",
" * c #9B9B9B",
" = c #999999",
" - c #979797",
" ; c #939393",
" : c #919191",
" > c #8D8D8D",
" , c #8B8B8B",
" < c #878787",
" 1 c #7F7F7F",
" 2 c #7D7D7D",
" 3 c #7B7B7B",
" 4 c #797979",
" 5 c #777777",
" 6 c #737373",
" 7 c #717171",
" 8 c #6F6F6F",
" 9 c #6D6D6D",
" 0 c #6B6B6B",
" q c #676767",
" w c #656565",
" e c #5B5B5B",
" r c #595959",
" t c #555555",
" y c #535353",
" u c #FEFEFE",
" i c #FCFCFC",
" p c #494949",
" a c #FAFAFA",
" s c #474747",
" d c #F8F8F8",
" f c #454545",
" g c #F6F6F6",
" h c #F4F4F4",
" j c #414141",
" k c #F2F2F2",
" l c #F0F0F0",
" z c #EEEEEE",
" x c #ECECEC",
" c c #E8E8E8",
" v c #E6E6E6",
" b c #E4E4E4",
" n c #E2E2E2",
" m c #DEDEDE",
" M c #2B2B2B",
" N c #DCDCDC",
" B c #D8D8D8",
" V c #252525",
" C c #D4D4D4",
" Z c #D2D2D2",
" A c #D0D0D0",
" S c #CECECE",
" D c #CCCCCC",
" F c #191919",
" G c #CACACA",
" H c #C8C8C8",
" J c #C6C6C6",
" K c #C4C4C4",
" L c #C2C2C2",
" P c #C0C0C0",
" I c #BEBEBE",
" U c #BCBCBC",
" Y c #BABABA",
" T c #B6B6B6",
" R c #B2B2B2",
" E c #B0B0B0",
" W c #AAAAAA",
" Q c #A6A6A6",
" ! c #A4A4A4",
" ~ c #A2A2A2",
" ^ c #A0A0A0",
" / c #9E9E9E",
" ( c #9C9C9C",
" ) c #9A9A9A",
" _ c #989898",
" ` c #969696",
" ' c #929292",
" ] c #909090",
" [ c #8E8E8E",
" { c #8C8C8C",
" } c #8A8A8A",
" | c #888888",
".  c #868686",
".. c #848484",
".X c #828282",
".o c #808080",
".O c #7C7C7C",
".+ c #787878",
".@ c #767676",
".# c #727272",
".$ c #707070",
".% c #6E6E6E",
".& c #6C6C6C",
".* c #6A6A6A",
".= c #666666",
".- c #646464",
".; c #626262",
".: c #606060",
".> c #5E5E5E",
"., c #585858",
".< c #545454",
".1 c #525252",
".2 c #FFFFFF",
".3 c #4C4C4C",
".4 c #FDFDFD",
".5 c #4A4A4A",
".6 c #FBFBFB",
".7 c #F9F9F9",
".8 c #F7F7F7",
".9 c #F5F5F5",
".0 c #F3F3F3",
".q c #F1F1F1",
".w c #EFEFEF",
".e c #EDEDED",
".r c #EBEBEB",
".t c #E7E7E7",
".y c #E5E5E5",
".u c #E3E3E3",
".i c #E1E1E1",
".p c #DFDFDF",
".a c #DDDDDD",
".s c #DBDBDB",
".d c #D9D9D9",
".f c #D7D7D7",
".g c #D5D5D5",
".h c #D3D3D3",
".j c #202020",
".k c #D1D1D1",
".l c #CFCFCF",
".z c #CDCDCD",
".x c #CBCBCB",
".c c #C9C9C9",
".v c #C5C5C5",
".b c #C3C3C3",
".n c #C1C1C1",
".m c #BFBFBF",
".M c #BBBBBB",
".N c #B9B9B9",
".B c #B3B3B3",
/* pixels */
".2.2.2.2.2.2.2.2.2.2.2.2.2.2.2.2.2.2.2.2.2.2.2.2.2.2.2.2.2.2.2.2 S.j ' I.i.2.2.2.2.2.2.2.2.2.2.2.2.2.2.2.2.2.2.2.2.2.2.2.2.2.2.2",
".2.2.2.2.2.2.2.2.2.2.2.2.2.2.2.2.2.2.2.2.2.2.2.2.2.2.2.2.2.2.2.2.2.m 1 V 1 2 2 J.2.2.2.2.2.2.2.2.2.2.2.2.2.2.2.2.2.2.2.2.2.2.2.2",
".2.2.2.2.2.2.2.2.2.2.2.2.2.2.2.2.2.2.2.2.2.2.2.2.2.2.2.2.2.2.2.2.2.2 u %...b K 3 j 2.7 u.2.2.2.2.2.2.2.2.2.2.2.2.2.2.2.2.2.2.2.2",
".2.2.2.2.2.2.2.2.2.2.2.2.2.2.2.2.2.2.2.2.2.2.2.2.2.2.2.2.2.2.2.2.2.2.2.2 ( !.2.2.2.b s X.2.2.2.2.2.2.2.2.2.2.2.2.2.2.2.2.2.2.2.2",
".2.2.2.2.2.2.2.2.2.2.2.2.2.2.2.2.2.2.2.2.2.2.2.2.2.2.2.2.2.2.2.2.2.2.2.2.2 ^ ^.2.2.2.2 = 5 G.2.2.2.2.2.2.2.2.2.2.2.2.2.2.2.2.2.2",
".2.2.2.2.2.2.2.2.2.2.2.2.2.2.2.2.2.2.2.2.2.2.2.2.2.2.2.2.2.2.2.2.2.2.2.2.2 i ^ @ h.2.2 a G 5.s d.2.2.2.2.2.2.2.2.2.2.2.2.2.2.2.2",
".2.2.2.2.2.2.2.2.2.2.2.2.2.2.2.2.2.2.2.2.2.2.2.2.2.2.2.2.2.2.2.2.2.2.2.2.2.2.2 *.<.x.2.2.2.2 w 6.u.2.2.2.2.2.2.2.2.2.2.2.2.2.2.2",
".2.2.2.2.2.2.2.2.2.2.2.2.2.2.2.2.2.2.2.2.2.2.2.2.2.2.2.2.2.2.2.2.2.2.2.2.2.2.2.2.8.. K.2.2.2.2.g.O.w.2.2.2.2.2.2.2.2.2.2.2.2.2.2",
".2.2.2.2.2.2.2.2.2.2.2.2.2.2.2.2.2.2.2.2.2.2.2.2.2.2.2.2.2.2.2.2.2.2.2.2.2.2.2.2.2 l.O.h.2.2.2.2.i.* h.2.2.2.2.2.2.2.2.2.2.2.2.2",
".2.2.2.2.2.2.2.2.2.2.2.2.2.2.2.2.2.2.2.2.2.2.2.2.2.2.2.2.2.2.2.2.2.2.2.2.2.2.2.2.2.2.2 5.c.2.2.2.2 v.@ n.2.2.2.2.2.2.2.2.2.2.2.2",
".2.2.2.2.2.2.2.2.2.2.2.2.2.2.2.2.2.2.2.2.2.2.2.2.2.2.2.2.2.2.2.2.2.2.2.2.2.2.2.2.2.2.2.9. .v.2.2.2.2 C 4 k.2.2.2.2.2.2.2.2.2.2.2",
".2.2.2.2.2.2.2.2.2.2.2.2.2.2.2.2.2.2.2.2.2.2.2.2.2.2.2.2.2.2.2.2.2.2.2.2.2.2.2.2.2.2.2.2.q 9 n.2.2.2.2 b.*.q.2.2.2.2.2.2.2.2.2.2",
".2.2.2.2.2.2.2.2.2.2.2.2.2.2.2.2.2.2.2.2.2.2.2.2.2.2.2.2.2.2.2.2.2.2.2.2.2.2.2.2.2.2.2.2.2 ) Q.2.2.2.2.2.g.&.2.2.2.2.2.2.2.2.2.2",
".2.2.2.2.2.2.2.2.2.2.2.2.2.2.2.2.2.2.2.2.2.2.2.2.2.2.2.2.2.2.2.2.2.2.2.2.2.2.2.2.2.2.2.2.2.2 $ %.2.2.2.2 z...z.2.2.2.2.2.2.2.2.2",
".2.2.2.2.2.2.2.2.2.2.2.2.2.2.2.2.2.2.2.2.2.2.2.2.2.2.2.2.2.2.2.2.2.2.2.2.2.2.2.2.2.2.2.2.2.2 b q h.2.2.2.2 ^ ~.4.2.2.2.2.2.2.2.2",
".2.2.2.2.2.2.2.2.2.2.2.2.2.2.2.2.2.2.2.2.2.2.2.2.2.2.2.2.2.2.2.2.2.2.2.2.2.2.2.2.2.2.2.2.2.2.2 % $.2.2.2.2.2.1 z.2.2.2.2.2.2.2.2",
".2.2.2.2.2.2.2.2.2.2.2.2.2.2.2.2.2.2.2.2.2.2.2.2.2.2.2.2.2.2.2.2.2.2.2.2.2.2.2.2.2.2.2.2.2.2.2.s 5.e.2.2.2.2.m.X.2.2.2.2.2.2.2.2",
".2.2.2.2.2.2.2.2.2.2.2.2.2.2.2.2.2.2.2.2.2.2.2.2.2.2.2.2.2.2.2.2.2.2.2.2.2.2.2.2.2.2.2.2.2.2.2.2.> n.2.2.2.2.2 t.r.2.2.2.2.2.2.2",
".2.2.2.2.2.2.2.2.2.2.2.2.2.2.2.2.2.2.2.2.2.2.2.2.2.2.2.2.2.2.2.2.2.2.2.2.2.2.2.2.2.2.2.2.2.2.2.2 / ~.2.2.2.2.2.l.#.2.2.2.2.2.2.2",
".2.2.2.2.2.2.2.2.2.2.2.2.2.2.2.2.2.2.2.2.2.2.2.2.2.2.2.2.2.2.2.2.2.2.2.2.2.2.2.2.2.2.2.2.2.2.2.2.2 j.2.2.2.2.2.l.#.2.2.2.2.2.2.2",
".2.2.2.2.2.2.2.2.2.2.2.2.2.2.2.2.2.2.2.2.2.2.2.2.2.2.2.2.2.2.2.2.2.2.2.2.2.2.2.2.2.2.2.2.2.2.2.2.2.z 6.2.2.2.2.f.@ k.2.2.2.2.2.2",
".2.2.2.2.2.2.2.2.2.2.2.2.2.2.2.2.2.2.2.2.2.2.2.2.2.2.2.2.2.2.2.2.2.2.2.2.2.2.2.2.2.2.2.2.2.2.2.2.2.s.=.2.2.2.2.2 >.B.2.2.2.2.2.2",
".2.2.2.2.2.2.2.2.2.2.2.2.2.2.2.2.2.2.2.2.2.2.2.2.2.2.2.2.2.2.2.2.2.2.2.2.2.2.2.2.2.2.2.2.2.2.2.2.2.s.=.2.2.2.2.2 >.B.2.2.2.2.2.2",
".2.2.2.2.2.2.2.2.2.2.2.2.2.2.2.2.2.2.2.2.2.2.2.2.2.2.2.2.2.2.2.2.2.2.2.2.2.2.2.2.2.2.2.2.2.2.2.2.2.s.=.2.2.2.2.2.8 y.9.2.2.2.2.2",
".2.2.2.2.2.2.2.2.2.2.2.2.2.2.2.2.2.2.2.2.2.2.2.2.2.2.2.2.2.2.2.2.2.2.2.2.2.2.2.2.2.2.2.2.2.2.2.2.2.s.=.2.2.2.2.2.2.3 h.2.2.2.2.2",
".2.2.2.2.2.2.2.2.2.2.2.2.2.2.2.2.2.2.2.2.2.2.2.2.2.2.2.2.2.2.2.2.2.2.2.2.2.2.2.2.2.2.2.2.2.2.2.2.2.s.=.2.2.2.2.2.2.3 h.2.2.2.2.2",
".2.2.2.2.2.2.2.2.2.2.2.2.2.2.2.2.2.2.2.2.2.2.2.2.2.2.2.2.2.2.2.2.2.2.2.2.2.2.2.2.2.2.2.2.2.2.2.2.2.s.=.2.2.2.2.2.2.8 p.2.2.2.2.2",
".2.2.2.2.2.2.2.2.2.2.2.2.2.2.2.2.2.2.2.2.2.2.2.2.2.2.2.2.2.2.2.2.2.2.2.2.2.2.2.2.2.2.2.2.2.2.2.2.2 ; X.2.2.2.2.2.2.2 j.2.2.2.2.2",
".2.2.2.2.2.2.2.2.2.2.2.2.2.2.2.2.2.2.2.2.2.2.2.2.2.2.2.2.2.2.2.2.2.2.2.2.2.2.2.2.2.2.2.2.2.2.2.2.2 j.2.2.2.2.2.2.2.2 j.2.2.2.2.2",
".2.2.2.2.2.2.2.2.2.2.2.2.2.2.2.2.2.2.2.2.2.2.2.2.2.2.2.2.2.2.2.2.2.2.2.2.2.2.2.2.2.2.2.2.2.2.2.2.2 j.2.2.2.2.2.2.2.2 j.2.2.2.2.2",
".2.2.2.2.2.2.2.2.2.2.2.2.2.2.2.2.2.2.2.2.2.2.2.2.2.2.2.2.2.2.2.2.2.2.2.2.2.2.2.2.2.2.2.2.2.2.2.2.2 j.2.2.2.2.2.2.2.2 j.2.2.2.2.2",
".2.2.2.2.2.2.2.2.2.2.2.2.2.2.2.2.2.2.2.2.2.2.2.2.2.2.2.2.2.2.2.2.2.2.2.2.2.2.2.2.2.2.2.2.2.2.2.2 <.N.2.2.2.2.2.2.2.2 j.2.2.2.2.2",
".2.2.2.2.2.2.2.2.2.2.2.2.2.2.2.2.2.2.2.2.2.2.2.2.2.2.2.2.2.2.2.2.2.2.2.2.2.2.2.2.2.2.2.2.2.2.2.2.> n.2.2.2.2.2.2.2.2 j.2.2.2.2.2",
".2.2.2.2.2.2.2.2.2.2.2.2.2.2.2.2.2.2.2.2.2.2.2.2.2.2.2.2.2.2.2.2.2.2.2.2.2.2.2.2.2.2.2.2.2.2.2.2.> n.2.2.2.2.2.2.2.2 j.2.2.2.2.2",
".2.2.2.2.2.2.2.2.2.2.2.2.2.2.2.2.2.2.2.2.2.2.2.2.2.2.2.2.2.2.2.2.2.2.2.2.2.2.2.2.2.2.2.2.2.2.2 T : d.2.2.2.2.2.2.2.6 f.2.2.2.2.2",
".2.2.2.2.2.2.2.2.2.2.2.2.2.2.2.2.2.2.2.2.2.2.2.2.2.2.2.2.2.2.2.2.2.2.2.2.2.2.2.2.2.2.2.2.2.2 g >.M.2.2.2.2.2.2.2.2.3 h.2.2.2.2.2",
".2.2.2.2.2.2.2.2.2.2.2.2.2.2.2.2.2.2.2.2.2.2.2.2.2.2.2.2.2.2.2.2.2.2.2.2.2.2.2.2.2.2.2.2.2.2.i.:.2.2.2.2.2.2.2.2.2.3 h.2.2.2.2.2",
".2.2.2.2.2.2.2.2.2.2.2.2.2.2.2.2.2.2.2.2.2.2.2.2.2.2.2.2.2.2.2.2.2.2.2.2.2.2.2.2.2.2.2.2.2.2.; m.2.2.2.2.2.2.2.2 @ &.4.2.2.2.2.2",
".2.2.2.2.2.2.2.2.2.2.2.2.2.2.2.2.2.2.2.2.2.2.2.2.2.2.2.2.2.2.2.2.2.2.2.2.2.2.2.2.2.2.2.2.2 A 7.2.2.2.2.2.2.2.2.2 >.B.2.2.2.2.2.2",
".2.2.2.2.2.2.2.2.2.2.2.2.2.2.2.2.2.2.2.2.2.2.2.2.2.2.2.2.2.2.2.2.2.2.2.2.2.2.2.2.2.2.2.2.2.- N.2.2.2.2.2.2.2.2.2 >.B.2.2.2.2.2.2",
".2.2.2.2.2.2.2.2.2.2.2.2.2.2.2.2.2.2.2.2.2.2.2.2.2.2.2.2.2.2.2.2.2.2.2.2.2.2.2.2.2.2.2.4   _.7.2.2.2.2.2.2.2.2 B 5.q.2.2.2.2.2.2",
".2.2.2.2.2.2.2.2.2.2.2.2.2.2.2.2.2.2.2.2.2.2.2.2.2.2.2.2.2.2.2.2.2.2.2.2.2.2.2.2.2.2.2 E ].2.2.2.2.2.2.2.2.2.2.l.#.2.2.2.2.2.2.2",
".2.2.2.2.2.2.2.2.2.2.2.2.2.2.2.2.2.2.2.2.2.2.2.2.2.2.2.2.2.2.2.2.2.2.2.2.2.2.2.2.2.2.2 j.2.2.2.2.2.2.2.2.2.2.2.O K.2.2.2.2.2.2.2",
".2.0 c.2.2.2.2.2.2.2.2.2.2.2.2.2.2.2.2.2.2.2.2.2.2.2.2.2.2.2.2.2.2.2.2.2.2.2.2.2.2.8.  L.2.2.2.2.2.2.2.2.2.2.w.1.2.2.2.2.2.2.2.2",
".2 o F @ @ x.2.2.2.2.2.2.2.2.2.2.2.2.2.2.2.2.2.2.2.2.2.2.2.2.2.2.2.2.2.2.2.2.2.2 d { Y.2.2.2.2.2.2.2.2.2.2.d.# h.2.2.2.2.2.2.2.2",
".2.2 . M * 8 ;.2.2.2.2.2.2.2.2.2.2.2.2.2.2.2.2.2.2.2.2.2.2.2.2.2.2.2.2.2.2.2.2.2.. U.2.2.2.2.2.2.2.2.2.2.2 ; X.2.2.2.2.2.2.2.2.2",
".2.2 u   -.a X ).u.2.2.2.2.2.2.2.2.2.2.2.2.2.2.2.2.2.2.2.2.2.2.2.2.2.2.2.2 u.i < L.2.2.2.2.2.2.2.2.2.2.2.c.X h.2.2.2.2.2.2.2.2.2",
".2.2.2.2 W `.2 Q.- I.2.2.2.2.2.2.2.2.2.2.2.2.2.2.2.2.2.2.2.2.2.2.2.2.2.2.2 E.:.N.2.2.2.2.2.2.2.2.2.2.2 P.o.2.2.2.2.2.2.2.2.2.2.2",
".2.2.2.2.2 j.2.2 d ,.>.y.2.2.2.2.2.2.2.2.2.2.2.2.2.2.2.2.2.2.2.2.2.2.2 Z.> _.2.2.2.2.2.2.2.2.2.2.2.2.m }.8.2.2.2.2.2.2.2.2.2.2.2",
".2.2.2.2.2.i.$.w.2 g n e j /.s.s k.2.2.2.2.2.2.2.2.2.2.2.2.2.2.2.s.s.-.% n.7.2.2.2.2.2.2.2.2.2.2.2.p 0.9.2.2.2.2.2.2.2.2.2.2.2.2",
".2.2.2.2.2.2.k.X ^.2.2.2.2 ~.=.=.  =.n.2.2.2.2.2.2.2.2.2.2.t = =.=.= N.2.2.2.2.2.2.2.2.2.2.2.2.2.2 & #.2.2.2.2.2.2.2.2.2.2.2.2.2",
".2.2.2.2.2.2.2 S $ [.2.2.2.2.2.2 H + |.,., /.2.2.2.2 N.,., 0 + +.2.2.2.2.2.2.2.2.2.2.2.2.2.2.2.2 ` o.2.2.2.2.2.2.2.2.2.2.2.2.2.2",
".2.2.2.2.2.2.2.2.4 R -.d.2.2.2.2.2.2 g c c ~ j j j j.- c c.e.2.2.2.2.2.2.2.2.2.2.2.2.2.2.2.2.s / W i.2.2.2.2.2.2.2.2.2.2.2.2.2.2",
".2.2.2.2.2.2.2.2.2.2 O.$.N.2.2.2.2.2.2.2.2.2.2.2.2.2.2.2.2.2.2.2.2.2.2.2.2.2.2.2.2.2.2.2.d ; 7 #.2.2.2.2.2.2.2.2.2.2.2.2.2.2.2.2",
".2.2.2.2.2.2.2.2.2.2.2.8 >.1.t.2.2.2.2.2.2.2.2.2.2.2.2.2.2.2.2.2.2.2.2.2.2.2.2.2.2.2.2 z.# X h.2.2.2.2.2.2.2.2.2.2.2.2.2.2.2.2.2",
".2.2.2.2.2.2.2.2.2.2.2.2.7 z r.@.l.7.2.2.2.2.2.2.2.2.2.2.2.2.2.2.2.2.2.2.2.2.2.2.2.w.O.1 h.2.2.2.2.2.2.2.2.2.2.2.2.2.2.2.2.2.2.2",
".2.2.2.2.2.2.2.2.2.2.2.2.2.2.2 G.# } >.f.2.2.2.2.2.2.2.2.2.2.2.2.2.2.2.2.2.2.2.2 ~.. K.2.2.2.2.2.2.2.2.2.2.2.2.2.2.2.2.2.2.2.2.2",
".2.2.2.2.2.2.2.2.2.2.2.2.2.2.2.2.2 U.B.$.3 -.2.2.2.2.2.2.2.2.2.2.2.2.2.2.2 g.3.3 ^ D.2.2.2.2.2.2.2.2.2.2.2.2.2.2.2.2.2.2.2.2.2.2",
".2.2.2.2.2.2.2.2.2.2.2.2.2.2.2.2.2.2.2 d h O j j 2.c.c.c.c.c.c.c.c.c J j j.5 h h.4.2.2.2.2.2.2.2.2.2.2.2.2.2.2.2.2.2.2.2.2.2.2.2",
".2.2.2.2.2.2.2.2.2.2.2.2.2.2.2.2.2.2.2.2.2.2.2.2.b.+.+.+.+.+.+.+.+.+ 3.2.2.2.2.2.2.2.2.2.2.2.2.2.2.2.2.2.2.2.2.2.2.2.2.2.2.2.2.2",
".2.2.2.2.2.2.2.2.2.2.2.2.2.2.2.2.2.2.2.2.2.2.2.2.2.2.2.2.2.2.2.2.2.2.2.2.2.2.2.2.2.2.2.2.2.2.2.2.2.2.2.2.2.2.2.2.2.2.2.2.2.2.2.2",
".2.2.2.2.2.2.2.2.2.2.2.2.2.2.2.2.2.2.2.2.2.2.2.2.2.2.2.2.2.2.2.2.2.2.2.2.2.2.2.2.2.2.2.2.2.2.2.2.2.2.2.2.2.2.2.2.2.2.2.2.2.2.2.2",
".2.2.2.2.2.2.2.2.2.2.2.2.2.2.2.2.2.2.2.2.2.2.2.2.2.2.2.2.2.2.2.2.2.2.2.2.2.2.2.2.2.2.2.2.2.2.2.2.2.2.2.2.2.2.2.2.2.2.2.2.2.2.2.2",
".2.2.2.2.2.2.2.2.2.2.2.2.2.2.2.2.2.2.2.2.2.2.2.2.2.2.2.2.2.2.2.2.2.2.2.2.2.2.2.2.2.2.2.2.2.2.2.2.2.2.2.2.2.2.2.2.2.2.2.2.2.2.2.2"
};
