/* XPM */
static char *maan-r[] = {
/* width height ncolors chars_per_pixel */
"62 64 113 2",
/* colors */
"   c #000000",
" . c #B1B1B1",
" X c #AFAFAF",
" o c #A9A9A9",
" O c #A7A7A7",
" + c #A5A5A5",
" @ c #A1A1A1",
" # c #9F9F9F",
" $ c #9D9D9D",
" % c #999999",
" & c #959595",
" * c #939393",
" = c #919191",
" - c #8F8F8F",
" ; c #8D8D8D",
" : c #898989",
" > c #858585",
" , c #838383",
" < c #818181",
" 1 c #7B7B7B",
" 2 c #737373",
" 3 c #717171",
" 4 c #6F6F6F",
" 5 c #696969",
" 6 c #656565",
" 7 c #636363",
" 8 c #5D5D5D",
" 9 c #5B5B5B",
" 0 c #555555",
" q c #FEFEFE",
" w c #FCFCFC",
" e c #FAFAFA",
" r c #F6F6F6",
" t c #F4F4F4",
" y c #ECECEC",
" u c #EAEAEA",
" i c #373737",
" p c #E8E8E8",
" a c #333333",
" s c #E2E2E2",
" d c #2F2F2F",
" f c #DEDEDE",
" g c #D8D8D8",
" h c #D6D6D6",
" j c #D4D4D4",
" k c #D0D0D0",
" l c #CCCCCC",
" z c #C8C8C8",
" x c #151515",
" c c #C4C4C4",
" v c #C2C2C2",
" b c #C0C0C0",
" n c #BEBEBE",
" m c #B2B2B2",
" M c #B0B0B0",
" N c #AEAEAE",
" B c #ACACAC",
" V c #AAAAAA",
" C c #A4A4A4",
" Z c #A2A2A2",
" A c #A0A0A0",
" S c #9E9E9E",
" D c #9C9C9C",
" F c #969696",
" G c #949494",
" H c #929292",
" J c #8E8E8E",
" K c #8C8C8C",
" L c #888888",
" P c #868686",
" I c #848484",
" U c #828282",
" Y c #808080",
" T c #7A7A7A",
" R c #747474",
" E c #727272",
" W c #6E6E6E",
" Q c #6A6A6A",
" ! c #686868",
" ~ c #666666",
" ^ c #626262",
" / c #5E5E5E",
" ( c #5C5C5C",
" ) c #5A5A5A",
" _ c #545454",
" ` c #505050",
" ' c #FFFFFF",
" ] c #FDFDFD",
" [ c #FBFBFB",
" { c #F5F5F5",
" } c #EDEDED",
" | c #EBEBEB",
".  c #383838",
".. c #E9E9E9",
".X c #363636",
".o c #323232",
".O c #E3E3E3",
".+ c #303030",
".@ c #E1E1E1",
".# c #DFDFDF",
".$ c #D9D9D9",
".% c #D7D7D7",
".& c #D5D5D5",
".* c #D3D3D3",
".= c #202020",
".- c #D1D1D1",
".; c #CFCFCF",
".: c #C9C9C9",
".> c #141414",
"., c #C5C5C5",
".< c #C3C3C3",
".1 c #C1C1C1",
".2 c #BFBFBF",
/* pixels */
" ' ' ' ' ' ' ' ' ' ' ' ' ' ' ' ' ' ' ' ' ' ' ' ' ' ' ' ' ' ' ' ' ' B.> + l.@ ' ' ' ' ' ' ' ' ' ' ' ' ' ' ' ' ' ' ' ' ' ' ' '",
" ' ' ' ' ' ' ' ' ' ' ' ' ' ' ' ' ' ' ' ' ' ' ' ' ' ' ' ' ' ' ' ' ' ' Z 6 x 1 % % N ' ' ' ' ' ' ' ' ' ' ' ' ' ' ' ' ' ' ' ' '",
" ' ' ' ' ' ' ' ' ' ' ' ' ' ' ' ' ' ' ' ' ' ' ' ' ' ' ' ' ' ' ' ' ' ' ' q J 1 % % J ~ ~ s ' ' ' ' ' ' ' ' ' ' ' ' ' ' ' ' ' '",
" ' ' ' ' ' ' ' ' ' ' ' ' ' ' ' ' ' ' ' ' ' ' ' ' ' ' ' ' ' ' ' ' ' ' ' ' t ; X ' t l l ` / ' ' ' ' ' ' ' ' ' ' ' ' ' ' ' ' '",
" ' ' ' ' ' ' ' ' ' ' ' ' ' ' ' ' ' ' ' ' ' ' ' ' ' ' ' ' ' ' ' ' ' ' ' ' ' ' , X ' ' ' ' j E l { ' ' ' ' ' ' ' ' ' ' ' ' ' '",
" ' ' ' ' ' ' ' ' ' ' ' ' ' ' ' ' ' ' ' ' ' ' ' ' ' ' ' ' ' ' ' ' ' ' ' ' ' ' ' I N ' ' ' ' b ~ = ' ' ' ' ' ' ' ' ' ' ' ' ' '",
" ' ' ' ' ' ' ' ' ' ' ' ' ' ' ' ' ' ' ' ' ' ' ' ' ' ' ' ' ' ' ' ' ' ' ' ' ' ' ' q J ~.< ' ' ' ' B ~ + ' ' ' ' ' ' ' ' ' ' ' '",
" ' ' ' ' ' ' ' ' ' ' ' ' ' ' ' ' ' ' ' ' ' ' ' ' ' ' ' ' ' ' ' ' ' ' ' ' ' ' ' ' t l 4 g ' ' ' q l ; M ' ' ' ' ' ' ' ' ' ' '",
" ' ' ' ' ' ' ' ' ' ' ' ' ' ' ' ' ' ' ' ' ' ' ' ' ' ' ' ' ' ' ' ' ' ' ' ' ' ' ' ' ' ' ' ( h ' ' ' ' ' , X ' ' ' ' ' ' ' ' ' '",
" ' ' ' ' ' ' ' ' ' ' ' ' ' ' ' ' ' ' ' ' ' ' ' ' ' ' ' ' ' ' ' ' ' ' ' ' ' ' ' ' ' ' ' ] 3 v ' ' ' ' ' I N ' ' ' ' ' ' ' ' '",
" ' ' ' ' ' ' ' ' ' ' ' ' ' ' ' ' ' ' ' ' ' ' ' ' ' ' ' ' ' ' ' ' ' ' ' ' ' ' ' ' ' ' ' ' u I.< ' ' ' ' q - + ' ' ' ' ' ' ' '",
" ' ' ' ' ' ' ' ' ' ' ' ' ' ' ' ' ' ' ' ' ' ' ' ' ' ' ' ' ' ' ' ' ' ' ' ' ' ' ' ' ' ' ' ' ' u 4 g ' ' ' ' t ; X ' ' ' ' ' ' '",
" ' ' ' ' ' ' ' ' ' ' ' ' ' ' ' ' ' ' ' ' ' ' ' ' ' ' ' ' ' ' ' ' ' ' ' ' ' ' ' ' ' ' ' ' ' ' ' a ' ' ' ' ' ' , M ' ' ' ' ' '",
" ' ' ' ' ' ' ' ' ' ' ' ' ' ' ' ' ' ' ' ' ' ' ' ' ' ' ' ' ' ' ' ' ' ' ' ' ' ' ' ' ' ' ' ' ' ' ' I N ' ' ' ' ' ' a ' ' ' ' ' '",
" ' ' ' ' ' ' ' ' ' ' ' ' ' ' ' ' ' ' ' ' ' ' ' ' ' ' ' ' ' ' ' ' ' ' ' ' ' ' ' ' ' ' ' ' ' ' ' q - C ' ' ' ' ' B P ' ' ' ' '",
" ' ' ' ' ' ' ' ' ' ' ' ' ' ' ' ' ' ' ' ' ' ' ' ' ' ' ' ' ' ' ' ' ' ' ' ' ' ' ' ' ' ' ' ' ' ' ' '.: 5 ' ' ' ' ' w i q ' ' ' '",
" ' ' ' ' ' ' ' ' ' ' ' ' ' ' ' ' ' ' ' ' ' ' ' ' ' ' ' ' ' ' ' ' ' ' ' ' ' ' ' ' ' ' ' ' ' ' ' ' ' F D ' ' ' ' ' z Q ' ' ' '",
" ' ' ' ' ' ' ' ' ' ' ' ' ' ' ' ' ' ' ' ' ' ' ' ' ' ' ' ' ' ' ' ' ' ' ' ' ' ' ' ' ' ' ' ' ' ' ' ' ' b > y ' ' ' ' f 1.% ' ' '",
" ' ' ' ' ' ' ' ' ' ' ' ' ' ' ' ' ' ' ' ' ' ' ' ' ' ' ' ' ' ' ' ' ' ' ' ' ' ' ' ' ' ' ' ' ' ' ' ' ' ' 7.; ' ' ' ' ' & $ ' ' '",
" ' ' ' ' ' ' ' ' ' ' ' ' ' ' ' ' ' ' ' ' ' ' ' ' ' ' ' ' ' ' ' ' ' ' ' ' ' ' ' ' ' ' ' ' ' ' ' ' ' ' 7.; ' ' ' ' ' u W.$ ' '",
" ' ' ' ' ' ' ' ' ' ' ' ' ' ' ' ' ' ' ' ' ' ' ' ' ' ' ' ' ' ' ' ' ' ' ' ' ' ' ' ' ' ' ' ' ' ' ' ' ' ' ' a ' ' ' ' ' ' ^ k ' '",
" ' ' ' ' ' ' ' ' ' ' ' ' ' ' ' ' ' ' ' ' ' ' ' ' ' ' ' ' ' ' ' ' ' ' ' ' ' ' ' ' ' ' ' ' ' ' ' ' ' ' ' I N ' ' ' ' ' ^ k ' '",
" ' ' ' ' ' ' ' ' ' ' ' ' ' ' ' ' ' ' ' ' ' ' ' ' ' ' ' ' ' ' ' ' ' ' ' ' ' ' ' ' ' ' ' ' ' ' ' ' ' ' ' w.X ' ' ' ' '.1 3 ' '",
" ' ' ' ' ' ' ' ' ' ' ' ' ' ' ' ' ' ' ' ' ' ' ' ' ' ' ' ' ' ' ' ' ' ' ' ' ' ' ' ' ' ' ' ' ' ' ' ' ' ' ' w.X ' ' ' ' ' ' a ' '",
" ' ' ' ' ' ' ' ' ' ' ' ' ' ' ' ' ' ' ' ' ' ' ' ' ' ' ' ' ' ' ' ' ' ' ' ' ' ' ' ' ' ' ' ' ' ' ' ' ' ' ' w.X ' ' ' ' ' ' 8.& '",
" ' ' ' ' ' ' ' ' ' ' ' ' ' ' ' ' ' ' ' ' ' ' ' ' ' ' ' ' ' ' ' ' ' ' ' ' ' ' ' ' ' ' ' ' ' ' ' ' ' ' ' w.X ' ' ' ' ' ' [ i '",
" ' ' ' ' ' ' ' ' ' ' ' ' ' ' ' ' ' ' ' ' ' ' ' ' ' ' ' ' ' ' ' ' ' ' ' ' ' ' ' ' ' ' ' ' ' ' ' ' ' ' ' w.X ' ' ' ' ' ' [ i '",
" ' ' ' ' ' ' ' ' ' ' ' ' ' ' ' ' ' ' ' ' ' ' ' ' ' ' ' ' ' ' ' ' ' ' ' ' ' ' ' ' ' ' ' ' ' ' ' ' ' ' ' w.X ' ' ' ' ' ' [.  ]",
" ' ' ' ' ' ' ' ' ' ' ' ' ' ' ' ' ' ' ' ' ' ' ' ' ' ' ' ' ' ' ' ' ' ' ' ' ' ' ' ' ' ' ' ' ' ' ' ' ' ' ' w.X ' ' ' ' ' ' ' z  ",
" ' ' ' ' ' ' ' ' ' ' ' ' ' ' ' ' ' ' ' ' ' ' ' ' ' ' ' ' ' ' ' ' ' ' ' ' ' ' ' ' ' ' ' ' ' ' ' ' ' ' ' V L ' ' ' ' ' ' ' z  ",
" ' ' ' ' ' ' ' ' ' ' ' ' ' ' ' ' ' ' ' ' ' ' ' ' ' ' ' ' ' ' ' ' ' ' ' ' ' ' ' ' ' ' ' ' ' ' ' ' ' ' ' a ' ' ' ' ' ' ' ' z  ",
" ' ' ' ' ' ' ' ' ' ' ' ' ' ' ' ' ' ' ' ' ' ' ' ' ' ' ' ' ' ' ' ' ' ' ' ' ' ' ' ' ' ' ' ' ' ' ' ' ' ' ' a ' ' ' ' ' ' ' ' z  ",
" ' ' ' ' ' ' ' ' ' ' ' ' ' ' ' ' ' ' ' ' ' ' ' ' ' ' ' ' ' ' ' ' ' ' ' ' ' ' ' ' ' ' ' ' ' ' ' ' ' ' ' a ' ' ' ' ' ' ' ' z  ",
" ' ' ' ' ' ' ' ' ' ' ' ' ' ' ' ' ' ' ' ' ' ' ' ' ' ' ' ' ' ' ' ' ' ' ' ' ' ' ' ' ' ' ' ' ' ' ' ' ' '.2 2 ' ' ' ' ' ' ' ' z  ",
" ' ' ' ' ' ' ' ' ' ' ' ' ' ' ' ' ' ' ' ' ' ' ' ' ' ' ' ' ' ' ' ' ' ' ' ' ' ' ' ' ' ' ' ' ' ' ' ' ' ' 7.; ' ' ' ' ' ' ' ' z  ",
" ' ' ' ' ' ' ' ' ' ' ' ' ' ' ' ' ' ' ' ' ' ' ' ' ' ' ' ' ' ' ' ' ' ' ' ' ' ' ' ' ' ' ' ' ' ' ' ' ' ' 7.; ' ' ' ' ' ' ' ' z  ",
" ' ' ' ' ' ' ' ' ' ' ' ' ' ' ' ' ' ' ' ' ' ' ' ' ' ' ' ' ' ' ' ' ' ' ' ' ' ' ' ' ' ' ' ' ' ' ' ' '.. 4.$ ' ' ' ' ' ' ' ' z  ",
" ' ' ' ' ' ' ' ' ' ' ' ' ' ' ' ' ' ' ' ' ' ' ' ' ' ' ' ' ' ' ' ' ' ' ' ' ' ' ' ' ' ' ' ' ' ' ' ' ' F D ' ' ' ' ' ' ' ' ] ; !",
" ' ' ' ' ' ' ' ' ' ' ' ' ' ' ' ' ' ' ' ' ' ' ' ' ' ' ' ' ' ' ' ' ' ' ' ' ' ' ' ' ' ' ' ' ' ' ' ' f 1 g ' ' ' ' ' ' ' ' [ i '",
" ' ' ' ' ' ' ' ' ' ' ' ' ' ' ' ' ' ' ' ' ' ' ' ' ' ' ' ' ' ' ' ' ' ' ' ' ' ' ' ' ' ' ' ' ' ' ' ' z Q ' ' ' ' ' ' ' ' ' e.  '",
" ' ' ' ' ' ' ' ' ' ' ' ' ' ' ' ' ' ' ' ' ' ' ' ' ' ' ' ' ' ' ' ' ' ' ' ' ' ' ' ' ' ' ' ' ' ' ' w.X ' ' ' ' ' ' ' ' ' ' a ' '",
" ' ' ' ' ' ' ' ' ' ' ' ' ' ' ' ' ' ' ' ' ' ' ' ' ' ' ' ' ' ' ' ' ' ' ' ' ' ' ' ' ' ' ' ' ' ' ' o : ' ' ' ' ' ' ' ' ' ' a ' '",
" ' ' ' ' ' ' ' ' ' ' ' ' ' ' ' ' ' ' ' ' ' ' ' ' ' ' ' ' ' ' ' ' ' ' ' ' ' ' ' ' ' ' ' ' ' ' ' a ' ' ' ' ' ' ' ' ' ' ' a ' '",
" ' ' ' ' ' ' ' ' ' ' ' ' ' ' ' ' ' ' ' ' ' ' ' ' ' ' ' ' ' ' ' ' ' ' ' ' ' ' ' ' ' ' ' ' ' q < m ' ' ' ' ' ' ' ' ' ' Y m ' '",
" ' ' ' ' ' ' ' ' ' ' ' ' ' ' ' ' ' ' ' ' ' ' ' ' ' ' ' ' ' ' ' ' ' ' ' ' ' ' ' ' ' ' ' ' t ; . ' ' ' ' ' ' ' ' ' ' ' ^ k ' '",
" ' ' ' ' ' ' ' ' ' ' ' ' ' ' ' ' ' ' ' ' ' ' ' ' ' ' ' ' ' ' ' ' ' ' ' ' ' ' ' ' ' ' ' '.: 5 ' ' ' ' ' ' ' ' ' ' ' j T.O ' '",
" ' ' ' ' ' ' ' ' ' ' ' ' ' ' ' ' ' ' ' ' ' ' ' ' ' ' ' ' ' ' ' ' ' ' ' ' ' ' ' ' ' ' ' ] 4., ' ' ' ' ' ' ' ' ' ' ' & $ ' ' '",
".o U w w ' ' ' ' ' ' ' ' ' ' ' ' ' ' ' ' ' ' ' ' ' ' ' ' ' ' ' ' ' ' ' ' ' ' ' ' ' ' ] 9.$ ' ' ' ' ' ' ' ' ' ' '.- R y ' ' '",
".%.=.=.X.:.# ' ' ' ' ' ' ' ' ' ' ' ' ' ' ' ' ' ' ' ' ' ' ' ' ' ' ' ' ' ' ' ' ' ' '.. 4.$ ' ' ' ' ' ' ' ' ' ' ' w i ' ' ' ' '",
" '.< I u 5 1.& ' ' ' ' ' ' ' ' ' ' ' ' ' ' ' ' ' ' ' ' ' ' ' ' ' ' ' ' ' ' ' ' '.. I., ' ' ' ' ' ' ' ' ' ' ' ' o : ' ' ' ' '",
" ' ' c 4 '.% T 7 ' ' ' ' ' ' ' ' ' ' ' ' ' ' ' ' ' ' ' ' ' ' ' ' ' ' ' ' ' ' ' < 4., ' ' ' ' ' ' ' ' ' ' ' ' # * ' ' ' ' ' '",
" ' ' ' g ) ' s.; ( w q ' ' ' ' ' ' ' ' ' ' ' ' ' ' ' ' ' ' ' ' ' ' ' ' ' q w U ..$ ' ' ' ' ' ' ' ' ' ' ' q o * r ' ' ' ' ' '",
" ' ' ' ' _.# ' ' h.X -.: j ' ' ' ' ' ' ' ' ' ' ' ' ' ' ' ' ' ' ' ' ' '.* V.X M ' ' ' ' ' ' ' ' ' ' ' ' q V : ' ' ' ' ' ' ' '",
" ' ' ' '.@ 1.& ' ' ' + 5 E F F F ' ' ' ' ' ' ' ' ' ' ' ' ' ' ' '.. F F E L ' ' ' ' ' ' ' ' ' ' ' ' ' ' w.X ' ' ' ' ' ' ' ' '",
" ' ' ' ' '.% T 7 ' ' ' ' | D D D 7 7.1 ' ' ' ' ' ' ' ' ' ' ' A 7 4 D D y ' ' ' ' ' ' ' ' ' ' ' ' ' ' ' < . ' ' ' ' ' ' ' ' '",
" ' ' ' ' ' ' s.; ( ] ' ' ' ' ' '.;.; 3 a a I w w w w w ) a a H.;.$ ' ' ' ' ' ' ' ' ' ' ' ' ' ' ' ' q < m ' ' ' ' ' ' ' ' ' '",
" ' ' ' ' ' ' ' '.% 3 z t ' ' ' ' ' ' ' ' ' N i i i i i g ' ' ' ' ' ' ' ' ' ' ' ' ' ' ' ' ' ' ' q z K . ' ' ' ' ' ' ' ' ' ' '",
" ' ' ' ' ' ' ' ' '.< Q ; ' ' ' ' ' ' ' ' ' ' ' ' ' ' ' ' ' ' ' ' ' ' ' ' ' ' ' ' ' ' ' ' ' ' n G Q O ' ' ' ' ' ' ' ' ' ' ' '",
" ' ' ' ' ' ' ' ' ' ' ' M ^ @ ' ' ' ' ' ' ' ' ' ' ' ' ' ' ' ' ' ' ' ' ' ' ' ' ' ' ' ' ' ' ' n P S ' ' ' ' ' ' ' ' ' ' ' ' ' '",
" ' ' ' ' ' ' ' ' ' ' ' ' k = a j w ' ' ' ' ' ' ' ' ' ' ' ' ' ' ' ' ' ' ' ' ' ' ' ' ' ' e a R } ' ' ' ' ' ' ' ' ' ' ' ' ' ' '",
" ' ' ' ' ' ' ' ' ' ' ' ' ' ' ' / 0 z z t ' ' ' ' ' ' ' ' ' ' ' ' ' ' ' ' ' ' ' ' ' p z 0 ' ' ' ' ' ' ' ' ' ' ' ' ' ' ' ' ' '",
" ' ' ' ' ' ' ' ' ' ' ' ' ' ' ' '.@ Q Q ; & b ' ' ' ' ' ' ' ' ' ' ' ' ' ' ' ' ' o & , Q.O ' ' ' ' ' ' ' ' ' ' ' ' ' ' ' ' ' '",
" ' ' ' ' ' ' ' ' ' ' ' ' ' ' ' ' ' ' ' M $ > ^ ^ U ' ' ' ' ' ' ' ' ' ' q ^ ^ ^ H $., ' ' ' ' ' ' ' ' ' ' ' ' ' ' ' ' ' ' ' '",
" ' ' ' ' ' ' ' ' ' ' ' ' ' ' ' ' ' ' ' ' ' y k k X d d d d d d d d d d.+ k k k r ' ' ' ' ' ' ' ' ' ' ' ' ' ' ' ' ' ' ' ' ' '"
};
