/* XPM */
static char *mes-r[] = {
/* width height ncolors chars_per_pixel */
"64 58 132 2",
/* colors */
"   c #AFAFAF",
" . c #ABABAB",
" X c #A7A7A7",
" o c #A5A5A5",
" O c #A3A3A3",
" + c #9F9F9F",
" @ c #9D9D9D",
" # c #9B9B9B",
" $ c #999999",
" % c #979797",
" & c #959595",
" * c #939393",
" = c #919191",
" - c #8D8D8D",
" ; c #8B8B8B",
" : c #898989",
" > c #878787",
" , c #858585",
" < c #838383",
" 1 c #818181",
" 2 c #7F7F7F",
" 3 c #7D7D7D",
" 4 c #7B7B7B",
" 5 c #797979",
" 6 c #777777",
" 7 c #717171",
" 8 c #6F6F6F",
" 9 c #6B6B6B",
" 0 c #676767",
" q c #FEFEFE",
" w c #FCFCFC",
" e c #494949",
" r c #FAFAFA",
" t c #474747",
" y c #F8F8F8",
" u c #F6F6F6",
" i c #F4F4F4",
" p c #F2F2F2",
" a c #F0F0F0",
" s c #3D3D3D",
" d c #EEEEEE",
" f c #3B3B3B",
" g c #ECECEC",
" h c #EAEAEA",
" j c #E8E8E8",
" k c #E6E6E6",
" l c #333333",
" z c #E4E4E4",
" x c #E2E2E2",
" c c #DEDEDE",
" v c #DCDCDC",
" b c #DADADA",
" n c #D6D6D6",
" m c #D4D4D4",
" M c #D2D2D2",
" N c #D0D0D0",
" B c #CACACA",
" V c #C8C8C8",
" C c #C6C6C6",
" Z c #C4C4C4",
" A c #C2C2C2",
" S c #C0C0C0",
" D c #BCBCBC",
" F c #B8B8B8",
" G c #B6B6B6",
" H c #B4B4B4",
" J c #B2B2B2",
" K c #B0B0B0",
" L c #ACACAC",
" P c #A8A8A8",
" I c #A6A6A6",
" U c #A4A4A4",
" Y c #A2A2A2",
" T c #A0A0A0",
" R c #9E9E9E",
" E c #9C9C9C",
" W c #989898",
" Q c #949494",
" ! c #929292",
" ~ c #8C8C8C",
" ^ c #8A8A8A",
" / c #888888",
" ( c #868686",
" ) c #848484",
" _ c #828282",
" ` c #808080",
" ' c #7E7E7E",
" ] c #7C7C7C",
" [ c #7A7A7A",
" { c #787878",
" } c #747474",
" | c #707070",
".  c #6C6C6C",
".. c #686868",
".X c #646464",
".o c #5C5C5C",
".O c #FFFFFF",
".+ c #4C4C4C",
".@ c #FDFDFD",
".# c #FBFBFB",
".$ c #F9F9F9",
".% c #F7F7F7",
".& c #F5F5F5",
".* c #F3F3F3",
".= c #F1F1F1",
".- c #EFEFEF",
".; c #EDEDED",
".: c #3A3A3A",
".> c #EBEBEB",
"., c #E9E9E9",
".< c #363636",
".1 c #E7E7E7",
".2 c #E5E5E5",
".3 c #E3E3E3",
".4 c #E1E1E1",
".5 c #DFDFDF",
".6 c #DDDDDD",
".7 c #DBDBDB",
".8 c #D9D9D9",
".9 c #D7D7D7",
".0 c #D5D5D5",
".q c #222222",
".w c #CFCFCF",
".e c #C9C9C9",
".r c #C7C7C7",
".t c #BFBFBF",
".y c #BDBDBD",
".u c #BBBBBB",
".i c #B9B9B9",
".p c #B7B7B7",
".a c #B5B5B5",
".s c #B3B3B3",
/* pixels */
".O.O.O.O.O.O.O.O.O.O.O.O.O.O.O.O.O.O.O.O.O.O.O.O.O.O.O.O.O.O.O.O.O.O.O.O.O.O.O.O.O.O.O.O.O.O.O.O.O.O.O.O.O.O.r O +.o +.O.O.O.O.O",
".O.O.O.O.O.O.O.O.O.O.O.O.O.O.O.O.O.O.O.O.O.O.O.O.O.O.O.O.O.O.O.O.O.O.O.O.O.O.O.O.O.O.O.O.O.O.O.O.O.O.O w.>.  Q F D.%.X.O.O.O.O.O",
".O.O.O.O.O.O.O.O.O.O.O.O.O.O.O.O.O.O.O.O.O.O.O.O.O.O.O.O.O.O.O.O.O.O.O.O.O.O.O.O.O.O.O.O.O.O.O.O.O.O.O ~ f.-.O.O.O % Z.O.O.O.O.O",
".O.O.O.O.O.O.O.O.O.O.O.O.O.O.O.O.O.O.O.O.O.O.O.O.O.O.O.O.O.O.O.O.O.O.O.O.O.O.O.O.O.O.O.O.O.O.O.O.O n.o.p.1.O.O.O.6 ^.*.O.O.O.O.O",
".O.O.O.O.O.O.O.O.O.O.O.O.O.O.O.O.O.O.O.O.O.O.O.O.O.O.O.O.O.O.O.O.O.O.O.O.O.O.O.O.O.O.O.O.O.O.O q [ -.O.O.O.O.O.O.o.O.O.O.O.O.O.O",
".O.O.O.O.O.O.O.O.O.O.O.O.O.O.O.O.O.O.O.O.O.O.O.O.O.O.O.O.O.O.O.O.O.O.O.O.O.O.O.O.O.O.O.O.O.O C 1.4.%.O.O.O.O b T.i.O.O.O.O.O.O.O",
".O.O.O.O.O.O.O.O.O.O.O.O.O.O.O.O.O.O.O.O.O.O.O.O.O.O.O.O.O.O.O.O.O.O.O.O.O.O.O.O.O.O.O.O.O P &.7.O.O.O.O.O.8 ,.u.O.O.O.O.O.O.O.O",
".O.O.O.O.O.O.O.O.O.O.O.O.O.O.O.O.O.O.O.O.O.O.O.O.O.O.O.O.O.O.O.O.O.O.O.O.O.O.O.O.O.O.O.9...s q.O.O.O.O.O m ;.#.O.O.O.O.O.O.O.O.O",
".O.O.O.O.O.O.O.O.O.O.O.O.O.O.O.O.O.O.O.O.O.O.O.O.O.O.O.O.O.O.O.O.O.O.O.O.O.O.O.O.O.O.3 ).*.O.O.O.O.O.O v > u.O.O.O.O.O.O.O.O.O.O",
".O.O.O.O.O.O.O.O.O.O.O.O.O.O.O.O.O.O.O.O.O.O.O.O.O.O.O.O.O.O.O.O.O.O.O.O.O.O.O.O r $ ,.O.O.O.O.O.O.O.O.o.O.O.O.O.O.O.O.O.O.O.O.O",
".O.O.O.O.O.O.O.O.O.O.O.O.O.O.O.O.O.O.O.O.O.O.O.O.O.O.O.O.O.O.O.O.O.O.O.O.O.O.O.& ^ A.=.O.O.O.O.O.O w o.i.O.O.O.O.O.O.O.O.O.O.O.O",
".O.O.O.O.O.O.O.O.O.O.O.O.O.O.O.O.O.O.O.O.O.O.O.O.O.O.O.O.O.O.O.O.O.O.O.O.O.O.O L  .O.O.O.O.O.O.O M < G.O.O.O.O.O.O.O.O.O.O.O.O.O",
".O.O.O.O.O.O.O.O.O.O.O.O.O.O.O.O.O.O.O.O.O.O.O.O.O.O.O.O.O.O.O.O.O.O.O.O.O.O.5 / p.O.O.O.O.O.O v :.7.O.O.O.O.O.O.O.O.O.O.O.O.O.O",
".O.O.O.O.O.O.O.O.O.O.O.O.O.O.O.O.O.O.O.O.O.O.O.O.O.O.O.O.O.O.O.O.O.O.O.O.O v <.#.O.O.O.O.O.O n ,.O.O.O.O.O.O.O.O.O.O.O.O.O.O.O.O",
".O.O.O.O.O.O.O.O.O.O.O.O.O.O.O.O.O.O.O.O.O.O.O.O.O.O.O.O.O.O.O.O.O.O.O.O.8 ^.%.O.O.O.O.O.O.O E.t.O.O.O.O.O.O.O.O.O.O.O.O.O.O.O.O",
".O.O.O.O.O.O.O.O.O.O.O.O.O.O.O.O.O.O.O.O.O.O.O.O.O.O.O.O.O.O.O.O.O.O.O.3 _.&.O.O.O.O.O.O.O Y.i.O.O.O.O.O.O.O.O.O.O.O.O.O.O.O.O.O",
".O.O.O.O.O.O.O.O.O.O.O.O.O.O.O.O.O.O.O.O.O.O.O.O.O.O.O.O.O.O.O.O.O.O n ,.O.O.O.O.O.O.O.O Y.i.O.O.O.O.O.O.O.O.O.O.O.O.O.O.O.O.O.O",
".O.O.O.O.O.O.O.O.O.O.O.O.O.O.O.O.O.O.O.O.O.O.O.O.O.O.O.O.O.O.O.O.O.@ ; M.O.O.O.O.O.O w o.i.O.O.O.O.O.O.O.O.O.O.O.O.O.O.O.O.O.O.O",
".O.O.O.O.O.O.O.O.O.O.O.O.O.O.O.O.O.O.O.O.O.O.O.O.O.O.O.O.O.O.O.O.O . K.O.O.O.O.O.O.O o G.O.O.O.O.O.O.O.O.O.O.O.O.O.O.O.O.O.O.O.O",
".O.O.O.O.O.O.O.O.O.O.O.O.O.O.O.O.O.O.O.O.O.O.O.O.O.O.O.O.O.O.O.O H X.O.O.O.O.O.O.@ U.i.O.O.O.O.O.O.O.O.O.O.O.O.O.O.O.O.O.O.O.O.O",
".O.O.O.O.O.O.O.O.O.O.O.O.O.O.O.O.O.O.O.O.O.O.O.O.O.O.O.O.O.O.O q ' c.O.O.O.O.O.O U.p.O.O.O.O.O.O.O.O.O.O.O.O.O.O.O.O.O.O.O.O.O.O",
".O.O.O.O.O.O.O.O.O.O.O.O.O.O.O.O.O.O.O.O.O.O.O.O.O.O.O.O.O.O.O n ,.O.O.O.O.O.O Y.i.O.O.O.O.O.O.O.O.O.O.O.O.O.O.O.O.O.O.O.O.O.O.O",
".O.O.O.O.O.O.O.O.O.O.O.O.O.O.O.O.O.O.O.O.O.O.O.O.O.O.O.O.O.O.O.o.O.O.O.O.O.O Y.i.O.O.O.O.O.O.O.O.O.O.O.O.O.O.O.O.O.O.O.O.O.O.O.O",
".O.O.O.O.O.O.O.O.O.O.O.O.O.O.O.O.O.O.O.O.O.O.O.O.O.O.O.O.O.O #.t.O.O.O.O.O Y.i.O.O.O.O.O.O.O.O.O.O.O.O.O.O.O.O.O.O.O.O.O.O.O.O.O",
".O.O.O.O.O.O.O.O.O.O.O.O.O.O.O.O.O.O.O.O.O.O.O.O.O.O.O.O.@ R.t.O.O.O.O.@ U.i.O.O.O.O.O.O.O.O.O.O.O.O.O.O.O.O.O.O.O.O.O.O.O.O.O.O",
".O.O.O.O.O.O.O.O.O.O.O.O.O.O.O.O.O.O.O.O.O.O.O.O.O.O.O.O R.y.O.O.O.O.O U.p.O.O.O.O.O.O.O.O.O.O.O.O.O.O.O.O.O.O.O.O.O.O.O.O.O.O.O",
".O.O.O.O.O.O.O.O.O.O.O.O.O.O.O.O.O.O.O.O.O.O.O.O.O.O.1.5 9.O.O.O.O.6.o.i.O.O.O.O.O.O.O.O.O.O.O.O.O.O.O.O.O.O.O.O.O.O.O.O.O.O.O.O",
".O.O.O.O.O.O.O.O.O.O.O.O.O.O.O.O.O.O.O.O.O.O.O.O.O.O.+ ] #.O.O.O M :.O.O.O.O.O.O.O.O.O.O.O.O.O.O.O.O.O.O.O.O.O.O.O.O.O.O.O.O.O.O",
".O.O.O.O.O.O.O.O.O.O.O.O.O.O.O.O.O.O.O.O.O.O.O.O.O h e z Z #.# q.. i.O.O.O.O.O.O.O.O.O.O.O.O.O.O.O.O.O.O.O.O.O.O.O.O.O.O.O.O.O.O",
".O.O.O.O.O.O.O.O.O.O.O.O.O.O.O.O.O.O.O.O.O.O.O.O.$ ] '.<., S 7 8.i.O.O.O.O.O.O.O.O.O.O.O.O.O.O.O.O.O.O.O.O.O.O.O.O.O.O.O.O.O.O.O",
".O.O.O.O.O.O.O.O.O.O.O.O.O.O.O.O.O.O.O.O.O.O.O.O 0 i.@ @ s G.q J.O.O.O.O.O.O.O.O.O.O.O.O.O.O.O.O.O.O.O.O.O.O.O.O.O.O.O.O.O.O.O.O",
".O.O.O.O.O.O.O.O.O.O.O.O.O.O.O.O.O.O.O.O.O.O q B !.O.O.O.s t J.O.O.O.O.O.O.O.O.O.O.O.O.O.O.O.O.O.O.O.O.O.O.O.O.O.O.O.O.O.O.O.O.O",
".O.O.O.O.O.O.O.O.O.O.O.O.O.O.O.O.O.O.O.O.O j { =.O.O.O.O Y.i.O.O.O.O.O.O.O.O.O.O.O.O.O.O.O.O.O.O.O.O.O.O.O.O.O.O.O.O.O.O.O.O.O.O",
".O.O.O.O.O.O.O.O.O.O.O.O.O.O.O.O.O.O.O.O.* <.3.O.O.O w o.i.O.O.O.O.O.O.O.O.O.O.O.O.O.O.O.O.O.O.O.O.O.O.O.O.O.O.O.O.O.O.O.O.O.O.O",
".O.O.O.O.O.O.O.O.O.O.O.O.O.O.O.O.O.O.O g 2.-.O.O.O.O.5 ].O.O.O.O.O.O.O.O.O.O.O.O.O.O.O.O.O.O.O.O.O.O.O.O.O.O.O.O.O.O.O.O.O.O.O.O",
".O.O.O.O.O.O.O.O.O.O.O.O.O.O.O.O.O.O g ( j.O.O.O.@.0 > k.O.O.O.O.O.O.O.O.O.O.O.O.O.O.O.O.O.O.O.O.O.O.O.O.O.O.O.O.O.O.O.O.O.O.O.O",
".O.O.O.O.O.O.O.O.O.O.O.O.O.O.O.O.O i 2.1.O.O.O.O U ( x.O.O.O.O.O.O.O.O.O.O.O.O.O.O.O.O.O.O.O.O.O.O.O.O.O.O.O.O.O.O.O.O.O.O.O.O.O",
".O.O.O.O.O.O.O.O.O.O.O.O.O.O.O.O.O. .-.O.O.O.O G o.O.O.O.O.O.O.O.O.O.O.O.O.O.O.O.O.O.O.O.O.O.O.O.O.O.O.O.O.O.O.O.O.O.O.O.O.O.O.O",
".O.O.O.O.O.O.O.O.O.O.O.O.O.O.O.O.r Q.O.O.O.O.O 4.5.O.O.O.O.O.O.O.O.O.O.O.O.O.O.O.O.O.O.O.O.O.O.O.O.O.O.O.O.O.O.O.O.O.O.O.O.O.O.O",
".O.O.O.O.O.O.O.O.O.O.O.O.O.O j L Q.@.O.O.O.> ].*.O.O.O.O.O.O.O.O.O.O.O.O.O.O.O.O.O.O.O.O.O.O.O.O.O.O.O.O.O.O.O.O.O.O.O.O.O.O.O.O",
".O.O.O.O.O.O.O.O.O.O.O.O.O y 2  .O.O.O.O.$ _.5.O.O.O.O.O.O.O.O.O.O.O.O.O.O.O.O.O.O.O.O.O.O.O.O.O.O.O.O.O.O.O.O.O.O.O.O.O.O.O.O.O",
".O.O.O.O.O.O.O.O.O.O.O.O h 3.*.O.O.O.O d '.;.O.O.O.O.O.O.O.O.O.O.O.O.O.O.O.O.O.O.O.O.O.O.O.O.O.O.O.O.O.O.O.O.O.O.O.O.O.O.O.O.O.O",
".O.O.O.O.O.O.O.O.O.O.O a (.2.O.O.O.O.= >.3.O.O.O.O.O.O.O.O.O.O.O.O.O.O.O.O.O.O.O.O.O.O.O.O.O.O.O.O.O.O.O.O.O.O.O.O.O.O.O.O.O.O.O",
".O.O.O.O.O.O.O.O.O.O a ` h.O.O.O.O.& `.2.O.O.O.O.O.O.O.O.O.O.O.O.O.O.O.O.O.O.O.O.O.O.O.O.O.O.O.O.O.O.O.O.O.O.O.O.O.O.O.O.O.O.O.O",
".O.O.O.O.O.O.O.O.O h ,.>.O.O.O.O g ,.,.O.O.O.O.O.O.O.O.O.O.O.O.O.O.O.O.O.O.O.O.O.O.O.O.O.O.O.O.O.O.O.O.O.O.O.O.O.O.O.O.O.O.O.O.O",
".O.O.O.O.O.O.O.O.$ ].2.O.O.O.O.O 4.4.O.O.O.O.O.O.O.O.O.O.O.O.O.O.O.O.O.O.O.O.O.O.O.O.O.O.O.O.O.O.O.O.O.O.O.O.O.O.O.O.O.O.O.O.O.O",
".O.O.O.O.O.O.O j 2 i.O.O.O.O h 3 i.O.O.O.O.O.O.O.O.O.O.O.O.O.O.O.O.O.O.O.O.O.O.O.O.O.O.O.O.O.O.O.O.O.O.O.O.O.O.O.O.O.O.O.O.O.O.O",
".O.O.O.O.O.O q [ x.O.O.O.O q 3.5.O.O.O.O.O.O.O.O.O.O.O.O.O.O.O.O.O.O.O.O.O.O.O.O.O.O.O.O.O.O.O.O.O.O.O.O.O.O.O.O.O.O.O.O.O.O.O.O",
".O.O.O.O.O j 5.$.O.O.O.O.O |.>.O.O.O.O.O.O.O.O.O.O.O.O.O.O.O.O.O.O.O.O.O.O.O.O.O.O.O.O.O.O.O.O.O.O.O.O.O.O.O.O.O.O.O.O.O.O.O.O.O",
".O.O.O.O.O 6.3.O.O.O.O.O.w = r.O.O.O.O.O.O.O.O.O.O.O.O.O.O.O.O.O.O.O.O.O.O.O.O.O.O.O.O.O.O.O.O.O.O.O.O.O.O.O.O.O.O.O.O.O.O.O.O.O",
".O.O.O.O Z %.O.O.O.O.O V *.O.O.O.O.O.O.O.O.O.O.O.O.O.O.O.O.O.O.O.O.O.O.O.O.O.O.O.O.O.O.O.O.O.O.O.O.O.O.O.O.O.O.O.O.O.O.O.O.O.O.O",
".O.O.O.e %.$.O.O.O.O N *.%.O.O.O.O.O.O.O.O.O.O.O.O.O.O.O.O.O.O.O.O.O.O.O.O.O.O.O.O.O.O.O.O.O.O.O.O.O.O.O.O.O.O.O.O.O.O.O.O.O.O.O",
".O.O Z %.O.O.O.O.$ { !.O.O.O.O.O.O.O.O.O.O.O.O.O.O.O.O.O.O.O.O.O.O.O.O.O.O.O.O.O.O.O.O.O.O.O.O.O.O.O.O.O.O.O.O.O.O.O.O.O.O.O.O.O",
".O Z }.$.O.O.O h 1.3 y.O.O.O.O.O.O.O.O.O.O.O.O.O.O.O.O.O.O.O.O.O.O.O.O.O.O.O.O.O.O.O.O.O.O.O.O.O.O.O.O.O.O.O.O.O.O.O.O.O.O.O.O.O",
".O . |.O.O.O.O ].5.O.O.O.O.O.O.O.O.O.O.O.O.O.O.O.O.O.O.O.O.O.O.O.O.O.O.O.O.O.O.O.O.O.O.O.O.O.O.O.O.O.O.O.O.O.O.O.O.O.O.O.O.O.O.O",
".O.= l W.O.a ] i.O.O.O.O.O.O.O.O.O.O.O.O.O.O.O.O.O.O.O.O.O.O.O.O.O.O.O.O.O.O.O.O.O.O.O.O.O.O.O.O.O.O.O.O.O.O.O.O.O.O.O.O.O.O.O.O",
".O.O v.:.o I.5.O.O.O.O.O.O.O.O.O.O.O.O.O.O.O.O.O.O.O.O.O.O.O.O.O.O.O.O.O.O.O.O.O.O.O.O.O.O.O.O.O.O.O.O.O.O.O.O.O.O.O.O.O.O.O.O.O",
".O.O.O.O.O.O.O.O.O.O.O.O.O.O.O.O.O.O.O.O.O.O.O.O.O.O.O.O.O.O.O.O.O.O.O.O.O.O.O.O.O.O.O.O.O.O.O.O.O.O.O.O.O.O.O.O.O.O.O.O.O.O.O.O"
};
