/* XPM */
static char *mes-r[] = {
/* width height ncolors chars_per_pixel */
"64 64 142 2",
/* colors */
"   c #000000",
" . c #B1B1B1",
" X c #AFAFAF",
" o c #ADADAD",
" O c #ABABAB",
" + c #A9A9A9",
" @ c #A5A5A5",
" # c #A3A3A3",
" $ c #A1A1A1",
" % c #9F9F9F",
" & c #9D9D9D",
" * c #9B9B9B",
" = c #979797",
" - c #939393",
" ; c #919191",
" : c #8F8F8F",
" > c #898989",
" , c #878787",
" < c #858585",
" 1 c #838383",
" 2 c #818181",
" 3 c #7F7F7F",
" 4 c #7D7D7D",
" 5 c #7B7B7B",
" 6 c #797979",
" 7 c #777777",
" 8 c #757575",
" 9 c #737373",
" 0 c #717171",
" q c #6F6F6F",
" w c #6B6B6B",
" e c #676767",
" r c #575757",
" t c #515151",
" y c #FEFEFE",
" u c #FCFCFC",
" i c #FAFAFA",
" p c #F8F8F8",
" a c #454545",
" s c #F6F6F6",
" d c #F4F4F4",
" f c #F2F2F2",
" g c #F0F0F0",
" h c #EEEEEE",
" j c #ECECEC",
" k c #E8E8E8",
" l c #E2E2E2",
" z c #E0E0E0",
" x c #DEDEDE",
" c c #DADADA",
" v c #D8D8D8",
" b c #252525",
" n c #D6D6D6",
" m c #D4D4D4",
" M c #212121",
" N c #D2D2D2",
" B c #D0D0D0",
" V c #CECECE",
" C c #CCCCCC",
" Z c #CACACA",
" A c #C8C8C8",
" S c #C4C4C4",
" D c #C2C2C2",
" F c #C0C0C0",
" G c #BEBEBE",
" H c #B8B8B8",
" J c #B6B6B6",
" K c #B4B4B4",
" L c #B2B2B2",
" P c #B0B0B0",
" I c #AEAEAE",
" U c #ACACAC",
" Y c #AAAAAA",
" T c #A8A8A8",
" R c #A0A0A0",
" E c #9E9E9E",
" W c #9C9C9C",
" Q c #9A9A9A",
" ! c #989898",
" ~ c #909090",
" ^ c #8E8E8E",
" / c #888888",
" ( c #868686",
" ) c #848484",
" _ c #828282",
" ` c #808080",
" ' c #7E7E7E",
" ] c #7C7C7C",
" [ c #7A7A7A",
" { c #787878",
" } c #767676",
" | c #747474",
".  c #727272",
".. c #707070",
".X c #6C6C6C",
".o c #666666",
".O c #626262",
".+ c #606060",
".@ c #505050",
".# c #4E4E4E",
".$ c #FFFFFF",
".% c #FDFDFD",
".& c #4A4A4A",
".* c #FBFBFB",
".= c #F9F9F9",
".- c #464646",
".; c #F7F7F7",
".: c #F5F5F5",
".> c #F3F3F3",
"., c #F1F1F1",
".< c #3E3E3E",
".1 c #EFEFEF",
".2 c #EDEDED",
".3 c #EBEBEB",
".4 c #383838",
".5 c #E9E9E9",
".6 c #E7E7E7",
".7 c #E3E3E3",
".8 c #E1E1E1",
".9 c #DFDFDF",
".0 c #2C2C2C",
".q c #DDDDDD",
".w c #DBDBDB",
".e c #D9D9D9",
".r c #D7D7D7",
".t c #D5D5D5",
".y c #222222",
".u c #D3D3D3",
".i c #D1D1D1",
".p c #CFCFCF",
".a c #CDCDCD",
".s c #CBCBCB",
".d c #C9C9C9",
".f c #C7C7C7",
".g c #C5C5C5",
".h c #C3C3C3",
".j c #C1C1C1",
".k c #BBBBBB",
".l c #B9B9B9",
".z c #B7B7B7",
".x c #B5B5B5",
".c c #B3B3B3",
/* pixels */
".$.$.$.$.$.$.$.$.$.$.$.$.$.$.$.$.$.$.$.$.$.$.$.$.$.$.$.$.$.$.$.$.$.$.$.$.$.$.$.$.$.$.$.$.$.$.$.$.$.$.$.$.$.$.$.$.$.$.$ J.x @.& !",
".$.$.$.$.$.$.$.$.$.$.$.$.$.$.$.$.$.$.$.$.$.$.$.$.$.$.$.$.$.$.$.$.$.$.$.$.$.$.$.$.$.$.$.$.$.$.$.$.$.$.$.$.$.$.$.$.$ D.X - - #.$.-",
".$.$.$.$.$.$.$.$.$.$.$.$.$.$.$.$.$.$.$.$.$.$.$.$.$.$.$.$.$.$.$.$.$.$.$.$.$.$.$.$.$.$.$.$.$.$.$.$.$.$.$.$.$.$.$.5 a ,.q.$.$.$ E Y",
".$.$.$.$.$.$.$.$.$.$.$.$.$.$.$.$.$.$.$.$.$.$.$.$.$.$.$.$.$.$.$.$.$.$.$.$.$.$.$.$.$.$.$.$.$.$.$.$.$.$.$.$.$.$ ; ' ).$.$.$.$ h 2 v",
".$.$.$.$.$.$.$.$.$.$.$.$.$.$.$.$.$.$.$.$.$.$.$.$.$.$.$.$.$.$.$.$.$.$.$.$.$.$.$.$.$.$.$.$.$.$.$.$.$.$.$ y.= _.z z.$.$.$.$.$...e.$",
".$.$.$.$.$.$.$.$.$.$.$.$.$.$.$.$.$.$.$.$.$.$.$.$.$.$.$.$.$.$.$.$.$.$.$.$.$.$.$.$.$.$.$.$.$.$.$.$.$.$.$ K.@.f.$.$.$.$.$.$.i 7.$.$",
".$.$.$.$.$.$.$.$.$.$.$.$.$.$.$.$.$.$.$.$.$.$.$.$.$.$.$.$.$.$.$.$.$.$.$.$.$.$.$.$.$.$.$.$.$.$.$.$.$.w.o Q.$.$.$.$.$.$.$ e 1.,.$.$",
".$.$.$.$.$.$.$.$.$.$.$.$.$.$.$.$.$.$.$.$.$.$.$.$.$.$.$.$.$.$.$.$.$.$.$.$.$.$.$.$.$.$.$.$.$.$.$ h.i 8.7 i.$.$.$.$.$ j.  l.>.$.$.$",
".$.$.$.$.$.$.$.$.$.$.$.$.$.$.$.$.$.$.$.$.$.$.$.$.$.$.$.$.$.$.$.$.$.$.$.$.$.$.$.$.$.$.$.$.$.$ s 2 { p.$.$.$.$.$.$ g 2.r.$.$.$.$.$",
".$.$.$.$.$.$.$.$.$.$.$.$.$.$.$.$.$.$.$.$.$.$.$.$.$.$.$.$.$.$.$.$.$.$.$.$.$.$.$.$.$.$.$.$.$.= 7 v.$.$.$.$.$.$.$ p 8.w.$.$.$.$.$.$",
".$.$.$.$.$.$.$.$.$.$.$.$.$.$.$.$.$.$.$.$.$.$.$.$.$.$.$.$.$.$.$.$.$.$.$.$.$.$.$.$.$.$.$.$ P `.w.$.$.$.$.$.$.$.$ |.t.$.$.$.$.$.$.$",
".$.$.$.$.$.$.$.$.$.$.$.$.$.$.$.$.$.$.$.$.$.$.$.$.$.$.$.$.$.$.$.$.$.$.$.$.$.$.$.$.$.$.$ Q Q.p.$.$.$.$.$.$.$.$ n _.1.$.$.$.$.$.$.$",
".$.$.$.$.$.$.$.$.$.$.$.$.$.$.$.$.$.$.$.$.$.$.$.$.$.$.$.$.$.$.$.$.$.$.$.$.$.$.$.$.$.$ X W.%.$.$.$.$.$.$.$.3.s 7.:.$.$.$.$.$.$.$.$",
".$.$.$.$.$.$.$.$.$.$.$.$.$.$.$.$.$.$.$.$.$.$.$.$.$.$.$.$.$.$.$.$.$.$.$.$.$.$.$.$.$ p ` B.$.$.$.$.$.$.$ f ` '.*.$.$.$.$.$.$.$.$.$",
".$.$.$.$.$.$.$.$.$.$.$.$.$.$.$.$.$.$.$.$.$.$.$.$.$.$.$.$.$.$.$.$.$.$.$.$.$.$.$.$ s 7 c.$.$.$.$.$.$.$ s 8.q.$.$.$.$.$.$.$.$.$.$.$",
".$.$.$.$.$.$.$.$.$.$.$.$.$.$.$.$.$.$.$.$.$.$.$.$.$.$.$.$.$.$.$.$.$.$.$.$.$.$.$ h 2.e.$.$.$.$.$.$.$.$ [.p.$.$.$.$.$.$.$.$.$.$.$.$",
".$.$.$.$.$.$.$.$.$.$.$.$.$.$.$.$.$.$.$.$.$.$.$.$.$.$.$.$.$.$.$.$.$.$.$.$.$.$.$ 6 B.$.$.$.$.$.$.$.$ v 2 h.$.$.$.$.$.$.$.$.$.$.$.$",
".$.$.$.$.$.$.$.$.$.$.$.$.$.$.$.$.$.$.$.$.$.$.$.$.$.$.$.$.$.$.$.$.$.$.$.$.$ j [.8.$.$.$.$.$.$.$.$.e 7.;.$.$.$.$.$.$.$.$.$.$.$.$.$",
".$.$.$.$.$.$.$.$.$.$.$.$.$.$.$.$.$.$.$.$.$.$.$.$.$.$.$.$.$.$.$.$.$.$.$.$.* '.p.$.$.$.$.$.$.$.$.p 2 p.$.$.$.$.$.$.$.$.$.$.$.$.$.$",
".$.$.$.$.$.$.$.$.$.$.$.$.$.$.$.$.$.$.$.$.$.$.$.$.$.$.$.$.$.$.$.$.$.$.$.$.6.O.$.$.$.$.$.$.$.$ z [ h.$.$.$.$.$.$.$.$.$.$.$.$.$.$.$",
".$.$.$.$.$.$.$.$.$.$.$.$.$.$.$.$.$.$.$.$.$.$.$.$.$.$.$.$.$.$.$.$.$.$.$.u }.$.$.$.$.$.$.$.$ V 5.$.$.$.$.$.$.$.$.$.$.$.$.$.$.$.$.$",
".$.$.$.$.$.$.$.$.$.$.$.$.$.$.$.$.$.$.$.$.$.$.$.$.$.$.$.$.$.$.$.$.$.$.7 5.5.$.$.$.$.$.$.$.w `.2.$.$.$.$.$.$.$.$.$.$.$.$.$.$.$.$.$",
".$.$.$.$.$.$.$.$.$.$.$.$.$.$.$.$.$.$.$.$.$.$.$.$.$.$.$.$.$.$.$.$.$.$ L =.$.$.$.$.$.$.$.r 7 i.$.$.$.$.$.$.$.$.$.$.$.$.$.$.$.$.$.$",
".$.$.$.$.$.$.$.$.$.$.$.$.$.$.$.$.$.$.$.$.$.$.$.$.$.$.$.$.$.$.$.$.$.$.&.$.$.$.$.$.$.$ B _ s.$.$.$.$.$.$.$.$.$.$.$.$.$.$.$.$.$.$.$",
".$.$.$.$.$.$.$.$.$.$.$.$.$.$.$.$.$.$.$.$.$.$.$.$.$.$.$.$.$.$.$.$.$ 1.g.$.$.$.$.$.$ z 6.1.$.$.$.$.$.$.$.$.$.$.$.$.$.$.$.$.$.$.$.$",
".$.$.$.$.$.$.$.$.$.$.$.$.$.$.$.$.$.$.$.$.$.$.$.$.$.$.$.$.$.$.$.$ z 5 j.$.$.$.$.$.a 5.$.$.$.$.$.$.$.$.$.$.$.$.$.$.$.$.$.$.$.$.$.$",
".$.$.$.$.$.$.$.$.$.$.$.$.$.$.$.$.$.$.$.$.$.$.$.$.$.$.$.$.$.$.$ y w.9.$.$.$.$.$ x 4.2.$.$.$.$.$.$.$.$.$.$.$.$.$.$.$.$.$.$.$.$.$.$",
".$.$.$.$.$.$.$.$.$.$.$.$.$.$.$.$.$.$.$.$.$.$.$.$.$.$.$.$.$.$.8 w u.$.$.$.$.$ m }.%.$.$.$.$.$.$.$.$.$.$.$.$.$.$.$.$.$.$.$.$.$.$.$",
".$.$.$.$.$.$.$.$.$.$.$.$.$.$.$.$.$.$.$.$.$.$.$.$.$.$.$.$.$.3 4 z.$.$.$.$.$.i 1 d.$.$.$.$.$.$.$.$.$.$.$.$.$.$.$.$.$.$.$.$.$.$.$.$",
".$.$.$.$.$.$.$.$.$.$.$.$.$.$.$.$.$.$.$.$.$.$.$.$.$.$.$.:.w.j _.$.$.$.$.1 q { g.$.$.$.$.$.$.$.$.$.$.$.$.$.$.$.$.$.$.$.$.$.$.$.$.$",
".$.$.$.$.$.$.$.$.$.$.$.$.$.$.$.$.$.$.$.$.$.$.$.$.$.$.$.l.< 9 F.$.$.$.2 2 c.$.$.$.$.$.$.$.$.$.$.$.$.$.$.$.$.$.$.$.$.$.$.$.$.$.$.$",
".$.$.$.$.$.$.$.$.$.$.$.$.$.$.$.$.$.$.$.$.$.$.$.$.$.$.$ H ^.: /.s.$.$ 0 v.$.$.$.$.$.$.$.$.$.$.$.$.$.$.$.$.$.$.$.$.$.$.$.$.$.$.$.$",
".$.$.$.$.$.$.$.$.$.$.$.$.$.$.$.$.$.$.$.$.$.$.$.$.$.$ Z.# M #.$ 3.c.c }.$.$.$.$.$.$.$.$.$.$.$.$.$.$.$.$.$.$.$.$.$.$.$.$.$.$.$.$.$",
".$.$.$.$.$.$.$.$.$.$.$.$.$.$.$.$.$.$.$.$.$.$.$.$.$ D /.%.h b Y.%   r f.$.$.$.$.$.$.$.$.$.$.$.$.$.$.$.$.$.$.$.$.$.$.$.$.$.$.$.$.$",
".$.$.$.$.$.$.$.$.$.$.$.$.$.$.$.$.$.$.$.$.$.$.$.$ i ~ G.$.$ Z.4.0.+ f.$.$.$.$.$.$.$.$.$.$.$.$.$.$.$.$.$.$.$.$.$.$.$.$.$.$.$.$.$.$",
".$.$.$.$.$.$.$.$.$.$.$.$.$.$.$.$.$.$.$.$.$.$.$ F / U.$.$.$.$.a ].$.$.$.$.$.$.$.$.$.$.$.$.$.$.$.$.$.$.$.$.$.$.$.$.$.$.$.$.$.$.$.$",
".$.$.$.$.$.$.$.$.$.$.$.$.$.$.$.$.$.$.$.$.$.$ C /.g.$.$.$.$ z 5 j.$.$.$.$.$.$.$.$.$.$.$.$.$.$.$.$.$.$.$.$.$.$.$.$.$.$.$.$.$.$.$.$",
".$.$.$.$.$.$.$.$.$.$.$.$.$.$.$.$.$.$.$.$.$ A 2.$.$.$.$.$.i {.$.$.$.$.$.$.$.$.$.$.$.$.$.$.$.$.$.$.$.$.$.$.$.$.$.$.$.$.$.$.$.$.$.$",
".$.$.$.$.$.$.$.$.$.$.$.$.$.$.$.$.$.$.$.$ S >.*.$.$.$.$.$...e.$.$.$.$.$.$.$.$.$.$.$.$.$.$.$.$.$.$.$.$.$.$.$.$.$.$.$.$.$.$.$.$.$.$",
".$.$.$.$.$.$.$.$.$.$.$.$.$.$.$.$.$.$.$ C < s.$.$.$.$ x O $.*.$.$.$.$.$.$.$.$.$.$.$.$.$.$.$.$.$.$.$.$.$.$.$.$.$.$.$.$.$.$.$.$.$.$",
".$.$.$.$.$.$.$.$.$.$.$.$.$.$.$.$.$.$ F >.$.$.$.$.$.a 4 E.$.$.$.$.$.$.$.$.$.$.$.$.$.$.$.$.$.$.$.$.$.$.$.$.$.$.$.$.$.$.$.$.$.$.$.$",
".$.$.$.$.$.$.$.$.$.$.$.$.$.$.$.$.$.u _.>.$.$.$.$ k 9.2.$.$.$.$.$.$.$.$.$.$.$.$.$.$.$.$.$.$.$.$.$.$.$.$.$.$.$.$.$.$.$.$.$.$.$.$.$",
".$.$.$.$.$.$.$.$.$.$.$.$.$.$.$.$.$ * I.$.$.$.$.$ o W.$.$.$.$.$.$.$.$.$.$.$.$.$.$.$.$.$.$.$.$.$.$.$.$.$.$.$.$.$.$.$.$.$.$.$.$.$.$",
".$.$.$.$.$.$.$.$.$.$.$.$.$.$.$.$ = L.$.$.$.$.$ T $.$.$.$.$.$.$.$.$.$.$.$.$.$.$.$.$.$.$.$.$.$.$.$.$.$.$.$.$.$.$.$.$.$.$.$.$.$.$.$",
".$.$.$.$.$.$.$.$.$.$.$.$.$.$ C.& L y.$.$.$.$ O $ u.$.$.$.$.$.$.$.$.$.$.$.$.$.$.$.$.$.$.$.$.$.$.$.$.$.$.$.$.$.$.$.$.$.$.$.$.$.$.$",
".$.$.$.$.$.$.$.$.$.$.$.$.$ F >.$.$.$.$.$.$ Y R.$.$.$.$.$.$.$.$.$.$.$.$.$.$.$.$.$.$.$.$.$.$.$.$.$.$.$.$.$.$.$.$.$.$.$.$.$.$.$.$.$",
".$.$.$.$.$.$.$.$.$.$.$.$ C >.>.$.$.$.$.% o %.%.$.$.$.$.$.$.$.$.$.$.$.$.$.$.$.$.$.$.$.$.$.$.$.$.$.$.$.$.$.$.$.$.$.$.$.$.$.$.$.$.$",
".$.$.$.$.$.$.$.$.$.$.$ S ).$.$.$.$.$.$ o W.$.$.$.$.$.$.$.$.$.$.$.$.$.$.$.$.$.$.$.$.$.$.$.$.$.$.$.$.$.$.$.$.$.$.$.$.$.$.$.$.$.$.$",
".$.$.$.$.$.$.$.$.$.$.f >.;.$.$.$.$.$ + R.$.$.$.$.$.$.$.$.$.$.$.$.$.$.$.$.$.$.$.$.$.$.$.$.$.$.$.$.$.$.$.$.$.$.$.$.$.$.$.$.$.$.$.$",
".$.$.$.$.$.$.$.$.$ C _ i.$.$.$.$.$ O R u.$.$.$.$.$.$.$.$.$.$.$.$.$.$.$.$.$.$.$.$.$.$.$.$.$.$.$.$.$.$.$.$.$.$.$.$.$.$.$.$.$.$.$.$",
".$.$.$.$.$.$.$.$.j /.$.$.$.$.$.$ + R.$.$.$.$.$.$.$.$.$.$.$.$.$.$.$.$.$.$.$.$.$.$.$.$.$.$.$.$.$.$.$.$.$.$.$.$.$.$.$.$.$.$.$.$.$.$",
".$.$.$.$.$.$.$ C /.>.$.$.$.$.% o R u.$.$.$.$.$.$.$.$.$.$.$.$.$.$.$.$.$.$.$.$.$.$.$.$.$.$.$.$.$.$.$.$.$.$.$.$.$.$.$.$.$.$.$.$.$.$",
".$.$.$.$.$.$.h (.$.$.$.$.$.$ o W.$.$.$.$.$.$.$.$.$.$.$.$.$.$.$.$.$.$.$.$.$.$.$.$.$.$.$.$.$.$.$.$.$.$.$.$.$.$.$.$.$.$.$.$.$.$.$.$",
".$.$.$.$.$.d > s.$.$.$.$.$ Y %.$.$.$.$.$.$.$.$.$.$.$.$.$.$.$.$.$.$.$.$.$.$.$.$.$.$.$.$.$.$.$.$.$.$.$.$.$.$.$.$.$.$.$.$.$.$.$.$.$",
".$.$.$.$ C ` u.$.$.$.$.$ f ` n.$.$.$.$.$.$.$.$.$.$.$.$.$.$.$.$.$.$.$.$.$.$.$.$.$.$.$.$.$.$.$.$.$.$.$.$.$.$.$.$.$.$.$.$.$.$.$.$.$",
".$.$.$.$.&.$.$.$.$.$.$.$ < S.$.$.$.$.$.$.$.$.$.$.$.$.$.$.$.$.$.$.$.$.$.$.$.$.$.$.$.$.$.$.$.$.$.$.$.$.$.$.$.$.$.$.$.$.$.$.$.$.$.$",
".$.$ i & ..$.$.$.$.$ d _ N.$.$.$.$.$.$.$.$.$.$.$.$.$.$.$.$.$.$.$.$.$.$.$.$.$.$.$.$.$.$.$.$.$.$.$.$.$.$.$.$.$.$.$.$.$.$.$.$.$.$.$",
".$.$ W U.$.$.$.$.$ i ,.f.$.$.$.$.$.$.$.$.$.$.$.$.$.$.$.$.$.$.$.$.$.$.$.$.$.$.$.$.$.$.$.$.$.$.$.$.$.$.$.$.$.$.$.$.$.$.$.$.$.$.$.$",
".$ ! ..$.$.$.$.$ O t.a.$.$.$.$.$.$.$.$.$.$.$.$.$.$.$.$.$.$.$.$.$.$.$.$.$.$.$.$.$.$.$.$.$.$.$.$.$.$.$.$.$.$.$.$.$.$.$.$.$.$.$.$.$",
" 1 -.$.$.$.$.$ O E.%.$.$.$.$.$.$.$.$.$.$.$.$.$.$.$.$.$.$.$.$.$.$.$.$.$.$.$.$.$.$.$.$.$.$.$.$.$.$.$.$.$.$.$.$.$.$.$.$.$.$.$.$.$.$",
" e -.$.$.$.$ T $.$.$.$.$.$.$.$.$.$.$.$.$.$.$.$.$.$.$.$.$.$.$.$.$.$.$.$.$.$.$.$.$.$.$.$.$.$.$.$.$.$.$.$.$.$.$.$.$.$.$.$.$.$.$.$.$",
" F b.f.$.7 U $.*.$.$.$.$.$.$.$.$.$.$.$.$.$.$.$.$.$.$.$.$.$.$.$.$.$.$.$.$.$.$.$.$.$.$.$.$.$.$.$.$.$.$.$.$.$.$.$.$.$.$.$.$.$.$.$.$",
".$ U b : { &.$.$.$.$.$.$.$.$.$.$.$.$.$.$.$.$.$.$.$.$.$.$.$.$.$.$.$.$.$.$.$.$.$.$.$.$.$.$.$.$.$.$.$.$.$.$.$.$.$.$.$.$.$.$.$.$.$.$",
".$.$.y  .k.$.$.$.$.$.$.$.$.$.$.$.$.$.$.$.$.$.$.$.$.$.$.$.$.$.$.$.$.$.$.$.$.$.$.$.$.$.$.$.$.$.$.$.$.$.$.$.$.$.$.$.$.$.$.$.$.$.$.$"
};
