/* XPM */
static char *noname[] = {
/* width height ncolors chars_per_pixel */
"64 64 25 1",
/* colors */
"  c #000000",
". c #676767",
"X c #656565",
"o c #FEFEFE",
"O c #FCFCFC",
"+ c #E8E8E8",
"@ c #E6E6E6",
"# c #E4E4E4",
"$ c #E2E2E2",
"% c #E0E0E0",
"& c #D0D0D0",
"* c #CECECE",
"= c #010101",
"- c #686868",
"; c #666666",
": c #646464",
"> c #FFFFFF",
", c #FDFDFD",
"< c #E7E7E7",
"1 c #E5E5E5",
"2 c #E3E3E3",
"3 c #E1E1E1",
"4 c #D1D1D1",
"5 c #CFCFCF",
"6 c #020202",
/* pixels */
">>>>>>>>>>>>>>>>>>>>>>>>>>>>      >>>>>>>>o>>>>>>>>o>>>>>>>>>>>>",
">>>>>>>>>>>>>>>>>>>>>>>>>o>>     = >>>>>>>>>>>>>>o>>o>>>>>>>>>>>",
">>>>>>>>>>>>>>>>>>>>>>>>o>o =  ==   >o>>>>o>>>>>>o>oo>>>>>>>>>>>",
">>>>>>>>>>>>>>>>>>>>>>>>>> =  =   == >>>>>o>>>>>>>oo>,>>>>>>>>>>",
">>>>>>>>>>>>>>>>>>>>>>>>o,=  =       >,>>>>>>>o>>>>>>>>>>>>>>>>>",
">>>>>>>>>>>>>>>>>>>>>>>>>>    = == =  >>>>>o>o>>>>>>O>>>>>>>>>>>",
">>>>>>>>>>>>>>>>>>>>>>>>>   ==      = o>>o>> =o >o>>>>>>>>>>>>>>",
">>>>>>>>>>>>>>>>>>>>>>>>o==3$    =32  >oo>>o= >=> = o>o>>>>>>>>>",
">>>>>>>>o>oo>o>>>>>o>>>o>  2$$$   $3= >o>>>>=      6o>>>>>>>>>>>",
">>>>>>>>>o>>o>o>>o>>>>o>>  323$$2$$23 >>>     =     =>>>>>>>>>>>",
">>>>>>>>>>>>oo>o>>o>o>>o> 63$$23$32$2 >>> =  =    =  >>>>>>>>>>>",
">>>>>>>>>>>>>>o>>>>>>o>>>= $ $3$2$$$33=>o= === =   =  =>>>>>>>>>",
">>>>>>>>>>>o>o>  >>o>o>o>3 $$32$32$$$# o=  =  6       =>>>>>>>>>",
">>>>>>>>>>o= >=*5 =>,>>>>$$$$32$$22$2%,  =    =$  =    >>>>>>>>>",
">>>>>>>>>>555 *&*5*>>>>>,2$$$$2$232$$$>==   $6 $ 2 =   >>>>>>>>>",
">>>>>>>>>>&55&&*555*>>o>>3$2$$3$32$3$ >     $3 2= 2    >>>>>>>>>",
"o>>o>o>o &5&*55555&5=>>o>> 2$32 $2332o    = 2 $$ 32= = >>>>>>>>>",
"o>,>>>>>6*55&5*5&&*& >>>>o=3$1$3$$3$ >= =    $2 $6=$   >>>>>>>>>",
">o>oo>o> 5**5*&**5&5*>>o>> $3$3#$$$3 >    2$$33$3$336  >>>>>>>>>",
">>o>>o>o*&&& 5552*55& >>o>>$=33$$3 2  =   $2$2$2223#  =o>>>>>>>>",
">>o>>>>555& 2&5 $   5& >>o>$3$2$$223o>  = 2%$2$3$323   =>>>>>>>>",
",>>o>>o555 $2$$3$%# &5 >o>> #3$$3$3$>> = 6$ $$ 2 $ $6   >>>>>>>>",
">o>>>>>5553>o32$>>> &5>>>>>>$2$3$2$>>>6   32    =23$  6o>>>>>>>>",
">>>>>o 5552o=$3$>>>$5*>>>>>> 3$$$$$>>>o=  $3$2$$$$$$    >>>>>>>>",
">>>>>o&555$o=232>>>355>>>>>> $$3$$ o>>>   $$$$3$2$$$ =>o>o>>>>o>",
"oo>o>>o &&3>o $$$>3$55 o>>>>==$232#>o>>    $$32$%2$$=  >>>>>>o>o",
">>>>>o> & $32$2$3#$$&5>>>o>=# 2  $$ >>>>   $$$23#$$ > >oo>>>>>o>",
">>,>>,> 5 #3$2$$23$$5*o>o>o#$623$$2=  >>o6 2$$$$%2 => >o>>>o>>>>",
"o>>>>>> 5 3 =,>>>  #*&=,>>$22 $$$$$$#22#2 >, $$$#>>,$3>>>o>o>>>>",
">>o>oo=5*5$$ =    3$ =>>>3#22=$$322# 2$2 ;; 22  3o>>$2 $o>>>o>o>",
">>>o>>o>4 $3=    2$ =,>  #22$ $$# #$#$2#;;.;%$#3$ ;X$23$$ >>o>>o",
">>>>>o>=5>2$$  = $3> >=2# 222 $$3#$#$2#2.X;.$232$.;X#$$$32o>>o>>",
"o>oo>>>>>>>$3$32$$$ 2222#2# $23$222$2 2;;X.X;=3$ .;; 32$$32>>>o>",
">,>>>o>>>>o 2223$$= 2$$#2#3# # $23$#$1=XX.:.X;;..;;;.2$$32$>>o>>",
"o>o>>o>>> > 3$3$$@1==2#2#221#$2 2#22$$X;;;;..XXXX.;X;X= # 3o>o>>",
">>o> >o3$$ #1    $$3$@2#2#$$$1=2$#2212.;;X;X:;.;.;;;-;;; $=.; >>",
">>o $3#$$2 $ #< 32    < 22#2#$$22222$;;;;.X..;;.X.X;;;X.;-;X.X >",
">>> 2$ $3$ 2 @%$$$3$$$$@ 22$2#2=2$#22.;;;.X.X;:..;.;.;-:.X;.;;. ",
">>>o 2 $23  1$2$$363$$ #11 #2$# 22#$X;-X.:.;X..X;:;;;>>.;X;;;.X;",
">>o>>> $$2 @ $3$$23$2$ @1@# 22$ #22 ;;X.X.;X;;X.;.;;;>>>..X;;;;;",
">o>>o 12$$1 #$$$$$3  #11@11@ 22 2$# ;;X; ;;;X;;XX;;;.>o>;;;;;.X;",
">>>o>@##1  $%#$23$2 1@2@121111= 2#2=X.;;X;;;X.;...;;X,>>X;X;.;;=",
">>o> @@111322323 $3# #@11@= #@# 2$$ ;X.;.;:.;X;;X.;;.6o>;;.X.X; ",
">>>>112@ 1$3$$2=@  3 1@#1 1@111=2$1 ;;X;;;.XX;;;.;.;X >>;.:;.;; ",
">o> 11 #@2    <2$#11@# @1@=1@2@ 2#3 .;;-;;.XX;;;XXX;;=>oX;;.;;X>",
">>o1@# @1@  @##<# @#1111#<#11#1=22#.;:;X.;:.;X;;X.;;.>>>= ;.;X6>",
">>11  1111  =111%23$ =1#@1@#1@1 $#2X;-;;X;;;X.;.;;;;X>o 32 ;;; >",
"> @#2@#111=1 1112$$2$3@#11#11#  22$-XX;; ;;;X;;X.:;;.o=3$$3;;;>>",
" 1@#1@#11@ =1#@11$3$$23@@1@#1#$2$#2;.X;.;;;;.XX;;;$  $2$$$3-X;>>",
"@1##1#@1@2=#111@ 3223$$21#11=$2$#32;X;;X.X;.X-:;..$$ %2$$$$X-;>>",
"11#@11@##+@1@@##$$$$$$$@2<#1$#2#$##X.;;;;;;.X;-XX; $222$$$ .;;o>",
"@11#1#@11 1#11123$$3$32#1#1122$$##2#;;;X;;.X;.;;.;. 3332$=;.: >>",
"11@<111 =11@@#1 2$32223@#1# #$=2$22# ;;.XXX.;;;;;;=2 223 ;X;- >>",
"111#1< >o@1#1@113$$$3$ 11162$2 $12$2#.X;.;.X;;;;.%$$$33$> ..X>o>",
">> 6o,>>> 111#111$23 1@#1 2$21 #32#$2#;;;XX;X.;;X1%$$$2>o>  >>>>",
">o>o>>>> 11111#11=3$@1#==22##$ 2#22#2#   ;;;.X;;;32 $$ >>>>>oo>o",
">>>o>>>>111111111 3@11@2$#2$2222#222$#22 ;;;.X;;; $2  >>>>>>>>>>",
">>,>>>o>11111111$$ <111 $2222$2222$#$1#2;XX;X.;;X.X;X >>>>>>>>>>",
"o>>>>>>>11111111# ##@11==$#2222$2#22#32$.;.X;;;;;.X.; ,o>>>>>>>>",
">oo>>>o 11111111#@<@#11 > 2$#2#2$2222##2X;X.;;;;;;X;.:>>>>>>>>>>",
">>>>>>>#1111111111##1@#@>>>>o>,>>o>>o>o ;..X;.;;X;;;X;o>>>>>>>>>",
"o>o>,>>1111111111@#@#11# >>>>>>o>oo>o>> X;;.X;-X.X;;.;>>>>>>>>>>",
">>>>>>o1111111111#<11#@# >>o>o>>>>>>>,o..X;.X-:;;;;;;X>o>>>>>>>>",
">>>>oo>          =     = >>>>>o>>>>>o>>>>>>>>oo>>>>>o>,>>>>>>>>>"
};
