/* XPM */
static char *mond-r[] = {
/* width height ncolors chars_per_pixel */
"64 24 107 2",
/* colors */
"   c #B1B1B1",
" . c #AFAFAF",
" X c #ADADAD",
" o c #ABABAB",
" O c #A9A9A9",
" + c #A5A5A5",
" @ c #A3A3A3",
" # c #A1A1A1",
" $ c #9D9D9D",
" % c #9B9B9B",
" & c #999999",
" * c #979797",
" = c #959595",
" - c #939393",
" ; c #8D8D8D",
" : c #8B8B8B",
" > c #878787",
" , c #858585",
" < c #838383",
" 1 c #818181",
" 2 c #7D7D7D",
" 3 c #7B7B7B",
" 4 c #797979",
" 5 c #777777",
" 6 c #757575",
" 7 c #6B6B6B",
" 8 c #FEFEFE",
" 9 c #FCFCFC",
" 0 c #FAFAFA",
" q c #F8F8F8",
" w c #EEEEEE",
" e c #EAEAEA",
" r c #E8E8E8",
" t c #E4E4E4",
" y c #E0E0E0",
" u c #DADADA",
" i c #D4D4D4",
" p c #D2D2D2",
" a c #CECECE",
" s c #CCCCCC",
" d c #CACACA",
" f c #C8C8C8",
" g c #C6C6C6",
" h c #C4C4C4",
" j c #C2C2C2",
" k c #BEBEBE",
" l c #BABABA",
" z c #B6B6B6",
" x c #B2B2B2",
" c c #B0B0B0",
" v c #AEAEAE",
" b c #ACACAC",
" n c #AAAAAA",
" m c #A8A8A8",
" M c #A6A6A6",
" N c #A0A0A0",
" B c #9E9E9E",
" V c #9C9C9C",
" C c #9A9A9A",
" Z c #989898",
" A c #969696",
" S c #949494",
" D c #909090",
" F c #8C8C8C",
" G c #8A8A8A",
" H c #868686",
" J c #808080",
" K c #7E7E7E",
" L c #7C7C7C",
" P c #7A7A7A",
" I c #787878",
" U c #767676",
" Y c #707070",
" T c #545454",
" R c #505050",
" E c #FFFFFF",
" W c #FDFDFD",
" Q c #FBFBFB",
" ! c #F7F7F7",
" ~ c #F3F3F3",
" ^ c #F1F1F1",
" / c #EFEFEF",
" ( c #EDEDED",
" ) c #E9E9E9",
" _ c #363636",
" ` c #E7E7E7",
" ' c #E3E3E3",
" ] c #E1E1E1",
" [ c #DFDFDF",
" { c #DDDDDD",
" } c #DBDBDB",
" | c #D9D9D9",
".  c #D7D7D7",
".. c #D5D5D5",
".X c #D3D3D3",
".o c #202020",
".O c #D1D1D1",
".+ c #CFCFCF",
".@ c #CDCDCD",
".# c #CBCBCB",
".$ c #C9C9C9",
".% c #C7C7C7",
".& c #C5C5C5",
".* c #C3C3C3",
".= c #C1C1C1",
".- c #B9B9B9",
".; c #B3B3B3",
/* pixels */
" E E E E E E E E E E E E E E E E E E E E E E E E E E E E E E E E E E E E E E E E E E E E E E E E E E E E E E E E E E E E E E E E",
" E E E E E E E E E E E E E E E E E E E.O N N N < 6 6 6 R.- E E E E E E E ~ > 6 6 6 6 L N N 8 E E E E E E E E E E E E E E E E E E",
" E E E E E E E E E E E E E E E E.$ F 6 @ i i i ^ E E E | Y c E E E E E l 1 ( E E E E q i i U ; d E E E E E E E E E E E E E E E E",
" E E E E E E E E E E E E E r.# , o r E E E E E E E E E E E.* 2.#.#.# < l E E E E E E E E E E ` O 6 X ) E E E E E E E E E E E E E",
" E E E E E E E E E q y B 6 F O / E E E E E E E E E E E E E E ! O O O ^ E E E E E E E E E E E E E E.% : O y Q E E E E E E E E E E",
" E E E E E E E Q s L -.. E E E E E E E E E E E E E E E E E E E E E E E E E E E E E E E E E E E E E E E d - 4 | 9 E E E E E E E E",
" E E E E E E.= J m E E E E E E E E E E E E E E E E E E E E E E E E E E E E E E E E E E E E E E E E E E E E E % - E E E E E E E E",
" E E E E l <.; ! E E E E E E E E E E E E E E E E E E E E E E E E E E E E E E E E E E E E E E E E E E E E E E E ' 5 * W E E E E E",
" E E E 7 l ^ E E E E E E E E E E E E E E E E E E E E E E E E E E E E E E E E E E E E E E E E E E E E E E E E E E W { 5 M / E E E",
" E E z k E E E E E E E E E E E E E E E E E E E E E E E E E E E E E E E E E E E E E E E E E E E E E E E E E E E E E E E.@ & w E E",
" E.# _ 6 1. . . . .  ~ E E E E E E E E E E E E E E E E E E E E E E E E E E E E E E E E E E E E E E E E E E E E E E E E E e K M (",
" E E #.+ ( V V V V V 1 6 6 6 6.  ( ( ( ( ( 9 E E E E E E E E E E E E E E E 8 ( ( ( ( ( ( ( ( ( ( ( ( ( x 6 6 6 6 6 6 6 6 Y T.o.X",
" E E E + ; E E E E E E E E E E $ > > > > > P I I I I I I I I I I I I I I I 4 > > > > > > > > > > > > > j E E E E E E E E = $ E E",
" E E E E ( < g E E E E E E E E E E E E E E 9 9 9 9 9 9 9 9 9 9 9 9 9 9 9 9 9 E E E E E E E E E E E E E E E E E E E E D I ' E E E",
" E E E E E ^ v # ~ E E E E E E E E E E E E E E E E E E E E E E E E E E E E E E E E E E E E E E E E E E E E E E E h 6 t 9 E E E E",
" E E E E E E E p 1 n e E E E E E E E E E E E E E E E E E E E E E E E E E E E E E E E E E E E E E E E E E E E.$ G . E E E E E E E",
" E E E E E E E E E d G b r E E E E E E E E E E E E E E E E E E E E E E E E E E E E E E E E E E E E E E ` n 6 o e E E E E E E E E",
" E E E E E E E E E E E f F M w E E E E E E E E E E E E E E E E E E E E E E E E E E E E E E E E E E 9 + F.$ E E E E E E E E E E E",
" E E E E E E E E E E E E E a H & 0 E E E E E E E E E E E E E E E E E E E E E E E E E E E E E 0 F 6 I.+ E E E E E E E E E E E E E",
" E E E E E E E E E E E E E E E u L , d E E E E E E E E E E E E E E E E E E E E E E E E E k , 3 r E E E E E E E E E E E E E E E E",
" E E E E E E E E E E E E E E E E 9 / n 6 Z C r E E E E E E E E E E E E E E E E E { C S 6 z / 8 E E E E E E E E E E E E E E E E E",
" E E E E E E E E E E E E E E E E E E E E } | F 6 6 - c c.& E E E E E E.* c c c 5 A | [ E E E E E E E E E E E E E E E E E E E E E",
" E E E E E E E E E E E E E E E E E E E E E E E E E ] h h . 6 6 6 6 6 6   h h h W E E E E E E E E E E E E E E E E E E E E E E E E",
" E E E E E E E E E E E E E E E E E E E E E E E E E E E E E E E E E E E E E E E E E E E E E E E E E E E E E E E E E E E E E E E E"
};
