/* XPM */
static char *mond-r[] = {
/* width height ncolors chars_per_pixel */
"64 23 103 2",
/* colors */
"   c #000000",
" . c #B1B1B1",
" X c #ADADAD",
" o c #ABABAB",
" O c #A9A9A9",
" + c #A3A3A3",
" @ c #A1A1A1",
" # c #9D9D9D",
" $ c #9B9B9B",
" % c #999999",
" & c #939393",
" * c #8F8F8F",
" = c #8B8B8B",
" - c #898989",
" ; c #878787",
" : c #858585",
" > c #838383",
" , c #818181",
" < c #7F7F7F",
" 1 c #7D7D7D",
" 2 c #7B7B7B",
" 3 c #797979",
" 4 c #777777",
" 5 c #737373",
" 6 c #717171",
" 7 c #4D4D4D",
" 8 c #FEFEFE",
" 9 c #4B4B4B",
" 0 c #FCFCFC",
" q c #FAFAFA",
" w c #F8F8F8",
" e c #F6F6F6",
" r c #F4F4F4",
" t c #F2F2F2",
" y c #F0F0F0",
" u c #EEEEEE",
" i c #ECECEC",
" p c #E8E8E8",
" a c #E6E6E6",
" s c #333333",
" d c #E4E4E4",
" f c #2F2F2F",
" g c #E0E0E0",
" h c #DCDCDC",
" j c #D6D6D6",
" k c #D4D4D4",
" l c #D2D2D2",
" z c #CECECE",
" x c #CCCCCC",
" c c #CACACA",
" v c #C6C6C6",
" b c #C4C4C4",
" n c #BEBEBE",
" m c #B8B8B8",
" M c #B6B6B6",
" N c #B4B4B4",
" B c #B0B0B0",
" V c #AAAAAA",
" C c #A8A8A8",
" Z c #A6A6A6",
" A c #A4A4A4",
" S c #A2A2A2",
" D c #9A9A9A",
" F c #909090",
" G c #8C8C8C",
" H c #8A8A8A",
" J c #888888",
" K c #868686",
" L c #848484",
" P c #828282",
" I c #808080",
" U c #7E7E7E",
" Y c #7C7C7C",
" T c #7A7A7A",
" R c #787878",
" E c #747474",
" W c #707070",
" Q c #FFFFFF",
" ! c #FDFDFD",
" ~ c #F9F9F9",
" ^ c #464646",
" / c #F7F7F7",
" ( c #F5F5F5",
" ) c #F1F1F1",
" _ c #EFEFEF",
" ` c #EDEDED",
" ' c #EBEBEB",
" ] c #E9E9E9",
" [ c #E7E7E7",
" { c #E5E5E5",
" } c #E3E3E3",
" | c #DFDFDF",
".  c #D5D5D5",
".. c #CBCBCB",
".X c #C9C9C9",
".o c #C7C7C7",
".O c #C5C5C5",
".+ c #C3C3C3",
".@ c #101010",
".# c #BFBFBF",
".$ c #BBBBBB",
".% c #B9B9B9",
".& c #B7B7B7",
/* pixels */
" Q Q Q Q Q Q Q Q Q Q Q Q Q Q Q Q Q Q.X * * * U W W W s * w Q Q Q Q Q Q Q.O 6 W W W W 2 * D Q Q Q Q Q Q Q Q Q Q Q Q Q Q Q Q Q Q Q",
" Q Q Q Q Q Q Q Q Q Q Q Q Q Q Q.$ , W Z g g g ) Q Q Q i % : y Q Q Q Q _ K V 8 Q Q Q Q r g.  W H v Q Q Q Q Q Q Q Q Q Q Q Q Q Q Q Q",
" Q Q Q Q Q Q Q Q Q Q Q Q | z 5 N u Q Q Q Q Q Q Q Q Q Q Q [ < . z z B I p Q Q Q Q Q Q Q Q Q Q { O W O a Q Q Q Q Q Q Q Q Q Q Q Q Q",
" Q Q Q Q Q Q Q Q ( ` 1 W F @ 0 Q Q Q Q Q Q Q Q Q Q Q Q Q Q Q n @ @.# Q Q Q Q Q Q Q Q Q Q Q Q Q Q Q v - # ` ~ Q Q Q Q Q Q Q Q Q Q",
" Q Q Q Q Q Q Q A I P t Q Q Q Q Q Q Q Q Q Q Q Q Q Q Q Q Q Q Q Q Q Q Q Q Q Q Q Q Q Q Q Q Q Q Q Q Q Q Q Q l P <.O Q Q Q Q Q Q Q Q Q",
" Q Q Q Q Q @ R.. q Q Q Q Q Q Q Q Q Q Q Q Q Q Q Q Q Q Q Q Q Q Q Q Q Q Q Q Q Q Q Q Q Q Q Q Q Q Q Q Q Q Q Q Q e V > t Q Q Q Q Q Q Q",
" Q Q t.& W z / Q Q Q Q Q Q Q Q Q Q Q Q Q Q Q Q Q Q Q Q Q Q Q Q Q Q Q Q Q Q Q Q Q Q Q Q Q Q Q Q Q Q Q Q Q Q Q Q i 1 O a Q Q Q Q Q",
" Q v E m Q Q Q Q Q Q Q Q Q Q Q Q Q Q Q Q Q Q Q Q Q Q Q Q Q Q Q Q Q Q Q Q Q Q Q Q Q Q Q Q Q Q Q Q Q Q Q Q Q Q Q Q Q v - Z ] Q Q Q",
" ! G { Q Q Q Q Q Q Q Q Q Q Q Q Q Q Q Q Q Q Q Q Q Q Q Q Q Q Q Q Q Q Q Q Q Q Q Q Q Q Q Q Q Q Q Q Q Q Q Q Q Q Q Q Q Q Q Q.X K } Q Q",
" 7 3 H k Q Q Q Q Q Q Q Q Q Q Q Q Q Q Q Q Q Q Q Q Q Q Q Q Q Q Q Q Q Q Q Q Q Q Q Q Q Q Q Q Q Q Q Q Q Q Q Q Q Q Q Q Q Q Q Q Q & D Q",
" Z + { $ W W W W 6 O O O O O 0 Q Q Q Q Q Q Q Q Q Q Q Q Q Q Q Q Q Q Q Q Q Q Q Q Q Q Q Q Q Q Q Q Q Q Q Q g O O O O O O O O O S f 9",
" Q . , ' Q Q Q Q 8.O.O.O.O.O 5 W W W W W.&.X.X.X.X.X.X.X.X.X.X.X.X.X.X.X.X Z W W W W W W W W W W W W W *.O.O.O.O.O.O.O.O B ^ D a",
" Q Q u G p 8 Q Q Q Q Q Q Q Q Q Q Q Q Q Q m Z Z Z Z Z Z Z Z Z Z Z Z Z Z Z Z.X Q Q Q Q Q Q Q Q Q Q Q Q Q Q Q Q Q Q Q Q ) o : _ Q Q",
" Q Q Q e ; X Q Q Q Q Q Q Q Q Q Q Q Q Q Q Q Q Q Q Q Q Q Q Q Q Q Q Q Q Q Q Q Q Q Q Q Q Q Q Q Q Q Q Q Q Q Q Q Q Q Q Q D , b Q Q Q Q",
" Q Q Q Q Q.+ T Z Q Q Q Q Q Q Q Q Q Q Q Q Q Q Q Q Q Q Q Q Q Q Q Q Q Q Q Q Q Q Q Q Q Q Q Q Q Q Q Q Q Q Q Q Q Q Q l =.  0 Q Q Q Q Q",
" Q Q Q Q Q Q (.X 6.& w Q Q Q Q Q Q Q Q Q Q Q Q Q Q Q Q Q Q Q Q Q Q Q Q Q Q Q Q Q Q Q Q Q Q Q Q Q Q Q Q Q u.& F # d Q Q Q Q Q Q Q",
" Q Q Q Q Q Q Q Q 8 m 4.# ) Q Q Q Q Q Q Q Q Q Q Q Q Q Q Q Q Q Q Q Q Q Q Q Q Q Q Q Q Q Q Q Q Q Q Q Q Q ' . , m | Q Q Q Q Q Q Q Q Q",
" Q Q Q Q Q Q Q Q Q Q Q B U M ~ Q Q Q Q Q Q Q Q Q Q Q Q Q Q Q Q Q Q Q Q Q Q Q Q Q Q Q Q Q Q Q Q e ( _ L n Q Q Q Q Q Q Q Q Q Q Q Q",
" Q Q Q Q Q Q Q Q Q Q Q Q Q.% U C Q Q Q Q Q Q Q Q Q Q Q Q Q Q Q Q Q Q Q Q Q Q Q Q Q Q Q Q Q Q J Y T I Q Q Q Q Q Q Q Q Q Q Q Q Q Q",
" Q Q Q Q Q Q Q Q Q Q Q Q Q Q e.o W * A / Q Q Q Q Q Q Q Q Q Q Q Q Q Q Q Q Q Q Q Q Q Q g A P W [ 0 Q Q Q Q Q Q Q Q Q Q Q Q Q Q Q Q",
" Q Q Q Q Q Q Q Q Q Q Q Q Q Q Q Q Q | c R W C b b j Q Q Q Q Q Q Q Q Q Q Q Q Q _ b & W * c ` Q Q Q Q Q Q Q Q Q Q Q Q Q Q Q Q Q Q Q",
" Q Q Q Q Q Q Q Q Q Q Q Q Q Q Q Q Q Q Q Q Q.o o o % W W W h } } } } } x W W W I o h Q Q Q Q Q Q Q Q Q Q Q Q Q Q Q Q Q Q Q Q Q Q Q",
" Q Q Q Q Q Q Q Q Q Q Q Q Q Q Q Q Q Q Q Q Q Q Q Q Q Q Q Q.@           s Q Q Q Q Q Q Q Q Q Q Q Q Q Q Q Q Q Q Q Q Q Q Q Q Q Q Q Q Q"
};
