/* XPM */
static char *muts-r[] = {
/* width height ncolors chars_per_pixel */
"64 59 157 2",
/* colors */
"   c #000000",
" . c #B1B1B1",
" X c #AFAFAF",
" o c #ADADAD",
" O c #ABABAB",
" + c #A9A9A9",
" @ c #A7A7A7",
" # c #A3A3A3",
" $ c #A1A1A1",
" % c #9F9F9F",
" & c #9B9B9B",
" * c #999999",
" = c #979797",
" - c #959595",
" ; c #939393",
" : c #919191",
" > c #8F8F8F",
" , c #8D8D8D",
" < c #8B8B8B",
" 1 c #898989",
" 2 c #878787",
" 3 c #858585",
" 4 c #838383",
" 5 c #818181",
" 6 c #7F7F7F",
" 7 c #7D7D7D",
" 8 c #7B7B7B",
" 9 c #797979",
" 0 c #737373",
" q c #6F6F6F",
" w c #6D6D6D",
" e c #6B6B6B",
" r c #616161",
" t c #5B5B5B",
" y c #575757",
" u c #555555",
" i c #FEFEFE",
" p c #FCFCFC",
" a c #494949",
" s c #FAFAFA",
" d c #F8F8F8",
" f c #F6F6F6",
" g c #F4F4F4",
" h c #F2F2F2",
" j c #3F3F3F",
" k c #F0F0F0",
" l c #EEEEEE",
" z c #ECECEC",
" x c #373737",
" c c #E8E8E8",
" v c #E6E6E6",
" b c #E2E2E2",
" n c #E0E0E0",
" m c #DCDCDC",
" M c #DADADA",
" N c #D8D8D8",
" B c #D6D6D6",
" V c #D2D2D2",
" C c #CCCCCC",
" Z c #C8C8C8",
" A c #C6C6C6",
" S c #C4C4C4",
" D c #C2C2C2",
" F c #C0C0C0",
" G c #BEBEBE",
" H c #BCBCBC",
" J c #BABABA",
" K c #B8B8B8",
" L c #B6B6B6",
" P c #B4B4B4",
" I c #B2B2B2",
" U c #B0B0B0",
" Y c #AEAEAE",
" T c #ACACAC",
" R c #AAAAAA",
" E c #A8A8A8",
" W c #A2A2A2",
" Q c #A0A0A0",
" ! c #9E9E9E",
" ~ c #9C9C9C",
" ^ c #9A9A9A",
" / c #969696",
" ( c #929292",
" ) c #909090",
" _ c #8E8E8E",
" ` c #8C8C8C",
" ' c #8A8A8A",
" ] c #868686",
" [ c #828282",
" { c #808080",
" } c #7E7E7E",
" | c #7C7C7C",
".  c #7A7A7A",
".. c #787878",
".X c #767676",
".o c #747474",
".O c #727272",
".+ c #707070",
".@ c #6E6E6E",
".# c #6C6C6C",
".$ c #6A6A6A",
".% c #686868",
".& c #666666",
".* c #646464",
".= c #606060",
".- c #5C5C5C",
".; c #585858",
".: c #545454",
".> c #525252",
"., c #505050",
".< c #4E4E4E",
".1 c #FFFFFF",
".2 c #4C4C4C",
".3 c #FDFDFD",
".4 c #4A4A4A",
".5 c #FBFBFB",
".6 c #484848",
".7 c #F9F9F9",
".8 c #F7F7F7",
".9 c #444444",
".0 c #F5F5F5",
".q c #424242",
".w c #F3F3F3",
".e c #3E3E3E",
".r c #EFEFEF",
".t c #3C3C3C",
".y c #EDEDED",
".u c #EBEBEB",
".i c #383838",
".p c #363636",
".a c #E7E7E7",
".s c #E5E5E5",
".d c #323232",
".f c #E3E3E3",
".g c #303030",
".h c #DFDFDF",
".j c #DDDDDD",
".k c #D9D9D9",
".l c #D7D7D7",
".z c #222222",
".x c #D3D3D3",
".c c #D1D1D1",
".v c #CFCFCF",
".b c #CDCDCD",
".n c #1A1A1A",
".m c #C9C9C9",
".M c #C7C7C7",
".N c #C5C5C5",
".B c #C3C3C3",
".V c #C1C1C1",
".C c #BFBFBF",
".Z c #BDBDBD",
".A c #BBBBBB",
".S c #B9B9B9",
".D c #B7B7B7",
".F c #B5B5B5",
".G c #B3B3B3",
/* pixels */
".1.1.1.1.1.1.1.1.1.1.1.1.1.1.1.1.1.1.1.1.1.1.1.1.1.1.1.1.1.1.1.1.1.1.1.1.1.1.1.1.1.1.1.1.1.1.1.1.1.1.f.G.n.2.-.G.G.b.1.1.1.1.1.1",
".1.1.1.1.1.1.1.1.1.1.1.1.1.1.1.1.1.1.1.1.1.1.1.1.1.1.1.1.1.1.1.1.1.1.1.1.1.1.1.1.1.1.1.1.1.1.1.1.1 1.  =.G.1.r = = 2.% f.1.1.1.1",
".1.1.1.1.1.1.1.1.1.1.1.1.1.1.1.1.1.1.1.1.1.1.1.1.1.1.1.1.1.1.1.1.1.1.1.1.1.1.1.1.1.1.1.1.1.1.1 f ).9 l.1.1.1.1.1.1.0.+.>.1.1.1.1",
".1.1.1.1.1.1.1.1.1.1.1.1.1.1.1.1.1.1.1.1.1.1.1.1.1.1.1.1.1.1.1.1.1.1.1.1.1.1.1.1.1.1.1.1.1.1.1 >.A.1.1.1.1.1.1.1.1.1.1 ].N.1.1.1",
".1.1.1.1.1.1.1.1.1.1.1.1.1.1.1.1.1.1.1.1.1.1.1.1.1.1.1.1.1.1.1.1.1.1.1 l.u.u.u.u.u.u.5.1.1.1.w.;.1.1.1.1.1.1.1.1.1.1.1.B 2.1.1.1",
".1.1.1.1.1.1.1.1.1.1.1.1.1.1.1.1.1.1.1.1.1.1.1.1.1.1.1.1.1.1.1.1 F % %.$.=.=.=.=.=.= ; % % H.%.f.1.1.1.1.1.1.1.1.1.1.1 M 5.r.1.1",
".1.1.1.1.1.1.1.1.1.1.1.1.1.1.1.1.1.1.1.1.1.1.1.1.1.1.1.1.1.1 g.: , O O h.1.1.1.1.1.1.A O O :.z.f.1.1.1.1.1.1.1.1.1.1.1.1...x.1.1",
".1.1.1.1.1.1.1.1.1.1.1.1.1.1.1.1.1.1.1.1.1.1.1.1.1.1.1 N E.2 y.8 p.1.1.1.1.1.1.1.1.1.1.1.1.3.*.f.1.1.1.1.1.1.1.1.1.1.1.r |.h.1.1",
".1.1.1.1.1.1.1.1.1.1.1.1.1.1.1.1.1.1.1.1.1.1.1.1.1.1.O [ W.1.1.1.1.1.1.1.1.1.1.1.1.1.1.1.1.1.Z _.1.1.1.1.1.1.1.1.1.1.1.B 2.1.1.1",
".1.1.1.1.1.1.1.1.1.1.1.1.1.1.1.1.1.1.1.1.1.1.1 V.2.2.k k.1.1.1.1.1.1.1.1.1.1.1.1.1.1.1.1.1.1.1 j 8 f.1.1.1.1.1.1.1.1.s.g ^.1.1.1",
".1.1.1.1.1.1.1.1.1.1.1.1.1.1.1.1.1.1.1.1.1.1.N ].1.1.1.1.1.1.1.1.1.1.1.1.1.1.1.1.1.1.1.1.1.1.1.s.t.X.1.1.1.1.1.1.1.l.d ,.1.1.1.1",
".1.1.1.1.1.1.1.1.1.1.1.1.1.1.1.1.1.1.1.5 ,.2 ] h.1.1.1.1.1.1.1.1.1.1.1.1.1.1.1.1.1.1.1.1.1.1.1.1 n.i.6 K.w.w.w.w w.p 6.5.1.1.1.1",
".1.1.1.1.1.1.1.1.1.1.1.1.1.1.1.1.1.1 i _ G.1.1.1.1.1.1.1.1.1.1.1.1.1.1.1.1.1.1.1.1.1.1.1.1.1.1.1.1.1 F.;.;.;.;.;.z.1.1.1.1.1.1.1",
".1.1.1.1.1.1.1.1.1.1.1.1.1.1.1.1.1.1 < F.1.1.1.1.1.1.1.1.1.1.1.1.1.1.1.1.1.1.1.1.1.1.1.1.1.1.1.1.1.1.1.1.1.1.1.1.D.- S.1.1.1.1.1",
".1.1.1.1.1.1.1.1.1.1.1.1.1.1.1.1 d :.V.1.1.1.1.1.1.1.1.1.1.1.1.1.1.1.1.1.1.1.1.1.1.1.1.1.1.1.1.1.1.1.1.1.1.1.1.1 i.r.= k.1.1.1.1",
".1.1.1.1.1.1.1.1.1.1.1.1.1.1.1.1 : J.1.1.1.1.1.1.1.1.1.1.1.1.1.1.1.1.1.1.1.1.1.1.1.1.1.1.1.1.1.1.1.1.1.1.1.1.1.1.1.1 I *.1.1.1.1",
".1.1.1.1.1.1.1.1.1.1.1.1.1.1 d :.V.1.1.1.1.1.1.1.1.1.1.1.1.1.1.1.1.1.1.1.1.1.1.1.1.1.1.1.1.1.1.1.1.1.1.1.1.1.1.1.1.1.1 t k.1.1.1",
".1.1.1.1.1.1.1.1.1.1.1.1.1.1 : J.1.1.1.1.1.1.1.1.1.1.1.1.1.1.1.1.1.1.1.1.1.1.1.1.1.1.1.1.1.1.1.1.1.1.1.1.1.1.1.1.1.1.1.B 2.1.1.1",
".1.1.1.1.1.1.1.1.1.1.1.1 i <.V.1.1.1.1.1.1.1.1.1.1.1.1.1.1.1.1.1.1.1.1.1.1.1.1.1.1.1.1.1.1.1.1.1.1.1.1.1.1.1.1.1.1.1.1 l | n.1.1",
".1.1.1.1.1.1.1.1.1.1.1.5 _ F.1.1.1.1.1.1.1.1.1.1.1.1.1.1.1.1.1.1.1.1.1.1.1.1.1.1.1.1.1.1.1.1.1.1.1.1.1.1.1.1.1.1.1.1.1.1 W +.1.1",
".1.1.1.1.1.1.1 B.A.1.1 ,.Z.1.1.1.1.1.1.1.1.1.1.1.1.1.1.1.1.1.1.1.1.1.1.1.1.1.1.1.1.1.1.1.1.1.1.1.1.1.1.1.1.1.1.1.1.1.1.1.1.2.1.1",
".1.1.1.1.1.1 m u ).V Y.V.1.1.1.1.1.1.1.1.1.1.1.1.1.1.1.1.1.1.1.1.1.1.1.1.1.1.1.1.1.1.1.1.1.1.1.1.1.1.1.1.1.1.1.1.1.1.1.1.1.c 9.1",
".1.1.1.1.1.1.: !.1 ( J.1.1.1.1.1.1.1.1.1.1.1.1.1.1.1.1.1.1.1.1.1.1.1.1.1.1.1.1.1.1.1.1.1.1.1.1.1.1.1.1.1.1.1.1.1.1.1.1.1.1.h.#.1",
".1.1.1.1.1.G *.3.1.8 :.V.1.1.1.1.1.1.1.1.1.1.1.1.1.1.1.1.1.1.1.1.1.1.1.1.1.1.1.1.1.1.1.1.1.1.1.1.1.1.1.1.1.1.1.1.1.1.1.1.1 b q d",
".1.1.1.1.8 ] C.1.1.1.1.2.1.1.1.1.1.1.1.1.1.1.1.1.1.1.1.1.1.1.1.1.1.1.1.1.1.1.1.1.1.1.1.1.1.1.1.1.1.1.1.1.1.1.1.1.1.1.1.1.1.1 ;.D",
".1.1.1.1.u.=.1.1.1.1.1.C `.1.1.1.1.1.1.1.1.1.1.1.1.1.1.1.1.1.1.1.1.1.1.1.1.1.1.1.1.1.1.1.1.1.1.1.1.1.1.1.1.1.1.1.1.1.1.1.1.1.j e",
".1.1.1 m.e.3.1.1.1.1.1.1.C.2.V.1.1.1.1.1.1.1.1.1.1.1.1.1.1.1.1.1.1.1.1.1.1.1.1.1.1.1.1.1.1.1.1.1.1.1.1.1.1.1.1.1.1.1.1.1.1.1.1.6",
".1.1.1 4 8.1.1.1.1.1.1.1.1.1 : J.1.1.1.1.1.1.1.1.1.1.1.1.1.1.1.1.1.1.1.1.1.1.1.1.1.1.1.1.1.1.1.1.1.1.1.1.1.1.1.1.1.1.1.1.1.1.1.6",
".1.1 L 7 d.1.1.1.1.1.1.1.1.1 d : H v.1.1.1.1.1.1.1.1.1.1.1.1.1.1.1.1.1.1.1.1.1.1.1.1.1.1.1.1.1.1.1.1.1.1.1.1.1.1.1.1.1.1.1.1.1.6",
".1.1.d.S.1.1.1.1.1.1.1.1.1.1.1.1 > }.j.1.1.1.1.1.1.1.1.1.1.1.1.1.1.1.1.1.1.1.1.1.1.1.1.1.1.1.1.1.1.1.1.1.1.1.1.1.1.1.1.1.1.1.1.6",
" s 3.q.1.1.1.1.1.1.1.1.1.1.1.1.1.1 v.+.r.7.1.1.1.1.1.1.1.1.1.1.1.1.1.1.1.1.1.1.1.1.1.1.1.1.1.1.1.1.1.1.1.1.1.1.1.1.1.1.1.1.1.1.6",
".G x.y.1.1.1.1.1.1.1.1.1.1.1.1.1.1.1 p.- 2 L.1.1.1.1.1.1.1.1.1.1.1.1.1.1.1.1.1.1.1.1.1.1.1.1.1.1.1.1.1.1.1.1.1.1.1.1.1.1.1.1.1.6",
".e =.1.1.1.1.1.1.1.1.1.1.1.1.1.1.1.1.1.1.m = T.1.1.1.1.1.1.1.1.1.1.1.1.1.1.1.1.1.1.1.1.1.1.1.1.1.1.1.1.1.1.1.1.1.1.1.1.1.1.1.1.6",
".6 s.1.1.1.1.1.1.1.1.1.1.1.1.1.1.1.1.1.1.1.3 Q E N.1.1.1.1.1.1.1.1.1.1.1.1.1.1.1.1.1.1.1.1.1.1.1.1.1.1.1.1.1.1.1.1.1.1.1.1.1.1.6",
".2.1.1.1.1.1.1.1.1.1.1.1.1.1.1.1.1.1.1.1.1.1.1 # [.o.3.1.1.1.1.1.1.1.1.1.1.1.1.1.1.1.1.1.1.1.1.1.1.1.1.1.1.1.1.1.1.1.1.1.1.1 S 3",
".2.1.1.1.1.1.1.1.1.1.1.1.1.1.1.1.1.1.1.1.1.1.1.1.r.l.<.2.m z.1.1.1.1.1.1.1.1.1.1.1.1.1.1.1.1.1.1.1.1.1.1.1.1.1.1.1.1.1.1.1.1 ;.D",
".2.1.1.1.1.1.1.1.1.1.1.1.1.1.1.1.1.1.1.1.1.1.1.1.1.1.1.1 [ 6 /.1.1.1.1.1.1.1.1.1.1.1.1.1.1.1.1.1.1.1.1.1.1.1.1.1.1.1.1.1.1.1 ;.D",
" ^ I i.1.1.1.1.1.1.1.1.1.1.1.1.1.1.1.1.1.1.1.1.1.1.1.1.1.1.h P.2.2.2 R d.1.1.1.1.1.1.1.1.1.1.1.1.1.1.1.1.1.1.1.1.1.1.1.1.1 c.X z",
".1 * ..1.1.1.1.1.1.1.1.1.1.1.1.1.1.1.1.1.1.1.1.1.1.1.1.1.1.1.1.1.1.1 $.= O O O n.1.1.1.1.1.1.1.1.1.1.1.1.1.1.1.1.1.1.1.1.1 X ~.1",
".1.1 ! o.1.1.1.1.1.1.1.1.1.1.1.1.1.1.1.1.1.1.1.1.1.1.1.1.1.1.1.1.1.1.1 h % % %...= I.1.1.1.1.1.1.1.1.1.1.1.1.1.1.1.1.1.1.1.2.1.1",
".1.1.5 ! T m.1.1.1.1.1.1.1.1.1.1.1.1.1.1.1.1.1.1.1.1.1.1.1.1.1.1.1.1.1.1.1.1.1.w.u *.2.2.2.2 -.M.M.M.M.M.M [.2.2.2.2 &.M.M.q.1.1",
".1.1.1.1 ! { |.5.1.1.1.1.1.1.1.1.1.1.1.1.1.1.1.1.1.1.1.1.1.1.1.1.1.1.1.1.1.1.1.1.1.1.1.1.1.1.F 4 4 4 4 4 4.m.1.1.1.1 U 4 4 [ | M",
".1.1.1.1.1.y.v., $.a.1.1.1.1.1.1.1.1.1.1.1.1.1.1.1.1.1.1.1.1.1.1.1.1.1.1.1.1.1.1.1.1.1.1.1.1.1.1.1.1.1.1.1.1.1.1.1.1.1.1.1 f 0.C",
".1.1.1.1.1.1.1.1 R q =.s.1.1.1.1.1.1.1.1.1.1.1.1.1.1.1.1.1.1.1.1.1.1.1.1.1.1.1.1.1.1.1.1.1.1.1.1.1.1.1.1.1.1.1.1.1.1.1.1.1.h.#.1",
".1.1.1.1.1.1.1.1.1.w.G.@.1.1.1.1.1.1.1.1.1.1.1.1.1.1.1.1.1.1.1.1.1.1.1.1.1.1.1.1.1.1.1.1.1.1.1.1.1.1.1.1.1.1.1.1.1.1.1.1.1...x.1",
".1.1.1.1.1.1.1.1.1.1.1.8.2 _.N.1.1.1.1.1.1.1.1.1.1.1.1.1.1.1.1.1.1.1.1.1.1.1.1.1.1.1.1.1.1.1.1.1.1.1.1.1.1.1.1.1.1.1.1.1.l.o.1.1",
".1.1.1.1.1.1.1.1.1.1.1.1.1 H `.%.s.1.1.1.1.1.1.1.1.1.1.1.1.1.1.1.1.1.1.1.1.1.1.1.1.1.1.1.1.1.1.1.1.1.1.1.1.1.1.1.1.1.1.1...x.1.1",
".1.1.1.1.1.1.1.1.1.1.1.1.1.1 d.f.& 4 h.1.1.1.1.1.1.1.1.1.1.1.1.1.1.1.1.1.1.1.1.1.1.1.1.1.1.1.1.1.1.1.1.1.1.1.1.1.1.1.1.G ~ s.1.1",
".1.1.1.1.1.1.1.1.1.1.1.1.1.1.1.1.1 Z 5 R.1.1.1.1.1.1.1.1.1.1.1.1.1.1.1.1.1.1.1.1.1.1.1.1.1.1.1.1.1.1.1.1.1.1.1.1.1.1 U &.1.1.1.1",
".1.1.1.1.1.1.1.1.1.1.1.1.1.1.1.1.1.1.l $.2 m.u.5.1.1.1.1.1.1.1.1.1.1.1.1.1.1.1.1.1.1.1.1.1.1.1.1.1.1.1.1.1.1.1.1.1 d r k.1.1.1.1",
".1.1.1.1.1.1.1.1.1.1.1.1.1.1.1.1.1.1.1.1.1 q.= &.1.1.1.1.1.1.1.1.1.1.1.1.1.1.1.1.1.1.1.1.1.1.1.1.1.1.1.1.1.1.1.1.5 1 A.1.1.1.1.1",
".1.1.1.1.1.1.1.1.1.1.1.1.1.1.1.1.1.1.1.1.1.1.1 P =.1.1.1.1.1.1.1.1.1.1.1.1.1.1.1.1.1.1.1.1.1.1.1.1.1.1.1.1.1.1.1 4 Z.1.1.1.1.1.1",
".1.1.1.1.1.1.1.1.1.1.1.1.1.1.1.1.1.1.1.1.1.1.1 i P.2.S.A.8.1.1.1.1.1.1.1.1.1.1.1.1.1.1.1.1.1.1.1.1.1.1.1.1.1.1 n e.1.1.1.1.1.1.1",
".1.1.1.1.1.1.1.1.1.1.1.1.1.1.1.1.1.1.1.1.1.1.1.1.1.1 : > `.1.1.1.1.1.1.1.1.1.1.1.1.1.1.1.1.1.1.1.1.1.1.1.1.1.1 <.C.1.1.1.1.1.1.1",
".1.1.1.1.1.1.1.1.1.1.1.1.1.1.1.1.1.1.1.1.1.1.1.1.1.1.1.1.M.2 u.l.l.3.1.1.1.1.1.1.1.1.1.1.1.1.1.1.1.1.1.1.1.1.1 <.C.1.1.1.1.1.1.1",
".1.1.1.1.1.1.1.1.1.1.1.1.1.1.1.1.1.1.1.1.1.1.1.1.1.1.1.1.1.1 f.o.o ' < &.1.1.1.1.1.1.1.1.1.1.1.1.1.1.1.1.1.1.1 F <.1.1.1.1.1.1.1",
".1.1.1.1.1.1.1.1.1.1.1.1.1.1.1.1.1.1.1.1.1.1.1.1.1.1.1.1.1.1.1.1.1 D.C X.2.2 4.w.w.w.w d.1.1.1.1.1.1.1.1.1.1.1 s a.1.1.1.1.1.1.1",
".1.1.1.1.1.1.1.1.1.1.1.1.1.1.1.1.1.1.1.1.1.1.1.1.1.1.1.1.1.1.1.1.1.1.1.1.1.1 Z.;.;.;.;.. @ @ @ @ @ @ @ @ @ @ @ t.4.1.1.1.1.1.1.1",
".1.1.1.1.1.1.1.1.1.1.1.1.1.1.1.1.1.1.1.1.1.1.1.1.1.1.1.1.1.1.1.1.1.1.1.1.1.1.1.1.1.1.1 =                        .C.1.1.1.1.1.1.1"
};
