/* XPM */
static char *muts-r[] = {
/* width height ncolors chars_per_pixel */
"64 56 64 1",
/* colors */
"  c #AFAFAF",
". c #ADADAD",
"X c #ABABAB",
"o c #A9A9A9",
"O c #A7A7A7",
"+ c #919191",
"@ c #8F8F8F",
"# c #8D8D8D",
"$ c #8B8B8B",
"% c #898989",
"& c #757575",
"* c #737373",
"= c #717171",
"- c #6D6D6D",
"; c #595959",
": c #575757",
"> c #555555",
", c #515151",
"< c #FEFEFE",
"1 c #FCFCFC",
"2 c #3D3D3D",
"3 c #393939",
"4 c #373737",
"5 c #E4E4E4",
"6 c #E2E2E2",
"7 c #E0E0E0",
"8 c #1D1D1D",
"9 c #CACACA",
"0 c #C8C8C8",
"q c #C6C6C6",
"w c #C4C4C4",
"e c #C2C2C2",
"r c #AEAEAE",
"t c #ACACAC",
"y c #AAAAAA",
"u c #A8A8A8",
"i c #A6A6A6",
"p c #929292",
"a c #909090",
"s c #8E8E8E",
"d c #8C8C8C",
"f c #747474",
"g c #727272",
"h c #707070",
"j c #6E6E6E",
"k c #585858",
"l c #565656",
"z c #545454",
"x c #525252",
"c c #FFFFFF",
"v c #FDFDFD",
"b c #FBFBFB",
"n c #3C3C3C",
"m c #3A3A3A",
"M c #383838",
"N c #E5E5E5",
"B c #E3E3E3",
"V c #E1E1E1",
"C c #202020",
"Z c #1E1E1E",
"A c #C9C9C9",
"S c #C7C7C7",
"D c #C5C5C5",
"F c #C3C3C3",
/* pixels */
"cccccccccccccccccccccccccccccccccccccccccccccccccc6yy5cccccccccc",
"cccccccccccccccccccccccccccccccccccccccccccccccccdM*yh>:cccccccc",
"cccccccccccccccccccccccccccccccccccccccccccccccF80cccccv4&cccccc",
"ccccccccccccccccccccccccccccccccccccccccccccccw@ScccccccVmcccccc",
"ccccccccccccccccccccccccccccccccccccccccccccc1kccccccccccb;ccccc",
"ccccccccccccccccccccccccccccccccccD>>>>>>0ccc#Sccccccccccb;ccccc",
"cccccccccccccccccccccccccccccc6o>>@ccccccd>>gmccccccccccccircccc",
"ccccccccccccccccccccccccccccD>gXcccccccccccc6mccccccccccccircccc",
"ccccccccccccccccccccccccc<o=acccccccccccccccc#Sccccccccccb;ccccc",
"cccccccccccccccccccccccv>lX5ccccccccccccccccc1ZSccccccccc%;ccccc",
"cccccccccccccccccccccc6gccccccccccccccccccccccDZScccccc<j2cccccc",
"ccccccccccccccccccccD>gBcccccccccccccccccccccccwZl<<<<Fzn5cccccc",
"cccccccccccccccccccD@ccccccccccccccccccccccccccccdllllM.cccccccc",
"ccccccccccccccccccD@cccccccccccccccccccccccccccccccccc6=accccccc",
"cccccccccccccccccD@cccccccccccccccccccccccccccccccccccccircccccc",
"ccccccccccccccccD@cccccccccccccccccccccccccccccccccccccc6gcccccc",
"cccccccccccccccD@cccccccccccccccccccccccccccccccccccccccc#Sccccc",
"ccccccccccccccD@cccccccccccccccccccccccccccccccccccccccccb;ccccc",
"cccccccccccccD@cccccccccccccccccccccccccccccccccccccccccccircccc",
"ccccccccccccD@cccccccccccccccccccccccccccccccccccccccccccc6gcccc",
"cccccccc#scD@cccccccccccccccccccccccccccccccccccccccccccccc#Sccc",
"ccccccc#lSsScccccccccccccccccccccccccccccccccccccccccccccccb;ccc",
"cccccc6gccqscccccccccccccccccccccccccccccccccccccccccccccccb;ccc",
"ccccccoXcccSscccccccccccccccccccccccccccccccccccccccccccccc<#Acc",
"cccccc>cccccg6ccccccccccccccccccccccccccccccccccccccccccccccDacc",
"cccc<d0cccccBgs<ccccccccccccccccccccccccccccccccccccccccccccc>cc",
"ccccymccccccccqsccccccccccccccccccccccccccccccccccccccccccccc>cc",
"cccv=BcccccccccSsvccccccccccccccccccccccccccccccccccccccccccc>cc",
"ccc>@cccccccccccq:Dcccccccccccccccccccccccccccccccccccccccccc>cc",
"ccw8cccccccccccccc@q<cccccccccccccccccccccccccccccccccccccccc>cc",
"cc8Scccccccccccccccsguccccccccccccccccccccccccccccccccccccccc>cc",
"cdlcccccccccccccccccBts<ccccccccccccccccccccccccccccccccccccc>cc",
"c>ccccccccccccccccccccq#qcccccccccccccccccccccccccccccccccccc>cc",
"c>cccccccccccccccccccccSslvvccccccccccccccccccccccccccccccccF+cc",
"c>ccccccccccccccccccccccc<:kuBccccccccccccccccccccccccccccccircc",
"cl<cccccccccccccccccccccccc<t=svvvccccccccccccccccccccccccccircc",
"ccg6ccccccccccccccccccccccccccq::kuBcccccccccccccccccccccccb;ccc",
"ccBg<cccccccccccccccccccccccccccc<t=>>@v<cccccccccccccccccc$Accc",
"ccccg6ccccccccccccccccccccccccccccccccD:*uuuuBccccc<uuuuqcc>cccc",
"ccccBg#vccccccccccccccccccccccccccccccccBtttt=>>>>>ltttts>>Cv<cc",
"ccccccSkO6cccccccccccccccccccccccccccccccccccccccccccccccccv3rcc",
"cccccccc.g#1ccccccccccccccccccccccccccccccccccccccccccccccc1gNcc",
"ccccccccccSkDccccccccccccccccccccccccccccccccccccccccccccccepccc",
"cccccccccccc@l1<cccccccccccccccccccccccccccccccccccccccccc<lcccc",
"ccccccccccccc<k#Dcccccccccccccccccccccccccccccccccccccccccircccc",
"ccccccccccccccc0@lvccccccccccccccccccccccccccccccccccccccbfNcccc",
"ccccccccccccccccc<*Occcccccccccccccccccccccccccccccccccc7fcccccc",
"ccccccccccccccccccB.>D1<cccccccccccccccccccccccccccccccci cccccc",
"ccccccccccccccccccccc@kscccccccccccccccccccccccccccccccepccccccc",
"cccccccccccccccccccccccSs1ccccccccccccccccccccccccccccF+cccccccc",
"ccccccccccccccccccccccccq;Ouccccccccccccccccccccccccc<d9cccccccc",
"ccccccccccccccccccccccccc<.ts1vcccccccccccccccccccccc1kccccccccc",
"ccccccccccccccccccccccccccccqk*ODcccccccccccccccccccc1kccccccccc",
"ccccccccccccccccccccccccccccccB.@>>q11ccccccccccccccc<#0cccccccc",
"cccccccccccccccccccccccccccccccccccsk;OOOODcccccccccc<-.cccccccc",
"ccccccccccccccccccccccccccccccccccccc<....sxxxxxxxxxx,nNcccccccc"
};
