/* XPM */
static char *noname[] = {
/* width height ncolors chars_per_pixel */
"64 64 7 1",
/* colors */
"  c #000000",
". c #FEFEFE",
"X c #030303",
"o c #010101",
"O c #FFFFFF",
"+ c #FDFDFD",
"@ c #020202",
/* pixels */
"OOOOOOOOOOOOOOOOO.OOOOO.OOOOOOOO    o o     o   o.OOOO.O.OO+OOOO",
"OOOOOOOOOOOOOOOOOOOOO+OOO.OOO.o   o Oo   . @     OOO.OOOO+.O...O",
"OOOOOOOOOOOOOOOOOO+OOO.OOOOO      .@  o. O  o OO OOOO+OOOOOOOOO.",
"OOOOOOOOOOOOOOOOO.OO.OOOO    o .    o O    OOO.OoO.oOOO.O+OO.OOO",
"OOOOOOOOOOOOOOOOO.OOOOO o    O@o   oo   o OOOOOO    o OO.O O  OO",
"OOOOOOOOOOOOOOOO.OOO.@ o   O  o   o  o o.OO.OOO   @  o   O      ",
"OOOOOOOOOOOOOOOOO. o    O o  @ O    OOO.OOO oo  o..o  O    o  o ",
"OOOOOOOOOOOOOOOO  o   O o   oO    OOOOOO.O     OO   Oo      o   ",
"OO.OOOOOO.OO.Oo   oo+ o  o .   oOOOO.OO o    OO   Oo           O",
"O+OOOOOOOO..o   @ O @o   . o  oOOOO.O     oO o  O oo         o O",
"OOOO.OOOO  o   O o   OOo    .O+O.O  o  oO o    O o   oo     o  O",
"..OOO.Ooo    .   @  O   o .OO..Oo  @  O o   oOo   o       o    O",
"OOOO       O @ o  Oo  o  OOOOo      O    OoO   oo   o o     ooOO",
". o    oO   O OO o   OO.OO       O o    O     o  o   @     o  .O",
"O     O     OO      OO+O  o   oO o +o O o o   @    o          OO",
"O o O  o o.O      OOOOo o    o   O  .o      o         o  o   o.O",
"O   o  OO oOo  OO.O      .O  o. OO  o                         OO",
"O    o    o  OO.O @   oO    O  O     o o                 o    OO",
".o. @  o  OOOO @   o O    Oo Oo o     o                  oo  oOO",
"OO OO.O.OO.O o  @  o o  o O.oO o  o oo o                o     .O",
"OO  . o  O    @ O      O. o o @o  oo                      o  OOO",
"O.oOO  .O    o.oo    OO  o o  o  o     o                 o  oOO.",
"OO O.OOOO  @  o    OO O o    o o o  oo                   o   O+O",
"OOoOOOOO.o  o  oOO        o       o                         OOOO",
"OO OOOOOO    o                                              OO.O",
"OO OOOOOO     X                                             O.OO",
"OO OOOOOOO  o                                               OOOO",
"OO OOOOOOO o  oo                                        o o OO.O",
"OO OOOOOO.                                               o  OO.O",
"OO OOOOOOO   o                                           o@ OOO.",
"OO OOOOOOO     o                                        o   OOOO",
"OO OOOOOOOo                                              o OO.OO",
"OO OOOOOOO                                               o .O.OO",
"OO OOOOOOO                                              o oO.OO.",
"OO OOOOOOO                                                ..O.OO",
"OO OOOOOOO                                              o OOOO.O",
"OO OOOOOOO                                                OOO.OO",
"OO OOOOOOO                                               o+.OOOO",
"OO OOOOOOO                                                OOO.OO",
"OO OOOOOOO                                                OOOOOO",
"OO OOOOOOO                                       o     oOOOOOOOO",
"OO OOOOOOO                                     o o o  O+OOOOOOOO",
"OO OOOOOOO                               @  o o      O.OOOOOOOOO",
"OO OOOOOOO                                     o @ OOOO.OOOOOOOO",
"OO OOOOOOO                                  ooo oO.OOOO.OOOOOOOO",
"OO OOOOOOO                                 o  o .OOO.O.OOOOOOOOO",
"OO OOOOOOO                               o   o OOOOOOO.OOOOOOOOO",
"OO OOOOOOO                                   .OOO+OOO.OOOOOOOOOO",
"OO O.O+OOO   o                   o         OOO.OOOOOOOOOOOOOOOOO",
"O.oOO.OOO.o    o                o   o     .OO.O.OOOOOOOOOOOOOOOO",
".O OOOO+O.o                       o     OOO..OOOOOOOOOOOOOOOOOOO",
"O OO.OOOOO   o                   o o @.O..OO.O.OOOOOOOOOOOOOOOOO",
".O OO..OOO o                      o  OOOOO.O.O..OOOOOOOOOOOOOOOO",
".  ..OOO.O  o@ o                 o OOO.O.OOOOOOOOOOOOOOOOOOOOOOO",
"OOOo .O.OO  o                    O+OOOOOOOOO.O.OOOOOOOOOOOOOOOOO",
"OOOOOO    oo o                  O.OOOO.OO.OOOOOOOOOOOOOOOOOOOOOO",
"OOOOOOOOO.o   o   o  o         OOOOOOOOOOOOOOOOOOOOOOOOOOOOOOOOO",
"OOOOOOOO.O  oo     oo    o   .OOOOOOOOOOOOOOOOOOOOOOOOOOOOOOOOOO",
"OOOOOOOOO    o o  o   o    ..OOOOOOOOOOOOOOOOOOOOOOOOOOOOOOOOOOO",
"OOOOOOOO..@o     o o o   OOOOOOOOOOOOOOOOOOOOOOOOOOOOOOOOOOOOOOO",
"OOOOOOOOOO   o o   o   OOO.O.O+OOOOOOOOOOOOOOOOOOOOOOOOOOOOOOOOO",
"OOOOOOOOOOO    o@    OOOOOOOOOOOOOOOOOOOOOOOOOOOOOOOOOOOOOOOOOOO",
"OOOOOOOOOO.OOO o o  OOOOO.OOO.OOOOOOOOOOOOOOOOOOOOOOOOOOOOOOOOOO",
"OOOOOOOOOOO.O.OOOO.OOOOO.OOOOOOOOOOOOOOOOOOOOOOOOOOOOOOOOOOOOOOO"
};
