/* XPM */
static char *neus-r[] = {
/* width height ncolors chars_per_pixel */
"56 64 140 2",
/* colors */
"   c #000000",
" . c #ADADAD",
" X c #ABABAB",
" o c #A7A7A7",
" O c #A5A5A5",
" + c #9B9B9B",
" @ c #999999",
" # c #979797",
" $ c #959595",
" % c #939393",
" & c #8F8F8F",
" * c #8D8D8D",
" = c #8B8B8B",
" - c #898989",
" ; c #878787",
" : c #838383",
" > c #7F7F7F",
" , c #7D7D7D",
" < c #7B7B7B",
" 1 c #797979",
" 2 c #777777",
" 3 c #717171",
" 4 c #6F6F6F",
" 5 c #6D6D6D",
" 6 c #656565",
" 7 c #636363",
" 8 c #616161",
" 9 c #5D5D5D",
" 0 c #5B5B5B",
" q c #595959",
" w c #575757",
" e c #4F4F4F",
" r c #4D4D4D",
" t c #FEFEFE",
" y c #FCFCFC",
" u c #FAFAFA",
" i c #F8F8F8",
" p c #454545",
" a c #F6F6F6",
" s c #F4F4F4",
" d c #414141",
" f c #F2F2F2",
" g c #3F3F3F",
" h c #F0F0F0",
" j c #EEEEEE",
" k c #ECECEC",
" l c #393939",
" z c #EAEAEA",
" x c #E8E8E8",
" c c #E4E4E4",
" v c #313131",
" b c #E0E0E0",
" n c #DEDEDE",
" m c #2B2B2B",
" M c #DCDCDC",
" N c #D8D8D8",
" B c #D6D6D6",
" V c #232323",
" C c #D4D4D4",
" Z c #212121",
" A c #D2D2D2",
" S c #D0D0D0",
" D c #CCCCCC",
" F c #CACACA",
" G c #C6C6C6",
" H c #C2C2C2",
" J c #C0C0C0",
" K c #BEBEBE",
" L c #0B0B0B",
" P c #BCBCBC",
" I c #B8B8B8",
" U c #B4B4B4",
" Y c #B2B2B2",
" T c #B0B0B0",
" R c #ACACAC",
" E c #A8A8A8",
" W c #A6A6A6",
" Q c #A4A4A4",
" ! c #A2A2A2",
" ~ c #A0A0A0",
" ^ c #9A9A9A",
" / c #969696",
" ( c #949494",
" ) c #909090",
" _ c #8E8E8E",
" ` c #8C8C8C",
" ' c #8A8A8A",
" ] c #868686",
" [ c #828282",
" { c #808080",
" } c #7E7E7E",
" | c #7C7C7C",
".  c #7A7A7A",
".. c #787878",
".X c #767676",
".o c #707070",
".O c #686868",
".+ c #646464",
".@ c #5C5C5C",
".# c #585858",
".$ c #4E4E4E",
".% c #FFFFFF",
".& c #FDFDFD",
".* c #4A4A4A",
".= c #FBFBFB",
".- c #F9F9F9",
".; c #F7F7F7",
".: c #F5F5F5",
".> c #F1F1F1",
"., c #EFEFEF",
".< c #EDEDED",
".1 c #EBEBEB",
".2 c #E9E9E9",
".3 c #363636",
".4 c #343434",
".5 c #E5E5E5",
".6 c #323232",
".7 c #E3E3E3",
".8 c #E1E1E1",
".9 c #DFDFDF",
".0 c #DDDDDD",
".q c #DBDBDB",
".w c #D5D5D5",
".e c #D3D3D3",
".r c #D1D1D1",
".t c #1E1E1E",
".y c #CFCFCF",
".u c #CBCBCB",
".i c #C9C9C9",
".p c #161616",
".a c #C7C7C7",
".s c #C3C3C3",
".d c #C1C1C1",
".f c #BFBFBF",
".g c #0C0C0C",
".h c #BDBDBD",
".j c #B9B9B9",
".k c #B7B7B7",
".l c #B5B5B5",
".z c #B3B3B3",
/* pixels */
".%.%.%.%.%.%.%.%.%.%.%.%.%.%.%.%.%.%.%.%.%.%.%.%.%.%.%.%.%.%.%.%.%.%.$.%.%.%.%.%.%.%.%.%.%.%.%.%.%.%.%.%.%.%.%.%",
".%.%.%.%.%.%.%.%.%.%.%.%.%.%.%.%.%.%.%.%.%.%.%.%.%.%.%.%.%.%.%.%.%.% m.+.5.%.%.%.%.%.%.%.%.%.%.%.%.%.%.%.%.%.%.%",
".%.%.%.%.%.%.%.%.%.%.%.%.%.%.%.%.%.%.%.%.%.%.%.%.%.%.%.%.%.%.%.%.%.%.k   C.%.%.%.%.%.%.%.%.%.%.%.%.%.%.%.%.%.%.%",
".%.%.%.%.%.%.%.%.%.%.%.%.%.%.%.%.%.%.%.%.%.%.%.%.%.%.%.%.%.%.%.%.%.% G   C.%.%.%.%.%.%.%.%.%.%.%.%.%.%.%.%.%.%.%",
".%.%.%.%.%.%.%.%.%.%.%.%.%.%.%.%.%.%.%.%.%.%.%.%.%.%.%.%.%.%.%.%.%.%.:.e 6.%.%.%.%.%.%.%.%.%.%.%.%.%.%.%.%.%.%.%",
".%.%.%.%.%.%.%.%.%.%.%.%.%.%.%.%.%.%.%.%.%.%.%.%.%.%.%.%.%.%.%.%.%.%.%.%.$.%.%.%.%.%.%.%.%.%.%.%.%.%.%.%.%.%.%.%",
".%.%.%.%.%.%.%.%.%.%.%.%.%.%.%.%.%.%.%.%.%.%.%.%.%.%.%.%.%.%.%.%.%.%.%.%.$.%.%.%.%.%.%.%.%.%.%.%.%.%.%.%.%.%.%.%",
".%.%.%.%.%.%.%.%.%.%.%.%.%.%.%.%.%.%.%.%.%.%.%.%.%.%.%.%.%.%.%.%.%.%.%.%.$.%.%.%.%.%.%.%.%.%.%.%.%.%.%.%.%.%.%.%",
".%.%.%.%.%.%.%.%.%.%.%.%.%.%.%.%.%.%.%.%.%.%.%.%.%.%.%.%.%.%.%.%.%.%.%.%.$.%.%.%.%.%.%.%.%.%.%.%.%.%.%.%.%.%.%.%",
".%.%.%.%.%.%.%.%.%.%.%.%.%.%.%.%.%.%.%.%.%.%.%.%.%.%.%.%.%.%.%.%.%.% h P 3.%.%.%.%.%.%.%.%.%.%.%.%.%.%.%.%.%.%.%",
".%.%.%.%.%.%.%.%.%.%.%.%.%.%.%.%.%.%.%.%.%.%.%.%.%.%.%.%.%.%.%.%.%.% G   C.%.%.%.%.%.%.%.%.%.%.%.%.%.%.%.%.%.%.%",
".%.%.%.%.%.%.%.%.%.%.%.%.%.%.%.%.%.%.%.%.%.%.%.%.%.%.%.%.%.%.%.%.> A 1 n.-.%.%.%.%.%.%.%.%.%.%.%.%.%.%.%.%.%.%.%",
".%.%.%.%.%.%.%.%.%.%.%.%.%.%.%.%.%.%.%.%.%.%.%.%.%.%.%.%.%.%.%.% T   z.%.%.%.%.%.%.%.%.%.%.%.%.%.%.%.%.%.%.%.%.%",
".%.%.%.%.%.%.%.%.%.%.%.%.%.%.%.%.%.%.%.%.%.%.%.%.%.%.%.%.%.%.%.% T   z.%.%.%.%.%.%.%.%.%.%.%.%.%.%.%.%.%.%.%.%.%",
".%.%.%.%.%.%.%.%.%.%.%.%.%.%.%.%.%.%.%.%.%.%.%.%.%.%.%.%.%.%.%.% '.+ f.%.%.%.%.%.%.%.%.%.%.%.%.%.%.%.%.%.%.%.%.%",
".%.%.%.%.%.%.%.%.%.%.%.%.%.%.%.%.%.%.%.%.%.%.%.%.%.%.%.%.%.%.j r F.%.%.%.%.%.%.%.%.%.%.%.%.%.%.%.%.%.%.%.%.%.%.%",
".%.%.%.%.%.%.%.%.%.%.%.%.%.%.%.%.%.%.%.%.%.%.%.%.%.%.%.%.% i ' e.%.%.%.%.%.%.%.%.%.%.%.%.%.%.%.%.%.%.%.%.%.%.%.%",
".%.%.%.%.%.%.%.%.%.%.%.%.%.%.%.%.%.%.%.%.%.%.%.%.%.%.%.% U.O.s.%.%.%.%.%.%.%.%.%.%.%.%.%.%.%.%.%.%.%.%.%.%.%.%.%",
".%.%.%.%.%.%.%.%.%.%.%.%.%.%.%.%.%.%.%.%.%.%.%.%.%.%.9.a [.*.%.%.%.%.%.%.%.%.%.%.%.%.%.%.%.%.%.%.%.%.%.%.%.%.%.%",
".%.%.%.%.%.%.%.%.%.%.%.%.%.%.%.%.%.%.%.%.%.%.%.%.% M { ] J.%.%.%.%.%.%.%.%.%.%.%.%.%.%.%.%.%.%.%.%.%.%.%.%.%.%.%",
".%.%.%.%.%.%.%.%.%.%.%.%.%.%.%.%.%.%.%.%.%.%.%.%.2 R ~.%.%.%.%.%.%.%.%.%.%.%.%.%.%.%.%.%.%.%.%.%.%.%.%.%.%.%.%.%",
".%.%.%.%.%.%.%.%.%.%.%.%.%.%.%.%.%.%.%.%.%.%.% N < /.%.%.%.%.%.%.%.%.%.%.%.%.%.%.%.%.%.%.%.%.%.%.%.%.%.%.%.%.%.%",
".%.%.%.%.%.%.%.%.%.%.%.%.%.%.%.%.%.%.%.%.%.% a ! X.%.%.%.%.%.%.%.%.%.%.%.%.%.%.%.%.%.%.%.%.%.%.%.%.%.%.%.%.%.%.%",
".%.%.%.%.%.%.%.%.%.%.%.%.%.%.%.%.%.%.%.%.% N 5 (.%.%.%.%.%.%.%.%.%.%.%.%.%.%.%.%.%.%.%.%.%.%.%.%.%.%.%.%.%.%.%.%",
".%.%.%.%.%.%.%.%.%.%.%.%.%.%.%.%.%.%.%.%.% &.h.%.%.%.%.%.%.%.%.%.%.%.%.%.%.%.%.%.%.%.%.%.%.%.%.%.%.%.%.%.%.%.%.%",
".%.%.%.%.%.%.%.%.%.%.%.%.%.%.%.%.%.%.%.%.4 3 y.%.%.%.%.%.%.%.%.%.%.%.%.%.%.%.%.%.%.%.%.%.%.%.%.%.%.%.%.%.%.%.%.%",
".%.%.%.%.%.%.%.%.%.%.%.%.%.%.%.%.%.%.%.z =.d.%.%.%.%.%.%.%.%.%.%.%.%.%.%.%.%.%.%.%.%.%.%.%.%.%.%.%.%.%.%.%.%.%.%",
".%.%.%.%.%.%.%.%.%.%.%.%.%.%.%.%.%.% B <.q.%.%.%.%.%.%.%.%.%.%.%.%.%.%.%.%.%.%.%.%.%.%.%.%.%.%.%.%.%.%.%.%.%.%.%",
".%.%.%.%.%.%.%.%.%.%.%.%.%.%.%.%.%.%.p ].%.%.%.%.%.%.%.%.%.%.%.%.%.%.%.%.%.%.%.%.%.%.%.%.%.%.%.%.%.%.%.%.%.%.%.%",
".%.%.%.%.%.%.%.%.%.%.%.%.%.%.%.% x '.f.5.%.%.%.%.%.%.%.%.%.%.%.%.%.%.%.%.%.%.%.%.%.%.%.%.%.%.%.%.%.%.%.%.%.%.%.%",
".%.%.%.%.%.%.%.%.%.%.%.%.%.%.% I 6.s.%.%.%.%.%.%.%.%.%.%.%.%.%.%.%.%.%.%.%.%.%.%.%.%.%.%.%.%.%.%.%.%.%.%.%.%.%.%",
".%.%.%.%.%.%.%.%.%.%.%.%.%., r (.%.%.%.%.%.%.%.%.%.%.%.%.%.%.%.%.%.%.%.%.%.%.%.%.%.%.%.%.%.%.%.%.%.%.%.%.%.%.%.%",
".%.%.%.%.%.%.%.%.%.%.%.%.% I e F.%.%.%.%.%.%.%.%.%.%.%.%.%.%.%.%.%.%.%.%.%.%.%.%.%.%.%.%.%.%.%.%.%.%.%.%.%.%.%.%",
".%.%.%.%.%.%.%.%.%.%.% c 7 @.%.%.%.%.%.%.%.%.%.%.%.%.%.%.%.%.%.%.%.%.%.%.%.%.%.%.%.%.%.%.%.%.%.%.%.%.%.%.%.%.%.%",
".%.%.%.%.%.%.%.%.%.%.%.l l C.%.%.%.%.%.%.%.%.%.%.%.%.%.%.%.%.%.%.%.%.%.%.%.%.%.%.%.%.%.%.%.%.%.%.%.%.%.%.%.%.%.%",
".%.%.%.%.%.%.%.%.% M 1 ^.%.%.%.%.%.%.%.%.%.%.%.%.%.%.%.%.%.%.%.%.%.%.%.%.%.%.%.%.%.%.%.%.%.%.%.%.%.%.%.%.%.%.%.%",
".%.%.%.%.%.%.%.%.% . V.7.%.%.%.%.%.%.%.%.%.%.%.%.%.%.%.%.%.%.%.%.%.%.%.%.%.%.%.%.%.%.%.%.%.%.%.%.%.%.%.%.%.%.%.%",
".%.%.%.%.%.%.% N & #.%.%.%.%.%.%.%.%.%.%.%.%.%.%.%.%.%.%.%.%.%.%.%.%.%.%.%.%.%.%.%.%.%.%.%.%.%.%.%.%.%.%.%.%.%.%",
".%.%.%.%.%.% t !.g.:.%.%.%.%.%.%.%.%.%.%.%.%.%.%.%.%.%.%.%.%.%.%.%.%.%.%.%.%.%.%.%.%.%.%.%.%.%.%.%.%.%.%.%.%.%.%",
".%.%.%.%.% N ! (.%.%.%.%.%.%.%.%.%.%.%.%.%.%.%.%.%.%.%.%.%.%.%.%.%.%.%.%.%.%.%.%.%.%.%.%.%.%.%.%.%.%.%.%.%.%.%.%",
".%.%.%.%.% ) L.%.%.%.%.%.%.%.%.%.%.%.%.%.%.%.%.%.%.%.%.%.%.%.%.%.%.%.%.%.%.%.%.%.%.%.%.%.%.%.%.%.%.%.%.%.%.%.%.%",
".%.%.%.%.% ) L.%.%.%.%.%.%.%.%.%.%.%.%.%.%.%.%.%.%.%.%.%.%.%.%.%.%.%.%.%.%.%.%.%.%.%.%.%.%.%.%.%.%.%.%.%.%.%.%.%",
".%.%.%.% k , #.%.%.%.%.%.%.%.%.%.%.%.%.%.%.%.%.%.%.%.%.%.%.%.%.%.%.%.%.%.%.%.%.%.%.%.%.%.%.%.%.%.%.%.%.%.%.%.%.%",
".%.%.% = l.<.%.%.%.%.%.%.%.%.%.%.%.%.%.%.%.%.%.%.%.%.%.%.%.%.%.%.%.%.w.r.+.$.$.$.$.$.$.$.$.$ [.r.9.%.%.%.%.%.%.%",
".%.%.%.  Z.%.%.%.%.%.%.%.%.%.%.%.%.%.%.%.%.%.%.%.%.%.%.%.%.%.%.%.%.% ; |.2.%.%.%.%.%.%.%.%.%.u | }.y.%.%.%.%.%.%",
".%.%.%.  Z.%.%.%.%.%.%.%.%.%.%.%.%.%.%.%.%.%.%.%.%.%.%.%.%.%.%.%.%.%.%.%.%.%.%.%.%.%.%.%.%.%.%.%.k # k.%.%.%.%.%",
".%.%.%.  Z.%.%.%.%.%.%.%.%.%.%.%.%.%.%.%.%.%.%.%.%.%.%.%.%.%.%.%.%.%.%.%.%.%.%.%.%.%.%.%.%.%.%.%.% ~ 3.y.%.%.%.%",
".%.%.%.  Z.%.%.%.%.%.%.%.%.%.%.%.%.%.%.%.%.%.%.%.%.%.%.%.%.%.%.%.%.%.%.%.%.%.%.%.%.%.%.%.%.%.%.%.%.% G ;.&.%.%.%",
".%.%.%.  Z.%.%.%.%.%.%.%.%.%.%.%.%.%.%.%.%.%.%.%.%.%.%.%.%.%.%.%.%.%.%.%.%.%.%.%.%.%.%.%.%.%.%.%.%.%.%.. V.%.%.%",
".%.%.% D $ W.%.%.%.%.%.%.%.%.%.%.%.%.%.%.%.%.%.%.%.%.%.%.%.%.%.%.%.%.%.%.%.%.%.%.%.%.%.%.%.%.%.%.%.%.%.u $ o.%.%",
".%.%.%.% y *.t.%.%.%.%.%.%.%.%.%.%.%.%.%.%.%.%.%.%.%.%.: G G G G G G.#.$.3 G G G.1.%.%.%.%.%.%.%.%.%.% :.6 s.%.%",
".%.%.%.%.%.u ] o.%.%.%.%.%.%.%.%.%.%.%.%.%.%.% S...... 7             z.% + ; ; ; , u.%.%.%.%.%.%.%.%.%.. V.%.%.%",
".%.%.%.%.%.%.& O.$.9.%.%.%.%.%.%.%.%.%.%.% Y.$ g # C C C C C C C C C q.$ 8 M a.%.7 v Q.%.%.%.%.%.%.%.;.  d.%.%.%",
".%.%.%.%.%.%.%.%.% > _ h.%.%.%.%.%.%.%.%.%.%.%.%.%.%.%.%.%.%.%.%.%.%.%.% k 3 `.%.%.X [.>.%.%.%.%.%.% G ;.%.%.%.%",
".%.%.%.%.%.%.%.%.% j K.@.$.y f.=.%.%.%.%.%.%.% u f f f f f f.;.%.%.%.%.%.%.%.i.$ p.1 4.8.%.%.%.%.% ' 9 b.%.%.%.%",
".%.%.%.%.%.%.%.%.%.%.%.%.% } 0 _ Q Q Q Q Q Q Q ' 0 0 0 0 0 0.. Q J.%.%.%.%.%.%.% % 0.j.%.%.%.%.%.7 2 {.%.%.%.%.%",
".%.%.%.%.%.%.%.%.%.%.%.%.%.%.% H E E E E E E E.a.%.%.%.%.%.%.0 E & w.>.%.%.%.%.%.%.%.%.%.%.%.% -.o n.%.%.%.%.%.%",
".%.%.%.%.%.%.%.%.%.%.%.%.%.%.%.%.%.%.%.%.%.%.%.%.%.%.%.%.%.%.%.% G p J.%.%.%.%.%.%.%.%.%.%.%.%.-.-.%.%.%.%.%.%.%",
".%.%.%.%.%.%.%.%.%.%.%.%.%.%.%.%.%.%.%.%.%.%.%.%.%.%.%.%.%.%.%.%.%.%.$.%.%.%.%.%.%.%.%.%.%.%.%.%.%.%.%.%.%.%.%.%",
".%.%.%.%.%.%.%.%.%.%.%.%.%.%.%.%.%.%.%.%.%.%.%.%.%.%.%.%.%.%.%.%.%.%.$.%.%.%.%.%.%.%.%.%.%.%.%.%.%.%.%.%.%.%.%.%",
".%.%.%.%.%.%.%.%.%.%.%.%.%.%.%.%.%.%.%.%.%.%.%.%.%.%.%.%.%.%.%.%.%.%.$.%.%.%.%.%.%.%.%.%.%.%.%.%.%.%.%.%.%.%.%.%",
".%.%.%.%.%.%.%.%.%.%.%.%.%.%.%.%.%.%.%.%.%.%.%.%.%.%.%.%.%.%.%.%.%.%.$.%.%.%.%.%.%.%.%.%.%.%.%.%.%.%.%.%.%.%.%.%",
".%.%.%.%.%.%.%.%.%.%.%.%.%.%.%.%.%.%.%.%.%.%.%.%.%.%.%.%.%.%.%.%.9 @ `.%.%.%.%.%.%.%.%.%.%.%.%.%.%.%.%.%.%.%.%.%",
".%.%.%.%.%.%.%.%.%.%.%.%.%.%.%.%.%.%.%.%.%.%.%.%.%.%.%.%.%.%.%.% T   z.%.%.%.%.%.%.%.%.%.%.%.%.%.%.%.%.%.%.%.%.%"
};
