/* XPM */
static char *neus-r[] = {
/* width height ncolors chars_per_pixel */
"51 64 133 2",
/* colors */
"   c #000000",
" . c #AFAFAF",
" X c #ADADAD",
" o c #A9A9A9",
" O c #A5A5A5",
" + c #A3A3A3",
" @ c #A1A1A1",
" # c #9F9F9F",
" $ c #9D9D9D",
" % c #9B9B9B",
" & c #999999",
" * c #979797",
" = c #919191",
" - c #8F8F8F",
" ; c #8D8D8D",
" : c #8B8B8B",
" > c #878787",
" , c #858585",
" < c #838383",
" 1 c #818181",
" 2 c #7F7F7F",
" 3 c #797979",
" 4 c #777777",
" 5 c #737373",
" 6 c #6D6D6D",
" 7 c #696969",
" 8 c #676767",
" 9 c #656565",
" 0 c #636363",
" q c #5F5F5F",
" w c #5D5D5D",
" e c #5B5B5B",
" r c #575757",
" t c #535353",
" y c #4F4F4F",
" u c #4D4D4D",
" i c #FEFEFE",
" p c #FCFCFC",
" a c #FAFAFA",
" s c #F8F8F8",
" d c #F6F6F6",
" f c #F4F4F4",
" g c #414141",
" h c #F2F2F2",
" j c #F0F0F0",
" k c #ECECEC",
" l c #EAEAEA",
" z c #E8E8E8",
" x c #353535",
" c c #E4E4E4",
" v c #E2E2E2",
" b c #E0E0E0",
" n c #DCDCDC",
" m c #292929",
" M c #DADADA",
" N c #272727",
" B c #232323",
" V c #D4D4D4",
" C c #D2D2D2",
" Z c #D0D0D0",
" A c #CECECE",
" S c #CACACA",
" D c #C6C6C6",
" F c #B6B6B6",
" G c #B4B4B4",
" H c #010101",
" J c #B2B2B2",
" K c #B0B0B0",
" L c #AAAAAA",
" P c #A8A8A8",
" I c #A6A6A6",
" U c #A4A4A4",
" Y c #A2A2A2",
" T c #9E9E9E",
" R c #9C9C9C",
" E c #9A9A9A",
" W c #989898",
" Q c #949494",
" ! c #8C8C8C",
" ~ c #8A8A8A",
" ^ c #868686",
" / c #7E7E7E",
" ( c #7C7C7C",
" ) c #787878",
" _ c #767676",
" ` c #727272",
" ' c #707070",
" ] c #6E6E6E",
" [ c #6A6A6A",
" { c #686868",
" } c #646464",
" | c #626262",
".  c #5C5C5C",
".. c #5A5A5A",
".X c #545454",
".o c #4E4E4E",
".O c #FFFFFF",
".+ c #4C4C4C",
".@ c #FDFDFD",
".# c #F9F9F9",
".$ c #464646",
".% c #F5F5F5",
".& c #424242",
".* c #F3F3F3",
".= c #F1F1F1",
".- c #3E3E3E",
".; c #EFEFEF",
".: c #3C3C3C",
".> c #EDEDED",
"., c #EBEBEB",
".< c #E9E9E9",
".1 c #363636",
".2 c #E7E7E7",
".3 c #343434",
".4 c #E5E5E5",
".5 c #E3E3E3",
".6 c #E1E1E1",
".7 c #DDDDDD",
".8 c #D7D7D7",
".9 c #D5D5D5",
".0 c #D3D3D3",
".q c #202020",
".w c #D1D1D1",
".e c #CFCFCF",
".r c #CBCBCB",
".t c #C9C9C9",
".y c #161616",
".u c #C7C7C7",
".i c #141414",
".p c #C1C1C1",
".a c #0A0A0A",
".s c #B5B5B5",
".d c #B3B3B3",
/* pixels */
".O.O.O.O.O.O.O.O.O.O.O.O.O.O.O.O.O.O.O.O.O.O.O.O.O.O.O.O.O.O E J.O.O.O.O.O.O.O.O.O.O.O.O.O.O.O.O.O.O.O",
".O.O.O.O.O.O.O.O.O.O.O.O.O.O.O.O.O.O.O.O.O.O.O.O.O.O.O.O.O.O E.$ Q.O.O.O.O.O.O.O.O.O.O.O.O.O.O.O.O.O.O",
".O.O.O.O.O.O.O.O.O.O.O.O.O.O.O.O.O.O.O.O.O.O.O.O.O.O.O.O.O.O d.$ y.O.O.O.O.O.O.O.O.O.O.O.O.O.O.O.O.O.O",
".O.O.O.O.O.O.O.O.O.O.O.O.O.O.O.O.O.O.O.O.O.O.O.O.O.O.O.O.O.O.O u y.O.O.O.O.O.O.O.O.O.O.O.O.O.O.O.O.O.O",
".O.O.O.O.O.O.O.O.O.O.O.O.O.O.O.O.O.O.O.O.O.O.O.O.O.O.O.O.O.O.O b # X.O.O.O.O.O.O.O.O.O.O.O.O.O.O.O.O.O",
".O.O.O.O.O.O.O.O.O.O.O.O.O.O.O.O.O.O.O.O.O.O.O.O.O.O.O.O.O.O.O.O K R.O.O.O.O.O.O.O.O.O.O.O.O.O.O.O.O.O",
".O.O.O.O.O.O.O.O.O.O.O.O.O.O.O.O.O.O.O.O.O.O.O.O.O.O.O.O.O.O.O.O K R.O.O.O.O.O.O.O.O.O.O.O.O.O.O.O.O.O",
".O.O.O.O.O.O.O.O.O.O.O.O.O.O.O.O.O.O.O.O.O.O.O.O.O.O.O.O.O.O.O.O K R.O.O.O.O.O.O.O.O.O.O.O.O.O.O.O.O.O",
".O.O.O.O.O.O.O.O.O.O.O.O.O.O.O.O.O.O.O.O.O.O.O.O.O.O.O.O.O.O.O.O K R.O.O.O.O.O.O.O.O.O.O.O.O.O.O.O.O.O",
".O.O.O.O.O.O.O.O.O.O.O.O.O.O.O.O.O.O.O.O.O.O.O.O.O.O.O.O.O.O.O Z * F.O.O.O.O.O.O.O.O.O.O.O.O.O.O.O.O.O",
".O.O.O.O.O.O.O.O.O.O.O.O.O.O.O.O.O.O.O.O.O.O.O.O.O.O.O.O.O.O.O u y.O.O.O.O.O.O.O.O.O.O.O.O.O.O.O.O.O.O",
".O.O.O.O.O.O.O.O.O.O.O.O.O.O.O.O.O.O.O.O.O.O.O.O.O.O.O.O.O n T.d z.O.O.O.O.O.O.O.O.O.O.O.O.O.O.O.O.O.O",
".O.O.O.O.O.O.O.O.O.O.O.O.O.O.O.O.O.O.O.O.O.O.O.O.O.O.O.O.O.1 9.O.O.O.O.O.O.O.O.O.O.O.O.O.O.O.O.O.O.O.O",
".O.O.O.O.O.O.O.O.O.O.O.O.O.O.O.O.O.O.O.O.O.O.O.O.O.O.O.O.O.1 9.O.O.O.O.O.O.O.O.O.O.O.O.O.O.O.O.O.O.O.O",
".O.O.O.O.O.O.O.O.O.O.O.O.O.O.O.O.O.O.O.O.O.O.O.O.O.O.O.O.e ' @.O.O.O.O.O.O.O.O.O.O.O.O.O.O.O.O.O.O.O.O",
".O.O.O.O.O.O.O.O.O.O.O.O.O.O.O.O.O.O.O.O.O.O.O.O.O.O.O } /.;.O.O.O.O.O.O.O.O.O.O.O.O.O.O.O.O.O.O.O.O.O",
".O.O.O.O.O.O.O.O.O.O.O.O.O.O.O.O.O.O.O.O.O.O.O.O.O.O.0 e +.O.O.O.O.O.O.O.O.O.O.O.O.O.O.O.O.O.O.O.O.O.O",
".O.O.O.O.O.O.O.O.O.O.O.O.O.O.O.O.O.O.O.O.O.O.O.O.O 7 < h.O.O.O.O.O.O.O.O.O.O.O.O.O.O.O.O.O.O.O.O.O.O.O",
".O.O.O.O.O.O.O.O.O.O.O.O.O.O.O.O.O.O.O.O.O.O p.u.u.- o.O.O.O.O.O.O.O.O.O.O.O.O.O.O.O.O.O.O.O.O.O.O.O.O",
".O.O.O.O.O.O.O.O.O.O.O.O.O.O.O.O.O.O.O.O.O.O R ^ ^ a.O.O.O.O.O.O.O.O.O.O.O.O.O.O.O.O.O.O.O.O.O.O.O.O.O",
".O.O.O.O.O.O.O.O.O.O.O.O.O.O.O.O.O.O.O.O a.7 w.O.O.O.O.O.O.O.O.O.O.O.O.O.O.O.O.O.O.O.O.O.O.O.O.O.O.O.O",
".O.O.O.O.O.O.O.O.O.O.O.O.O.O.O.O.O.O.O.O T ' M.O.O.O.O.O.O.O.O.O.O.O.O.O.O.O.O.O.O.O.O.O.O.O.O.O.O.O.O",
".O.O.O.O.O.O.O.O.O.O.O.O.O.O.O.O.O.O p.*.X.O.O.O.O.O.O.O.O.O.O.O.O.O.O.O.O.O.O.O.O.O.O.O.O.O.O.O.O.O.O",
".O.O.O.O.O.O.O.O.O.O.O.O.O.O.O.O.O.O R...5.O.O.O.O.O.O.O.O.O.O.O.O.O.O.O.O.O.O.O.O.O.O.O.O.O.O.O.O.O.O",
".O.O.O.O.O.O.O.O.O.O.O.O.O.O.O.O.O.O.o.O.O.O.O.O.O.O.O.O.O.O.O.O.O.O.O.O.O.O.O.O.O.O.O.O.O.O.O.O.O.O.O",
".O.O.O.O.O.O.O.O.O.O.O.O.O.O.O.O G.a.5.O.O.O.O.O.O.O.O.O.O.O.O.O.O.O.O.O.O.O.O.O.O.O.O.O.O.O.O.O.O.O.O",
".O.O.O.O.O.O.O.O.O.O.O.O.O.O.O.O 3 = d.O.O.O.O.O.O.O.O.O.O.O.O.O.O.O.O.O.O.O.O.O.O.O.O.O.O.O.O.O.O.O.O",
".O.O.O.O.O.O.O.O.O.O.O.O.O.O.> C 6.O.O.O.O.O.O.O.O.O.O.O.O.O.O.O.O.O.O.O.O.O.O.O.O.O.O.O.O.O.O.O.O.O.O",
".O.O.O.O.O.O.O.O.O.O.O.O.O.O % H.O.O.O.O.O.O.O.O.O.O.O.O.O.O.O.O.O.O.O.O.O.O.O.O.O.O.O.O.O.O.O.O.O.O.O",
".O.O.O.O.O.O.O.O.O.O.O.O f M /.t.O.O.O.O.O.O.O.O.O.O.O.O.O.O.O.O.O.O.O.O.O.O.O.O.O.O.O.O.O.O.O.O.O.O.O",
".O.O.O.O.O.O.O.O.O.O.O.> 1 5.O.O.O.O.O.O.O.O.O.O.O.O.O.O.O.O.O.O.O.O.O.O.O.O.O.O.O.O.O.O.O.O.O.O.O.O.O",
".O.O.O.O.O.O.O.O.O.O E q.8.O.O.O.O.O.O.O.O.O.O.O.O.O.O.O.O.O.O.O.O.O.O.O.O.O.O.O.O.O.O.O.O.O.O.O.O.O.O",
".O.O.O.O.O.O.O.O.O l 3 ].O.O.O.O.O.O.O.O.O.O.O.O.O.O.O.O.O.O.O.O.O.O.O.O.O.O.O.O.O.O.O.O.O.O.O.O.O.O.O",
".O.O.O.O.O.O.O.O & ` V.O.O.O.O.O.O.O.O.O.O.O.O.O.O.O.O.O.O.O.O.O.O.O.O.O.O.O.O.O.O.O.O.O.O.O.O.O.O.O.O",
".O.O.O.O.O.O.O., [ 6.O.O.O.O.O.O.O.O.O.O.O.O.O.O.O.O.O.O.O.O.O.O.O.O.O.O.O.O.O.O.O.O.O.O.O.O.O.O.O.O.O",
".O.O.O.O.O.O R /.9.O.O.O.O.O.O.O.O.O.O.O.O.O.O.O.O.O.O.O.O.O.O.O.O.O.O.O.O.O.O.O.O.O.O.O.O.O.O.O.O.O.O",
".O.O.O.O.O j t '.O.O.O.O.O.O.O.O.O.O.O.O.O.O.O.O.O.O.O.O.O.O.O.O.O.O.O.O.O.O.O.O.O.O.O.O.O.O.O.O.O.O.O",
".O.O.O.O Y 1 M.O.O.O.O.O.O.O.O.O.O.O.O.O.O.O.O.O.O.O.O.O.O.O.O.O.O.O.O.O.O.O.O.O.O.O.O.O.O.O.O.O.O.O.O",
".O.O.O.#.3 _.O.O.O.O.O.O.O.O.O.O.O.O.O.O.O.O.O.O.O.O.O.O.O.O.O.O.O.O.O.O.O.O.O.O.O.O.O.O.O.O.O.O.O.O.O",
".O.O X / v.O.O.O.O.O.O.O.O.O.O.O.O.O.O.O.O.O.O.O.O.O.O.O.O.O.O.O.O.O.O.O.O.O.O.O.O.O.O.O.O.O.O.O.O.O.O",
".O.O.y ,.O.O.O.O.O.O.O.O.O.O.O.O.O.O.O.O.O.O.O.O.O.O.O.O.O.O.O.O.O.O.O.O.O.O.O.O.O.O.O.O.O.O.O.O.O.O.O",
".O.O.y ,.O.O.O.O.O.O.O.O.O.O.O.O.O.O.O.O.O.O.O.O.O.O.O.O.O.O.O.O.O.O.O.O.O.O.O.O.O.O.O.O.O.O.O.O.O.O.O",
".O I -.r.O.O.O.O.O.O.O.O.O.O.O.O.O.O.O.O.O.O.O.O.O.O.O.O.O.O.O.O.O.O.O.O.O.O.O.O.O.O.O.O.O.O.O.O.O.O.O",
".q Q p.O.O.O.O.O.O.O.O.O.O.O.O.O.O.O.O.O.O.O.O.O.O.O.O.O.O.O.>.w o.o.o.o.o.o.o.o.o.o.o.p.w.%.O.O.O.O.O",
"   %.O.O.O.O.O.O.O.O.O.O.O.O.O.O.O.O.O.O.O.O.O.O.O.O.O.O.O.O.r ( U.O.O.O.O.O.O.O.O.O.O ! ( ;.O.O.O.O.O",
"   %.O.O.O.O.O.O.O.O.O.O.O.O.O.O.O.O.O.O.O.O.O.O.O.O.O.O.O.O.O.O.O.O.O.O.O.O.O.O.O.O.O.O.O. .2 s.O.O.O",
"   %.O.O.O.O.O.O.O.O.O.O.O.O.O.O.O.O.O.O.O.O.O.O.O.O.O.O.O.O.O.O.O.O.O.O.O.O.O.O.O.O.O.O.O.= 9 :.O.O.O",
"   %.O.O.O.O.O.O.O.O.O.O.O.O.O.O.O.O.O.O.O.O.O.O.O.O.O.O.O.O.O.O.O.O.O.O.O.O.O.O.O.O.O.O.O.O.O y.@ i.O",
"   %.O.O.O.O.O.O.O.O.O.O.O.O.O.O.O.O.O.O.O.O.O.O.O.O.O.O.O.O.O.O.O.O.O.O.O.O.O.O.O.O.O.O.O.O.O.@   $.O",
" $ 3.=.O.O.O.O.O.O.O.O.O.O.O.O.O.O.O.O.O.O.O.O.O.O.O.O.O.O.O.O.O.O.O.O.O.O.O.O.O.O.O.O.O.O.O.O i $ 3 |",
".O.* N -.O.O.O.O.O.O.O.O.O.O.O.O.O.O.O.O.O.O.O.O M D D D D D *.o.: 1 D D A.O.O.O.O.O.O.O.O.O.O.@.i W.,",
".O.O = 2 z.O.O.O.O.O.O.O.O.O.O.O.O.O.O.O - ) ) ) m           9.O M > > > ,.d.O.O.O.O.O.O.O.O.O.@   $.O",
".O.O.O.< 9 ! d.O.O.O.O.O.O.O.O.O.O.O w.o.& V V V V V V V V V #.o.o O c.O.# ~ x.O.O.O.O.O.O.O.O.4 B L.O",
".O.O.O.O.O.p ^.s.O.O.O.O.O.O.O.O.O.O.O.O.O.O.O.O.O.O.O.O.O.O.O.O.O P 4 S.O.p ` F.O.O.O.O.O.O.O.o.O.O.O",
".O.O.O.O.O.O.e *.o 3 h f.O.O.O.O.O.O.O.O f h h h h h h.@.O.O.O.O.O.O.= <.+ -.2 |.O.O.O.O.O.> g &.O.O.O",
".O.O.O.O.O.O.O.O.O V e { U U U U U U U U 8 e e e e e e % U k.O.O.O.O.O.O.< e 0.O.O.O.O.O.O K e A.O.O.O",
".O.O.O.O.O.O.O.O.O.O.O j P P P P P P P P j.O.O.O.O.O.O.d P { &.O.O.O.O.O.O.O.O.O.O.O.O.6 r #.O.O.O.O.O",
".O.O.O.O.O.O.O.O.O.O.O.O.O.O.O.O.O.O.O.O.O.O.O.O.O.O.O.O.O 6 5 l.O.O.O.O.O.O.O.O.O.O.O.@ d.@.O.O.O.O.O",
".O.O.O.O.O.O.O.O.O.O.O.O.O.O.O.O.O.O.O.O.O.O.O.O.O.O.O.O.O.O E J.O.O.O.O.O.O.O.O.O.O.O.O.O.O.O.O.O.O.O",
".O.O.O.O.O.O.O.O.O.O.O.O.O.O.O.O.O.O.O.O.O.O.O.O.O.O.O.O.O.O E J.O.O.O.O.O.O.O.O.O.O.O.O.O.O.O.O.O.O.O",
".O.O.O.O.O.O.O.O.O.O.O.O.O.O.O.O.O.O.O.O.O.O.O.O.O.O.O.O.O.O E J.O.O.O.O.O.O.O.O.O.O.O.O.O.O.O.O.O.O.O",
".O.O.O.O.O.O.O.O.O.O.O.O.O.O.O.O.O.O.O.O.O.O.O.O.O.O.O.O.O.O E J.O.O.O.O.O.O.O.O.O.O.O.O.O.O.O.O.O.O.O",
".O.O.O.O.O.O.O.O.O.O.O.O.O.O.O.O.O.O.O.O.O.O.O.O.O.O.O.O.O . ,.w.O.O.O.O.O.O.O.O.O.O.O.O.O.O.O.O.O.O.O",
".O.O.O.O.O.O.O.O.O.O.O.O.O.O.O.O.O.O.O.O.O.O.O.O.O.O.O.O.O.1 9.O.O.O.O.O.O.O.O.O.O.O.O.O.O.O.O.O.O.O.O"
};
