/* XPM */
static char *noname[] = {
/* width height ncolors chars_per_pixel */
"64 64 8 1",
/* colors */
"  c #000000",
". c #FEFEFE",
"X c #FCFCFC",
"o c #030303",
"O c #010101",
"+ c #FFFFFF",
"@ c #FDFDFD",
"# c #020202",
/* pixels */
"+++++++++++++++++++++.+++++++++++++++++.+ +++++.++++++++++++++++",
"++++++++++++++++++..++.++.++++@++++.+.++.++++.++++++++++++++++++",
"++++++++++++++++.+++++.+.++++++++++.+++++   +.++++++++++++++++++",
"++++++++++++++++++++..++++.++++++  +++.++ O.++..++++++++++++++++",
"++++++++++++++++.+..+.+++.++..+@ ++   ++.++ O.++++++++++++++++++",
"+++++++++++++++++.+++++.++.+++++ .+   O++++  +@+++++++++++++++++",
"++++++++++++++++.+.+++++.O     +. ++++ O ++.+#++++++++++++++++++",
"+++++++++++++++++++.++      +OO  +.++ O O .+ @+.++++++++++++++++",
"++++++++++++++.++++.++    O +.+   +++++++.#+++ +++++++++++++++++",
"++++++++++.+++..+++++. O     # #++.++.+++#.++ ++++++++++++++++++",
"++++++++++.++++++.++.++ OO O+@+.++.++++.+@+++   ++++++++++++++++",
"+++++++++++++..++++.++++  ++++++@++.++..++++ +O ++++++++++++++++",
"+++++++++.+.++++++.++..+.++ ++.+++@++++++++.O   ++++++++++++++++",
"+++++++++.++..+.@++.++++++. +.++.+++.+.   O   ++++++++++++++++++",
"+++++++++.++.++++.+++++.+++ ++.++++.+. O   O+ O+++++++++++++++++",
"++++++++++  O    +++++.+++++ +.++@+  O   +++. O+++++++++++++++++",
"+++++.++++ O    +++  +   O O .    O  ++++@+.++O +++.++.+++++++++",
"++..++.+++   OO   o   O  .+@O   O  +.++.++@+++  .+++.++.++++++++",
".+++++.+++++++@++.+      O   O  .++++++++.+..  #++.++..+++++++++",
"++++..++++++  #  o +++.++.    ++++++++.++.++  O +.+..++.++++++++",
".+..+.+++ O     O  O ++++  +O .++.+++.+.++O  ++  +.++++.++++++++",
"+.+++++.+OO   ++O #   ++  ++  +++++++++.+   ++.  +..+.++++++++++",
".+.+++++ O O++.+++   O+  +++  +++.++++++.OO .++OO +++++.++++++++",
"+++.++    +++++++@++   ++O    .+.++.+.   +.+++++O+++++++++++++++",
"+.++++    +.+.++O+@+  O +O      +.++.+O  .+++.+. ++.+++++.++..++",
".+++.+   #.+++.+ ++ OO O+      +O ++.# +++++++++  O O+.++++X++@+",
"++.+.+ O++ ++.++.+  +.  O  +   @.+.   +.+.++. O  # O    +++++@+.",
".++++   +.++.++++  +.+ O ++ +  OO+   +++.+++ #      O O  +++.+.+",
"+++.+  ++++ ++.+   .+.O O+    OO  O++++++.++      + . O O.++++++",
"+@+++  +++++++. OO++.+   + .+   O   ++++.+@   O+  +O++    .++.++",
".+.+. O@.++.+     #  #  #  O +#   O ..+@++  O+.. O@.++.+ OO.++++",
"+++++  ++++++ + OO O         O.   + ++.+++ O. +++ +++.+.+   +.++",
"+++++  +++++   +    +.   ++.   O  + +++++   + +++ .++++++   +++.",
".+.+. O@++ ++++  +.+++  O+ +    O ++++++.O O++ +. #@+.+++OO ++@+",
"+@+++  +.#+..++++O++.. O +@.+   .+.+++++.  ..++++   ++@     ++++",
"+++.+  ++.++++++.. +++   ++ .+.++.+++++++O ++.. .O  ++++++ O .++",
".++++   ++++@++++.+ ++ O +++.++++.# +. +.O ++++++ O++.+++. O ++.",
"++.+.+ O.+.++@+ ++@+++O ++.++.+..++  O +  O+.++.+   ++.+++ OO+.+",
".+++.+   ++@+++O+++++   +++...++++. O @.  O+++.++O O++++++   +++",
"+.++++    ++++++++++. O ++++++.+.++   +++  ++++.  O ++.+++O  +++",
"++++..+   . ++ ++++  O+++++++++++.+ +++++O +++ +.+++ +++++ O +.+",
"++.++++ O  O  +++++   ++++++++++.+++++.++  .+ +++++.+ ++++  O@++",
".++..+.+ O   +++   O  +.+++++++++.@+++++.  + .+++.++++ ++. O@+++",
"+++.++++++ #     O  +++++++++++++.+++.+.+ O .+++++.+++++.   ++++",
"+@+++++.+++   O  O ++..+++++++++.+.++++++O O+..++++++..++ O ++.+",
"++++.+.++++++    +++++++++++++++++++.+.++ O .+++++..+++++   .++.",
".++++.+++.++.++++@.+++.+++++++++++++++.+++ O +.++++++++. O +++++",
"++++++.++++++++..+++++++++++++++++++.+++.++   O+++ +.+    +++.+.",
"++++++++++++++++++++++++++++++++++++++++++.+ O  + .+++   ++.+++.",
"+++++++++++++++++++++++++++++++++++++++++++.   O  O      ++++.++",
"++++++++++++++++++++++++++++++++++++++++++@+++O O    OO++++..++.",
"++++++++++++++++++++++++++++++++++++++++++++..+.  o   ..++++.+++",
"++++++++++++++++++++++++++++++++++++++++++++++++++@++.++.+++++@+",
"+++++++++++++++++++++++++++++++++++++++++++++.+.+++++.+++.+.++++",
"+++++++++++++++++++++++++++++++++++++++++++++++++.++.+++++.++++.",
"++++++++++++++++++++++++++++++++++++++++.+++++++++.+.+++++++++++",
"++++++++++++++++++++++++++++++++++++++++++++++++++++++++++++++++",
"++++++++++++++++++++++++++++++++++++++++++++++++++++++++++++++++",
"++++++++++++++++++++++++++++++++++++++++++++++++++++++++++++++++",
"++++++++++++++++++++++++++++++++++++++++++++++++++++++++++++++++",
"++++++++++++++++++++++++++++++++++++++++++++++++++++++++++++++++",
"++++++++++++++++++++++++++++++++++++++++++++++++++++++++++++++++",
"++++++++++++++++++++++++++++++++++++++++++++++++++++++++++++++++",
"++++++++++++++++++++++++++++++++++++++++++++++++++++++++++++++++"
};
