/* XPM */
static char *noname[] = {
/* width height ncolors chars_per_pixel */
"64 64 7 1",
/* colors */
"  c #000000",
". c #FEFEFE",
"X c #FCFCFC",
"o c #010101",
"O c #FFFFFF",
"+ c #FDFDFD",
"@ c #020202",
/* pixels */
"OOOOOOOOOOOOOOOOOOOOOOOOOOO.OO.O   O  o       o                 ",
"OOOOOOOOOOOOOOOOOOOOOOOO.OOO.OO    o o   o o o                  ",
"OOOOOOOOOOOOOOOOOOOOOOOOOO.OO.O  o   o    o  o                  ",
"OOOOOOOOOOOOOOOOOOOOOOOO+OO.O  o      o  o @  @                 ",
"OOOOOOOOOOOOOOOOOOOOOOOOOO.OOo   o      oo  o  o                ",
"OOOOOOOOOOOOOOOOOOOOOOOOO.O.   o    o  @  o  o                  ",
"OOOOOOOOOOOOOOOOOOOOOOOOOO. @ o o        o  O.O                 ",
"OOOOOOOOOOOOOOOOOOOOOOOOO.o  o   OOO      o .OOO                ",
"OOOOOOOOOOOOOOOOOOOOOOOOO    o   o .Oo   o OO.OOO    o          ",
"OOOOOOOOOOOOOOOO.O.OOOOOO     o   o OO o  OOOOO.O oo  @         ",
"OOOOOOOOOOOOOOOOOOO.OOO.Oo oO.    o o .oo .OO.O.OO  o           ",
"OOOOOOOOOOOOOOOOOOOOOOOO.   OOOOOo         OOO.OOO     o        ",
"OOOOOOOOOOOOOOOOO+OOO..Oo  @ O.O.O o@    oo..OO..OO o @         ",
"OOOOOOOOOOOOOOOO.O.OOOOo o  @OOOOOo  o   O OOO+OOOOo            ",
"OOOOOOOOOOOOOOOOO..OO.o   oo    O..@  O o  O.OOOOO.   oo        ",
"OOOOOOOOOOOOOOOOOOO oo  o  o o    O o .OOo.OO.OOOOO             ",
"OO.OOOOOOOOO.OOOO  o      O.Oo  o o  O O.OOOOOOOOO  o           ",
"O.O.+OOO.O..O.OO.     o    OOO o o   O OO..OOOOOO@     o        ",
"OO.OOO+OO.OOOOO. oo oo   @   Oo    @   OOOOOO.OO    o           ",
"OO..OOOO.OOOOO o    O     o   .  @OXO.OO+OOO.OO  o@   @         ",
"OOOOO+O  o   o  o OOO @  O oo o   OO.O.OOO..Oo oo    o          ",
".O.OO      @     O.OOO      o  o  oOOO.O.  o       oo  o        ",
"OOOO   oo    ooOOO.OOOOoo O   o  O .OOO o       oo o  @         ",
"OOOO o  .O.OOO.OO+OOOOOO @   o.o   O                o           ",
"O.O   OOOOOOOOOOOOOOOOOO   o  OOO oo                           O",
"OO ooOO.OOOOOOOOOOOOOOOOO o oo..O    o                       o O",
"OO   OOOOOOOOOOOOOOOOOOO.O    OO o oo  o                    o  O",
"O.o OOOOOOOOOOOOOOOOOOOOOO  O       o                     o    O",
".o  O.OOOOOOOOOOOOOOOOOO  O oo oo     @                     ooOO",
"O   OOOOOOOOOOOOOOOOOOOOOOO.  o  o o                       o  .O",
"+oo .OOOOOOOOOOOOOOOOOOOOO.Oo  o  o    o                      OO",
"O   OO+OOOOOOOOOOOOOOOOOOO.o     o                       o   o.O",
"   o  OOO.OOOO.OO+OOOOOO                                      OO",
"o     @O.OO..OO.OOO.OOO                                   o   OO",
"   o    .O.OOOOOOO.OO o                                     o@.O",
" @   @o    OO+OO     o                                    o   OO",
"  o    o o   o   oo o                                    o    O.",
"o  oo    o    oo     o                                    o ooOO",
" @  o oo o  oo  o  o                                    o  o .O.",
"   o    o           o                                     o oO.O",
"                                                             OOO",
"                                                          o  .O.",
"                                                         o  OOOO",
"                                                          o OOXO",
"                                                        o o O.OO",
"                                                         o  .OO.",
"                                                        @ o .OOO",
"                                                         o OOO.O",
"                                  o   O.O   o  o          oO.OOO",
"                                o    OOOO                oOOOO.O",
"                                o   oOOOO. o o@  @  oo oo.OOO.O.",
"                                 @ @.OOOOO  o     @    .OOO..OOO",
"                                o   .OOOOOO   o      oOOOO.OOO..",
"                                 o  OO.OOOO o o  o  O.O.OO.OO.OO",
"                                   O.OOOOO.O o   O.OO..OO.O.OOOO",
"                                  oO.OOOOOOO.OOOOOOO.O.OOOOOOOOO",
"O    o  o     o   o               OO.OOOOOOOOOOOOOOOOOOOOOOOOOOO",
"Oooo  o       oo o   o @ o  o  o +OOOOO.OOOOOOOOOOOOOOOOOOOOOOOO",
".O  o  o        o o @   o oOO. .OOOO.OOOOOOOOOOOOOOOOOOOOOOOOOOO",
"O.O    o   o  oo     @ o  OOOOOOO.+OOO+OOOOOOOOOOOOOOOOOOOOOOOOO",
"OOO.o oOOO   o        o o.O.OO.O.OOOO.OOOOOOOOOOOOOOOOOOOOOOOOOO",
"OO+OO.OOOOO    o  OO o @.OOOOO..OOO..OO.OOOOOOOOOOOOOOOOOOOOOOOO",
"OOO.OO.OO.. @ o  O.OO  .OOOOO.OO..O.OO+OOOOOOOOOOOOOOOOOOOOOOOOO",
".OOOOOOOOOOO.   OOOOO.OOO.OOOOOOOOOO.OOOOOOOOOOOOOOOOOOOOOOOOOOO"
};
