/* XPM */
static char *oog-r[] = {
/* width height ncolors chars_per_pixel */
"64 37 212 2",
/* colors */
"   c #000000",
" . c #B1B1B1",
" X c #AFAFAF",
" o c #ADADAD",
" O c #ABABAB",
" + c #A9A9A9",
" @ c #A7A7A7",
" # c #A5A5A5",
" $ c #A3A3A3",
" % c #A1A1A1",
" & c #9F9F9F",
" * c #9D9D9D",
" = c #9B9B9B",
" - c #999999",
" ; c #979797",
" : c #939393",
" > c #919191",
" , c #8F8F8F",
" < c #8D8D8D",
" 1 c #8B8B8B",
" 2 c #898989",
" 3 c #878787",
" 4 c #858585",
" 5 c #838383",
" 6 c #818181",
" 7 c #7F7F7F",
" 8 c #7D7D7D",
" 9 c #7B7B7B",
" 0 c #797979",
" q c #777777",
" w c #757575",
" e c #737373",
" r c #717171",
" t c #6F6F6F",
" y c #6D6D6D",
" u c #6B6B6B",
" i c #696969",
" p c #676767",
" a c #656565",
" s c #636363",
" d c #616161",
" f c #5F5F5F",
" g c #5D5D5D",
" h c #5B5B5B",
" j c #595959",
" k c #575757",
" l c #555555",
" z c #535353",
" x c #515151",
" c c #4F4F4F",
" v c #4D4D4D",
" b c #FEFEFE",
" n c #4B4B4B",
" m c #FCFCFC",
" M c #494949",
" N c #FAFAFA",
" B c #474747",
" V c #F8F8F8",
" C c #454545",
" Z c #F6F6F6",
" A c #434343",
" S c #F4F4F4",
" D c #F2F2F2",
" F c #3D3D3D",
" G c #EEEEEE",
" H c #3B3B3B",
" J c #ECECEC",
" K c #393939",
" L c #EAEAEA",
" P c #373737",
" I c #E8E8E8",
" U c #353535",
" Y c #E6E6E6",
" T c #333333",
" R c #E4E4E4",
" E c #313131",
" W c #E2E2E2",
" Q c #E0E0E0",
" ! c #2D2D2D",
" ~ c #DEDEDE",
" ^ c #2B2B2B",
" / c #DCDCDC",
" ( c #292929",
" ) c #DADADA",
" _ c #272727",
" ` c #D8D8D8",
" ' c #D6D6D6",
" ] c #232323",
" [ c #D4D4D4",
" { c #D2D2D2",
" } c #D0D0D0",
" | c #CECECE",
".  c #1B1B1B",
".. c #CCCCCC",
".X c #CACACA",
".o c #C8C8C8",
".O c #C6C6C6",
".+ c #C4C4C4",
".@ c #C2C2C2",
".# c #C0C0C0",
".$ c #0D0D0D",
".% c #BEBEBE",
".& c #BCBCBC",
".* c #BABABA",
".= c #B8B8B8",
".- c #B6B6B6",
".; c #B4B4B4",
".: c #B2B2B2",
".> c #B0B0B0",
"., c #AEAEAE",
".< c #ACACAC",
".1 c #AAAAAA",
".2 c #A8A8A8",
".3 c #A6A6A6",
".4 c #A4A4A4",
".5 c #A2A2A2",
".6 c #A0A0A0",
".7 c #9E9E9E",
".8 c #9C9C9C",
".9 c #9A9A9A",
".0 c #989898",
".q c #969696",
".w c #949494",
".e c #929292",
".r c #909090",
".t c #8E8E8E",
".y c #8C8C8C",
".u c #8A8A8A",
".i c #888888",
".p c #868686",
".a c #848484",
".s c #828282",
".d c #808080",
".f c #7E7E7E",
".g c #7C7C7C",
".h c #7A7A7A",
".j c #787878",
".k c #767676",
".l c #747474",
".z c #727272",
".x c #707070",
".c c #6E6E6E",
".v c #6C6C6C",
".b c #6A6A6A",
".n c #686868",
".m c #666666",
".M c #646464",
".N c #626262",
".B c #606060",
".V c #5E5E5E",
".C c #5C5C5C",
".Z c #585858",
".A c #565656",
".S c #545454",
".D c #525252",
".F c #505050",
".G c #FFFFFF",
".H c #4C4C4C",
".J c #FDFDFD",
".K c #4A4A4A",
".L c #FBFBFB",
".P c #484848",
".I c #F9F9F9",
".U c #464646",
".Y c #F7F7F7",
".T c #444444",
".R c #F5F5F5",
".E c #424242",
".W c #F3F3F3",
".Q c #404040",
".! c #F1F1F1",
".~ c #EFEFEF",
".^ c #3C3C3C",
"./ c #EDEDED",
".( c #3A3A3A",
".) c #EBEBEB",
"._ c #E9E9E9",
".` c #363636",
".' c #E7E7E7",
".] c #343434",
".[ c #E5E5E5",
".{ c #323232",
".} c #E3E3E3",
".| c #303030",
"X  c #E1E1E1",
"X. c #2E2E2E",
"XX c #DFDFDF",
"Xo c #2C2C2C",
"XO c #DDDDDD",
"X+ c #2A2A2A",
"X@ c #DBDBDB",
"X# c #282828",
"X$ c #D9D9D9",
"X% c #D7D7D7",
"X& c #D5D5D5",
"X* c #D3D3D3",
"X= c #D1D1D1",
"X- c #CFCFCF",
"X; c #CDCDCD",
"X: c #CBCBCB",
"X> c #C9C9C9",
"X, c #C7C7C7",
"X< c #C5C5C5",
"X1 c #121212",
"X2 c #C3C3C3",
"X3 c #C1C1C1",
"X4 c #BFBFBF",
"X5 c #BDBDBD",
"X6 c #0A0A0A",
"X7 c #B9B9B9",
"X8 c #B7B7B7",
"X9 c #B5B5B5",
/* pixels */
".G.G.G.G.G.G.G.G.G.G.G.G.G.G.G.G.G.G.G.G.G.G.G.G.G.G.G.G.G.G.G.G.G.G.G.G.G.G.G.G.G.G.G.G.G.G.G.G.G.G.G.G.G.G.G.G.G.G.G.G.G.G.G.G",
".G.G.G.G.G.G.G.G.G.G.G.G.G.G.G.G.G.G.G.G.G.G.G.G.G.G.G.G.G.G.G : S S S S SXO.7.J.G.G.GX;.%.G.G.G.G.G.G.G.G.G.G.G.G.G.G.G.G.G.G.G",
".G.G.G.G.G.G.G.G.G.G.G.G.G.G.G.G.G.G.G.G.%.G.G.G.G.G.G.G R.8.8.9 ] s s s s.A.|.e.8.:.G j.G.G.G.G.G.G.G.G.G.G.G.G.G.G.G.G.G.G.G.G",
".G.G.G.G.G.G.G.G.G.G.G.G.G.G.G.G.G.G.G.G.D ,.L.G./ L.M.F.l.&.&.& >.o.G.G.G / 9X,.&.3 j C L b.G.G.G.G.G.G.G.G.G.G.G.G.G.G.G.G.G.G",
".G.G.G.G.G.G.G.G.G.G.G.G.G.G.G.G.G.G.G.G.~.^ w > e.cX;.s.Y.G.G.GX:.y.G.G.G / 9.G.G.GX3 (.c , `.G.G.G.G.G.G.G.G.G.G.G.G.G.G.G.G.G",
".G.G.G.G.G.G.G.G.G.G.G.G.G.G.G S.R.G.G.G.'.i.].3.!.G.G ~ r.W.G.G.GX-.i.G.GX XoXO.G.G t.+.GX> 7 K o.G.G.G.G.G.G.G.G.G.G.G.G.G.G.G",
".G.G.G.G.G.G.G.G.G.G.G.G.G.G.G { 4.G.GX;.g.-.).^ 2.G.G.G d.S.L.G.G V.,.G.G.G.a [.G.[ 7.W.G.G.GX+ 0X9.G.G.G.G.G.G.G.G.G.G.G.G.G.G",
".G.G.G.G.G.G.G.G.G.G.G.G.G.G.G.GX4X. E 1 S.G.G I v.E...G D i.y.}X&X&X&X&X&X&.%X;X&X:X3.L.G D 4 Q.J $ BX&.R.G.G.G.G.G.G.G.G.G.G.G",
".G.G.G.G.G.G.G.G.G.G.G.G.G.G.G [ ^ 5 !.:.G.G.G.G.G.&.6.G 4.g.g 6 5 5 5 5 5 5 5 5 5 5 5 8.g.fX*.G.G.G.9  .x.G.G.G.G.G.G.G.G.G.G.G",
".G.G.G.G.G.G.G.G.G.G.G.G.GX;.s.a /.G ).T A W.G.G { < j j {X@X@.W.G.x.G /.7.X :.}.G.G.G ~.k.$.U.X...).sX@ y.}.G.G.G.G.G.G.G.G.G.G",
".G.G.G.G.G.G.G.G.G $.G.G O 1 '.G.G.G.G.G.2 6.z.z 2X:.G.G `.X $.J # o.1 n.f.+ 9 Y.&.G.G.G.G.n # <.|.g Q.G.!.@.G.G.G.G.G.G.G.G.G.G",
".G.G.G.G.G.G.G.G.G z w K o b.G.G.G.G.LX4.Q q Y Y.L.G.G.G |.m &.>.cXXX6.8 r a D.M {.Y.G.G.G.Y d b G.> P )X3 j Q.G.G.G.G.G.G.G.G.G",
".G.G.G.G.G.G.G.G.G p.S (.@.G.G.G.G.O.b.0 UX,.G.G.G.G.G.G jX4.j 0.4.,.0X@.s.8.-.5 0 ~.G.G.G.G.& =.G.G.; 5 -.G.G.G.G.G.G.G.G.G.G.G",
".G.G.G.G.G Z `.W f.M.I D.q jX2.- q.e D =X5.G.G.G.G.GX- & 1.# ~.1.S l j.7., J.2 : +./XX.G.G.G.G t I.G.G.:.| `.GX$.+.G.G.G.G.G.G.G",
".G.G.G.G.G S.s v.S D.G.G.G a.C.5X .G S.`.@.G.G.G.G.G *.CX8.G q.4.G.G.G.* $ 6.GX2.1.vX%.G.G.G.G @.>.G.G.G.4 q.[.d.-.G.G.G.G.G.G.G",
".G.o.G.G.G.G.J e k.>.G.7 j D.L.G.G.G G.n b.G.G.GXX j.6X%.* K.Y.G.G.G.G.G.G Y.dX*.,.:.g.!.G.G.GX< _.G.G.G.G X.^.J.G.G.G.G.G.G.G.G",
".GX2.A...L.G.G.G.G.5 jX7.G.G.G.G.G.G L.c.G.G.G.G b m.-XO q Q.G N.L.G.G.G.G.G 3 }.2.5X@.G.G.G.G.G j.G.G.G.G.G X l Y.G.G.G.G.G.G.G",
".G.GX3 k C.6X;.~.6 2.G.G.G.G.G.G.G.G j.G.G.G.G.G Q.s.-.o.r.GX .` K.}.G.G.G.G.G.P {.<.6X7.G.G.G.G j.G.G.G.G.G.G.,.1.G.G.G.G.G.G.G",
".G.G.G.I.=.-.o.a.=.R.G.G.G.G.G.G.G.G j.G.G.G.G.G ,X,X, u./.G.`.h.k.;.G.G.G.G.G $.p ..3 E.%.G.G.G j.G.G.G.G.G.G.G X O.J.G.G.G.G.G",
".G.G.G.G.G.9.{ R.G.G.G.G.G.G.G.G.G.G j.G.G.G.G.G W.bX&.g S.G v s.pX*.G.G.G.G.G {.p 8.b D.G.G.G.G j.G.G.G.G.G.G.G.G o O.G.G.G.G.G",
".G.G.G L.2 OXX.G.G.G.G.G.G.G.G.G.G.G j.G.G.G.G.<.l.}.#.w.G.G J.@ `.G.G.G.G.G.G {.p.I.} a.%.G.G.G j.G.G.G.G.G.G.G.G.G.2.>.G.G.G.G",
".G.G {X..>.G.G.G.G.G.G.G.G.G.G.G.G.G j.G.G.G.G.G R.lX- 6.Y.G.G.G.G.G.G.G.G.G.G {.p 9  ._.G.G.G.G j.G.G.G.G.G.G.G.G.GXO.s V.G.G.G",
".G V C.y.G.G.G.G.G.G.G.G.G.G.G.G.G.G t._.G.G.G J.# j.d u./.G.G.G.G.G.G.G.G.G.G.#.0.*X;.t.G.G.G.G j.G.G.G.G.G.G.G.G.G.G.fX$.G.G.G",
".G.G.G j.G.G.G.G.G.G.G.G.G.G.G.G.G.G G.b.G.G.GX4.0.*.7X9 $.G.G.G.G.G.G.G.G.G.@ A.G.r.d S.G.G.G.G j.G.G.G.G.G.G.G.G.G.G.G j.G.G.G",
".G.G.G p.a.G.G.G.G.G.G.G.G.G.G.G.G.G G l.W.G.G.GXX.7 ' | @ o.G.G.G.G.G.G.G V.sX2.2.-.@ m.G.G.GX9 $.G.G.G.G.G.G.G.G.G.G.G.2.>.G.G",
".G.G.G.R 6 Q.G.G.G.G.G.G.G.G.G.G.G.G.Y x.@.G.G.G.G.G.u.u.g 8 %.G.G.G.G.G.G.s 9.'X5 -...G.G.G.G @.>.G.G.G.G.G.G.G.G.G.G.G.-.K m.G",
".G.G.G.G.W 4XX.G.G.G.G.G.G.G.G.G.G.G.G., F.G.G.G.G.G.7 j } 'X8 &X2X2X2X7 jX<.6.-.9 L.G.G.G.G.G.N Z.G.G.G.G.G.G.G.G.G.GX@.|.^.n.G",
".G.G.G.G.G D 6 R.G.G.G.G.G.G.G.G.G.G.G.G.P X.G.G.G.GX7.G 6X%.7.=.w.w.w.r.<.7.G j.G.G.G.G.G.G &X7.G.G.G.G.G.G.G.G.G.G.hXo.1.GX#X-",
".G.G.G.G.G.G.Y.l.u.R.G.G.G.G.G.G.G.G.G.GXX 9.!.G.G.G.G &.' u J.M.G.M.6 O rXO +.W.G.G.G.G.GX8.] b.G.G.G.G.G.G.G.G.! g ;.3.=X7 7.I",
".G.G.G.G.G.G.G.G | i.=.G.G.G.G.G.G.G.G.G.G 1 a.G.G.G.G.G.GX2 m j.G j -X9 5XO.G.G.G.G.G.G.G.hXO.G.G.G.G.G.G.G.G.G s   _ & & &.J.G",
".G.G.G.G.G.G.G.G.G V &.c., N.G.G.G.G.G.G.G.L p h D.G.G.G.G.G.X.@.3 . m >.L.J.G.G.G.G.G L M.~.G.G.G.G.G.G.GX$ : E.l.Y.I.G.G.G.G.G",
".G.G.G.G.G.G.G.G.G.G.G L +.VX3 m m.G.G.G.G.G D.A i b.G.G.G.G.G.G Q Y.G.G.G.G.G.G.G b m x.n.L.G.G.G b mX9.Z.f +X&.G.G.G.G.G.G.G.G",
".G.G.G.G.G.G.G.G.G.G.G.G.G.G.q h g.4 Y.G.G.G.G.G s.ZX7.G.G.G.G.G.G.G.G.G.G.G.G.G.G.y T.!.G.G.G Q.4 a H _ ).G.G.G.G.G.G.G.G.G.G.G",
".G.G.G.G.G.G.G.G.G.G.G.G.G.G.G.G.J.;.z j.b D D D Y.; &.: D N.G.G.G.G.G.G.G.G.IX%.D.9X= D D.B j E y.$.H [.G.G.G.G.G.G.G.G.G.G.G.G",
".G.G.G.G.G.G.G.G.G.G.G.G.G.G.G.G.G.G.G.G G.m.m.m.x - -.Q   f - - - - - - - - c. .f.m.m.mX#.e -.m.v.G.G.G.G.G.G.G.G.G.G.G.G.G.G.G",
".G.G.G.G.G.G.G.G.G.G.G.G.G.G.G.G.G.G.G.G.G.G.G.G.WX4X4X4.2.3.3.3.3.3.3.3.3.3.3 <.( j j j ;X4X4.G.G.G.G.G.G.G.G.G.G.G.G.G.G.G.G.G",
".G.G.G.G.G.G.G.G.G.G.G.G.G.G.G.G.G.G.G.G.G.G.G.G.G.G.G.GX1                     !.G.G.G.G.G.G.G.G.G.G.G.G.G.G.G.G.G.G.G.G.G.G.G.G"
};
