/* XPM */
static char *oog-r[] = {
/* width height ncolors chars_per_pixel */
"64 37 215 2",
/* colors */
"   c #000000",
" . c #B1B1B1",
" X c #AFAFAF",
" o c #ADADAD",
" O c #ABABAB",
" + c #A9A9A9",
" @ c #A7A7A7",
" # c #A5A5A5",
" $ c #A3A3A3",
" % c #A1A1A1",
" & c #9F9F9F",
" * c #9D9D9D",
" = c #9B9B9B",
" - c #999999",
" ; c #979797",
" : c #959595",
" > c #939393",
" , c #919191",
" < c #8F8F8F",
" 1 c #8D8D8D",
" 2 c #8B8B8B",
" 3 c #898989",
" 4 c #878787",
" 5 c #858585",
" 6 c #838383",
" 7 c #818181",
" 8 c #7F7F7F",
" 9 c #7D7D7D",
" 0 c #7B7B7B",
" q c #797979",
" w c #777777",
" e c #757575",
" r c #737373",
" t c #717171",
" y c #6F6F6F",
" u c #6D6D6D",
" i c #696969",
" p c #676767",
" a c #656565",
" s c #636363",
" d c #616161",
" f c #5F5F5F",
" g c #5D5D5D",
" h c #5B5B5B",
" j c #595959",
" k c #575757",
" l c #555555",
" z c #535353",
" x c #515151",
" c c #4D4D4D",
" v c #FEFEFE",
" b c #4B4B4B",
" n c #FCFCFC",
" m c #494949",
" M c #FAFAFA",
" N c #474747",
" B c #F8F8F8",
" V c #454545",
" C c #F6F6F6",
" Z c #434343",
" A c #F4F4F4",
" S c #F2F2F2",
" D c #3F3F3F",
" F c #F0F0F0",
" G c #EEEEEE",
" H c #3B3B3B",
" J c #ECECEC",
" K c #393939",
" L c #EAEAEA",
" P c #373737",
" I c #E8E8E8",
" U c #353535",
" Y c #E6E6E6",
" T c #333333",
" R c #E4E4E4",
" E c #313131",
" W c #E2E2E2",
" Q c #2F2F2F",
" ! c #E0E0E0",
" ~ c #2D2D2D",
" ^ c #DEDEDE",
" / c #2B2B2B",
" ( c #DCDCDC",
" ) c #292929",
" _ c #DADADA",
" ` c #D8D8D8",
" ' c #D6D6D6",
" ] c #232323",
" [ c #D4D4D4",
" { c #D2D2D2",
" } c #1D1D1D",
" | c #CECECE",
".  c #CCCCCC",
".. c #CACACA",
".X c #171717",
".o c #C8C8C8",
".O c #C6C6C6",
".+ c #C4C4C4",
".@ c #111111",
".# c #C2C2C2",
".$ c #0F0F0F",
".% c #C0C0C0",
".& c #0D0D0D",
".* c #BEBEBE",
".= c #BCBCBC",
".- c #BABABA",
".; c #B8B8B8",
".: c #B6B6B6",
".> c #030303",
"., c #B4B4B4",
".< c #B2B2B2",
".1 c #B0B0B0",
".2 c #AEAEAE",
".3 c #ACACAC",
".4 c #AAAAAA",
".5 c #A8A8A8",
".6 c #A6A6A6",
".7 c #A4A4A4",
".8 c #A2A2A2",
".9 c #A0A0A0",
".0 c #9E9E9E",
".q c #9C9C9C",
".w c #9A9A9A",
".e c #989898",
".r c #969696",
".t c #949494",
".y c #929292",
".u c #8E8E8E",
".i c #8C8C8C",
".p c #8A8A8A",
".a c #888888",
".s c #868686",
".d c #848484",
".f c #828282",
".g c #808080",
".h c #7E7E7E",
".j c #7C7C7C",
".k c #7A7A7A",
".l c #787878",
".z c #767676",
".x c #727272",
".c c #707070",
".v c #6E6E6E",
".b c #6C6C6C",
".n c #6A6A6A",
".m c #686868",
".M c #666666",
".N c #646464",
".B c #626262",
".V c #606060",
".C c #5E5E5E",
".Z c #5C5C5C",
".A c #5A5A5A",
".S c #585858",
".D c #565656",
".F c #525252",
".G c #505050",
".H c #4E4E4E",
".J c #FFFFFF",
".K c #FDFDFD",
".L c #4A4A4A",
".P c #FBFBFB",
".I c #484848",
".U c #F9F9F9",
".Y c #464646",
".T c #F7F7F7",
".R c #444444",
".E c #F5F5F5",
".W c #424242",
".Q c #F3F3F3",
".! c #F1F1F1",
".~ c #3E3E3E",
".^ c #EFEFEF",
"./ c #EDEDED",
".( c #3A3A3A",
".) c #EBEBEB",
"._ c #383838",
".` c #E9E9E9",
".' c #363636",
".] c #E7E7E7",
".[ c #E5E5E5",
".{ c #323232",
".} c #E3E3E3",
".| c #303030",
"X  c #E1E1E1",
"X. c #DFDFDF",
"XX c #DDDDDD",
"Xo c #2A2A2A",
"XO c #DBDBDB",
"X+ c #282828",
"X@ c #D9D9D9",
"X# c #262626",
"X$ c #D7D7D7",
"X% c #D5D5D5",
"X& c #D3D3D3",
"X* c #D1D1D1",
"X= c #1E1E1E",
"X- c #CFCFCF",
"X; c #CDCDCD",
"X: c #CBCBCB",
"X> c #C9C9C9",
"X, c #161616",
"X< c #C7C7C7",
"X1 c #C5C5C5",
"X2 c #C3C3C3",
"X3 c #101010",
"X4 c #C1C1C1",
"X5 c #BFBFBF",
"X6 c #0C0C0C",
"X7 c #BDBDBD",
"X8 c #BBBBBB",
"X9 c #B9B9B9",
"X0 c #B7B7B7",
"Xq c #B5B5B5",
"Xw c #B3B3B3",
/* pixels */
".J.J.J.J.J.J.J.J.J.J.J.J.J.J.J.J.J.J.J.J.J.J.J.J.J.J.J.J.J.J n t.3.3.3.3.3.j.m.U.J.J.J.8.1.J.J.J.J.J.J.J.J.J.J.J.J.J.J.J.J.J.J.J",
".J.J.J.J.J.J.J.J.J.J.J.J.J.J.J.J.J.J.J.<XX.J.J.J.J.J.J.J 3 j j H y.6.6.6.6.l a.C j.g.J z.J.J.J.J.J.J.J.J.J.J.J.J.J.J.J.J.J.J.J.J",
".J.J.J.J.J.J.J.J.J.J.J.J.J.J.J.J.J.J.J o ) [.J ^ . 2X= zX> M M M.D v.J.J.J.;.w M M { z Q ..E.J.J.J.J.J.J.J.J.J.J.J.J.J.J.J.J.J.J",
".J.J.J.J.J.J.J.J.J.J.J.J.J.J.J.J.J.J.J.J %Xo.C.k %X<X0.q.J.J.J.J.%.y.J.J.J.;.w.J.J.J.7 ~ % p.<.J.J.J.J.J.J.J.J.J.J.J.J.J.J.J.J.J",
".J.J.J.J.J.J.J.J.J.J.J.J.J.J SXO.J.J.JXX + m :X-.J.J v = 4.J.J.J.J + +.J.J.  ] G.J.J y (.J.E.9X, d S.J.J.J.J.J.J.J.J.J.J.J.J.J.J",
".J.J.J.J.J.J.J.J.J.J.J.J.J.J./ 8.[.J.`.h.5.J $Xo `.J.JX@ E.q.J.J.JX. (.J.J.J a G.J _ 6 A.J.J.J.W.q 5.J.J.J.J.J.J.J.J.J.J.J.J.J.J",
".J.J.J.J.J.J.J.J.J.J.J.J.J.J.JX%XoX3.Z C.J.J.K.6.L l./.J./ m.o.=.=.=.=.=.=.=.<X8.=.;Xq B.J S 5 _.J _ T =XO.J.J.J.J.J.J.J.J.J.J.J",
".J.J.J.J.J.J.J.J.J.J.J.J.J.J R T.h c.n.J.J.J.J.J.T ;.}X1.m.m i ; ; ; ; ; ; ; ; ; ; ; ; u.m tX;.J.J.JX; }.|X..J.J.J.J.J.J.J.J.J.J",
".J.J.J.J.J.J.J.J.J.J.J.JX> 4.v L n.E d.' #.J.J.[.; z z 1 L L L.J.J d.JX%.b.}.h.Q.J.J.J J 1X6 U.1X4.).iX; =.3.J.J.J.J.J.J.J.J.J.J",
".J.J.J.J.J.J.J.J *.J.J X 1X:.J.J.J.J.J.  1.v.v 9.w.J.J.J *.. {X;X-.s. X+.dXw.w _X2.J.J.J.J 6 5.8.I d.O.J.JXq.J.J.J.J.J.J.J.J.J.J",
".J.J.J.J.J.J.J.J.W.j K $ n.J.J.J.J.JX*.z.{.[.[ F.J.J.J.`X%.N gX8 ; o.@ =.9 g.E.CX& M.J.J.J M 0 ( S |._ o.[.b &.J.J.J.J.J.J.J.J.J",
".J.J.J.J.J.J.J.J s.GX+.%.J.J.J.J.` r 4 b 9.J.J.J.J.J.J * . 6.d $ lX@.iX@.j O.4.5.n I.J.J.J.JX2 <.J.J.o 3 8 Y.J.J.J.J.J.J.J.J.J.J",
".J.J.J.J F.) S.M h.! W.y z.2X& < iX. _ q B.J.J.J.J L.] e r.QX*.u.~ z zX>.;.P 6.8 # F.`.J.J.J.J u Y.J.J RXo o.J M.  S.J.J.J.J.J.J",
".J.J.J.JXX.h.S.G.E.J.J.J 3.l 5.+.J.J.g w.J.J.J.J.JX-.j.h ( |.f.1.J.J.J.p 4.0.J.2.1.jX:.J.J.J.J {.g.J.J.J.o.(.J - 4 !.J.J.J.J.J.J",
" !.J.J.J.J I K.R {.J.- zX> _ M.J.J.J.H.).J.J.J.J.h.sX9 I.M.d.Q.J.J.J.J.J.J.: &X-.8X9.p J.J.J.J _ ) _.J.J.JX& DXw.J.J.J.J.J.J.J.J",
".g.h n.J.J.J.J.J 2.h *.J.J.J.J.J.J.J z.J.J.J.J.J.J. .a | 5.J.J.J.J.J.J.J.J.J a G., 7.o.J.J.J.J.J 8X&.J.J.J.J.o 8.,.J.J.J.J.J.J.J",
".! a.Y ; '.^ A '.hX%.P.J.J.J.J.J.J ;X8.J.J.J.J.J.a ' S.tX4.J !Xo *.J.J.J.J.J Y.BX% ' 'X..J.J.J.J 8X&.J.J.J.J.JX- t.E.J.J.J.J.J.J",
".J.JX$.j.j.  3.j A.J.J.J.J.J.J.J.J 6X-.J.J.J.J.. '.jX;.B.J { /.j ) v.J.J.J.J.J a :.a.jXo.O.J.J.J 8X&.J.J.J.J.J.J.o.p.J.J.J.J.J.J",
".J.J.J.J.3 V [.J.J.J.J.J.J.J.J.J.J 6X-.J.J.J.J.).x.e _.l.J.1.$XO d v.J.J.J.J.JX7 :.B zX4.`.J.J.J 8X&.J.J.J.J.J.J.J { 3.E.J.J.J.J",
".J.J.J.,.l...J.J.J.J.J.J.J.J.J.J.J 6X-.J.J.J.Q.aX .J z.J.J.J % w {.J.J.J.J.J.JX7 :.J.J :X>.J.J.J 8X&.J.J.J.J.J.J.J.JX> 3.J.J.J.J",
".J.).W.0.K.J.J.J.J.J.J.J.J.J.J.J.J 6X-.J.J.J M.. t.e.M J.J.J.J.J.J.J.J.J.J.J.JX7 :X8 U.-.].J.J.J 8X&.J.J.J.J.J.J.J.J.J.M J.J.J.J",
" _ E =.J.J.J.J.J.J.J.J.J.J.J.J.J.J 6X-.J.J.J.J.J + 1 {.B.J.J.J.J.J.J.J.J.J.J.JX7 :.h.x $.J.J.J.J 8X&.J.J.J.J.J.J.J.J.J S.V.J.J.J",
" JX1 q.J.J.J.J.J.J.J.J.J.J.J.J.J.J.} y.J.J.J G z @.3 (.m B.J.J.J.J.J.J.J.J.J F.n.] 5 YX%.J.J.J.J 8X&.J.J.J.J.J.J.J.J.J n ,X1.J.J",
".J.J.{X$.J.J.J.J.J.J.J.J.J.J.J.J.J.J z.J.J.J.J.J O.bX$X<.i.J.J.J.J.J.J.J.J.J a 2.% {.b.^.J.J.J J 8 Y.J.J.J.J.J.J.J.J.J.J.o 2.J.J",
".J.J.i.q v.J.J.J.J.J.J.J.J.J.J.J.J.J.Y -.J.J.J.J [.T.j 1.A.).U.J.J.J.J.J.J.= 1.EX* g.,.J.J.J.J {.g.J.J.J.J.J.J.J.J.J.J.J.J z S.J",
".J.J.J &Xw.J.J.J.J.J.J.J.J.J.J.J.J.JXO N L.J.J.J.J.# 2 5X; p.p.J.J.J.J !.e i 5X*.d C.J.J.J.J.J &Xw.J.J.J.J.J.J.J.J.J.J.J ` ~.' ^",
".J.J.J.J.9., v.J.J.J.J.J.J.J.J.J.J.J.E sX4.J.J.J.J.-.0X- 4 M.. z z z z.vXq SX% 9X$.U.J.J.J.J B h.J.J.J.J.J.J.J.J.J.J.U I.| 4.l #",
".J.J.J.J.J & -X$.J.J.J.J.J.J.J.J.J.J.J.: T.J.J.J.J.J.U.s |.aX;.*.JX7.%.1.9.k ` :.J.J.J.J.J J bX@.J.J.J.J.J.J.J.J.J B.s.B *.J.7 Z",
".J.J.J.J.J.J.- 0 I.P.J.J.J.J.J.J.J.J.J.J.; ;.K.J.J.J.PX* C.B.P k.J z.A.2 * L W.J.J.J.J.J.JX> s A.J.J.J.J.J.J.J.J.P.c } x z z.z I",
".J.J.J.J.J.J.J.J.n.dX0.J.J.J.J.J.J.J.J.J J T 4.J.J.J.J.J.J.JX5.t.# ,.rX7 -.T.J.J.J.J.J.JX; 5.J.J.J.J.J.J.J.J.JX9 f V.Z {.J.J.J.J",
".J.J.J.J.J.J.J.J.J { = z Y.K.J.J.J.J.J.J.J ( T.e v.J.J.J.J.J...J k v.J...J.J.J.J.J.J.J 'X# ^.J.J.J.J.J v.P I zX#.1.).J.J.J.J.J.J",
".J.J.J.J.J.J.J.J.J.J.J.J.b.f.5.5.!.J.J.J.J.J.^.{ 5.J.J.J.J.J.J.J.J.J.J.J.J.J.J.J.J L.5.V.<.J.J.J.J S.5 ,X+.n.J.J.J.J.J.J.J.J.J.J",
".J.J.J.J.J.J.J.J.J.J.J.J.J {.4.4 s.5.J.J.J.J.JXO E lX*.J.J.J.J.J.J.J.J.J.J.J.J.J.J.G.V C.J.J.JX  l.I.F PX*.J.J.J.J.J.J.J.J.J.J.J",
".J.J.J.J.J.J.J.J.J.J.J.J.J.J.J.J v O z z.w o o o L v.s o.1.J.J.J.J.J.J.J.J.JX;.r ] * o o o f z.&.D d.FXX.J.J.J.J.J.J.J.J.J.J.J.J",
".J.J.J.J.J.J.J.J.J.J.J.J.J.J.J.J.J.J.J.J.; # # # u.A l  .>.A.A.A.A.A.A.A.A.A ].X.s # # # b.H.A.w # F.J.J.J.J.J.J.J.J.J.J.J.J.J.J",
".J.J.J.J.J.J.J.J.J.J.J.J.J.J.J.J.J.J.J.J.J.J.J.J M B BXO.3.3.3.3.3.3.3.3.3.3.3 > x z z z o B B v.J.J.J.J.J.J.J.J.J.J.J.J.J.J.J.J",
".J.J.J.J.J.J.J.J.J.J.J.J.J.J.J.J.J.J.J.J.J.J.J.J.J.J.J *                      .W.J.J.J.J.J.J.J.J.J.J.J.J.J.J.J.J.J.J.J.J.J.J.J.J"
};
