/* XPM */
static char *paard-r[] = {
/* width height ncolors chars_per_pixel */
"64 56 144 2",
/* colors */
"   c #000000",
" . c #B1B1B1",
" X c #AFAFAF",
" o c #ADADAD",
" O c #ABABAB",
" + c #A9A9A9",
" @ c #A7A7A7",
" # c #A5A5A5",
" $ c #A3A3A3",
" % c #A1A1A1",
" & c #9F9F9F",
" * c #9D9D9D",
" = c #9B9B9B",
" - c #999999",
" ; c #979797",
" : c #959595",
" > c #8F8F8F",
" , c #8D8D8D",
" < c #878787",
" 1 c #858585",
" 2 c #818181",
" 3 c #7D7D7D",
" 4 c #7B7B7B",
" 5 c #797979",
" 6 c #777777",
" 7 c #6F6F6F",
" 8 c #696969",
" 9 c #676767",
" 0 c #656565",
" q c #636363",
" w c #5F5F5F",
" e c #5D5D5D",
" r c #5B5B5B",
" t c #535353",
" y c #515151",
" u c #4F4F4F",
" i c #FEFEFE",
" p c #FCFCFC",
" a c #F4F4F4",
" s c #3F3F3F",
" d c #3D3D3D",
" f c #3B3B3B",
" g c #ECECEC",
" h c #EAEAEA",
" j c #373737",
" k c #353535",
" l c #333333",
" z c #313131",
" x c #E2E2E2",
" c c #E0E0E0",
" v c #2B2B2B",
" b c #292929",
" n c #272727",
" m c #D8D8D8",
" M c #D6D6D6",
" N c #D4D4D4",
" B c #212121",
" V c #1F1F1F",
" C c #1D1D1D",
" Z c #CECECE",
" A c #CCCCCC",
" S c #CACACA",
" D c #151515",
" F c #131313",
" G c #C4C4C4",
" H c #C2C2C2",
" J c #C0C0C0",
" K c #0B0B0B",
" L c #050505",
" P c #030303",
" I c #010101",
" U c #B0B0B0",
" Y c #AEAEAE",
" T c #ACACAC",
" R c #AAAAAA",
" E c #A6A6A6",
" W c #A4A4A4",
" Q c #A2A2A2",
" ! c #A0A0A0",
" ~ c #9C9C9C",
" ^ c #9A9A9A",
" / c #989898",
" ( c #969696",
" ) c #909090",
" _ c #888888",
" ` c #848484",
" ' c #828282",
" ] c #808080",
" [ c #7E7E7E",
" { c #7C7C7C",
" } c #7A7A7A",
" | c #787878",
".  c #6E6E6E",
".. c #6A6A6A",
".X c #686868",
".o c #666666",
".O c #646464",
".+ c #626262",
".@ c #5E5E5E",
".# c #5C5C5C",
".$ c #5A5A5A",
".% c #545454",
".& c #525252",
".* c #505050",
".= c #4E4E4E",
".- c #FFFFFF",
".; c #FDFDFD",
".: c #FBFBFB",
".> c #3E3E3E",
"., c #3C3C3C",
".< c #EBEBEB",
".1 c #E9E9E9",
".2 c #363636",
".3 c #343434",
".4 c #323232",
".5 c #303030",
".6 c #E1E1E1",
".7 c #2E2E2E",
".8 c #DFDFDF",
".9 c #2C2C2C",
".0 c #2A2A2A",
".q c #282828",
".w c #D9D9D9",
".e c #D7D7D7",
".r c #D5D5D5",
".t c #D3D3D3",
".y c #202020",
".u c #1E1E1E",
".i c #CFCFCF",
".p c #1C1C1C",
".a c #CDCDCD",
".s c #CBCBCB",
".d c #C9C9C9",
".f c #161616",
".g c #C7C7C7",
".h c #141414",
".j c #C5C5C5",
".k c #C3C3C3",
".l c #C1C1C1",
".z c #BFBFBF",
".x c #0A0A0A",
".c c #060606",
".v c #040404",
".b c #020202",
/* pixels */
".-.-.-.-.-.-.-.-.-.-.-.-.-.-.-.-.-.-.-.-.-.-.-.-.-.-.-.-.-.-.-.-.-.-.-.-.-.-.-.-.-.-.-.-.-.-.-.-.-.- c A.e.-.- i.e.-.-.-.-.-.-.-",
".-.-.-.-.-.-.-.-.-.-.-.-.-.-.-.-.-.-.-.-.-.-.-.-.-.-.-.-.-.-.-.-.-.-.-.-.-.-.-.-.-.-.-.-.-.-.-.-.-.- q  .2.-.- p B - m.-.-.-.-.-",
".-.-.-.-.-.-.-.-.-.-.-.-.-.-.-.-.-.-.-.-.-.-.-.-.-.-.-.-.-.-.-.-.-.-.-.-.-.-.-.-.-.-.-.-.-.-.-.-.-.- q  .f #.- p     *.-.-.-.-.-",
".-.-.-.-.-.-.-.-.-.-.-.-.-.-.-.-.-.-.-.-.-.-.-.-.-.-.-.-.-.-.-.-.-.-.-.-.-.-.-.-.-.-.-.-.-.-.-.-.-.- q P % D l.4     V.w.-.-.-.-",
".-.-.-.-.-.-.-.-.-.-.-.-.-.-.-.-.-.-.-.-.-.-.-.-.-.-.-.-.-.-.-.-.-.-.-.-.-.-.-.-.-.-.-.-.-.-.- i A |    .2 (  .a l l.h @.-.-.-.-",
".-.-.-.-.-.-.-.-.-.-.-.-.-.-.-.-.-.-.-.-.-.-.-.-.-.-.-.-.-.-.-.-.-.-.-.-.-.-.-.-.-.-.-.-.-.r - ;       I < (   { - - f.v.-.-.-.-",
".-.-.-.-.-.-.-.-.-.-.-.-.-.-.-.-.-.-.-.-.-.-.-.-.-.-.-.-.-.-.-.-.-.-.-.-.-.-.-.-.-.-.-.-.8.,.@ - 5  .@ ^.- (           I.o E.-.-",
".-.-.-.-.-.-.-.-.-.-.-.-.-.-.-.-.-.-.-.-.-.-.-.-.-.-.-.-.-.-.-.-.-.-.-.-.-.-.-.-.-.-.-.$.q.%.<.-.d.%.<.-.- (   E A A A.d  ...-.-",
".-.-.-.-.-.-.-.-.-.-.-.-.-.-.-.-.-.-.-.-.-.-.-.-.-.-.-.-.-.-.-.-.-.-.-.-.-.-.-.-.-.- q.0 w.-.8.d   8.-.-.- h.s A.-.-.-.:     *.-",
".-.-.-.-.-.-.-.-.-.-.-.-.-.-.-.-.-.-.-.-.-.-.-.-.-.-.-.-.-.-.-.-.-.-.-.-.-.-.-.-.-.r f.i.-.- q  .f E.-.-.- (  .b Y.-.- +   v.j.-",
".-.-.-.-.-.-.-.-.-.-.-.-.-.-.-.-.-.-.-.-.-.-.-.-.-.-.-.-.-.-.-.-.-.-.-.-.-.-.-.-.- (.@ g.- J n.b X.-.-.-.- (     j.-.- R  ...-.-",
".-.-.-.-.-.-.-.-.-.-.-.-.-.-.-.-.-.-.-.-.-.-.-.-.-.-.-.-.-.-.-.-.-.-.-.-.-.-.-.;.4.u ~ i.t C 3.a.-.- 2 k.- h.a.a m.-.-.:  ...-.-",
".-.-.-.-.-.-.-.-.-.-.-.-.-.-.-.-.-.-.-.-.-.-.-.-.-.-.-.-.-.-.-.-.-.-.-.-.-.-.8.d   8.-.5 K.3.3.2.-.- q P M.-.-.-.-.-.-.:  .%.<.-",
".-.-.-.-.-.-.-.-.-.-.-.-.-.-.-.-.-.-.-.-.-.-.-.-.-.-.-.-.-.-.-.-.-.-.-.-.1 / f t 9 #.-.5.2.-.-.-.-.- Q.o.2.-.-.-.-.-.-.; 9., *.-",
".-.-.-.-.-.-.-.-.-.-.-.-.-.-.-.-.-.-.-.-.-.-.-.-.-.-.-.-.-.-.-.-.-.-.-.- S  .@ g.- J 0 F.2.-.-.-.-.-.- i > #.-.-.-.-.-.-.- : *.-",
".-.-.-.-.-.-.-.-.-.-.-.-.-.-.-.-.-.-.-.-.-.-.-.-.-.-.-.-.-.-.-.-.-.-.- p.& A h p.4.u [.a m.-.-.-.-.-.-.-.d 8 i.-.-.-.-.-.- : *.-",
".-.-.-.-.-.-.-.-.-.-.-.r.s.s.s.s.s.s.s.s.s c.-.-.-.-.-.-.-.-.-.-.-.-.- z    .y.3.3 <.-.-.-.-.-.-.-.-.-.-.d     E.-.-.-.-.- : *.-",
".-.-.-.-.-.-.l / / / /.u 9 9 9 9 9 9 9.o  .> /.<.-.-.-.-.-.-.-.- h / /.u 9 9 G.-.-.-.-.-.-.-.-.-.-.-.-.-.d v 9 D / / / ^.- : *.-",
".-.-.-.-.-.l.q    .> ^ ^.-.-.-.-.-.-.-.- ^ ^ ^ 7 0 0 0 0 0 0 0 0.* s ^ =.-.-.-.-.-.-.-.-.-.-.-.-.-.-.-.; u 8.- O      .v.- : *.-",
".-.-.-.- M.u    .0.6.-.-.-.-.-.-.-.-.-.-.-.-.-.e.a.a.a.a.a.a.a.a.a.6.-.-.-.-.-.-.-.-.-.-.-.-.-.-.-.-.- p.9 x.- p I I   W.4.u *.-",
".-.-.-.r Q   V.3.-.-.-.-.-.-.-.-.-.-.-.-.-.-.-.-.-.-.-.-.-.-.-.-.-.-.-.-.-.-.-.-.-.-.-.-.-.-.-.-.-.-.- p.2.-.-.-.-.- '.3.3 _.-.-",
".-.-.- l D.> -.-.-.-.-.-.-.-.-.-.-.-.-.-.-.-.-.-.-.-.-.-.-.-.-.-.-.-.-.-.-.-.-.-.-.-.-.-.-.-.-.-.-.-.- p.2.-.-.-.-.-.-.-.-.-.-.-",
".-.-.- l.h., -.-.-.-.-.-.-.-.-.-.-.-.-.-.-.-.-.-.-.-.-.-.-.-.-.-.-.-.-.-.-.-.-.-.-.-.-.-.-.-.-.-.-.-.- p.2.-.-.-.-.-.-.-.-.-.-.-",
".-.-.- l  .&.<.-.-.-.-.-.-.-.-.-.-.-.-.-.-.-.-.-.-.-.-.-.-.-.-.-.-.-.-.-.-.-.-.-.-.-.-.-.-.-.-.-.-.-.- p.2.-.-.-.-.-.-.-.-.-.-.-",
".-.-.- l  .o.-.-.-.-.-.-.-.-.-.-.-.-.-.-.-.-.-.-.-.-.-.-.-.-.-.-.-.-.-.-.-.-.-.-.-.-.-.-.-.-.-.-.-.-.- p.2.-.-.-.-.-.-.-.-.-.-.-",
".-.-.- l   d M.-.-.-.-.-.-.-.-.-.-.-.-.-.-.-.-.-.-.-.-.-.-.-.-.-.-.-.-.-.-.-.-.-.-.-.-.-.-.-.-.-.-.-.- p.2.-.-.-.-.-.-.-.-.-.-.-",
".-.-.- l V e -.-.-.-.-.-.-.-.-.-.-.-.-.-.-.-.-.-.-.-.-.-.-.-.-.-.-.-.-.-.-.-.-.-.-.-.-.-.-.-.-.-.-.-.- p.2.-.-.-.-.-.-.-.-.-.-.-",
".-.-.- l l - /.;.-.-.-.-.-.-.-.-.-.-.-.-.-.-.-.-.-.-.-.-.-.-.-.;.#.-.-.-.-.-.-.-.-.-.-.-.-.-.-.-.-.-.- p.2.-.-.-.-.-.-.-.-.-.-.-",
".-.-.- l l Y D  .-.-.-.-.-.-.-.-.-.-.-.-.-.-.-.-.-.-.-.-.-.-.-.; k.-.-.-.-.-.-.-.-.-.-.-.-.-.-.-.-.-.- p.2.-.-.-.-.-.-.-.-.-.-.-",
".-.-.- l.u.l.o  .-.-.-.-.-.-.-.-.-.-.-.-.-.-.-.-.-.-.-.-.-.-.-.; k.-.-.-.-.-.-.-.-.-.-.-.-.-.-.-.-.-.z :.2.-.-.-.-.-.-.-.-.-.-.-",
".-.-.- X {.o.o  .-.-.-.-.-.-.-.-.-.-.-.-.-.-.-.-.-.-.-.-.-.-.-.; D $.-.-.-.-.-.-.-.-.-.-.-.- !.o.-.z n.b U.-.-.-.-.-.-.-.-.-.-.-",
".-.-.-.$.q.X 9.b r.-.-.-.-.-.-.-.r z T.;.;.;.;.-.-.-.-.-.-.-.-.- $ 9.;.-.-.-.-.-.-.-.-.-.- R.h L.- : [.i.-.-.-.-.-.-.-.-.-.-.-.-",
".-.-.- l l.-.-.-.3.-.-.-.-.-.-.- T k D v k k k o S S S S S S S S !     Z.-.-.-.-.-.-.- N S 6 ~ i &.f ..-.-.-.-.-.-.-.-.-.-.-.-.-",
".-.-.- l l.- J ;.3.-.-.-.-.-.- O V ; 4 x.-.-.- 1.X.X.X.X.X.X.X.X.X.>   Z.-.-.-.-.- N ; C    .# :   8.-.-.-.-.-.-.-.-.-.-.-.-.-.-",
".-.-.- l l.-.o  .3.-.-.-.-.- %.h     ^.-.-.-.-.-.-.-.-.-.-.-.-.-.- ;  .&.-.-.-.-.- (     B = = = } 8.-.-.-.-.-.-.-.-.-.-.-.-.-.-",
".-.-.- l.x z.h  .3.-.-.- N z D W.0 Z g.-.-.-.-.-.-.-.-.-.-.-.-.-.-.< Z.0.-.-.-.; z.u I @ m.-.-.-.g 8.-.-.-.-.-.-.-.-.-.-.-.-.-.-",
".-.-.- l    .y k.3.-.- i K k X.4.@.-.-.-.-.-.-.-.-.-.-.-.-.-.-.-.-.-.- l.-.-.-.;   8 q.i.-.-.- p K _.-.-.-.-.-.-.-.-.-.-.-.-.-.-",
".-.-.- l     r ;.3.-.- O.3.-.- l.-.-.-.-.-.-.-.-.-.-.-.-.-.-.-.-.-.-.- l.-.-.- R.X E q.i.-.-.- p.2.-.-.-.-.-.-.-.-.-.-.-.-.-.-.-",
".-.-.- l  .>.>   X.-.-.4.3.-.- l.-.-.-.-.-.-.-.-.-.-.-.-.-.-.-.-.-.-.- Y `.-.- l.-.- H.  1.- ! q.2.-.-.-.-.-.-.-.-.-.-.-.-.-.-.-",
".-.-.- l b x 9.b r i.;.3.3.-.- l.-.-.-.-.-.-.-.-.-.-.-.-.-.-.-.-.-.-.-.; k.-.- l.-.-.-.5.2.- q.b m.-.-.-.-.-.-.-.-.-.-.-.-.-.-.-",
".-.-.-.@.@.-.-.-.3 /   A.3.-.- l.-.-.-.-.-.-.-.-.-.-.-.-.-.-.-.-.-.-.-.; k.-.- l.-.-.-.5.2.- q P.-.-.-.-.-.-.-.-.-.-.-.-.-.-.-.-",
".-.-.-.-.-.-.-.-.3.k 8 ,.u (.r l.-.-.-.-.-.-.-.-.-.-.-.-.-.-.-.-.-.-.- + k.-.- l.-.-.z.p.2.- q P.-.-.-.-.-.-.-.-.-.-.-.-.-.-.-.-",
".-.-.-.-.-.-.-.- ) Q.- l {   ^ l.-.-.-.-.-.-.-.-.-.-.-.-.-.-.-.-.-.-.-.4 ..-.- l.-.- q [ ..- q P.-.-.-.-.-.-.-.-.-.-.-.-.-.-.-.-",
".-.-.-.-.-.-.-.-.s 9.- l.s   ^ l.-.-.-.-.-.-.-.-.-.-.-.-.-.-.-.-.-.-.- l.;.-.- l.-.- q.i.- R.h.c.-.-.-.-.-.-.-.-.-.-.-.-.-.-.-.-",
".-.-.-.-.-.-.-.-.s 9.- l M.2 >.q.-.-.-.-.-.-.-.-.-.-.-.-.-.-.-.-.-.-.-.# k.-.- l.-.- q.i.- ( ~.-.-.-.-.-.-.-.-.-.-.-.-.-.-.-.-.-",
".-.-.-.-.-.-.-.-.s 9.- l h ( f I O.-.-.-.-.-.-.-.-.-.-.-.-.-.-.-.-.-.-.; k.-.- l.-.- q.i.- ( ~.-.-.-.-.-.-.-.-.-.-.-.-.-.-.-.-.-",
".-.-.-.-.-.-.-.-.s 9.- X u  .@ =.3.-.-.-.-.-.-.-.-.-.-.-.-.-.-.-.-.-.-.; k.-.- l.-.- q.i.- ( ~.-.-.-.-.-.-.-.-.-.-.-.-.-.-.-.-.-",
".-.-.-.-.-.-.-.-.s 9.- i I P.u.r.3.-.-.-.-.-.-.-.-.-.-.-.-.-.-.-.-.-.-.; k.-.;.4.-.- q.i.- ( ~.-.-.-.-.-.-.-.-.-.-.-.-.-.-.-.-.-",
".-.-.-.-.-.-.-.-.s y.d a.3.- 0 % b.d h.-.-.-.-.-.-.-.-.-.-.-.-.-.-.-.-.; k.-.O.7.-.- q.i.- ( ~.-.-.-.-.-.-.-.-.-.-.-.-.-.-.-.-.-",
".-.-.-.-.-.-.-.-.6 s   A.u ( f       ^.-.-.-.-.-.-.-.-.-.-.-.-.-.-.-.-.; k.-.O Z.-.- q.i.- ( ~.-.-.-.-.-.-.-.-.-.-.-.-.-.-.-.-.-",
".-.-.-.-.-.-.-.-.- /   A {     I {  .,.6.-.-.-.-.-.-.-.-.-.-.-.-.-.-.- ] k.-.O Z.-.- q.i.- ( ~.-.-.-.-.-.-.-.-.-.-.-.-.-.-.-.-.-",
".-.-.-.-.-.-.-.-.- /   A n P I P b P P Z.-.-.-.-.-.-.-.-.-.-.-.-.-.-.- l k.- 0 b.-.- q A.; ; V.4.;.-.-.-.-.-.-.-.-.-.-.-.-.-.-.-",
".-.-.-.-.-.-.-.-.- /   % b.d.*.a.-.-.-.-.-.-.-.-.-.-.-.-.-.-.-.-.-.-.-.;.0.d h.@.d.8 `.x.0.d.=  .2.-.-.-.-.-.-.-.-.-.-.-.-.-.-.-",
".-.-.-.-.-.-.-.-.-.k 8 8     s x.-.-.-.-.-.-.-.-.-.-.-.-.-.-.-.-.-.-.- i t   = +   8.-.5.f 8 8.X.2.-.-.-.-.-.-.-.-.-.-.-.-.-.-.-",
".-.-.-.-.-.-.-.-.-.-.-.- ~ ~ m.-.-.-.-.-.-.-.-.-.-.-.-.-.-.-.-.-.-.-.-.- S   =.4 ~ 1 H.5 D q q.+.2.-.-.-.-.-.-.-.-.-.-.-.-.-.-.-",
".-.-.-.-.-.-.-.-.-.-.-.-.-.-.-.-.-.-.-.-.-.-.-.-.-.-.-.-.-.-.-.-.-.-.-.- S   C.x.5.p ~ m.i.i.i.i.w.-.-.-.-.-.-.-.-.-.-.-.-.-.-.-"
};
