/* XPM */
static char *paard-r[] = {
/* width height ncolors chars_per_pixel */
"64 60 222 2",
/* colors */
"   c #000000",
" . c #B1B1B1",
" X c #AFAFAF",
" o c #ABABAB",
" O c #A9A9A9",
" + c #A7A7A7",
" @ c #A5A5A5",
" # c #A1A1A1",
" $ c #9F9F9F",
" % c #9D9D9D",
" & c #9B9B9B",
" * c #999999",
" = c #979797",
" - c #959595",
" ; c #939393",
" : c #919191",
" > c #8B8B8B",
" , c #898989",
" < c #858585",
" 1 c #838383",
" 2 c #818181",
" 3 c #7F7F7F",
" 4 c #7D7D7D",
" 5 c #7B7B7B",
" 6 c #777777",
" 7 c #757575",
" 8 c #737373",
" 9 c #6F6F6F",
" 0 c #6D6D6D",
" q c #6B6B6B",
" w c #696969",
" e c #676767",
" r c #656565",
" t c #636363",
" y c #616161",
" u c #5F5F5F",
" i c #5B5B5B",
" p c #595959",
" a c #555555",
" s c #535353",
" d c #515151",
" f c #4F4F4F",
" g c #4D4D4D",
" h c #FEFEFE",
" j c #4B4B4B",
" k c #FCFCFC",
" l c #494949",
" z c #FAFAFA",
" x c #474747",
" c c #F8F8F8",
" v c #454545",
" b c #F6F6F6",
" n c #434343",
" m c #F4F4F4",
" M c #414141",
" N c #F2F2F2",
" B c #3F3F3F",
" V c #F0F0F0",
" C c #3D3D3D",
" Z c #EEEEEE",
" A c #3B3B3B",
" S c #ECECEC",
" D c #393939",
" F c #EAEAEA",
" G c #373737",
" H c #E8E8E8",
" J c #353535",
" K c #E6E6E6",
" L c #333333",
" P c #E4E4E4",
" I c #313131",
" U c #E2E2E2",
" Y c #2F2F2F",
" T c #2D2D2D",
" R c #DEDEDE",
" E c #DCDCDC",
" W c #292929",
" Q c #DADADA",
" ! c #272727",
" ~ c #252525",
" ^ c #D6D6D6",
" / c #232323",
" ( c #D4D4D4",
" ) c #212121",
" _ c #D2D2D2",
" ` c #1F1F1F",
" ' c #D0D0D0",
" ] c #1D1D1D",
" [ c #CECECE",
" { c #1B1B1B",
" } c #CCCCCC",
" | c #191919",
".  c #CACACA",
".. c #171717",
".X c #C8C8C8",
".o c #151515",
".O c #C6C6C6",
".+ c #131313",
".@ c #C4C4C4",
".# c #111111",
".$ c #C2C2C2",
".% c #0F0F0F",
".& c #C0C0C0",
".* c #0D0D0D",
".= c #BEBEBE",
".- c #0B0B0B",
".; c #BCBCBC",
".: c #BABABA",
".> c #070707",
"., c #050505",
".< c #030303",
".1 c #B4B4B4",
".2 c #010101",
".3 c #B2B2B2",
".4 c #B0B0B0",
".5 c #AEAEAE",
".6 c #ACACAC",
".7 c #AAAAAA",
".8 c #A6A6A6",
".9 c #A4A4A4",
".0 c #A2A2A2",
".q c #A0A0A0",
".w c #9E9E9E",
".e c #9C9C9C",
".r c #9A9A9A",
".t c #989898",
".y c #969696",
".u c #949494",
".i c #929292",
".p c #909090",
".a c #8A8A8A",
".s c #888888",
".d c #7E7E7E",
".f c #7C7C7C",
".g c #7A7A7A",
".h c #787878",
".j c #767676",
".k c #747474",
".l c #707070",
".z c #6E6E6E",
".x c #6C6C6C",
".c c #686868",
".v c #666666",
".b c #646464",
".n c #626262",
".m c #606060",
".M c #5E5E5E",
".N c #5C5C5C",
".B c #5A5A5A",
".V c #585858",
".C c #565656",
".Z c #545454",
".A c #525252",
".S c #4E4E4E",
".D c #FFFFFF",
".F c #4C4C4C",
".G c #FDFDFD",
".H c #4A4A4A",
".J c #FBFBFB",
".K c #484848",
".L c #F9F9F9",
".P c #464646",
".I c #F7F7F7",
".U c #444444",
".Y c #F5F5F5",
".T c #424242",
".R c #F3F3F3",
".E c #F1F1F1",
".W c #3E3E3E",
".Q c #EFEFEF",
".! c #EDEDED",
".~ c #3A3A3A",
".^ c #EBEBEB",
"./ c #E9E9E9",
".( c #343434",
".) c #E5E5E5",
"._ c #323232",
".` c #E3E3E3",
".' c #303030",
".] c #E1E1E1",
".[ c #2E2E2E",
".{ c #DFDFDF",
".} c #2C2C2C",
".| c #DDDDDD",
"X  c #2A2A2A",
"X. c #DBDBDB",
"XX c #282828",
"Xo c #D9D9D9",
"XO c #262626",
"X+ c #D7D7D7",
"X@ c #242424",
"X# c #D5D5D5",
"X$ c #222222",
"X% c #D3D3D3",
"X& c #202020",
"X* c #D1D1D1",
"X= c #1E1E1E",
"X- c #CFCFCF",
"X; c #1C1C1C",
"X: c #CDCDCD",
"X> c #1A1A1A",
"X, c #181818",
"X< c #161616",
"X1 c #141414",
"X2 c #C5C5C5",
"X3 c #121212",
"X4 c #C3C3C3",
"X5 c #101010",
"X6 c #C1C1C1",
"X7 c #0E0E0E",
"X8 c #BFBFBF",
"X9 c #0C0C0C",
"X0 c #BDBDBD",
"Xq c #0A0A0A",
"Xw c #BBBBBB",
"Xe c #080808",
"Xr c #B9B9B9",
"Xt c #060606",
"Xy c #040404",
"Xu c #B5B5B5",
"Xi c #020202",
"Xp c #B3B3B3",
/* pixels */
".D.D.D.D.D.D.D.D.D.D.D.D.D.D.D.D.D.D.D.D.D.D.D.D.D.D.D.D.D.D.D.D.D.D.D.D.D.D.D.D.D.D.D.D.D.D.D.D.D.D.D.,  .n.D.D.DX&.| H.D.D.D.D",
".D.D.D.D.D.D.D.D.D.D.D.D.D.D.D.D.D.D.D.D.D.D.D.D.D.D.D.D.D.D.D.D.D.D.D.D.D.D.D.D.D.D.D.D.D.D.D.D.D.D.D.,  .K R.D.D.+   a.D.D.D.D",
".D.D.D.D.D.D.D.D.D.D.D.D.D.D.D.D.D.D.D.D.D.D.D.D.D.D.D.D.D.D.D.D.D.D.D.D.D.D.D.D.D.D.D.D.D.D.D.D.D.D.D.,X> B f.t.t.-   L.X.D.D.D",
".D.D.D.D.D.D.D.D.D.D.D.D.D.D.D.D.D.D.D.D.D.D.D.D.D.D.D.D.D.D.D.D.D.D.D.D.D.D.D.D.D.D.D.D.D.D.D.D.D.D.aXi ] 4.T   0Xq     6.D.D.D",
".D.D.D.D.D.D.D.D.D.D.D.D.D.D.D.D.D.D.D.D.D.D.D.D.D.D.D.D.D.D.D.D.D.D.D.D.D.D.D.D.D.D.D.D.D.D.D.D.e s.*    .n.g  . .3.6 8 !Xw.D.D",
".D.D.D.D.D.D.D.D.D.D.D.D.D.D.D.D.D.D.D.D.D.D.D.D.D.D.D.D.D.D.D.D.D.D.D.D.D.D.D.D.D.D.D.D.D E.'.'X1      .( U.g  XO.'.'X&  .r.D.D",
".D.D.D.D.D.D.D.D.D.D.D.D.D.D.D.D.D.D.D.D.D.D.D.D.D.D.D.D.D.D.D.D.D.D.D.D.D.D.D.D.D.D.D.Q.`.%.V.E.E.PX3.!.Y.D.g  .#.o.o.o.o.#X7.]",
".D.D.D.D.D.D.D.D.D.D.D.D.D.D.D.D.D.D.D.D.D.D.D.D.D.D.D.D.D.D.D.D.D.D.D.D.D.D.D.D.D.D E YXi p.D.D.{.~X+.D.D.D = GX#.D.D.D.D r   X",
".D.D.D.D.D.D.D.D.D.D.D.D.D.D.D.D.D.D.D.D.D.D.D.D.D.D.D.D.D.D.D.D.D.D.D.D.D.D.D.D.D.D u v u.D P @.P  X+.D.D.D ' @ @ c.D.D.D r    ",
".D.D.D.D.D.D.D.D.D.D.D.D.D.D.D.D.D.D.D.D.D.D.D.D.D.D.D.D.D.D.D.D.D.D.D.D.D.D.D.D.D.$ I.$.D.D.3    .V.^.D.D.D.g     2.D.DX2.(  .x",
".D.D.D.D.D.D.D.D.D.D.D.D.D.D.D.D.D.D.D.D.D.D.D.D.D.D.D.D.D.D.D.D.D.D.D.D.D.D.D.D.D 2.b H.D P n   i.`.D.D.D.D.g    X5.D.D _ B  .{",
".D.D.D.D.D.D.D.D.D.D.D.D.D.D.D.D.D.D.D.D.D.D.D.D.D.D.D.D.D.D.D.D.D.D.D.D.D.D.D (.W `.q.D.L.( AX6.).D.D.T.z.D.{X6X6X2.D.D.D r  .{",
".D.D.D.D.D.D.D.D.D.D.D.D.D.D.D.D.D.D.D.D.D.D.D.D.D.D.D.D.D.D.D.D.D.D.D.D.D.D cX6  .l.Y dX>.>.%X$ #.D.D.,.W.J.D.D.D.D.D.D.D r  Xo",
".D.D.D.D.D.D.D.D.D.D.D.D.D.D.D.D.D.D.D.D.D.D.D.D.D.D.D.D.D.D.D.D.D.D.D.D UX#X7X X  ;.D CXe.D.D.D.D.D.D.[ `.n.D.D.D.D.D.D.D 3X .,",
".D.D.D.D.D.D.D.D.D.D.D.D.D.D.D.D.D.D.D.D.D.D.D.D.D.D.D.D.D.D.D.D.D.D.D.D d  .V.D.D QXpX Xe.D.D.D.D.D.D.D _.kX..D.D.D.D.D.D.D.DX&",
".D.D.D.D.D.D.D.D.D.D.D.D.D.D.D.D.D.D.D.D.D.D.D.D.D.D.D.D.D.D.D.D.D.D.D.$.g 9 c K.p l.P 9.k.D.D.D.D.D.D.D.D % <.D.D.D.D.D.D.D.DX&",
".D.D.D.D.D.D.D.D.D.D.D.D.D.D.D.D.D.D.D.D.D.D.D.D.D.D.D.D.D.D.D.D.D.D.@._ j.z.z.C   x ^.D.D.D.D.D.D.D.D.D.D % D.z.].D.D.D.D.D.DX&",
".D.D.D.D.D.D.D.D.& j j j j j j j j j j u.D.D.D.D.D.D.D.D.D.D.D.D.D.D.y       o.1.1Xo.D.D.D.D.D.D.D.D.D.D.D %     A N.D.D.D.D.DX&",
".D.D.D > W W W W {.c ^ ^ ^ ^ ^ ^ ^ ^X$., W 5.D.D.D.D.D.D.D.D.D h W WX, 7 ^ ^.G.D.D.D.D.D.D.D.D.D.D.D.D.D.D % 9 ^ TXO W W W.7.DX&",
".D.I ,.<     T.L.L k.D.D.D.D.D.D.D.D z.L.L +X$X$X$X$X$X$X$X$X$X$ A.L.L k.D.D.D.D.D.D.D.D.D.D.D.D.D.D.D.DX6X7.i.D zX3    .*.u.` ]",
".D.:       L.Y.D.D.D.D.D.D.D.D.D.D.D.D.D.D.D.D.D.D.D.D.D.D.D.D.D.D.D.D.D.D.D.D.D.D.D.D.D.D.D.D.D.D.D.D.DX8.n.D.D.D g BX .B.F   G",
".w 8  .( y.].D.D.D.D.D.D.D.D.D.D.D.D.D.D.D.D.D.D.D.D.D.D.D.D.D.D.D.D.D.D.D.D.D.D.D.D.D.D.D.D.D.D.D.D.D.DX8.n.D.D.D.D.D.  y y y.^",
"  X@.S.a.D.D.D.D.D.D.D.D.D.D.D.D.D.D.D.D.D.D.D.D.D.D.D.D.D.D.D.D.D.D.D.D.D.D.D.D.D.D.D.D.D.D.D.D.D.D.D.DX8.n.D.D.D.D.D.D.D.D.D.D",
"  X, J.a.D.D.D.D.D.D.D.D.D.D.D.D.D.D.D.D.D.D.D.D.D.D.D.D.D.D.D.D.D.D.D.D.D.D.D.D.D.D.D.D.D.D.D.D.D.D.D.DX8.n.D.D.D.D.D.D.D.D.D.D",
"    .A K.D.D.D.D.D.D.D.D.D.D.D.D.D.D.D.D.D.D.D.D.D.D.D.D.D.D.D.D.D.D.D.D.D.D.D.D.D.D.D.D.D.D.D.D.D.D.D.DX8.n.D.D.D.D.D.D.D.D.D.D",
"     e.D.D.D.D.D.D.D.D.D.D.D.D.D.D.D.D.D.D.D.D.D.D.D.D.D.D.D.D.D.D.D.D.D.D.D.D.D.D.D.D.D.D.D.D.D.D.D.D.DX8.n.D.D.D.D.D.D.D.D.D.D",
"    .Z./.D.D.D.D.D.D.D.D.D.D.D.D.D.D.D.D.D.D.D.D.D.D.D.D.D.D.D.D.D.D.D.D.D.D.D.D.D.D.D.D.D.D.D.D.D.D.D.DX8.n.D.D.D.D.D.D.D.D.D.D",
"  ..._.a.D.D.D.D.D.D.D.D.D.D.D.D.D.D.D.D.D.D.D.D.D.D.D.D.D.D.D.D.D.D.D.D.D.D.D.D.D.D.D.D.D.D.D.D.D.D.D.DX8.n.D.D.D.D.D.D.D.D.D.D",
"   v.t.a.D.D.D.D.D.D.D.D.D.D.D.D.D.D.D.D.D.D.D.D.D.D.D.D.D.D.D *.D.D.D.D.D.D.D.D.D.D.D.D.D.D.D.D.D.D.D.DX8.n.D.D.D.D.D.D.D.D.D.D",
"   v.t G.v U.D.D.D.D.D.D.D.D.D.D.D.D.D.D.D.D.D.D.D.D.D.D.D.D.DX$.D.D.D.D.D.D.D.D.D.D.D.D.D.D.D.D.D.D.D.DX8.n.D.D.D.D.D.D.D.D.D.D",
"   v.`.C  X-.D.D.D.D.D.D.D.D.D.D.D.D.D.D.D.D.D.D.D.D.D.D.D.D.DX$.D.D.D.D.D.D.D.D.D.D.D.D.D.D.D.D.D.D.D.DX8.n.D.D.D.D.D.D.D.D.D.D",
".2Xq 5 7  X-.D.D.D.D.D.D.D.D.D.D.D.D.D.D.D.D.D.D.D.D.D.D.D.D.DX$ h.D.D.D.D.D.D.D.D.D.D.D.D.D.D h.D.D h ~ | t.D.D.D.D.D.D.D.D.D.D",
"X..q e 7  .3.G.D.D.D.D.D.D.D mX. V.D.D.D.D.D.D.D.D.D.D.D.D.D.D MX@.D.D.D.D.D.D.D.D.D.D.D.D.L.t  .i.DXX / i.D.D.D.D.D.D.D.D.D.D.D",
"  .+ : &.P.*.E.D.D.D.D.D.D.DXp   wXrXrXrXr (.D.D.D.D.D.D.D.D.D hX>Xr ^.D.D.D.D.D.D.D.D.D.D (.o.P.4X: ] z.D.D.D.D.D.D.D.D.D.D.D.D",
"   v.D.D.D.'.E.D.D.D.D.D.D Z , w T.H w w w.g.y.y.y.y.y.y.y.y.y -     w.D.D.D.D.D.D.D.D X.y 4 g.DX4.} p k.D.D.D.D.D.D.D.D.D.D.D.D",
"   v.D.1.kX<.E.D.D.D.D.D.J y /.k 2.|.D.D.DX% > > > > > > > > > >.h   w.D.D.D.D.D.DXw.kX;     /.k I  X+.D.D.D.D.D.D.D.D.D.D.D.D.D",
"   v.D 7    .E.D.D.D.D.D y       :.D.D.D.D.D.D.D.D.D.D.D.D.D.D.DX.   ).4.D.D.D.D.D 2    Xt.5.5.5.5 LX+.D.D.D.D.D.D.D.D.D.D.D.D.D",
"  .* YX<    .E.D.D.D 4 Y.-.5.W '.^.D.D.D.D.D.D.D.D.D.D.D.D.D.D.D c ' 5 >.D.D.DX* YX,   $ _.D.D.D.D.HX+.D.D.D.D.D.D.D.D.D.D.D.D.D",
"      X9X<Xy.E.D.D.sX3X<X#X7.N.D.D.D.D.D.D.D.D.D.D.D.D.D.D.D.D.D.D.D.y >.D.D.D.O  .h i.$.D.D.D.D 8.+X..D.D.D.D.D.D.D.D.D.D.D.D.D",
"       q.O ~.E.D.^ r $.D cX .D.D.D.D.D.D.D.D.D.D.D.D.D.D.D.D.D.D.D.D.y >.D.D z + D.r u.$.D.D.D.D 0Xu.D.D.D.D.D.D.D.D.D.D.D.D.D.D",
"     ~X   .H b.D @   $.D cX .D.D.D.D.D.D.D.D.D.D.D.D.D.D.D.D.D.D.D.D.; 1 U.D./ D.D.D.t ; +.D.`.9.PXu.D.D.D.D.D.D.D.D.D.D.D.D.D.D",
"  X$.3 7   w c.D @   $.D cX .D.D.D.D.D.D.D.D.D.D.D.D.D.D.D.D.D.D.D.D.D.k.5.D./ D.D.D.D CXe.D.3  .K Q.D.D.D.D.D.D.D.D.D.D.D.D.D.D",
"   v.D }.qX= P u.j.A $.D cX .D.D.D.D.D.D.D.D.D.D.D.D.D.D.D.D.D.D.D.D.D.k.5.D./ D.D.D.D CXe.D.3  .i.D.D.D.D.D.D.D.D.D.D.D.D.D.D.D",
".$X%.D.D.D.'.|  .B 1 $.D cX .D.D.D.D.D.D.D.D.D.D.D.D.D.D.D.D.D.D.D.D.D.k.5.D./ D.D.D.D CXe.D.3  .i.D.D.D.D.D.D.D.D.D.D.D.D.D.D.D",
".D.D.D.D.D G./.) %.#.+X>.{X .D.D.D.D.D.D.D.D.D.D.D.D.D.D.D.D.D.D.D.D #X5.4.D./ D.D.D 9X9X5.D.3  .i.D.D.D.D.D.D.D.D.D.D.D.D.D.D.D",
".D.D.D.D.D.DX$.D @.f.m  .|X .D.D.D.D.D.D.D.D.D.D.D.D.D.D.D.D.D.D.D.D.y >.D.D./ D.D.D u.$.D c.u  .i.D.D.D.D.D.D.D.D.D.D.D.D.D.D.D",
".D.D.D.D.D.DX$.D @.f.m  .|X .D.D.D.D.D.D.D.D.D.D.D.D.D.D.D.D.D.D.D.D.y y K.D./ D.D.D u.$.D (.. gXp.D.D.D.D.D.D.D.D.D.D.D.D.D.D.D",
".D.D.D.D.D.DX$.D @.f.8.l.sX .D.D.D.D.D.D.D.D.D.D.D.D.D.D.D.D.D.D.D.D.@ L.5.D./ D.D.D u.$.D ( g.D.D.D.D.D.D.D.D.D.D.D.D.D.D.D.D.D",
".D.D.D.D.D.DX$.D @.f.9 0X9X3 *.D.D.D.D.D.D.D.D.D.D.D.D.D.D.D.D.D.D.D.D.k.5.D./ D.D.D u.$.D ( g.D.D.D.D.D.D.D.D.D.D.D.D.D.D.D.D.D",
".D.D.D.D.D.DX$.D.) 2X;  .0 =.F.D.D.D.D.D.D.D.D.D.D.D.D.D.D.D.D.D.D.D.D.k.5.D./ D.D.D u.$.D ( g.D.D.D.D.D.D.D.D.D.D.D.D.D.D.D.D.D",
".D.D.D.D.D.DX$.D.D 1    X X#.F.D.D.D.D.D.D.D.D.D.D.D.D.D.D.D.D.D.D.D.D.k.5.D./ D.D.D u.$.D ( g.D.D.D.D.D.D.D.D.D.D.D.D.D.D.D.D.D",
".D.D.D.D.D.DX& U S 1.e z )X0.U U.R.D.D.D.D.D.D.D.D.D.D.D.D.D.D.D.D.D.D.k.5.D.+ f.D.D u.$.D ( g.D.D.D.D.D.D.D.D.D.D.D.D.D.D.D.D.D",
".D.D.D.D.D.D v  .B 1 6X8X1       :.D.D.D.D.D.D.D.D.D.D.D.D.D.D.D.D.D.D.k.5.DX$.D.D.D u.$.D ( g.D.D.D.D.D.D.D.D.D.D.D.D.D.D.D.D.D",
".D.D.D.D.D.D F  .B.3 ~    X5 v   p U.D.D.D.D.D.D.D.D.D.D.D.D.D.D.D.DX+ x.5.DX$.D.D.D u.$.D ( g.D.D.D.D.D.D.D.D.D.D.D.D.D.D.D.D.D",
".D.D.D.D.D.D F  .B.=.[    X1 a    .1.D.D.D.D.D.D.D.D.D.D.D.D.D.D.D.D.y  .5.D.. =.D.D u.$.D ( ~.g.O.D.D.D.D.D.D.D.D.D.D.D.D.D.D.D",
".D.D.D.D.D.D F  .B 1.c +.. + + + +.).D.D.D.D.D.D.D.D.D.D.D.D.D.D.D.DX..F.5.D % D.D.D u n.M V.k   L [.D.D.D.D.D.D.D.D.D.D.D.D.D.D",
".D.D.D.D.D.D F  .+ { ) J.*.D.D.D.D.D.D.D.D.D.D.D.D.D.D.D.D.D.D.D.D.D.D.kX@ J.E O J.t R.'Xi J ~    Xu.D.D.D.D.D.D.D.D.D.D.D.D.D.D",
".D.D.D.D.D.D.G S S 2X5X5X#.D.D.D.D.D.D.D.D.D.D.D.D.D.D.D.D.D.D.D.D.D.D.Y j   RX3X5.d.L C.>.|.|.|.MXu.D.D.D.D.D.D.D.D.D.D.D.D.D.D",
".D.D.D.D.D.D.D.D.D.D.D.D.D.D.D.D.D.D.D.D.D.D.D.D.D.D.D.D.D.D.D.D.D.D.D.D d   . TX:.c.q t._._._._._X4.D.D.D.D.D.D.D.D.D.D.D.D.D.D",
".D.D.D.D.D.D.D.D.D.D.D.D.D.D.D.D.D.D.D.D.D.D.D.D.D.D.D.D.D.D.D.D.D.D.D.D d          .q.D.D.D.D.D.D.D.D.D.D.D.D.D.D.D.D.D.D.D.D.D"
};
