/* XPM */
static char *pan-r[] = {
/* width height ncolors chars_per_pixel */
"64 49 122 2",
/* colors */
"   c #000000",
" . c #AFAFAF",
" X c #ADADAD",
" o c #A9A9A9",
" O c #A5A5A5",
" + c #939393",
" @ c #919191",
" # c #8B8B8B",
" $ c #878787",
" % c #858585",
" & c #838383",
" * c #818181",
" = c #7F7F7F",
" - c #7B7B7B",
" ; c #777777",
" : c #757575",
" > c #6F6F6F",
" , c #6B6B6B",
" < c #696969",
" 1 c #676767",
" 2 c #616161",
" 3 c #5F5F5F",
" 4 c #5B5B5B",
" 5 c #515151",
" 6 c #4B4B4B",
" 7 c #FCFCFC",
" 8 c #494949",
" 9 c #FAFAFA",
" 0 c #454545",
" q c #F6F6F6",
" w c #F4F4F4",
" e c #F2F2F2",
" r c #3F3F3F",
" t c #3B3B3B",
" y c #ECECEC",
" u c #393939",
" i c #E8E8E8",
" p c #313131",
" a c #2F2F2F",
" s c #E0E0E0",
" d c #2D2D2D",
" f c #DCDCDC",
" g c #272727",
" h c #D8D8D8",
" j c #D6D6D6",
" k c #D4D4D4",
" l c #1F1F1F",
" z c #D0D0D0",
" x c #CECECE",
" c c #1B1B1B",
" v c #CCCCCC",
" b c #C6C6C6",
" n c #C2C2C2",
" m c #C0C0C0",
" M c #BABABA",
" N c #B8B8B8",
" B c #030303",
" V c #B4B4B4",
" C c #B0B0B0",
" Z c #AEAEAE",
" A c #ACACAC",
" S c #AAAAAA",
" D c #A6A6A6",
" F c #9A9A9A",
" G c #969696",
" H c #949494",
" J c #929292",
" K c #909090",
" L c #8E8E8E",
" P c #8A8A8A",
" I c #888888",
" U c #868686",
" Y c #848484",
" T c #808080",
" R c #7E7E7E",
" E c #787878",
" W c #767676",
" Q c #727272",
" ! c #707070",
" ~ c #6C6C6C",
" ^ c #626262",
" / c #5A5A5A",
" ( c #585858",
" ) c #565656",
" _ c #525252",
" ` c #4E4E4E",
" ' c #FFFFFF",
" ] c #4C4C4C",
" [ c #FBFBFB",
" { c #484848",
" } c #F9F9F9",
" | c #F7F7F7",
".  c #F5F5F5",
".. c #424242",
".X c #F3F3F3",
".o c #3E3E3E",
".O c #3C3C3C",
".+ c #383838",
".@ c #363636",
".# c #E7E7E7",
".$ c #343434",
".% c #E5E5E5",
".& c #303030",
".* c #2A2A2A",
".= c #D7D7D7",
".- c #D5D5D5",
".; c #222222",
".: c #D3D3D3",
".> c #CFCFCF",
"., c #1C1C1C",
".< c #CDCDCD",
".1 c #CBCBCB",
".2 c #C9C9C9",
".3 c #C5C5C5",
".4 c #C3C3C3",
".5 c #C1C1C1",
".6 c #0E0E0E",
".7 c #BDBDBD",
".8 c #BBBBBB",
".9 c #060606",
".0 c #B7B7B7",
".q c #B3B3B3",
/* pixels */
" ' ' ' ' ' ' ' ' ' ' ' ' ' ' ' ' ' ' ' ' ' ' ' ' ' ' ' ' ' ' | m m m.= ' ' ' ' ' ' ' ' ' ' ' ' ' ' ' ' ' ' ' ' ' ' ' ' ' ' ' ' '",
" ' ' ' ' ' ' ' ' ' ' ' ' ' ' ' ' ' ' ' ' ' ' ' ' ' ' ' ' x * * R R R = * L ' ' ' ' ' ' ' ' ' ' ' ' ' ' ' ' ' ' ' ' ' ' ' ' ' ' '",
" ' ' ' ' ' ' ' ' ' ' ' ' ' ' ' ' ' ' ' ' ' ' ' ' ' ' ' ) Q.7 b N.. (.#.7.; % ' ' ' ' ' ' ' ' ' ' ' ' ' ' ' ' ' ' ' ' ' ' ' ' ' '",
" ' ' ' ' ' ' ' ' ' ' ' ' ' ' ' ' ' ' ' ' ' ' ' ' q W.* s.5 8.+.o L S B B O J c D.4.4.  ' ' ' ' ' ' ' ' ' ' ' ' ' ' ' ' ' ' ' ' '",
" ' ' ' ' ' ' ' ' ' ' ' ' ' ' ' ' ' ' '.1 Y Y Y Y ! p z R     : Y R - - - - S C - - - & Y Y Y Y Y i ' ' ' ' ' ' ' ' ' ' ' ' ' ' '",
" ' ' ' ' ' ' ' ' ' ' ' ' ' ' ' f 0 0 0 ; M M M M M j '.5 M M M M.% ' ' ' ' ' ' ' ' '.3 M M M M M 4 0 A ' ' ' ' ' ' ' ' ' ' ' ' '",
" ' ' ' ' ' ' ' ' ' ' ' ' w P r ^ } } } 7 ' ' ' ' ' ' ' ' ' ' ' ' ' ' ' ' ' ' ' ' ' ' ' ' ' ' ' ' 9 } J r 1 b.X ' ' ' ' ' ' ' ' '",
" ' ' ' ' ' ' ' ' ' ' ' S Y V ' ' ' ' ' ' ' ' ' ' ' ' ' ' ' ' ' ' ' ' ' ' ' ' ' ' ' ' ' ' ' ' ' ' ' ' ' '.= E I ' ' ' ' ' ' ' ' '",
" ' ' ' ' ' ' ' ' ' ` { G.3 ' ' ' ' ' ' ' ' ' ' ' ' ' ' ' ' ' ' ' ' ' ' ' ' ' ' ' ' ' ' ' ' ' ' ' ' ' ' ' ' ' n { o ' ' ' ' ' ' '",
" ' ' ' e.2.2.2.2 r M m b.2.2.2.2.2.2.2.2.2.2.2.2.2.2.2.2.2.2.2.2.2.2.2.2.2.2.2.2.2.2.2.2.2.2.2.2.2.2.2.2.2.2.2 m 3.6.2.% ' ' ' '",
" ' ' '.4.+ : : : : : : : : : : : : : : : : : : : : : : : : : : : : : : : : : : : : : : : : : : : : : : : : : : : : : : T # ' ' '",
" ' ' '.4 - ' ' ' ' ' ' ' ' ' ' ' ' ' ' ' ' ' ' ' ' ' ' ' ' ' ' ' ' ' ' ' ' ' ' ' ' ' ' ' ' ' ' ' ' ' ' ' ' ' ' ' ' ' ' h d ' ' '",
" ' ' '.> u D v v v v v v v v v v v v v v v v v v v v v v v v v v v v v v v v v v v v v v v v v v v v v v v v v v v v v &.+ ' ' '",
" ' ' ' ' ' 0 > Q Q Q Q Q Q Q Q Q Q Q Q Q Q Q Q Q Q Q Q Q Q Q Q Q Q Q Q Q Q Q Q Q Q Q Q Q Q Q Q Q Q Q Q Q Q Q Q Q Q > l.8 ' ' ' '",
" ' ' ' ' ' 0 } ' ' ' ' ' ' ' ' ' ' ' ' ' ' ' ' ' ' ' ' ' ' ' ' ' ' ' ' ' ' ' ' ' ' ' ' ' ' ' ' ' ' ' ' ' ' ' ' ' ' } 0 ' ' ' ' '",
" ' ' ' ' ' 0 } ' ' ' ' ' ' ' ' ' ' ' ' ' ' ' ' ' ' ' ' ' ' ' ' ' ' ' ' ' ' ' ' ' ' ' ' ' ' ' ' ' ' ' ' ' ' ' ' ' ' '.q # ' ' ' '",
" ' ' '.% K g } ' ' ' ' ' ' ' ' ' ' ' ' ' ' ' ' ' ' ' ' ' ' ' ' ' ' ' ' ' ' ' ' ' ' ' ' ' ' ' ' ' ' ' ' ' ' ' ' ' ' ' M 6 @ ' ' '",
" ' ' R 1 Z a } ' ' ' ' ' ' ' ' ' ' ' ' ' ' ' ' ' ' ' ' ' ' ' ' ' ' ' ' ' ' ' ' ' ' ' ' ' ' ' ' ' ' ' ' ' ' ' ' ' ' ' M / X 5 5 k",
" ' '.. p U u.<.# ' ' ' ' ' ' ' ' ' ' ' ' ' ' ' ' ' ' ' ' ' ' ' ' ' ' ' ' ' ' ' ' ' ' ' ' ' ' ' ' ' ' ' ' ' ' ' ' ' f O.@ r 3 : m",
" ' '.. 7 N ~ ~ R + [ ' ' ' ' ' ' ' ' ' ' ' ' ' ' ' ' ' ' ' ' ' ' ' ' ' ' ' ' ' ' ' ' ' ' ' ' ' ' ' ' ' ' ' ' ' ' ' t H ' ' ' R m",
" ' '.. 7 ' ' '.=.& q ' ' ' ' ' ' ' ' ' ' ' ' ' ' ' ' ' ' ' ' ' ' ' ' ' ' ' ' ' ' ' ' ' ' ' ' ' ' ' ' ' ' ' ' ' ' ' r ' ' ' ' R m",
" ' ' 2 r $.-.-.-.O q ' ' ' ' ' ' ' ' ' ' ' ' ' ' ' ' ' ' ' ' ' ' ' ' ' ' ' ' ' ' ' ' ' ' ' ' ' ' ' ' ' ' ' ' ' ' & F.-.-.: r.$.1",
" ' ' ' '.0., 1 < < 9 ' ' ' ' ' ' ' ' ' ' ' ' ' ' ' ' ' ' ' ' ' ' ' ' ' ' ' ' ' ' ' ' ' ' ' ' ' ' ' ' ' ' ' ' ' ' . < ].@ , ' ' '",
" ' ' ' ' ' 0 } ' ' ' ' ' ' ' ' ' ' ' ' ' ' ' ' ' ' ' ' ' ' ' ' ' ' ' ' ' ' ' ' ' ' ' ' ' ' ' ' ' ' ' ' ' ' ' ' ' ' ' M Y ' ' ' '",
" ' ' ' ' ' 0 } ' ' ' ' ' ' ' ' ' ' ' ' ' ' ' ' ' ' ' ' ' ' ' ' ' ' ' ' ' ' ' ' ' ' ' ' ' ' ' ' ' ' ' ' ' ' ' ' ' ' ' M Y ' ' ' '",
" ' ' ' ' ' 0 } ' ' ' ' ' ' ' ' ' ' ' ' ' ' ' ' ' ' ' ' ' ' ' ' ' ' ' ' ' ' ' ' ' ' ' ' ' ' ' ' ' ' ' ' ' ' ' ' ' ' ' M Y ' ' ' '",
" ' ' ' ' ' 0 } ' ' ' ' ' ' ' ' ' ' ' ' ' ' ' ' ' ' ' ' ' ' ' ' ' ' ' ' ' ' ' ' ' ' ' ' ' ' ' ' ' ' ' ' ' ' ' ' ' ' ' M Y ' ' ' '",
" ' ' ' ' ' 0 } ' ' ' ' ' ' ' ' ' ' ' ' ' ' ' ' ' ' ' ' ' ' ' ' ' ' ' ' ' ' ' ' ' ' ' ' ' ' ' ' ' ' ' ' ' ' ' ' ' ' ' M Y ' ' ' '",
" ' ' ' ' ' 0 } ' ' ' ' ' ' ' ' ' ' ' ' ' ' ' ' ' ' ' ' ' ' ' ' ' ' ' ' ' ' ' ' ' ' ' ' ' ' ' ' ' ' ' ' ' ' ' ' ' ' ' M Y ' ' ' '",
" ' ' ' ' ' 0 } ' ' ' ' ' ' ' ' ' ' ' ' ' ' ' ' ' ' ' ' ' ' ' ' ' ' ' ' ' ' ' ' ' ' ' ' ' ' ' ' ' ' ' ' ' ' ' ' ' ' ' M Y ' ' ' '",
" ' ' ' ' ' 0 } ' ' ' ' ' ' ' ' ' ' ' ' ' ' ' ' ' ' ' ' ' ' ' ' ' ' ' ' ' ' ' ' ' ' ' ' ' ' ' ' ' ' ' ' ' ' ' ' ' ' ' M Y ' ' ' '",
" ' ' ' ' ' 0 } ' ' ' ' ' ' ' ' ' ' ' ' ' ' ' ' ' ' ' ' ' ' ' ' ' ' ' ' ' ' ' ' ' ' ' ' ' ' ' ' ' ' ' ' ' ' ' ' ' ' ' M Y ' ' ' '",
" ' ' ' ' ' 0 } ' ' ' ' ' ' ' ' ' ' ' ' ' ' ' ' ' ' ' ' ' ' ' ' ' ' ' ' ' ' ' ' ' ' ' ' ' ' ' ' ' ' ' ' ' ' ' ' ' ' ' M Y ' ' ' '",
" ' ' ' ' ' 0 } ' ' ' ' ' ' ' ' ' ' ' ' ' ' ' ' ' ' ' ' ' ' ' ' ' ' ' ' ' ' ' ' ' ' ' ' ' ' ' ' ' ' ' ' ' ' ' ' ' ' ' M Y ' ' ' '",
" ' ' ' ' ' 0 } ' ' ' ' ' ' ' ' ' ' ' ' ' ' ' ' ' ' ' ' ' ' ' ' ' ' ' ' ' ' ' ' ' ' ' ' ' ' ' ' ' ' ' ' ' ' ' ' ' ' ' M Y ' ' ' '",
" ' ' ' ' ' 0 } ' ' ' ' ' ' ' ' ' ' ' ' ' ' ' ' ' ' ' ' ' ' ' ' ' ' ' ' ' ' ' ' ' ' ' ' ' ' ' ' ' ' ' ' ' ' ' ' ' ' ' M Y ' ' ' '",
" ' ' ' ' ' 0 } ' ' ' ' ' ' ' ' ' ' ' ' ' ' ' ' ' ' ' ' ' ' ' ' ' ' ' ' ' ' ' ' ' ' ' ' ' ' ' ' ' ' ' ' ' ' ' ' ' ' ' M Y ' ' ' '",
" ' ' ' ' ' 0 } ' ' ' ' ' ' ' ' ' ' ' ' ' ' ' ' ' ' ' ' ' ' ' ' ' ' ' ' ' ' ' ' ' ' ' ' ' ' ' ' ' ' ' ' ' ' ' ' ' ' ' M Y ' ' ' '",
" ' ' ' ' ' 0 } ' ' ' ' ' ' ' ' ' ' ' ' ' ' ' ' ' ' ' ' ' ' ' ' ' ' ' ' ' ' ' ' ' ' ' ' ' ' ' ' ' ' ' ' ' ' ' ' ' ' ' M Y ' ' ' '",
" ' ' ' ' ' 0 } ' ' ' ' ' ' ' ' ' ' ' ' ' ' ' ' ' ' ' ' ' ' ' ' ' ' ' ' ' ' ' ' ' ' ' ' ' ' ' ' ' ' ' ' ' ' ' ' ' ' ' M Y ' ' ' '",
" ' ' ' ' ' 0 } ' ' ' ' ' ' ' ' ' ' ' ' ' ' ' ' ' ' ' ' ' ' ' ' ' ' ' ' ' ' ' ' ' ' ' ' ' ' ' ' ' ' ' ' ' ' ' ' ' ' ' M Y ' ' ' '",
" ' ' ' ' ' 0 } ' ' ' ' ' ' ' ' ' ' ' ' ' ' ' ' ' ' ' ' ' ' ' ' ' ' ' ' ' ' ' ' ' ' ' ' ' ' ' ' ' ' ' ' ' ' ' ' ' ' ' M Y ' ' ' '",
" ' ' ' ' ' 0 } ' ' ' ' ' ' ' ' ' ' ' ' ' ' ' ' ' ' ' ' ' ' ' ' ' ' ' ' ' ' ' ' ' ' ' ' ' ' ' ' ' ' ' ' ' ' ' ' ' ' ' M Y ' ' ' '",
" ' ' ' ' ' 0 } ' ' ' ' ' ' ' ' ' ' ' ' ' ' ' ' ' ' ' ' ' ' ' ' ' ' ' ' ' ' ' ' ' ' ' ' ' ' ' ' ' ' ' ' ' ' ' ' ' ' ' M Y ' ' ' '",
" ' ' ' ' ' 0 } ' ' ' ' ' ' ' ' ' ' ' ' ' ' ' ' ' ' ' ' ' ' ' ' ' ' ' ' ' ' ' ' ' ' ' ' ' ' ' ' ' ' ' ' ' ' ' ' ' ' ' M Y ' ' ' '",
" ' ' ' ' ' _ y ' ' ' ' ' ' ' ' ' ' ' ' ' ' ' ' ' ' ' ' ' ' ' ' ' ' ' ' ' ' ' ' ' ' ' ' ' ' ' ' ' ' ' ' ' ' ' ' ' ' ' M Y ' ' ' '",
" ' ' ' ' ' ' r ' ' ' ' ' ' ' ' ' ' ' ' ' ' ' ' ' ' ' ' ' ' ' ' ' ' ' ' ' ' ' ' ' ' ' ' ' ' ' ' ' ' ' ' ' ' ' ' ' ' ' M Y ' ' ' '",
" ' ' ' ' ' ' l > > > > > > > > > > > > > > > > > > > > > > > > > > > > > > > > > > > > > > > > > > > > > > > > > > > 5 Y ' ' ' '",
" ' ' ' ' ' '.9                                                                                                         Y ' ' ' '"
};
