/* XPM */
static char *pan-r[] = {
/* width height ncolors chars_per_pixel */
"64 50 129 2",
/* colors */
"   c #000000",
" . c #B1B1B1",
" X c #ADADAD",
" o c #A7A7A7",
" O c #A5A5A5",
" + c #A3A3A3",
" @ c #A1A1A1",
" # c #9D9D9D",
" $ c #999999",
" % c #979797",
" & c #919191",
" * c #8F8F8F",
" = c #8D8D8D",
" - c #8B8B8B",
" ; c #898989",
" : c #878787",
" > c #7F7F7F",
" , c #7B7B7B",
" < c #757575",
" 1 c #6D6D6D",
" 2 c #6B6B6B",
" 3 c #676767",
" 4 c #616161",
" 5 c #5F5F5F",
" 6 c #575757",
" 7 c #4F4F4F",
" 8 c #FCFCFC",
" 9 c #FAFAFA",
" 0 c #F8F8F8",
" q c #454545",
" w c #434343",
" e c #F4F4F4",
" r c #414141",
" t c #F2F2F2",
" y c #3F3F3F",
" u c #3B3B3B",
" i c #ECECEC",
" p c #393939",
" a c #E8E8E8",
" s c #353535",
" d c #E6E6E6",
" f c #333333",
" g c #E4E4E4",
" h c #E0E0E0",
" j c #2B2B2B",
" k c #292929",
" l c #DADADA",
" z c #272727",
" x c #D8D8D8",
" c c #252525",
" v c #D4D4D4",
" b c #212121",
" n c #1F1F1F",
" m c #1B1B1B",
" M c #CCCCCC",
" N c #191919",
" B c #C8C8C8",
" V c #111111",
" C c #C2C2C2",
" Z c #C0C0C0",
" A c #0D0D0D",
" S c #BEBEBE",
" D c #BABABA",
" F c #B6B6B6",
" G c #B0B0B0",
" H c #AEAEAE",
" J c #ACACAC",
" K c #AAAAAA",
" L c #A6A6A6",
" P c #A2A2A2",
" I c #9E9E9E",
" U c #9C9C9C",
" Y c #9A9A9A",
" T c #989898",
" R c #949494",
" E c #929292",
" W c #8E8E8E",
" Q c #8C8C8C",
" ! c #868686",
" ~ c #848484",
" ^ c #808080",
" / c #7C7C7C",
" ( c #787878",
" ) c #767676",
" _ c #707070",
" ` c #6C6C6C",
" ' c #6A6A6A",
" ] c #606060",
" [ c #5E5E5E",
" { c #5C5C5C",
" } c #5A5A5A",
" | c #545454",
".  c #525252",
".. c #4E4E4E",
".X c #FFFFFF",
".o c #4C4C4C",
".O c #FDFDFD",
".+ c #4A4A4A",
".@ c #FBFBFB",
".# c #F9F9F9",
".$ c #F5F5F5",
".% c #424242",
".& c #404040",
".* c #F1F1F1",
".= c #EDEDED",
".- c #3A3A3A",
".; c #EBEBEB",
".: c #E9E9E9",
".> c #363636",
"., c #E7E7E7",
".< c #343434",
".1 c #E5E5E5",
".2 c #E3E3E3",
".3 c #303030",
".4 c #DDDDDD",
".5 c #DBDBDB",
".6 c #262626",
".7 c #242424",
".8 c #222222",
".9 c #D3D3D3",
".0 c #CFCFCF",
".q c #1C1C1C",
".w c #C9C9C9",
".e c #141414",
".r c #121212",
".t c #BFBFBF",
".y c #BDBDBD",
".u c #BBBBBB",
".i c #020202",
/* pixels */
".X.X.X.X.X.X.X.X.X.X.X.X.X.X.X.X.X.X.X.X.X.X.X.X.X.X.X i.w.w p.>.>.-.w.w.=.X.X.X.X.X.X.X.X.X.X.X.X.X.X.X.X.X.X.X.X.X.X.X.X.X.X.X",
".X.X.X.X.X.X.X.X.X.X.X.X.X.X.X.X.X.X.X.X.X.X.X.X.X.X U ! 2 2 a R R., 2 u 4.*.X.X.X.X.X.X.X.X.X.X.X.X.X.X.X.X.X.X.X.X.X.X.X.X.X.X",
".X.X.X.X.X.X.X.X.X.X.X.X.X.X.X.X.X.X.X.X.X.X.X.X X [ U C O [.o.& @ ' [ / @ 3 Q.X.X.X.X.X.X.X.X.X.X.X.X.X.X.X.X.X.X.X.X.X.X.X.X.X",
".X.X.X.X.X.X.X.X.X.X.X.X.X.X.X.X.X.X e t t t t F m # v k.r Y.w W.>.e A n.> . N.>.>.. t t t t t t 8.X.X.X.X.X.X.X.X.X.X.X.X.X.X.X",
".X.X.X.X.X.X.X.X.X.X.X.X.X.X M.y.y.y 6.%.%.%.%.% P.X 7.%.%.%.% =.X.X.X.X.X.X.X.X.X.,.%.%.%.%.%.% O.y l.X.X.X.X.X.X.X.X.X.X.X.X.X",
".X.X.X.X.X.X.X.X.X.X.X.= : : , ( ( ( a.X.X.X.X.X.X.X.X.X.X.X.X.X.X.X.X.X.X.X.X.X.X.X.X.X.X.X.X.X E ( > : *.X.X.X.X.X.X.X.X.X.X.X",
".X.X.X.X.X.X.X.X.X.X.X ' X X.=.X.X.X.X.X.X.X.X.X.X.X.X.X.X.X.X.X.X.X.X.X.X.X.X.X.X.X.X.X.X.X.X.X.X.X.5 X o.  L.X.X.X.X.X.X.X.X.X",
".X.X.X.X.X.X.X.: d -.>.4.X.X.X.X.X.X.X.X.X.X.X.X.X.X.X.X.X.X.X.X.X.X.X.X.X.X.X.X.X.X.X.X.X.X.X.X.X.X.X.X.O.2 * ..:.X.X.X.X.X.X.X",
".X.X.X.X.X.X.w } 7 K.X.X.X.X.X.X.X.X.X.X.X.X.X.X.X.X.X.X.X.X.X.X.X.X.X.X.X.X.X.X.X.X.X.X.X.X.X.X.X.X.X.X.X.X.X ~ } G l.X.X.X.X.X",
".X B , , , , z 1 , , , , , , , , , , , , , , , , , , , , , , , , , , , , , , , , , , , , , , , , , , , , , , , , 1  .% ,.#.X.X.X",
".X R < D D D D D D D D D D D D D D D D D D D D D D D D D D D D D D D D D D D D D D D D D D D D D D D D D D D D D D D D D.+ -.X.X",
".X R ;.#.X.X.X.X.X.X.X.X.X.X.X.X.X.X.X.X.X.X.X.X.X.X.X.X.X.X.X.X.X.X.X.X.X.X.X.X.X.X.X.X.X.X.X.X.X.X.X.X.X.X.X.X.X.X.X.X K ].X.X",
".X.u { T + + + + + + + + + + + + + + + + + + + + + + + + + + + + + + + + + + + + + + + + + + + + + + + + + + + + + + + + 5 $.X.X",
".X.X.X.3 & & & & & & & & & & & & & & & & & & & & & & & & & & & & & & & & & & & & & & & & & & & & & & & & & & & & & & w ` 9.X.X.X",
".X.X.X.>.X.X.X.X.X.X.X.X.X.X.X.X.X.X.X.X.X.X.X.X.X.X.X.X.X.X.X.X.X.X.X.X.X.X.X.X.X.X.X.X.X.X.X.X.X.X.X.X.X.X.X.X.X.X ).t.X.X.X.X",
".X.X.X.>.X.X.X.X.X.X.X.X.X.X.X.X.X.X.X.X.X.X.X.X.X.X.X.X.X.X.X.X.X.X.X.X.X.X.X.X.X.X.X.X.X.X.X.X.X.X.X.X.X.X.X.X.X.X.O.% e.X.X.X",
".X.9 % c.X.X.X.X.X.X.X.X.X.X.X.X.X.X.X.X.X.X.X.X.X.X.X.X.X.X.X.X.X.X.X.X.X.X.X.X.X.X.X.X.X.X.X.X.X.X.X.X.X.X.X.X.X.X.X.& & S.X.X",
" 4 , I.6.X.X.X.X.X.X.X.X.X.X.X.X.X.X.X.X.X.X.X.X.X.X.X.X.X.X.X.X.X.X.X.X.X.X.X.X.X.X.X.X.X.X.X.X.X.X.X.X.X.X.X.X.X.X.X.& % : 4 4",
".i.q H f.$ 9.X.X.X.X.X.X.X.X.X.X.X.X.X.X.X.X.X.X.X.X.X.X.X.X.X.X.X.X.X.X.X.X.X.X.X.X.X.X.X.X.X.X.X.X.X.X.X.X.X.X.X 8.$ q.< c ^ j",
".>.X :.&.& /.t 0.X.X.X.X.X.X.X.X.X.X.X.X.X.X.X.X.X.X.X.X.X.X.X.X.X.X.X.X.X.X.X.X.X.X.X.X.X.X.X.X.X.X.X.X.X.X.X.X.X J.8.0.X.X.X.<",
".>.X.X.X.X S c.2.X.X.X.X.X.X.X.X.X.X.X.X.X.X.X.X.X.X.X.X.X.X.X.X.X.X.X.X.X.X.X.X.X.X.X.X.X.X.X.X.X.X.X.X.X.X.X.X.X J ;.X.X.X.X.<",
".r | Z.X.X.X. .2.X.X.X.X.X.X.X.X.X.X.X.X.X.X.X.X.X.X.X.X.X.X.X.X.X.X.X.X.X.X.X.X.X.X.X.X.X.X.X.X.X.X.X.X.X.X.X.X.; _ x.X.X.t | V",
" h h <.7.>.> b.1.X.X.X.X.X.X.X.X.X.X.X.X.X.X.X.X.X.X.X.X.X.X.X.X.X.X.X.X.X.X.X.X.X.X.X.X.X.X.X.X.X.X.X.X.X.X.X.X g b.> c s ) h h",
".X.X.X.>.X.X.X.X.X.X.X.X.X.X.X.X.X.X.X.X.X.X.X.X.X.X.X.X.X.X.X.X.X.X.X.X.X.X.X.X.X.X.X.X.X.X.X.X.X.X.X.X.X.X.X.X.X.X.X.& e.X.X.X",
".X.X.X.>.X.X.X.X.X.X.X.X.X.X.X.X.X.X.X.X.X.X.X.X.X.X.X.X.X.X.X.X.X.X.X.X.X.X.X.X.X.X.X.X.X.X.X.X.X.X.X.X.X.X.X.X.X.X.X.& e.X.X.X",
".X.X.X.>.X.X.X.X.X.X.X.X.X.X.X.X.X.X.X.X.X.X.X.X.X.X.X.X.X.X.X.X.X.X.X.X.X.X.X.X.X.X.X.X.X.X.X.X.X.X.X.X.X.X.X.X.X.X.X.& e.X.X.X",
".X.X.X.>.X.X.X.X.X.X.X.X.X.X.X.X.X.X.X.X.X.X.X.X.X.X.X.X.X.X.X.X.X.X.X.X.X.X.X.X.X.X.X.X.X.X.X.X.X.X.X.X.X.X.X.X.X.X.X.& e.X.X.X",
".X.X.X.>.X.X.X.X.X.X.X.X.X.X.X.X.X.X.X.X.X.X.X.X.X.X.X.X.X.X.X.X.X.X.X.X.X.X.X.X.X.X.X.X.X.X.X.X.X.X.X.X.X.X.X.X.X.X.X.& e.X.X.X",
".X.X.X.>.X.X.X.X.X.X.X.X.X.X.X.X.X.X.X.X.X.X.X.X.X.X.X.X.X.X.X.X.X.X.X.X.X.X.X.X.X.X.X.X.X.X.X.X.X.X.X.X.X.X.X.X.X.X.X.& e.X.X.X",
".X.X.X.>.X.X.X.X.X.X.X.X.X.X.X.X.X.X.X.X.X.X.X.X.X.X.X.X.X.X.X.X.X.X.X.X.X.X.X.X.X.X.X.X.X.X.X.X.X.X.X.X.X.X.X.X.X.X.X.& e.X.X.X",
".X.X.X.>.X.X.X.X.X.X.X.X.X.X.X.X.X.X.X.X.X.X.X.X.X.X.X.X.X.X.X.X.X.X.X.X.X.X.X.X.X.X.X.X.X.X.X.X.X.X.X.X.X.X.X.X.X.X.X.& e.X.X.X",
".X.X.X.>.X.X.X.X.X.X.X.X.X.X.X.X.X.X.X.X.X.X.X.X.X.X.X.X.X.X.X.X.X.X.X.X.X.X.X.X.X.X.X.X.X.X.X.X.X.X.X.X.X.X.X.X.X.X.X.& e.X.X.X",
".X.X.X.>.X.X.X.X.X.X.X.X.X.X.X.X.X.X.X.X.X.X.X.X.X.X.X.X.X.X.X.X.X.X.X.X.X.X.X.X.X.X.X.X.X.X.X.X.X.X.X.X.X.X.X.X.X.X.X.& e.X.X.X",
".X.X.X.>.X.X.X.X.X.X.X.X.X.X.X.X.X.X.X.X.X.X.X.X.X.X.X.X.X.X.X.X.X.X.X.X.X.X.X.X.X.X.X.X.X.X.X.X.X.X.X.X.X.X.X.X.X.X.X.& e.X.X.X",
".X.X.X.>.X.X.X.X.X.X.X.X.X.X.X.X.X.X.X.X.X.X.X.X.X.X.X.X.X.X.X.X.X.X.X.X.X.X.X.X.X.X.X.X.X.X.X.X.X.X.X.X.X.X.X.X.X.X.X.& e.X.X.X",
".X.X.X.>.X.X.X.X.X.X.X.X.X.X.X.X.X.X.X.X.X.X.X.X.X.X.X.X.X.X.X.X.X.X.X.X.X.X.X.X.X.X.X.X.X.X.X.X.X.X.X.X.X.X.X.X.X.X.X.& e.X.X.X",
".X.X.X.>.X.X.X.X.X.X.X.X.X.X.X.X.X.X.X.X.X.X.X.X.X.X.X.X.X.X.X.X.X.X.X.X.X.X.X.X.X.X.X.X.X.X.X.X.X.X.X.X.X.X.X.X.X.X.X.& e.X.X.X",
".X.X.X.>.X.X.X.X.X.X.X.X.X.X.X.X.X.X.X.X.X.X.X.X.X.X.X.X.X.X.X.X.X.X.X.X.X.X.X.X.X.X.X.X.X.X.X.X.X.X.X.X.X.X.X.X.X.X.X.& e.X.X.X",
".X.X.X.>.X.X.X.X.X.X.X.X.X.X.X.X.X.X.X.X.X.X.X.X.X.X.X.X.X.X.X.X.X.X.X.X.X.X.X.X.X.X.X.X.X.X.X.X.X.X.X.X.X.X.X.X.X.X.X.& e.X.X.X",
".X.X.X.>.X.X.X.X.X.X.X.X.X.X.X.X.X.X.X.X.X.X.X.X.X.X.X.X.X.X.X.X.X.X.X.X.X.X.X.X.X.X.X.X.X.X.X.X.X.X.X.X.X.X.X.X.X.X.X.& e.X.X.X",
".X.X.X.>.X.X.X.X.X.X.X.X.X.X.X.X.X.X.X.X.X.X.X.X.X.X.X.X.X.X.X.X.X.X.X.X.X.X.X.X.X.X.X.X.X.X.X.X.X.X.X.X.X.X.X.X.X.X.X.& e.X.X.X",
".X.X.X.>.X.X.X.X.X.X.X.X.X.X.X.X.X.X.X.X.X.X.X.X.X.X.X.X.X.X.X.X.X.X.X.X.X.X.X.X.X.X.X.X.X.X.X.X.X.X.X.X.X.X.X.X.X.X.X.& e.X.X.X",
".X.X.X.>.X.X.X.X.X.X.X.X.X.X.X.X.X.X.X.X.X.X.X.X.X.X.X.X.X.X.X.X.X.X.X.X.X.X.X.X.X.X.X.X.X.X.X.X.X.X.X.X.X.X.X.X.X.X.X.& e.X.X.X",
".X.X.X.>.X.X.X.X.X.X.X.X.X.X.X.X.X.X.X.X.X.X.X.X.X.X.X.X.X.X.X.X.X.X.X.X.X.X.X.X.X.X.X.X.X.X.X.X.X.X.X.X.X.X.X.X.X.X.X.& e.X.X.X",
".X.X.X.>.X.X.X.X.X.X.X.X.X.X.X.X.X.X.X.X.X.X.X.X.X.X.X.X.X.X.X.X.X.X.X.X.X.X.X.X.X.X.X.X.X.X.X.X.X.X.X.X.X.X.X.X.X.X.X.& e.X.X.X",
".X.X.X.>.X.X.X.X.X.X.X.X.X.X.X.X.X.X.X.X.X.X.X.X.X.X.X.X.X.X.X.X.X.X.X.X.X.X.X.X.X.X.X.X.X.X.X.X.X.X.X.X.X.X.X.X.X.X.X.& e.X.X.X",
".X.X.X.>.X.X.X.X.X.X.X.X.X.X.X.X.X.X.X.X.X.X.X.X.X.X.X.X.X.X.X.X.X.X.X.X.X.X.X.X.X.X.X.X.X.X.X.X.X.X.X.X.X.X.X.X.X.X.X.& e.X.X.X",
".X.X.X L W.X.X.X.X.X.X.X.X.X.X.X.X.X.X.X.X.X.X.X.X.X.X.X.X.X.X.X.X.X.X.X.X.X.X.X.X.X.X.X.X.X.X.X.X.X.X.X.X.X.X.X.X.X.X.& e.X.X.X",
".X.X.X t r.@.@.@.@.@.@.@.@.@.@.@.@.@.@.@.@.@.@.@.@.@.@.@.@.@.@.@.@.@.@.@.@.@.@.@.@.@.@.@.@.@.@.@.@.@.@.@.@.@.@.@.@.@.@ y e.X.X.X",
".X.X.X t                                                                                                                 e.X.X.X"
};
