/* XPM */
static char *peer-r[] = {
/* width height ncolors chars_per_pixel */
"49 64 132 2",
/* colors */
"   c #000000",
" . c #B1B1B1",
" X c #AFAFAF",
" o c #ADADAD",
" O c #ABABAB",
" + c #A7A7A7",
" @ c #A3A3A3",
" # c #9F9F9F",
" $ c #9D9D9D",
" % c #9B9B9B",
" & c #999999",
" * c #979797",
" = c #959595",
" - c #939393",
" ; c #919191",
" : c #8D8D8D",
" > c #8B8B8B",
" , c #898989",
" < c #878787",
" 1 c #858585",
" 2 c #838383",
" 3 c #7D7D7D",
" 4 c #7B7B7B",
" 5 c #797979",
" 6 c #777777",
" 7 c #737373",
" 8 c #717171",
" 9 c #6F6F6F",
" 0 c #6D6D6D",
" q c #696969",
" w c #656565",
" e c #636363",
" r c #575757",
" t c #FEFEFE",
" y c #FCFCFC",
" u c #FAFAFA",
" i c #F6F6F6",
" p c #F4F4F4",
" a c #F2F2F2",
" s c #F0F0F0",
" d c #EEEEEE",
" f c #ECECEC",
" g c #EAEAEA",
" h c #E8E8E8",
" j c #353535",
" k c #E6E6E6",
" l c #E2E2E2",
" z c #E0E0E0",
" x c #DEDEDE",
" c c #DCDCDC",
" v c #D8D8D8",
" b c #D6D6D6",
" n c #D4D4D4",
" m c #D2D2D2",
" M c #D0D0D0",
" N c #CECECE",
" B c #CACACA",
" V c #C8C8C8",
" C c #C4C4C4",
" Z c #C2C2C2",
" A c #C0C0C0",
" S c #BCBCBC",
" D c #BABABA",
" F c #B8B8B8",
" G c #B6B6B6",
" H c #B4B4B4",
" J c #B2B2B2",
" K c #B0B0B0",
" L c #ACACAC",
" P c #AAAAAA",
" I c #A8A8A8",
" U c #A2A2A2",
" Y c #A0A0A0",
" T c #9E9E9E",
" R c #9C9C9C",
" E c #9A9A9A",
" W c #989898",
" Q c #969696",
" ! c #949494",
" ~ c #929292",
" ^ c #8E8E8E",
" / c #8C8C8C",
" ( c #8A8A8A",
" ) c #868686",
" _ c #828282",
" ` c #808080",
" ' c #7E7E7E",
" ] c #7C7C7C",
" [ c #7A7A7A",
" { c #787878",
" } c #767676",
" | c #747474",
".  c #727272",
".. c #707070",
".X c #6E6E6E",
".o c #6C6C6C",
".O c #6A6A6A",
".+ c #686868",
".@ c #585858",
".# c #565656",
".$ c #505050",
".% c #FFFFFF",
".& c #4C4C4C",
".* c #FDFDFD",
".= c #FBFBFB",
".- c #F7F7F7",
".; c #F5F5F5",
".: c #F3F3F3",
".> c #F1F1F1",
"., c #3E3E3E",
".< c #EDEDED",
".1 c #EBEBEB",
".2 c #E9E9E9",
".3 c #E7E7E7",
".4 c #323232",
".5 c #E3E3E3",
".6 c #E1E1E1",
".7 c #DDDDDD",
".8 c #DBDBDB",
".9 c #D9D9D9",
".0 c #D3D3D3",
".q c #CFCFCF",
".w c #CDCDCD",
".e c #CBCBCB",
".r c #181818",
".t c #C9C9C9",
".y c #C7C7C7",
".u c #C5C5C5",
".i c #C1C1C1",
".p c #BDBDBD",
".a c #B7B7B7",
".s c #B5B5B5",
/* pixels */
".%.%.%.%.%.%.%.%.%.%.%.%.%.%.%.%.%.%.%.%.%.%.%.%.%.%.% O.9.%.%.%.%.%.%.%.%.%.%.%.%.%.%.%.%.%.%.%.%",
".%.%.%.%.%.%.%.%.%.%.%.%.%.%.%.%.%.%.%.%.%.%.%.%.%.*.q.X > ;.9.%.%.%.%.%.%.%.%.%.%.%.%.%.%.%.%.%.%",
".%.%.%.%.%.%.%.%.%.%.%.%.%.%.%.%.%.%.%.%.%.%.%.%.%.;   n y., j.%.%.%.%.%.%.%.%.%.%.%.%.%.%.%.%.%.%",
".%.%.%.%.%.%.%.%.%.%.%.%.%.%.%.%.%.%.%.%.%.%.%.%.%.+ u t w Y.=.%.%.%.%.%.%.%.%.%.%.%.%.%.%.%.%.%.%",
".%.%.%.%.%.%.%.%.%.%.%.%.%.%.%.%.%.%.%.%.%.%.%.%.% w.% m j.%.%.%.%.%.%.%.%.%.%.%.%.%.%.%.%.%.%.%.%",
".%.%.%.%.%.%.%.%.%.%.%.%.%.%.%.%.%.%.%.%.%.%.%.% c.4.%.u #.%.%.%.%.%.%.%.%.%.%.%.%.%.%.%.%.%.%.%.%",
".%.%.%.%.%.%.%.%.%.%.%.%.%.%.%.%.%.%.%.%.%.%.%.% A T.%.u #.%.%.%.%.%.%.%.%.%.%.%.%.%.%.%.%.%.%.%.%",
".%.%.%.%.%.%.%.%.%.%.%.%.%.%.%.%.%.%.% y v D w w.# J.% N.$ v z.%.%.%.%.%.%.%.%.%.%.%.%.%.%.%.%.%.%",
".%.%.%.%.%.%.%.%.%.%.%.%.%.%.%.%.%.%.% U / P.%.%.%.%.%.%.* / < V.%.%.%.%.%.%.%.%.%.%.%.%.%.%.%.%.%",
".%.%.%.%.%.%.%.%.%.%.%.%.%.%.%.%.% n 0.u.%.%.%.%.%.%.%.%.%.% y R `.<.%.%.%.%.%.%.%.%.%.%.%.%.%.%.%",
".%.%.%.%.%.%.%.%.%.%.%.%.%.%.%.%.< '.-.%.%.%.%.%.%.%.%.%.%.%.%.% + G.>.%.%.%.%.%.%.%.%.%.%.%.%.%.%",
".%.%.%.%.%.%.%.%.%.%.%.%.%.%.%.% U Z.%.%.%.%.%.%.%.%.%.%.%.%.%.%.% Y '.*.%.%.%.%.%.%.%.%.%.%.%.%.%",
".%.%.%.%.%.%.%.%.%.%.%.%.%.%.% F L.%.%.%.%.%.%.%.%.%.%.%.%.%.%.%.%.% p...%.%.%.%.%.%.%.%.%.%.%.%.%",
".%.%.%.%.%.%.%.%.%.%.%.%.%.% U.O.2.%.%.%.%.%.%.%.%.%.%.%.%.%.%.%.%.%.% &.e.%.%.%.%.%.%.%.%.%.%.%.%",
".%.%.%.%.%.%.%.%.%.%.%.%.% s ` I.%.%.%.%.%.%.%.%.%.%.%.%.%.%.%.%.%.%.%.% w.%.%.%.%.%.%.%.%.%.%.%.%",
".%.%.%.%.%.%.%.%.%.%.%.%.% l _.%.%.%.%.%.%.%.%.%.%.%.%.%.%.%.%.%.%.%.%.%.t.r i.%.%.%.%.%.%.%.%.%.%",
".%.%.%.%.%.%.%.%.%.%.%.%.% b ^.%.%.%.%.%.%.%.%.%.%.%.%.%.%.%.%.%.%.%.%.% a J ;.%.%.%.%.%.%.%.%.%.%",
".%.%.%.%.%.%.%.%.%.%.%.%.% w.%.%.%.%.%.%.%.%.%.%.%.%.%.%.%.%.%.%.%.%.%.%.%.% w.%.%.%.%.%.%.%.%.%.%",
".%.%.%.%.%.%.%.%.%.%.%.%.% w.%.%.%.%.%.%.%.%.%.%.%.%.%.%.%.%.%.%.%.%.%.%.%.% 6.<.%.%.%.%.%.%.%.%.%",
".%.%.%.%.%.%.%.%.%.%.%.%.% w.%.%.%.%.%.%.%.%.%.%.%.%.%.%.%.%.%.%.%.%.%.%.%.% @.i.%.%.%.%.%.%.%.%.%",
".%.%.%.%.%.%.%.%.%.%.%.%.% w.%.%.%.%.%.%.%.%.%.%.%.%.%.%.%.%.%.%.%.%.%.%.%.% @.i.%.%.%.%.%.%.%.%.%",
".%.%.%.%.%.%.%.%.%.%.%.%.2 4.%.%.%.%.%.%.%.%.%.%.%.%.%.%.%.%.%.%.%.%.%.%.%.%.: 8.%.%.%.%.%.%.%.%.%",
".%.%.%.%.%.%.%.%.%.%.%.% o.a.%.%.%.%.%.%.%.%.%.%.%.%.%.%.%.%.%.%.%.%.%.%.%.%.% w.%.%.%.%.%.%.%.%.%",
".%.%.%.%.%.%.%.%.%.%.%.% o.a.%.%.%.%.%.%.%.%.%.%.%.%.%.%.%.%.%.%.%.%.%.%.%.%.% w.%.%.%.%.%.%.%.%.%",
".%.%.%.%.%.%.%.%.%.%.%.% o.a.%.%.%.%.%.%.%.%.%.%.%.%.%.%.%.%.%.%.%.%.%.%.%.%.% w.%.%.%.%.%.%.%.%.%",
".%.%.%.%.%.%.%.%.%.%.%.% o.a.%.%.%.%.%.%.%.%.%.%.%.%.%.%.%.%.%.%.%.%.%.%.%.%.% w.%.%.%.%.%.%.%.%.%",
".%.%.%.%.%.%.%.%.%.%.%.% o.a.%.%.%.%.%.%.%.%.%.%.%.%.%.%.%.%.%.%.%.%.%.%.%.%.% w.%.%.%.%.%.%.%.%.%",
".%.%.%.%.%.%.%.%.%.%.%.% $.y.%.%.%.%.%.%.%.%.%.%.%.%.%.%.%.%.%.%.%.%.%.%.%.%.% w.%.%.%.%.%.%.%.%.%",
".%.%.%.%.%.%.%.%.%.% t u.+.%.%.%.%.%.%.%.%.%.%.%.%.%.%.%.%.%.%.%.%.%.%.%.%.%.% w.%.%.%.%.%.%.%.%.%",
".%.%.%.%.%.%.%.%.%.%.7   f.%.%.%.%.%.%.%.%.%.%.%.%.%.%.%.%.%.%.%.%.%.%.%.%.%.% w.%.%.%.%.%.%.%.%.%",
".%.%.%.%.%.%.%.%.%.% C j s.%.%.%.%.%.%.%.%.%.%.%.%.%.%.%.%.%.%.%.%.%.%.%.%.%.% w.%.%.%.%.%.%.%.%.%",
".%.%.%.%.%.%.%.%.%.e &.%.%.%.%.%.%.%.%.%.%.%.%.%.%.%.%.%.%.%.%.%.%.%.%.%.%.%.% w.%.%.%.%.%.%.%.%.%",
".%.%.%.%.%.%.%.%.% w.%.%.%.%.%.%.%.%.%.%.%.%.%.%.%.%.%.%.%.%.%.%.%.%.%.%.%.%.% v /.%.%.%.%.%.%.%.%",
".%.%.%.%.%.%.%.8 = b.%.%.%.%.%.%.%.%.%.%.%.%.%.%.%.%.%.%.%.%.%.%.%.%.%.%.%.%.%.- { [.%.%.%.%.%.%.%",
".%.%.%.%.%.% B (.q.%.%.%.%.%.%.%.%.%.%.%.%.%.%.%.%.%.%.%.%.%.%.%.%.%.%.%.%.%.%.% 7 r.%.%.%.%.%.%.%",
".%.%.%.%.%.% / v.%.%.%.%.%.%.%.%.%.%.%.%.%.%.%.%.%.%.%.%.%.%.%.%.%.%.%.%.%.%.%.% y +.p.%.%.%.%.%.%",
".%.%.%.%.% k '.%.%.%.%.%.%.%.%.%.%.%.%.%.%.%.%.%.%.%.%.%.%.%.%.%.%.%.%.%.%.%.%.%.%.1 : g.%.%.%.%.%",
".%.%.%.%.% 9.;.%.%.%.%.%.%.%.%.%.%.%.%.%.%.%.%.%.%.%.%.%.%.%.%.%.%.%.%.%.%.%.%.%.%.%.7 <.%.%.%.%.%",
".%.%.% c W.a.%.%.%.%.%.%.%.%.%.%.%.%.%.%.%.%.%.%.%.%.%.%.%.%.%.%.%.%.%.%.%.%.%.%.%.% t 5.<.%.%.%.%",
".%.%.% Q.&.%.%.%.%.%.%.%.%.%.%.%.%.%.%.%.%.%.%.%.%.%.%.%.%.%.%.%.%.%.%.%.%.%.%.%.%.%.% x.o S.%.%.%",
".%.%.% w.%.%.%.%.%.%.%.%.%.%.%.%.%.%.%.%.%.%.%.%.%.%.%.%.%.%.%.%.%.%.%.%.%.%.%.%.%.%.%.%.% w.%.%.%",
".%.%.  a.%.%.%.%.%.%.%.%.%.%.%.%.%.%.%.%.%.%.%.%.%.%.%.%.%.%.%.%.%.%.%.%.%.%.%.%.%.%.%.%.%.8 ,.%.%",
".%.%.O u.%.%.%.%.%.%.%.%.%.%.%.%.%.%.%.%.%.%.%.%.%.%.%.%.%.%.%.%.%.%.%.%.%.%.%.%.%.%.%.%.%.- '.<.%",
".%.%.O u.%.%.%.%.%.%.%.%.%.%.%.%.%.%.%.%.%.%.%.%.%.%.%.%.%.%.%.%.%.%.%.%.%.%.%.%.%.%.%.%.%.% 3.3.%",
".% m ~.%.%.%.%.%.%.%.%.%.%.%.%.%.%.%.%.%.%.%.%.%.%.%.%.%.%.%.%.%.%.%.%.%.%.%.%.%.%.%.%.%.%.% +.p.%",
".%.q =.%.%.%.%.%.%.%.%.%.%.%.%.%.%.%.%.%.%.%.%.%.%.%.%.%.%.%.%.%.%.%.%.%.%.%.%.%.%.%.%.%.%.%.% w.%",
".%.q =.%.%.%.%.%.%.%.%.%.%.%.%.%.%.%.%.%.%.%.%.%.%.%.%.%.%.%.%.%.%.%.%.%.%.%.%.%.%.%.%.%.%.%.% w.%",
".%.q =.%.%.%.%.%.%.%.%.%.%.%.%.%.%.%.%.%.%.%.%.%.%.%.%.%.%.%.%.%.%.%.%.%.%.%.%.%.%.%.%.%.%.%.% w.%",
".%.0 ;.%.%.%.%.%.%.%.%.%.%.%.%.%.%.%.%.%.%.%.%.%.%.%.%.%.%.%.%.%.%.%.%.%.%.%.%.%.%.%.%.%.%.%.: 8.%",
".%.%.O u.%.%.%.%.%.%.%.%.%.%.%.%.%.%.%.%.%.%.%.%.%.%.%.%.%.%.%.%.%.%.%.%.%.%.%.%.%.%.%.%.%.% 3.3.%",
".%.% ! M.%.%.%.%.%.%.%.%.%.%.%.%.%.%.%.%.%.%.%.%.%.%.%.%.%.%.%.%.%.%.%.%.%.%.%.%.%.%.%.%.%.- ' d.%",
".%.%.% w.%.%.%.%.%.%.%.%.%.%.%.%.%.%.%.%.%.%.%.%.%.%.%.%.%.%.%.%.%.%.%.%.%.%.%.%.%.%.%.%.% l _.%.%",
".%.%.% ` %.%.%.%.%.%.%.%.%.%.%.%.%.%.%.%.%.%.%.%.%.%.%.%.%.%.%.%.%.%.%.%.%.%.%.%.%.%.%.%.% +.p.%.%",
".%.%.% F.@.6.%.%.%.%.%.%.%.%.%.%.%.%.%.%.%.%.%.%.%.%.%.%.%.%.%.%.%.%.%.%.%.%.%.%.%.%.%.%.% w.%.%.%",
".%.%.%.% b ^ t.%.%.%.%.%.%.%.%.%.%.%.%.%.%.%.%.%.%.%.%.%.%.%.%.%.%.%.%.%.%.%.%.%.%.%.%.% e %.%.%.%",
".%.%.%.%.% K H.%.%.%.%.%.%.%.%.%.%.%.%.%.%.%.%.%.%.%.%.%.%.%.%.%.%.%.%.%.%.%.%.%.%.%.% Z } v.%.%.%",
".%.%.%.%.%.% E B.%.%.%.%.%.%.%.%.%.%.%.%.%.%.%.%.%.%.%.%.%.%.%.%.%.%.%.%.%.%.%.%.%.% l 1 y.%.%.%.%",
".%.%.%.%.%.% x | H t.%.%.%.%.%.%.%.%.%.%.%.%.%.%.%.%.%.%.%.%.%.%.%.%.%.%.%.%.%.%.% y - n.%.%.%.%.%",
".%.%.%.%.%.%.%.% K H.%.%.%.%.%.%.%.%.%.%.%.%.%.%.%.%.%.%.%.%.%.%.%.%.%.%.%.%.%.% Z 1.9.%.%.%.%.%.%",
".%.%.%.%.%.%.%.%.% . L.u.=.%.%.%.%.%.%.%.%.%.%.%.%.%.%.%.%.%.%.%.%.%.%.%.%.%.y ] U.5.%.%.%.%.%.%.%",
".%.%.%.%.%.%.%.%.%.% F # q M.%.%.%.%.%.%.%.%.%.%.%.%.%.%.%.%.%.%.%.%.%.*.6 w $ h.%.%.%.%.%.%.%.%.%",
".%.%.%.%.%.%.%.%.%.%.%.%.% & =.s.%.%.%.%.%.%.%.%.%.%.%.%.%.%.%.%.%.%.i 1 2.%.%.%.%.%.%.%.%.%.%.%.%",
".%.%.%.%.%.%.%.%.%.%.%.%.% u.q X w * B B B v.%.%.%.%.%.% x B B B U w @.6.%.%.%.%.%.%.%.%.%.%.%.%.%",
".%.%.%.%.%.%.%.%.%.%.%.%.%.%.%.%.%.w E E E / w w w w w w ) E E E Z.%.%.%.%.%.%.%.%.%.%.%.%.%.%.%.%"
};
