/* XPM */
static char *peer-r[] = {
/* width height ncolors chars_per_pixel */
"47 64 126 2",
/* colors */
"   c #000000",
" . c #AFAFAF",
" X c #ADADAD",
" o c #ABABAB",
" O c #A7A7A7",
" + c #A5A5A5",
" @ c #A3A3A3",
" # c #9F9F9F",
" $ c #9D9D9D",
" % c #9B9B9B",
" & c #979797",
" * c #939393",
" = c #8F8F8F",
" - c #8D8D8D",
" ; c #8B8B8B",
" : c #898989",
" > c #878787",
" , c #858585",
" < c #838383",
" 1 c #818181",
" 2 c #7F7F7F",
" 3 c #7B7B7B",
" 4 c #797979",
" 5 c #777777",
" 6 c #757575",
" 7 c #737373",
" 8 c #6F6F6F",
" 9 c #6B6B6B",
" 0 c #696969",
" q c #676767",
" w c #656565",
" e c #575757",
" r c #555555",
" t c #4D4D4D",
" y c #FCFCFC",
" u c #FAFAFA",
" i c #474747",
" p c #F8F8F8",
" a c #F6F6F6",
" s c #F4F4F4",
" d c #F2F2F2",
" f c #F0F0F0",
" g c #EEEEEE",
" h c #3B3B3B",
" j c #ECECEC",
" k c #EAEAEA",
" l c #E6E6E6",
" z c #E4E4E4",
" x c #E2E2E2",
" c c #2F2F2F",
" v c #E0E0E0",
" b c #D8D8D8",
" n c #D6D6D6",
" m c #D4D4D4",
" M c #CECECE",
" N c #CCCCCC",
" B c #CACACA",
" V c #C6C6C6",
" C c #C4C4C4",
" Z c #C2C2C2",
" A c #C0C0C0",
" S c #BCBCBC",
" D c #B0B0B0",
" F c #AEAEAE",
" G c #A6A6A6",
" H c #A2A2A2",
" J c #9E9E9E",
" K c #9C9C9C",
" L c #9A9A9A",
" P c #989898",
" I c #969696",
" U c #949494",
" Y c #8E8E8E",
" T c #8C8C8C",
" R c #8A8A8A",
" E c #868686",
" W c #848484",
" Q c #828282",
" ! c #808080",
" ~ c #7E7E7E",
" ^ c #7C7C7C",
" / c #727272",
" ( c #6E6E6E",
" ) c #6C6C6C",
" _ c #6A6A6A",
" ` c #686868",
" ' c #666666",
" ] c #646464",
" [ c #606060",
" { c #5A5A5A",
" } c #585858",
" | c #FFFFFF",
".  c #FDFDFD",
".. c #FBFBFB",
".X c #F9F9F9",
".o c #F7F7F7",
".O c #444444",
".+ c #F5F5F5",
".@ c #404040",
".# c #F1F1F1",
".$ c #EFEFEF",
".% c #E9E9E9",
".& c #E7E7E7",
".* c #E5E5E5",
".= c #E3E3E3",
".- c #DFDFDF",
".; c #DDDDDD",
".: c #DBDBDB",
".> c #D9D9D9",
"., c #D7D7D7",
".< c #242424",
".1 c #D5D5D5",
".2 c #D3D3D3",
".3 c #D1D1D1",
".4 c #CFCFCF",
".5 c #CDCDCD",
".6 c #CBCBCB",
".7 c #C9C9C9",
".8 c #C7C7C7",
".9 c #C3C3C3",
".0 c #C1C1C1",
".q c #BFBFBF",
".w c #BDBDBD",
".e c #BBBBBB",
".r c #B7B7B7",
".t c #B3B3B3",
/* pixels */
" | | | | | | | | | | | | | | | | | | | | | | | | | & { % y | | | | | | | | | | | | | | | | | |",
" | | | | | | | | | | | | | | | | | | | | | | | | < /.% F h.5 | | | | | | | | | | | | | | | | |",
" | | | | | | | | | | | | | | | | | | | | | | |.; <.w z c ;.= | | | | | | | | | | | | | | | | |",
" | | | | | | | | | | | | | | | | | | | | | | |.9 # | L T | | | | | | | | | | | | | | | | | | |",
" | | | | | | | | | | | | | | | | | | | | | | | D # | e x | | | | | | | | | | | | | | | | | | |",
" | | | | | | | | | | | | | | | | | | | | | | | i.3 | ] | | | | | | | | | | | | | | | | | | | |",
" | | | | | | | | | | | | | | | | | | | |.e.t.t } | | r.- | | | | | | | | | | | | | | | | | | |",
" | | | | | | | | | | | | | | | | | p R ] O . . Z | |.q W ] N | | | | | | | | | | | | | | | | |",
" | | | | | | | | | | | | | | | |.w Q.> | | | | | | | | | | K > a | | | | | | | | | | | | | | |",
" | | | | | | | | | | | | | | | A +.& | | | | | | | | | | | u.: 5 | | | | | | | | | | | | | | |",
" | | | | | | | | | | | | | | y q | | | | | | | | | | | | | | | & /.. | | | | | | | | | | | | |",
" | | | | | | | | | | | | | | E.; | | | | | | | | | | | | | | | |.# 2 d | | | | | | | | | | | |",
" | | | | | | | | | | | | s.6 Q | | | | | | | | | | | | | | | | | | $ V | | | | | | | | | | | |",
" | | | | | | | | | | | |.6  .. | | | | | | | | | | | | | | | | | | | P.6 | | | | | | | | | | |",
" | | | | | | | | | | | | w.. | | | | | | | | | | | | | | | | | | | |.1 :.7 | | | | | | | | | |",
" | | | | | | | | | | | | ] | | | | | | | | | | | | | | | | | | | | | | / 6 p | | | | | | | | |",
" | | | | | | | | | | | C J | | | | | | | | | | | | | | | | | | | | | | | =.2 | | | | | | | | |",
" | | | | | | | | | | | *.4 | | | | | | | | | | | | | | | | | | | | | | | =.2 | | | | | | | | |",
" | | | | | | | | | | | *.4 | | | | | | | | | | | | | | | | | | | | | | | v < | | | | | | | | |",
" | | | | | | | | | | | *.4 | | | | | | | | | | | | | | | | | | | | | | | | ] | | | | | | | | |",
" | | | | | | | | | | | *.4 | | | | | | | | | | | | | | | | | | | | | | | | !.= | | | | | | | |",
" | | | | | | | | | | u 4.$ | | | | | | | | | | | | | | | | | | | | | | | |.8 % | | | | | | | |",
" | | | | | | | | | |.o ) | | | | | | | | | | | | | | | | | | | | | | | | |.8 % | | | | | | | |",
" | | | | | | | | | |.o ) | | | | | | | | | | | | | | | | | | | | | | | | |.8 % | | | | | | | |",
" | | | | | | | | | |.o ) | | | | | | | | | | | | | | | | | | | | | | | | |.8 % | | | | | | | |",
" | | | | | | | | | |.o ) | | | | | | | | | | | | | | | | | | | | | | | | |.8 % | | | | | | | |",
" | | | | | | | | | |.o ) | | | | | | | | | | | | | | | | | | | | | | | | |.8 % | | | | | | | |",
" | | | | | | | | | | H.0 | | | | | | | | | | | | | | | | | | | | | | | | |.8 % | | | | | | | |",
" | | | | | | | | | D 3 | | | | | | | | | | | | | | | | | | | | | | | | | |.8 % | | | | | | | |",
" | | | | | | | | |.< @ | | | | | | | | | | | | | | | | | | | | | | | | | |.8 % | | | | | | | |",
" | | | | | | | | A , m | | | | | | | | | | | | | | | | | | | | | | | | | |.8 % | | | | | | | |",
" | | | | | | | Z @ y | | | | | | | | | | | | | | | | | | | | | | | | | | |.> R | | | | | | | |",
" | | | | | | p 9 | | | | | | | | | | | | | | | | | | | | | | | | | | | | | | /.& u | | | | | |",
" | | | | |.q 1 n | | | | | | | | | | | | | | | | | | | | | | | | | | | | | | |  .8 | | | | | |",
" | | | |.= Q.% | | | | | | | | | | | | | | | | | | | | | | | | | | | | | | | |.O X | | | | | |",
" | | | | Y m | | | | | | | | | | | | | | | | | | | | | | | | | | | | | | | | | | 0 u | | | | |",
" | | |.> R | | | | | | | | | | | | | | | | | | | | | | | | | | | | | | | | | | | l 1 u | | | |",
" | | | P B | | | | | | | | | | | | | | | | | | | | | | | | | | | | | | | | | | | | = m | | | |",
" | z ].e | | | | | | | | | | | | | | | | | | | | | | | | | | | | | | | | | | | | | | ] | | | |",
" | O ] p | | | | | | | | | | | | | | | | | | | | | | | | | | | | | | | | | | | | | | B 9.4 | |",
" g 6 | | | | | | | | | | | | | | | | | | | | | | | | | | | | | | | | | | | | | | | | |.* Q.. |",
" %.8 | | | | | | | | | | | | | | | | | | | | | | | | | | | | | | | | | | | | | | | | | | ^.& |",
" %.8 | | | | | | | | | | | | | | | | | | | | | | | | | | | | | | | | | | | | | | | | | |.X _ |",
" U M | | | | | | | | | | | | | | | | | | | | | | | | | | | | | | | | | | | | | | | | | | | ] |",
" ] | | | | | | | | | | | | | | | | | | | | | | | | | | | | | | | | | | | | | | | | | | | | - ^",
" ] | | | | | | | | | | | | | | | | | | | | | | | | | | | | | | | | | | | | | | | | | | | |.t  ",
" ] | | | | | | | | | | | | | | | | | | | | | | | | | | | | | | | | | | | | | | | | | | | |.t  ",
" ] | | | | | | | | | | | | | | | | | | | | | | | | | | | | | | | | | | | | | | | | | | | |.t  ",
" /.# | | | | | | | | | | | | | | | | | | | | | | | | | | | | | | | | | | | | | | | | | | | #.@",
" %.8 | | | | | | | | | | | | | | | | | | | | | | | | | | | | | | | | | | | | | | | | | | | ] |",
" V $ | | | | | | | | | | | | | | | | | | | | | | | | | | | | | | | | | | | | | | | | | |.8 % |",
" | ] | | | | | | | | | | | | | | | | | | | | | | | | | | | | | | | | | | | | | | | | | | ^.& |",
" | G ` p | | | | | | | | | | | | | | | | | | | | | | | | | | | | | | | | | | | | | | | j !.+ |",
" | z [.w | | | | | | | | | | | | | | | | | | | | | | | | | | | | | | | | | | | | | | |.- < | |",
" | | | ( s | | | | | | | | | | | | | | | | | | | | | | | | | | | | | | | | | | | | | S t x | |",
" | | |., ; | | | | | | | | | | | | | | | | | | | | | | | | | | | | | | | | | | | | | Q L | | |",
" | | | |., ; | | | | | | | | | | | | | | | | | | | | | | | | | | | | | | | | | | | 4 k | | | |",
" | | | | a T R a | | | | | | | | | | | | | | | | | | | | | | | | | | | | | | | |.2 * y | | | |",
" | | | | | |.> R | | | | | | | | | | | | | | | | | | | | | | | | | | | | | | | ! I | | | | | |",
" | | | | | | | x ;.r.* | | | | | | | | | | | | | | | | | | | | | | | | | v + ].=.X | | | | | |",
" | | | | | | | | b o ~ # y | | | | | | | | | | | | | | | | | | | | |.# U <.w | | | | | | | | |",
" | | | | | | | | | | | C > ;.  | | | | | | | | | | | | | | | | | s ; 5.4 | | | | | | | | | | |",
" | | | | | | | | | | | |.-., ' 7.9.9.9.9 p | | | | | s.9.9.9.9 9 8., u | | | | | | | | | | | |",
" | | | | | | | | | | | | | | | f # # # # q [ [ [ [ [ ) # # # # p | | | | | | | | | | | | | | |"
};
