/* XPM */
static char *pop-r[] = {
/* width height ncolors chars_per_pixel */
"53 64 222 2",
/* colors */
"   c #000000",
" . c #B1B1B1",
" X c #AFAFAF",
" o c #ADADAD",
" O c #A9A9A9",
" + c #A7A7A7",
" @ c #A5A5A5",
" # c #A3A3A3",
" $ c #A1A1A1",
" % c #9F9F9F",
" & c #9B9B9B",
" * c #999999",
" = c #979797",
" - c #959595",
" ; c #939393",
" : c #919191",
" > c #8F8F8F",
" , c #8D8D8D",
" < c #8B8B8B",
" 1 c #898989",
" 2 c #878787",
" 3 c #838383",
" 4 c #818181",
" 5 c #7F7F7F",
" 6 c #7D7D7D",
" 7 c #7B7B7B",
" 8 c #777777",
" 9 c #757575",
" 0 c #737373",
" q c #717171",
" w c #6F6F6F",
" e c #6D6D6D",
" r c #6B6B6B",
" t c #676767",
" y c #656565",
" u c #636363",
" i c #5F5F5F",
" p c #5D5D5D",
" a c #5B5B5B",
" s c #595959",
" d c #575757",
" f c #555555",
" g c #535353",
" h c #515151",
" j c #4F4F4F",
" k c #4D4D4D",
" l c #FEFEFE",
" z c #4B4B4B",
" x c #FCFCFC",
" c c #494949",
" v c #FAFAFA",
" b c #474747",
" n c #F8F8F8",
" m c #454545",
" M c #F6F6F6",
" N c #434343",
" B c #F4F4F4",
" V c #414141",
" C c #F2F2F2",
" Z c #3F3F3F",
" A c #F0F0F0",
" S c #3D3D3D",
" D c #EEEEEE",
" F c #3B3B3B",
" G c #ECECEC",
" H c #393939",
" J c #EAEAEA",
" K c #373737",
" L c #E8E8E8",
" P c #353535",
" I c #E6E6E6",
" U c #333333",
" Y c #E4E4E4",
" T c #313131",
" R c #E2E2E2",
" E c #2F2F2F",
" W c #E0E0E0",
" Q c #2D2D2D",
" ! c #DEDEDE",
" ~ c #2B2B2B",
" ^ c #DCDCDC",
" / c #292929",
" ( c #DADADA",
" ) c #272727",
" _ c #D8D8D8",
" ` c #252525",
" ' c #D6D6D6",
" ] c #232323",
" [ c #D4D4D4",
" { c #D2D2D2",
" } c #D0D0D0",
" | c #CECECE",
".  c #CCCCCC",
".. c #191919",
".X c #CACACA",
".o c #171717",
".O c #C6C6C6",
".+ c #C4C4C4",
".@ c #C2C2C2",
".# c #C0C0C0",
".$ c #BEBEBE",
".% c #0B0B0B",
".& c #BCBCBC",
".* c #070707",
".= c #B8B8B8",
".- c #B6B6B6",
".; c #030303",
".: c #B2B2B2",
".> c #B0B0B0",
"., c #AEAEAE",
".< c #AAAAAA",
".1 c #A6A6A6",
".2 c #A4A4A4",
".3 c #A2A2A2",
".4 c #A0A0A0",
".5 c #9E9E9E",
".6 c #9C9C9C",
".7 c #9A9A9A",
".8 c #969696",
".9 c #949494",
".0 c #929292",
".q c #909090",
".w c #8E8E8E",
".e c #8C8C8C",
".r c #8A8A8A",
".t c #888888",
".y c #868686",
".u c #848484",
".i c #828282",
".p c #808080",
".a c #7E7E7E",
".s c #7C7C7C",
".d c #7A7A7A",
".f c #787878",
".g c #767676",
".h c #747474",
".j c #727272",
".k c #707070",
".l c #6E6E6E",
".z c #6A6A6A",
".x c #686868",
".c c #666666",
".v c #646464",
".b c #626262",
".n c #5E5E5E",
".m c #5A5A5A",
".M c #585858",
".N c #565656",
".B c #545454",
".V c #525252",
".C c #505050",
".Z c #4E4E4E",
".A c #FFFFFF",
".S c #4C4C4C",
".D c #FDFDFD",
".F c #4A4A4A",
".G c #FBFBFB",
".H c #F9F9F9",
".J c #464646",
".K c #F7F7F7",
".L c #444444",
".P c #F5F5F5",
".I c #424242",
".U c #F3F3F3",
".Y c #404040",
".T c #F1F1F1",
".R c #3E3E3E",
".E c #EFEFEF",
".W c #3C3C3C",
".Q c #EDEDED",
".! c #3A3A3A",
".~ c #EBEBEB",
".^ c #383838",
"./ c #E9E9E9",
".( c #363636",
".) c #E7E7E7",
"._ c #343434",
".` c #E5E5E5",
".' c #323232",
".] c #E3E3E3",
".[ c #303030",
".{ c #E1E1E1",
".} c #2E2E2E",
".| c #2C2C2C",
"X  c #DDDDDD",
"X. c #2A2A2A",
"XX c #DBDBDB",
"Xo c #282828",
"XO c #D9D9D9",
"X+ c #262626",
"X@ c #D7D7D7",
"X# c #242424",
"X$ c #D5D5D5",
"X% c #222222",
"X& c #D3D3D3",
"X* c #202020",
"X= c #D1D1D1",
"X- c #CFCFCF",
"X; c #1C1C1C",
"X: c #CDCDCD",
"X> c #CBCBCB",
"X, c #181818",
"X< c #C9C9C9",
"X1 c #161616",
"X2 c #C7C7C7",
"X3 c #C5C5C5",
"X4 c #C3C3C3",
"X5 c #101010",
"X6 c #C1C1C1",
"X7 c #0E0E0E",
"X8 c #BFBFBF",
"X9 c #0C0C0C",
"X0 c #BDBDBD",
"Xq c #BBBBBB",
"Xw c #080808",
"Xe c #B9B9B9",
"Xr c #060606",
"Xt c #B7B7B7",
"Xy c #040404",
"Xu c #B5B5B5",
"Xi c #020202",
"Xp c #B3B3B3",
/* pixels */
".A.A.A.A.A.A.A.A.A.A.A.A.A.A.A.A.A.A.A.A.A.A.A.A.A.A.A.A I.1.@.A.A.A.A.A.A.A.A.A.A.A.A.A.A.A.A.A.A.A.A.A.A",
".A.A.A.A.A.A.A.A.A.A.A.A.A.A.A.A.A.A.A.A.A.A.A v B B B.7.L.j / s :.P.A.A.A.A.A.A.A.A.A.A.A.A.A.A.A.A.A.A.A",
".A.A.A.A.A.A.A.A.A.A.A.A.A.A.A.A.A.A.A.A.A.A A.Z.B uX%.$.A.A.A.AX2.c.+.A.A.A.A.A.A.A.A.A.A.A.A.A.A.A.A.A.A",
".A.A.A.A.A.A.A.A.A.A.A.A.A.A.A.A.A.A.A.A.A.P.u.&.P.A +.>.A.A.A.A.A.U ) f.A.A.A.A.A.A.A.A.A.A.A.A.A.A.A.A.A",
".A.A.A.A.A.A.A.A.A.A.A.A.A.A.A.A.A.A.A.A.U jX:.A.A.AX4.9.A.A.A.A.A.AX3 q.@.A.A.A.A.A.A.A.A.A.A.A.A.A.A.A.A",
".A.A.A.A.A.A.A.A.A.A.A.A.A.A.A.A.A.A.A.A.].m B.A.A.AX> >.D.A.A.A.A.A.A.).b n.A.A.A.A.A.A.A.A.A.A.A.A.A.A.A",
".A.A.A.A.A.A.A.A.A.A.A.A.A.A.A.A.A.A.A.A.].h.A.A.A.A.A r.5.A.A.A.A.A.A C NX<.A.A.A.A.A.A.A.A.A.A.A.A.A.A.A",
".A.A.A.A.A.A.A.A.A.A.A.A.A.A.A.A.A.A.A.A.].h.A.A.A.A.A rXo.8 l.A.A.A.A.A.wX<.A.A.A.A.A.A.A.A.A.A.A.A.A.A.A",
".A.A.A.A.A.A.A.A.A.A.A.A.A.A.A.A.A.A.A.A.].h.A.A.A.A.A rX> 3.sX&.A.A.A.A.wX<.A.A.A.A.A.A.A.A.A.A.A.A.A.A.A",
".A.A.A.A.A.A.A.A.A.A.A.A.A.A.A.A.A.A.A.A.].h.A.A.A.A. .}.T.A O.C.j.A.A J p.b.h M.A.A.A.A.A.A.A.A.A.A.A.A.A",
".A.A.A.A.A.A.A.A.A.A.A.A.A.A.A.A.A.A.A.A.].h.A.A.A.A t.9.A.AXwXi 3X$.A.)  .F   [.A.A.A.A.A.A.A.A.A.A.A.A.A",
".A.A.A.A.A.A.A.A.A.A.A.A.A.A.A.A.A.A.G.dX1.% {.AX< y H.P.A.A.J XXqX#...oX; K   [.A.A.A.A.A.A.A.A.A.A.A.A.A",
".A.A.A.A.A.A.A.A.A.A.A.A.A.A.A.A.A.A D       g t Q.J.W.A.A.A.A.A.A.,     Q.& c.Q.A.A.A.A.A.A.A.A.A.A.A.A.A",
".A.A.A.A.A.A.A.A.A.A.A.A.A.A.A.A.A.A D   z 3.[ ` & 7.h.A.AX=Xu I Y z :.o 2.L $.A.A.A.A.A.A.A.A.A.A.A.A.A.A",
".A.A.A.A.A.A.A.A.A.A.A.A.A.A.A.A.A.A.H i.J.'.1 5.0.'.Q.A.x ]._ W.2.f *X,.w i.A.A.A.A.A.A.A.A.A.A.A.A.A.A.A",
".A.A.A.A.A.A.A.A.A.A.A.A.A.A.A.A.A.A.A.D.G.t.1 5 l.GX*Xy.7.1 + S.M :.cX,.D.uX&.A.A.A.A.A.A.A.A.A.A.A.A.A.A",
".A.A.A.A.A.A.A.A.A.A.A.A.A.A.A.A.A.A.A.A l.r O.|.# s.3.F % NXi.k s >.vX,.AX  ~ ^ x.A.A.A.A.A.A.A.A.A.A.A.A",
".A.A.A.A.A.A.A.A.A.A.A.A.A.A.A.A.A.A.A.A.].h.A.p w.  :.&Xe % s -.4.j HX,.A.A.:X5.BXu.A.A.A.A.A.A.A.A.A.A.A",
".A.A.A.A.A.A.A.A.A.A.A.A.A.A.A.A.A.A.A.A.].h.A ^.M.uX<.AXe %.8.#.= 6 >X1 D D D -  .^.A.A.A.A.A.A.A.A.A.A.A",
".A.A.A.A.A.A.A.A.A.A.A.A.A.A.A.A.A.A.A.A.<.,.A.A ).C.U.A :X2 }.t.A.K.Y    X7 K    .^.A.A.A.A.A.A.A.A.A.A.A",
".A.A.A.A.A.A.A.A.A.A.A.A.A.A.A.A.A.A.A.U j.].].] ]   p.]Xq.].] k.f.] ;..  Xw Q.1.@ p.U.A.A.A.A.A.A.A.A.A.A",
".A.A.A.A.A.A.A.A.A.A.A.A.A.A.A.A.A.A.A -    .S               ` )  Xr 6.a UXoXt.A.A.{ 4.P.A.A.A.A.A.A.A.A.A",
".A.A.A.A.A.A.A.A.A.A.A.A.A.A.A.A.A.A.A JXt.n DX:X:.n > 2X: y.(.1X:.m m.( { z.~.A.A.A.] 9.A.A.A.A.A.A.A.A.A",
".A.A.A.A.A.A.A.A.A.A.A.A.A.A.A.A.A.A.A.A.5Xe.A.A.A 9 >.A.A.A.A.A.A.A.A.A.w g 7.A.A.A.A.rX:.A.A.A.A.A.A.A.A",
".A.A.A.A.A.A.A.A.A.A.A.A.A.A.A.A.A.A.A @ m.A.A.A.AX-.Z.A.A.A.A.A.A.A.A.A.w.+ 3 (.A.A.AX<.q.D.A.A.A.A.A.A.A",
".A.A.A.A.A.A.A.A.A.A.A.A.A.A.A.A.A.A M.a.].A.A.A Y.p z.A.A.A.A.A.A.A.A C VX<.O :.A.A.A.A.v *.A.A.A.A.A.A.A",
".A.A.A.A.A.A.A.A.A.A.A.A.A.A.A.A.A.A D.z.A.A.A.A.: @ z 6 [.A.A.A.A xX4 ..v.H.A 9 R.A.A.A.Q d.A.A.A.A.A.A.A",
".A.A.A.A.A.A.A.A.A.A.A.A.A.A.A.A.A.A =.#.A.A.AXu.I X 9.9Xo r r r r y F.y q.A.A {.y.A.A.A.A.eX>.A.A.A.A.A.A",
".A.A.A.A.A.A.A.A.A.A.A.A.A.A.A.A.DXe 0.A.A.A B p Z j !.A D.Q.Q.Q.Q.Q B D EX:.A x.d.{.A.A.A.: @.A.A.A.A.A.A",
".A.A.A.A.A.A.A.A.A.A.A.A.A.A.A.A n  .=.A.A.-.V j A.A.A.A.A.A.A.A.A.A.A.A.wX<.A.AX: <.A.A.A.:.R l.A.A.A.A.A",
".A.A.A.A.A.A.A.A.A.A.A.A.A.A.A.A n  .=.A Y 9.K.G.A.A.A.A.A.A.A.A.A.A.A.A.G hX$.A.A.+.9.A.A.D d l.A.A.A.A.A",
".A.A.A.A.A.A.A.A.A.A.A.A.A l x.m d  .- x 1 }.A.A.A.A.A.A.A.A.A.A.A.A.A.A.A.2 7.A.A G.s.E.A.A.m l.A.A.A.A.A",
".A.A.A.A.A.A.A.A.A.A.A.A.A.d.! :.G a fX+ _.A.A.A.A.A.A.A.A.A.A.A.A.A.A.A.A./.a A.A.A.A VXX.A.m #.].A.A.A.A",
".A.A.A.A.A.A.A.A.A.A.A.A.9 V Y.G C C.rX&.A.A.A.A.A.A.A.A.A.A.A.A.A.A.A.A.A.A.u [.A.A.AXq 6.CXo.d V < x.A.A",
".A.A.A.A.A.A.A.A.A.A.A.A t.,.A.x.;.c [.A.A.A.A.A.A.A.A.A.A.A.A.A.A.A.A.A.A.A.u [.A.A.A.A.A s.A.A.H Z.f.A.A",
".A.A.A.A.A.A.A.A.A.A.A.AXO._ s.a 3.A.A.A.A.A.A.A.A.A.A.A.A.A.A.A.A.A.A.A.A x 3 _.A.A.A.A.A s.E.d n I b.A.A",
".A.A.A.A.A.A.A.A.A.A.A.A.A.A.A.yX=.A.A.A.A.A.A.A.A.A.A.A.A.A.A.A.A.A.A.A.A ^ 7.A.A.A.A.A.A.(.' q 1 [.!.A.A",
".A.A.A.A.A.A.A.A.A.A.A.A.A.A 5XO.A.A.A.A.A.A.A.A.A.A.A.A.A.A.A.A.A.A.A.A.A.X ,.A.A.A.A.A.A * ] l '.L $.A.A",
".A.A.A.A.A.A.A.A.A.A.A.A.AXX.[.i _.A.A.A.A.A.A.A.A.A.A.A.A.A.A.A.A.A.A.A.A s.A.A.A.A.A.A.A.A.A.A.A.A.A.A.A",
".A.A.A.A.A.A.A.A.A.A.A.A.A.U [ 5 z s s s.B 8 { { n.A.A.A.A.A.A.A.A.A.A.A.A s.A.A.A.A.A.A.A.A.A.A.A.A.A.A.A",
".A.A.A.A.A.A.A.A.A.A.A.A.A.A.<.,.A.A.A.A.] S.y.y 7X6.A.A.A.A.A.A.A.A.A.A.+.9.A.A.A.A.A.A.A.A.A.A.A.A.A.A.A",
".A.A.A.A.A.A.A.A.A.A.A.A.A.<.,.A.A.A.A.A.z.Q.A.A.].8 s *X2 J.A.A.A.A.A J.h n.A.A.A.A.A.A.A.A.A.A.A.A.A.A.A",
".A.A.A.A.A.A.A.A.A.A.A.A.A s.A.A.A.A.AX4.9.A.A.A.A.A.AX8.' 7.G.A.A.A.A.) q.A.A.A.A.A.A.A.A.A.A.A.A.A.A.A.A",
".A.A.A.A.A.A.A.A.A.A.A.E 4.).A.A.A.AX< - v.A.A.A.A.A.A.A s.T p.mX0 L.dX..U.A.A.A.A.A.A.A.A.A.A.A.A.A.A.A.A",
".A.A.A.A.A.A.A.A.A.A.A 4X@.A.A.A.G.v.0.A.A.A.A.A.A.A.A @Xp.A.A l u V.R.2.A.A.A.A.A.A.A.A.A.A.A.A.A.A.A.A.A",
".A.A.A.A.A.A.A.A.A.A [ 3.A.A.A.`.d.U x.A.A.A.A.A.A.A.A r.Q.A.A l.w.@ n.A.A.A.A.A.A.A.A.A.A.A.A.A.A.A.A.A.A",
".A.A.A.A.A.A.A.A.AX .u M.A.A.A Z o.A.A.A.A.A.A.A.A.A _.y.H.A.A x a.A.A.A.A.A.A.A.A.A.A.A.A.A.A.A.A.A.A.A.A",
".A.A.A.A.A.A.A.A.A s.A.A.A.` S v.A.A.A.A.A.A.A.A.A.A.5Xe.A.A.A s l.A.A.A.A.A.A.A.A.A.A.A.A.A.A.A.A.A.A.A.A",
".A.A.A.A.A.A.A.A @Xp.A.A.H.L.h l.A.A.A.A.A.A.A.A.A.A s.A.A.AX2.q.A.A.A.A.A.A.A.A.A.A.A.A.A.A.A.A.A.A.A.A.A",
".A.A.A.A.A.A.A X 5./.A.).d.q.A.A.A.A.A.A.A.A.A.A.A.A s.A.A.A ,.X.A.A.A.A.A.A.A.A.A.A.A.A.A.A.A.A.A.A.A.A.A",
".A.A.A.A.A.D.6X9 ] _ B.j Y.A.A.A.A.A.A.A.A.A.A.A.A.7X0.A.A.A s.A.A.A.A.A.A.A.A.A.A.A.A.A.A.A.A.A.A.A.A.A.A",
".A.A.A.A } , e a   P.j 2.A.A.A.A.A.A.A.A.A.A.A.A.A 9 R.A.AXq.6.A.A.A.A.A.A.A.A.A.A.A.A.A.A.A.A.A.A.A.A.A.A",
".A l W.c.g. .A.P.kX5 2.H.A.A.A.A.A.A.A.A.A.A.A.AXO ~ I.A M.x n.A.A.A.A.A.A.A.A.A.A.A.A.A.A.A.A.A.A.A.A.A.A",
".A B.} /.:.A.A.A.A.W.@.A.A.A.A.A.A.A.A.A.A.A.A.A |.r.A.AXe %.A.A.A.A.A.A.A.A.A.A.A.A.A.A.A.A.A.A.A.A.A.A.A",
".A B u.k L.A.AX .8X<.A.A.A.A.A.A.A.A.A.A.A.A.A.A.J.r.A.A.z.Q.A.A.A.A.A.A.A.A.A.A.A.A.A.A.A.A.A.A.A.A.A.A.A",
".A B u J.( 6 6.|.@.A.A.A.A.A.A.A.A.A.A.A.A.A.A.A ) N &Xp.2.A.A.A.A.A.A.A.A.A.A.A.A.A.A.A.A.A.A.A.A.A.A.A.A",
".A.K.}.6.1 k.i W.A.A.A.A.A.A.A.A.A.A.A.A.A.A.K.f.'X, 9X5.Q.A.A.A.A.A.A.A.A.A.A.A.A.A.A.A.A.A.A.A.A.A.A.A.A",
".A.A {.e.e.`.A.A.A.A.A.A.A.A.A.A.A.A.A.A.A.AXO.J.QX6 r h.K.A.A.A.A.A.A.A.A.A.A.A.A.A.A.A.A.A.A.A.A.A.A.A.A",
".A.A.A.A.A.A.A.A.A.A.A.A.A.A.A.A.A.A.A.A.A.AXO 5.A.AX4.k v.A.A.A.A.A.A.A.A.A.A.A.A.A.A.A.A.A.A.A.A.A.A.A.A",
".A.A.A.A.A.A.A.A.A.A.A.A.A.A.A.A.A.A.A.A.A.AXO 5.A.A.) Z.Q.A.A.A.A.A.A.A.A.A.A.A.A.A.A.A.A.A.A.A.A.A.A.A.A",
".A.A.A.A.A.A.A.A.A.A.A.A.A.A.A.A.A.A.A.A.A.AXO.* (.A D.S.Q.A.A.A.A.A.A.A.A.A.A.A.A.A.A.A.A.A.A.A.A.A.A.A.A",
".A.A.A.A.A.A.A.A.A.A.A.A.A.A.A.A.A.A.A.A.A.AXO  .l.A.m  .Q.A.A.A.A.A.A.A.A.A.A.A.A.A.A.A.A.A.A.A.A.A.A.A.A",
".A.A.A.A.A.A.A.A.A.A.A.A.A.A.A.A.A.A.A.A.A.AXO g | s V T.U.A.A.A.A.A.A.A.A.A.A.A.A.A.A.A.A.A.A.A.A.A.A.A.A",
".A.A.A.A.A.A.A.A.A.A.A.A.A.A.A.A.A.A.A.A.A.A C.N.J g.x ^.A.A.A.A.A.A.A.A.A.A.A.A.A.A.A.A.A.A.A.A.A.A.A.A.A"
};
