/* XPM */
static char *pop-r[] = {
/* width height ncolors chars_per_pixel */
"50 64 225 2",
/* colors */
"   c #000000",
" . c #B1B1B1",
" X c #AFAFAF",
" o c #ADADAD",
" O c #A9A9A9",
" + c #A7A7A7",
" @ c #A5A5A5",
" # c #A3A3A3",
" $ c #9F9F9F",
" % c #9D9D9D",
" & c #9B9B9B",
" * c #999999",
" = c #979797",
" - c #959595",
" ; c #939393",
" : c #919191",
" > c #8F8F8F",
" , c #8D8D8D",
" < c #8B8B8B",
" 1 c #898989",
" 2 c #878787",
" 3 c #858585",
" 4 c #838383",
" 5 c #818181",
" 6 c #7F7F7F",
" 7 c #7D7D7D",
" 8 c #7B7B7B",
" 9 c #797979",
" 0 c #777777",
" q c #757575",
" w c #737373",
" e c #717171",
" r c #6F6F6F",
" t c #6D6D6D",
" y c #6B6B6B",
" u c #696969",
" i c #656565",
" p c #636363",
" a c #616161",
" s c #5F5F5F",
" d c #5D5D5D",
" f c #5B5B5B",
" g c #595959",
" h c #575757",
" j c #555555",
" k c #535353",
" l c #4F4F4F",
" z c #4D4D4D",
" x c #FEFEFE",
" c c #4B4B4B",
" v c #FCFCFC",
" b c #494949",
" n c #FAFAFA",
" m c #474747",
" M c #F8F8F8",
" N c #454545",
" B c #434343",
" V c #F4F4F4",
" C c #F2F2F2",
" Z c #3F3F3F",
" A c #F0F0F0",
" S c #3D3D3D",
" D c #EEEEEE",
" F c #3B3B3B",
" G c #ECECEC",
" H c #393939",
" J c #EAEAEA",
" K c #373737",
" L c #E8E8E8",
" P c #353535",
" I c #E6E6E6",
" U c #333333",
" Y c #E4E4E4",
" T c #313131",
" R c #E2E2E2",
" E c #2F2F2F",
" W c #E0E0E0",
" Q c #2D2D2D",
" ! c #DEDEDE",
" ~ c #2B2B2B",
" ^ c #DCDCDC",
" / c #292929",
" ( c #DADADA",
" ) c #272727",
" _ c #D8D8D8",
" ` c #D6D6D6",
" ' c #232323",
" ] c #D4D4D4",
" [ c #212121",
" { c #D2D2D2",
" } c #1F1F1F",
" | c #D0D0D0",
".  c #1D1D1D",
".. c #CECECE",
".X c #CCCCCC",
".o c #171717",
".O c #151515",
".+ c #C6C6C6",
".@ c #C4C4C4",
".# c #111111",
".$ c #C2C2C2",
".% c #0F0F0F",
".& c #C0C0C0",
".* c #BEBEBE",
".= c #0B0B0B",
".- c #BCBCBC",
".; c #090909",
".: c #BABABA",
".> c #B8B8B8",
"., c #050505",
".< c #B6B6B6",
".1 c #B4B4B4",
".2 c #B2B2B2",
".3 c #B0B0B0",
".4 c #AEAEAE",
".5 c #ACACAC",
".6 c #AAAAAA",
".7 c #A8A8A8",
".8 c #A6A6A6",
".9 c #A4A4A4",
".0 c #A2A2A2",
".q c #9E9E9E",
".w c #9C9C9C",
".e c #989898",
".r c #969696",
".t c #949494",
".y c #929292",
".u c #909090",
".i c #8C8C8C",
".p c #8A8A8A",
".a c #888888",
".s c #848484",
".d c #828282",
".f c #808080",
".g c #7E7E7E",
".h c #7C7C7C",
".j c #7A7A7A",
".k c #787878",
".l c #767676",
".z c #747474",
".x c #727272",
".c c #707070",
".v c #6E6E6E",
".b c #686868",
".n c #666666",
".m c #646464",
".M c #626262",
".N c #606060",
".B c #5E5E5E",
".V c #5C5C5C",
".C c #5A5A5A",
".Z c #585858",
".A c #565656",
".S c #545454",
".D c #525252",
".F c #505050",
".G c #4E4E4E",
".H c #FFFFFF",
".J c #FDFDFD",
".K c #4A4A4A",
".L c #FBFBFB",
".P c #F9F9F9",
".I c #464646",
".U c #F7F7F7",
".Y c #444444",
".T c #F5F5F5",
".R c #424242",
".E c #F3F3F3",
".W c #404040",
".Q c #F1F1F1",
".! c #3E3E3E",
".~ c #EFEFEF",
".^ c #EDEDED",
"./ c #3A3A3A",
".( c #EBEBEB",
".) c #383838",
"._ c #E9E9E9",
".` c #363636",
".' c #E7E7E7",
".] c #E5E5E5",
".[ c #323232",
".{ c #E3E3E3",
".} c #303030",
".| c #E1E1E1",
"X  c #2E2E2E",
"X. c #DFDFDF",
"XX c #2C2C2C",
"Xo c #DDDDDD",
"XO c #2A2A2A",
"X+ c #DBDBDB",
"X@ c #282828",
"X# c #D9D9D9",
"X$ c #262626",
"X% c #D7D7D7",
"X& c #242424",
"X* c #D5D5D5",
"X= c #D3D3D3",
"X- c #202020",
"X; c #D1D1D1",
"X: c #1E1E1E",
"X> c #CFCFCF",
"X, c #1C1C1C",
"X< c #CDCDCD",
"X1 c #1A1A1A",
"X2 c #CBCBCB",
"X3 c #C9C9C9",
"X4 c #161616",
"X5 c #C7C7C7",
"X6 c #141414",
"X7 c #C5C5C5",
"X8 c #121212",
"X9 c #C3C3C3",
"X0 c #101010",
"Xq c #C1C1C1",
"Xw c #0E0E0E",
"Xe c #BFBFBF",
"Xr c #BDBDBD",
"Xt c #0A0A0A",
"Xy c #BBBBBB",
"Xu c #080808",
"Xi c #B9B9B9",
"Xp c #060606",
"Xa c #B7B7B7",
"Xs c #B5B5B5",
"Xd c #B3B3B3",
/* pixels */
".H.H.H.H.H.H.H.H.H.H.H.H.H.H.H.H.H.H.H.H.H.H.H.H.H.'.7 [X-.9.7.H.H.H.H.H.H.H.H.H.H.H.H.H.H.H.H.H.H.H",
".H.H.H.H.H.H.H.H.H.H.H.H.H.H.H.H.H.H.H.H.H ].S h k.v.4.+.X.4.4 hX7.H.H.H.H.H.H.H.H.H.H.H.H.H.H.H.H.H",
".H.H.H.H.H.H.H.H.H.H.H.H.H.H.H.H.H.H.H.H.X.mXi.H.qXa.H.H.H.H.H.H j #.{.H.H.H.H.H.H.H.H.H.H.H.H.H.H.H",
".H.H.H.H.H.H.H.H.H.H.H.H.H.H.H.H.H.H.H { 3.U.H.H.H h.H.H.H.H.H.HX3.=.4.H.H.H.H.H.H.H.H.H.H.H.H.H.H.H",
".H.H.H.H.H.H.H.H.H.H.H.H.H.H.H.H.H.H.H.`.>.H.H.H.H h.H.H.H.H.H.H.H.H h.H.H.H.H.H.H.H.H.H.H.H.H.H.H.H",
".H.H.H.H.H.H.H.H.H.H.H.H.H.H.H.H.H.H.H h.H.H.H.H.H.q.4 x.H.H.H.H.H.H.C ,.H.H.H.H.H.H.H.H.H.H.H.H.H.H",
".H.H.H.H.H.H.H.H.H.H.H.H.H.H.H.H.H.H.H h.H.H.H.H.HXi   X.H.H.H.H.H.H.T.N.H.H.H.H.H.H.H.H.H.H.H.H.H.H",
".H.H.H.H.H.H.H.H.H.H.H.H.H.H.H.H.H.H.H h.H.H.H.H.HXi q.}.1.Q.H.H.H.H.T.N.H.H.H.H.H.H.H.H.H.H.H.H.H.H",
".H.H.H.H.H.H.H.H.H.H.H.H.H.H.H.H.H.H.H h.H.H.H.H.H.x.w.H.0.k ;.H.H.H.2 8 *.H.H.H.H.H.H.H.H.H.H.H.H.H",
".H.H.H.H.H.H.H.H.H.H.H.H.H.H.H.H.H.H.H h.H.H.H.H.~ N L.H 4 /X8 G.H.H l i U.p.H.H.H.H.H.H.H.H.H.H.H.H",
".H.H.H.H.H.H.H.H.H.H.H.H.H.H.H.H.H._ ,.}.X.H.H R H :.H.H dX&...} , , ~    .n.H.H.H.H.H.H.H.H.H.H.H.H",
".H.H.H.H.H.H.H.H.H.H.H.H.H.H.H.H.H c     8X. 6.!   D.H.H ^X#.H.uXt  Xp.1./ 9.H.H.H.H.H.H.H.H.H.H.H.H",
".H.H.H.H.H.H.H.H.H.H.H.H.H.H.H.H.H )   l    .YXd   D.H.H.H.H.HX% 8   l U P.H.H.H.H.H.H.H.H.H.H.H.H.H",
".H.H.H.H.H.H.H.H.H.H.H.H.H.H.H.H.H Z g.8 e.I.p.DXe v L.7 T <.HX .1  .7 Z.+.H.H.H.H.H.H.H.H.H.H.H.H.H",
".H.H.H.H.H.H.H.H.H.H.H.H.H.H.H.H.H I.h.M.i h.H.a.f 4 6.h.hX* 4.A.L   o zXa.H.H.H.H.H.H.H.H.H.H.H.H.H",
".H.H.H.H.H.H.H.H.H.H.H.H.H.H.H.H.H.H.HX3.i z.^ _.c } P.KXXXX 7 ,.A  .2 D i.].H.H.H.H.H.H.H.H.H.H.H.H",
".H.H.H.H.H.H.H.H.H.H.H.H.H.H.H.H.H.H.H >X5.x m.d.X 2X> 3.} 7.f.f 8  .2.H.q.[ 2.H.H.H.H.H.H.H.H.H.H.H",
".H.H.H.H.H.H.H.H.H.H.H.H.H.H.H.H.H.H.H h.HX> q o h (.H h.h.. 4.xX7  .2.H.J -X0 )X2.H.H.H.H.H.H.H.H.H",
".H.H.H.H.H.H.H.H.H.H.H.H.H.H.H.H.H.H.H h.H.H t.W.H.H.H h.H h.HX% 8  .S.k.k.k }  .$.H.H.H.H.H.H.H.H.H",
".H.H.H.H.H.H.H.H.H.H.H.H.H.H.H.H.H.H 1.X.H.H tXu 3.L.e.|.H # >.H.]       rX4.` }.$.H.H.H.H.H.H.H.H.H",
".H.H.H.H.H.H.H.H.H.H.H.H.H.H.H.H.H.].`.m w w T     y w w w l  .x w.iXO  Xu.:.HX> 2.H.H.H.H.H.H.H.H.H",
".H.H.H.H.H.H.H.H.H.H.H.H.H.H.H.H.H ( FX6 = z FXX 'X6 FXO   5 F ) rX,.) , @.H.H.H ^ 2 C.H.H.H.H.H.H.H",
".H.H.H.H.H.H.H.H.H.H.H.H.H.H.H.H.H.H.H h.H.H.HXe =Xa.HX..y.1.H (.y.yX#.Y h.H.H.H.H >X5.H.H.H.H.H.H.H",
".H.H.H.H.H.H.H.H.H.H.H.H.H.H.H.H.H.E.n {.H.H.HX>X@.~.H.H.H.H.H.H.H.H.T.Z 0X#.H.H.H.T a.H.H.H.H.H.H.H",
".H.H.H.H.H.H.H.H.H.H.H.H.H.H.H.H.HX>.F.Q.H.H.HX#XO D.H.H.H.H.H.H.H.H.T.N A.n.H.H.H.H.7.4.H.H.H.H.H.H",
".H.H.H.H.H.H.H.H.H.H.H.H.H.H.H.H.H s.U.H.H.H.H.B a.&.H.H.H.H.H.H.H.H f.i x.rXq.H.H.H._X  |.H.H.H.H.H",
".H.H.H.H.H.H.H.H.H.H.H.H.H.H.H.H.H h.H.H.H.H.8.3.@X$ p M.H.H.H.H.r pX@.H.H _.g.H.H.H.H 1X<.H.H.H.H.H",
".H.H.H.H.H.H.H.H.H.H.H.H.H.H.H.H 4 {.H.H.HX5.,.j.) L.i.A h h h h.D.E.F |.H.H.dX=.H.H.H.P.V.H.H.H.H.H",
".H.H.H.H.H.H.H.H.H.H.H.H.H.H.H 9.f.Q.H.H.H g d.0X#.H.H.H.H.H.H.H.H.H.>.N.H.H.( y.H.H.H.H h.H.H.H.H.H",
".H.H.H.H.H.H.H.H.H.H.H.H.H.H.HXX.d.H.H + h.k v.H.H.H.H.H.H.H.H.H.H.H M.z L.H.HXs.0.H.H.H.b.g.H.H.H.H",
".H.H.H.H.H.H.H.H.H.H.H.H.H.H.HXX.d.H.H h.H.H.H.H.H.H.H.H.H.H.H.H.H.H.H $ b.H.H.H h.H.H.HX+ 8.H.H.H.H",
".H.H.H.H.H.H.H.H.H.H.H V OX  h.%.A O.g L.H.H.H.H.H.H.H.H.H.H.H.H.H.H.H.H h.H.H.H.^ 8 G.HX+ 8.H.H.H.H",
".H.H.H.H.H.H.H.H.H.H.J t.D.>.H.:.6 S _.H.H.H.H.H.H.H.H.H.H.H.H.H.H.H.H.H.*.e.H.H.H.u g.LX%XO r.L x.H",
".H.H.H.H.H.H.H.H.H.H ,.V.H C.9.9 6 I.H.H.H.H.H.H.H.H.H.H.H.H.H.H.H.H.H.H A.n.H.H.H.H.( T b.6.k Q &.H",
".H.H.H.H.H.H.H.H.H.H.y.S.T u., -X#.H.H.H.H.H.H.H.H.H.H.H.H.H.H.H.H.H.H.H A.n.H.H.H.H.H 1X< n.J _ T z",
".H.H.H.H.H.H.H.H.H.H.H.d.NXy.h.H.H.H.H.H.H.H.H.H.H.H.H.H.H.H.H.H.H.H.H.H.< $.H.H.H.H.H 1Xe.D ;.H |  ",
".H.H.H.H.H.H.H.H.H.H.H.H M 4 (.H.H.H.H.H.H.H.H.H.H.H.H.H.H.H.H.H.H.H.H.H h.H.H.H.H.H.H.u.[.Z +.9.Z.%",
".H.H.H.H.H.H.H.H.H.H.H.H.a...H.H.H.H.H.H.H.H.H.H.H.H.H.H.H.H.H.H.H.H.H _ 7.H.H.H.H.H.H.H.s.3.H.2.d.H",
".H.H.H.H.H.H.H.H.H.H.H J.) m.t.(.(.(.(.~.H.H.H.H.H.H.H.H.H.H.H.H.H.H.H $Xa.H.H.H.H.H.H.H.H.H.H.H.H.H",
".H.H.H.H.H.H.H.H.H.H.H.H.H # y y y y y Q.t.tX;.H.H.H.H.H.H.H.H.H.H.H.H $Xa.H.H.H.H.H.H.H.H.H.H.H.H.H",
".H.H.H.H.H.H.H.H.H.H.H v #.<.H.H.H.H.Q.Z.$.$ 3 8.] G.H.H.H.H.H.H.H.H L 6 D.H.H.H.H.H.H.H.H.H.H.H.H.H",
".H.H.H.H.H.H.H.H.H.H.H #Xd.H.H.H.H.H.k !.H.H.HX+.c.k >.3.H.H.H.H.H.H h.H.H.H.H.H.H.H.H.H.H.H.H.H.H.H",
".H.H.H.H.H.H.H.H.H.H.Q i.H.H.H.H.HX2.y M.H.H.H.H.H A z %.4 W V.H x W.M.H.H.H.H.H.H.H.H.H.H.H.H.H.H.H",
".H.H.H.H.H.H.H.H.H.E 5 R.H.H.H.HX9 ;.H.H.H.H.H.H.H.H p.E.7.l.d . o  .2.H.H.H.H.H.H.H.H.H.H.H.H.H.H.H",
".H.H.H.H.H.H.H.H.H w.{.H.H.H.^.v ;.U.H.H.H.H.H.H.HX5 :.J.H.H !X: KX< A.H.H.H.H.H.H.H.H.H.H.H.H.H.H.H",
".H.H.H.H.H.H.H.HX2 <.H.H.H.^.f L.H.H.H.H.H.H.H.H.HXi.w.H.H.H.4 +.H.H.H.H.H.H.H.H.H.H.H.H.H.H.H.H.H.H",
".H.H.H.H.H.H.HX* < V.H.H.( u.y.H.H.H.H.H.H.H.H.H.H.b D.H.H C i x.H.H.H.H.H.H.H.H.H.H.H.H.H.H.H.H.H.H",
".H.H.H.H.H.H.H h.H.H.H.~.Y...H.H.H.H.H.H.H.H.H.HXd #.H.H.H X +.H.H.H.H.H.H.H.H.H.H.H.H.H.H.H.H.H.H.H",
".H.H.H.H.H.H.7 o.H.H J z 7.U.H.H.H.H.H.H.H.H.H.H.b D.H.H.H i.Q.H.H.H.H.H.H.H.H.H.H.H.H.H.H.H.H.H.H.H",
".H.H.H.H.H.q.g W.H.Q 6 -.H.H.H.H.H.H.H.H.H.H.H.H.b D.H.H.6.5.H.H.H.H.H.H.H.H.H.H.H.H.H.H.H.H.H.H.H.H",
".H.H.H.J.p.;Xw.9._ d G.H.H.H.H.H.H.H.H.H.H.H.HX5 :.J.H.H d.P.H.H.H.H.H.H.H.H.H.H.H.H.H.H.H.H.H.H.H.H",
".H.HX< q <.d  .O ;.l.H.H.H.H.H.H.H.H.H.H.H.H.HXe =.H.H ` 4 v.H.H.H.H.H.H.H.H.H.H.H.H.H.H.H.H.H.H.H.H",
"X7 k.m.{.H.J.q.# e M.H.H.H.H.H.H.H.H.H.H.H.H.H.) X.H.H $Xa.H.H.H.H.H.H.H.H.H.H.H.H.H.H.H.H.H.H.H.H.H",
" T TXi.H.H.H.H.G.&.H.H.H.H.H.H.H.H.H.H.H.H.H.H h.H.H.H h.H.H.H.H.H.H.H.H.H.H.H.H.H.H.H.H.H.H.H.H.H.H",
" h 6X%.H.HX;.r.@.H.H.H.H.H.H.H.H.H.H.H.H.H.H 8.R.H.H e Y.H.H.H.H.H.H.H.H.H.H.H.H.H.H.H.H.H.H.H.H.H.H",
" h nX$ u u ).&.H.H.H.H.H.H.H.H.H.H.H.H.H.H.H tX1 u.X 3 n.H.H.H.H.H.H.H.H.H.H.H.H.H.H.H.H.H.H.H.H.H.H",
" U 3.7.M 3 D.H.H.H.H.H.H.H.H.H.H.H.H.H.H.H & E U.m.o.w.H.H.H.H.H.H.H.H.H.H.H.H.H.H.H.H.H.H.H.H.H.H.H",
"Xo & &.|.H.H.H.H.H.H.H.H.H.H.H.H.H.H.H.H.H.W ] I & P _.H.H.H.H.H.H.H.H.H.H.H.H.H.H.H.H.H.H.H.H.H.H.H",
".H.H.H.H.H.H.H.H.H.H.H.H.H.H.H.H.H.H.H.H.H h.H.H.H B R.H.H.H.H.H.H.H.H.H.H.H.H.H.H.H.H.H.H.H.H.H.H.H",
".H.H.H.H.H.H.H.H.H.H.H.H.H.H.H.H.H.H.H.H.H h.H.H.H 8.w.H.H.H.H.H.H.H.H.H.H.H.H.H.H.H.H.H.H.H.H.H.H.H",
".H.H.H.H.H.H.H.H.H.H.H.H.H.H.H.H.H.H.H.H.HX: -.H.H 3.w.H.H.H.H.H.H.H.H.H.H.H.H.H.H.H.H.H.H.H.H.H.H.H",
".H.H.H.H.H.H.H.H.H.H.H.H.H.H.H.H.H.H.H.H.HX, U A %Xp.w.H.H.H.H.H.H.H.H.H.H.H.H.H.H.H.H.H.H.H.H.H.H.H",
".H.H.H.H.H.H.H.H.H.H.H.H.H.H.H.H.H.H.H.H.H BX#.n.A. Xr.H.H.H.H.H.H.H.H.H.H.H.H.H.H.H.H.H.H.H.H.H.H.H",
".H.H.H.H.H.H.H.H.H.H.H.H.H.H.H.H.H.H.H.H.H ,.}.S.S.-.H.H.H.H.H.H.H.H.H.H.H.H.H.H.H.H.H.H.H.H.H.H.H.H"
};
