/* XPM */
static char *schep-r[] = {
/* width height ncolors chars_per_pixel */
"51 64 153 2",
/* colors */
"   c #000000",
" . c #B1B1B1",
" X c #AFAFAF",
" o c #ABABAB",
" O c #A5A5A5",
" + c #9B9B9B",
" @ c #999999",
" # c #979797",
" $ c #959595",
" % c #939393",
" & c #919191",
" * c #8D8D8D",
" = c #8B8B8B",
" - c #898989",
" ; c #878787",
" : c #858585",
" > c #7F7F7F",
" , c #7D7D7D",
" < c #797979",
" 1 c #757575",
" 2 c #737373",
" 3 c #6D6D6D",
" 4 c #696969",
" 5 c #616161",
" 6 c #5F5F5F",
" 7 c #5D5D5D",
" 8 c #5B5B5B",
" 9 c #555555",
" 0 c #4F4F4F",
" q c #FEFEFE",
" w c #4B4B4B",
" e c #FAFAFA",
" r c #F8F8F8",
" t c #F6F6F6",
" y c #F4F4F4",
" u c #414141",
" i c #F2F2F2",
" p c #3F3F3F",
" a c #F0F0F0",
" s c #EEEEEE",
" d c #ECECEC",
" f c #393939",
" g c #EAEAEA",
" h c #373737",
" j c #E8E8E8",
" k c #E6E6E6",
" l c #333333",
" z c #E4E4E4",
" x c #313131",
" c c #E2E2E2",
" v c #2D2D2D",
" b c #DCDCDC",
" n c #DADADA",
" m c #D8D8D8",
" M c #252525",
" N c #232323",
" B c #D2D2D2",
" V c #1F1F1F",
" C c #D0D0D0",
" Z c #191919",
" A c #CACACA",
" S c #C8C8C8",
" D c #C6C6C6",
" F c #C4C4C4",
" G c #111111",
" H c #0F0F0F",
" J c #C0C0C0",
" K c #BEBEBE",
" L c #0B0B0B",
" P c #BCBCBC",
" I c #090909",
" U c #070707",
" Y c #050505",
" T c #B6B6B6",
" R c #B4B4B4",
" E c #010101",
" W c #ACACAC",
" Q c #AAAAAA",
" ! c #A8A8A8",
" ~ c #A6A6A6",
" ^ c #A2A2A2",
" / c #A0A0A0",
" ( c #989898",
" ) c #969696",
" _ c #949494",
" ` c #929292",
" ' c #8E8E8E",
" ] c #8C8C8C",
" [ c #888888",
" { c #848484",
" } c #828282",
" | c #7E7E7E",
".  c #787878",
".. c #767676",
".X c #747474",
".o c #727272",
".O c #707070",
".+ c #6E6E6E",
".@ c #6C6C6C",
".# c #666666",
".$ c #646464",
".% c #5E5E5E",
".& c #5A5A5A",
".* c #585858",
".= c #565656",
".- c #525252",
".; c #505050",
".: c #4E4E4E",
".> c #FFFFFF",
"., c #FBFBFB",
".< c #F9F9F9",
".1 c #464646",
".2 c #F5F5F5",
".3 c #404040",
".4 c #F1F1F1",
".5 c #3C3C3C",
".6 c #EDEDED",
".7 c #3A3A3A",
".8 c #EBEBEB",
".9 c #383838",
".0 c #363636",
".q c #E7E7E7",
".w c #343434",
".e c #E5E5E5",
".r c #323232",
".t c #303030",
".y c #E1E1E1",
".u c #2E2E2E",
".i c #DFDFDF",
".p c #2C2C2C",
".a c #DDDDDD",
".s c #2A2A2A",
".d c #282828",
".f c #D9D9D9",
".g c #262626",
".h c #D7D7D7",
".j c #D5D5D5",
".k c #1E1E1E",
".l c #1C1C1C",
".z c #CDCDCD",
".x c #CBCBCB",
".c c #C9C9C9",
".v c #161616",
".b c #C7C7C7",
".n c #141414",
".m c #121212",
".M c #C3C3C3",
".N c #C1C1C1",
".B c #0C0C0C",
".V c #BDBDBD",
".C c #0A0A0A",
".Z c #B9B9B9",
".A c #060606",
/* pixels */
".>.>.>.>.>.>.>.> g / J.>.>.>.>.>.>.>.>.>.>.>.>.>.>.>.>.>.>.>.>.>.>.>.>.>.>.>.>.>.>.>.>.>.>.>.>.>.>.>.>",
".>.>.>.>.6.y 3 u f.k.w 6 6 6 6.f m u u u u W.y.y.y.y.y.6.>.>.> d.y.y.y j.>.>.>.>.>.>.>.>.>.>.>.>.>.>.>",
".>.>.>.>.$   8 , @.>.>.>.>.>.> : , , , , , , , , ,.B   l } } }.t       V } } } }.8.>.>.>.>.>.>.>.>.>.>",
".>.>.>.> [.5.s N.1.M.M.M.M.M.M.M.b.>.>.>.>.>.>.>.>.i b b b.@  .g.5 0 b b b '    .h.>.>.>.>.>.>.>.>.>.>",
".>.>.>.>.>.> T + + + + + + + + I.A.$.$.$.$.$.$.$.$.$.$.$.$ x   p.$...> n.$ u    .h.>.>.>.>.>.>.>.>.>.>",
".>.>.>.>.>.>.>.>.>.>.>.>.>.>.> ~ #  .p e e e e.0   c e e e !.&.&.& 8 6.%.& % e e q.>.>.>.>.>.>.>.>.>.>",
".>.>.>.>.>.>.>.>.>.>.>.>.>.>.> H E Z M 6 6.:.1 H   k.>.>.>.>.>.>.>.>.>.>.>.>.>.>.>.>.>.>.>.>.>.>.>.>.>",
".>.>.>.>.>.>.>.>.>.>.>.>.>.>.> H H.>.>.>.> 9       k.>.>.>.>.>.>.>.>.>.>.>.>.>.>.>.>.>.>.>.>.>.>.>.>.>",
".>.>.>.>.>.>.>.>.>.>.>.>.>.>.> H H.>.>.>.> 9       k.>.>.>.>.>.>.>.>.>.>.>.>.>.>.>.>.>.>.>.>.>.>.>.>.>",
".>.>.>.>.>.>.>.>.>.>.>.>.>.>.> H.A 4 {.>.> 9       k.>.>.>.>.>.>.>.>.>.>.>.>.>.>.>.>.>.>.>.>.>.>.>.>.>",
".>.>.>.>.>.>.>.>.>.>.>.>.>.>.> t.q   G 6 6.* 9.m   k.>.>.>.>.>.>.>.>.>.>.>.>.>.>.>.>.>.>.>.>.>.>.>.>.>",
".>.>.>.>.>.>.>.>.>.>.>.>.>.>.>.> a   v.>.>.>.> h   k.>.>.>.>.>.>.>.>.>.>.>.>.>.>.>.>.>.>.>.>.>.>.>.>.>",
".>.>.>.>.>.>.>.>.>.>.>.>.>.>.>.> a   v.>.>.>.> h   k.>.>.>.>.>.>.>.>.>.>.>.>.>.>.>.>.>.>.>.>.>.>.>.>.>",
".>.>.>.>.>.>.>.>.>.>.>.>.>.>.>.> a   v.>.>.>.> h   k.>.>.>.>.>.>.>.>.>.>.>.>.>.>.>.>.>.>.>.>.>.>.>.>.>",
".>.>.>.>.>.>.>.>.>.>.>.>.>.>.>.> a   v.>.>.>.> h   k.>.>.>.>.>.>.>.>.>.>.>.>.>.>.>.>.>.>.>.>.>.>.>.>.>",
".>.>.>.>.>.>.>.>.>.>.>.>.>.>.>.> a   v.>.>.>.> h   k.>.>.>.>.>.>.>.>.>.>.>.>.>.>.>.>.>.>.>.>.>.>.>.>.>",
".>.>.>.>.>.>.>.>.>.>.>.>.>.>.>.> a   v.>.>.>.> h   k.>.>.>.>.>.>.>.>.>.>.>.>.>.>.>.>.>.>.>.>.>.>.>.>.>",
".>.>.>.>.>.>.>.>.>.>.>.>.>.>.>.> t.+.X & & n.> *.+ ' & P.>.>.>.>.>.>.>.>.>.>.>.>.>.>.>.>.>.>.>.>.>.>.>",
".>.>.>.>.>.>.>.>.>.>.>.>.>.>.>.>.>.> B     Q.>.>.> Z  .$.>.>.>.>.>.>.>.>.>.>.>.>.>.>.>.>.>.>.>.>.>.>.>",
".>.>.>.>.>.>.>.>.>.>.>.>.>.>.>.>.>.> B     Q.>.>.> Z  .$.>.>.>.>.>.>.>.>.>.>.>.>.>.>.>.>.>.>.>.>.>.>.>",
".>.>.>.>.>.>.>.>.>.>.>.>.>.>.>.>.>.> B     Q.>.>.> Z  .$.>.>.>.>.>.>.>.>.>.>.>.>.>.>.>.>.>.>.>.>.>.>.>",
".>.>.>.>.>.>.>.>.>.>.>.>.>.>.>.>.>.> B     Q.>.>.> Z  .$.>.>.>.>.>.>.>.>.>.>.>.>.>.>.>.>.>.>.>.>.>.>.>",
".>.>.>.>.>.>.>.>.>.>.>.>.>.>.>.>.>.> B     Q.>.>.> Z  .$.>.>.>.>.>.>.>.>.>.>.>.>.>.>.>.>.>.>.>.>.>.>.>",
".>.>.>.>.>.>.>.>.>.>.>.>.>.>.>.>.>.> B     Q.>.>.> Z  .$.>.>.>.>.>.>.>.>.>.>.>.>.>.>.>.>.>.>.>.>.>.>.>",
".>.>.>.>.>.>.>.>.>.>.>.>.>.>.>.>.>.> B     Q.>.>.> Z  .$.>.>.>.>.>.>.>.>.>.>.>.>.>.>.>.>.>.>.>.>.>.>.>",
".>.>.>.>.>.>.>.>.>.>.>.>.>.>.>.>.>.> B     Q.>.>.> Z  .$.>.>.>.>.>.>.>.>.>.>.>.>.>.>.>.>.>.>.>.>.>.>.>",
".>.>.>.>.>.>.>.>.>.>.>.>.>.>.>.>.>.> B     Q.>.>.> Z  .$.>.>.>.>.>.>.>.>.>.>.>.>.>.>.>.>.>.>.>.>.>.>.>",
".>.>.>.>.>.>.>.>.>.>.>.>.>.>.>.>.>.> B     Q.>.>.> Z  .$.>.>.>.>.>.>.>.>.>.>.>.>.>.>.>.>.>.>.>.>.>.>.>",
".>.>.>.>.>.>.>.>.>.>.>.>.>.>.>.>.>.> B     Q.>.>.> Z  .$.>.>.>.>.>.>.>.>.>.>.>.>.>.>.>.>.>.>.>.>.>.>.>",
".>.>.>.>.>.>.>.>.>.>.>.>.>.>.>.>.>.> B     Q.>.>.> Z  .$.>.>.>.>.>.>.>.>.>.>.>.>.>.>.>.>.>.>.>.>.>.>.>",
".>.>.>.>.>.>.>.>.>.>.>.>.>.>.>.>.>.> B     Q.>.>.> Z  .$.>.>.>.>.>.>.>.>.>.>.>.>.>.>.>.>.>.>.>.>.>.>.>",
".>.>.>.>.>.>.>.>.>.>.>.>.>.>.>.>.>.> B     Q.>.>.> Z  .$.>.>.>.>.>.>.>.>.>.>.>.>.>.>.>.>.>.>.>.>.>.>.>",
".>.>.>.>.>.>.>.>.>.>.>.>.>.>.>.>.>.> B     Q.>.>.> Z  .$.>.>.>.>.>.>.>.>.>.>.>.>.>.>.>.>.>.>.>.>.>.>.>",
".>.>.>.>.>.>.>.>.>.>.>.>.>.>.>.>.>.>.h.k.k /.y.<.> F K * u ^.>.>.>.>.>.>.>.>.>.>.>.>.>.>.>.>.>.>.>.>.>",
".>.>.>.>.>.>.>.>.>.>.>.>.>.>.>.>.>.>.>.>.> 9   S.>.>.> +   }.>.>.>.>.>.>.>.>.>.>.>.>.>.>.>.>.>.>.>.>.>",
".>.>.>.>.>.>.>.>.>.>.>.>.>.>.>.>.>.>.>.>.> 9   S.>.>.> +   }.>.>.>.>.>.>.>.>.>.>.>.>.>.>.>.>.>.>.>.>.>",
".>.>.>.>.>.>.>.>.>.>.>.>.>.>.>.>.>.>.>.>.> 9   S.>.>.> +   }.>.>.>.>.>.>.>.>.>.>.>.>.>.>.>.>.>.>.>.>.>",
".>.>.>.>.>.>.>.>.>.>.>.>.>.>.>.>.>.>.>.>.> 9   S.>.>.> +   }.>.>.>.>.>.>.>.>.>.>.>.>.>.>.>.>.>.>.>.>.>",
".>.>.>.>.>.>.>.>.>.>.>.>.>.>.>.>.>.>.>.>.> 9   S.>.>.> +   }.>.>.>.>.>.>.>.>.>.>.>.>.>.>.>.>.>.>.>.>.>",
".>.>.>.>.>.>.>.>.>.>.>.>.>.>.>.>.>.>.>.>.> 9   S.>.>.> +   }.>.>.>.>.>.>.>.>.>.>.>.>.>.>.>.>.>.>.>.>.>",
".>.>.>.>.>.>.>.>.>.>.>.>.>.>.>.>.>.>.>.>.> 9   S.>.>.> +   }.>.>.>.>.>.>.>.>.>.>.>.>.>.>.>.>.>.>.>.>.>",
".>.>.>.>.>.>.>.>.>.>.>.>.>.>.>.>.>.> z 4 4 N  .- 4 4 4.3   }.>.>.>.>.>.>.>.>.>.>.>.>.>.>.>.>.>.>.>.>.>",
".>.>.>.>.>.>.>.>.>.>.>.>.>.>.>.>.>.>.y 9 9.l   J.2.2.2 $   }.>.>.>.>.>.>.>.>.>.>.>.>.>.>.>.>.>.>.>.>.>",
".>.>.>.>.>.>.>.>.>.>.>.>.>.>.>.>.>.>.>.>.> 9   S.> 7 w.u   }.>.>.>.>.>.>.>.>.>.>.>.>.>.>.>.>.>.>.>.>.>",
".>.>.>.>.>.>.>.>.>.>.>.>.>.>.>.>.>.>.>.>.> 9   S.> Z       }.>.>.>.>.>.>.>.>.>.>.>.>.>.>.>.>.>.>.>.>.>",
".>.>.>.>.>.>.>.>.>.>.>.>.>.>.>.>.>.>.>.>.> 9   S.>.1.r.k  .t 6.M.>.>.>.>.>.>.>.>.>.>.>.>.>.>.>.>.>.>.>",
".>.>.>.>.>.>.>.>.>.>.>.>.>.>.>.>.>.>.>.>.> 9   S.>.>.> +  .9.+.c.>.>.>.>.>.>.>.>.>.>.>.>.>.>.>.>.>.>.>",
".>.>.>.>.>.>.>.> s X X X X X X X X X X X X.7   S.>.>.> +       /.>.>.>.>.>.>.>.>.>.>.>.>.>.>.>.>.>.>.>",
".>.>.>.>.>.>.>.> S  .7 X X X X X X X X X X.7   S.> 5.; 1 X.=  .5 6 6 6 8.; - a a a a q.>.>.>.>.>.>.>.>",
".>.>.>.>.>.>.>.> S   9.>.>.>.>.>.>.>.>.>.> 9   S.> Z  .$.> ,   /.>.>.>.a.+.+.+.+ G   = & & & C.>.>.>.>",
".>.>.>.>.>.>.>.> y.z @.r '.>.>.>.>.>.>.>.> 2 v x.r Y  .- B | v ..>.>.>.>.>.>.>.>.j.z.z.V     &.>.>.>.>",
".>.>.>.>.>.>.>.>.>.> Q   2.>.>.>.>.>.>.>.>.>.> h           }.>.>.>.>.>.>.>.>.>.>.>.>.>.8     &.>.>.>.>",
".>.>.>.>.>.>.>.>.>.> Q   2.>.>.>.>.>.>.>.>.>.>.o w U       }.>.>.>.>.>.>.>.>.>.>.>.>.>.8     &.>.>.>.>",
".>.>.>.>.>.>.>.>.>.> Q   2.>.>.>.>.>.>.>.>.>.>.>.> Z       }.>.>.>.>.>.>.>.>.>.>.>.>.>.8     &.>.>.>.>",
".>.>.>.>.>.>.>.>.>.>.z 4 , ) ).<.>.>.>.>.>.>.>.>.>.  4 4 4 T.>.>.>.>.>.>.>.>.>.>.>.>.>.8     &.>.>.>.>",
".>.>.>.>.>.>.>.>.>.>.>.> ]     a.>.> r.h.h i.>.>.>.>.>.>.>.>.>.>.>.>.>.>.>.>.>.>.>.>.>.8     &.>.>.>.>",
".>.>.>.>.>.>.>.>.>.>.>.> ]     a.>.> B     Q.>.>.>.>.>.>.>.>.> Q.  [.>.>.>.>.>.>.>.> , < ; ;.x.>.>.>.>",
".>.>.>.>.>.>.>.>.>.>.>.> ]     a.,.Z O.1.1.N.>.>.>.>.>.>.>.>.> 6  .v.Z A.>.>.>.>.>.>.C.n.>.>.>.>.>.>.>",
".>.>.>.>.>.>.>.>.>.>.>.> ]     a a   v.>.>.>.>.>.>.>.>.>.>.>.> D O `  .5.>.>.>.>.>.>.C.n.>.>.>.>.>.>.>",
".>.>.>.>.>.>.>.>.>.>.>.> ]     ` (.$ >.>.>.>.>.>.>.>.>.>.>.>.>.>.>.y  .5.>.>.>.> o +.#.O.>.>.>.>.>.>.>",
".>.>.>.>.>.>.>.>.>.>.>.> ]       H.>.>.>.>.>.>.>.>.>.>.>.>.>.>.>.>.e N 0 b j.>.>.d  .2.>.>.>.>.>.>.>.>",
".>.>.>.>.>.>.>.>.>.>.>.> ]       U , _.>.>.>.>.>.>.>.>.>.>.>.>.>.>.>.>.M  .&.>.>.d  .2.>.>.>.>.>.>.>.>",
".>.>.>.>.>.>.>.>.>.>.>.>.4.y.y.y.y.y A 6 6 6 6 Q K K K K K K K K K K K &   L.k.k.M.y q.>.>.>.>.>.>.>.>",
".>.>.>.>.>.>.>.>.>.>.>.>.>.>.>.>.>.>.>.>.>.>.> R / / / / / / / / / / / / / / / / a.>.>.>.>.>.>.>.>.>.>"
};
