/* XPM */
static char *schep-r[] = {
/* width height ncolors chars_per_pixel */
"43 64 154 2",
/* colors */
"   c #000000",
" . c #AFAFAF",
" X c #ADADAD",
" o c #A9A9A9",
" O c #A3A3A3",
" + c #A1A1A1",
" @ c #9D9D9D",
" # c #9B9B9B",
" $ c #999999",
" % c #979797",
" & c #939393",
" * c #919191",
" = c #8F8F8F",
" - c #8D8D8D",
" ; c #8B8B8B",
" : c #858585",
" > c #838383",
" , c #818181",
" < c #7F7F7F",
" 1 c #7D7D7D",
" 2 c #797979",
" 3 c #757575",
" 4 c #717171",
" 5 c #696969",
" 6 c #676767",
" 7 c #595959",
" 8 c #575757",
" 9 c #555555",
" 0 c #535353",
" q c #515151",
" w c #4F4F4F",
" e c #4D4D4D",
" r c #FEFEFE",
" t c #494949",
" y c #FAFAFA",
" u c #474747",
" i c #F8F8F8",
" p c #454545",
" a c #F6F6F6",
" s c #434343",
" d c #F4F4F4",
" f c #F2F2F2",
" g c #F0F0F0",
" h c #3B3B3B",
" j c #ECECEC",
" k c #393939",
" l c #373737",
" z c #E8E8E8",
" x c #E6E6E6",
" c c #333333",
" v c #E4E4E4",
" b c #313131",
" n c #E2E2E2",
" m c #E0E0E0",
" M c #2B2B2B",
" N c #DCDCDC",
" B c #292929",
" V c #D6D6D6",
" C c #212121",
" Z c #1F1F1F",
" A c #D0D0D0",
" S c #1D1D1D",
" D c #CECECE",
" F c #CCCCCC",
" G c #171717",
" H c #C6C6C6",
" J c #131313",
" K c #C4C4C4",
" L c #C2C2C2",
" P c #C0C0C0",
" I c #0D0D0D",
" U c #0B0B0B",
" Y c #090909",
" T c #BABABA",
" R c #B8B8B8",
" E c #050505",
" W c #B6B6B6",
" Q c #B4B4B4",
" ! c #010101",
" ~ c #AEAEAE",
" ^ c #ACACAC",
" / c #A8A8A8",
" ( c #A6A6A6",
" ) c #A0A0A0",
" _ c #9C9C9C",
" ` c #989898",
" ' c #949494",
" ] c #868686",
" [ c #848484",
" { c #828282",
" } c #7C7C7C",
" | c #7A7A7A",
".  c #767676",
".. c #727272",
".X c #707070",
".o c #6E6E6E",
".O c #6A6A6A",
".+ c #686868",
".@ c #666666",
".# c #646464",
".$ c #626262",
".% c #5E5E5E",
".& c #5C5C5C",
".* c #5A5A5A",
".= c #545454",
".- c #505050",
".; c #4E4E4E",
".: c #FFFFFF",
".> c #FDFDFD",
"., c #4A4A4A",
".< c #FBFBFB",
".1 c #484848",
".2 c #F9F9F9",
".3 c #464646",
".4 c #F7F7F7",
".5 c #444444",
".6 c #424242",
".7 c #F3F3F3",
".8 c #F1F1F1",
".9 c #EFEFEF",
".0 c #3C3C3C",
".q c #EDEDED",
".w c #EBEBEB",
".e c #383838",
".r c #E9E9E9",
".t c #343434",
".y c #323232",
".u c #E3E3E3",
".i c #E1E1E1",
".p c #2C2C2C",
".a c #2A2A2A",
".s c #DBDBDB",
".d c #D9D9D9",
".f c #262626",
".g c #D7D7D7",
".h c #242424",
".j c #202020",
".k c #1E1E1E",
".l c #CDCDCD",
".z c #1A1A1A",
".x c #CBCBCB",
".c c #181818",
".v c #C9C9C9",
".b c #161616",
".n c #141414",
".m c #C5C5C5",
".M c #101010",
".N c #C1C1C1",
".B c #BFBFBF",
".V c #BDBDBD",
".C c #080808",
".Z c #B9B9B9",
".A c #B7B7B7",
".S c #B5B5B5",
/* pixels */
".: i O O.;  .$ O O O ~.: j O O O O x.:.:.:.:.:.:.:.:.:.:.:.:.:.:.:.:.:.:.:.:.:.:.:.:.:",
" u s.n.n 5 R R R R R X.& e.n.n.n.n.1.&.&.& t u }.w.w.w _ u u u.1.w.w.w.w a.:.:.:.:.:.:",
"   U = =.v.:.:.:.:.:.:.:.:.:.:.:.:.:.:.:.: ,.X.X.X s        .+.X.X.@     ].:.:.:.:.:.:",
" F.B B B.5.&.&.&.&.& 8 c.= V V V V V V V V V V V V <   w O O i.: V K     ].:.:.:.:.:.:",
".:.:.:.:.:.:.:.:.:.: g :.O  .f : : : :.z  .  : : : w         4 2   U : :.m.:.:.:.:.:.:",
".:.:.:.:.:.:.:.:.:.: v.k.c   l L L L L.f  .i.:.:.:.7.i.i.i.i.i.i.i v.:.:.:.:.:.:.:.:.:",
".:.:.:.:.:.:.:.:.:.: m   Z $ $ $ $.a      .i.:.:.:.:.:.:.:.:.:.:.:.:.:.:.:.:.:.:.:.:.:",
".:.:.:.:.:.:.:.:.:.: m  .t.:.:.:.: u      .i.:.:.:.:.:.:.:.:.:.:.:.:.:.:.:.:.:.:.:.:.:",
".:.:.:.:.:.:.:.:.:.: m   b d.4.:.: u      .i.:.:.:.:.:.:.:.:.:.:.:.:.:.:.:.:.:.:.:.:.:",
".:.:.:.:.:.:.:.:.:.: j.@ q   M $ $.a      .i.:.:.:.:.:.:.:.:.:.:.:.:.:.:.:.:.:.:.:.:.:",
".:.:.:.:.:.:.:.:.:.:.:.:.x   l L L L L.f  .i.:.:.:.:.:.:.:.:.:.:.:.:.:.:.:.:.:.:.:.:.:",
".:.:.:.:.:.:.:.:.:.:.:.:.x  .1.:.:.:.:.y  .i.:.:.:.:.:.:.:.:.:.:.:.:.:.:.:.:.:.:.:.:.:",
".:.:.:.:.:.:.:.:.:.:.:.:.x  .1.:.:.:.:.y  .i.:.:.:.:.:.:.:.:.:.:.:.:.:.:.:.:.:.:.:.:.:",
".:.:.:.:.:.:.:.:.:.:.:.:.x  .1.:.:.:.:.y  .i.:.:.:.:.:.:.:.:.:.:.:.:.:.:.:.:.:.:.:.:.:",
".:.:.:.:.:.:.:.:.:.:.:.:.x  .1.:.:.:.:.y  .i.:.:.:.:.:.:.:.:.:.:.:.:.:.:.:.:.:.:.:.:.:",
".:.:.:.:.:.:.:.:.:.:.:.:.x  .1.:.:.:.:.y  .i.:.:.:.:.:.:.:.:.:.:.:.:.:.:.:.:.:.:.:.:.:",
".:.:.:.:.:.:.:.:.:.:.:.:.x  .1.:.:.:.:.y  .i.:.:.:.:.:.:.:.:.:.:.:.:.:.:.:.:.:.:.:.:.:",
".:.:.:.:.:.:.:.:.:.:.:.:.8 R ` u u F.: H R.= u >.:.:.:.:.:.:.:.:.:.:.:.:.:.:.:.:.:.:.:",
".:.:.:.:.:.:.:.:.:.:.:.:.:.:.A     R.:.:.:.k   0.:.:.:.:.:.:.:.:.:.:.:.:.:.:.:.:.:.:.:",
".:.:.:.:.:.:.:.:.:.:.:.:.:.:.A     R.:.:.:.k   0.:.:.:.:.:.:.:.:.:.:.:.:.:.:.:.:.:.:.:",
".:.:.:.:.:.:.:.:.:.:.:.:.:.:.A     R.:.:.:.k   0.:.:.:.:.:.:.:.:.:.:.:.:.:.:.:.:.:.:.:",
".:.:.:.:.:.:.:.:.:.:.:.:.:.:.A     R.:.:.:.k   0.:.:.:.:.:.:.:.:.:.:.:.:.:.:.:.:.:.:.:",
".:.:.:.:.:.:.:.:.:.:.:.:.:.:.A     R.:.:.:.k   0.:.:.:.:.:.:.:.:.:.:.:.:.:.:.:.:.:.:.:",
".:.:.:.:.:.:.:.:.:.:.:.:.:.:.A     R.:.:.:.k   0.:.:.:.:.:.:.:.:.:.:.:.:.:.:.:.:.:.:.:",
".:.:.:.:.:.:.:.:.:.:.:.:.:.:.A     R.:.:.:.k   0.:.:.:.:.:.:.:.:.:.:.:.:.:.:.:.:.:.:.:",
".:.:.:.:.:.:.:.:.:.:.:.:.:.:.A     R.:.:.:.k   0.:.:.:.:.:.:.:.:.:.:.:.:.:.:.:.:.:.:.:",
".:.:.:.:.:.:.:.:.:.:.:.:.:.:.A     R.:.:.:.k   0.:.:.:.:.:.:.:.:.:.:.:.:.:.:.:.:.:.:.:",
".:.:.:.:.:.:.:.:.:.:.:.:.:.:.A     R.:.:.:.k   0.:.:.:.:.:.:.:.:.:.:.:.:.:.:.:.:.:.:.:",
".:.:.:.:.:.:.:.:.:.:.:.:.:.:.A     R.:.:.:.k   0.:.:.:.:.:.:.:.:.:.:.:.:.:.:.:.:.:.:.:",
".:.:.:.:.:.:.:.:.:.:.:.:.:.:.A     R.:.:.:.k   0.:.:.:.:.:.:.:.:.:.:.:.:.:.:.:.:.:.:.:",
".:.:.:.:.:.:.:.:.:.:.:.:.:.:.A     R.:.:.:.k   0.:.:.:.:.:.:.:.:.:.:.:.:.:.:.:.:.:.:.:",
".:.:.:.:.:.:.:.:.:.:.:.:.:.:.A     R.:.:.:.k   0.:.:.:.:.:.:.:.:.:.:.:.:.:.:.:.:.:.:.:",
".:.:.:.:.:.:.:.:.:.:.:.:.:.:.A     R.:.:.:.k   0.:.:.:.:.:.:.:.:.:.:.:.:.:.:.:.:.:.:.:",
".:.:.:.:.:.:.:.:.:.:.:.:.:.:.V.b.b ..r.<.:.N.Z '.3 *.:.:.:.:.:.:.:.:.:.:.:.:.:.:.:.:.:",
".:.:.:.:.:.:.:.:.:.:.:.:.:.:.:.:.: u  .l.:.:.: ^   6.:.:.:.:.:.:.:.:.:.:.:.:.:.:.:.:.:",
".:.:.:.:.:.:.:.:.:.:.:.:.:.:.:.:.: u  .l.:.:.: ^   6.:.:.:.:.:.:.:.:.:.:.:.:.:.:.:.:.:",
".:.:.:.:.:.:.:.:.:.:.:.:.:.:.:.:.: u  .l.:.:.: ^   6.:.:.:.:.:.:.:.:.:.:.:.:.:.:.:.:.:",
".:.:.:.:.:.:.:.:.:.:.:.:.:.:.:.:.: u  .l.:.:.: ^   6.:.:.:.:.:.:.:.:.:.:.:.:.:.:.:.:.:",
".:.:.:.:.:.:.:.:.:.:.:.:.:.:.:.:.: u  .l.:.:.: ^   6.:.:.:.:.:.:.:.:.:.:.:.:.:.:.:.:.:",
".:.:.:.:.:.:.:.:.:.:.:.:.:.:.:.:.: u  .l.:.:.: ^   6.:.:.:.:.:.:.:.:.:.:.:.:.:.:.:.:.:",
".:.:.:.:.:.:.:.:.:.:.:.:.:.:.:.:.: u  .l.:.:.: ^   6.:.:.:.:.:.:.:.:.:.:.:.:.:.:.:.:.:",
".:.:.:.:.:.:.:.:.:.:.:.:.:.: n % %.a   2 % % %.@   6.:.:.:.:.:.:.:.:.:.:.:.:.:.:.:.:.:",
".:.:.:.:.:.:.:.:.:.:.:.:.:.: P.j.j Y   @ K K K :   6.:.:.:.:.:.:.:.:.:.:.:.:.:.:.:.:.:",
".:.:.:.:.:.:.:.:.:.:.:.:.:.:.:.:.: u  .l.: * > 7   6.:.:.:.:.:.:.:.:.:.:.:.:.:.:.:.:.:",
".:.:.:.:.:.:.:.:.:.:.:.:.:.:.:.:.: u  .l.:.k       6.:.:.:.:.:.:.:.:.:.:.:.:.:.:.:.:.:",
".:.:.:.:.:.:.:.:.:.:.:.:.:.:.:.:.: u  .l.:.k      .p.o Q.:.:.:.:.:.:.:.:.:.:.:.:.:.:.:",
".:.:.:.:.:.:.:.:.:.:.:.:.:.:.:.:.: u  .l.:.9.q )  .6 O A.:.:.:.:.:.:.:.:.:.:.:.:.:.:.:",
".:.:.:.: r.>.>.>.>.>.>.>.>.>.>.>.>.3  .l.:.:.: ^       }.:.:.:.:.:.:.:.:.:.:.:.:.:.:.:",
".:.:.:.: |   k.%.%.%.%.%.%.%.%.%.%.z  .l.: ^ + ;.%.e  .; + + + + + o.:.:.:.:.:.:.:.:.:",
".:.:.:.: |   $.:.:.:.:.:.:.:.:.:.: u  .l.:.k   0.: `  .* T T T.Z G S.&.&.- p / z z z z",
".:.:.:.: W.. { -.s.:.:.:.:.:.:.:.: u   4 -.M   0.: `   }.:.:.:.:.:.:.:.:.S.......h    ",
".:.:.:.:.:.:.@   ~.:.:.:.:.:.:.:.: N D B      .M b.X D x.:.:.:.:.:.:.:.:.:.:.:.:.-    ",
".:.:.:.:.:.:.@   ~.:.:.:.:.:.:.:.:.:.:.y           6.:.:.:.:.:.:.:.:.:.:.:.:.:.:.-    ",
".:.:.:.:.:.:.@   ~.:.:.:.:.:.:.:.:.:.:.r.u.z       6.:.:.:.:.:.:.:.:.:.:.:.:.:.:.-    ",
".:.:.:.:.:.:.@   ~.:.:.:.:.:.:.:.:.:.:.:.:.k       6.:.:.:.:.:.:.:.:.:.:.:.:.:.:.-    ",
".:.:.:.:.:.: y.4.=.C.f.:.:.:.:.:.:.:.:.:.: i.4.4.4 y.:.:.:.:.:.:.:.:.:.:.:.:.:.:.-    ",
".:.:.:.:.:.:.:.: q   Z.:.:.:.l w w D.:.:.:.:.:.:.:.:.:.2 f f r.:.:.:.:.:.:.:.4 f 9 I I",
".:.:.:.:.:.:.:.: q   Z.:.:.:.A     R.:.:.:.:.:.:.:.:.: >     j.:.:.:.:.:.:.:.#   ..:.:",
".:.:.:.:.:.:.:.: q   Z.:.g h.$ K K.9.:.:.:.:.:.:.:.:.: & C C k.0.:.:.:.:.:.:.#   ..:.:",
".:.:.:.:.:.:.:.: q   Z.:.x  .1.:.:.:.:.:.:.:.:.:.:.:.:.:.:.: J !.:.:.:.:.:.:.#   ..:.:",
".:.:.:.:.:.:.:.: q   E.f.,.d v.:.:.:.:.:.:.:.:.:.:.:.:.:.:.: J !.:.:.:.: -.f &.d.7.:.:",
".:.:.:.:.:.:.:.: q      .t.:.:.:.:.:.:.:.:.:.:.:.:.:.:.:.:.: $ *.o |.:.: 2   #.:.:.:.:",
".:.:.:.:.:.:.:.: [.,.,.,.;.& 3.S.S.S.S g.:.:.:.:.:.:.:.:.:.:.: r  .M.S.S 1., R.:.:.:.:",
".:.:.:.:.:.:.:.:.:.:.:.:.:.: x ( ( ( (.+ 7 7 7 7 7 7 7 7 7 7 7 7         ].:.:.:.:.:.:"
};
