/* XPM */
static char *noname[] = {
/* width height ncolors chars_per_pixel */
"64 64 36 1",
/* colors */
"  c #F8FCF8",
". c #F8F8F8",
"X c #F0F0F0",
"o c #E8E8E8",
"O c #E0E0E0",
"+ c #D8DCD8",
"@ c #D8D8D8",
"# c #D0D0D0",
"$ c #C8C8C8",
"% c #B8BCB8",
"& c #B8B8B8",
"* c #B0B0B0",
"= c #A0A0A0",
"- c #989898",
"; c #909490",
": c #909090",
"> c #888888",
", c #808080",
"< c #787878",
"1 c #707070",
"2 c #686868",
"3 c #606060",
"4 c #585C58",
"5 c #585858",
"6 c #505050",
"7 c #484848",
"8 c #404040",
"9 c #383838",
"0 c #303030",
"q c #282828",
"w c #202020",
"e c #181818",
"r c #101010",
"t c #080C08",
"y c #080808",
"u c #000400",
/* pixels */
"                .                                      .        ",
"                          .   .                                 ",
"  ..   ...   ... ...   ..    . .. ..   ...   ....   .. ...   ...",
"    ...   ...   .   ...   .         ...   ...    ...      ...   ",
"   .   ...   ... ...   ..    .... ..   ...   ....   .. ...   ...",
"    ...   ...   .   ...   .         . .   ...    ...      ...   ",
"                         . ..    .                    .         ",
"  . ...   ...   .   ...   .         ...   ...    ...      ...   ",
"                          ...    .         .          .         ",
"  ..   ...   ... ...   .     .... ..   ...  .    ...   ...   ...",
"                          ...    .                    .         ",
"  ..   ...   ... ...   ...   ....  .   ... ..    ...   ...   ...",
"    ...   ...   .   ...             ...   .  ....   ..    ...   ",
"       ...   ... ...    . ... ...  .   ... ..    ...   ...   ...",
"    ...     .   .                   ...   .  ....   ..    ...   ",
"   .       .           .  .  .   ..      .            .         ",
"  . ...   . .   .     .  . .X .    O.  .   . ....   ..    ...   ",
"   .              ..o ..  .o  .  ...       . .     .  .         ",
"   .X  ... o ... .O .    Xo   .   o    . X      o      . .   ...",
"     .     .      X  . .. .  . .  .  ..  . ...  .  .  .         ",
"    .. ...   . . .$18rtyuuutew1%.X.  ..   ..  ...      . .   ...",
"          .... Xeyyyutyuuuuuuytyuu9&.        .    . ..  . ...   ",
"    .  ...   ..6rutuytuuuyuuutyrew9r= .   ... ...      . .   ...",
"  .  .    ... 8<9uuuyyuuuyt9w860ttuuu5       .    . ..  . ...   ",
"   .  .       31<<29qtrq4556qruw9qruyu9o X       . .  .         ",
"     .    ... 5<><<<<455455qyyw9yuuq9rt<+. . .    . ..  . ...   ",
"   .  .       *<<<11<54456tw56ur66euyrwwr&+.     . .  .         ",
"    .  ...    %<1><121444256uy53tuw459tuuuy;  ...      . .   ...",
"  ..  .      .:1<1<111134555r95wtw059urq6qtr1.   . .  .         ",
"    .  ...    8<<<1<<<1<<24544rt449uy59wttre615<157=X  . .   ...",
"  .. .    ... 4<<<<1<<1<<<<242556wu55tye91<$++Oooo+$:<  . ...   ",
"    .  ...   .<><<<1111<<<<12445quq59u94<=$#+Oo    +@5#  .   .. ",
"   .      .. .2<>2<11<2<1<<11114586yu5<>#$#+.    .   @9-  ...   ",
"    ...       9<1<<112<<<<1<1,<122141<%#### . ..  .. .$7 .     .",
"   .      ... 99<<<111<<<1<<1<<<112<2:@###+      .    #-o ...   ",
"  . ...      .16et8<1<1<<<1<411<2<11<###### . ..  .. o##5      .",
"       ...    #8588wwrew52<<<<<<<11<%######$oX. ..o@##o@9  ..   ",
"    ...       .8686868qer51121<<<<2>$##+####+#O++##+@+o$6      .",
"       ...     88668686889er1<11<<<<%#+#$#####+++#######2. ..   ",
"     ..   ...  .976866668588et42<<<<1&#$#++###+####+##;>3X ..   ",
"       ...    ..4q898869e96869r5<<11<<=%+###+#+#++##&>115.   .. ",
"    ...   ...     #6w968tyt9888qre<1<<<111<>>>><<1<<1<<<r.  .   ",
"   .         .  .    .#&1%..4q8889er95<<<><,1<<<<1<<2<8eq.     .",
"  . ...   ...               .:96686qer94<11<<<<>1<<129eq9   .   ",
"   .         .  . .  ..      ..;q96866999errrrterrr996666      .",
"  .    ...    .. .     .       ..o>wq67569668566666866q:.    .. ",
"   .         .  . . ... .        ..#-098668566668869q8#.  ..   .",
"       ...    .. .     .  ...     .    .o#%=<11<=$.      .    . ",
"    ...   ...      .     .   ..  ...          .             . . ",
"       ...    .. .     .  ...       .  .      .    . ..   ..    ",
"  .. ..   ...      .     .   ..  ... ...  ....   .. .. ..   . . ",
"    .        .  . . ... .      ..    .   .          .    .   .  ",
"   . ..   ...      .     .   ..  ..   .   .. ... ... . ..  .. . ",
"    .    . . .  . . ... ..   .   .  ..   .          .    .   .  ",
"       ..  .  .. .     .  .    ..      ..   .   .     .   .     ",
"  . .        .  . . ... ..   ..          .          .    .   .  ",
"       ... .. .  .     .  .    ..  .   ..   .   .     .   .     ",
"  .. ..   .    .     .        .      ..   .. ... ... . ..  .. ..",
"       ... ..    .  . .   .    ..  .   ..   .   .     .   .     ",
"     ..   .    .          .   .    . ..   ..     ... . ..  .. . ",
"    .        .. . ..        .    .. .    .    .     .    .   .  ",
"     ..  .     .       ..    ..    . ..   .. .   ... . ..  ..   ",
" ..       .. .. . ..        .    .. .    .    .     .    . .. . ",
"...    ...       .  ... ..     ..      ..   .  ..     .   .     "
};
