/* XPM */
static char *spook-r[] = {
/* width height ncolors chars_per_pixel */
"54 64 186 2",
/* colors */
"   c #000000",
" . c #B1B1B1",
" X c #AFAFAF",
" o c #ADADAD",
" O c #ABABAB",
" + c #A9A9A9",
" @ c #A7A7A7",
" # c #A5A5A5",
" $ c #A3A3A3",
" % c #9F9F9F",
" & c #9D9D9D",
" * c #9B9B9B",
" = c #999999",
" - c #979797",
" ; c #959595",
" : c #919191",
" > c #8F8F8F",
" , c #8D8D8D",
" < c #8B8B8B",
" 1 c #898989",
" 2 c #878787",
" 3 c #858585",
" 4 c #838383",
" 5 c #818181",
" 6 c #7F7F7F",
" 7 c #7D7D7D",
" 8 c #7B7B7B",
" 9 c #797979",
" 0 c #777777",
" q c #757575",
" w c #737373",
" e c #717171",
" r c #6F6F6F",
" t c #6D6D6D",
" y c #6B6B6B",
" u c #676767",
" i c #656565",
" p c #636363",
" a c #616161",
" s c #5D5D5D",
" d c #5B5B5B",
" f c #595959",
" g c #575757",
" h c #535353",
" j c #515151",
" k c #4F4F4F",
" l c #FEFEFE",
" z c #FCFCFC",
" x c #494949",
" c c #FAFAFA",
" v c #474747",
" b c #F8F8F8",
" n c #F6F6F6",
" m c #434343",
" M c #F4F4F4",
" N c #414141",
" B c #F2F2F2",
" V c #F0F0F0",
" C c #3D3D3D",
" Z c #EEEEEE",
" A c #3B3B3B",
" S c #ECECEC",
" D c #393939",
" F c #EAEAEA",
" G c #E8E8E8",
" H c #E6E6E6",
" J c #E4E4E4",
" K c #E2E2E2",
" L c #2F2F2F",
" P c #E0E0E0",
" I c #DEDEDE",
" U c #DCDCDC",
" Y c #292929",
" T c #DADADA",
" R c #D8D8D8",
" E c #D6D6D6",
" W c #D4D4D4",
" Q c #D2D2D2",
" ! c #D0D0D0",
" ~ c #CECECE",
" ^ c #CCCCCC",
" / c #191919",
" ( c #C8C8C8",
" ) c #C6C6C6",
" _ c #C2C2C2",
" ` c #C0C0C0",
" ' c #BEBEBE",
" ] c #BABABA",
" [ c #B8B8B8",
" { c #B6B6B6",
" } c #B4B4B4",
" | c #B2B2B2",
".  c #B0B0B0",
".. c #AEAEAE",
".X c #ACACAC",
".o c #AAAAAA",
".O c #A6A6A6",
".+ c #A4A4A4",
".@ c #A0A0A0",
".# c #9E9E9E",
".$ c #9C9C9C",
".% c #9A9A9A",
".& c #989898",
".* c #969696",
".= c #949494",
".- c #929292",
".; c #909090",
".: c #8E8E8E",
".> c #8C8C8C",
"., c #8A8A8A",
".< c #888888",
".1 c #868686",
".2 c #848484",
".3 c #828282",
".4 c #808080",
".5 c #7E7E7E",
".6 c #7C7C7C",
".7 c #7A7A7A",
".8 c #787878",
".9 c #747474",
".0 c #727272",
".q c #707070",
".w c #6E6E6E",
".e c #6C6C6C",
".r c #6A6A6A",
".t c #666666",
".y c #646464",
".u c #626262",
".i c #606060",
".p c #5E5E5E",
".a c #5C5C5C",
".s c #5A5A5A",
".d c #565656",
".f c #545454",
".g c #525252",
".h c #505050",
".j c #FFFFFF",
".k c #4C4C4C",
".l c #FDFDFD",
".z c #FBFBFB",
".x c #484848",
".c c #F9F9F9",
".v c #464646",
".b c #F7F7F7",
".n c #444444",
".m c #F5F5F5",
".M c #F3F3F3",
".N c #404040",
".B c #F1F1F1",
".V c #3E3E3E",
".C c #EFEFEF",
".Z c #EBEBEB",
".A c #E9E9E9",
".S c #E7E7E7",
".D c #343434",
".F c #E5E5E5",
".G c #323232",
".H c #E3E3E3",
".J c #303030",
".K c #E1E1E1",
".L c #DFDFDF",
".P c #2C2C2C",
".I c #DDDDDD",
".U c #DBDBDB",
".Y c #282828",
".T c #D9D9D9",
".R c #D7D7D7",
".E c #242424",
".W c #D5D5D5",
".Q c #D3D3D3",
".! c #D1D1D1",
".~ c #CFCFCF",
".^ c #1C1C1C",
"./ c #CDCDCD",
".( c #CBCBCB",
".) c #C9C9C9",
"._ c #C7C7C7",
".` c #C5C5C5",
".' c #C3C3C3",
".] c #C1C1C1",
".[ c #BFBFBF",
".{ c #BDBDBD",
".} c #BBBBBB",
".| c #B9B9B9",
"X  c #B7B7B7",
"X. c #B5B5B5",
/* pixels */
".j.j.j.j.j.j.j.j.j.j.j.j.j.j.j.j.j.j.j.j.j.j.j.j.j.j.j.j.j.j.j.j.j.j.j.j.j.j.j.j.j.j.j.j.j.j.j.j.`.j.j.j.j.j",
".j.j.j.j.j.j.j.j.j.j.j.j.j.j.j.j.j.j.j.j.j.j.j.j.j.j.j.j.j.j.j.j.j.j.j.j.j.j.j.j.j.j.j.j.j.j.j.j.g.-.j.j.j.j",
".j.j.j.j.j.j.j.j.j.j.j.j.j.j.j.j.j.j.j.j.j.j.j.j.j.j.j.j.j.j.j.j.j.j.j.j.j.j.j.j.j.j.j.j.j.j.j.j k.u.j.j.j.j",
".j.j.j.j.j.j.j.j.j.j.j.j.j.j.j.j.j.j.j.j.j.j.j.j.j.j.j.j.j.j.j.j.j.j.j.j.j.j.j.j.j.j.j.j.j.j.j '.; u.c.j.j.j",
".j.j.j.j.j.j.j.j.j.j.j.j.j.j.j.j.j.j.j.j.j.j.j.j.j.j.j.j.j.j.j.j.j.j.j.j.j.j.j.j.j.j.j.j.j.j.j @.  &.}.j.j.j",
".j.j.j.j.j.j.j.j.j.j.j.j.j.j.j.j.j.j.j.j.j.j.j.j.j.j.j.j.j.j.j.j.j.j.j.j.j.j.j.j.j.j.j.j.j.j.j @.  &.}.j.j.j",
".j.j.j.j.j.j.j.j.j.j.j.j.j.j.j.j.j.j.j.j.j.j.j.j.j.j.j.j.j.j.j.j.j.j.j.j.j.j.j.j.j.j.j.j.j.j.j @.  &.}.j.j.j",
".j.j.j.j.j.j.j.j.j.j.j.j.j.j.j.j.j.j.j.j.j.j.j.j.j.j.j.j.j.j.j.j.j.l.W.W.W n.j.j.j.j.j.j.j.j.j u.B &.}.j.j.j",
".j.j.j.j.j.j.j.j.j.j.j.j.j.j.j.j.j.j.j.j.j.j.j.j.j.j.j.j.j.j.j.j.j.$.D 4 x.9.j.j.j.j.j.j.j.j.j f.j &.}.j.j.j",
".j.j.j.j.j.j.j.j.j.j.j.j.j.j.j.j.j.j.j.j.j.j.j.j.j.j.j P.p.Z.j.j . D.A.j.C.d.9 n.j.j.j.j.j.C 5.S.j &.}.j.j.j",
".j.j.j.j.j.j.j.j.j.j.j.j.j.j.j.j.j.j.j.j.j.j.j.j.j.j I.3.t %.j.l x }.j.j.j V x W.j.j.j.j.j | #.j.j &.}.j.j.j",
".j.j.j.j.j.j.j.j.j.j.j.j.j.j.j.j.j.j.j.j.j.j.j.j.j.j p.m.| %.j z.g M 7 m.u.[ p.o.j.j.j.j.j a n.j.j &.}.j.j.j",
".j.j.j.j.j.j.j.j.j.j.j.j.j.j.j.j.j.j.j.j.j.j.j.j.j o O.j.| %.j z d B C.r   p x v.j.j.j.j $X..j.j.j &.}.j.j.j",
".j.j.j.j.j.j.j.j.j.j.j.j.j.j.j.j.j.j.j.j.j.j.j.j.!.<.l.j.| %.j./ <.m.h.p @ / g.k.j.j.j `.G...o.j.j &.}.j.j.j",
".j.j.j.j.j.j.j.j.j.j.j.j.j.j.j.j.j.j.j.j.j.j.j.j 4.W.j.j.| %.j f.j.j.j.j.j {.f.&.j.j.j 7.U.x #.j.j &.}.j.j.j",
".j.j.j.j.j.j.j.j.j.j.j.j.j.j.j.j.j.j.j.j.j.j.j.W 4.j.j.j.| %.j f.j.j.j.j.j.j.2 W.j.j.~ 1.j > l.j.j &.}.j.j.j",
".j.j.j.j.j.j.j.j.j.j.j.j.j.j.j.j.j.j.j.j.j.j.j.4 R.j.j.j 0 P.l d.j.j.j.j.j.j.2.~.j.c.q.A.j.j.j.j b q.A.j.j.j",
".j.j.j.j.j.j.j.j.j.j.j.j.j.j.j.j.j.j.j.j.j.j.B.4 H.j.A.R f.j.. +.j.j.j.j.j.j.2.^.@ Y ].j.j.j.j.j.} &.j.j.j.j",
".j.j.j.j.j.j.j.j.j.j.j.j.j.j.j.j.j.j.j.j.j.j.T 6.j.j.'.=.# X.q.S.j.j.j.j.j.j.2 = [ (.j.j.j.j.j.c.p.j.j.j.j.j",
".j.j.j.j.j.j.j.j.j.j.j.j.j.j.j.j.j.j.j.j.j.j.T 6.j.j.'.= E.Y j.j.j.j.j.j.j.j.2 W.j.j.j.j.j.j.j @. .j.j.j.j.j",
".j.j.j.j.j.j.j.j.j.j.j.j.j.j.j.j.j.j.j.j.j.j.T 6.j.j.'.=.j.T.i n.j.j.j.j.j.j K V B.j.j.j.j.j.j y S.j.j.j.j.j",
".j.j.j.j.j.j.j.j.j.j.j.j.j.j.j.j.j.j.j.j.j.j.T 6.j.j.8.=.j.j...p.j.j.j.j.j.j.j Q.1.j.j.j.j.j }.+.j.j.j.j.j.j",
".j.j.j.j.j.j.j.j.j.j.j.j.j.j.j.j.j.j.j.j.j.j.T 6.j.j.t F.j.j.C.p.w M.j.j.j.j.j Q.1.j.j.j.j.] -.j.j.j.j.j.j.j",
".j.j.j.j.j.j.j.j.j.j.j.j.j.j.j.j.j.j.j.j.j.j.T 6.j.j.X.j.j.j.j l 6.T.j.j.j Z.{ Q.1.j.j.j.j | #.j.j.j.j.j.j.j",
".j.j.j.j.j.j.j.j.j.j.j.j.j.j.j.j.j.j.j.j.j.j.T 6.j.F h.j.j.j.j.j.j.j.j.j.j U 8 T.P.H.j.j.K 3.B.j.j.j.j.j.j.j",
".j.j.j.j.j.j.j.j.j.j.j.j.j.j.j.j.j.j.j.j.j.j.T 6.j q.*.j.j.j.j.j.j.j.j.j.j ;.'.j 9 I.j.j.y.M.j.j.j.j.j.j.j.j",
".j.j.j.j.j.j.j.j.j.j.j.j.j.j.j.j.j.j.j.j.j.j.T 6.j.C z.j.j.j.j R.j.j.j.j.j.4.j.j = H.j.C e n.j.j.j.j.j.j.j.j",
".j.j.j.j.j.j.j.j.j.j.j.j.j.j.j.j.j.j.j.j.j.j.T 6.j.j.j.j.j.j ! 2.j.j.j.j.j.j.j.j.j.j.j.{ *.j.j.j.j.j.j.j.j.j",
".j.j.j.j.j.j.j.j.j.j.j.j.j.j.j.j.j.j.j.j.j.j.T 6.j.j.j.j.j.&.<.c.j.j.j.j.j.j.j.j.j V.K.{ *.j.j.j.j.j.j.j.j.j",
".j.j.j.j.j.j.j.j.j.j.j.j.j.j.j.j.j.j.j.j.j.j.T 6.j.j.j.j.j.j.j.j.j.j.j.j.|.I.j.j.j.3.W.5.T.j.j.j.j.j.j.j.j.j",
".j.j.j.j.j.j.j.j.j.j.j.j.j.j.j.j.j.j.j.j.j.j s.z.j.j.j.j.j.j.j.j.j.j.j G.Y T.j.j 7 T.j f.j.j.j.j.j.j.j.j.j.j",
".j.j.j.j.j.j.j.j.j.j.j.j.j.j.j.j.j.j.j.j.j.j f.j.j.j.j.j.j.j.j.j.j.j.j 9.0.j.j.K.3 M.l.s.j.j.j.j.j.j.j.j.j.j",
".j.j.j.j.j.j.j.j.j.j.j.j.j.j.j.j.j.j.j.j.j.W.3.j.j.j.j.j.j.j.j.j.j.j.j.=.j.j.j Q.1.j r.A.j.j.j.j.j.j.j.j.j.j",
".j.j.j.j.j.j.j.j.j.j.j.j.j.j.j.j.j.j.j.j.j <./.j.j.j.j.j.j.j.j.j.j.j.j.j.j.j.j.6.U.j r.A.j.j.j.j.j.j.j.j.j.j",
".j.j.j.j.j.j.j.j.j.j.j.j.j.j.j.j.j.j.j.j M.3.K.j.Z !.j.j.j.j.j.j.j.j.j.j.j.j ~.,.j.j r.A.j.j.j.j.j.j.j.j.j.j",
".j.j.j.j.j.j.j.j.j.j.j.j.j.j.j.j.j.j.j.j.H.9.j.j ~.,.j.j.j.j.j.j.j.j.j.j.j z 4 R.j.j r.A.j.j.j.j.j.j.j.j.j.j",
".j.j.j.j.j.j.j.j.j.j.j.j.j.j.j.j.j.j.j.j.O |.j.j ~.,.j.j.j.j.j.j.j.j.j.j.j U 8.j.j.j r.A.j.j.j.j.j.j.j.j.j.j",
".j.j.j.j.j.j.j.j.j.j.j.j.j.j.j.j.j.j.j.X.X.j.j Z.e H.j.j.j.j.j.j.j.j.j.j.j U 8.j.j.Q 1 c.j.j.j.j.j.j.j.j.j.j",
".j.j.j.j.j.j.j.j.j.j.j.j.j.j.j.j.j.j.b.4 P.j.j.{.=.j.j.j.j.j.j.j.j.j.j.j.j U 8.j.j._.;.j.j.j.j.j.j.j.j.j.j.j",
".j.j.j.j.j.j.j.j.j.j.j.j.j.j.j.j.j.j.0 H.j.j.j.j.j.j.j.j.j.j.j.j.j.j.j.j.j.`.-.j.j._.;.j.j.j.j.j.j.j.j.j.j.j",
".j.j.j.j.j.j.j.j.j.j.j.j.j.j.j.j.j./ <.j.j.j.j.j.j.j.j.j.j.j.j.j.j.j.j.j.j f.j.j.j._.;.j.j.j.j.j.j.j.j.j.j.j",
".j.j.j.j.j.j.j.j.j.j.j.j.j.j.j.j E < n.j.j.F M.j.j.j.j.j.j.j.j.j.j.j.j.j.j.A.j.j.j._.;.j.j.j.j.j.j.j.j.j.j.j",
".j.j.j.j.j.j.j.j.j.j.j.j.j.j.j.~.<.j.j.j.C.5.A.j.j.j.j.j.j.j.j.j.j.j.j.j.j.j.j.j.j._.;.j.j.j.j.j.j.j.j.j.j.j",
".j.j.j.j.j.j.j.j.j.j.j.j.j.j.W., b.j.j J.Q.9.j.j.j.j.j.j.j.j.j.j.j.j.j.j.j.j.j.j.j._.;.j.j.j.j.j.j.j.j.j.j.j",
".j.j.j.j.j.j.j.j.j.j.j.j.j.j.a.z.j.j M 8 0.).j.j.j.j.j.j.j.j.j.j.j.j.] R.j.j.j.j.j._.;.j.j.j.j.j.j.j.j.j.j.j",
".j.j.j.j.j.j.j.j.j.j.j.j.j &.}.j.l |.6 R.v.j.j.j.j.j.j.j.j.j.j.j.j.z., Q.j.j.j.j.j.O |.j.j.j.j.j.j.j.j.j.j.j",
".j.j.j.j.j.j.j.j.j.j.j E.s.}.j.j b.V H ;.<.j.j.j.j.j.j.j.j.j.j.j.j B.t.j.j.j.j.j.j f.j.j.j.j.j.j.j.j.j.j.j.j",
".j.j.j.j.j.j.j.j.j.j ~.i.}.j.j.j.j l Z.r.j.j.j.j.j.j.j.j.j.j.j.j.j B.t.j.j.j.j.j.j f.j.j.j.j.j.j.j.j.j.j.j.j",
".j.j.j.j.j.j.j.j c r 1.b.j.j.c.-.j.z.,.!.j.j.j.j.j.j.j.j.j.j.j.j.j.< !.j.j.j.j.j c.p.j.j.j.j.j.j.j.j.j.j.j.j",
".j.j.j.j.j.j.j.j.6.U.j.j.j.H 0.l z.u [.j.j.j.j.j.j.j.j.j.j.j.j.j U.6.j.j.j.j.j.j 9 I.j.j.j.j.j.j.j.j.j.j.j.j",
".j.j.j.j.j.j n.Q < n.j.j.M.N.o.j 6.g S.j.j.j.j.j.j.j.j.j.j.j.j.j.# ].j.j.j.j.j.z.7.K.j.j.j.j.j.j.j.j.j.j.j.j",
".j.j.j.j.j.B 5 3.j.j.j J A :.j.= 7.j.j.j.j.j.j.j.j.j.j.j.j.j.j z d.j.j.j.j.j.j Q.1.j.j.j.j.j.j.j.j.j.j.j.j.j",
".j.j.j.j.j.L.8.j.j.j Z.n.3.M P f S.j.j.j.j.j.j.j.j.j.j.j.j.j.j.5 T.j.j.j.j.j.j.'.=.j.j.j.j.j.j.j.j.j.j.j.j.j",
".j.j.j.j.j.@X .j.j.j } =.jX..k.l.j.j.j.j.j.j.j.j.j.j.j.j.j.j.j f.j.j.j.j.j.j ).-.j.j.j.j.j.j.j.j.j.j.j.j.j.j",
".j.j.j z.@.}.j.j F.c.j.j.j.B Z.j.j.j.j.j.j.j.j.j.j.j.j.j.j.j B i E E E E E w.-.b.j.j.j.j.j.j.j.j.j.j.j.j.j.j",
".j.j.j F.w.j.j.A.4 Z.j.j.j.j.j.j.j.j.j.j.j.j.j.j.j.j.j.j.j.j...g L.3.3.3.3.F.j.j.j.j.j.j.j.j.j.j.j.j.j.j.j.j",
".j.j.j.w F.j H.v.$.j.j.j.j.j.j.j.j.j.j.j.j.j.j.j.j.j.j.j.j.j.> :.S.j.j.j.j.j.j.j.j.j.j.j.j.j.j.j.j.j.j.j.j.j",
".j.j.) >.j.j 2.1.j.j.j.j.j.j.j.j.j.j.j.j.j.j.j.j.j.j.j.j.j.j.D R.j.j.j.j.j.j.j.j.j.j.j.j.j.j.j.j.j.j.j.j.j.j",
".j z.: ^.j.] * c.j.j.j.j.j.j.j.j.j.j.j.j.j.j.m , f f f f.J f.A.j.j.j.j.j.j.j.j.j.j.j.j.j.j.j.j.j.j.j.j.j.j.j",
".j M p.j ' =.j.j.j.j.j.j.j.j.j.j.j.j.j.j.j ] r.(.j.j.j.j.}.j.j.j.j.j.j.j.j.j.j.j.j.j.j.j.j.j.j.j.j.j.j.j.j.j",
".j M p.B.% z.j.j.j.j.j.j.j.j.j.j.j.j.j.K.X.# B.j.j.j.j.j.j.j.j.j.j.j.j.j.j.j.j.j.j.j.j.j.j.j.j.j.j.j.j.j.j.j",
".j M.E W.j.j.j.j.j.j.j t s s s s s s s.7.X.j.j.j.j.j.j.j.j.j.j.j.j.j.j.j.j.j.j.j.j.j.j.j.j.j.j.j.j.j.j.j.j.j",
".j.j.|.Y O S.j ] O.y f F c c c c c c c z.j.j.j.j.j.j.j.j.j.j.j.j.j.j.j.j.j.j.j.j.j.j.j.j.j.j.j.j.j.j.j.j.j.j",
".j.j.j _.u N h.P.X.M.j.j.j.j.j.j.j.j.j.j.j.j.j.j.j.j.j.j.j.j.j.j.j.j.j.j.j.j.j.j.j.j.j.j.j.j.j.j.j.j.j.j.j.j"
};
