/* XPM */
static char *spook-r[] = {
/* width height ncolors chars_per_pixel */
"49 64 185 2",
/* colors */
"   c #000000",
" . c #B1B1B1",
" X c #AFAFAF",
" o c #ABABAB",
" O c #A7A7A7",
" + c #A5A5A5",
" @ c #A3A3A3",
" # c #A1A1A1",
" $ c #9F9F9F",
" % c #9D9D9D",
" & c #9B9B9B",
" * c #999999",
" = c #959595",
" - c #939393",
" ; c #919191",
" : c #8F8F8F",
" > c #8D8D8D",
" , c #8B8B8B",
" < c #898989",
" 1 c #878787",
" 2 c #858585",
" 3 c #838383",
" 4 c #818181",
" 5 c #7F7F7F",
" 6 c #7D7D7D",
" 7 c #7B7B7B",
" 8 c #797979",
" 9 c #777777",
" 0 c #757575",
" q c #737373",
" w c #717171",
" e c #6D6D6D",
" r c #6B6B6B",
" t c #636363",
" y c #616161",
" u c #5F5F5F",
" i c #5D5D5D",
" p c #595959",
" a c #575757",
" s c #555555",
" d c #535353",
" f c #515151",
" g c #4F4F4F",
" h c #4D4D4D",
" j c #FEFEFE",
" k c #4B4B4B",
" l c #FCFCFC",
" z c #FAFAFA",
" x c #474747",
" c c #F8F8F8",
" v c #454545",
" b c #F6F6F6",
" n c #434343",
" m c #F4F4F4",
" M c #F2F2F2",
" N c #3F3F3F",
" B c #F0F0F0",
" V c #EEEEEE",
" C c #3B3B3B",
" Z c #ECECEC",
" A c #EAEAEA",
" S c #E8E8E8",
" D c #353535",
" F c #E6E6E6",
" G c #333333",
" H c #E4E4E4",
" J c #E2E2E2",
" K c #2F2F2F",
" L c #E0E0E0",
" P c #DEDEDE",
" I c #DCDCDC",
" U c #292929",
" Y c #DADADA",
" T c #D8D8D8",
" R c #D6D6D6",
" E c #D4D4D4",
" W c #D2D2D2",
" Q c #D0D0D0",
" ! c #CECECE",
" ~ c #CACACA",
" ^ c #C8C8C8",
" / c #C6C6C6",
" ( c #131313",
" ) c #C4C4C4",
" _ c #C2C2C2",
" ` c #C0C0C0",
" ' c #BEBEBE",
" ] c #BABABA",
" [ c #B8B8B8",
" { c #B6B6B6",
" } c #B4B4B4",
" | c #B0B0B0",
".  c #AEAEAE",
".. c #ACACAC",
".X c #AAAAAA",
".o c #A8A8A8",
".O c #A6A6A6",
".+ c #A4A4A4",
".@ c #A2A2A2",
".# c #A0A0A0",
".$ c #9E9E9E",
".% c #9A9A9A",
".& c #989898",
".* c #969696",
".= c #949494",
".- c #929292",
".; c #8E8E8E",
".: c #8C8C8C",
".> c #8A8A8A",
"., c #868686",
".< c #848484",
".1 c #828282",
".2 c #808080",
".3 c #7E7E7E",
".4 c #7C7C7C",
".5 c #787878",
".6 c #767676",
".7 c #747474",
".8 c #707070",
".9 c #6E6E6E",
".0 c #6C6C6C",
".q c #686868",
".w c #666666",
".e c #646464",
".r c #626262",
".t c #5E5E5E",
".y c #5C5C5C",
".u c #585858",
".i c #565656",
".p c #545454",
".a c #525252",
".s c #FFFFFF",
".d c #4C4C4C",
".f c #FDFDFD",
".g c #FBFBFB",
".h c #484848",
".j c #F9F9F9",
".k c #F7F7F7",
".l c #444444",
".z c #F5F5F5",
".x c #424242",
".c c #F3F3F3",
".v c #404040",
".b c #F1F1F1",
".n c #3E3E3E",
".m c #EFEFEF",
".M c #EDEDED",
".N c #EBEBEB",
".B c #E9E9E9",
".V c #363636",
".C c #E7E7E7",
".Z c #E5E5E5",
".A c #323232",
".S c #E3E3E3",
".D c #E1E1E1",
".F c #2E2E2E",
".G c #DFDFDF",
".H c #2C2C2C",
".J c #DDDDDD",
".K c #2A2A2A",
".L c #DBDBDB",
".P c #282828",
".I c #D9D9D9",
".U c #262626",
".Y c #D7D7D7",
".T c #242424",
".R c #D5D5D5",
".E c #222222",
".W c #D3D3D3",
".Q c #202020",
".! c #1E1E1E",
".~ c #CFCFCF",
".^ c #CDCDCD",
"./ c #CBCBCB",
".( c #C9C9C9",
".) c #C7C7C7",
"._ c #141414",
".` c #C5C5C5",
".' c #C3C3C3",
".] c #C1C1C1",
".[ c #BFBFBF",
".{ c #BDBDBD",
".} c #BBBBBB",
".| c #B9B9B9",
"X  c #B7B7B7",
/* pixels */
".s.s.s.s.s.s.s.s.s.s.s.s.s.s.s.s.s.s.s.s.s.s.s.s.s.s.s.s.s.s.s.s.s.s.s.s.s.s.s.s.s.s.s.s.s.s.R s.b",
".s.s.s.s.s.s.s.s.s.s.s.s.s.s.s.s.s.s.s.s.s.s.s.s.s.s.s.s.s.s.s.s.s.s.s.s.s.s.s.s.s.s.s.s.s.s.R  .Y",
".s.s.s.s.s.s.s.s.s.s.s.s.s.s.s.s.s.s.s.s.s.s.s.s.s.s.s.s.s.s.s.s.s.s.s.s.s.s.s.s.s.s.s.s.s.s.o.F.Y",
".s.s.s.s.s.s.s.s.s.s.s.s.s.s.s.s.s.s.s.s.s.s.s.s.s.s.s.s.s.s.s.s.s.s.s.s.s.s.s.s.s.s.s.s.s.s a.I.y",
".s.s.s.s.s.s.s.s.s.s.s.s.s.s.s.s.s.s.s.s.s.s.s.s.s.s.s.s.s.s.s.s.s.s.s.s.s.s.s.s.s.s.s.s.s.s a.s.P",
".s.s.s.s.s.s.s.s.s.s.s.s.s.s.s.s.s.s.s.s.s.s.s.s.s.s.s.s.s.s.s.s.s.s.s.s.s.s.s.s.s.s.s.s.s.s a.s.P",
".s.s.s.s.s.s.s.s.s.s.s.s.s.s.s.s.s.s.s.s.s.s.s.s.s.s.s.s.s.s.s.s.s.s.s.s.s.s.s.s.s.s.s.s.s.^ <.s.P",
".s.s.s.s.s.s.s.s.s.s.s.s.s.s.s.s.s.s.s.s.s.s.s.s.s.s.s.s.s.s.s c.5 a.i 4.j.s.s.s.s.s.s.s.s.< W.s.P",
".s.s.s.s.s.s.s.s.s.s.s.s.s.s.s.s.s.s.s.s.s.s.s.s.s.s.{ z.s.s.s.r k.s.j n.8.s.s.s.s.s.s.s B.2.Z.s.P",
".s.s.s.s.s.s.s.s.s.s.s.s.s.s.s.s.s.s.s.s.s.s.s.s.s.[.A.7.s.s.M n Z.s.s S.d.>.s.s.s.s.s.s.6 L.s.s.P",
".s.s.s.s.s.s.s.s.s.s.s.s.s.s.s.s.s.s.s.s.s.s.s.s.}.%.s a.s.s.u #.f > ;.s B.w.s.s.s.s.s ~ ,.s.s.s.P",
".s.s.s.s.s.s.s.s.s.s.s.s.s.s.s.s.s.s.s.s.s.s.s.k.9 B.s a.s.s.u j 9 f D n N U./.s.s.s.g 1.W.s.s.s.P",
".s.s.s.s.s.s.s.s.s.s.s.s.s.s.s.s.s.s.s.s.s.s.s.; ^.s.s a.s.s.u j s a g G D *.{.s.s.s ;.6 |.s.s.s.P",
".s.s.s.s.s.s.s.s.s.s.s.s.s.s.s.s.s.s.s.s.s.s A.0.s.s.s a.s '.&.s P ! V.;.U.H /.s.s.m y E g.s.s.s.P",
".s.s.s.s.s.s.s.s.s.s.s.s.s.s.s.s.s.s.s.s.s.s e S.s.s.s a.s X O.s.s.s.s.s B.w.s.s.s :.) <.6.s.s.s.P",
".s.s.s.s.s.s.s.s.s.s.s.s.s.s.s.s.s.s.s.s.s ! ,.g.s.s.Z w.s X O.s.s.s.s.s B.w.s.s A.6.z.N b.s.s.B v",
".s.s.s.s.s.s.s.s.s.s.s.s.s.s.s.s.s.s.s.s.s ).-.s.s.s t.c.s.1 E.s.s.s.s.s B.A.J ^.3.|.s.s.s.s.s 5.Y",
".s.s.s.s.s.s.s.s.s.s.s.s.s.s.s.s.s.s.s.s.s.q V.s.s w.2 R.D 0.s.s.s.s.s.s B ( h x }.s.s.s.s.s I.2.j",
".s.s.s.s.s.s.s.s.s.s.s.s.s.s.s.s.s.s.s.s.s a.s.s.s a.s K.H.j.s.s.s.s.s.s B.w.s.s.s.s.s.s.s.s.-.'.s",
".s.s.s.s.s.s.s.s.s.s.s.s.s.s.s.s.s.s.s.s.s a.s.s.s a.s. ._.j.s.s.s.s.s.s.c.,.s.s.s.s.s.s.s.Z w.s.s",
".s.s.s.s.s.s.s.s.s.s.s.s.s.s.s.s.s.s.s.s.s a.s.s.s a.s.s {.#.s.s.s.s.s.s.s.s @.s.s.s.s.s.s.< W.s.s",
".s.s.s.s.s.s.s.s.s.s.s.s.s.s.s.s.s.s.s.s.s a.s.s 8.9.s.s.s.V.>.s.s.s.s.s.s.s a.s.s.s.s.s ` & z.s.s",
".s.s.s.s.s.s.s.s.s.s.s.s.s.s.s.s.s.s.s.s.s a.s.s ' c.s.s.s.J.A.$.s.s.s.s.s.s a.s.s.s.s.s a.s.s.s.s",
".s.s.s.s.s.s.s.s.s.s.s.s.s.s.s.s.s.s.s.s.s a.s.s.6.m.s.s.s.s B B.s.s.s.s.w.s.a Y.s.s.s.D.7.s.s.s.s",
".s.s.s.s.s.s.s.s.s.s.s.s.s.s.s.s.s.s.s.s.s a.s.I.K V.s.s.s.s.s.s.s.s.s.s a.s.O r.s.s.M.3 A.s.s.s.s",
".s.s.s.s.s.s.s.s.s.s.s.s.s.s.s.s.s.s.s.s.s a.s Q.X j.s.s.s.s.s.s.s.s.s + ..s.N r.s.s L.6.s.s.s.s.s",
".s.s.s.s.s.s.s.s.s.s.s.s.s.s.s.s.s.s.s.s.s a.s.s.s.s.s.s.s !.(.s.s.s.s Y.S.s.k /.s.s.: ~.s.s.s.s.s",
".s.s.s.s.s.s.s.s.s.s.s.s.s.s.s.s.s.s.s.s.s a.s.s.s.s.s.B }.>.g.s.s.s.s.s.s.s.s.s.s.s a.s.s.s.s.s.s",
".s.s.s.s.s.s.s.s.s.s.s.s.s.s.s.s.s.s.s.s.s a.s.s.s.s.s H.@.f.s.s.s.s.s.s.s.s.s.s.=.s a.s.s.s.s.s.s",
".s.s.s.s.s.s.s.s.s.s.s.s.s.s.s.s.s.s.s.s.W 3.s.s.s.s.s.s.s.s.s.s.s.s.].e.s.s.j.>.W ;.`.s.s.s.s.s.s",
".s.s.s.s.s.s.s.s.s.s.s.s.s.s.s.s.s.s.s.s q.S.s.s.s.s.s.s.s.s.s.s.s.s d ^.s.s.N r.s :.).s.s.s.s.s.s",
".s.s.s.s.s.s.s.s.s.s.s.s.s.s.s.s.s.s.s.s q.S.s.s.s.s.s.s.s.s.s.s.s.+ n.s.s.s a j b.< Y.s.s.s.s.s.s",
".s.s.s.s.s.s.s.s.s.s.s.s.s.s.s.s.s.s.s.L.< b.s.s.s.s.s.s.s.s.s.s.s.D F.s.s.f.u.s.Z.8.s.s.s.s.s.s.s",
".s.s.s.s.s.s.s.s.s.s.s.s.s.s.s.s.s.s.s.(.:.s.s.s.s.s.s.s.s.s.s.s.s.s.s.s.s *.{.s.Z.8.s.s.s.s.s.s.s",
".s.s.s.s.s.s.s.s.s.s.s.s.s.s.s.s.s.s.s 8 I.s.s.>.s.s.s.s.s.s.s.s.s.s.s.s.z 0.N.s.Z.8.s.s.s.s.s.s.s",
".s.s.s.s.s.s.s.s.s.s.s.s.s.s.s.s.s.s.s a.s.s.s a.s.s.s.s.s.s.s.s.s.s.s.s { $.s.s.Z.8.s.s.s.s.s.s.s",
".s.s.s.s.s.s.s.s.s.s.s.s.s.s.s.s.s l $ ].s.s b u.s.s.s.s.s.s.s.s.s.s.s.s a.s.s.s.J 8.s.s.s.s.s.s.s",
".s.s.s.s.s.s.s.s.s.s.s.s.s.s.s.s.s.~ 1.s.s.C.x S.s.s.s.s.s.s.s.s.s.s.s.s a.s.s.s a.s.s.s.s.s.s.s.s",
".s.s.s.s.s.s.s.s.s.s.s.s.s.s.s.s.z 4 L.s.s B.{.j.s.s.s.s.s.s.s.s.s.s.s.s a.s.s.s a.s.s.s.s.s.s.s.s",
".s.s.s.s.s.s.s.s.s.s.s.s.s.s.s.s 6 T.s.s.s.s.s.s.s.s.s.s.s.s.s.s.s.s.s.Y 5.s.s.s a.s.s.s.s.s.s.s.s",
".s.s.s.s.s.s.s.s.s.s.s.s.s.s.s W > b.s.s.s.s.s.s.s.s.s.s.s.s.s.s.s.s.s.o '.s.s.s a.s.s.s.s.s.s.s.s",
".s.s.s.s.s.s.s.s.s.s.s.s.s.s ^ >.s.s.s.C.^.s.s.s.s.s.s.s.s.s.s.s.s.s.s.s.s.s.s.s a.s.s.s.s.s.s.s.s",
".s.s.s.s.s.s.s.s.s.s.s.s.s W.;.z.s.s.s.8 F.s.s.s.s.s.s.s.s.s.s.s.s.s.s.s.s.s.s.s a.s.s.s.s.s.s.s.s",
".s.s.s.s.s.s.s.s.s.s.s.s ^.;.s.s.s.B.) a.s.s.s.s.s.s.s.s.s.s.s.s.s.s.s.s.s.s.s.s a.s.s.s.s.s.s.s.s",
".s.s.s.s.s.s.s.s.s.s.s z.,.R.s.s.M 4 7.'.s.s.s.s.s.s.s.s.s.s.s.s l 7.s.s.s.s.s.s a.s.s.s.s.s.s.s.s",
".s.s.s.s.s.s.s.s.s.s.s %.|.s.s * 5 E.n P.s.s.s.s.s.s.s.s.s.s.s.s...X.s.s.s.s.s./.>.s.s.s.s.s.s.s.s",
".s.s.s.s.s.s.s.s.s.^.v.{.s.s.s r.B.} 3.j.s.s.s.s.s.s.s.s.s.s.s.s a.s.s.s.s.s.s.= _.s.s.s.s.s.s.s.s",
".s.s.s.s.s.s.s.s.(.2.|.s.s.s.s.s.s a.s.s.s.s.s.s.s.s.s.s.s.s.s.s a.s.s.s.s.s.s.= _.s.s.s.s.s.s.s.s",
".s.s.s.s.s.s Z.6 > b.s.s.B 1.s.k.-./.s.s.s.s.s.s.s.s.s.s.s.s.sX  $.s.s.s.s.s.g.:.^.s.s.s.s.s.s.s.s",
".s.s.s.s.s.s.& '.s.s.s V 5 S.s.4.1.s.s.s.s.s.s.s.s.s.s.s.s.s.s.3 T.s.s.s.s.s.N r.s.s.s.s.s.s.s.s.s",
".s.s.s.s.N ) > b.s.s S.h -.s - h V.s.s.s.s.s.s.s.s.s.s.s.s.s.J 8.s.s.s.s.s.s.^ <.s.s.s.s.s.s.s.s.s",
".s.s.s.j 6.-.s.s.s B.v.4.s : 5.N.s.s.s.s.s.s.s.s.s.s.s.s.s.s.u j.s.s.s.s.s.s a.s.s.s.s.s.s.s.s.s.s",
".s.s.s m y.s.s.s F.h 2.b.`.9 B.s.s.s.s.s.s.s.s.s.s.s.s.s.s [.$.s.s.s.s.s.s S.9.s.s.s.s.s.s.s.s.s.s",
".s.s.s &.}.s.s.s Q %.s.G.l A.s.s.s.s.s.s.s.s.s.s.s.s.s.s.s X O.s.s.s.s.s.k.4 J.s.s.s.s.s.s.s.s.s.s",
".s j.%.{.s.s F.m.s.s.s l M.s.s.s.s.s.s.s.s.s.s.s.s.s.s.s.s *.= ` ` ` `.& u.b.s.s.s.s.s.s.s.s.s.s.s",
".s z.y.s.s b 7 H.s.s.s.s.s.s.s.s.s.s.s.s.s.s.s.s.s.s.s.s.s.P.T =.*.*.* '.s.s.s.s.s.s.s.s.s.s.s.s.s",
".s.r m.s.Z.l :.s.s.s.s.s.s.s.s.s.s.s.s.s.s.s.s.s.s.s.s.s E g.M.s.s.s.s.s.s.s.s.s.s.s.s.s.s.s.s.s.s",
" ~.:.s.s.$.6.s.s.s.s.s.s.s.s.s.s.s.s.s.s.s.s.s.s.s.s.s.s iX .s.s.s.s.s.s.s.s.s.s.s.s.s.s.s.s.s.s.s",
" ;.`.s.).-.g.s.s.s.s.s.s.s.s.s.s.s.s.s.s.s O a a a a.K.p.|.s.s.s.s.s.s.s.s.s.s.s.s.s.s.s.s.s.s.s.s",
" a.s.` ;.s.s.s.s.s.s.s.s.s.s.s.s.s.s.s.J.t X.s.s.s.s.`.g.s.s.s.s.s.s.s.s.s.s.s.s.s.s.s.s.s.s.s.s.s",
" a.g ;.f.s.s.s.s.s.s.s.s.s.s.s.s.s B |.<.k j.s.s.s.s.s.s.s.s.s.s.s.s.s.s.s.s.s.s.s.s.s.s.s.s.s.s.s",
".! ~.s.s.s.s.s.s.s.2 p p p p p p p.q.O.c.s.s.s.s.s.s.s.s.s.s.s.s.s.s.s.s.s.s.s.s.s.s.s.s.s.s.s.s.s",
" ).Q.X F.s _.X.0 a R.f.f.f.f.f.f.f.f.s.s.s.s.s.s.s.s.s.s.s.s.s.s.s.s.s.s.s.s.s.s.s.s.s.s.s.s.s.s.s",
".s / e C.p.E o.B.s.s.s.s.s.s.s.s.s.s.s.s.s.s.s.s.s.s.s.s.s.s.s.s.s.s.s.s.s.s.s.s.s.s.s.s.s.s.s.s.s"
};
