/* XPM */
static char *noname[] = {
/* width height ncolors chars_per_pixel */
"64 64 7 1",
/* colors */
"  c #000000",
". c #FEFEFE",
"X c #FCFCFC",
"o c #010101",
"O c #FFFFFF",
"+ c #FDFDFD",
"@ c #020202",
/* pixels */
"OOOOOOOOOOOOOOOOOOOOOOOOOOOOOOOOOOOOOOOOOOOOOOOOOOOOOOOOOOOOOOOO",
"OOOOOOOOOOOOOOOOOOOOOOOOOOOOOOOOOOOOOOOOOOOOOOOOOOOOOOOOOOOOOOOO",
"OOOOOOOOOOOOOOOOOOOOOOOOOOOOOOOOOOOOOOOOOOOOOOOOOOOOOOOOOOOOOOOO",
"OOOOOOOOOOOOOOOOOOOOOOOOOOOOOOOOOOOOOOOOOOOOOOOOOOOOOOOOOOOOOOOO",
"OOOOOOOOOOOOOOOOOOOOOOOOOOOOOOOOOOOOOOOOOOOOOOOOOOOOOOOOOOOOOOOO",
"OOOOOOOOOOOOOOOOOOOOOOOOOOOOOOOOOOOOOOOOOOOOOOOOOOOOOOOOOOOOOOOO",
"OOOOOOOOOOOOOOOOOOOOOOOOOOOOOOOOOOOOOOOOOOOOOOOOOOOOOOOOOOOOOOOO",
"OOOOOOOOOOOOOOOOOOOOOOOOOOOOOOOOOOOOOOOOOOOOOOOOOOOOOOOOOOOOOOOO",
"OOOOOOOOOOOOOOOOOOOOOOOOOOOOOOOO O. .O O O  O.OOOOOOOOOOOOOOOOOO",
"OOOOOOOOOOOOOOOOOOOOOOOOOOOOOOOOOOOOOOO.O.OO.OOOOOOOOOOOOOOOOOOO",
"OOOOOOOOOOOOOOOOOOOOOOOOOOOOOOOOOXOOOO.OOO.OOXO.OOOOOOOOOOOOOOOO",
"OOOOOOOOOOOOOOOOOOOOOOOOOOOOOOOO.OOO.OOOOOOO.OOOOOOOOOOOOOOOOOOO",
"OOOOOOOOOOOOOOOOOOOOOOOOOOOOOOOOOO+..OO..OOO.O+.OOOOOOOOOOOOOOOO",
"OOOOOOOOOOOOOOOOOOOOOOOOOOOOOOOOOOOOOO.OOO.OOOOOOOOOOOOOOOOOOOOO",
"OOOOOOOOOOOOOOOOOOOOOOOOOOOOOOOOO.OOO.O.OOOOO.OOOOOOOOOOOOOOOOOO",
"OOOOOOOOOOOOOOOOOOOOOOOOOOOOOOOO.OOOOOOOOO..OO.OOOOOOOOOOOOOOOOO",
"OOOOOOOOOOOOOOOOOOOOOOOOOOOOOOOOOOOOOOOOOOOOOOOOOOOOOOOOOOOOOOOO",
"OOOOOOOOOOOOOOOOOOOOOOOOOOOOOOOOOOOOOOOOOOOOOOOOOOOOOOOOOOOOOOOO",
"OOOOOOOOOOOOOOOOOOOOOOOOOOOOOOOOOOOOOOOOOOOOOOOOOOOOOOOOOOOOOOOO",
"OOOOOOOOOOOOOOOOOOOOOOOOOOOOOOOOOOOOOOOOOOOOOOOOOOOOOOOOOOOOOOOO",
"OOOOOOOOOOOOOOOOOOOOOOOOOOOOOOOOOOOOOOOOOOOOOOOOOOOOOOOOOOOOOOOO",
"OOOOOOOOOOOOOOOOOOOOOOOOOOOOOOOOOOOOOOOOOOOOOOOOOOOOOOOOOOOOOOOO",
"OOOOOOOOOOOOOOOOOOOOOOOOOOOOOOOOOOOOOOOOOOOOOOOOOOOOOOOOOOOOOOOO",
"OOOOOOOOOOOOOOOOOOOOOOOOOOOOOOOOOOOOOOOOOOOOOOOOOOOOOOOOOOOOOOOO",
"OOOOOOOOOOOOOOOOOOOOOOOO.OOOOOOOOO. OOOO.OOOOO.OO.OOOOOOOOOOOOOO",
"OOOOOOOOOOOOOOOOOOOOOOOOO.O.O..OO.OO+OOOOO.OOOOOOO.O...OOOOOOOOO",
"OOOOOOOOOOOOOOOOOOOOOOOOOO.OOOO+.O.OOOOO.O OO+O.OO.OOOOOOOOOOOOO",
"OOOOOOOOOOOOOOOOOOOOOOOOOOO.O+OOOOOOO.O.OO OOO.OO.OOOO+OOOOOOOOO",
"OOOOOOOOOOOOOOOOOOOOOOOOOO.O.OOO.OO..O.OOO OO.OOOO.O.OO.OOOOOOOO",
"OOOOOOOOOOOOOOOOOOOOOOOOOOO.OO+OOO OO.O+.O OOOO..OOOO o.OOOOOOOO",
"OOOOOOOOOOOOOOOOOOOOOOOO..OOOOoO O    OOOoO+OO+OO.O.OO.OOOOOOOOO",
"OOOOOOOOOOOOOOOOOOOOOOOOOO..OO+    O    O  O.OOOOO O.OO.OOOOOOOO",
"OOOOOOOOOOOOOOOOO.OOO.OOOOOOOOO  o o  O o.OO.O.OOOOOOO.OOOOOOOOO",
"OOOOOOOOOOOOOOOO+OOO.OOOOOO @. O    O OO+O.OO.OOO.OOOOOOOOOOOOOO",
"OOOOOOOOOOOOOOOOOO.OOOOOO Oo  OO OOOO. OOO.OOO oOOOOO.+OOOOOOOOO",
"OOOOOOOOOOOOOOOOO.OO.OO. .O Oo  O O..O OO.OO.O.OOO .OOO.OOOOOOOO",
"OOOOOOOOOOOOOOOOOOOOOO OOoo.O o.OO.oo OOO.O.O.O.O.OO.OO.OOOOOOOO",
"OOOOOOOOOOOOOOOO.OO OOOO O O O.O    O  .OO.OOO+O.O.OO OOOOOOOOOO",
"OOOOOOOOOOOOOOOOOO O.O OOO..OOO   .o o o..OOO.O.O+OOOO.OOOOOOOOO",
"OOOOOOOOOOOOOOOO  OOO OO OOO.    o  oO  OOOOOOOOOO+O .OOOOOOOOOO",
"OOOOOOOOOO.OOOOOOOOOOO.OO.OOOO O O   o   O.OO.OOOOOOO OOOOOOOOOO",
"OOOOOOOOOOO O+OOOO.O+OOO.oO.OOOo@ o    oO+O.OO.OO. +OOOOOOOOOOOO",
"OOOOOOOOOOOO+OO+OooOOOOOO OOOOO. @OoOo.  OOOO.O. O.OOOO.OOOOOOOO",
"OOOOOOOOOO  O.OOO.OOOOOOOO..OOOO      O  O.+O OOOOO.OOOOOOOOOOOO",
"OOOOOOOOO. o.OOOOO..OO.OO.OOO.OOO.o o.   OOOO.OOOOOo.OOOOOOOOOOO",
"OOOOOOOOOO   .OO.OOOOOOO..OOOOOO.    Ooo o OOOOO.O +OO.OOOOOOOOO",
"OOOOOOOO.OO oo .OOOOOOO.OO+OOO.OOo oo           O  OOXOOOOOOOOOO",
"OOOOOOOOOOOOO @     OO.OO.OOOO o  O.OOOOO.OOOOOOOOOOOOOOOOOOOOOO",
"OOOOOOOOOOOOOOOO  o   @   o o   OOOOOOOOOOOOOOOOOOOOOOOOOOOOOOOO",
"OOOOOOOOOOOOOOOOOOO oo        OOOOOOOOOOOOOOOOOOOOOOOOOOOOOOOOOO",
"OOOOOOOOOOOOOOOOOOO..OOOO.OOOOO.OOOOOOOOOOOOOOOOOOOOOOOOOOOOOOOO",
"OOOOOOOOOOOOOOOOO+OOO.OO.OOO..OOOOOOOOOOOOOOOOOOOOOOOOOOOOOOOOOO",
"OOOOOOOOOOOOOOOOO.OO.O.OOOOOOOOOOOOOOOOOOOOOOOOOOOOOOOOOOOOOOOOO",
"OOOOOOOOOOOOOOOO.O.OOOOOOO.OO.O.OOOOOOOOOOOOOOOOOOOOOOOOOOOOOOOO",
"OOOOOOOOOOOOOOOOOOOOO..OOOOO.O.OOOOOOOOOOOOOOOOOOOOOOOOOOOOOOOOO",
"OOOOOOOOOOOOOOOOO.OOOOOOOOOO.OOOOOOOOOOOOOOOOOOOOOOOOOOOOOOOOOOO",
"OOOOOOOOOOOOOOOOOOOOOOOOOOOOOOOOOOOOOOOOOOOOOOOOOOOOOOOOOOOOOOOO",
"OOOOOOOOOOOOOOOOOOOOOOOOOOOOOOOOOOOOOOOOOOOOOOOOOOOOOOOOOOOOOOOO",
"OOOOOOOOOOOOOOOOOOOOOOOOOOOOOOOOOOOOOOOOOOOOOOOOOOOOOOOOOOOOOOOO",
"OOOOOOOOOOOOOOOOOOOOOOOOOOOOOOOOOOOOOOOOOOOOOOOOOOOOOOOOOOOOOOOO",
"OOOOOOOOOOOOOOOOOOOOOOOOOOOOOOOOOOOOOOOOOOOOOOOOOOOOOOOOOOOOOOOO",
"OOOOOOOOOOOOOOOOOOOOOOOOOOOOOOOOOOOOOOOOOOOOOOOOOOOOOOOOOOOOOOOO",
"OOOOOOOOOOOOOOOOOOOOOOOOOOOOOOOOOOOOOOOOOOOOOOOOOOOOOOOOOOOOOOOO",
"OOOOOOOOOOOOOOOOOOOOOOOOOOOOOOOOOOOOOOOOOOOOOOOOOOOOOOOOOOOOOOOO"
};
