/* XPM */
static char *ster-r[] = {
/* width height ncolors chars_per_pixel */
"64 61 140 2",
/* colors */
"   c #AFAFAF",
" . c #ADADAD",
" X c #ABABAB",
" o c #A7A7A7",
" O c #A5A5A5",
" + c #A1A1A1",
" @ c #9F9F9F",
" # c #9D9D9D",
" $ c #979797",
" % c #959595",
" & c #939393",
" * c #919191",
" = c #8F8F8F",
" - c #8D8D8D",
" ; c #8B8B8B",
" : c #898989",
" > c #878787",
" , c #858585",
" < c #838383",
" 1 c #818181",
" 2 c #7F7F7F",
" 3 c #7D7D7D",
" 4 c #7B7B7B",
" 5 c #777777",
" 6 c #717171",
" 7 c #6F6F6F",
" 8 c #6D6D6D",
" 9 c #6B6B6B",
" 0 c #676767",
" q c #656565",
" w c #636363",
" e c #5F5F5F",
" r c #FEFEFE",
" t c #FCFCFC",
" y c #494949",
" u c #FAFAFA",
" i c #F8F8F8",
" p c #F6F6F6",
" a c #F4F4F4",
" s c #F2F2F2",
" d c #F0F0F0",
" f c #EEEEEE",
" g c #ECECEC",
" h c #EAEAEA",
" j c #E8E8E8",
" k c #E6E6E6",
" l c #E4E4E4",
" z c #E2E2E2",
" x c #DEDEDE",
" c c #DCDCDC",
" v c #DADADA",
" b c #D8D8D8",
" n c #D6D6D6",
" m c #D4D4D4",
" M c #D2D2D2",
" N c #CECECE",
" B c #CCCCCC",
" V c #CACACA",
" C c #C8C8C8",
" Z c #C6C6C6",
" A c #C4C4C4",
" S c #C2C2C2",
" D c #C0C0C0",
" F c #BCBCBC",
" G c #BABABA",
" H c #B8B8B8",
" J c #B4B4B4",
" K c #B2B2B2",
" L c #AEAEAE",
" P c #ACACAC",
" I c #AAAAAA",
" U c #A8A8A8",
" Y c #A6A6A6",
" T c #A4A4A4",
" R c #A0A0A0",
" E c #9E9E9E",
" W c #9C9C9C",
" Q c #9A9A9A",
" ! c #989898",
" ~ c #969696",
" ^ c #949494",
" / c #929292",
" ( c #909090",
" ) c #8E8E8E",
" _ c #8C8C8C",
" ` c #8A8A8A",
" ' c #888888",
" ] c #868686",
" [ c #848484",
" { c #828282",
" } c #808080",
" | c #7E7E7E",
".  c #7C7C7C",
".. c #7A7A7A",
".X c #787878",
".o c #767676",
".O c #747474",
".+ c #727272",
".@ c #6C6C6C",
".# c #646464",
".$ c #5E5E5E",
".% c #5A5A5A",
".& c #585858",
".* c #545454",
".= c #FFFFFF",
".- c #FDFDFD",
".; c #FBFBFB",
".: c #F9F9F9",
".> c #F7F7F7",
"., c #F5F5F5",
".< c #F1F1F1",
".1 c #EFEFEF",
".2 c #EDEDED",
".3 c #EBEBEB",
".4 c #E9E9E9",
".5 c #E7E7E7",
".6 c #E5E5E5",
".7 c #E3E3E3",
".8 c #E1E1E1",
".9 c #DFDFDF",
".0 c #2C2C2C",
".q c #DBDBDB",
".w c #D9D9D9",
".e c #D5D5D5",
".r c #D3D3D3",
".t c #D1D1D1",
".y c #CFCFCF",
".u c #CDCDCD",
".i c #CBCBCB",
".p c #C9C9C9",
".a c #C7C7C7",
".s c #C5C5C5",
".d c #C3C3C3",
".f c #C1C1C1",
".g c #BFBFBF",
".h c #BDBDBD",
".j c #BBBBBB",
".k c #B9B9B9",
".l c #B5B5B5",
".z c #B3B3B3",
/* pixels */
".=.=.=.=.=.=.=.=.=.=.=.=.=.=.=.=.=.=.=.=.=.=.=.=.=.=.=.=.=.=.=.=.%.=.=.=.=.=.=.=.=.=.=.=.=.=.=.=.=.=.=.=.=.=.=.=.=.=.=.=.=.=.=.=",
".=.=.=.=.=.=.=.=.=.=.=.=.=.=.=.=.=.=.=.=.=.=.=.=.=.=.=.=.=.=.=.d = /.=.=.=.=.=.=.=.=.=.=.=.=.=.=.=.=.=.=.=.=.=.=.=.=.=.=.=.=.=.=",
".=.=.=.=.=.=.=.=.=.=.=.=.=.=.=.=.=.=.=.=.=.=.=.=.=.=.=.=.=.=.= I O q.=.=.=.=.=.=.=.=.=.=.=.=.=.=.=.=.=.=.=.=.=.=.=.=.=.=.=.=.=.=",
".=.=.=.=.=.=.=.=.=.=.=.=.=.=.=.=.=.=.=.=.=.=.=.=.=.=.=.=.=.=.= 8 h ) N.=.=.=.=.=.=.=.=.=.=.=.=.=.=.=.=.=.=.=.=.=.=.=.=.=.=.=.=.=",
".=.=.=.=.=.=.=.=.=.=.=.=.=.=.=.=.=.=.=.=.=.=.=.=.=.=.=.=.=.=.z Y.= Q.g.=.=.=.=.=.=.=.=.=.=.=.=.=.=.=.=.=.=.=.=.=.=.=.=.=.=.=.=.=",
".=.=.=.=.=.=.=.=.=.=.=.=.=.=.=.=.=.=.=.=.=.=.=.=.=.=.=.=.=.= e u.= f 9.=.=.=.=.=.=.=.=.=.=.=.=.=.=.=.=.=.=.=.=.=.=.=.=.=.=.=.=.=",
".=.=.=.=.=.=.=.=.=.=.=.=.=.=.=.=.=.=.=.=.=.=.=.=.=.=.=.=.= v {.-.=.=.%.=.=.=.=.=.=.=.=.=.=.=.=.=.=.=.=.=.=.=.=.=.=.=.=.=.=.=.=.=",
".=.=.=.=.=.=.=.=.=.=.=.=.=.=.=.=.=.=.=.=.=.=.=.=.=.=.=.=.=.k R.=.=.= n [.=.=.=.=.=.=.=.=.=.=.=.=.=.=.=.=.=.=.=.=.=.=.=.=.=.=.=.=",
".=.=.=.=.=.=.=.=.=.=.=.=.=.=.=.=.=.=.=.=.=.=.=.=.=.=.=.=.= }.w.=.=.=.6.O.=.=.=.=.=.=.=.=.=.=.=.=.=.=.=.=.=.=.=.=.=.=.=.=.=.=.=.=",
".=.=.=.=.=.=.=.=.=.=.=.=.=.=.=.=.=.=.=.=.=.=.=.=.=.=.=.=.r ].=.=.=.= r :.t.=.=.=.=.=.=.=.=.=.=.=.=.=.=.=.=.=.=.=.=.=.=.=.=.=.=.=",
".=.=.=.=.=.=.=.=.=.=.=.=.=.=.=.=.=.=.=.=.=.=.=.=.=.=.=.= 7 h.=.=.=.=.= _.u.=.=.=.=.=.=.=.=.=.=.=.=.=.=.=.=.=.=.=.=.=.=.=.=.=.=.=",
".=.=.=.=.=.=.=.=.=.=.=.=.=.=.=.=.=.=.=.=.=.=.=.=.=.=.=.3 4 s.=.=.=.=.=.=.%.=.=.=.=.=.=.=.=.=.=.=.=.=.=.=.=.=.=.=.=.=.=.=.=.=.=.=",
".=.=.=.=.=.=.=.=.=.=.=.=.=.=.=.=.=.=.=.=.=.=.=.=.=.=.=.p (.=.=.=.=.=.=.= w p.=.=.=.=.=.=.=.=.=.=.=.=.=.=.=.=.=.=.=.=.=.=.=.=.=.=",
".=.=.=.=.=.=.=.=.=.=.=.=.=.=.=.=.=.=.=.=.=.=.=.=.=.=.= Q D.=.=.=.=.=.=.=.e [.=.=.=.=.=.=.=.=.=.=.=.=.=.=.=.=.=.=.=.=.=.=.=.=.=.=",
".=.=.=.=.=.=.=.=.=.=.=.=.=.=.=.=.=.=.=.=.=.=.=.=.=.=.2.@.=.=.=.=.=.=.=.=.q <.;.=.=.=.=.=.=.=.=.=.=.=.=.=.=.=.=.=.=.=.=.=.=.=.=.=",
".=.=.=.=.=.=.=.=.=.=.=.=.=.=.=.=.=.=.=.=.=.=.=.=.=.= |.q.=.=.=.=.=.=.=.=.= 4 x.=.=.=.=.=.=.=.=.=.=.=.=.=.=.=.=.=.=.=.=.=.=.=.=.=",
".=.=.=.=.=.=.=.=.=.=.=.=.=.=.=.=.=.=.=.=.=.=.=.=.=.> 2 z.=.=.=.=.=.=.=.=.= % A.=.=.=.=.=.=.=.=.=.=.=.=.=.=.=.=.=.=.=.=.=.=.=.=.=",
".=.=.=.=.=.=.=.=.=.=.=.=.=.=.=.=.=.=.=.=.=.=.=.=.=.w 1.=.=.=.=.=.=.=.=.=.=.=.%.=.=.=.=.=.=.=.=.=.=.=.=.=.=.=.=.=.=.=.=.=.=.=.=.=",
".=.=.=.=.=.=.=.=.=.=.=.=.=.=.=.=.=.=.=.=.=.=.=.=.= H +.=.=.=.=.=.=.=.=.=.=.=.o.7.=.=.=.=.=.=.=.=.=.=.=.=.=.=.=.=.=.=.=.=.=.=.=.=",
".=.=.=.=.=.=.=.=.=.=.=.=.=.=.=.=.=.=.=.=.=.=.=.=.=.%.=.=.=.=.=.=.=.=.=.=.=.=.s ^.=.=.=.=.=.=.=.=.=.=.=.=.=.=.=.=.=.=.=.=.=.=.=.=",
" . . . . . . . . . . . . . . . . . . . . . . . ..#.a.=.=.=.=.=.=.=.=.=.=.=.= b > u.=.=.=.=.=.=.=.=.=.=.=.=.=.=.=.=.=.=.=.=.=.=.=",
".+ 5 U P P P P P P P P P P P P P P P P P P P P P P f.=.=.=.=.=.=.=.=.=.=.=.=.= 7.*.%.%.%.%.%.%.%.%.%.%.%.%.%.%.%.%.%.%.%.%.%.&.&",
".= =...4.=.=.=.=.=.=.=.=.=.=.=.=.=.=.=.=.=.=.=.=.=.=.=.=.=.=.=.=.=.=.=.=.=.=.=.=.=.=.=.=.=.=.=.=.=.=.=.=.=.=.=.=.=.=.=.=.= A ;.i",
".=.=.7 { j.;.=.=.=.=.=.=.=.=.=.=.=.=.=.=.=.=.=.=.=.=.=.=.=.=.=.=.=.=.=.=.=.=.=.=.=.=.=.=.=.=.=.=.=.=.=.=.=.=.=.=.=.=.=.= Z ~.t.=",
".=.=.= f 6 E.=.=.=.=.=.=.=.=.=.=.=.=.=.=.=.=.=.=.=.=.=.=.=.=.=.=.=.=.=.=.=.=.=.=.=.=.=.=.=.=.=.=.=.=.=.=.=.=.=.=.=.=.=.f !.=.=.=",
".=.=.=.=.=.g E.;.=.=.=.=.=.=.=.=.=.=.=.=.=.=.=.=.=.=.=.=.=.=.=.=.=.=.=.=.=.=.=.=.=.=.=.=.=.=.=.=.=.=.=.=.=.=.=.=.=.2 7 ! u.=.=.=",
".=.=.=.=.=.=.j |.i.=.=.=.=.=.=.=.=.=.=.=.=.=.=.=.=.=.=.=.=.=.=.=.=.=.=.=.=.=.=.=.=.=.=.=.=.=.=.=.=.=.=.=.=.=.=.= f 2.3.=.=.=.=.=",
".=.=.=.=.=.=.=.9 ) m.=.=.=.=.=.=.=.=.=.=.=.=.=.=.=.=.=.=.=.=.=.=.=.=.=.=.=.=.=.=.=.=.=.=.=.=.=.=.=.=.=.=.=.=.;.p [ g.=.=.=.=.=.=",
".=.=.=.=.=.=.=.=.= ; 6.=.=.=.=.=.=.=.=.=.=.=.=.=.=.=.=.=.=.=.=.=.=.=.=.=.=.=.=.=.=.=.=.=.=.=.=.=.=.=.=.=.=.= Q ( k.=.=.=.=.=.=.=",
".=.=.=.=.=.=.=.=.=.: j 3 g.=.=.=.=.=.=.=.=.=.=.=.=.=.=.=.=.=.=.=.=.=.=.=.=.=.=.=.=.=.=.=.=.=.=.=.=.=.=.=.t $.d.=.=.=.=.=.=.=.=.=",
".=.=.=.=.=.=.=.=.=.=.= c 6 T.=.=.=.=.=.=.=.=.=.=.=.=.=.=.=.=.=.=.=.=.=.=.=.=.=.=.=.=.=.=.=.=.=.=.=.=.=.y ` S.=.=.=.=.=.=.=.=.=.=",
".=.=.=.=.=.=.=.=.=.=.=.=.;.l T.=.=.=.=.=.=.=.=.=.=.=.=.=.=.=.=.=.=.=.=.=.=.=.=.=.=.=.=.=.=.=.=.=.=.=.u ).-.=.=.=.=.=.=.=.=.=.=.=",
".=.=.=.=.=.=.=.=.=.=.=.=.=.=.l O p.=.=.=.=.=.=.=.=.=.=.=.=.=.=.=.=.=.=.=.=.=.=.=.=.=.=.=.=.=.=.=.:.@ _.;.=.=.=.=.=.=.=.=.=.=.=.=",
".=.=.=.=.=.=.=.=.=.=.=.=.=.=.= J 7 M.=.=.=.=.=.=.=.=.=.=.=.=.=.=.=.=.=.=.=.=.=.=.=.=.=.=.=.=.=.2 |.2.=.=.=.=.=.=.=.=.=.=.=.=.=.=",
".=.=.=.=.=.=.=.=.=.=.=.=.=.=.=.= s > b.,.=.=.=.=.=.=.=.=.=.=.=.=.=.=.=.=.=.=.=.=.=.=.=.=.= t.6 [.8.=.=.=.=.=.=.=.=.=.=.=.=.=.=.=",
".=.=.=.=.=.=.=.=.=.=.=.=.=.=.=.=.=.= 1 {.;.=.=.=.=.=.=.=.=.=.=.=.=.=.=.=.=.=.=.=.=.=.=.=.= T.O.5.=.=.=.=.=.=.=.=.=.=.=.=.=.=.=.=",
".=.=.=.=.=.=.=.=.=.=.=.=.=.=.=.=.=.=.= z.X.=.=.=.=.=.=.=.=.=.=.=.=.=.=.=.=.=.=.=.=.=.=.= I  .=.=.=.=.=.=.=.=.=.=.=.=.=.=.=.=.=.=",
".=.=.=.=.=.=.=.=.=.=.=.=.=.=.=.=.=.=.= L X.=.=.=.=.=.=.=.=.=.=.=.=.=.=.=.=.=.=.=.=.=.=.=.u -.=.=.=.=.=.=.=.=.=.=.=.=.=.=.=.=.=.=",
".=.=.=.=.=.=.=.=.=.=.=.=.=.=.=.=.=.=.= w p.=.=.=.=.=.=.=.=.=.=.=.=.=.=.=.=.=.=.=.=.=.=.=.=.%.=.=.=.=.=.=.=.=.=.=.=.=.=.=.=.=.=.=",
".=.=.=.=.=.=.=.=.=.=.=.=.=.=.=.=.=.=.w [.;.=.=.=.=.=.=.=.=.=.=.=.=.=.=.=.=.=.=.=.=.=.=.=.=.%.=.=.=.=.=.=.=.=.=.=.=.=.=.=.=.=.=.=",
".=.=.=.=.=.=.=.=.=.=.=.=.=.=.=.=.=.= +.k.=.=.=.=.=.=.=.=.=.=.=.=.=.=.=.=.=.=.=.=.=.=.=.=.= b 1.=.=.=.=.=.=.=.=.=.=.=.=.=.=.=.=.=",
".=.=.=.=.=.=.=.=.=.=.=.=.=.=.=.=.=.=.%.=.=.=.=.=.=.=.=.=.=.=.=.=.=.=.=.=.=.=.=.=.=.=.=.=.=.8.X.=.=.=.=.=.=.=.=.=.=.=.=.=.=.=.=.=",
".=.=.=.=.=.=.=.=.=.=.=.=.=.=.=.=.= N ;.=.=.=.=.=.=.=.=.=.=.=.=.=.=.=.=.=.=.=.=.=.=.=.=.=.= g 3.1.=.=.=.=.=.=.=.=.=.=.=.=.=.=.=.=",
".=.=.=.=.=.=.=.=.=.=.=.=.=.=.=.=.=.+.5.=.=.=.=.=.=.=.=.=.=.=.=.=.=.=.=.=.=.=.=.=.=.=.=.=.=.= > M.=.=.=.=.=.=.=.=.=.=.=.=.=.=.=.=",
".=.=.=.=.=.=.=.=.=.=.=.=.=.=.=.= h 3.<.=.=.=.=.=.=.=.=.=.=.=.= c.9.=.=.=.=.=.=.=.=.=.=.=.=.= > M.=.=.=.=.=.=.=.=.=.=.=.=.=.=.=.=",
".=.=.=.=.=.=.=.=.=.=.=.=.=.=.=.=.u -.=.=.=.=.=.=.=.=.=.=.=.> _ 3 }.8.>.=.=.=.=.=.=.=.=.=.=.=.7.o.=.=.=.=.=.=.=.=.=.=.=.=.=.=.=.=",
".=.=.=.=.=.=.=.=.=.=.=.=.=.=.=.= $ S.=.=.=.=.=.=.=.=.=.=.= -.u.=.:.X (.=.=.=.=.=.=.=.=.=.=.=.=.%.=.=.=.=.=.=.=.=.=.=.=.=.=.=.=.=",
".=.=.=.=.=.=.=.=.=.=.=.=.=.=.=.=.%.=.=.=.=.=.=.=.=.=.=.g.%.e.=.=.=.=.t *.w.=.=.=.=.=.=.=.=.=.= 7 h.=.=.=.=.=.=.=.=.=.=.=.=.=.=.=",
".=.=.=.=.=.=.=.=.=.=.=.=.=.=.= F #.=.=.=.=.=.=.=.=.= G @.=.=.=.=.=.=.=.p ,.h.=.=.=.=.=.=.=.=.= M '.=.=.=.=.=.=.=.=.=.=.=.=.=.=.=",
".=.=.=.=.=.=.=.=.=.=.=.=.=.=.> 1.8.=.=.=.=.=.=.= l 7 @.;.=.=.=.=.=.=.=.= u W.l.6.=.=.=.=.=.=.= M '.=.=.=.=.=.=.=.=.=.=.=.=.=.=.=",
".=.=.=.=.=.=.=.=.=.=.=.=.=.= c 3.=.=.=.=.=.=.= s 3 h.=.=.=.=.=.=.=.=.=.=.=.= T. .,.=.=.=.=.=.= g | f.=.=.=.=.=.=.=.=.=.=.=.=.=.=",
".=.=.=.=.=.=.=.=.=.=.=.=.=.=.l T.=.=.=.=.=.- ( 0.>.=.=.=.=.=.=.=.=.=.=.=.=.=.=.> 3 K.=.=.=.=.=.= 5 z.=.=.=.=.=.=.=.=.=.=.=.=.=.=",
".=.=.=.=.=.=.=.=.=.=.=.=.=.=.%.=.=.=.=.=.- *.p.=.=.=.=.=.=.=.=.=.=.=.=.=.=.=.=.= k o & r.=.=.=.=.X.8.=.=.=.=.=.=.=.=.=.=.=.=.=.=",
".=.=.=.=.=.=.=.=.=.=.=.=.= b {.=.=.=.=.a.$ V.=.=.=.=.=.=.=.=.=.=.=.=.=.=.=.=.=.=.=.= Z ).p.=.=.=.=.%.=.=.=.=.=.=.=.=.=.=.=.=.=.=",
".=.=.=.=.=.=.=.=.=.=.=.=.= / C.=.=.,.a &.-.=.=.=.=.=.=.=.=.=.=.=.=.=.=.=.=.=.=.=.=.=.= B * B.=.=.=.%.=.=.=.=.=.=.=.=.=.=.=.=.=.=",
".=.=.=.=.=.=.=.=.=.=.=.=.> {.9.= h 3 /.=.=.=.=.=.=.=.=.=.=.=.=.=.=.=.=.=.=.=.=.=.=.=.=.=.= & & g.= ].r.=.=.=.=.=.=.=.=.=.=.=.=.=",
".=.=.=.=.=.=.=.=.=.=.=.=.w } u x [.6.=.=.=.=.=.=.=.=.=.=.=.=.=.=.=.=.=.=.=.=.=.=.=.=.=.=.= i Z [ d S $.=.=.=.=.=.=.=.=.=.=.=.=.=",
".=.=.=.=.=.=.=.=.=.=.=.=.%.= #. .3.=.=.=.=.=.=.=.=.=.=.=.=.=.=.=.=.=.=.=.=.=.=.=.=.=.=.=.=.=.= j }.# $.=.=.=.=.=.=.=.=.=.=.=.=.=",
".=.=.=.=.=.=.=.=.=.=.=.2 y W.f.=.=.=.=.=.=.=.=.=.=.=.=.=.=.=.=.=.=.=.=.=.=.=.=.=.=.=.=.=.=.=.=.=.4 L.0 a.=.=.=.=.=.=.=.=.=.=.=.=",
".=.=.=.=.=.=.=.=.=.=.= +.#.h.=.=.=.=.=.=.=.=.=.=.=.=.=.=.=.=.=.=.=.=.=.=.=.=.=.=.=.=.=.=.=.=.=.=.=.= G.:.=.=.=.=.=.=.=.=.=.=.=.=",
".=.=.=.=.=.=.=.=.=.=.= + H.=.=.=.=.=.=.=.=.=.=.=.=.=.=.=.=.=.=.=.=.=.=.=.=.=.=.=.=.=.=.=.=.=.=.=.=.=.=.=.=.=.=.=.=.=.=.=.=.=.=.="
};
