/* XPM */
static char *ster-r[] = {
/* width height ncolors chars_per_pixel */
"64 59 136 2",
/* colors */
"   c #AFAFAF",
" . c #ADADAD",
" X c #A9A9A9",
" o c #A7A7A7",
" O c #A5A5A5",
" + c #A3A3A3",
" @ c #A1A1A1",
" # c #9F9F9F",
" $ c #9B9B9B",
" % c #999999",
" & c #979797",
" * c #959595",
" = c #939393",
" - c #919191",
" ; c #8D8D8D",
" : c #8B8B8B",
" > c #898989",
" , c #878787",
" < c #858585",
" 1 c #7F7F7F",
" 2 c #7D7D7D",
" 3 c #7B7B7B",
" 4 c #777777",
" 5 c #737373",
" 6 c #6F6F6F",
" 7 c #6D6D6D",
" 8 c #6B6B6B",
" 9 c #696969",
" 0 c #676767",
" q c #656565",
" w c #616161",
" e c #5F5F5F",
" r c #595959",
" t c #FEFEFE",
" y c #4B4B4B",
" u c #FCFCFC",
" i c #FAFAFA",
" p c #F8F8F8",
" a c #454545",
" s c #F6F6F6",
" d c #F4F4F4",
" f c #F2F2F2",
" g c #F0F0F0",
" h c #EEEEEE",
" j c #ECECEC",
" k c #EAEAEA",
" l c #E8E8E8",
" z c #E6E6E6",
" x c #E4E4E4",
" c c #E2E2E2",
" v c #E0E0E0",
" b c #DCDCDC",
" n c #D8D8D8",
" m c #D6D6D6",
" M c #D4D4D4",
" N c #D2D2D2",
" B c #D0D0D0",
" V c #CECECE",
" C c #CCCCCC",
" Z c #CACACA",
" A c #C8C8C8",
" S c #C4C4C4",
" D c #C2C2C2",
" F c #BCBCBC",
" G c #BABABA",
" H c #B6B6B6",
" J c #B4B4B4",
" K c #AAAAAA",
" L c #A8A8A8",
" P c #A6A6A6",
" I c #A4A4A4",
" U c #A2A2A2",
" Y c #9C9C9C",
" T c #9A9A9A",
" R c #989898",
" E c #969696",
" W c #949494",
" Q c #929292",
" ! c #909090",
" ~ c #8E8E8E",
" ^ c #8C8C8C",
" / c #8A8A8A",
" ( c #888888",
" ) c #868686",
" _ c #828282",
" ` c #808080",
" ' c #7E7E7E",
" ] c #7C7C7C",
" [ c #7A7A7A",
" { c #787878",
" } c #767676",
" | c #747474",
".  c #727272",
".. c #6E6E6E",
".X c #6A6A6A",
".o c #686868",
".O c #646464",
".+ c #626262",
".@ c #545454",
".# c #525252",
".$ c #FFFFFF",
".% c #FDFDFD",
".& c #FBFBFB",
".* c #F9F9F9",
".= c #F7F7F7",
".- c #444444",
".; c #F5F5F5",
".: c #F3F3F3",
".> c #F1F1F1",
"., c #EFEFEF",
".< c #EDEDED",
".1 c #EBEBEB",
".2 c #E7E7E7",
".3 c #E5E5E5",
".4 c #E3E3E3",
".5 c #E1E1E1",
".6 c #DFDFDF",
".7 c #DDDDDD",
".8 c #D9D9D9",
".9 c #D7D7D7",
".0 c #D5D5D5",
".q c #D1D1D1",
".w c #CDCDCD",
".e c #CBCBCB",
".r c #C9C9C9",
".t c #C7C7C7",
".y c #C5C5C5",
".u c #C3C3C3",
".i c #C1C1C1",
".p c #BFBFBF",
".a c #BDBDBD",
".s c #BBBBBB",
".d c #B9B9B9",
".f c #B7B7B7",
".g c #B5B5B5",
".h c #B3B3B3",
/* pixels */
".$.$.$.$.$.$.$.$.$.$.$.$.$.$.$.$.$.$.$.$.$.$.$.$.$.$.$.$.$.$.$.$ b.2.$.$.$.$.$.$.$.$.$.$.$.$.$.$.$.$.$.$.$.$.$.$.$.$.$.$.$.$.$.$",
".$.$.$.$.$.$.$.$.$.$.$.$.$.$.$.$.$.$.$.$.$.$.$.$.$.$.$.$.$.$.$.$ R.h.$.$.$.$.$.$.$.$.$.$.$.$.$.$.$.$.$.$.$.$.$.$.$.$.$.$.$.$.$.$",
".$.$.$.$.$.$.$.$.$.$.$.$.$.$.$.$.$.$.$.$.$.$.$.$.$.$.$.$.$.$.$.$ e e.$.$.$.$.$.$.$.$.$.$.$.$.$.$.$.$.$.$.$.$.$.$.$.$.$.$.$.$.$.$",
".$.$.$.$.$.$.$.$.$.$.$.$.$.$.$.$.$.$.$.$.$.$.$.$.$.$.$.$.$.$.$.8 < ' v.$.$.$.$.$.$.$.$.$.$.$.$.$.$.$.$.$.$.$.$.$.$.$.$.$.$.$.$.$",
".$.$.$.$.$.$.$.$.$.$.$.$.$.$.$.$.$.$.$.$.$.$.$.$.$.$.$.$.$.$.$ e.$.5 2.$.$.$.$.$.$.$.$.$.$.$.$.$.$.$.$.$.$.$.$.$.$.$.$.$.$.$.$.$",
".$.$.$.$.$.$.$.$.$.$.$.$.$.$.$.$.$.$.$.$.$.$.$.$.$.$.$.$.$.$.p #.$ j 1.:.$.$.$.$.$.$.$.$.$.$.$.$.$.$.$.$.$.$.$.$.$.$.$.$.$.$.$.$",
".$.$.$.$.$.$.$.$.$.$.$.$.$.$.$.$.$.$.$.$.$.$.$.$.$.$.$.$.$.$.g X.$.$ _ b.$.$.$.$.$.$.$.$.$.$.$.$.$.$.$.$.$.$.$.$.$.$.$.$.$.$.$.$",
".$.$.$.$.$.$.$.$.$.$.$.$.$.$.$.$.$.$.$.$.$.$.$.$.$.$.$.$.$.$ e.$.$.$.a @.$.$.$.$.$.$.$.$.$.$.$.$.$.$.$.$.$.$.$.$.$.$.$.$.$.$.$.$",
".$.$.$.$.$.$.$.$.$.$.$.$.$.$.$.$.$.$.$.$.$.$.$.$.$.$.$.$.$.4 3.$.$.$.$ e.$.$.$.$.$.$.$.$.$.$.$.$.$.$.$.$.$.$.$.$.$.$.$.$.$.$.$.$",
".$.$.$.$.$.$.$.$.$.$.$.$.$.$.$.$.$.$.$.$.$.$.$.$.$.$.$.$.$ 2.5.$.$.$.$ T S.$.$.$.$.$.$.$.$.$.$.$.$.$.$.$.$.$.$.$.$.$.$.$.$.$.$.$",
".$.$.$.$.$.$.$.$.$.$.$.$.$.$.$.$.$.$.$.$.$.$.$.$.$.$.$.$.7 _ t.$.$.$.$.u $.$.$.$.$.$.$.$.$.$.$.$.$.$.$.$.$.$.$.$.$.$.$.$.$.$.$.$",
".$.$.$.$.$.$.$.$.$.$.$.$.$.$.$.$.$.$.$.$.$.$.$.$.$.$.$.$ N ^.$.$.$.$.$.< | u.$.$.$.$.$.$.$.$.$.$.$.$.$.$.$.$.$.$.$.$.$.$.$.$.$.$",
".$.$.$.$.$.$.$.$.$.$.$.$.$.$.$.$.$.$.$.$.$.$.$.$.$.$.$.$ e.$.$.$.$.$.$.$.O i.$.$.$.$.$.$.$.$.$.$.$.$.$.$.$.$.$.$.$.$.$.$.$.$.$.$",
".$.$.$.$.$.$.$.$.$.$.$.$.$.$.$.$.$.$.$.$.$.$.$.$.$.$.$.1 5.$.$.$.$.$.$.$ x [.$.$.$.$.$.$.$.$.$.$.$.$.$.$.$.$.$.$.$.$.$.$.$.$.$.$",
".$.$.$.$.$.$.$.$.$.$.$.$.$.$.$.$.$.$.$.$.$.$.$.$.$.$.$ $.u.$.$.$.$.$.$.$.$ e.$.$.$.$.$.$.$.$.$.$.$.$.$.$.$.$.$.$.$.$.$.$.$.$.$.$",
".$.$.$.$.$.$.$.$.$.$.$.$.$.$.$.$.$.$.$.$.$.$.$.$.$.$ i 0.&.$.$.$.$.$.$.$.$ @.a.$.$.$.$.$.$.$.$.$.$.$.$.$.$.$.$.$.$.$.$.$.$.$.$.$",
".$.$.$.$.$.$.$.$.$.$.$.$.$.$.$.$.$.$.$.$.$.$.$.$.$.$.> 7.$.$.$.$.$.$.$.$.$ K J.$.$.$.$.$.$.$.$.$.$.$.$.$.$.$.$.$.$.$.$.$.$.$.$.$",
".$.$.$.$.$.$.$.$.$.$.$.$.$.$.$.$.$.$.$.$.$.$.$.$.$.$ e.$.$.$.$.$.$.$.$.$.$.$ e.$.$.$.$.$.$.$.$.$.$.$.$.$.$.$.$.$.$.$.$.$.$.$.$.$",
".$.$.$.$.$.$.$.$.$.$.$.$.$.$.$.$.$.$.$.$.$.$.$.$.$.: 8.$.$.$.$.$.$.$.$.$.$.$ 4.2.$.$.$.$.$.$.$.$.$.$.$.$.$.$.$.$.$.$.$.$.$.$.$.$",
".$.$.$.$.$.$.$.$.$.$.$.$.$.$.$.$.$.$.$.$.$.$.$.$.$.d O.$.$.$.$.$.$.$.$.$.$.$ z {.$.$.$.$.$.$.$.$.$.$.$.$.$.$.$.$.$.$.$.$.$.$.$.$",
".$.t J J J J J J J J J J J J J J J J J J J J J J J e p.$.$.$.$.$.$.$.$.$.$.$.< ].:.$.$.$.$.$.$.$.$.$.$.$.$.$.$.$.$.$.$.$.$.$.$.$",
".$ ..@ U K K K K K K K K K K K K K K K K K K K K K.i.$.$.$.$.$.$.$.$.$.$.$.$.$ ^.# e e e e e e e e e e e e e e e e e e e e e r S",
".$.$.g | m.$.$.$.$.$.$.$.$.$.$.$.$.$.$.$.$.$.$.$.$.$.$.$.$.$.$.$.$.$.$.$.$.$.$.$.$.$.$.$.$.$.$.$.$.$.$.$.$.$.$.$.$.$.$.$ g E *.$",
".$.$.$ f (.0 d.$.$.$.$.$.$.$.$.$.$.$.$.$.$.$.$.$.$.$.$.$.$.$.$.$.$.$.$.$.$.$.$.$.$.$.$.$.$.$.$.$.$.$.$.$.$.$.$.$.$.$.$., / A.*.$",
".$.$.$.$.$ > >.$.$.$.$.$.$.$.$.$.$.$.$.$.$.$.$.$.$.$.$.$.$.$.$.$.$.$.$.$.$.$.$.$.$.$.$.$.$.$.$.$.$.$.$.$.$.$.$.$.$.$ u '.4.$.$.$",
".$.$.$.$.$.$ v > d.$.$.$.$.$.$.$.$.$.$.$.$.$.$.$.$.$.$.$.$.$.$.$.$.$.$.$.$.$.$.$.$.$.$.$.$.$.$.$.$.$.$.$.$.$.$.$.$ o.+ g.$.$.$.$",
".$.$.$.$.$.$.$.0.X G.$.$.$.$.$.$.$.$.$.$.$.$.$.$.$.$.$.$.$.$.$.$.$.$.$.$.$.$.$.$.$.$.$.$.$.$.$.$.$.$.$.$.$.$.$ t L.f.$.$.$.$.$.$",
".$.$.$.$.$.$.$.$.$ I G.$.$.$.$.$.$.$.$.$.$.$.$.$.$.$.$.$.$.$.$.$.$.$.$.$.$.$.$.$.$.$.$.$.$.$.$.$.$.$.$.$.$.$ m Q H.$.$.$.$.$.$.$",
".$.$.$.$.$.$.$.$.$.$ I 9 j.$.$.$.$.$.$.$.$.$.$.$.$.$.$.$.$.$.$.$.$.$.$.$.$.$.$.$.$.$.$.$.$.$.$.$.$.$.$.$.$.4 ( C.$.$.$.$.$.$.$.$",
".$.$.$.$.$.$.$.$.$.$.$.; ` l.$.$.$.$.$.$.$.$.$.$.$.$.$.$.$.$.$.$.$.$.$.$.$.$.$.$.$.$.$.$.$.$.$.$.$.$.$.$ , <.$.$.$.$.$.$.$.$.$.$",
".$.$.$.$.$.$.$.$.$.$.$.$.> } *.&.$.$.$.$.$.$.$.$.$.$.$.$.$.$.$.$.$.$.$.$.$.$.$.$.$.$.$.$.$.$.$.$.$.$.: /.9.;.$.$.$.$.$.$.$.$.$.$",
".$.$.$.$.$.$.$.$.$.$.$.$.$.$.r *.$.$.$.$.$.$.$.$.$.$.$.$.$.$.$.$.$.$.$.$.$.$.$.$.$.$.$.$.$.$.$.$.$.$ / M.$.$.$.$.$.$.$.$.$.$.$.$",
".$.$.$.$.$.$.$.$.$.$.$.$.$.$.$.w ^.r.$.$.$.$.$.$.$.$.$.$.$.$.$.$.$.$.$.$.$.$.$.$.$.$.$.$.$.$.$.$ G e v.$.$.$.$.$.$.$.$.$.$.$.$.$",
".$.$.$.$.$.$.$.$.$.$.$.$.$.$.$.$ N *.w.$.$.$.$.$.$.$.$.$.$.$.$.$.$.$.$.$.$.$.$.$.$.$.$.$.$.$.$ G I.$.$.$.$.$.$.$.$.$.$.$.$.$.$.$",
".$.$.$.$.$.$.$.$.$.$.$.$.$.$.$.$.$.$ & _.;.$.$.$.$.$.$.$.$.$.$.$.$.$.$.$.$.$.$.$.$.$.$.$.$ z _ P.$.$.$.$.$.$.$.$.$.$.$.$.$.$.$.$",
".$.$.$.$.$.$.$.$.$.$.$.$.$.$.$.$.$.$.* b ).1.$.$.$.$.$.$.$.$.$.$.$.$.$.$.$.$.$.$.$.$.$.$ x > b.%.$.$.$.$.$.$.$.$.$.$.$.$.$.$.$.$",
".$.$.$.$.$.$.$.$.$.$.$.$.$.$.$.$.$.$.$.$ J K.$.$.$.$.$.$.$.$.$.$.$.$.$.$.$.$.$.$.$.$.$.$ ^ N.$.$.$.$.$.$.$.$.$.$.$.$.$.$.$.$.$.$",
".$.$.$.$.$.$.$.$.$.$.$.$.$.$.$.$.$.$.$.$ w.%.$.$.$.$.$.$.$.$.$.$.$.$.$.$.$.$.$.$.$.$.$.$.% w.$.$.$.$.$.$.$.$.$.$.$.$.$.$.$.$.$.$",
".$.$.$.$.$.$.$.$.$.$.$.$.$.$.$.$.$.$.$.> 7.$.$.$.$.$.$.$.$.$.$.$.$.$.$.$.$.$.$.$.$.$.$.$.$ e.$.$.$.$.$.$.$.$.$.$.$.$.$.$.$.$.$.$",
".$.$.$.$.$.$.$.$.$.$.$.$.$.$.$.$.$.$.$ 5.1.$.$.$.$.$.$.$.$.$.$.$.$.$.$.$.$.$.$.$.$.$.$.$.$ =.e.$.$.$.$.$.$.$.$.$.$.$.$.$.$.$.$.$",
".$.$.$.$.$.$.$.$.$.$.$.$.$.$.$.$.$.$.8 ( u.$.$.$.$.$.$.$.$.$.$.$.$.$.$.$.$.$.$.$.$.$.$.$.$.w -.$.$.$.$.$.$.$.$.$.$.$.$.$.$.$.$.$",
".$.$.$.$.$.$.$.$.$.$.$.$.$.$.$.$.$.$ N ^.$.$.$.$.$.$.$.$.$.$.$.$.$.$.$.$.$.$.$.$.$.$.$.$.$.w -.$.$.$.$.$.$.$.$.$.$.$.$.$.$.$.$.$",
".$.$.$.$.$.$.$.$.$.$.$.$.$.$.$.$.$.$.O i.$.$.$.$.$.$.$.$.$.$.$.$.$.$.$.$.$.$.$.$.$.$.$.$.$.% 6.>.$.$.$.$.$.$.$.$.$.$.$.$.$.$.$.$",
".$.$.$.$.$.$.$.$.$.$.$.$.$.$.$.$.$ s.o.$.$.$.$.$.$.$.$.$.$.$.$.$ f.$.$.$.$.$.$.$.$.$.$.$.$.$.. g.$.$.$.$.$.$.$.$.$.$.$.$.$.$.$.$",
".$.$.$.$.$.$.$.$.$.$.$.$.$.$.$.$.$ -.w.$.$.$.$.$.$.$.$.$.$.$ c ^ ] c.$.$.$.$.$.$.$.$.$.$.$.$    .$.$.$.$.$.$.$.$.$.$.$.$.$.$.$.$",
".$.$.$.$.$.$.$.$.$.$.$.$.$.$.$.$ u /.9.$.$.$.$.$.$.$.$.$.$.3 > N h ] * p.$.$.$.$.$.$.$.$.$.$.$ e.$.$.$.$.$.$.$.$.$.$.$.$.$.$.$.$",
".$.$.$.$.$.$.$.$.$.$.$.$.$.$.$.$ g...$.$.$.$.$.$.$.$.$.$ ! ` f.$.$.$.r *.$.$.$.$.$.$.$.$.$.$.$ e.$.$.$.$.$.$.$.$.$.$.$.$.$.$.$.$",
".$.$.$.$.$.$.$.$.$.$.$.$.$.$.$.$ D Y.$.$.$.$.$.$.$.$.% ! V p.$.$.$.$.$ B e Z.$.$.$.$.$.$.$.$.$ K J.$.$.$.$.$.$.$.$.$.$.$.$.$.$.$",
".$.$.$.$.$.$.$.$.$.$.$.$.$.$.$ i.O.$.$.$.$.$.$.$.$ Z w V.$.$.$.$.$.$.$.$.$ W A.=.$.$.$.$.$.$.$    .$.$.$.$.$.$.$.$.$.$.$.$.$.$.$",
".$.$.$.$.$.$.$.$.$.$.$.$.$.$.$    .$.$.$.$.$.$.$.y %.$.$.$.$.$.$.$.$.$.$.$.$ E ' h.$.$.$.$.$.$.q ;.$.$.$.$.$.$.$.$.$.$.$.$.$.$.$",
".$.$.$.$.$.$.$.$.$.$.$.$.$.$.$ @.a.$.$.$.$.$ j { % i.$.$.$.$.$.$.$.$.$.$.$.$.$.2 > N.%.$.$.$.$.$ e.$.$.$.$.$.$.$.$.$.$.$.$.$.$.$",
".$.$.$.$.$.$.$.$.$.$.$.$.$.$.$ e.$.$.$.$.$.* 2 z.$.$.$.$.$.$.$.$.$.$.$.$.$.$.$.$ z ^ +.$.$.$.$.$ e.$.$.$.$.$.$.$.$.$.$.$.$.$.$.$",
".$.$.$.$.$.$.$.$.$.$.$.$.$.$ M /.$.$.$.$ @ q.:.$.$.$.$.$.$.$.$.$.$.$.$.$.$.$.$.$.$.$.a $ m.$.$.$ x [.$.$.$.$.$.$.$.$.$.$.$.$.$.$",
".$.$.$.$.$.$.$.$.$.$.$.$.$.$.. g.$.$.= +.a.$.$.$.$.$.$.$.$.$.$.$.$.$.$.$.$.$.$.$.$.$.$.u (.7.$.$ g...$.$.$.$.$.$.$.$.$.$.$.$.$.$",
".$.$.$.$.$.$.$.$.$.$.$.$.$ k ] s.$ N. .s.$.$.$.$.$.$.$.$.$.$.$.$.$.$.$.$.$.$.$.$.$.$.$.$.$ ^ E.* s ] k.$.$.$.$.$.$.$.$.$.$.$.$.$",
".$.$.$.$.$.$.$.$.$.$.$.$.$ F U f B ^ d.$.$.$.$.$.$.$.$.$.$.$.$.$.$.$.$.$.$.$.$.$.$.$.$.$.$ d A : f -.w.$.$.$.$.$.$.$.$.$.$.$.$.$",
".$.$.$.$.$.$.$.$.$.$.$.$.$ e.$ < ~.$.$.$.$.$.$.$.$.$.$.$.$.$.$.$.$.$.$.$.$.$.$.$.$.$.$.$.$.$.$.8 2.-.w.$.$.$.$.$.$.$.$.$.$.$.$.$",
".$.$.$.$.$.$.$.$.$.$.$.$.6 a ) z.$.$.$.$.$.$.$.$.$.$.$.$.$.$.$.$.$.$.$.$.$.$.$.$.$.$.$.$.$.$.$.$ h @ y.$.$.$.$.$.$.$.$.$.$.$.$.$",
".$.$.$.$.$.$.$.$.$.$.$.$ ^ ( n.$.$.$.$.$.$.$.$.$.$.$.$.$.$.$.$.$.$.$.$.$.$.$.$.$.$.$.$.$.$.$.$.$.$.$.t.$.$.$.$.$.$.$.$.$.$.$.$.$"
};
