/* XPM */
static char *tang-r[] = {
/* width height ncolors chars_per_pixel */
"64 34 147 2",
/* colors */
"   c #B1B1B1",
" . c #AFAFAF",
" X c #ADADAD",
" o c #ABABAB",
" O c #A9A9A9",
" + c #A7A7A7",
" @ c #A5A5A5",
" # c #A3A3A3",
" $ c #A1A1A1",
" % c #9F9F9F",
" & c #9D9D9D",
" * c #999999",
" = c #979797",
" - c #939393",
" ; c #919191",
" : c #8F8F8F",
" > c #8B8B8B",
" , c #898989",
" < c #858585",
" 1 c #818181",
" 2 c #7F7F7F",
" 3 c #7D7D7D",
" 4 c #777777",
" 5 c #757575",
" 6 c #737373",
" 7 c #717171",
" 8 c #636363",
" 9 c #616161",
" 0 c #5F5F5F",
" q c #5D5D5D",
" w c #5B5B5B",
" e c #535353",
" r c #4D4D4D",
" t c #FEFEFE",
" y c #4B4B4B",
" u c #FCFCFC",
" i c #FAFAFA",
" p c #474747",
" a c #F8F8F8",
" s c #F6F6F6",
" d c #F4F4F4",
" f c #414141",
" g c #F0F0F0",
" h c #3D3D3D",
" j c #EEEEEE",
" k c #ECECEC",
" l c #393939",
" z c #EAEAEA",
" x c #E8E8E8",
" c c #E6E6E6",
" v c #E4E4E4",
" b c #E2E2E2",
" n c #E0E0E0",
" m c #DEDEDE",
" M c #DADADA",
" N c #D6D6D6",
" B c #D4D4D4",
" V c #D2D2D2",
" C c #D0D0D0",
" Z c #CACACA",
" A c #C8C8C8",
" S c #C6C6C6",
" D c #C4C4C4",
" F c #C2C2C2",
" G c #C0C0C0",
" H c #BEBEBE",
" J c #BCBCBC",
" K c #BABABA",
" L c #B8B8B8",
" P c #B4B4B4",
" I c #B2B2B2",
" U c #AEAEAE",
" Y c #ACACAC",
" T c #AAAAAA",
" R c #A8A8A8",
" E c #A6A6A6",
" W c #A2A2A2",
" Q c #A0A0A0",
" ! c #9E9E9E",
" ~ c #9C9C9C",
" ^ c #9A9A9A",
" / c #989898",
" ( c #969696",
" ) c #949494",
" _ c #929292",
" ` c #909090",
" ' c #8E8E8E",
" ] c #8C8C8C",
" [ c #8A8A8A",
" { c #888888",
" } c #868686",
" | c #848484",
".  c #828282",
".. c #808080",
".X c #7E7E7E",
".o c #7C7C7C",
".O c #7A7A7A",
".+ c #767676",
".@ c #747474",
".# c #707070",
".$ c #6E6E6E",
".% c #6C6C6C",
".& c #666666",
".* c #646464",
".= c #626262",
".- c #585858",
".; c #525252",
".: c #FFFFFF",
".> c #FDFDFD",
"., c #FBFBFB",
".< c #F9F9F9",
".1 c #464646",
".2 c #F7F7F7",
".3 c #444444",
".4 c #F5F5F5",
".5 c #424242",
".6 c #F3F3F3",
".7 c #F1F1F1",
".8 c #EFEFEF",
".9 c #3A3A3A",
".0 c #EBEBEB",
".q c #E9E9E9",
".w c #363636",
".e c #E7E7E7",
".r c #343434",
".t c #E5E5E5",
".y c #E3E3E3",
".u c #E1E1E1",
".i c #DFDFDF",
".p c #DDDDDD",
".a c #DBDBDB",
".s c #D9D9D9",
".d c #D7D7D7",
".f c #D5D5D5",
".g c #D3D3D3",
".h c #CFCFCF",
".j c #CBCBCB",
".k c #C9C9C9",
".l c #C7C7C7",
".z c #C5C5C5",
".x c #C3C3C3",
".c c #C1C1C1",
".v c #BFBFBF",
".b c #BDBDBD",
".n c #BBBBBB",
".m c #B5B5B5",
".M c #B3B3B3",
/* pixels */
".:.:.:.:.:.:.:.:.:.:.:.:.:.:.:.:.:.:.:.:.:.:.:.:.:.:.:.:.:.:.:.:.:.:.:.:.:.:.:.:.:.:.:.:.:.:.:.:.:.:.:.:.:.:.:.:.:.:.:.:.:.:.:.:",
".:.:.:.:.:.:.:.:.:.:.:.:.:.:.:.:.:.:.:.:.:.:.:.:.:.:.:.:.:.:.:.:.:.:.:.:.:.:.:.:.:.:.:.:.:.:.:.:.:.:.:.:.:.:.:.:.:.:.:.:.:.:.:.:",
".:.:.:.:.:.:.:.: k.- 4 a.:.:.:.:.:.:.:.:.:.:.:.:.:.:.:.:.:.:.:.:.:.:.:.:.:.:.:.:.:.:.:.:.:.:.:.:.:.:.:.:.:.:.:.:.:.:.:.:.:.:.:.:",
".:.:.:.:.:.:.:.: > ( T ~ v c.:.:.:.:.:.:.:.:.:.:.:.:.:.:.:.:.:.:.:.:.:.:.:.:.:.:.:.:.:.:.:.:.:.:.:.:.:.:.:.:.:.:.:.:.:.:.:.:.:.:",
".:.:.:.:.:.:.:.: 8.v.:.a ] [ 6 6 6 6 6.b.:.:.:.:.:.:.:.:.:.:.:.:.:.:.:.:.:.:.:.:.:.:.:.:.:.:.:.:.:.:.:.:.:.:.:.:.:.:.:.:.:.:.:.:",
".:.:.:.:.:.:.:.: g 1 G.:.:.:.>.>.>.>.>.M 7 7 { ` Z.:.:.:.:.:.:.:.:.:.:.:.:.:.:.:.:.:.:.:.:.:.:.:.:.:.:.:.:.:.:.:.:.:.:.:.:.:.:.:",
".:.:.:.:.:.:.:.:.: j 9 | X X.s.:.:.:.:.:.:.: x n E ,.z.:.:.:.:.:.:.:.:.:.:.:.:.:.:.:.:.:.:.:.:.:.:.:.:.:.:.:.:.:.:.:.:.:.:.:.:.:",
".:.:.:.:.:.:.:.:.:.:.: k D D / 7 ].k.k.k.k.s.:.:.:.e Y 1.0.:.:.:.:.:.:.:.:.:.:.:.:.:.:.:.:.:.:.:.:.:.:.:.:.:.:.:.:.:.:.:.:.:.:.:",
".:.:.:.:.:.:.:.:.:.:.:.:.:.:.:.: v + + + + = 7.O c t.:.8 | $ t.:.:.:.:.:.:.:.:.:.:.:.:.:.:.:.:.:.:.:.:.:.:.:.:.:.:.:.:.:.:.:.:.:",
".:.:.:.:.:.:.:.:.:.:.:.:.:.:.:.:.:.:.:.:.:.:.: s [.+ z.:.2 [ X.:.:.:.:.:.:.:.:.:.:.:.:.:.:.:.:.:.:.:.:.:.:.:.:.:.:.:.:.:.:.:.:.:",
".:.:.:.:.:.:.:.:.:.:.:.:.:.:.:.:.:.:.:.:.:.:.:.:.:., : E.:.: D Y.:.:.:.:.:.:.:.:.:.:.:.:.:.:.:.:.:.:.:.:.:.:.:.:.:.:.:.:.:.:.:.:",
".:.:.:.:.:.:.:.:.:.:.:.:.:.:.:.:.:.:.:.:.:.:.:.:.:.:.4 Z &.:.: X (.:.:.:.:.:.:.:.:.:.:.:.:.:.:.:.:.:.:.:.:.:.:.:.:.:.:.:.:.:.:.:",
".:.:.:.:.:.:.:.:.:.:.:.:.:.:.:.:.:.:.:.:.:.:.:.:.:.:.:.: C }.> j P Y.:.:.:.:.:.:.:.:.:.:.:.:.:.:.:.:.:.:.:.:.:.:.:.:.:.:.:.:.:.:",
".:.:.:.:.:.:.:.:.:.:.:.:.:.:.:.:.:.:.:.:.:.:.:.:.:.:.:.:.< @ #.,.:.x X.:.:.:.:.:.:.:.:.:.:.:.:.:.:.:.:.:.:.:.:.:.:.:.:.:.:.:.:.:",
".:.:.:.:.:.:.:.:.:.:.:.:.:.:.:.:.:.:.:.:.:.:.:.:.:.:.:.:.:.: *.d.: a 2 a.:.:.:.:.:.:.:.:.:.:.:.:.:.:.:.:.:.:.:.:.:.:.:.:.:.:.:.:",
".:.:.:.:.:.:.:.:.:.:.:.:.:.:.:.:.:.:.:.:.:.:.:.:.:.:.:.:.:.:.> ; b.: P J.:.:.:.:.:.:.:.:.:.:.:.:.:.:.:.:.:.:.:.:.:.:.:.:.:.:.:.:",
".:.:.:.:.:.:.:.:.:.:.:.:.:.:.:.:.:.:.:.:.:.:.:.:.:.:.:.:.:.:.:.4 *.u.: P J.:.:.:.:.:.:.:.:.:.:.:.:.:.:.:.:.:.:.:.:.:.:.:.:.:.:.:",
".:.:.:.:.:.:.:.:.:.:.:.:.:.:.:.:.:.:.:.:.:.:.:.:.:.:.:.:.:.:.:.: d.o.:.: + Z.:.:.:.:.:.:.:.:.:.:.:.:.:.:.:.:.:.:.:.:.:.:.:.:.:.:",
".:.:.:.:.:.:.:.:.:.:.:.:.:.:.:.:.:.:.:.:.:.:.:.:.:.:.:.:.:.:.:.:.:.x.& s.t -.2.:.:.:.:.:.:.:.:.:.:.:.:.:.:.:.:.:.:.:.:.:.:.:.:.:",
".:.:.:.:.:.:.:.:.:.:.:.:.:.:.:.:.:.:.:.:.:.:.:.:.:.:.:.:.:.:.:.:.:.: F U.:.0 <.:.:.:.:.:.:.:.:.:.:.:.:.:.:.:.:.:.:.:.:.:.:.:.:.:",
".:.:.:.:.:.:.:.:.:.:.:.:.:.:.:.:.:.:.:.:.:.:.:.:.:.:.:.:.:.:.:.:.:.:.:.@ X.:.6 7 J.:.:.:.:.:.:.:.:.:.:.:.:.:.:.:.:.:.:.:.:.:.:.:",
".:.:.x I I B.:.:.:.:.:.:.:.:.:.:.:.:.:.:.:.:.:.:.:.:.:.:.:.:.:.:.:.:.:.: 0 =.:.s.w 7 % I I.h.:.:.:.:.:.:.:.:.:.:.:.:.:.:.:.:.:.:",
".: G e H H r 5 d.:.:.:.:.:.:.:.:.:.:.:.:.:.:.:.:.:.:.:.:.:.:.:.7.h.h.h.h.b.; M 2.d.d R H H $ 7 7.@.h.,.:.:.:.:.:.:.:.:.:.:.:.:.:",
".:  .#.:.:.:.X w.c s.:.:.:.:.:.:.:.:.:.:.:.:.:.:.:.:.:.:.6 k 4 2 $ $ $ $ $  .% C.c.1 X k k.6.8.< u q ).:.:.:.:.:.:.:.:.:.:.:.:.:",
".:.: ! V.:.:.:.: . 2 P.:.:.:.:.:.:.:.:.:.:.:.:.:.:.:.: ! 1 |.<.:.:.:.:.:.:.: 7.: C z W | | 1.  ;.:.: f c.:.:.:.:.:.:.:.:.:.:.:.:",
".:.:.> ! 7 7.3 /.a i J 3 /.a.:.:.:.:.:.:.:.:.:.:.: ~ 4 V.,.:.: b / / / , 7 7.r /.<.: 9 N.:.& ;.=.:.: F O.:.:.:.:.:.:.:.:.:.:.:.:",
".:.:.:.:.:.: m.s ~.p.:.6.s ( 7 7 } P P P P P.  7 7.f.<.: C _ 7 :.s.s.s x.:.: x.s 4 R L.= 7 h.%.& 6 P.< S Q P.d.:.:.:.:.:.:.:.:.:",
".:.:.:.:.:.:.:.: a - ^ n.:.:.:.: z J J J J J j.:.: k.m 7 Q m.:.:.:.:.:.:.:.:.:.:.: A (.g.q.$.6.:.> J 4 , O J * ) s.:.:.:.:.:.:.:",
".:.:.:.:.:.:.:.:.:.: N ` 7 7 P j j j.8.:.: i j.t 7 |.n.:.:.:.:.:.:.:.:.:.:.:.:.:.:.: g &.5.i j j j j j.y / 7 Y.j 4.l j.:.:.:.:.:",
".:.:.:.:.:.:.:.:.:.:.:.:.:.: J. . . .  3 3 2.  >.:.:.:.:.:.:.:.:.:.:.:.:.:.:.:.:.:.:.:.:.: >. . . . . .X 3.k D e.*...  3 o.:.:.:",
".:.:.:.:.:.:.:.:.:.:.:.:.:.:.:.:.:.: t.6.6.2.:.:.:.:.:.:.:.:.:.:.:.:.:.:.:.:.:.:.:.:.:.:.:.:.:.:.:.:.:.4.6 + 7 _ '.O l ' J ;.i.:",
".:.:.:.:.:.:.:.:.:.:.:.:.:.:.:.:.:.:.:.:.:.:.:.:.:.:.:.:.:.:.:.:.:.:.:.:.:.:.:.:.:.:.:.:.:.:.:.:.:.:.:.:.:.:.: M.d ; w ' y l.*.:",
".:.:.:.:.:.:.:.:.:.:.:.:.:.:.:.:.:.:.:.:.:.:.:.:.:.:.:.:.:.:.:.:.:.:.:.:.:.:.:.:.:.:.:.:.:.:.:.:.:.:.:.:.:.:.:.:.:.:.> K Q.9 p.:",
".:.:.:.:.:.:.:.:.:.:.:.:.:.:.:.:.:.:.:.:.:.:.:.:.:.:.:.:.:.:.:.:.:.:.:.:.:.:.:.:.:.:.:.:.:.:.:.:.:.:.:.:.:.:.:.:.:.:.:.:.:.:.:.:"
};
