/* XPM */
static char *tang-r[] = {
/* width height ncolors chars_per_pixel */
"64 32 157 2",
/* colors */
"   c #000000",
" . c #B1B1B1",
" X c #AFAFAF",
" o c #ADADAD",
" O c #ABABAB",
" + c #A7A7A7",
" @ c #A3A3A3",
" # c #A1A1A1",
" $ c #9F9F9F",
" % c #9D9D9D",
" & c #9B9B9B",
" * c #999999",
" = c #979797",
" - c #959595",
" ; c #8F8F8F",
" : c #8D8D8D",
" > c #8B8B8B",
" , c #898989",
" < c #878787",
" 1 c #858585",
" 2 c #838383",
" 3 c #818181",
" 4 c #7F7F7F",
" 5 c #7D7D7D",
" 6 c #7B7B7B",
" 7 c #797979",
" 8 c #777777",
" 9 c #757575",
" 0 c #737373",
" q c #717171",
" w c #6F6F6F",
" e c #6B6B6B",
" r c #696969",
" t c #656565",
" y c #636363",
" u c #555555",
" i c #4F4F4F",
" p c #FEFEFE",
" a c #FCFCFC",
" s c #FAFAFA",
" d c #F8F8F8",
" f c #454545",
" g c #F6F6F6",
" h c #F4F4F4",
" j c #F2F2F2",
" k c #F0F0F0",
" l c #3D3D3D",
" z c #EEEEEE",
" x c #ECECEC",
" c c #EAEAEA",
" v c #373737",
" b c #E8E8E8",
" n c #E6E6E6",
" m c #333333",
" M c #313131",
" N c #E2E2E2",
" B c #E0E0E0",
" V c #DCDCDC",
" C c #DADADA",
" Z c #D8D8D8",
" A c #D4D4D4",
" S c #D2D2D2",
" D c #1B1B1B",
" F c #CCCCCC",
" G c #C8C8C8",
" H c #C4C4C4",
" J c #C2C2C2",
" K c #C0C0C0",
" L c #BEBEBE",
" P c #BCBCBC",
" I c #BABABA",
" U c #B8B8B8",
" Y c #B6B6B6",
" T c #B4B4B4",
" R c #B2B2B2",
" E c #B0B0B0",
" W c #AEAEAE",
" Q c #ACACAC",
" ! c #AAAAAA",
" ~ c #A6A6A6",
" ^ c #A2A2A2",
" / c #A0A0A0",
" ( c #9E9E9E",
" ) c #9C9C9C",
" _ c #9A9A9A",
" ` c #969696",
" ' c #949494",
" ] c #909090",
" [ c #8E8E8E",
" { c #8C8C8C",
" } c #8A8A8A",
" | c #868686",
".  c #848484",
".. c #828282",
".X c #808080",
".o c #7E7E7E",
".O c #7C7C7C",
".+ c #7A7A7A",
".@ c #787878",
".# c #767676",
".$ c #727272",
".% c #707070",
".& c #6C6C6C",
".* c #6A6A6A",
".= c #686868",
".- c #666666",
".; c #5E5E5E",
".: c #5C5C5C",
".> c #565656",
"., c #505050",
".< c #4E4E4E",
".1 c #FFFFFF",
".2 c #FDFDFD",
".3 c #4A4A4A",
".4 c #FBFBFB",
".5 c #484848",
".6 c #F9F9F9",
".7 c #F7F7F7",
".8 c #444444",
".9 c #F5F5F5",
".0 c #F3F3F3",
".q c #404040",
".w c #F1F1F1",
".e c #3E3E3E",
".r c #EFEFEF",
".t c #3C3C3C",
".y c #EDEDED",
".u c #3A3A3A",
".i c #EBEBEB",
".p c #E9E9E9",
".a c #E7E7E7",
".s c #343434",
".d c #E5E5E5",
".f c #E3E3E3",
".g c #E1E1E1",
".h c #2E2E2E",
".j c #DFDFDF",
".k c #DDDDDD",
".l c #DBDBDB",
".z c #D7D7D7",
".x c #D5D5D5",
".c c #D3D3D3",
".v c #D1D1D1",
".b c #CFCFCF",
".n c #CDCDCD",
".m c #CBCBCB",
".M c #C9C9C9",
".N c #C7C7C7",
".B c #C3C3C3",
".V c #C1C1C1",
".C c #BFBFBF",
".Z c #BDBDBD",
".A c #BBBBBB",
".S c #B9B9B9",
".D c #B7B7B7",
".F c #B5B5B5",
".G c #B3B3B3",
/* pixels */
".1.1.1.1.1.1.1 ].e.$.1.1.1.1.1.1.1.1.1.1.1.1.1.1.1.1.1.1.1.1.1.1.1.1.1.1.1.1.1.1.1.1.1.1.1.1.1.1.1.1.1.1.1.1.1.1.1.1.1.1.1.1.1.1",
".1.1.1.1.1.1.4.s Z.M = L.m.1.1.1.1.1.1.1.1.1.1.1.1.1.1.1.1.1.1.1.1.1.1.1.1.1.1.1.1.1.1.1.1.1.1.1.1.1.1.1.1.1.1.1.1.1.1.1.1.1.1.1",
".1.1.1.1.1.1.4 M n.1.c Q $ e e e e e & b b.0.1.1.1.1.1.1.1.1.1.1.1.1.1.1.1.1.1.1.1.1.1.1.1.1.1.1.1.1.1.1.1.1.1.1.1.1.1.1.1.1.1.1",
".1.1.1.1.1.1.1 G.o.z.1.1.1.1.1.1.1.1.b.....X 5 ].1.1.1.1.1.1.1.1.1.1.1.1.1.1.1.1.1.1.1.1.1.1.1.1.1.1.1.1.1.1.1.1.1.1.1.1.1.1.1.1",
".1.1.1.1.1.1.1.1.N t > + +.k.1.1.1.1.1.1.1 g.y C e ~.r.1.1.1.1.1.1.1.1.1.1.1.1.1.1.1.1.1.1.1.1.1.1.1.1.1.1.1.1.1.1.1.1.1.1.1.1.1",
".1.1.1.1.1.1.1.1.1.1.j.B.B : e ,.v.v.v.v A.1.1.1.1 H 6 ..1.1.1.1.1.1.1.1.1.1.1.1.1.1.1.1.1.1.1.1.1.1.1.1.1.1.1.1.1.1.1.1.1.1.1.1",
".1.1.1.1.1.1.1.1.1.1.1.1.1.1.1.g * * * * ` e e.c.2.1.1.S r z.1.1.1.1.1.1.1.1.1.1.1.1.1.1.1.1.1.1.1.1.1.1.1.1.1.1.1.1.1.1.1.1.1.1",
".1.1.1.1.1.1.1.1.1.1.1.1.1.1.1.1.1.1.1.1.1.1.1 `...Z.1.1 U.+.f.1.1.1.1.1.1.1.1.1.1.1.1.1.1.1.1.1.1.1.1.1.1.1.1.1.1.1.1.1.1.1.1.1",
".1.1.1.1.1.1.1.1.1.1.1.1.1.1.1.1.1.1.1.1.1.1.1.1 c o O.a.1.0 ' N.1.1.1.1.1.1.1.1.1.1.1.1.1.1.1.1.1.1.1.1.1.1.1.1.1.1.1.1.1.1.1.1",
".1.1.1.1.1.1.1.1.1.1.1.1.1.1.1.1.1.1.1.1.1.1.1.1.1.1 L {.w.1 j.@.r.1.1.1.1.1.1.1.1.1.1.1.1.1.1.1.1.1.1.1.1.1.1.1.1.1.1.1.1.1.1.1",
".1.1.1.1.1.1.1.1.1.1.1.1.1.1.1.1.1.1.1.1.1.1.1.1.1.1.1 g.X.0.1.S 3.p.1.1.1.1.1.1.1.1.1.1.1.1.1.1.1.1.1.1.1.1.1.1.1.1.1.1.1.1.1.1",
".1.1.1.1.1.1.1.1.1.1.1.1.1.1.1.1.1.1.1.1.1.1.1.1.1.1.1.1 X.O.a.1.6 ;.g.1.1.1.1.1.1.1.1.1.1.1.1.1.1.1.1.1.1.1.1.1.1.1.1.1.1.1.1.1",
".1.1.1.1.1.1.1.1.1.1.1.1.1.1.1.1.1.1.1.1.1.1.1.1.1.1.1.1.1.y 5.1.1.m $.1.1.1.1.1.1.1.1.1.1.1.1.1.1.1.1.1.1.1.1.1.1.1.1.1.1.1.1.1",
".1.1.1.1.1.1.1.1.1.1.1.1.1.1.1.1.1.1.1.1.1.1.1.1.1.1.1.1.1.1 W P.1.1 w.4.1.1.1.1.1.1.1.1.1.1.1.1.1.1.1.1.1.1.1.1.1.1.1.1.1.1.1.1",
".1.1.1.1.1.1.1.1.1.1.1.1.1.1.1.1.1.1.1.1.1.1.1.1.1.1.1.1.1.1.1 W P.1 j.X.7.1.1.1.1.1.1.1.1.1.1.1.1.1.1.1.1.1.1.1.1.1.1.1.1.1.1.1",
".1.1.1.1.1.1.1.1.1.1.1.1.1.1.1.1.1.1.1.1.1.1.1.1.1.1.1.1.1.1.1.1 W P.1.r : z.1.1.1.1.1.1.1.1.1.1.1.1.1.1.1.1.1.1.1.1.1.1.1.1.1.1",
".1.1.1.1.1.1.1.1.1.1.1.1.1.1.1.1.1.1.1.1.1.1.1.1.1.1.1.1.1.1.1.1.1 9.g.1 R U.1.1.1.1.1.1.1.1.1.1.1.1.1.1.1.1.1.1.1.1.1.1.1.1.1.1",
".1.1.1.1.1.1.1.1.1.1.1.1.1.1.1.1.1.1.1.1.1.1.1.1.1.1.1.1.1.1.1.1.1.g f.1.1 ^ G.1.1.1.1.1.1.1.1.1.1.1.1.1.1.1.1.1.1.1.1.1.1.1.1.1",
".1.1.1.1.1.1.1.1.1.1.1.1.1.1.1.1.1.1.1.1.1.1.1.1.1.1.1.1.1.1.1.1.1.1.f u d.2 @ %.w.1.1.1.1.1.1.1.1.1.1.1.1.1.1.1.1.1.1.1.1.1.1.1",
".1.1.1.1.1.1.1.1.1.1.1.1.1.1.1.1.1.1.1.1.1.1.1.1.1.1.1.1.1.1.1.1.1.1 s F q j p F.$.N.d.1.1.1.1.1.1.1.1.1.1.1.1.1.1.1.1.1.1.1.1.1",
".G r e y n a.1.1.1.1.1.1.1.1.1.1.1.1.1.1.1.1.1.1.1.1.1.1.1.1.1.1.1.1.1.1.#.=.1 Y.8 @ 1 e e.%.w.w.w.6.1.1.1.1.1.1.1.1.1.1.1.1.1.1",
" m.p.1.A i.O.1.1.1.1.1.1.1.1.1.1.1.1.1.1.1.1.1.1.1.1.1.1.1.1.1 U | | | | |.<.G.%.1 O |.6.1 s 7 7 7.X.F.1.1.1.1.1.1.1.1.1.1.1.1.1",
".u C.1.1.9 8.& E h.1.1.1.1.1.1.1.1.1.1.1.1.1.1.1.1.1.1.6 E * e ..f.f.f.f.f b.*.r.V.,.f.G E.G.l.N.1 k.q S.1.1.1.1.1.1.1.1.1.1.1.1",
" N ' C C C g p I.# U z.1.1.1.1.1.1.1.1.1.1.1.1.1.1 k K q I.v.1.1.1.1.1 x C C.:.1 x c % T I.F.+...M.1 O.=.1.1.1.1.1.1.1.1.1.1.1.1",
".1.f ] ].; u.$.1.1 R 4 w B.1.1.1.1.1.1.1.1.1.1.1 W.O !.1.1.1.1 O w w w.X ] ].t w c.1.@ (.1 # 9.3.j.1.1 $.m.1.1.1.1.1.1.1.1.1.1.1",
".1.1.1.1 p.4 d 4 k.1.2.4 } e e.@ * * * * * 2 e e P.2.1.7 * w e.C.4.4.4.2.1.1.2.4.X >.n.% e.h 3.= e.  K p ^ * *.f.1.1.1.1.1.1.1.1",
".1.1.1.1.1.1.1.i.+ + N.1.1.1.1 j.v.v.v.v.v.a.1.1.1.B 6 0.v.4.1.1.1.1.1.1.1.1.1.1.1.j &.Z.d 9 n.1.1 n ! e / ..v < ) p.1.1.1.1.1.1",
".1.1.1.1.1.1.1.1.1 J < e e.A x x x x p.1 p x x [ e ~.r.1.1.1.1.1.1.1.1.1.1.1.1.1.1.1.1 Q.- _ x x x x x k.N } e.M I.&.x.y.1.1.1.1",
".1.1.1.1.1.1.1.1.1.1.1.1.1 X.o.o.o.o 3 3 3.o.o V.1.1.1.1.1.1.1.1.1.1.1.1.1.1.1.1.1.1.1.1.1 X.o.o.o.o.o 4 3 3 j # v 4 4.o 3 O.1.1",
".1.1.1.1.1.1.1.1.1.1.1.1.1.1.1.1.1.1.p b.p.1.1.1.1.1.1.1.1.1.1.1.1.1.1.1.1.1.1.1.1.1.1.1.1.1.1.1.1.1.1 s b b.@ 9 ( '.$ l '.D & V",
".1.1.1.1.1.1.1.1.1.1.1.1.1.1.1.1.1.1.1.1.1.1.1.1.1.1.1.1.1.1.1.1.1.1.1.1.1.1.1.1.1.1.1.1.1.1.1.1.1.1.1.1.1.1.1 g.C.C.+.5 '.>.s y",
".1.1.1.1.1.1.1.1.1.1.1.1.1.1.1.1.1.1.1.1.1.1.1.1.1.1.1.1.1.1.1.1.1.1.1.1.1.1.1.1.1.1.1.1.1.1.1.1.1.1.1.1.1.1.1.1.1.1.1.7 - < D  "
};
