/* XPM */
static char *tijger-r[] = {
/* width height ncolors chars_per_pixel */
"64 43 239 2",
/* colors */
"   c #000000",
" . c #B1B1B1",
" X c #AFAFAF",
" o c #ADADAD",
" O c #ABABAB",
" + c #A9A9A9",
" @ c #A7A7A7",
" # c #A5A5A5",
" $ c #A3A3A3",
" % c #A1A1A1",
" & c #9F9F9F",
" * c #9D9D9D",
" = c #9B9B9B",
" - c #999999",
" ; c #979797",
" : c #959595",
" > c #939393",
" , c #919191",
" < c #8F8F8F",
" 1 c #8B8B8B",
" 2 c #898989",
" 3 c #878787",
" 4 c #858585",
" 5 c #838383",
" 6 c #818181",
" 7 c #7F7F7F",
" 8 c #7D7D7D",
" 9 c #7B7B7B",
" 0 c #797979",
" q c #777777",
" w c #757575",
" e c #737373",
" r c #717171",
" t c #6F6F6F",
" y c #6D6D6D",
" u c #6B6B6B",
" i c #696969",
" p c #676767",
" a c #656565",
" s c #636363",
" d c #616161",
" f c #5F5F5F",
" g c #5D5D5D",
" h c #5B5B5B",
" j c #595959",
" k c #575757",
" l c #535353",
" z c #515151",
" x c #4F4F4F",
" c c #4D4D4D",
" v c #FEFEFE",
" b c #4B4B4B",
" n c #FCFCFC",
" m c #494949",
" M c #FAFAFA",
" N c #474747",
" B c #F8F8F8",
" V c #454545",
" C c #F6F6F6",
" Z c #434343",
" A c #F4F4F4",
" S c #F2F2F2",
" D c #3F3F3F",
" F c #F0F0F0",
" G c #3D3D3D",
" H c #EEEEEE",
" J c #3B3B3B",
" K c #ECECEC",
" L c #393939",
" P c #EAEAEA",
" I c #373737",
" U c #353535",
" Y c #E6E6E6",
" T c #333333",
" R c #E4E4E4",
" E c #313131",
" W c #E2E2E2",
" Q c #2F2F2F",
" ! c #E0E0E0",
" ~ c #2D2D2D",
" ^ c #DEDEDE",
" / c #2B2B2B",
" ( c #DCDCDC",
" ) c #292929",
" _ c #DADADA",
" ` c #272727",
" ' c #D8D8D8",
" ] c #252525",
" [ c #D6D6D6",
" { c #D4D4D4",
" } c #212121",
" | c #D2D2D2",
".  c #1F1F1F",
".. c #D0D0D0",
".X c #1D1D1D",
".o c #CECECE",
".O c #1B1B1B",
".+ c #CCCCCC",
".@ c #191919",
".# c #CACACA",
".$ c #171717",
".% c #C8C8C8",
".& c #C6C6C6",
".* c #131313",
".= c #C4C4C4",
".- c #111111",
".; c #C2C2C2",
".: c #C0C0C0",
".> c #0D0D0D",
"., c #BEBEBE",
".< c #0B0B0B",
".1 c #BCBCBC",
".2 c #090909",
".3 c #BABABA",
".4 c #070707",
".5 c #B8B8B8",
".6 c #050505",
".7 c #B6B6B6",
".8 c #030303",
".9 c #B4B4B4",
".0 c #010101",
".q c #B2B2B2",
".w c #B0B0B0",
".e c #AEAEAE",
".r c #ACACAC",
".t c #AAAAAA",
".y c #A8A8A8",
".u c #A6A6A6",
".i c #A4A4A4",
".p c #A2A2A2",
".a c #9E9E9E",
".s c #9C9C9C",
".d c #9A9A9A",
".f c #989898",
".g c #969696",
".h c #949494",
".j c #909090",
".k c #8E8E8E",
".l c #8C8C8C",
".z c #8A8A8A",
".x c #888888",
".c c #868686",
".v c #848484",
".b c #828282",
".n c #7C7C7C",
".m c #7A7A7A",
".M c #787878",
".N c #767676",
".B c #747474",
".V c #727272",
".C c #707070",
".Z c #6E6E6E",
".A c #6C6C6C",
".S c #6A6A6A",
".D c #686868",
".F c #666666",
".G c #646464",
".H c #626262",
".J c #5E5E5E",
".K c #5C5C5C",
".L c #5A5A5A",
".P c #585858",
".I c #565656",
".U c #545454",
".Y c #525252",
".T c #505050",
".R c #4E4E4E",
".E c #FFFFFF",
".W c #4C4C4C",
".Q c #FDFDFD",
".! c #4A4A4A",
".~ c #FBFBFB",
".^ c #484848",
"./ c #F9F9F9",
".( c #464646",
".) c #F7F7F7",
"._ c #444444",
".` c #F5F5F5",
".' c #F3F3F3",
".] c #404040",
".[ c #F1F1F1",
".{ c #3E3E3E",
".} c #EFEFEF",
".| c #EDEDED",
"X  c #3A3A3A",
"X. c #EBEBEB",
"XX c #383838",
"Xo c #E9E9E9",
"XO c #363636",
"X+ c #E7E7E7",
"X@ c #343434",
"X# c #E5E5E5",
"X$ c #323232",
"X% c #E3E3E3",
"X& c #303030",
"X* c #E1E1E1",
"X= c #2E2E2E",
"X- c #DFDFDF",
"X; c #2C2C2C",
"X: c #DDDDDD",
"X> c #2A2A2A",
"X, c #DBDBDB",
"X< c #282828",
"X1 c #D9D9D9",
"X2 c #262626",
"X3 c #D7D7D7",
"X4 c #242424",
"X5 c #D5D5D5",
"X6 c #222222",
"X7 c #202020",
"X8 c #D1D1D1",
"X9 c #1E1E1E",
"X0 c #CFCFCF",
"Xq c #1C1C1C",
"Xw c #CDCDCD",
"Xe c #1A1A1A",
"Xr c #CBCBCB",
"Xt c #181818",
"Xy c #C9C9C9",
"Xu c #161616",
"Xi c #C7C7C7",
"Xp c #141414",
"Xa c #C5C5C5",
"Xs c #121212",
"Xd c #C3C3C3",
"Xf c #C1C1C1",
"Xg c #BFBFBF",
"Xh c #0C0C0C",
"Xj c #BDBDBD",
"Xk c #0A0A0A",
"Xl c #BBBBBB",
"Xz c #080808",
"Xx c #B9B9B9",
"Xc c #060606",
"Xv c #B7B7B7",
"Xb c #040404",
"Xn c #B5B5B5",
"Xm c #020202",
"XM c #B3B3B3",
/* pixels */
".E.E.E.E.E.E.E.E.E.E.E.E.E.E.E.E.E.E.E.E.E.E.E.E.E.E.E.E.E.E.E.E.E.E.E.E.E.E.E.E.E.E.E.E.E.E.E.E.E.E.E.E.E.E.E.E.E.E.E.E.E.E.E.E",
".E.E.E.E.E.E.E.E.E.E.E.E.E.E.E.E.E.E.E.E.E.E.E.E.E.E.E.E.E.E.E.E.E.E.E.E.E.E.E.E.E.E.E.E.E.E.E.E.E.E.E.E.E.E.E.E.E.E.E.E.E.E.E.E",
".E.E.E.E.E.E.E.E.E.E.E.E.E.E.E.E.E.E.E.E.E.E.E.E.E.E.E.E.E.E.E.E.E.E.E.E.E.E.E.E.E.E.E.E.E.E.E.E.E.E.E.E.E.E.E.E.E.E.E.E.E.E.E.E",
".E.E.E.E.E.E.E.E.E.E.E.E.E.E.E.E.E.E.E.E.E.E.E.E.E.E.E.E.E.E.E.E.E.E.E.E.E.E.E.E.E.E.E.E.E.E.E.E.E.E.E.E.E.E.E.E.E.E.E.E.E.E.E.E",
".E.E.E.E.E.E.E.E.E.E.E.E.E.E.E.E.E.E.E.E.E.E.E.E.E.E.E.E.E.E.E.E.E.E.E.E.E.E.E.E.E.E.E.E.E.E.E.E.E.E.E.E.E.E.E.E.E.E.E.E.E.E.E.E",
".E.E.E.E.E.E.E.E.E.E.E.E.E.E.E.E.E.E.E.E.E.E.E.E.E.E.E.E.E.E.E.E.E.E.E.E.E.E.E.E.E.E.E.E.E.E.E.E.E.E.E.E.E.E.E.E.E.E.E.E.E.E.E.E",
".E.E.E.E.E.E.E.E.E.E.E.E.E.E.E.E.E.E.E.E.E.E.E.E.E.E.E.E.E.E.E.E.E.E.E.E.E.E.E.E.E.E.E.E.E.E.E.E.E.E.E.E.E.E.E.E.E.E.E.E.E.E.E.E",
".E.E.E.E.E.E.E.E.E.E.E.E.E.E.E.E.E.E.E.E.E.E.E.E.E.E.E.E.E.E.E.E.E.E.E.E.E.E.E.E.E.E.E.E.E.E.E.E.E.E.E.E.E.E.E.E.E.E.E.E.E.E.E.E",
".E.E.E.E.E.E.E.E.E.E.E.E.E.E.E.E.E.E.E.E.E.E.E.E.E.E.E.E.E.E.E.E.E.E.E.E.E.E.E.E.E.E.E.E.E.E.E.E.E.E.E.E.E.E.E.E.E.E.E.E.E.E.E.E",
".E.E.E.E.E.E.E.E.E.E.E.E.E.E.E.E.E.E.E.E.E.E.E.E.E.E.E.E.E.E.E.E.E.E.E.E.E.E.E.E.E.E.E.E.E.E.E.E.E.E.E.E.E.E.E.E.E.E.E.E.E.E.E.E",
".E.E.E.E.E.E.E.E.E.E.E.E.E.E.E.E.E.E.E.E.E.E.E.E.E.E.E.E.E.E.E.E.E.E.E.E.E.E.E.E.E.E.E.E.E.E.E.E.E.E.E.E.E.E.E.E.E.E.E.E.E.E.E.E",
".E.E.E.E.E.E.E.E.E.E.E.E.E.E.E.EX, <.C w bX7.<Xt.XXu.<Xp b b s 1XMX8.E.E.E.E.E.EXw , (.E.E.E.E.E.E.E.E.E.E.E.E.E.E.E.E.E.E.E.E.E",
".E.E.E.E.E.E.E.E.E.E.E.E.E.E.N.]X4.X  X3.*XzXb.YX$ 3 L kX X<X6.X ~.0Xh T.W e.c IX9  Xb.IXa.E.E.E.E.E.E.E.E.E.E.E.E.E.E.E.E.E.E.E",
".E.E.E.E.E.E.E.E.E.E.E.E ( l._   ~ 8 / v z p T.K.G H w V : b z 2.J jX9.R   4.-Xt 6  .2.*.0Xs c r % (.E.E.E.E.E.E.E.E.E.E.E.E.E.E",
".E.E.E.E.E.E.E.E.E.E.E.q.<X@.M ~ h I.c [.j.S XXu.m.b.;Xh b aXs O T 0 1.C L.J.{X;.sX .@.!X4Xe /    .4.V.`.E.E.Q X.E.E.E.E.E.E.E.E",
".E.E.E.E.E.E.E.E.E.E.o.lXe.Z.lX&.1  X1 7.:X2 B.RXa 1 0 p.W.g ` 0.(.m.qXpXg.P.! 7.lXh.$ jXpXpX    xX5.R /.V.l q.J.E.E.E.E.E.E.E.E",
".E.E.E.E.E.E.E.E.E.E D f  X4XyX9 |X=.u q 'XbXo $ 9 c L @X2.TXM T.A.a ,X$X0.x jX3X3._  .U.D g uX7X0./ ) p  Xm.e.v.E.E.E.E.E.E.E.E",
".E.E.E.E.E.E.E.E.EXg.8Xh ]Xt.) J.} D 7 7.9.WXj ^ u.{X&XwX; Z {Xk.I KX<XiXo 5.=.`.gXw E.U $ ` = fX0.).b ]X>Xc.r.K.M.E.E.E.E.E.E.E",
".E.E.E.E.E.E.E.E.E.Y.> u s V./X4.}.c 7 >.T.5.p.E 7 x._ W G sXa a ~Xn I ..E D B.j 5Xr.] U C b...N.7 A x.F.<Xm.N EXk.h.E.E.E.E.E.E",
".E.E.E.E.E.E.E.E.E t y.w +.+ 4 s M M d.7.8 > |.E 7.&Xp.}.! < K jX$ % w r.|Xh.o.O q ( 1Xv.[ y.NX5.W.3X$XX b.S.( ] J.(.E.E.E.E.E.E",
".E.E.E.E.E.E.E.E.E.2  .9Xg.E -.~.E KXk.Y.*  .x.E.`.E Q A 0 t.E.j.! %.].K +   D } # O 9 !Xi y.(Xn f.cX< JX# $ g.pX4.L o.E.E.E.E.E",
".E.E.E.E.E.E.E.E.E.2 }.k X.EXoX0.E.s ZX2.n  .8.d.E.E V.=Xi.p.EX- Q PXO.K.#.L   o.y z.v l.H b.].j.E r T D 7 7 T.Y.W.o.!.E.E.E.E.E",
".E.E.E.E.E.E.E.E.E h ( ;Xv.E.E XXl.<.@.4Xd ~  X9 + { i.} nXj.E KXe K.s.Y.E.=Xe '.1.N.=.4 N.@.f 4.VX2.> d.l.H m U.q.~X; F.E.E.E.E",
".E.E.E.E.E.E.E.E.E.r ]. .! F.E 4 ` 9 H.j.!.g ] Y.E P 5 _.E./.E.E i.E.1XO.E A %.~ ; _ BXq D f.Y.n.+ =.0.m % E e 0 M n.r.E.E.E.E.E",
".E.E.E.E.E.E.E.E.E.E.K.  8X4 |.9.).E.E ^.6.p.[.E.E.E.E RXgXgX0 '.r 'Xg.k ' +.~.E X.(.^ f R.E.E.E.E v 9X&.).&.i h % #X..E.E.E.E.E",
".E.E.E.E.E.E.E.E.).CX9 p.<   ] 3.Q.5 +Xx.B.).E.E.E.E.E.E.E.E.} Y Y Y #X:.y m./X0 7 ;.( F.E.E.E.E.E.E v.j.t.% [.d P.q.E.E.E.E.E.E",
".E.E.E.E.E.E.E.E.N.O '.E !X@ N  .C ..U #.Q.E.E.E.E.E.E.E.E.E.E.E.E.EXg CX8 }X1.QXg #.w.E.E.E.E.E.E.E.E.E.E.E.E B.;./.E.E.E.E.E.E",
".E.E.E.E.E.E.E.EXv r v.E...v.MXm.e   ` %.'.E.E.E.E.E.E.E.E.E.E.E.E.EXgXd.T b.:.' d ]Xd.E.E.E.E.E.E.E.E.E.E.E.E.E.E.E.E.E.E.E.E.E",
".E.E.E.E.E.E.E.E * S.EXy ^.7.E.1 D  .vX9X2 q.u ( (.;Xn P.E.E.E.E.E.EXg.E H.= ..E | :X5.E.E.E.E.E.E.E.E.E.E.E.E.E.E.E.E.E.E.E.E.E",
".E.E.E.E.E.E.E.EXg.E.EXg.E.5.EX+XX <.zXq c.<.6.F D  .> k 1.~.E.E.E.EXg.E.E &Xg.E n.x F.E.E.E.E.E.E.E.E.E.E.E.E.E.E.E.E.E.E.E.E.E",
".E.E.E.E.E.E.E.EXg.E.. H.E | K.: ] y.E M.7.c.K 7X4 }.I.N U.|.E.E.E A.#.E H..Xg.E <X9.E.E.E.E.E.E.E.E.E.E.E.E.E.E.E.E.E.E.E.E.E.E",
".E.E.E.E.E.E.E.EXg.E.# A.E.EXg P !.^ A.E.E.E.E.E.E.E.E.E.E.E.E.E.EX#X1.E R _Xg.E A.q.E.E.E.E.E.E.E.E.E.E.E.E.E.E.E.E.E.E.E.E.E.E",
".E.E.E.E.E.E.E.EXg.E B.w C.E.o F.E.q.1.E.E.E.E.E.E.E.E.E.E.E.E.E.E.EXg.E.`Xy.= M.E.1 M.E.E.E.E.E.E.E.E.E.E.E.E.E.E.E.E.E.E.E.E.E",
".E.E.E.E.E.E.E.EXoX5.EX-XlXf.EXg.E.EXrXg.q.E.E.E.E.E.E.E.E.E.E.E.E.E.1X..E...5.,.E H.sX*X%.E.E.E.E.E.E.E.E.E.E.E.E.E.E.E.E.E.E.E",
".E.E.E.E.E.E.E.E.EX1XgX0X,XM.E _Xg.o.Q.EXf.|.E.E.E.E.E.E.E.E.E.E.E.E.~.d.E.EXiXd {.E nX:.&X8.E.E.E.E.E.E.E.E.E.E.E.E.E.E.E.E.E.E",
".E.E.E.E.E.E.E.E.E.E.E.}X%.E.E.E.E FXfXg.= n.E.E.E.E.E.E.E.E.E.E.E.E.E.}XgXg ' M.. XX: ^Xn.:.E.E.E.E.E.E.E.E.E.E.E.E.E.E.E.E.E.E",
".E.E.E.E.E.E.E.E.E.E.E.E.E.E.E.E.E.E.E.E.E.E.E.E.E.E.E.E.E.E.E.E.E.E.E.E.E.E.E.E.E.EX*X,./.E.E.E.E.E.E.E.E.E.E.E.E.E.E.E.E.E.E.E",
".E.E.E.E.E.E.E.E.E.E.E.E.E.E.E.E.E.E.E.E.E.E.E.E.E.E.E.E.E.E.E.E.E.E.E.E.E.E.E.E.E.E.E.E.E.E.E.E.E.E.E.E.E.E.E.E.E.E.E.E.E.E.E.E",
".E.E.E.E.E.E.E.E.E.E.E.E.E.E.E.E.E.E.E.E.E.E.E.E.E.E.E.E.E.E.E.E.E.E.E.E.E.E.E.E.E.E.E.E.E.E.E.E.E.E.E.E.E.E.E.E.E.E.E.E.E.E.E.E",
".E.E.E.E.E.E.E.E.E.E.E.E.E.E.E.E.E.E.E.E.E.E.E.E.E.E.E.E.E.E.E.E.E.E.E.E.E.E.E.E.E.E.E.E.E.E.E.E.E.E.E.E.E.E.E.E.E.E.E.E.E.E.E.E",
".E.E.E.E.E.E.E.E.E.E.E.E.E.E.E.E.E.E.E.E.E.E.E.E.E.E.E.E.E.E.E.E.E.E.E.E.E.E.E.E.E.E.E.E.E.E.E.E.E.E.E.E.E.E.E.E.E.E.E.E.E.E.E.E",
".E.E.E.E.E.E.E.E.E.E.E.E.E.E.E.E.E.E.E.E.E.E.E.E.E.E.E.E.E.E.E.E.E.E.E.E.E.E.E.E.E.E.E.E.E.E.E.E.E.E.E.E.E.E.E.E.E.E.E.E.E.E.E.E",
".E.E.E.E.E.E.E.E.E.E.E.E.E.E.E.E.E.E.E.E.E.E.E.E.E.E.E.E.E.E.E.E.E.E.E.E.E.E.E.E.E.E.E.E.E.E.E.E.E.E.E.E.E.E.E.E.E.E.E.E.E.E.E.E"
};
