/* XPM */
static char *tijger-r[] = {
/* width height ncolors chars_per_pixel */
"64 32 250 2",
/* colors */
"   c #000000",
" . c #B1B1B1",
" X c #AFAFAF",
" o c #ADADAD",
" O c #ABABAB",
" + c #A9A9A9",
" @ c #A7A7A7",
" # c #A5A5A5",
" $ c #A3A3A3",
" % c #A1A1A1",
" & c #9F9F9F",
" * c #9D9D9D",
" = c #9B9B9B",
" - c #999999",
" ; c #959595",
" : c #939393",
" > c #919191",
" , c #8D8D8D",
" < c #8B8B8B",
" 1 c #898989",
" 2 c #878787",
" 3 c #858585",
" 4 c #838383",
" 5 c #818181",
" 6 c #7F7F7F",
" 7 c #7D7D7D",
" 8 c #7B7B7B",
" 9 c #797979",
" 0 c #777777",
" q c #757575",
" w c #737373",
" e c #717171",
" r c #6F6F6F",
" t c #6D6D6D",
" y c #6B6B6B",
" u c #696969",
" i c #676767",
" p c #656565",
" a c #636363",
" s c #616161",
" d c #5F5F5F",
" f c #5D5D5D",
" g c #5B5B5B",
" h c #595959",
" j c #575757",
" k c #555555",
" l c #535353",
" z c #515151",
" x c #4F4F4F",
" c c #4D4D4D",
" v c #FEFEFE",
" b c #4B4B4B",
" n c #FCFCFC",
" m c #494949",
" M c #FAFAFA",
" N c #474747",
" B c #F8F8F8",
" V c #454545",
" C c #F6F6F6",
" Z c #434343",
" A c #F4F4F4",
" S c #414141",
" D c #F2F2F2",
" F c #3F3F3F",
" G c #F0F0F0",
" H c #3D3D3D",
" J c #EEEEEE",
" K c #3B3B3B",
" L c #ECECEC",
" P c #393939",
" I c #EAEAEA",
" U c #373737",
" Y c #E8E8E8",
" T c #353535",
" R c #E6E6E6",
" E c #333333",
" W c #E4E4E4",
" Q c #313131",
" ! c #E2E2E2",
" ~ c #2F2F2F",
" ^ c #E0E0E0",
" / c #2D2D2D",
" ( c #DEDEDE",
" ) c #2B2B2B",
" _ c #DCDCDC",
" ` c #292929",
" ' c #DADADA",
" ] c #272727",
" [ c #D8D8D8",
" { c #252525",
" } c #D6D6D6",
" | c #232323",
".  c #D4D4D4",
".. c #212121",
".X c #D2D2D2",
".o c #1F1F1F",
".O c #D0D0D0",
".+ c #1D1D1D",
".@ c #CECECE",
".# c #1B1B1B",
".$ c #CCCCCC",
".% c #191919",
".& c #CACACA",
".* c #171717",
".= c #C8C8C8",
".- c #151515",
".; c #C6C6C6",
".: c #131313",
".> c #C4C4C4",
"., c #111111",
".< c #C2C2C2",
".1 c #0F0F0F",
".2 c #C0C0C0",
".3 c #0D0D0D",
".4 c #BEBEBE",
".5 c #0B0B0B",
".6 c #BCBCBC",
".7 c #090909",
".8 c #BABABA",
".9 c #070707",
".0 c #B8B8B8",
".q c #050505",
".w c #B6B6B6",
".e c #030303",
".r c #B4B4B4",
".t c #010101",
".y c #B2B2B2",
".u c #B0B0B0",
".i c #AEAEAE",
".p c #ACACAC",
".a c #AAAAAA",
".s c #A8A8A8",
".d c #A6A6A6",
".f c #A4A4A4",
".g c #A2A2A2",
".h c #A0A0A0",
".j c #9E9E9E",
".k c #9C9C9C",
".l c #989898",
".z c #969696",
".x c #949494",
".c c #929292",
".v c #909090",
".b c #8E8E8E",
".n c #8C8C8C",
".m c #8A8A8A",
".M c #888888",
".N c #868686",
".B c #828282",
".V c #808080",
".C c #7E7E7E",
".Z c #7C7C7C",
".A c #7A7A7A",
".S c #787878",
".D c #767676",
".F c #747474",
".G c #727272",
".H c #707070",
".J c #6E6E6E",
".K c #6C6C6C",
".L c #6A6A6A",
".P c #686868",
".I c #666666",
".U c #646464",
".Y c #626262",
".T c #606060",
".R c #5E5E5E",
".E c #5C5C5C",
".W c #5A5A5A",
".Q c #585858",
".! c #565656",
".~ c #545454",
".^ c #525252",
"./ c #505050",
".( c #4E4E4E",
".) c #FFFFFF",
"._ c #4C4C4C",
".` c #FDFDFD",
".' c #4A4A4A",
".] c #FBFBFB",
".[ c #484848",
".{ c #F9F9F9",
".} c #464646",
".| c #F7F7F7",
"X  c #444444",
"X. c #F5F5F5",
"XX c #424242",
"Xo c #F3F3F3",
"XO c #404040",
"X+ c #F1F1F1",
"X@ c #3E3E3E",
"X# c #EFEFEF",
"X$ c #3C3C3C",
"X% c #EDEDED",
"X& c #3A3A3A",
"X* c #EBEBEB",
"X= c #383838",
"X- c #E9E9E9",
"X; c #363636",
"X: c #E7E7E7",
"X> c #343434",
"X, c #E5E5E5",
"X< c #323232",
"X1 c #E3E3E3",
"X2 c #303030",
"X3 c #E1E1E1",
"X4 c #2E2E2E",
"X5 c #DFDFDF",
"X6 c #2C2C2C",
"X7 c #DDDDDD",
"X8 c #2A2A2A",
"X9 c #DBDBDB",
"X0 c #282828",
"Xq c #D9D9D9",
"Xw c #262626",
"Xe c #D7D7D7",
"Xr c #242424",
"Xt c #D5D5D5",
"Xy c #222222",
"Xu c #202020",
"Xi c #1E1E1E",
"Xp c #CFCFCF",
"Xa c #1C1C1C",
"Xs c #CDCDCD",
"Xd c #1A1A1A",
"Xf c #CBCBCB",
"Xg c #181818",
"Xh c #C9C9C9",
"Xj c #161616",
"Xk c #C7C7C7",
"Xl c #141414",
"Xz c #C5C5C5",
"Xx c #121212",
"Xc c #C3C3C3",
"Xv c #101010",
"Xb c #C1C1C1",
"Xn c #0E0E0E",
"Xm c #BFBFBF",
"XM c #0C0C0C",
"XN c #BDBDBD",
"XB c #0A0A0A",
"XV c #BBBBBB",
"XC c #080808",
"XZ c #B9B9B9",
"XA c #060606",
"XS c #B7B7B7",
"XD c #040404",
"XF c #B5B5B5",
"XG c #020202",
"XH c #B3B3B3",
/* pixels */
".).).).).).).).).).)X..0.h.R w./X<    .q  Xi    .,./././ ,.h.@ G M.).).).).).).) D.s. .].).).).).).).).).).).).).).).).).).).).)",
".).).).).).).)X+.j 8 PXG.9XjX7.5       jXG 7XC wXiXx.eX&XD.q.:   / S 5 > +X3.2.U.#    X>XF M.).).).).).).).).).).).).).).).).).)",
".).).).).).)XN.K    Xi KX$ h.)X;.9.T  .nXy M o zX;.z Q.v |.~ y.e ]X;Xg   {X8  X0 x         ` 9.r.X A.).).).).).).).).).).).).).)",
".).).).).) #XB O ~Xv.^ dX4 ;.).G.1X7XM.T.UXh.<.[X8.H -.[ | +._.~.s ` V   P -.:X0XN  .:.'XnXM.9.:  Xd Q w.@.).).).).).).).).).).)",
".).).).).G  X; qX0.} eX=.-X%XS X.1.) aXg.g.h.^.0  ./ 2  .~ :XnX& vX@.N gXA.h./.e.rXC uXn.[Xl |./         T.L.).).).) R.M.).).).)",
".).).) % <XA *.W f.}X5  .Q.) d W  .6 JXdXs GXC ' K h 2 T w f.^Xa n f.#Xb p.( 3.^.g.tX>  .DXvXD.# T   ~.y.$XG ` 8 #.D w.U.).).).)",
".).)Xe c.G   P 2.S F.{  .aXb d.)  .J.) w.A #   @ i ~.#.r &Xd r.^ +.u   _XhXDXZ.sXeXX     w iXw.U e  Xs.)XbXw p     E.p @.).).).)",
".).) qXiXD    .SXmXD A K.h.B PX: b.Y.).y b.I.3.^X,.- F $.<   y.a.h.c.H.|.H.J ' CX7 GX&   w 1  .h @XiXs.).H.T.:Xy   3Xt k }.).).)",
".) RXC  X8 m {XV.).%X..E.h.B.J.D.&Xi.)X1.!.W.0X0. .q :.U.n.,.o.|.E ) D.).'.>.).$ H.O ;   wX:...h $X6Xs.) D U xXd  Xg XXM.+ }.).)",
".) rX&  .l S q -XsXGX. ..h.B.J...{.^X+.) d.K.YX0.).%.h.A.n *Xx G ) H.X.).U.x.).Q 6.).R ZX&Xo *XX.) j OX5 # x.T.5.5 F.R.(XvX6.|.)",
".).Y I ~ Y :.].p.[ a.] v [ i.g   aX, (.) d B ~ Z.)Xd 1X, @ wXl G.R S -.)X2.W.$XG.NXH >Xb #X#.4   WXm.! @ m.N.eX X<.Z U ) Z..Xb.)",
".) S    X* X.) + #.).).).N.1.M.t   E.].).O.).z.G.) r.+.)X. FXd CXnXX 7XtXA./XXXa.6 0 M qX+X:.4  .m RX<XzXM.!XB.X OX2 wXm ~ N.A.{",
".) S    Xk X.).) - n.) nX>.5X= k    .I M.).) %XjX%XcX .).).8X=.` ~X6 7XcXBXd   1.= ]X..5.w 0.4  ./.4XpXV  .h.%Xh.0.,.hX Xi.0.3.$",
".) z.7 $.c.z.).)X. +.).y.5.v.7XhXv    .I _.) R.. B.) r.).)Xs  XkX,.3 7 A.=.e.-X..0  XfX@ P ~X Xv./.4.)Xc  .R.%.z.SXX.^ ~.E.).T >",
".) # ,.) t O.).).).dXZ.7.7.5  .i 7     UXH.r. .!.).) X.).)X-.,.@.) S u.).).F.%.) ( > [.SXD hXa.c.J.x N.*   h S.dXAXb.# V.a.) = b",
".) I.* KXMXXX-.).).LXCXwX5Xo i UX*  X  B.) MXS.H.).) M.).).) N.{.).W.}.).).u.<.).g (.)Xs   ].T.:XO wXkX7XMXM.k .   H.M s.].) # L",
".).)Xk.5.7 f KXS n 4X1.).).).<.t % &.).).).).) D X XXqX+.).) =.).) :XS.).) X.).).V.5.P.AX2 ..).).).).).)XSXA p.) n ; G F @.a.a.)",
".).].J P E SXxXB.D J.)X7XZ.)Xp.3.v.).).).).).).).).)XtXN X X X X X d X X * o.) [X+X% pXg G.).).).).).).).).rXx [.N.h.a aX9 X.).)",
" I SXC.CXc.}   N.9 Z (.] 3 *.D.8.).).).).).).).).).).).).).).).).) X.).kXl 4.).@X2X<XrXh.).).).).).).).).).) [.r Y.).) @Xm.b.).)",
" e K.G.).) v 5 U.o  .D.YXVX4 _.).).).).).).).).).).).).).).).).).]XH L.|.Y g.).) L _.l.).).).).).).).).).).).).).).).).) W.{.).)",
" X.WX,.).)X, % pX2   G  XA.EXk.).).).).).).).).).).).).).).).).) G.4 *XO.U.R.)X:.U T Z.).).).).).).).).).).).).).).).).).).).).)",
" %.d.).)Xf.u.2X%X* pXr  Xv e.5 U.aX. M.).).)X..`.).).).).).).).)XqXt v.@.a.G.) v #.W q.).).).).).).).).).).).).).).).).).).).).)",
" X.).).{XF.).z.).) !.UX$ f b   l..  Xy.~.B Z   U.HX,.).).).).).) X.).).) ^ x.).).) B.i.).).).).).).).).).).).).).).).).).).).).)",
" X.).).2 J.) (.O.) G.T j.) +.UXu.,  X4.XXy  XD iXHX=.X.).).).).) X.).).).lXS A.) C z #.).).).).).).).).).).).).).).).).).).).).)",
" X.).) X.).).) X.).MXnXv D.).) R.X 2 i r U U K d.! U.X.).).).).) X.).).) XX.XZ.).z  .w.).).).).).).).).).).).).).).).).).).).).)",
" X.).) X.).).).XX7 Y R w.x.).).).).).).).).).).).).).).).).).).) X.).).) XX.XZ.) M @X..).).).).).).).).).).).).).).).).).).).).)",
" X.).).6 D.).).) X.).)Xp.W.).).).).).).).).).).).).).).).).).).).u v.).) X B.w.).).8 A.).).).).).).).).).).).).).).).).).).).).)",
".& W.)X9 +.iX7.)XzX-.).).8 %.4X+.).).).).).).).).).).).).).).).)X+.f.).).O.XXzX-.).).Z.{.).).).).).).).).).).).).).).).).).).).)",
".).; Y.).).` 3.).) # v.).).) G.V A.).).).).).).).).).).).).).).).).pX-.).).a.d.8 M.)X- * X.sX:.).).).).).).).).).).).).).).).).)",
".) M.w XXb.$.v.).)X,.u . W.).)X+ X.).).).).).).).).).).).).).).).) G.n.).)X%.cX*Xc.).).).) C.a.).).).).).).).).).).).).).).).).)",
".).).).)X% !.).).).).).`.& X X X C.).).).).).).).).).).).).).).).).)X: X XXb W.)Xf &. .) C.4.b.).).).).).).).).).).).).).).).).)",
".).).).).).).).).).).).).).).).).).).).).).).).).).).).).).).).).).).).).).).).).) C #.1.3.;.{.).).).).).).).).).).).).).).).).)"
};
