/* XPM */
static char *trein-r[] = {
/* width height ncolors chars_per_pixel */
"64 28 50 1",
/* colors */
"  c #000000",
". c #ADADAD",
"X c #ABABAB",
"o c #A9A9A9",
"O c #A7A7A7",
"+ c #919191",
"@ c #8F8F8F",
"# c #8D8D8D",
"$ c #737373",
"% c #717171",
"& c #575757",
"* c #555555",
"= c #535353",
"- c #FEFEFE",
"; c #FCFCFC",
": c #3D3D3D",
"> c #3B3B3B",
", c #393939",
"< c #373737",
"1 c #E4E4E4",
"2 c #E2E2E2",
"3 c #1D1D1D",
"4 c #C8C8C8",
"5 c #C6C6C6",
"6 c #C4C4C4",
"7 c #010101",
"8 c #ACACAC",
"9 c #AAAAAA",
"0 c #A8A8A8",
"q c #A6A6A6",
"w c #909090",
"e c #8E8E8E",
"r c #8C8C8C",
"t c #727272",
"y c #707070",
"u c #6E6E6E",
"i c #585858",
"p c #565656",
"a c #545454",
"s c #FFFFFF",
"d c #FDFDFD",
"f c #3A3A3A",
"g c #383838",
"h c #E3E3E3",
"j c #1E1E1E",
"k c #1C1C1C",
"l c #C9C9C9",
"z c #C7C7C7",
"x c #C5C5C5",
"c c #020202",
/* pixels */
"sssssssssssss599zsssssssssssssssssssssssssssssssssssssssssssssss",
"sssssssssss#*k  3**pssssssssssssssssssssssssssssssssssssssssssss",
"sssssssss5*5pxp-**tg*e99ssssssssssssssssssssssssssssssssssssssss",
"ssssssss53s#33zsss2g@59g*zssssssssssssssssssssssssssssssssssssss",
"ssssssss#zs*%Xsssss5g,gXs#g,*e9hssssssssssssssssssssssssssssssss",
"sssssssezss5 Xssss53oXoXss08s59%*pssssssssssssssssssssssssssssss",
"ssssh%********g ***zotyX9X08sssss-*af99hssssssssssssssssssssssss",
"ssss%hss***zs-gt*zss299h9ottsssssss-999%@sssssssssssssssssssssss",
"sss*  se,oyXs- XoXsssss-5ss*ssssssssssssx&ohssssssssssssssssssss",
"sss*XXsst7XhssXhoXsssssse*s*sssssssssssss-yf@--sssssssssssssssss",
"sss*sssssssssssso%ohsssss*s*ssssssssssssssx@x*jeo9ssssssssssssss",
"sss*essssssssd**g7%,**e--*s*sssssssssssssss*s;i5X9**w-ssssssssss",
"sss*9%ssssss#&sso9psss5p,>saohsssssssssssss#zsO.ssss6&oozsssssss",
"sss*hf#sa*s-pssso9psssss08saX%**@---sssssss;is2tsssss-XX#&---sss",
"sss*sst2,,s*ssssoXoXssss08s*ssssxpp&oo5ssss;iss*sssssssssdppp@o1",
"ss-*--og 7*jssssoXoXssss0X-*sssssss-XXe**&-;iss*---ssssssssss5X1",
"ss3ppppptoooooooyXoXssss0f@*sssssssssssssdpz$hs=pp$ooozsssssssss",
"ss*sss--299XXXXXXhoXssss08s*ssssssssssssssssO.sx@s2XXX#***w--sss",
"ss*ssx33yf,%ssssssoXsss-&ss*ssssssssssssssssO.s;isssssssss6p+sss",
"ss*s5kzz,hh,esssssoX---d&ss*ssssssssssssssssO.s;isssssssssssssss",
"ss*s535x,%og@sssssseppp*,oogo9ssssssssssssssO.s;isssssssssssssss",
"ss3asz33hXXXsssr***5--sdf99,XfssssssssssssssO.sr4sssssssssssssss",
"sss*ssssssssss2tss5p 7sapp@*sa5sssssssssssssO.s#zsssssssssssssss",
"ssspa*--------09---r>,-*sss*sxj*******aa*aaag.s;i-ssssssssssssss",
"sssst2&&&&&&&&&&f ,gse3isssa00000000uX,cx3+a0000uc0000000000005s",
"ssssht-ssssssssshf7c--pssssz88889999yXq7=k=3999gcccccc:8888888ls",
"ssssssg0000000000O,<,O,00000000O&&&&&&&&&&&&&&&lssssssssssssssss",
"ssssss88t       f88888888888888.ssssssssssssssssssssssssssssssss"
};
