/* XPM */
static char *trein-r[] = {
/* width height ncolors chars_per_pixel */
"64 29 200 2",
/* colors */
"   c #000000",
" . c #B1B1B1",
" X c #AFAFAF",
" o c #A7A7A7",
" O c #A5A5A5",
" + c #A3A3A3",
" @ c #9B9B9B",
" # c #999999",
" $ c #979797",
" % c #939393",
" & c #919191",
" * c #8F8F8F",
" = c #8D8D8D",
" - c #898989",
" ; c #878787",
" : c #858585",
" > c #838383",
" , c #818181",
" < c #7F7F7F",
" 1 c #7D7D7D",
" 2 c #7B7B7B",
" 3 c #797979",
" 4 c #777777",
" 5 c #6F6F6F",
" 6 c #6B6B6B",
" 7 c #696969",
" 8 c #656565",
" 9 c #636363",
" 0 c #616161",
" q c #5F5F5F",
" w c #5B5B5B",
" e c #595959",
" r c #555555",
" t c #535353",
" y c #515151",
" u c #4F4F4F",
" i c #4D4D4D",
" p c #FEFEFE",
" a c #4B4B4B",
" s c #FCFCFC",
" d c #494949",
" f c #FAFAFA",
" g c #474747",
" h c #F8F8F8",
" j c #454545",
" k c #F6F6F6",
" l c #434343",
" z c #F4F4F4",
" x c #414141",
" c c #F2F2F2",
" v c #3F3F3F",
" b c #F0F0F0",
" n c #EEEEEE",
" m c #3B3B3B",
" M c #ECECEC",
" N c #393939",
" B c #EAEAEA",
" V c #373737",
" C c #E8E8E8",
" Z c #333333",
" A c #E4E4E4",
" S c #313131",
" D c #E2E2E2",
" F c #2F2F2F",
" G c #E0E0E0",
" H c #2D2D2D",
" J c #DEDEDE",
" K c #292929",
" L c #DADADA",
" P c #272727",
" I c #D8D8D8",
" U c #252525",
" Y c #D6D6D6",
" T c #232323",
" R c #D4D4D4",
" E c #212121",
" W c #D2D2D2",
" Q c #D0D0D0",
" ! c #CECECE",
" ~ c #1B1B1B",
" ^ c #191919",
" / c #CACACA",
" ( c #171717",
" ) c #C8C8C8",
" _ c #C6C6C6",
" ` c #131313",
" ' c #C2C2C2",
" ] c #C0C0C0",
" [ c #0D0D0D",
" { c #BEBEBE",
" } c #BCBCBC",
" | c #090909",
".  c #BABABA",
".. c #070707",
".X c #B8B8B8",
".o c #B6B6B6",
".O c #B4B4B4",
".+ c #010101",
".@ c #B2B2B2",
".# c #B0B0B0",
".$ c #A6A6A6",
".% c #A0A0A0",
".& c #9C9C9C",
".* c #9A9A9A",
".= c #949494",
".- c #929292",
".; c #909090",
".: c #8E8E8E",
".> c #8C8C8C",
"., c #8A8A8A",
".< c #888888",
".1 c #868686",
".2 c #848484",
".3 c #828282",
".4 c #7E7E7E",
".5 c #7C7C7C",
".6 c #7A7A7A",
".7 c #787878",
".8 c #747474",
".9 c #727272",
".0 c #707070",
".q c #6E6E6E",
".w c #6C6C6C",
".e c #6A6A6A",
".r c #686868",
".t c #666666",
".y c #646464",
".u c #626262",
".i c #606060",
".p c #5E5E5E",
".a c #5A5A5A",
".s c #585858",
".d c #565656",
".f c #525252",
".g c #505050",
".h c #4E4E4E",
".j c #FFFFFF",
".k c #4C4C4C",
".l c #FDFDFD",
".z c #4A4A4A",
".x c #FBFBFB",
".c c #484848",
".v c #F9F9F9",
".b c #464646",
".n c #F7F7F7",
".m c #444444",
".M c #F5F5F5",
".N c #424242",
".B c #F3F3F3",
".V c #404040",
".C c #F1F1F1",
".Z c #3E3E3E",
".A c #EFEFEF",
".S c #3C3C3C",
".D c #EDEDED",
".F c #3A3A3A",
".G c #EBEBEB",
".H c #383838",
".J c #E9E9E9",
".K c #363636",
".L c #E7E7E7",
".P c #E5E5E5",
".I c #323232",
".U c #E3E3E3",
".Y c #303030",
".T c #E1E1E1",
".R c #2E2E2E",
".E c #DFDFDF",
".W c #2C2C2C",
".Q c #DDDDDD",
".! c #2A2A2A",
".~ c #282828",
".^ c #D9D9D9",
"./ c #262626",
".( c #D7D7D7",
".) c #242424",
"._ c #D5D5D5",
".` c #222222",
".' c #D3D3D3",
".] c #202020",
".[ c #D1D1D1",
".{ c #1E1E1E",
".} c #CFCFCF",
".| c #1C1C1C",
"X  c #CBCBCB",
"X. c #181818",
"XX c #C9C9C9",
"Xo c #C7C7C7",
"XO c #141414",
"X+ c #C5C5C5",
"X@ c #101010",
"X# c #C1C1C1",
"X$ c #BDBDBD",
"X% c #0A0A0A",
"X& c #BBBBBB",
"X* c #B9B9B9",
"X= c #060606",
"X- c #B7B7B7",
"X; c #B5B5B5",
"X: c #B3B3B3",
/* pixels */
".j.j.j.j.j.j.j.j.j.G ..-      .5 . . '.j.j.j.j.j.j.j.j.j.j.j.j.j.j.j.j.j.j.j.j.j.j.j.j.j.j.j.j.j.j.j.j.j.j.j.j.j.j.j.j.j.j.j.j.j",
".j.j.j.j.j.j.j.j.*.9 l ; y.6.p     q T.y A.j.j.j.j.j.j.j.j.j.j.j.j.j.j.j.j.j.j.j.j.j.j.j.j.j.j.j.j.j.j.j.j.j.j.j.j.j.j.j.j.j.j.j",
".j.j.j.j.j.j.l -.% G.d.:./ R k.J.J.,.R ! 7.h HXo M.j.j.j.j.j.j.j.j.j.j.j.j.j.j.j.j.j.j.j.j.j.j.j.j.j.j.j.j.j.j.j.j.j.j.j.j.j.j.j",
".j.j.j.j.j.j z.R._ } a.~ ].j.j.j.j.j.9.V.6.6.3 :.4.6.6.6. .j.j.j.j.j.j.j.j.j.j.j.j.j.j.j.j.j.j.j.j.j.j.j.j.j.j.j.j.j.j.j.j.j.j.j",
".j.j.j.j.j.C 3 D.jX+ P.I.j.j.j.j.j.G.i.y X 4X$.j D @.7.' %.h ; J J c.j.j.j.j.j.j.j.j.j.j.j.j.j.j.j.j.j.j.j.j.j.j.j.j.j.j.j.j.j.j",
".j.j.jX+.; y 6.;.;.;.Z ^.;.;.;.;.;.H : 3.' *X$.j.j } &.j.j.j _ 5 5 >.;.; M.j.j.j.j.j.j.j.j.j.j.j.j.j.j.j.j.j.j.j.j.j.j.j.j.j.j.j",
".j.j.[.<X$X$.O . ..OX$X$X- P.k .X$X$.v < l S.X.h.h.#.; p.j.j.j.j.j.(X$ q l.h.d z.x.j.j.j.j.j.j.j.j.j.j.j.j.j.j.j.j.j.j.j.j.j.j.j",
".jXX Z.$ b I F e e g.j.j : ( { ~.j.j.j.j.j.j.j.j.j.>.q.E.j.j.j.j.j.j.j.j.j.j.n e.> {.j.j.j.j.j.j.j.j.j.j.j.j.j.j.j.j.j.j.j.j.j.j",
".j.y    .'.^ F.s.s g.j.j : (.j.h.j.j.j.j.j.j.n %.j.j.q.E.j.j.j.j.j.j.j.j.j.j.j.jX+.-.s B.j.j.j.j.j.j.j.j.j.j.j.j.j.j.j.j.j.j.j.j",
".j.y.E z.l.j.A lX-.n.j.j f.M.j.h.j.j.j.j.j.j p. .`.M.q.E.j.j.j.j.j.j.j.j.j.j.j.j.j s 7.m > } }.G.j.j.j.j.j.j.j.j.j.j.j.j.j.j.j.j",
".j.y.J.j.j.j.j.j.j.j.j.j.j.j.j i 5 5.B.j.j.j.j.j.s.M.q.E.j.j.j.j.j.j.j.j.j.j.j.j.j.j ] =XX > N 3 5 5.B.j.j.j.j.j.j.j.j.j.j.j.j.j",
".j.y.y.J.j.j.j.j.j.j.j I %.h.hX. r.i a.h.h.< W W.c.M.q.E.j.j.j.j.j.j.j.j.j.j.j.j.j.j.j.h.j.G 5 L J J.a.h.i W z.j.j.j.j.j.j.j.j.j",
".j.y . j B.j.j.j.j.j.  2. .j.j.h ..&.j.j.jX+.6 u.g f.q.8 ].j.j.j.j.j.j.j.j.j.j.j.j.j.j = ].j.*X:.j.j.j.j.D.6.3 : :.x.j.j.j.j.j.j",
".j.y.Q.w.k.j.w.b. .v.9.T.j.j.j.h.X $.l.j.j.j.j O o.j.q X =.h.h u C C C z.j.j.j.j.j.j.j.[.5.j.J.y.j.j.j.j.j.j Y ) ).f.$ C C B.j.j",
".j.y.J.j.1Xo d 8 o }.;.j.j.j.j.h.j 9.J.j.j.j.j O o.j.q.E.j.j.j p.y.y.y , @ @.P.j.j.j.j.[.5.j.j.h.j.j.j.j.j.j.j.j.j.j.$.y.y 7 @ @",
" p 9 C p.Q.`XO.+ Z.F &.j.j.j.j.h.j 9.J.j.j.j.j O o p.q.E.j.j.j.j.j.j.j Y.@.@.r.h.h 1 p.[.5.j.j.h p p p.j.j.j.j.j.j.j.j.j.j h.@.@",
"X..h.h.h.h.h.f . . . . . . . ..K.j 9.J.j.j.j.j O Z 1.q.E.j.j.j.j.j.j.j.j.j.j.j.j.j Q.hXX.4.A.j.k.h.h.y . . .X;.j.j.j.j.j.j.j.j.j",
".h.j.j.j.j.j.x.&.&.&.&.&.&.&.&.&.j 9.J.j.j.j.j O o.j.q.E.j.j.j.j.j.j.j.j.j.j.j.j.j.j.j.j >XX.jX*.=.j.J.&.&.& # 9 9 9 9 M.j.j.j.j",
".h.j.j D.S.K &.!.h g.L.j.j.j.j.j.j 9.J.j.j.j z.i.n.j.q.E.j.j.j.j.j.j.j.j.j.j.j.j.j.j.j.j >XX.j.l u.j.j.j.j.j p.J.J.J.J 0.h L.j.j",
".h.j D.F < / K.#.j.r j n.j.j.j.j.j 9.J.j.j.j.B.a.j.j.q.E.j.j.j.j.j.j.j.j.j.j.j.j.j.j.j.j >XX.j.l u.j.j.j.j.j.j.j.j.j.j.j.j.j.j.j",
".h.j.}X@X& b t.e.Q + `.U.j.j.j.j.j A e.h.h.h.z.h.Q.Q qX#.Q h.j.j.j.j.j.j.j.j.j.j.j.j.j.j >XX.j.l u.j.j.j.j.j.j.j.j.j.j.j.j.j.j.j",
".W *.M.O./ y.o.0.0.0X#.j.j.M * * * * k.j.j.j.B P.0.0.Y.u.FXX.j.j.j.j.j.j.j.j.j.j.j.j.j.j >XX.j.#.&.j.j.j.j.j.j.j.j.j.j.j.j.j.j.j",
"X$.z.J.j )X$ n.j.j.j.j.j.j.T.fX$X$ y.b.N w.j.0 T.h 1.q.E.2 ].j.j.j.j.j.j.j.j.j.j.j.j.j.j >XX.j.d.n.j.j.j.j.j.j.j.j.j.j.j.j.j.j.j",
".j.y $ O.A.j.j.j.j.j.j.j.j.h.j.j.j.j.< F S.j.h.j.j.j.q.E X.` O O O O O O O O O O O O O O rXX.j.l u.j.j.j.j.j.j.j.j.j.j.j.j.j.j.j",
".jXX Z o.t.s.s.s.s.s.s.s.s ~.s.s.s {.F._ V.s T.j.j.j.q.E.j.  o o o o o o Z.p   m N   q Z o M.j p.:.s c.j.j.j.j.j.j.j.j.j.j.j.j.j",
".j.j.[ ;.G.M.M.M.M.M.M.M.M.M.M 3  X= N.j Y 6.M.j.j.j.= i.h.h.h.h.h.h.h.h.Y.x v.NX;.KX- U.h.h.h.{..   |X%X%X% [.h.h.h.h.h.h.h.hX ",
".j.j.j _ ;.j.j.j.j.j.j.j.j.j.j.j 8 e.). .Q.0.j.j.j.j.j.j.j.j.j.*.q.q.q.q E.q.|        XO.q.q.q ; & & & & & & $.j.j.j.j.j.j.j.j.j",
".j.j.j.j.d.h.k.].].].].].].].].V.m x.Y.Z.z m.h.h.h.h.h.h.h.h.hX:.E.E.E.E.E.E.E.E.E.E.E.E.E.E.E.M.j.j.j.j.j.j.j.j.j.j.j.j.j.j.j.j",
".j.j.j.j.j.j z                .@.j.j.j.j.j.j.j.j.j.j.j.j.j.j.j.j.j.j.j.j.j.j.j.j.j.j.j.j.j.j.j.j.j.j.j.j.j.j.j.j.j.j.j.j.j.j.j.j"
};
