/* XPM */
static char *viool-r[] = {
/* width height ncolors chars_per_pixel */
"64 41 230 2",
/* colors */
"   c #000000",
" . c #B1B1B1",
" X c #ABABAB",
" o c #A9A9A9",
" O c #A7A7A7",
" + c #A5A5A5",
" @ c #A3A3A3",
" # c #A1A1A1",
" $ c #9F9F9F",
" % c #9D9D9D",
" & c #9B9B9B",
" * c #999999",
" = c #979797",
" - c #959595",
" ; c #939393",
" : c #919191",
" > c #8F8F8F",
" , c #8D8D8D",
" < c #8B8B8B",
" 1 c #898989",
" 2 c #878787",
" 3 c #858585",
" 4 c #838383",
" 5 c #818181",
" 6 c #7F7F7F",
" 7 c #7D7D7D",
" 8 c #7B7B7B",
" 9 c #797979",
" 0 c #777777",
" q c #757575",
" w c #737373",
" e c #717171",
" r c #6F6F6F",
" t c #6D6D6D",
" y c #6B6B6B",
" u c #696969",
" i c #676767",
" p c #656565",
" a c #636363",
" s c #616161",
" d c #5F5F5F",
" f c #5D5D5D",
" g c #5B5B5B",
" h c #595959",
" j c #575757",
" k c #555555",
" l c #535353",
" z c #515151",
" x c #4F4F4F",
" c c #4D4D4D",
" v c #FEFEFE",
" b c #4B4B4B",
" n c #FCFCFC",
" m c #494949",
" M c #FAFAFA",
" N c #474747",
" B c #F8F8F8",
" V c #454545",
" C c #F6F6F6",
" Z c #434343",
" A c #F4F4F4",
" S c #414141",
" D c #F2F2F2",
" F c #F0F0F0",
" G c #3D3D3D",
" H c #EEEEEE",
" J c #3B3B3B",
" K c #393939",
" L c #EAEAEA",
" P c #373737",
" I c #E8E8E8",
" U c #353535",
" Y c #E6E6E6",
" T c #333333",
" R c #E4E4E4",
" E c #313131",
" W c #E2E2E2",
" Q c #E0E0E0",
" ! c #DEDEDE",
" ~ c #2B2B2B",
" ^ c #DCDCDC",
" / c #292929",
" ( c #DADADA",
" ) c #272727",
" _ c #D8D8D8",
" ` c #252525",
" ' c #D6D6D6",
" ] c #232323",
" [ c #D4D4D4",
" { c #212121",
" } c #D2D2D2",
" | c #D0D0D0",
".  c #1D1D1D",
".. c #CECECE",
".X c #CCCCCC",
".o c #191919",
".O c #CACACA",
".+ c #171717",
".@ c #C8C8C8",
".# c #151515",
".$ c #C6C6C6",
".% c #C4C4C4",
".& c #C2C2C2",
".* c #0F0F0F",
".= c #0D0D0D",
".- c #BEBEBE",
".; c #BCBCBC",
".: c #090909",
".> c #BABABA",
"., c #070707",
".< c #B8B8B8",
".1 c #B6B6B6",
".2 c #030303",
".3 c #B4B4B4",
".4 c #010101",
".5 c #B2B2B2",
".6 c #B0B0B0",
".7 c #AEAEAE",
".8 c #ACACAC",
".9 c #AAAAAA",
".0 c #A8A8A8",
".q c #A6A6A6",
".w c #A4A4A4",
".e c #A2A2A2",
".r c #A0A0A0",
".t c #9E9E9E",
".y c #9C9C9C",
".u c #9A9A9A",
".i c #989898",
".p c #969696",
".a c #949494",
".s c #929292",
".d c #909090",
".f c #8E8E8E",
".g c #8C8C8C",
".h c #8A8A8A",
".j c #888888",
".k c #868686",
".l c #848484",
".z c #828282",
".x c #808080",
".c c #7E7E7E",
".v c #7C7C7C",
".b c #7A7A7A",
".n c #787878",
".m c #767676",
".M c #747474",
".N c #727272",
".B c #707070",
".V c #6E6E6E",
".C c #6C6C6C",
".Z c #6A6A6A",
".A c #686868",
".S c #666666",
".D c #646464",
".F c #626262",
".G c #606060",
".H c #5E5E5E",
".J c #5C5C5C",
".K c #5A5A5A",
".L c #585858",
".P c #565656",
".I c #505050",
".U c #4E4E4E",
".Y c #FFFFFF",
".T c #4C4C4C",
".R c #FDFDFD",
".E c #4A4A4A",
".W c #FBFBFB",
".Q c #484848",
".! c #F9F9F9",
".~ c #464646",
".^ c #F7F7F7",
"./ c #444444",
".( c #F5F5F5",
".) c #424242",
"._ c #F3F3F3",
".` c #404040",
".' c #F1F1F1",
".] c #3E3E3E",
".[ c #EFEFEF",
".{ c #3C3C3C",
".} c #EDEDED",
".| c #3A3A3A",
"X  c #EBEBEB",
"X. c #383838",
"XX c #E9E9E9",
"Xo c #363636",
"XO c #E7E7E7",
"X+ c #343434",
"X@ c #E5E5E5",
"X# c #323232",
"X$ c #E3E3E3",
"X% c #303030",
"X& c #E1E1E1",
"X* c #2E2E2E",
"X= c #DFDFDF",
"X- c #2C2C2C",
"X; c #DDDDDD",
"X: c #2A2A2A",
"X> c #DBDBDB",
"X, c #D9D9D9",
"X< c #262626",
"X1 c #D7D7D7",
"X2 c #D5D5D5",
"X3 c #222222",
"X4 c #D3D3D3",
"X5 c #D1D1D1",
"X6 c #1E1E1E",
"X7 c #1C1C1C",
"X8 c #CDCDCD",
"X9 c #CBCBCB",
"X0 c #181818",
"Xq c #C9C9C9",
"Xw c #161616",
"Xe c #C7C7C7",
"Xr c #141414",
"Xt c #C5C5C5",
"Xy c #C3C3C3",
"Xu c #101010",
"Xi c #BFBFBF",
"Xp c #BDBDBD",
"Xa c #0A0A0A",
"Xs c #BBBBBB",
"Xd c #080808",
"Xf c #B9B9B9",
"Xg c #B7B7B7",
"Xh c #040404",
"Xj c #B5B5B5",
"Xk c #020202",
/* pixels */
".Y.YXg.a.a Y.Y.Y.Y.Y.Y.Y.Y.Y.Y.Y.Y.Y.Y.Y.Y.Y.Y.Y.Y.Y.Y.Y.Y.Y.Y.Y.Y.Y.Y.Y.Y.Y.Y.Y.Y.Y.Y.Y.Y.Y.Y.Y.Y.Y.Y.Y.Y.Y.Y.Y.Y.Y.Y.Y.Y.Y.Y.Y",
".Y @ e.a % k o 7.IXpX;.E a.Y.Y.Y.Y.Y.Y.Y.Y.Y.Y.Y.Y.Y.Y.Y.Y.Y.Y.Y.Y.Y.Y.Y.Y.Y.Y.Y.Y.Y.Y.Y.Y.Y.Y.Y.Y.Y.Y.Y.Y.Y.Y.Y.Y.Y.Y.Y.Y.Y.Y.Y",
".YX:.D m g.0 2 S.y.r.VXf.S.Y.Y.Y.Y.Y.Y.Y.Y.Y.Y.Y.Y.Y.Y.Y.Y.Y.Y.Y.Y.Y.Y.Y.Y.Y.Y.Y.Y.Y.Y.Y.Y.Y.Y.Y.Y.Y.Y.Y.Y.Y.Y.Y.Y.Y.Y.Y.Y.Y.Y.Y",
".YX:    .a m           m T.Y.Y.Y.Y.Y.Y.Y.Y.Y.Y.Y.Y.Y.Y.Y.Y.Y.Y.Y.Y.Y.Y.Y.Y.Y.Y.Y.Y.Y.Y.Y.Y.Y.Y.Y.Y.Y.Y.Y.Y.Y.Y.Y.Y.Y.Y.Y.Y.Y.Y.Y",
".Y.3.=.a.C e.a.a.#      XhX0 O A.Y.Y.Y.Y.Y.Y.Y.Y.Y.Y.Y.Y.Y.Y.Y.Y.Y.Y.Y.Y.Y.Y.Y.Y.Y.Y.Y.Y.Y.Y.Y.Y.Y.Y.Y.Y.Y.Y.Y.Y.Y.Y.Y.Y.Y.Y.Y.Y",
".Y F d.F.wXy + g.;.-.~X-Xa    X+ xX5.R.Y.Y.Y.Y.Y.Y.Y.Y.Y.Y.Y.Y.Y.Y.Y.Y.Y.Y.Y.Y.Y.Y.Y.Y.Y.Y.Y.Y.Y.Y.Y.Y.Y.Y.Y.Y.Y.Y.Y.Y.Y.Y.Y.Y.Y",
".Y.Y.YX9 T.A 4.].J.5.2 D.7 J.~Xr.4  .F.k M.Y.Y.Y.Y.Y.Y.Y.Y.Y.Y.Y.Y.Y.Y.Y.Y.Y.Y.Y.Y.Y.Y.Y.Y.Y.Y.Y.Y.Y.Y.Y.Y.Y.Y.Y.Y.Y.Y.Y.Y.Y.Y.Y",
".Y.Y.Y.YX, : y.YX&X-.T.< < h 5 9X.X#    Xd.d._.Y.Y.Y.Y.Y.Y (.d.d.d.8.Y.Y.Y.Y.Y.Y.Y.Y.Y.Y.Y.Y.Y.Y.Y.Y.Y.Y.Y.Y.Y.Y.Y.Y.Y.Y.Y.Y.Y.Y",
".Y.Y.Y.Y O , x.Y.U. .a g.C ( O 0 > j h /Xh ` { JXf v.YX5 ; dXj ( ( i p eX5.Y.Y.Y.Y.Y.Y.Y.Y.Y.Y.Y.Y.Y.Y.Y.Y.Y.Y.Y.Y.Y.Y.Y.Y.Y.Y.Y",
".Y.Y.Y.Y R.6 ..Y l c.Y.Y.Y.Y.Y I O y ;.F p P hXu  .H.@ gX1.Y.Y.Y.Y.Y B.6X.Xt.Y.Y.Y.Y.Y.Y.Y.Y.Y.Y.Y.Y.Y.Y.Y.Y.Y.Y.Y.Y.Y.Y.Y.Y.Y.Y",
".Y.Y.Y.Y.Y.Y.Y.Y.Y.Y.Y.Y.Y.Y.Y.Y.Y.Y < 8.z.x P.Z.T.Q x.:.n._.Y.Y.Y.Y.Y.YX2.l 8.Y.Y.Y.Y.Y.Y.Y.Y.Y.Y.Y.Y.Y.Y.Y.Y.Y.Y.Y.Y.Y.Y.Y.Y.Y",
".Y.Y.Y.Y.Y.Y.Y.Y.Y.Y.Y.Y.Y.Y.Y.Y.Y.Y.Y A.y.c 2 u.Q.N K s b ZX<.eXq.Y.Y.Y.Y n.i y.u W.Y.Y.Y.Y.Y.Y.Y.Y.Y.Y.Y.Y.Y.Y.Y.Y.Y.Y.Y.Y.Y.Y",
".Y.Y.Y.Y.Y.Y.Y.Y.Y.Y.Y.Y.Y.Y.Y.Y.Y.Y.Y.Y.YX@ X l . ] a k a.] aX6 U f.X Y.Y.Y.Y.Y |.b.Y.Y.Y.Y.Y.Y.Y.Y.Y.Y.Y.Y.Y.Y.Y.Y.Y.Y.Y.Y.Y.Y",
".Y.Y.Y.Y.Y.Y.Y.Y.Y.Y.Y.Y.Y.Y.Y.Y.Y.Y.Y.Y.Y.Y.Y.JX2./.t 7 6 2 K.m.v.B.:Xo - C.W.Y.Y.Z.W.Y.Y.Y.Y.Y.Y.Y.Y.Y.Y.Y.Y.Y.Y.Y.Y.Y.Y.Y.Y.Y",
".Y.Y.Y.Y.Y.Y.Y.Y.Y.Y.Y.Y.Y.Y.Y.Y.Y.Y.Y.Y.Y.Y.Y.K <.8.Y.YXs.v 2.M z i < 6.T.#.z < H.s.E.!.Y.Y.Y.Y.Y.Y.Y.Y.Y.Y.Y.Y.Y.Y.Y.Y.Y.Y.Y.Y",
".Y.Y.Y.Y.Y.Y.Y.Y.Y.Y.Y.Y.Y.Y.Y.Y.Y.Y.Y.Y.Y.Y.YXe  .W.Y.Y.Y A.X y.a u.v 6 9.g j.Z V & t h.%.Y.Y.Y.Y.Y.c.0.Y.Y.Y.Y.Y.Y.Y.Y.Y.Y.Y.Y",
".Y.Y.Y.Y.Y.Y.Y.Y.Y.Y.Y.Y.Y.Y.Y.Y.Y.Y.Y.Y.Y.Y.Y (  .W.Y.Y.Y.Y.Y.YXj 0 2 6 9.g t.-.y { )Xh.*.I ! I.W , g N o H.Y.Y.Y.Y.Y.Y.Y.Y.Y.Y",
".Y.Y.Y.Y.Y.Y.Y.Y.Y.Y.Y.Y.Y.Y.Y.Y.Y.Y.Y.Y.Y.Y.Y %.{.W.Y.Y.Y.Y.Y.Y.Y.Y . 6.v 2.M < 0 T <.,      X3 p.T q.O <.x.M 1.Y.Y.Y.Y.Y.Y.Y.Y",
".Y.Y.Y.Y.Y.Y.Y.Y.Y.Y.Y.Y.Y.Y.Y.Y.Y.Y.Y.Y.Y.Y.Y y r.&.Y.Y.Y.Y.Y.Y.Y.Y.Y M.$ w ; y p V 3X-.CX.     u.cXh.].Y.W C < y.~.3.Y.Y.Y.Y.Y",
".Y.Y.Y.Y.Y.Y.Y.Y.Y.Y.Y.Y.Y.Y.Y.Y.Y.Y.Y.Y.Y.Y.Y y W l.(.Y.Y.Y.Y.Y.Y.Y.Y.Y.Y C.O yX..n 5 3 w.dX..+.+ U.+.D.Y.Y.Y.Y.YX8 d.0X$.Y.Y.Y",
".Y.Y.Y.Y.Y.Y.Y.Y.Y.Y.Y.Y.Y.Y.Y.Y.Y.Y.Y.Y.Y.Y.Y y.Y uX9.Y.Y.Y.Y.Y.Y.Y.Y.Y.Y.Y.Y.Y.6.v 5 3 w.s.0.a T EXf.Y.Y.Y.Y.Y.Y.Y.YXg UXX.Y.Y",
".Y.Y.Y.Y.Y.Y.Y.Y.Y.Y.Y.Y.Y.Y.Y.Y.Y.Y.Y.Y.Y.Y.Y $.O.Y.UX2.Y.Y.Y.Y.Y.Y.Y.Y.Y.Y.Y.Y.Y.Y.<.c 4.b.x 7.l.xX. #.Y.Y.Y.Y.Y.Y.Y.YXp PX&.Y",
".Y.Y.Y.Y.Y.Y.Y.Y.Y.Y.Y.Y.Y.Y.Y.Y.Y.Y.Y.Y.Y.Y.YX@X#X8Xt.J p B.Y.Y.Y.Y.Y.Y.Y.Y.Y.Y ;X7.a.(X9 t f t >.J hX+ 8 '.Y.Y.Y.Y.Y.Y.Y.u :.Y",
".Y.Y.Y.Y.Y.Y.Y.Y.Y.Y.Y.Y.Y.Y.Y.Y.Y.Y.Y.Y.Y.Y.Y.Y _.B B M e.L.>.Y.Y.Y.Y.Y.Y.Y.Y.Y.|   2.Y.Y n.>.G.Z.K ;.U ~.VX .Y.Y.Y.Y.Y.Y I h.Y",
".Y.Y.Y.Y.Y.Y.Y.Y.Y.Y.Y.Y.Y.Y.Y.Y.Y.Y.Y.Y.Y.Y.Y.Y.Y } =.Y.Y ( P r.Y.Y.YXj r r.N.Y Q.x J.w.Y.Y.Y.Y.6.c J U e.d w _.Y.Y.Y.Y.Y.Y.qXy",
".Y.Y.Y.Y.Y.Y.Y.Y.Y.Y.Y.Y.Y.Y.Y.Y.Y.Y.Y.Y.Y.Y.Y.Y.Y.YX,X# * C n.W y J.].A F.W #.].r.Y.8.)X3 _.Y.Y.Y.RX2.B r.jX&.C.Y.Y.Y.Y.Y.Y [ -",
".Y.Y.Y.Y.Y.Y.Y.Y.Y.Y.Y.Y.Y.Y.Y.Y.Y.Y.Y.Y.Y.Y.Y.Y.Y.Y.YX&.j l % Y.Y @.A.p.P $XOX Xj z W.< EX3 !.Y.Y.Y.3.].u.v M.. yX,.Y.Y.Y.Y [ -",
".Y.Y.Y.Y.Y.Y.Y.Y.Y.Y.Y.Y.Y.Y.Y.Y.Y.Y.Y.Y.Y.Y.Y.Y.Y.Y.Y.Y.Y W >.~.p h e [ Q.g.Q * n.5X.X .} # T 1.Y.Y.Y X 1 G.1Xq.^.d.h B.Y.Y [ -",
".Y.Y.Y.Y.Y.Y.Y.Y.Y.Y.Y.Y.Y.Y.Y.Y.Y.Y.Y.Y.Y.Y.Y.Y.Y.Y.Y.Y.Y.Y.Y.Y.c UX2.Y.Y.Y n N r _XsXo R ..~X<X>.Y.Y.Y.Y.Y.3 #.x.3 Q.xXi.Y [ -",
".Y.Y.Y.Y.Y.Y.Y.Y.Y.Y.Y.Y.Y.Y.Y.Y.Y.Y.Y.Y.Y.Y.Y.Y.Y.Y.Y.Y.Y.Y.Y.Y.Y D.Y.Y.Y.Y.Y.(Xi.|X1.a.@ s  .o...Y.Y.Y.Y.Y.Y.Y D.1.b.e.9 +Xi -",
".Y.Y.Y.Y.Y.Y.Y.Y.Y.Y.Y.Y.Y.Y.Y.Y.Y.Y.Y.Y.Y.Y.Y.Y.Y.Y.Y.Y.Y.Y.Y.Y.Y.Y.Y.Y.Y.Y.Y.Y.YXp 2.e.@X5X:Xi.Y.Y.Y.Y.Y.Y.Y.Y.Y.Y F.y.` , z O",
".Y.Y.Y.Y.Y.Y.Y.Y.Y.Y.Y.Y.Y.Y.Y.Y.Y.Y.Y.Y.Y.Y.Y.Y.Y.Y.Y.Y.Y.Y.Y.Y.Y.Y.Y.Y.Y.Y.Y.Y.YX$ 2.e.@.Y.Y.Y.Y.Y.Y.Y.Y.Y.Y.Y.Y.YX>X% -.= ~.Y",
".Y.Y.Y.Y.Y.Y.Y.Y.Y.Y.Y.Y.Y.Y.Y.Y.Y.Y.Y.Y.Y.Y.Y.Y.Y.Y.Y.Y.Y.Y.Y.Y.Y.Y.Y.Y.Y.Y.Y.Y.YX$ 2 < U.i.Y.Y.Y.Y.Y.Y.Y.Y.Y.Y.Y.Y N.X.Y.Y y.Y",
".Y.Y.Y.Y.Y.Y.Y.Y.Y.Y.Y.Y.Y.Y.Y.Y.Y.Y.Y.Y.Y.Y.Y.Y.Y.Y.Y.Y.Y.Y.Y.Y.Y.Y.Y.Y.Y.Y.Y.Y.YX$Xw ^X= 9 t.^.Y.Y.Y.Y.Y.Y.Y.Y.Y.Y y.Y.Y L.x.Y",
".Y.Y.Y.Y.Y.Y.Y.Y.Y.Y.Y.Y.Y.Y.Y.Y.Y.Y.Y.Y.Y.Y.Y.Y.Y.Y.Y.Y.Y.Y.Y.Y.Y.Y.Y.Y.Y.Y.Y.Y.Y C.8.VX5 n.A 0 B.Y.Y.Y.Y.Y.Y.Y.Y.Y y.Y.Y +Xt.Y",
".Y.Y.Y.Y.Y.Y.Y.Y.Y.Y.Y.Y.Y.Y.Y.Y.Y.Y.Y.Y.Y.Y.Y.Y.Y.Y.Y.Y.Y.Y.Y.Y.Y.Y.Y.Y.Y.Y.Y.Y.Y.Y.Y.Y.y.z.Y y.Z.Y.Y.Y.Y.Y.Y.Y.Y.Y y.YXi d.Y.Y",
".Y.Y.Y.Y.Y.Y.Y.Y.Y.Y.Y.Y.Y.Y.Y.Y.Y.Y.Y.Y.Y.Y.Y.Y.Y.Y.Y.Y.Y.Y.Y.Y.Y.Y.Y.Y.Y.Y.Y.Y.Y.Y.Y.Y.W.f.P.[ ^.|Xy.Y.Y.Y.Y.Y.Y.Y 8 P.F Y.Y.Y",
".Y.Y.Y.Y.Y.Y.Y.Y.Y.Y.Y.Y.Y.Y.Y.Y.Y.Y.Y.Y.Y.Y.Y.Y.Y.Y.Y.Y.Y.Y.Y.Y.Y.Y.Y.Y.Y.Y.Y.Y.Y.Y.Y.Y.Y.R 6.;.' ! b.SX4.Y.Y.Y R |.F o.Y.Y.Y.Y",
".Y.Y.Y.Y.Y.Y.Y.Y.Y.Y.Y.Y.Y.Y.Y.Y.Y.Y.Y.Y.Y.Y.Y.Y.Y.Y.Y.Y.Y.Y.Y.Y.Y.Y.Y.Y.Y.Y.Y.Y.Y.Y.Y.Y.Y.Y.Y 8 f M.Y.7 S y y yX*Xk.i.Y.Y.Y.Y.Y",
".Y.Y.Y.Y.Y.Y.Y.Y.Y.Y.Y.Y.Y.Y.Y.Y.Y.Y.Y.Y.Y.Y.Y.Y.Y.Y.Y.Y.Y.Y.Y.Y.Y.Y.Y.Y.Y.Y.Y.Y.Y.Y.Y.Y.Y.Y.Y.Y * T.h.0.Y.Y ^ >.].0.Y.Y.Y.Y.Y.Y",
".Y.Y.Y.Y.Y.Y.Y.Y.Y.Y.Y.Y.Y.Y.Y.Y.Y.Y.Y.Y.Y.Y.Y.Y.Y.Y.Y.Y.Y.Y.Y.Y.Y.Y.Y.Y.Y.Y.Y.Y.Y.Y.Y.Y.Y.Y.Y.Y.YX  ( T ` `.o $ ( v.Y.Y.Y.Y.Y.Y"
};
