/* XPM */
static char *viool-r[] = {
/* width height ncolors chars_per_pixel */
"64 42 229 2",
/* colors */
"   c #000000",
" . c #B1B1B1",
" X c #AFAFAF",
" o c #ADADAD",
" O c #ABABAB",
" + c #A9A9A9",
" @ c #A7A7A7",
" # c #A5A5A5",
" $ c #A3A3A3",
" % c #A1A1A1",
" & c #9F9F9F",
" * c #9D9D9D",
" = c #9B9B9B",
" - c #999999",
" ; c #979797",
" : c #959595",
" > c #939393",
" , c #919191",
" < c #8F8F8F",
" 1 c #8D8D8D",
" 2 c #898989",
" 3 c #878787",
" 4 c #858585",
" 5 c #838383",
" 6 c #818181",
" 7 c #7F7F7F",
" 8 c #7D7D7D",
" 9 c #7B7B7B",
" 0 c #797979",
" q c #777777",
" w c #757575",
" e c #737373",
" r c #717171",
" t c #6F6F6F",
" y c #6D6D6D",
" u c #6B6B6B",
" i c #696969",
" p c #676767",
" a c #656565",
" s c #636363",
" d c #616161",
" f c #5D5D5D",
" g c #5B5B5B",
" h c #595959",
" j c #575757",
" k c #555555",
" l c #535353",
" z c #515151",
" x c #4F4F4F",
" c c #4D4D4D",
" v c #FEFEFE",
" b c #4B4B4B",
" n c #FCFCFC",
" m c #494949",
" M c #FAFAFA",
" N c #474747",
" B c #F8F8F8",
" V c #454545",
" C c #F6F6F6",
" Z c #434343",
" A c #F4F4F4",
" S c #414141",
" D c #F2F2F2",
" F c #3F3F3F",
" G c #F0F0F0",
" H c #3D3D3D",
" J c #EEEEEE",
" K c #3B3B3B",
" L c #ECECEC",
" P c #393939",
" I c #EAEAEA",
" U c #373737",
" Y c #E8E8E8",
" T c #353535",
" R c #E6E6E6",
" E c #333333",
" W c #E4E4E4",
" Q c #313131",
" ! c #E2E2E2",
" ~ c #2F2F2F",
" ^ c #E0E0E0",
" / c #2D2D2D",
" ( c #DEDEDE",
" ) c #2B2B2B",
" _ c #DCDCDC",
" ` c #292929",
" ' c #DADADA",
" ] c #D8D8D8",
" [ c #252525",
" { c #D6D6D6",
" } c #232323",
" | c #D4D4D4",
".  c #D2D2D2",
".. c #1F1F1F",
".X c #D0D0D0",
".o c #CECECE",
".O c #1B1B1B",
".+ c #CCCCCC",
".@ c #CACACA",
".# c #C8C8C8",
".$ c #C6C6C6",
".% c #C4C4C4",
".& c #111111",
".* c #C2C2C2",
".= c #C0C0C0",
".- c #BEBEBE",
".; c #BCBCBC",
".: c #070707",
".> c #B8B8B8",
"., c #050505",
".< c #B6B6B6",
".1 c #030303",
".2 c #B4B4B4",
".3 c #010101",
".4 c #B2B2B2",
".5 c #B0B0B0",
".6 c #AEAEAE",
".7 c #ACACAC",
".8 c #AAAAAA",
".9 c #A8A8A8",
".0 c #A6A6A6",
".q c #A4A4A4",
".w c #A2A2A2",
".e c #A0A0A0",
".r c #9E9E9E",
".t c #9C9C9C",
".y c #9A9A9A",
".u c #989898",
".i c #969696",
".p c #949494",
".a c #929292",
".s c #909090",
".d c #8E8E8E",
".f c #8C8C8C",
".g c #8A8A8A",
".h c #888888",
".j c #868686",
".k c #848484",
".l c #828282",
".z c #808080",
".x c #7E7E7E",
".c c #7C7C7C",
".v c #7A7A7A",
".b c #787878",
".n c #767676",
".m c #747474",
".M c #727272",
".N c #707070",
".B c #6E6E6E",
".V c #6C6C6C",
".C c #6A6A6A",
".Z c #686868",
".A c #666666",
".S c #646464",
".D c #626262",
".F c #606060",
".G c #5E5E5E",
".H c #5C5C5C",
".J c #5A5A5A",
".K c #585858",
".L c #565656",
".P c #545454",
".I c #525252",
".U c #505050",
".Y c #4E4E4E",
".T c #FFFFFF",
".R c #4C4C4C",
".E c #FDFDFD",
".W c #4A4A4A",
".Q c #FBFBFB",
".! c #484848",
".~ c #F9F9F9",
".^ c #464646",
"./ c #F7F7F7",
".( c #444444",
".) c #F5F5F5",
"._ c #424242",
".` c #F3F3F3",
".' c #F1F1F1",
".] c #3E3E3E",
".[ c #EFEFEF",
".{ c #3C3C3C",
".} c #EDEDED",
".| c #3A3A3A",
"X  c #EBEBEB",
"X. c #383838",
"XX c #E9E9E9",
"Xo c #363636",
"XO c #E7E7E7",
"X+ c #343434",
"X@ c #E5E5E5",
"X# c #323232",
"X$ c #E3E3E3",
"X% c #303030",
"X& c #E1E1E1",
"X* c #2E2E2E",
"X= c #DFDFDF",
"X- c #2C2C2C",
"X; c #2A2A2A",
"X: c #282828",
"X> c #D9D9D9",
"X, c #D7D7D7",
"X< c #D5D5D5",
"X1 c #D3D3D3",
"X2 c #202020",
"X3 c #D1D1D1",
"X4 c #1E1E1E",
"X5 c #1C1C1C",
"X6 c #CDCDCD",
"X7 c #1A1A1A",
"X8 c #CBCBCB",
"X9 c #C9C9C9",
"X0 c #161616",
"Xq c #C7C7C7",
"Xw c #141414",
"Xe c #C5C5C5",
"Xr c #121212",
"Xt c #C1C1C1",
"Xy c #0E0E0E",
"Xu c #BDBDBD",
"Xi c #BBBBBB",
"Xp c #080808",
"Xa c #B9B9B9",
"Xs c #060606",
"Xd c #B7B7B7",
"Xf c #040404",
"Xg c #B5B5B5",
"Xh c #020202",
"Xj c #B3B3B3",
/* pixels */
" { r p H.c ]X1.uX>.T +.t.T.T.T.T.T.T.T.T.T.T.T.T.T.T.T.T.T.T.T.T.T.T.T.T.T.T.T.T.T.T.T.T.T.T.T.T.T.T.T.T.T.T.T.T.T.T.T.T.T.T.T.T",
"X4 l.!Xg ;.y E.k.e.0 h k.T.T.T.T.T.T.T.T.T.T.T.T.T.T.T.T.T.T.T.T.T.T.T.T.T.T.T.T.T.T.T.T.T.T.T.T.T.T.T.T.T.T.T.T.T.T.T.T.T.T.T.T",
"  .U ` g ;.{X; c F P.6 ~.T.T.T.T.T.T.T.T.T.T.T.T.T.T.T.T.T.T.T.T.T.T.T.T.T.T.T.T.T.T.T.T.T.T.T.T.T.T.T.T.T.T.T.T.T.T.T.T.T.T.T.T",
" FX0 u.i.L i iXr      Xs.i.[.T.T.T.T.T.T.T.T.T.T.T.T.T.T.T.T.T.T.T.T.T.T.T.T.T.T.T.T.T.T.T.T.T.T.T.T.T.T.T.T.T.T.T.T.T.T.T.T.T.T",
" XXw z l.G.A N F U..      X: >.#./.T.T.T.T.T.T.T.T.T.T.T.T.T.T.T.T.T.T.T.T.T.T.T.T.T.T.T.T.T.T.T.T.T.T.T.T.T.T.T.T.T.T.T.T.T.T.T",
".T ..c.e M.e 6X= B U.k.{.1.3Xh   l.$ M v.T.T.T.T.T.T.T.T.T.T.T.T.T.T.T.T.T.T.T.T.T.T.T.T.T.T.T.T.T.T.T.T.T.T.T.T.T.T.T.T.T.T.T.T",
".T.T.E.V ) 5.V.V.z ~XO M.l.n P K       7 _.T.T.T.T.T.T.T.T.T.T.T.T.T.T.T.T.T.T.T.T.T.T.T.T.T.T.T.T.T.T.T.T.T.T.T.T.T.T.T.T.T.T.T",
".T.T.T.9Xu p.T o.& / g.S.Y e : l s }    X4 wXe.}.T.T.T.TX8.F p p.F.cXe.[.T.T.T.T.T.T.T.T.T.T.T.T.T.T.T.T.T.T.T.T.T.T.T.T.T.T.T.T",
".T.T.T - k Q.T x HX9.5.q.TXO * p ,.M bX0.GXf.3 S +.~ G s.y.8.T.T A.e t.R X v.T.T.T.T.T.T.T.T.T.T.T.T.T.T.T.T.T.T.T.T.T.T.T.T.T.T",
".T.T.T.T.T.T.T.h.m.T.T.T.T.T.T.T.k 4 6.b U 7 Q }XoXo.l 7.T.T.T.T.T.T.T.}X+ O.T.T.T.T.T.T.T.T.T.T.T.T.T.T.T.T.T.T.T.T.T.T.T.T.T.T",
".T.T.T.T.T.T.T.T.T.T.T.T.T.T.T.T.TX$.w.m.p l.B F s k ~ E.G.*X&.T.T.T.T.TXX.5 x.*.Q.T.T.T.T.T.T.T.T.T.T.T.T.T.T.T.T.T.T.T.T.T.T.T",
".T.T.T.T.T.T.T.T.T.T.T.T.T.T.T.T.T.T.T R & p.a t.U b y.v.]X*X+.H.# M.T.T.T.TXi $ u. .T.T.T.T.T.T.T.T.T.T.T.T.T.T.T.T.T.T.T.T.T.T",
".T.T.T.T.T.T.T.T.T.T.T.T.T.T.T.T.T.T.T.T.T.T s.C 5 `Xo r.F.I.^ pX2 m.d ^.T.T.T.T.T p.T.T.T.T.T.T.T.T.T.T.T.T.T.T.T.T.T.T.T.T.T.T",
".T.T.T.T.T.T.T.T.T.T.T.T.T.T.T.T.T.T.T.T.T.T.> ; 5.=X6 p > r.V V.g.C FX*.b.= J.T.T fX$.T.T.T.T.T.T.T.T.T.T.T.T.T.T.T.T.T.T.T.T.T",
".T.T.T.T.T.T.T.T.T.T.T.T.T.T.T.T.T.T.T.T.T.TXi S.x.).T.T X.v.z 2 U q.A.g x K.C d I $ U.[.T.T.T.T.T.T.E M.T.T.T.T.T.T.T.T.T.T.T.T",
".T.T.T.T.T.T.T.T.T.T.T.T.T.T.T.T.T.T.T.T.T.T.T z.c.T.T.T.T.TXa 9.h.m 2.v.z 5.m.zX% 4.x U *.T.T.T.T.T.f z.E.T.T.T.T.T.T.T.T.T.T.T",
".T.T.T.T.T.T.T.T.T.T.T.T.T.T.T.T.T.T.T.T.T.T.T z.c.T.T.T.T.T.T.`X6 p.p w 6.h e + XX7XwXhXs [Xd.#.T.j j.l.FX9.T.T.T.T.T.T.T.T.T.T",
".T.T.T.T.T.T.T.T.T.T.T.T.T.T.T.T.T.T.T.T.T.T.X.z.c.T.T.T.T.T.T.T.T.T.5 0 6.h.B.u.SX- %Xp.1.:  Xy.F V a X.8 * p.F.X.[.T.T.T.T.T.T",
".T.T.T.T.T.T.T.T.T.T.T.T.T.T.T.T.T.T.T.T.T.T.>.u._ D.T.T.T.T.T.T.T.T.T.TXd 8.j q.K h.z Q.v.{    .Y.l.O  .Q.T.TX9 qX%.h Y.T.T.T.T",
".T.T.T.T.T.T.T.T.T.T.T.T.T.T.T.T.T.T.T.T.T.T.> O.MXa.T.T.T.T.T.T.T.T.T.T.T AX6 p.|.m.l 3 t.u.!X5X4XoXw V n.T.T.T.TX  &.MXi.T.T.T",
".T.T.T.T.T.T.T.T.T.T.T.T.T.T.T.T.T.T.T.T.T.T.>.6 { s.~.T.T.T.T.T.T.T.T.T.T.T.T.T.5.b.l 3 t.u - $ U.| 1.T.T.T.T.T.T.T.T.} x > n.T",
".T.T.T.T.T.T.T.T.T.T.T.T.T.T.T.T.T.T.T.T.T.T '.f.TXg.Z.T.T.T.T.T.T.T.T.T.T.T.T.T.T.TXg.x.k 0 6 9.j.xXo.j.E.T.T.T.T.T.T.T.E N.h.T",
".T.T.T.T.T.T.T.T.T.T.T.T.T.T.T.T.T.T.T.T.T.T.T.x i J 0 Z.-.T.T.T.T.T.T.T.T.T.T.T.h...y AX6 p.C.G.u.H u ` gXe.T.T.T.T.T.T.T D z W",
".T.T.T.T.T.T.T.T.T.T.T.T.T.T.T.T.T.T.T.T.T.T.T B.S ].TX, H.Z.).T.T.T.T.T.T.T.T.TX5  .f.T.T.T ..C.F g 1 tX0 t.>.T.T.T.T.T.T.T.i &",
".T.T.T.T.T.T.T.T.T.T.T.T.T.T.T.T.T.T.T.T.T.T.T.T.T 1X>.T.T.i._.8.T.T.T # 5 5.p.T. .C.! X.T.T.T.T.2 7 EX+ 6 8.z.2.T.T.T.T.T.T !.z",
".T.T.T.T.T.T.T.T.T.T.T.T.T.T.T.T.T.T.T.T.T.T.T.T.T./.j.ZX8 n !.;.G.V S a ! !.n FXe.Q <.| T (.T.T.T A ' q.W.6 ,.pX3.T.T.T.T.T.T.F",
".T.T.T.T.T.T.T.T.T.T.T.T.T.T.T.T.T.T.T.T.T.T.T.T.T.T B . F aXO.E C k #.g.J _.~X<.u u A oXwX- I.T.T.T { U.u 6X= ^.n.2.T.T.T.T.T.F",
".T.T.T.T.T.T.T.T.T.T.T.T.T.T.T.T.T.T.T.T.T.T.T.T.T.T.T.T.T # F.m.+.] w _Xi k.G.%.T 1.^.~X  7 E :.T.T.TXg.z EX8Xj.T.4.zXO.T.T.T.F",
".T.T.T.T.T.T.T.T.T.T.T.T.T.T.T.T.T.T.T.T.T.T.T.T.T.T.T.T.T.T D.<.PX:.'.T.T C.XX# + Y.a.I L |.DX4 (.T.T.T.[X  =.4.n.4X@ <Xj.T.T.F",
".T.T.T.T.T.T.T.T.T.T.T.T.T.T.T.T.T.T.T.T.T.T.T.T.T.T.T.T.T.T.T.T C '.T.T.T.T.T { 7.L.` qXt.N  ., *.T.T.T.T.T.T.T GXj p.; @ = I.F",
".T.T.T.T.T.T.T.T.T.T.T.T.T.T.T.T.T.T.T.T.T.T.T.T.T.T.T.T.T.T.T.T.T.T.T.T.T.T.T.T.T.d.f #Xt.>.,.b.T.T.T.T.T.T.T.T.T.T.T - 7 7.zX%",
".T.T.T.T.T.T.T.T.T.T.T.T.T.T.T.T.T.T.T.T.T.T.T.T.T.T.T.T.T.T.T.T.T.T.T.T.T.T.T.T.T '.f #Xt.TXX M.T.T.T.T.T.T.T.T.T.T.T & PX.Xr.s",
".T.T.T.T.T.T.T.T.T.T.T.T.T.T.T.T.T.T.T.T.T.T.T.T.T.T.T.T.T.T.T.T.T.T.T.T.T.T.T.T.T '.f.r.L ! v.T.T.T.T.T.T.T.T.T.T.TXg.^X$X&.d &",
".T.T.T.T.T.T.T.T.T.T.T.T.T.T.T.T.T.T.T.T.T.T.T.T.T.T.T.T.T.T.T.T.T.T.T.T.T.T.T.T.T '.( X.w.|.0.T.T.T.T.T.T.T.T.T.T.T.u.o.T.TXq &",
".T.T.T.T.T.T.T.T.T.T.T.T.T.T.T.T.T.T.T.T.T.T.T.T.T.T.T.T.T.T.T.T.T.T.T.T.T.T.T.T.T R.I +X  A S ;.T.T.T.T.T.T.T.T.T.T.u.o.T.T.B./",
".T.T.T.T.T.T.T.T.T.T.T.T.T.T.T.T.T.T.T.T.T.T.T.T.T.T.T.T.T.T.T.T.T.T.T.T.T.T.T.T.T.T.T.;.dX= W.W * v.T.T.T.T.T.T.T.T.u.o.T &.2.T",
".T.T.T.T.T.T.T.T.T.T.T.T.T.T.T.T.T.T.T.T.T.T.T.T.T.T.T.T.T.T.T.T.T.T.T.T.T.T.T.T.T.T.T.T L K #X  3.bX&.T.T.T.T.T.T.T.u d.nX.XX.T",
".T.T.T.T.T.T.T.T.T.T.T.T.T.T.T.T.T.T.T.T.T.T.T.T.T.T.T.T.T.T.T.T.T.T.T.T.T.T.T.T.T.T.T.T.T.)._.#.TXg.{.8 v.T.T.T.T.TX<.g.4 A.T.T",
".T.T.T.T.T.T.T.T.T.T.T.T.T.T.T.T.T.T.T.T.T.T.T.T.T.T.T.T.T.T.T.T.T.T.T.T.T.T.T.T.T.T.T.T.T.T R w = v.@ s.K.; _ _.-.( U.7.T.T.T.T",
".T.T.T.T.T.T.T.T.T.T.T.T.T.T.T.T.T.T.T.T.T.T.T.T.T.T.T.T.T.T.T.T.T.T.T.T.T.T.T.T.T.T.T.T.T.T.TX  K e ^.T.  2 2 2.B.3Xa.T.T.T.T.T",
".T.T.T.T.T.T.T.T.T.T.T.T.T.T.T.T.T.T.T.T.T.T.T.T.T.T.T.T.T.T.T.T.T.T.T.T.T.T.T.T.T.T.T.T.T.T.T.T CXd sX+ #.9.9 E.SXj.T.T.T.T.T.T",
".T.T.T.T.T.T.T.T.T.T.T.T.T.T.T.T.T.T.T.T.T.T.T.T.T.T.T.T.T.T.T.T.T.T.T.T.T.T.T.T.T.T.T.T.T.T.T.T.T.T.T u       a.T.T.T.T.T.T.T.T"
};
