/* XPM */
static char *vork-r[] = {
/* width height ncolors chars_per_pixel */
"64 42 170 2",
/* colors */
"   c #000000",
" . c #B1B1B1",
" X c #AFAFAF",
" o c #ABABAB",
" O c #A9A9A9",
" + c #A7A7A7",
" @ c #A5A5A5",
" # c #A1A1A1",
" $ c #9F9F9F",
" % c #9D9D9D",
" & c #9B9B9B",
" * c #999999",
" = c #979797",
" - c #939393",
" ; c #919191",
" : c #8F8F8F",
" > c #8D8D8D",
" , c #8B8B8B",
" < c #898989",
" 1 c #858585",
" 2 c #838383",
" 3 c #818181",
" 4 c #7F7F7F",
" 5 c #7D7D7D",
" 6 c #7B7B7B",
" 7 c #797979",
" 8 c #777777",
" 9 c #757575",
" 0 c #737373",
" q c #717171",
" w c #6F6F6F",
" e c #6D6D6D",
" r c #6B6B6B",
" t c #696969",
" y c #636363",
" u c #616161",
" i c #5B5B5B",
" p c #595959",
" a c #575757",
" s c #555555",
" d c #535353",
" f c #515151",
" g c #FEFEFE",
" h c #4B4B4B",
" j c #FCFCFC",
" k c #494949",
" l c #FAFAFA",
" z c #474747",
" x c #454545",
" c c #F6F6F6",
" v c #434343",
" b c #F4F4F4",
" n c #414141",
" m c #F2F2F2",
" M c #EEEEEE",
" N c #393939",
" B c #EAEAEA",
" V c #373737",
" C c #E8E8E8",
" Z c #353535",
" A c #E6E6E6",
" S c #333333",
" D c #313131",
" F c #2F2F2F",
" G c #DEDEDE",
" H c #2B2B2B",
" J c #DCDCDC",
" K c #DADADA",
" L c #D8D8D8",
" P c #D6D6D6",
" I c #232323",
" U c #D4D4D4",
" Y c #D2D2D2",
" T c #CECECE",
" R c #191919",
" E c #CACACA",
" W c #C8C8C8",
" Q c #C6C6C6",
" ! c #C4C4C4",
" ~ c #C2C2C2",
" ^ c #0F0F0F",
" / c #C0C0C0",
" ( c #BEBEBE",
" ) c #BCBCBC",
" _ c #BABABA",
" ` c #B8B8B8",
" ' c #B6B6B6",
" ] c #B2B2B2",
" [ c #ACACAC",
" { c #AAAAAA",
" } c #A8A8A8",
" | c #A6A6A6",
".  c #A4A4A4",
".. c #A0A0A0",
".X c #9E9E9E",
".o c #9C9C9C",
".O c #9A9A9A",
".+ c #989898",
".@ c #969696",
".# c #929292",
".$ c #909090",
".% c #8E8E8E",
".& c #888888",
".* c #868686",
".= c #848484",
".- c #828282",
".; c #808080",
".: c #7E7E7E",
".> c #7C7C7C",
"., c #767676",
".< c #747474",
".1 c #707070",
".2 c #6E6E6E",
".3 c #6C6C6C",
".4 c #686868",
".5 c #646464",
".6 c #626262",
".7 c #606060",
".8 c #5E5E5E",
".9 c #5C5C5C",
".0 c #5A5A5A",
".q c #565656",
".w c #545454",
".e c #505050",
".r c #4E4E4E",
".t c #FFFFFF",
".y c #FDFDFD",
".u c #4A4A4A",
".i c #FBFBFB",
".p c #484848",
".a c #F9F9F9",
".s c #464646",
".d c #F7F7F7",
".f c #444444",
".g c #F5F5F5",
".h c #F3F3F3",
".j c #404040",
".k c #F1F1F1",
".l c #3E3E3E",
".z c #EFEFEF",
".x c #EDEDED",
".c c #3A3A3A",
".v c #383838",
".b c #E9E9E9",
".n c #E7E7E7",
".m c #343434",
".M c #E5E5E5",
".N c #E3E3E3",
".B c #303030",
".V c #DFDFDF",
".C c #DDDDDD",
".Z c #2A2A2A",
".A c #D9D9D9",
".S c #242424",
".D c #D1D1D1",
".F c #1E1E1E",
".G c #CFCFCF",
".H c #CDCDCD",
".J c #CBCBCB",
".K c #C9C9C9",
".L c #141414",
".P c #C3C3C3",
".I c #C1C1C1",
".U c #BFBFBF",
".Y c #0C0C0C",
".T c #BDBDBD",
".R c #B9B9B9",
".E c #B7B7B7",
".W c #B5B5B5",
".Q c #B3B3B3",
/* pixels */
".t.t.t.t.t.t.t.t.t.t.t.t.t.t.t.t.t.t.t.t.t.t.t.t.t.t.t.t.t.t.t.t.t.t.t.t.t.t.t.t.t.t.t.t.t.t.t.t.t.t.t.t.t.t.t.t _.K.t.t.t.t.t.t",
".t.t.t.t.t.t.t.t.t.t.t.t.t.t.t.t.t.t.t.t.t.t.t.t.t.t.t.t.t.t.t.t.t.t.t.t.t.t.t.t.t.t.t.t.t.t.t.t.t.t.t.t.t.t.t } ^ 6.O.p.t.t.t.t",
".t.t.t.t.t.t.t.t.t.t.t.t.t.t.t.t.t.t.t.t.t.t.t.t.t.t.t.t.t.t.t.t.t.t.t.t.t.t.t.t.t.t.t.t.t.t.t.t.t.t.t.t.t.t.E 0.L.; v.w @.z.t.t",
".t.t.t.t.t.t.t.t.t.t.t.t.t.t.t.t.t.t.t.t.t.t.t.t.t.t.t.t.t.t.t.t.t.t.t.t.t.t.t.t.t.t.t.t.t.t.t.t.t.t.t.t.t.E . =.; _.%.;.; 4 %.t",
".t.t.t.t.t.t.t.t.t.t.t.t.t.t.t.t.t.t.t.t.t.t.t.t.t.t.t.t.t.t.t.t.t.t.t.t.t.t.t.t.t.t.t.t.t.t.t.t.t.t.t.t.E . - 2 ' t ;.Y V D.f.t",
".t.t.t.t.t.t.t.t.t.t.t.t.t.t.t.t.t.t.t.t.t.t.t.t.t.t.t.t.t.t.t.t.t.t.t.t.t.t.t.t.t.t.t.t.t.t.t.t.t.t M.W [.+.F.q 8  .3 f 5 H.W.t",
".t.t.t.t.t.t.t.t.t.t.t.t.t.t.t.t.t.t.t.t.t.t.t.t.t.t.t.t.t.t.t.t.t.t.t.t.t.t.t.t.t.t.t.t.t.t.t.t.t.z V o.;.f.c.9   v.: ).j.W.t.t",
".t.t.t.t.t.t.t.t.t.t.t.t.t.t.t.t.t.t.t.t.t.t.t.t.t.t.t.t.t.t.t.t.t.t.t.t.t.t.t.t.t.t.t.t.t.t.t.t.- h 6 > R.v.9.8 9 d S 4 8.a.t.t",
".t.t.t.t.t.t.t.t.t.t.t.t.t.t.t.t.t.t.t.t.t.t.t.t.t.t.t.t.t.t.t.t.t.t.t.t.t.t.t.t.t.t.t.t.t.t L.r.q [.m.2 x.8.9 a.S.6 r 0 A.t.t.t",
".t.t.t.t.t.t.t.t.t.t.t.t.t.t.t.t.t.t.t.t.t.t.t.t.t.t.t.t.t.t.t.t.t.t.t.t.t.t.t.t.t.t.t.t.a 1 <.K.7.0 V -.6 i.>.q u 3.P &.t.t.t.t",
".t.t.t.t.t.t.t.t.t.t.t.t.t.t.t.t.t.t.t.t.t.t.t.t.t.t.t.t.t.t.t.t.t.t.t.t.t.t.t.t.t.t M.$.1.N.t.t.t.O.;.B.& 5.w I.=.K $.t.t.t.t.t",
".t.t.t.t.t.t.t.t.t.t.t.t.t.t.t.t.t.t.t.t.t.t.t.t.t.t.t.t.t.t.t.t.t.t.t.t.t.t.t.t.t.t y.+ g.t.t.t.t M s.e R.l a.9 / $.i.t.t.t.t.t",
".t.t.t.t.t.t.t.t.t.t.t.t.t.t.t.t.t.t.t.t.t.t.t.t.t.t.t.t.t.t.t.t.t.t.t.t.t.t.t.t.t Q.u.t.t.t.t.t.t.t.t E.Z z [ / &.t.t.t.t.t.t.t",
".t.t.t.t.t.t.t.t.t.t.t.t.t.t.t.t.t.t.t.t.t.t.t.t.t.t.t.t.t.t.t.t.t.t.t.t.t.t.t.t.t.7.T.t.t.t.t.t.t.t.t.t.t.t E $.t.t.t.t.t.t.t.t",
".t.t.t.t.t.t.t.t.t.t.t.t.t.t.t.t.t.t.t.t.t.t.t.t.t.t.t.t.t.t.t.t.t.t.t.t.t.t.b $.j.*.a.t.t.t.t.t.t.t.t.t.t T.X.i.t.t.t.t.t.t.t.t",
".t.t.t.t.t.t.t.t.t.t.t.t.t.t.t.t.t.t.t.t.t.t.t.t.t.t.t.t.t.t.t.t.t.t.t.t.N d 4.T G.t.t.t.t.t.t.t.t.t.t K 2 &.t.t.t.t.t.t.t.t.t.t",
".t.t.t.t.t.t.t.t.t.t.t.t.t.t.t.t.t.t.t.t.t.t.t.t.t.t.t.t.t.t.t.t.t.t.t.% 2.I.t.t.t 6 w w w.N.t.t.t.z w N.M.t.t.t.t.t.t.t.t.t.t.t",
".t.t.t.t.t.t.t.t.t.t.t.t.t.t.t.t.t.t.t.t.t.t.t.t.t.t.t.t.t.t.t.t.t.t.m 2.y.t.M = t M l l.U.4 t t t 7 l j.t.t.t.t.t.t.t.t.t.t.t.t",
".t.t.t.t.t.t.t.t.t.t.t.t.t.t.t.t.t.t.t.t.t.t.t.t.t.t.t.t.t.t.t.t E t J.t.C.X 2.D.t.t.t.t.t.t.t.t.t.t.t.t.t.t.t.t.t.t.t.t.t.t.t.t",
".t.t.t.t.t.t.t.t.t.t.t.t.t.t.t.t.t.t.t.t.t.t.t.t.t.t.t.t.t g . t.X.t.t.A F E.t.t.t.t.t.t.t.t.t.t.t.t.t.t.t.t.t.t.t.t.t.t.t.t.t.t",
".t.t.t.t.t.t.t.t.t.t.t.t.t.t.t.t.t.t.t.t.t.t.t.t.t.t.t.t.t ..E.t.t.t : Z.K.t.t.t.t.t.t.t.t.t.t.t.t.t.t.t.t.t.t.t.t.t.t.t.t.t.t.t",
".t.t.t.t.t.t.t.t.t.t.t.t.t.t.t.t.t.t.t.t.t.t.t.t.t.t.t.E., `.t.t.g.E.=.M.t.t.t.t.t.t.t.t.t.t.t.t.t.t.t.t.t.t.t.t.t.t.t.t.t.t.t.t",
".t.t.t.t.t.t.t.t.t.t.t.t.t.t.t.t.t.t.t.t.t.t.t.t.t B & ] m.t.t.I 0 ] j.t.t.t.t.t.t.t.t.t.t.t.t.t.t.t.t.t.t.t.t.t.t.t.t.t.t.t.t.t",
".t.t.t.t.t.t.t.t.t.t.t.t.t.t.t.t.t.t.t.t.t.t.t.t.D.-.H.t.t.t.U O.t.t.t.t.t.t.t.t.t.t.t.t.t.t.t.t.t.t.t.t.t.t.t.t.t.t.t.t.t.t.t.t",
".t.t.t.t.t.t.t.t.t.t.t.t.t.t.t.t.t.t.t.t.t.t.g |.o.i.t.t B.: O.y.t.t.t.t.t.t.t.t.t.t.t.t.t.t.t.t.t.t.t.t.t.t.t.t.t.t.t.t.t.t.t.t",
".t.t.t.t.t.t.t.t.t.t.t.t.t.t.t.t.t.t.t.t B 8 0 ~.i.t.t Y ; B.t.t.t.t.t.t.t.t.t.t.t.t.t.t.t.t.t.t.t.t.t.t.t.t.t.t.t.t.t.t.t.t.t.t",
".t.t.t.t.t.t.t.t.t.t.t.t.t.t.t.t.t.t.t...:.k.t.t.t.t +.@.x.t.t.t.t.t.t.t.t.t.t.t.t.t.t.t.t.t.t.t.t.t.t.t.t.t.t.t.t.t.t.t.t.t.t.t",
".t.t.t.t.t.t.t.t.t.t.t.t.t.t.t.t.t.t < #.t.t.t.t K.< ~.t.t.t.t.t.t.t.t.t.t.t.t.t.t.t.t.t.t.t.t.t.t.t.t.t.t.t.t.t.t.t.t.t.t.t.t.t",
".t.t.t.t.t.t.t.t.t.t.t.t.t.t.t.g.I r (.z.t.t.t.V.7.D.t.t.t.t.t.t.t.t.t.t.t.t.t.t.t.t.t.t.t.t.t.t.t.t.t.t.t.t.t.t.t.t.t.t.t.t.t.t",
".t.t.t.t.t.t.t.t.t.t.t.t.t c ~ 0 +.y.t.t.t l ; <.a.t.t.t.t.t.t.t.t.t.t.t.t.t.t.t.t.t.t.t.t.t.t.t.t.t.t.t.t.t.t.t.t.t.t.t.t.t.t.t",
".t.t.t.t.t.t.t.t.t.t.t.t b 4 |.t.t.t.t.t.t.2 ].t.t.t.t.t.t.t.t.t.t.t.t.t.t.t.t.t.t.t.t.t.t.t.t.t.t.t.t.t.t.t.t.t.t.t.t.t.t.t.t.t",
".t.t.t.t.t.t.t.t.t.t.C.s.< m.t.t.t.t.t T.$ U.d.t.t.t.t.t.t.t.t.t.t.t.t.t.t.t.t.t.t.t.t.t.t.t.t.t.t.t.t.t.t.t.t.t.t.t.t.t.t.t.t.t",
".t.t.t.t.t.t.t m.C.@ ,.J.t.t.t.t.t m ! &.A.t.t.t.t.t.t.t.t.t.t.t.t.t.t.t.t.t.t.t.t.t.t.t.t.t.t.t.t.t.t.t.t.t.t.t.t.t.t.t.t.t.t.t",
".t.t.t.t.t.t.Q k e Y.t.t.t.t.t.t.t.;. .t.t.t.t.t.t.t.t.t.t.t.t.t.t.t.t.t.t.t.t.t.t.t.t.t.t.t.t.t.t.t.t.t.t.t.t.t.t.t.t.t.t.t.t.t",
".t.t.t.t { n.5.z.y.t.t.t.t.t.t.R 3.X.t.t.t.t.t.t.t.t.t.t.t.t.t.t.t.t.t.t.t.t.t.t.t.t.t.t.t.t.t.t.t.t.t.t.t.t.t.t.t.t.t.t.t.t.t.t",
".t.h Q t (.G.t.t.t.t.t.t.t.M.w X.n.t.t.t.t.t.t.t.t.t.t.t.t.t.t.t.t.t.t.t.t.t.t.t.t.t.t.t.t.t.t.t.t.t.t.t.t.t.t.t.t.t.t.t.t.t.t.t",
".t.4.2.t.t.t.t.t.t.t.t.y.+ 2 ).t.t.t.t.t.t.t.t.t.t.t.t.t.t.t.t.t.t.t.t.t.t.t.t.t.t.t.t.t.t.t.t.t.t.t.t.t.t.t.t.t.t.t.t.t.t.t.t.t",
".t t.t.t.t.t.t.t.t.t.t 6 [.t.t.t.t.t.t.t.t.t.t.t.t.t.t.t.t.t.t.t.t.t.t.t.t.t.t.t.t.t.t.t.t.t.t.t.t.t.t.t.t.t.t.t.t.t.t.t.t.t.t.t",
".t p C.t.t.t.t.t.t P.+ W.h.t.t.t.t.t.t.t.t.t.t.t.t.t.t.t.t.t.t.t.t.t.t.t.t.t.t.t.t.t.t.t.t.t.t.t.t.t.t.t.t.t.t.t.t.t.t.t.t.t.t.t",
".t = z C.y.t.t.b 8.#.D.t.t.t.t.t.t.t.t.t.t.t.t.t.t.t.t.t.t.t.t.t.t.t.t.t.t.t.t.t.t.t.t.t.t.t.t.t.t.t.t.t.t.t.t.t.t.t.t.t.t.t.t.t",
".t.t [ v q 4 4 Z *.t.t.t.t.t.t.t.t.t.t.t.t.t.t.t.t.t.t.t.t.t.t.t.t.t.t.t.t.t.t.t.t.t.t.t.t.t.t.t.t.t.t.t.t.t.t.t.t.t.t.t.t.t.t.t",
".t.t.t 1      .8.t.t.t.t.t.t.t.t.t.t.t.t.t.t.t.t.t.t.t.t.t.t.t.t.t.t.t.t.t.t.t.t.t.t.t.t.t.t.t.t.t.t.t.t.t.t.t.t.t.t.t.t.t.t.t.t"
};
