/* XPM */
static char *vork-r[] = {
/* width height ncolors chars_per_pixel */
"64 43 175 2",
/* colors */
"   c #000000",
" . c #B1B1B1",
" X c #AFAFAF",
" o c #ADADAD",
" O c #ABABAB",
" + c #A9A9A9",
" @ c #A7A7A7",
" # c #A5A5A5",
" $ c #A3A3A3",
" % c #A1A1A1",
" & c #9F9F9F",
" * c #9D9D9D",
" = c #9B9B9B",
" - c #999999",
" ; c #979797",
" : c #959595",
" > c #939393",
" , c #919191",
" < c #8F8F8F",
" 1 c #8D8D8D",
" 2 c #8B8B8B",
" 3 c #898989",
" 4 c #878787",
" 5 c #858585",
" 6 c #838383",
" 7 c #818181",
" 8 c #7F7F7F",
" 9 c #7D7D7D",
" 0 c #7B7B7B",
" q c #797979",
" w c #777777",
" e c #737373",
" r c #6D6D6D",
" t c #6B6B6B",
" y c #696969",
" u c #676767",
" i c #656565",
" p c #636363",
" a c #616161",
" s c #5F5F5F",
" d c #5D5D5D",
" f c #595959",
" g c #575757",
" h c #555555",
" j c #535353",
" k c #FEFEFE",
" l c #FCFCFC",
" z c #FAFAFA",
" x c #F8F8F8",
" c c #F6F6F6",
" v c #434343",
" b c #F4F4F4",
" n c #3F3F3F",
" m c #3D3D3D",
" M c #EEEEEE",
" N c #3B3B3B",
" B c #ECECEC",
" V c #373737",
" C c #E8E8E8",
" Z c #353535",
" A c #333333",
" S c #E4E4E4",
" D c #313131",
" F c #E2E2E2",
" G c #2F2F2F",
" H c #2D2D2D",
" J c #DEDEDE",
" K c #DCDCDC",
" L c #DADADA",
" P c #D8D8D8",
" I c #232323",
" U c #D4D4D4",
" Y c #212121",
" T c #D0D0D0",
" R c #CECECE",
" E c #1B1B1B",
" W c #CCCCCC",
" Q c #C8C8C8",
" ! c #C6C6C6",
" ~ c #C4C4C4",
" ^ c #111111",
" / c #C0C0C0",
" ( c #0D0D0D",
" ) c #BEBEBE",
" _ c #BCBCBC",
" ` c #050505",
" ' c #B6B6B6",
" ] c #B2B2B2",
" [ c #AEAEAE",
" { c #ACACAC",
" } c #AAAAAA",
" | c #A8A8A8",
".  c #A4A4A4",
".. c #A0A0A0",
".X c #9E9E9E",
".o c #9A9A9A",
".O c #989898",
".+ c #969696",
".@ c #929292",
".# c #8E8E8E",
".$ c #8C8C8C",
".% c #8A8A8A",
".& c #868686",
".* c #848484",
".= c #828282",
".- c #808080",
".; c #7E7E7E",
".: c #7C7C7C",
".> c #7A7A7A",
"., c #787878",
".< c #747474",
".1 c #727272",
".2 c #707070",
".3 c #6E6E6E",
".4 c #6C6C6C",
".5 c #686868",
".6 c #666666",
".7 c #646464",
".8 c #626262",
".9 c #5C5C5C",
".0 c #5A5A5A",
".q c #585858",
".w c #545454",
".e c #525252",
".r c #505050",
".t c #4E4E4E",
".y c #FFFFFF",
".u c #4C4C4C",
".i c #FDFDFD",
".p c #4A4A4A",
".a c #FBFBFB",
".s c #484848",
".d c #F9F9F9",
".f c #464646",
".g c #F7F7F7",
".h c #444444",
".j c #F5F5F5",
".k c #F3F3F3",
".l c #F1F1F1",
".z c #EFEFEF",
".x c #3A3A3A",
".c c #EBEBEB",
".v c #383838",
".b c #E9E9E9",
".n c #363636",
".m c #E7E7E7",
".M c #343434",
".N c #323232",
".B c #E3E3E3",
".V c #2E2E2E",
".C c #DFDFDF",
".Z c #2C2C2C",
".A c #DBDBDB",
".S c #D9D9D9",
".D c #D7D7D7",
".F c #D5D5D5",
".G c #222222",
".H c #D3D3D3",
".J c #D1D1D1",
".K c #1E1E1E",
".L c #CFCFCF",
".P c #CDCDCD",
".I c #CBCBCB",
".U c #C9C9C9",
".Y c #C7C7C7",
".T c #C5C5C5",
".R c #C3C3C3",
".E c #C1C1C1",
".W c #0C0C0C",
".Q c #BDBDBD",
".! c #0A0A0A",
".~ c #B9B9B9",
".^ c #B7B7B7",
"./ c #020202",
".( c #B3B3B3",
/* pixels */
".y.y.y.y.y.y.y.y.y.y.y.y.y.y.y.y.y.y.y.y.y.y.y.y.y.y.y.y.y.y.y.y.y.y.y.y.y.y.y.y.y.y.y.y.y.y.y.y.y.y.y.y.y.y.y.y J.Z.-.B %.y.y.y",
".y.y.y.y.y.y.y.y.y.y.y.y.y.y.y.y.y.y.y.y.y.y.y.y.y.y.y.y.y.y.y.y.y.y.y.y.y.y.y.y.y.y.y.y.y.y.y.y.y.y.y.y.y.y.y.m.p `.-.f.K.c x.y",
".y.y.y.y.y.y.y.y.y.y.y.y.y.y.y.y.y.y.y.y.y.y.y.y.y.y.y.y.y.y.y.y.y.y.y.y.y.y.y.y.y.y.y.y.y.y.y.y.y.y.y.y.y.y.b 7.  p.-.& 6.;.+.y",
".y.y.y.y.y.y.y.y.y.y.y.y.y.y.y.y.y.y.y.y.y.y.y.y.y.y.y.y.y.y.y.y.y.y.y.y.y.y.y.y.y.y.y.y.y.y.y.y.y.y.y.y.y J.%.U.> 6.P 0.h.0 p.W",
".y.y.y.y.y.y.y.y.y.y.y.y.y.y.y.y.y.y.y.y.y.y.y.y.y.y.y.y.y.y.y.y.y.y.y.y.y.y.y.y.y.y.y.y.y.y.y.y.y.y.y.y B 4 ).<.2 ~.G , (.q m.t",
".y.y.y.y.y.y.y.y.y.y.y.y.y.y.y.y.y.y.y.y.y.y.y.y.y.y.y.y.y.y.y.y.y.y.y.y.y.y.y.y.y.y.y.y.y.y.y.y.y.y.y :.- W r   q I   e.- 8 A.J",
".y.y.y.y.y.y.y.y.y.y.y.y.y.y.y.y.y.y.y.y.y.y.y.y.y.y.y.y.y.y.y.y.y.y.y.y.y.y.y.y.y.y.y.y.y.y.y.y.y R.1.8 Q ^ E w D.K.< a ).M W.y",
".y.y.y.y.y.y.y.y.y.y.y.y.y.y.y.y.y.y.y.y.y.y.y.y.y.y.y.y.y.y.y.y.y.y.y.y.y.y.y.y.y.y.y.y.y.y.y c ~.V @.8 5.!.2 G.>.;.N.K.&.&.k.y",
".y.y.y.y.y.y.y.y.y.y.y.y.y.y.y.y.y.y.y.y.y.y.y.y.y.y.y.y.y.y.y.y.y.y.y.y.y.y.y.y.y.y.y.y.y.y c.s u.=.t i V.:.N.-.e (.-...7.y.y.y",
".y.y.y.y.y.y.y.y.y.y.y.y.y.y.y.y.y.y.y.y.y.y.y.y.y.y.y.y.y.y.y.y.y.y.y.y.y.y.y.y.y.y.y.y J.  r.A.H.r.0.9 = g 9.= Z 0.. | '.y.y.y",
".y.y.y.y.y.y.y.y.y.y.y.y.y.y.y.y.y.y.y.y.y.y.y.y.y.y.y.y.y.y.y.y.y.y.y.y.y.y.y.y.y.y l.&.* ).y.y.y l.. h.9 d.* H Y.o [ '.y.y.y.y",
".y.y.y.y.y.y.y.y.y.y.y.y.y.y.y.y.y.y.y.y.y.y.y.y.y.y.y.y.y.y.y.y.y.y.y.y.y.y.y.y.y.y @.8.y.y.y.y.y.y.E.4.4./ f v : o '.y.y.y.y.y",
".y.y.y.y.y.y.y.y.y.y.y.y.y.y.y.y.y.y.y.y.y.y.y.y.y.y.y.y.y.y.y.y.y.y.y.y.y.y.y.y.y.y N.U.y.y.y.y.y.y.y.y $ Z y.L + '.y.y.y.y.y.y",
".y.y.y.y.y.y.y.y.y.y.y.y.y.y.y.y.y.y.y.y.y.y.y.y.y.y.y.y.y.y.y.y.y.y.y.y.y.y.y.y.y } d.y.y.y.y.y.y.y.y.y.y.y.y { '.y.y.y.y.y.y.y",
".y.y.y.y.y.y.y.y.y.y.y.y.y.y.y.y.y.y.y.y.y.y.y.y.y.y.y.y.y.y.y.y.y.y.y.y.y.y.y &.n.8.j.y.y.y.y.y.y.y.y.y.y.y {.^.y.y.y.y.y.y.y.y",
".y.y.y.y.y.y.y.y.y.y.y.y.y.y.y.y.y.y.y.y.y.y.y.y.y.y.y.y.y.y.y.y.y.y.y.y M s.7.R.P.y.y.y.y.y.y.y.y.y.y.g.D.6 '.y.y.y.y.y.y.y.y.y",
".y.y.y.y.y.y.y.y.y.y.y.y.y.y.y.y.y.y.y.y.y.y.y.y.y.y.y.y.y.y.y.y.y.y.y. .;. .y.y.y ..<.<.< *.y.y.y.y ~.9 j.i.y.y.y.y.y.y.y.y.y.y",
".y.y.y.y.y.y.y.y.y.y.y.y.y.y.y.y.y.y.y.y.y.y.y.y.y.y.y.y.y.y.y.y.y.y.h a c.y.y O.< ].z.z.z u.7.7.7.7 &.z.d.y.y.y.y.y.y.y.y.y.y.y",
".y.y.y.y.y.y.y.y.y.y.y.y.y.y.y.y.y.y.y.y.y.y.y.y.y.y.y.y.y.y.y.y.C.7 /.y.k.Y.7.^.z.y.y.y.y.y.y.y.y.y.y.y.y.y.y.y.y.y.y.y.y.y.y.y",
".y.y.y.y.y.y.y.y.y.y.y.y.y.y.y.y.y.y.y.y.y.y.y.y.y.y.y.y.y.y _.-.$.y.y.d.s.&.y.y.y.y.y.y.y.y.y.y.y.y.y.y.y.y.y.y.y.y.y.y.y.y.y.y",
".y.y.y.y.y.y.y.y.y.y.y.y.y.y.y.y.y.y.y.y.y.y.y.y.y.y.y.y.y.Q @.B.g.y / j.$ z.y.y.y.y.y.y.y.y.y.y.y.y.y.y.y.y.y.y.y.y.y.y.y.y.y.y",
".y.y.y.y.y.y.y.y.y.y.y.y.y.y.y.y.y.y.y.y.y.y.y.y.y.y l.z.5 #.y.y k.z h X.y.y.y.y.y.y.y.y.y.y.y.y.y.y.y.y.y.y.y.y.y.y.y.y.y.y.y.y",
".y.y.y.y.y.y.y.y.y.y.y.y.y.y.y.y.y.y.y.y.y.y.y.y.y.y.X.<.a.y.y.A 3.< M.y.y.y.y.y.y.y.y.y.y.y.y.y.y.y.y.y.y.y.y.y.y.y.y.y.y.y.y.y",
".y.y.y.y.y.y.y.y.y.y.y.y.y.y.y.y.y.y.y.y.y.y.y.y P.7.Y.y.y.y.C <.A.y.y.y.y.y.y.y.y.y.y.y.y.y.y.y.y.y.y.y.y.y.y.y.y.y.y.y.y.y.y.y",
".y.y.y.y.y.y.y.y.y.y.y.y.y.y.y.y.y.y.y.y.y.y.i P.%.y.y.y k.% 6 x.y.y.y.y.y.y.y.y.y.y.y.y.y.y.y.y.y.y.y.y.y.y.y.y.y.y.y.y.y.y.y.y",
".y.y.y.y.y.y.y.y.y.y.y.y.y.y.y.y.y.y.y.y F ;.= 2.y.y.y.y 3.S.y.y.y.y.y.y.y.y.y.y.y.y.y.y.y.y.y.y.y.y.y.y.y.y.y.y.y.y.y.y.y.y.y.y",
".y.y.y.y.y.y.y.y.y.y.y.y.y.y.y.y.y.y z.L 1.I.B.y.y.y.T.7 L.y.y.y.y.y.y.y.y.y.y.y.y.y.y.y.y.y.y.y.y.y.y.y.y.y.y.y.y.y.y.y.y.y.y.y",
".y.y.y.y.y.y.y.y.y.y.y.y.y.y.y.y.y.y.o >.k.y.y.y.i.4 &.y.y.y.y.y.y.y.y.y.y.y.y.y.y.y.y.y.y.y.y.y.y.y.y.y.y.y.y.y.y.y.y.y.y.y.y.y",
".y.y.y.y.y.y.y.y.y.y.y.y.y.y.y.y.P.#.2.y.y.y.y.b.f.g.i.y.y.y.y.y.y.y.y.y.y.y.y.y.y.y.y.y.y.y.y.y.y.y.y.y.y.y.y.y.y.y.y.y.y.y.y.y",
".y.y.y.y.y.y.y.y.y.y.y.y.y.y K.-.+ U.y.y.y.i.A.$ /.y.y.y.y.y.y.y.y.y.y.y.y.y.y.y.y.y.y.y.y.y.y.y.y.y.y.y.y.y.y.y.y.y.y.y.y.y.y.y",
".y.y.y.y.y.y.y.y.y.y.y.y S., 4.B.y.y.y.y.y # 4 B.y.y.y.y.y.y.y.y.y.y.y.y.y.y.y.y.y.y.y.y.y.y.y.y.y.y.y.y.y.y.y.y.y.y.y.y.y.y.y.y",
".y.y.y.y.y.y.y.y.y.y W X 1.c.y.y.y.y.y.y $.8.y.y.y.y.y.y.y.y.y.y.y.y.y.y.y.y.y.y.y.y.y.y.y.y.y.y.y.y.y.y.y.y.y.y.y.y.y.y.y.y.y.y",
".y.y.y.y.y.y.y.y b !.v.(.l.y.y.y.y.y.C.7 /.y.y.y.y.y.y.y.y.y.y.y.y.y.y.y.y.y.y.y.y.y.y.y.y.y.y.y.y.y.y.y.y.y.y.y.y.y.y.y.y.y.y.y",
".y.y.y.y.y.y L 6.- *.y.y.y.y.y.y.y 2.$.y.y.y.y.y.y.y.y.y.y.y.y.y.y.y.y.y.y.y.y.y.y.y.y.y.y.y.y.y.y.y.y.y.y.y.y.y.y.y.y.y.y.y.y.y",
".y.y.y.y.P t.w X M.y.y.y.y.y.y b.6.H c.y.y.y.y.y.y.y.y.y.y.y.y.y.y.y.y.y.y.y.y.y.y.y.y.y.y.y.y.y.y.y.y.y.y.y.y.y.y.y.y.y.y.y.y.y",
".y.i.k t V @.g.y.y.y.y.y.y x.Q.3 @ z.y.y.y.y.y.y.y.y.y.y.y.y.y.y.y.y.y.y.y.y.y.y.y.y.y.y.y.y.y.y.y.y.y.y.y.y.y.y.y.y.y.y.y.y.y.y",
".H.%.2 x.y.y.y.y.y.y.y.y C.x. .y.y.y.y.y.y.y.y.y.y.y.y.y.y.y.y.y.y.y.y.y.y.y.y.y.y.y.y.y.y.y.y.y.y.y.y.y.y.y.y.y.y.y.y.y.y.y.y.y",
" D.~.y.y.y.y.y.y.y.y.i * 0.H k.y.y.y.y.y.y.y.y.y.y.y.y.y.y.y.y.y.y.y.y.y.y.y.y.y.y.y.y.y.y.y.y.y.y.y.y.y.y.y.y.y.y.y.y.y.y.y.y.y",
".7.y.y.y.y.y.y.y.y.y -.4.y.y.y.y.y.y.y.y.y.y.y.y.y.y.y.y.y.y.y.y.y.y.y.y.y.y.y.y.y.y.y.y.y.y.y.y.y.y.y.y.y.y.y.y.y.y.y.y.y.y.y.y",
" m.b.y.y.y.y.y.y T 1.Y.y.y.y.y.y.y.y.y.y.y.y.y.y.y.y.y.y.y.y.y.y.y.y.y.y.y.y.y.y.y.y.y.y.y.y.y.y.y.y.y.y.y.y.y.y.y.y.y.y.y.y.y.y",
".%.r.H.i.y.y.D.4.@.F.y.y.y.y.y.y.y.y.y.y.y.y.y.y.y.y.y.y.y.y.y.y.y.y.y.y.y.y.y.y.y.y.y.y.y.y.y.y.y.y.y.y.y.y.y.y.y.y.y.y.y.y.y.y",
".y | n t.2.2 Z.O.y.y.y.y.y.y.y.y.y.y.y.y.y.y.y.y.y.y.y.y.y.y.y.y.y.y.y.y.y.y.y.y.y.y.y.y.y.y.y.y.y.y.y.y.y.y.y.y.y.y.y.y.y.y.y.y",
".y.y.2      .u.y.y.y.y.y.y.y.y.y.y.y.y.y.y.y.y.y.y.y.y.y.y.y.y.y.y.y.y.y.y.y.y.y.y.y.y.y.y.y.y.y.y.y.y.y.y.y.y.y.y.y.y.y.y.y.y.y"
};
