/* XPM */
static char *zaag-r[] = {
/* width height ncolors chars_per_pixel */
"64 25 157 2",
/* colors */
"   c #AFAFAF",
" . c #ADADAD",
" X c #ABABAB",
" o c #A9A9A9",
" O c #A7A7A7",
" + c #A3A3A3",
" @ c #A1A1A1",
" # c #9F9F9F",
" $ c #9D9D9D",
" % c #9B9B9B",
" & c #999999",
" * c #979797",
" = c #939393",
" - c #8F8F8F",
" ; c #8D8D8D",
" : c #8B8B8B",
" > c #898989",
" , c #878787",
" < c #858585",
" 1 c #838383",
" 2 c #818181",
" 3 c #7F7F7F",
" 4 c #7B7B7B",
" 5 c #797979",
" 6 c #777777",
" 7 c #757575",
" 8 c #717171",
" 9 c #6D6D6D",
" 0 c #6B6B6B",
" q c #676767",
" w c #656565",
" e c #636363",
" r c #5F5F5F",
" t c #5D5D5D",
" y c #5B5B5B",
" u c #595959",
" i c #515151",
" p c #4F4F4F",
" a c #FEFEFE",
" s c #FCFCFC",
" d c #FAFAFA",
" f c #474747",
" g c #F8F8F8",
" h c #F6F6F6",
" j c #F4F4F4",
" k c #F2F2F2",
" l c #F0F0F0",
" z c #3D3D3D",
" x c #EEEEEE",
" c c #3B3B3B",
" v c #ECECEC",
" b c #EAEAEA",
" n c #E8E8E8",
" m c #E6E6E6",
" M c #2F2F2F",
" N c #E0E0E0",
" B c #DEDEDE",
" V c #DCDCDC",
" C c #D8D8D8",
" Z c #D6D6D6",
" A c #D2D2D2",
" S c #D0D0D0",
" D c #CECECE",
" F c #CCCCCC",
" G c #C6C6C6",
" H c #C4C4C4",
" J c #C2C2C2",
" K c #C0C0C0",
" L c #BABABA",
" P c #B8B8B8",
" I c #B4B4B4",
" U c #B2B2B2",
" Y c #B0B0B0",
" T c #AEAEAE",
" R c #ACACAC",
" E c #AAAAAA",
" W c #A8A8A8",
" Q c #A6A6A6",
" ! c #A4A4A4",
" ~ c #A2A2A2",
" ^ c #A0A0A0",
" / c #9C9C9C",
" ( c #9A9A9A",
" ) c #989898",
" _ c #969696",
" ` c #949494",
" ' c #929292",
" ] c #909090",
" [ c #8E8E8E",
" { c #888888",
" } c #868686",
" | c #848484",
".  c #828282",
".. c #808080",
".X c #7C7C7C",
".o c #7A7A7A",
".O c #787878",
".+ c #767676",
".@ c #747474",
".# c #727272",
".$ c #707070",
".% c #6E6E6E",
".& c #6C6C6C",
".* c #6A6A6A",
".= c #686868",
".- c #666666",
".; c #626262",
".: c #606060",
".> c #5E5E5E",
"., c #5A5A5A",
".< c #585858",
".1 c #565656",
".2 c #FFFFFF",
".3 c #FDFDFD",
".4 c #FBFBFB",
".5 c #484848",
".6 c #F9F9F9",
".7 c #F7F7F7",
".8 c #444444",
".9 c #424242",
".0 c #F3F3F3",
".q c #F1F1F1",
".w c #EFEFEF",
".e c #EDEDED",
".r c #3A3A3A",
".t c #EBEBEB",
".y c #E9E9E9",
".u c #E7E7E7",
".i c #E5E5E5",
".p c #E3E3E3",
".a c #E1E1E1",
".s c #DFDFDF",
".d c #2C2C2C",
".f c #DDDDDD",
".g c #DBDBDB",
".h c #D9D9D9",
".j c #D7D7D7",
".k c #D5D5D5",
".l c #D3D3D3",
".z c #D1D1D1",
".x c #CFCFCF",
".c c #1C1C1C",
".v c #CDCDCD",
".b c #CBCBCB",
".n c #C9C9C9",
".m c #C7C7C7",
".M c #C5C5C5",
".N c #121212",
".B c #C3C3C3",
".V c #C1C1C1",
".C c #BFBFBF",
".Z c #BBBBBB",
".A c #B9B9B9",
".S c #B7B7B7",
".D c #B5B5B5",
".F c #020202",
".G c #B3B3B3",
/* pixels */
".2.2.2.2.2.2.2.2.2.2.2.2.2.2.2.2.2.2.2.2.2.2.2.2.2.2.2.2.2.2.2.2.2.2.2.2.2.2.2.2.2.2.2.2.2.2.2.2.2.2.2 L.M.2.2.2.2.2.2.2.2.2.2.2",
".2.2.2.2.2.2.2.2.2.2.2.2.2.2.2.2.2.2.2.2.2.2.2.2.2.2.2.2.2.2.2.2.2.2.2.2.2.2.2.2.2.2.2.2.2.2 S + 7.:.@.-.= p R.2.2.2.2.2.2.2.2.2",
".2.2.2.2.2.2.2.2.2.2.2.2.2.2.2.2.2.2.2.2.2.2.2.2.2.2.2.2.2.2.2.2.2.2.2.2.2.2.2.2.2.2 n.Z Y.@ +.x ` ].8.Z.f v i o.2.2.2.2.2.2.2.2",
".2.2.2.2.2.2.2.2.2.2.2.2.2.2.2.2.2.2.2.2.2.2.2.2.2.2.2.2.2.2.2.2.2.2.2.2.2.2.s.l @.@ :.S J.2.2 R e _.d.N.r `.y 8.q.2.2.2.2.2.2.2",
".2.2.2.2.2.2.2.2.2.2.2.2.2.2.2.2.2.2.2.2.2.2.2.2.2.2.2.2.2.2.2.2.2.2.2.2.Z.$ M.N.n.2.2.2.2.2 ..o.2.2.2.C.+ > B F y.2.2.2.2.2.2.2",
".2.2.2.2.2.2.2.2.2.2.2.2.2.2.2.2.2.2.2.2.2.2.2.2.2.2.2.2.2.2.2.2.2.2.2.2.5.y.2 o ,.2.D.2.2.2.X.7.2.2.2.6.8 J e.2 . G.2.2.2.2.2.2",
".2.2.2.2.2.2.2.2.2.2.2.2.2.2.2.2.2.2.2.2.2.2.2.2.2.2.2.2.2.2.2.2.2.2.2 ;.. - ~ j.. -.F F.2.2.X.7.2.2.2.2.3.+.; H.s.1.2.2.2.2.2.2",
".2.2.2.2.2.2.2.2.2.2.2.2.2.2.2.2.2.2.2.2.2.2.2.2.2.2.2.2.2 Z O O O }.@ Q.p.p.&.2 l.+ q.f.2.2.X.7.2.2.2.2.2 f X W s.=.2.2.2.2.2.2",
".2.2.2.2.2.2.2.2.2.2.2.2.2.2.2.2.2.2.2.2.2.2.2.2.2.n.C.S.@ $.b.b.b v.2.2.2.2 K.G.2 4 g.2.2.2 $ Z.2.2.2.2.2 *.g.@.2.@.2.2.2.2.2.2",
".2.2.2.2.2.2.2.2.2.2.2.2.2.2.2.2.2.2.2.f.j.b.@.@.@ o.G.Z.2.2.2.2.2.2.2.2.2.2 k 2.2 -.p.2.2.2.2.@.2.2.2.2.2 N ' 2 k { b.2.2.2.2.2",
".2.2.2.2.2.2.2.2.2.2.2.2.2.2.2 j.y.@.@ _ % W.2.2.2.2.2.2.2.2.2.2.2.2.2.2.2.2.2 4 g.l #.2.2.2.2 c v.2.2.2.2.2.@.m X.7.X.2.2.2.2.2",
".2.2.2.2.2.2.2.2.2.2  .X.X.X.X 2 >.2.2.2.2.2.2.2.2.2.2.2.2.2.2.2.2.2.2.2.2.2.2.t ,.2.@.2.2.2.2 =.s.2.2.2.2.2 ' o X.7.X.2.2.2.2.2",
".2.2.2.2.2.2 S =.o.@ H.7.7.7.7.3.2.2.2.2.2.2.2.2.2.2.2.2.2.2.2.2.2.2.2.2.2.2.2 a.O.4 Q.v.2.2.2.V U.2.2.2.2.2   +.5.7.X.2.2.2.2.2",
".2.2.y X >.@ +.s.6.2.2.2.2.2.2.2.2.2.2.2.2.2.2.2.2.2.2.2.2.2.2.2.2.2.2.2.2.2.2.2 ! D j 3.2.2.2.2.<.e.2.2.2.2  .B.@ a. .q.2.2.2.2",
".2.2.> ^ b.2.2.2.2.2.2.2.2.2.2.2.2.2.2.2.2.2.2.2.2.2.2.2.2.2.2.2.2.2.2.2.2.2.2.2.2.o g.@.2.2.2.2 ;.m.2.2.2.2  .B.@.2 1.S.B.B b.2",
".2 K U.2.2.2.2.2.2.2.2.2.2.2.2.2.2.2.2.2.2.2.2.2.2.2.2.2.2.2.2.2.2.2.2.2.2.2.2.2.2 -.p W.b N e.u.S.Z.2.2.2.2  .Z 4.2 C       `.w",
".2 +.x.2.2.2.2.2.2.2.2.2.2.2.2.2.2.2.2.2.2.2.2.2.2.2.2.2.2.2.2.2.2.2.2.2.2.2.2.2.2 A @ J Y 0.9.+.2 6.4.2.2.2   < X.2.2.2.2.2.p -",
".2 +.x.2.2.2.2.2.2.2.2.2.2.2.2.2.2.2.2.2.2.2.2.2.2.2.2.2.2.2.2.2.2.2.2.2.2.2.2.2.2.2 [.i.:.v.2.2.2.a '.2.2.2.*.c.k.2.2.2.2.2.p.5",
".2 +.x.2.2.2.2.2.2.2.2.2.2.2.2.2.2.2.2.2.2.2.2.2.2.2.2.2.2.2.2.2.2.2.2.2.2.2.e C.2 G O.b.z %.2.2.2.2 & > * r y.k.2.2.2.2.2.2.p >",
".2 + +.2.2.2.2.2.2.2.2.2.2.2.2.2.2.2.2.2.2.2.2.2.2.2.2 h V.2.l.y.# F e.g ( `.% ,.@ z - g.j %.2.2.2.2.2 b.g.Z E               / -",
".2.y u.w.2.2.2.2.2.2.2.2.2.2 k x s.p.2 N.0. .s |.f T @ 9 ,.@.# ) I O.B ).h B.2 B.2.i 4.m w t.@.@.@.@.@.@.@ `.B.B.B.B.B.B.B.B.B.i",
".2.2 _ e.2.2 x.2 x d ! l.G V [ , *.. 5.= & ! ` X ; H.z.2.z.2 N.q.2.2.2.2.2.2.2.2.2.2 I X P.2.2.2.2.2.2.2.2.2.2.2.2.2.2.2.2.2.2.2",
".2.2.2 X.A.@.#. ., ^ D 1 K _ Q Y :.n d.f m.2.2.2.2.2.2.2.2.2.2.2.2.2.2.2.2.2.2.2.2.2.2.2.2.2.2.2.2.2.2.2.2.2.2.2.2.2.2.2.2.2.2.2",
".2.2.2 n }.2 G.q B C.2.2.2.2.2.2.2.2.2.2.2.2.2.2.2.2.2.2.2.2.2.2.2.2.2.2.2.2.2.2.2.2.2.2.2.2.2.2.2.2.2.2.2.2.2.2.2.2.2.2.2.2.2.2",
".2.2.2.2.2.2.2.2.2.2.2.2.2.2.2.2.2.2.2.2.2.2.2.2.2.2.2.2.2.2.2.2.2.2.2.2.2.2.2.2.2.2.2.2.2.2.2.2.2.2.2.2.2.2.2.2.2.2.2.2.2.2.2.2"
};
