/* XPM */
static char *zaag-r[] = {
/* width height ncolors chars_per_pixel */
"64 24 162 2",
/* colors */
"   c #AFAFAF",
" . c #ADADAD",
" X c #ABABAB",
" o c #A9A9A9",
" O c #A7A7A7",
" + c #A5A5A5",
" @ c #A3A3A3",
" # c #A1A1A1",
" $ c #9F9F9F",
" % c #9D9D9D",
" & c #999999",
" * c #979797",
" = c #959595",
" - c #939393",
" ; c #8F8F8F",
" : c #8D8D8D",
" > c #8B8B8B",
" , c #898989",
" < c #878787",
" 1 c #858585",
" 2 c #838383",
" 3 c #818181",
" 4 c #7F7F7F",
" 5 c #7D7D7D",
" 6 c #7B7B7B",
" 7 c #797979",
" 8 c #777777",
" 9 c #757575",
" 0 c #737373",
" q c #717171",
" w c #6D6D6D",
" e c #696969",
" r c #676767",
" t c #636363",
" y c #616161",
" u c #5F5F5F",
" i c #595959",
" p c #575757",
" a c #555555",
" s c #515151",
" d c #FEFEFE",
" f c #FCFCFC",
" g c #FAFAFA",
" h c #F8F8F8",
" j c #F6F6F6",
" k c #434343",
" l c #F4F4F4",
" z c #F2F2F2",
" x c #3F3F3F",
" c c #F0F0F0",
" v c #EEEEEE",
" b c #ECECEC",
" n c #393939",
" m c #EAEAEA",
" M c #E8E8E8",
" N c #E6E6E6",
" B c #E4E4E4",
" V c #E2E2E2",
" C c #E0E0E0",
" Z c #2D2D2D",
" A c #DEDEDE",
" S c #DCDCDC",
" D c #292929",
" F c #DADADA",
" G c #D8D8D8",
" H c #D6D6D6",
" J c #D2D2D2",
" K c #1F1F1F",
" L c #D0D0D0",
" P c #CECECE",
" I c #CCCCCC",
" U c #CACACA",
" Y c #C8C8C8",
" T c #C6C6C6",
" R c #C2C2C2",
" E c #C0C0C0",
" W c #BEBEBE",
" Q c #0B0B0B",
" ! c #BCBCBC",
" ~ c #BABABA",
" ^ c #B6B6B6",
" / c #B2B2B2",
" ( c #B0B0B0",
" ) c #AEAEAE",
" _ c #ACACAC",
" ` c #AAAAAA",
" ' c #A8A8A8",
" ] c #A6A6A6",
" [ c #A4A4A4",
" { c #A2A2A2",
" } c #A0A0A0",
" | c #9E9E9E",
".  c #9C9C9C",
".. c #9A9A9A",
".X c #989898",
".o c #969696",
".O c #949494",
".+ c #929292",
".@ c #909090",
".# c #8E8E8E",
".$ c #8C8C8C",
".% c #8A8A8A",
".& c #868686",
".* c #848484",
".= c #828282",
".- c #7E7E7E",
".; c #7A7A7A",
".: c #787878",
".> c #767676",
"., c #727272",
".< c #707070",
".1 c #6E6E6E",
".2 c #6C6C6C",
".3 c #6A6A6A",
".4 c #666666",
".5 c #646464",
".6 c #626262",
".7 c #606060",
".8 c #5E5E5E",
".9 c #565656",
".0 c #545454",
".q c #FFFFFF",
".w c #FDFDFD",
".e c #FBFBFB",
".r c #484848",
".t c #F9F9F9",
".y c #F7F7F7",
".u c #F5F5F5",
".i c #F3F3F3",
".p c #404040",
".a c #F1F1F1",
".s c #3E3E3E",
".d c #EFEFEF",
".f c #3C3C3C",
".g c #EDEDED",
".h c #EBEBEB",
".j c #383838",
".k c #E9E9E9",
".l c #E7E7E7",
".z c #E5E5E5",
".x c #E3E3E3",
".c c #E1E1E1",
".v c #DFDFDF",
".b c #2C2C2C",
".n c #DBDBDB",
".m c #D9D9D9",
".M c #D7D7D7",
".N c #242424",
".B c #D5D5D5",
".V c #D3D3D3",
".C c #D1D1D1",
".Z c #CFCFCF",
".A c #CDCDCD",
".S c #C9C9C9",
".D c #161616",
".F c #C7C7C7",
".G c #C5C5C5",
".H c #BFBFBF",
".J c #BBBBBB",
".K c #B9B9B9",
".L c #B5B5B5",
".P c #B3B3B3",
/* pixels */
".q.q.q.q.q.q.q.q.q.q.q.q.q.q.q.q.q.q.q.q.q.q.q.q.q.q.q.q.q.q.q.q.q.q.q.q.q.q.q.q.q.q.q.q.q.q.q.q . ; ; Q 0. .q.q.q.q.q.q.q.q.q.q",
".q.q.q.q.q.q.q.q.q.q.q.q.q.q.q.q.q.q.q.q.q.q.q.q.q.q.q.q.q.q.q.q.q.q.q.q.q.q.q.q.q.q.q.q U ).,.< q   ^ C C 7.1.q.q.q.q.q.q.q.q.q",
".q.q.q.q.q.q.q.q.q.q.q.q.q.q.q.q.q.q.q.q.q.q.q.q.q.q.q.q.q.q.q.q.q.q.q.q.q.q.q h P P 7.< + E.w _ t.b K x / M q.+.q.q.q.q.q.q.q.q",
".q.q.q.q.q.q.q.q.q.q.q.q.q.q.q.q.q.q.q.q.q.q.q.q.q.q.q.q.q.q.q.q.q.q.q d.g.L.8., # # j.q.q.q / * N T #.D u o.q.* C.q.q.q.q.q.q.q",
".q.q.q.q.q.q.q.q.q.q.q.q.q.q.q.q.q.q.q.q.q.q.q.q.q.q.q.q.q.q.q.q.q.q.q { k.= u.2.q.q.q.q.q.q.f.g.q.q.q @ 2 y.G.S.7.q.q.q.q.q.q.q",
".q.q.q.q.q.q.q.q.q.q.q.q.q.q.q.q.q.q.q.q.q.q.q.q.q.q.q.q.q.q.q.q.q.q.h 2.t.q.e.2 f i (.q.q.q.<.q.q.q.q g : ~ p d _ R.q.q.q.q.q.q",
".q.q.q.q.q.q.q.q.q.q.q.q.q.q.q.q.q.q.q.q.q.q.q.q.q.q.q.q.q.q.q.q.c ! [.7.< a S.C &.N p.q.q.q.<.q.q.q.q.q R.=.8 d.G i.q.q.q.q.q.q",
".q.q.q.q.q.q.q.q.q.q.q.q.q.q.q.q.q.q.q.q.q.q.q.q.q.q.w.n.P.<.<.<.#.P R.q.q o T.q.< S.A.q.q.q.<.q.q.q.q.q.g p.B...q.<.q.q.q.q.q.q",
".q.q.q.q.q.q.q.q.q.q.q.q.q.q.q.q.q.q.q.q d g g g 2.<.,.O !.q.q.q.q.q.q.q.q.q q d.H (.q.q.q.q.&.k.q.q.q.q.q.,.w.<.q.<.q.q.q.q.q.q",
".q.q.q.q.q.q.q.q.q.q.q.q.q.q.q.q.q g.%.% 1 9 9 9 b.q.q.q.q.q.q.q.q.q.q.q.q.q ~.L h 8.q.q.q.q =.m.q.q.q.q.q.c.# 4 c. .V.q.q.q.q.q",
".q.q.q.q.q.q.q.q.q.q.q.q.q.q _ &.< 9.z.z.h.q.q.q.q.q.q.q.q.q.q.q.q.q.q.q.q.q.C | d <.k.q.q.q.K.4.q.q.q.q.q.c.#.@ A.Z }.q.q.q.q.q",
".q.q.q.q.q.q.a.S.F.<.<.<.<.< R.B.q.q.q.q.q.q.q.q.q.q.q.q.q.q.q.q.q.q.q.q.q.q.q.&.k #.A.q.q.q.q.<.q.q.q.q.q h.: ; E.Z }.q.q.q.q.q",
".q.q.e M M.>.- ] '.q.q.q.q.q.q.q.q.q.q.q.q.q.q.q.q.q.q.q.q.q.q.q.q.q.q.q.q.q.q.m.o.q 9 g.q.q.q % J.q.q.q.q.q q.M.5.V. .q.q.q.q.q",
".q , 6 < <.t.q.q.q.q.q.q.q.q.q.q.q.q.q.q.q.q.q.q.q.q.q.q.q.q.q.q.q.q.q.q.q.q.q.g.=.q '.F.q.q.q.L.1.q.q.q.q.q q d.<.q.<.q.q.q.q.q",
" - ,.t.q.q.q.q.q.q.q.q.q.q.q.q.q.q.q.q.q.q.q.q.q.q.q.q.q.q.q.q.q.q.q.q.q.q.q.q.q O.F '.F.q.q.q.w.1.q.q.q.q.q q d.<.q e * * * C.q",
" 9 g.q.q.q.q.q.q.q.q.q.q.q.q.q.q.q.q.q.q.q.q.q.q.q.q.q.q.q.q.q.q.q.q.q.q.q.q.q.q h 8 z 5 h.3.$ l.$.x.q.q.q.q q A ;.q.l G G G & C",
".<.q.q.q.q.q.q.q.q.q.q.q.q.q.q.q.q.q.q.q.q.q.q.q.q.q.q.q.q.q.q.q.q.q.q.q.q.q.q.q.w 2.g.- S D s.v.n.O.q.q.q.q q.: A.q.q.q.q.q S -",
".<.q.q.q.q.q.q.q.q.q.q.q.q.q.q.q.q.q.q.q.q.q.q.q.q.q.q.q.q.q.q.q.q.q.q.q.q.q.q.q.q L $.S.9.q.q.q.q.H X d.q.l Z.r z.q.q.q.q.q S.p",
".<.q.q.q.q.q.q.q.q.q.q.q.q.q.q.q.q.q.q.q.q.q.q.q.q.q.q.q.q.q.q.q.q.q.q.q.q.q.J.q.J.q.<.q.<.q.q.q.q.t.;.* 1 n.; d.q.q.q.q.q.q S -",
".r l.q.q.q.q.q.q.q.q.q.q.q.q.q.q.q.q.q.q.q.q.q.q.q.q g.C.q I.i.0 H.>.L } >.,., 4.6 x.z.q.<.q.q.q.q.q.q b m   [ [ [ [ [ [ [ [.# -",
" q.H.q.q.q.q.q.q.q.q.q.q.q C.w v.d.w C m 3.M.>.x ` $ w 4 9 r.o.S.X U * P B.w.a c d 1 ^ +.s.<.<.<.<.<.<.<.< . U U U U U U U U U M",
" F x.B.q.a d h.y b +.i { N.=.  u & w 6 ; %.X X.%.G L.q.B g m.z.q.q.q.q.q.q.q.q.q.q G X X V.q.q.q.q.q.q.q.q.q.q.q.q.q.q.q.q.q.q.q",
".q.n.O ].j ! a $.* U.-.A.-.S.& o W.q Y.u.q.q.q.q.q.q.q.q.q.q.q.q.q.q.q.q.q.q.q.q.q.q.q.q.q.q.q.q.q.q.q.q.q.q.q.q.q.q.q.q.q.q.q.q",
".q.q x } f.< f.< d.q.w.q.w.q d.q.q.q.q.q.q.q.q.q.q.q.q.q.q.q.q.q.q.q.q.q.q.q.q.q.q.q.q.q.q.q.q.q.q.q.q.q.q.q.q.q.q.q.q.q.q.q.q.q"
};
