/* XPM */
static char *noname[] = {
/* width height ncolors chars_per_pixel */
"64 64 24 1",
/* colors */
"  c #000000",
". c #ABABAB",
"X c #A9A9A9",
"o c #A7A7A7",
"O c #878787",
"+ c #858585",
"@ c #FEFEFE",
"# c #FCFCFC",
"$ c #E4E4E4",
"% c #E2E2E2",
"& c #E0E0E0",
"* c #030303",
"= c #010101",
"- c #ACACAC",
"; c #AAAAAA",
": c #A8A8A8",
"> c #868686",
", c #848484",
"< c #FFFFFF",
"1 c #FDFDFD",
"2 c #E5E5E5",
"3 c #E3E3E3",
"4 c #E1E1E1",
"5 c #020202",
/* pixels */
"<<<<<<<<<<<<<<<<@<<<@<<@<<        @<<@<<<@<<<<<<<<<<<<<<<<<<<<<<",
"<<<<<<<<<<<<<<<<<<<@<<1<<<< = ==  << =<@<<@<<<<<<<<<<<<<<<<<<<<<",
"<<<<<<<<<<<<<<<<@@<<<<<<<1<<     =;:;X:;:X=<<<<<<<<<<<<<<<<<<<<<",
"<<<<<<<<<<<<<<<<<<1<<<<<<=   X;.XXoXX;X;XX:X= @<<<<<<<<<<<<<<<<<",
"<<<<<<<<<<<<<<<<@<<<<  = Xo;;XX:X =XX =  =X;:;<<<<<<<<<<<<<<<<<<",
"<<<<<<<<<<<<<<<<<<@   =  ;XXX =,>+ X ++>>,><=: @<<<<<<<<<<<<<<<<",
"<<<<<<<<<<<<<<<<<<<<<   X: =,++O,>,=++>,,>,=  <<<<<<<<<<<<<<<<<<",
"<<<<<<<<<<<<<<<<<<<<@XXX: =,+>+,= =    >++=  =@<<<<<<<<<<<<<<<<<",
"<<<<<<<<<<<<<<<<@<<< XXX; +++   =o;XXXXX  <<<@<<<<<<<<<<<<<<<<<<",
"<<<<<<<<<<<<<<<<<<1< X:X  + =;oX:;oX:;;X.:<<<<@<<<<<<<<<<<<<<<<<",
"<<<<<<<<<<<<<<<<<1<<    <  XXo.;;  =  X:X;  <<<@<<<<<<<<<<<<<<<<",
"<<<<<<<<<<<<<<<<<<<<@<@<<@=X;::      =X;:;X;  <<<<<<<<<<<<<<<<<<",
"<<<<<<<<<<<<<<<<<@@<<<<<<@=X -XX 5    X:.:X:; <<<<<<<<<<<<<<<<<<",
"<<<<<<<<<<<<<<<<<<@<@@<@<@  ;:;X 1= @@=X:  X;; <<<<<<<<<<<<<<<<<",
"<<<<<<<<<<<<<<<<<@<<@<<<<= XX: =<@  <<< =  = ;=@<<<<<<<<<<<<<<<<",
"<<<<<<<<<<<<<<<<<<<<<@<<< ;XX =@<<  <<<<     X<<<<<<<<<<<<<<<<<<",
"<<<<<<<<<<<<<<<<<<<@@<@<@XX;  =<<@= =  <<=  <@<<<<<<<<<<<<<<<<<<",
"<<<<<<<<<<<<<<<<<<@<<<@<=:= ;5@<<<  @<<<< = @<@<<<<<<<<<<<<<<<<<",
"<<<<<<<<<<<<<<<<<<<<1<@< ::;X  5=@5=1<@  = =<<<@<<<<<<<<<<<<<<<<",
"<<<<<<<<<<<<<<<<@<<<<<<  XX = <@< 1< <5     <<<<<<<<<<<<<<<<<<<<",
"<<<<<<<<<<<<<<<<<<@@<<@ X  <@<@<<<<@    =  5<<@<<<<<<<<<<<<<<<<<",
"<<<<<<<<<<<<<<<<<@@<@@<= <1<<   = <<<<<=    @@<<<<<<<<<<<<<<<<<<",
"<<<<<<<<<<<<<<<<@<<<<   =    <<<@  = =<   <<<<@<<<<<<<<<<<<<<<<<",
"<<<<<<<<<<<<<<<<<<<<<=    @<@<<<<<@   <<<=<<<@<<<<<<<<<<<<<<<<<<",
"<<<<<<<<@<@@<<@<<<@  @<<<  <<< <<<    <@< @<@<<<@<<@<<<<<<<<<<<<",
"<<<<<<<<@<<<<<<<@< @<<<<@<<  <<=  =  <<=@< @<@<1<<<<@@<<<<<<<<<<",
"<<<<<<<<<<@@<<<<<  <<@@<<<    <  =  <<     = <@<#<<@<<@<<<<<<<<<",
"<<<<<<<<@<<<<<<< <<<@<<<<<@<<=<@@<<<<<@<<<@<< @@<<@@<@<@<<<<<<<<",
"<<<<<<<<<<<<<    @<=     <  @<1<<<<<<<<@<@<<@<<<<@<<@<@<<<<<<<<<",
"<<<<<<<<@<@<=<< =  <@<<<<<<<< 5 @<@<<@@<@<<@<<@<< @<<@<<<<<<<<<<",
"<<<<<<<<<<<<    @* <<@<@= <@    =<<@<<<<<<<<<@<<<    <<<<<<<<<<<",
"<<<<<<<<<@5<=< =<@<  <@<@<<<  @   <   << <<<<<<@<<<@<= <<<<<<<<<",
"<@<<<<<<@< <<<<<<<<<<@  <<<<<@<@<<@<<<<<<<<@ =  <@<<@@=<<<<<<<<<",
"<<<<@  ==1<<@<@<@<<<<<=@<@<<<<@<<@<<<<<@@@<<@<<  5  << <@=<@<@1<",
"<<<<= @  @<<<@<@<<@<<@@<@<<@<1<@@<<<@<@<<<<<@<<<<@<  = <<  <<@<<",
"<<<  < <<<@<@<@<<@<<<<@<<<1<<<@<@<@<<<<<<<1<<@@<<<<<<1<< <<@<<11",
"<@@ < 5 <<<<<<<<<<@<1<<@< <<<<@@<1<<<1<<<@<<<@<<<@@<@<<<=<<<@<<<",
"<<<  @<<@<<<@<<<@<<1<  <@<@@<<<< 5@<<<<@@<<<@<<<<@<<@<@<<@ = <@<",
"<@ <   <<<<<@@<<<@@< <<<<<<<<@<< @<<  <<<#<<<<<@<@<@<<<<@<= < <<",
"<<  @<<<<@@<@<<<<= = <@<<@< <<<<<<<<<<<@  <<<<<<<<<<<@<@<< =< <<",
"<<  <@<<<<<<<<<<<<<<< =<<=  <<<<<<<<<<@<< << <<<<<<<<<<<  <<  <@",
"<<5  <<<<<<<<<<<< @<< 3$%%$3$= <    = <<<@< <<<<<@<<<<  <@ =@  <",
"< @<=@<@<<<<<<<<< < 3$33$333%3332%3$%$%   =<1<<1<<<<@<<< <<=<@< ",
"@5<<<@<<<<<<<<<<<=@ %3$%3$3$$$%3&$$%%33$3$ ==@<<<<<<@<<< << <<< ",
"<< <  <<<<<<<<<<< =$$%333%=%3%33$2 3$3$333 @<<<<<<<<<<< @@<<1  @",
"  <@=<<<<<<<<<<<< %$%2$33$ 3$=333% %$$%$%$==<<<<<<<<@<<=<< 1<< <",
" << @<<@<<<<<<<<@ = =34$3 $%3 3 33=333$33  <@<<<@<<@<@< @<<    <",
" << <<<<<<<<<<<<<@ < 3$%$ 33% 3 3$ 333   = <<@<<<@<<1<< <<@5@< <",
"  <<@ 5 <<<@<<<@< =  333 3333 % 333 $3<<=  <<<<<<@<<<< <<<@ <@=@",
"@<  5< <<<<<<<<<@<<<<@<<<  $3 3=333 3   <1<<<<@<@<<<<<=<<<< <=<<",
"<@<<@< <<1@<<<<@<<@<<<<  <<<@ @=@<<  <=<<<<@<<<<<<   <<@<< << @@",
"<<<< @< @<<<@<< <<<<@<<<==<<  = <<@  @<@=@@<<1<@<< <<@<<@< =  <<",
"<<@<@       =@<  @<@<<@  <<@< < <<< <<<<< <<< <  <<<<<<  @< <<@<",
"<<<<1<@<<@    <<<<@<  = <<@<<<1=@<<@ <@<<<<@<@<<<<<<@<@< =1<1@<<",
"@@@@<@<<    @ =<@ <<<@ <@@<<<@< <@<<51<@<<@<@<<@@<@1<< @< <<<<<<",
"<<<<<<<<<<<< <<<=< <<< <=<<<<<@ <<<@ <@<<@<<<<<<< =<  <   <@<@<<",
"<<<<<<<<<<<<<<<<<  < = << =       =  < <<<  @<<    <@< <<<<<<<<<",
"<<<<<<<<<<<<<<<<<<<     @<1<<= =<<<   =<<< ==@<@ <<  <<<<<<<<<<<",
"<<<<<<<<<<<<<<<<<<<<@<<<<@<<<@=    <  =1  <@@<@<<<<@<@<@<<<<<<<<",
"<<<<<<<<<<<<<<<<<<@<<<@<@<<@<@< <<<<< <<<<@@<<<<@<<<<<<<<<<<<<<<",
"<<<<<<<<<<<<<<<<<<<< <<<<<1< << <@<1< <<<<<<@<@@<@<<@<<@<<<<<<<<",
"<<<<<<<<<<<<<<<<<@<< <<<<<<@@@@=<<1<< <<<@<<<<<<<<<<<<@<<<<<<<<<",
"<<<<<<<<<<<<<<<<<<<<<<@<1<@<<<< <@<<1<<<<<<<@<@@<<<<@<<<<<<<<<<<",
"<<<<<<<<<<<<<<<<<<<<<@<<<@<<<<<<<<<<<@<<<<<<<@<<<<<<@<<<<<<<<<<<"
};
