/* XPM */
static char *zon-r[] = {
/* width height ncolors chars_per_pixel */
"64 61 162 2",
/* colors */
"   c #B1B1B1",
" . c #AFAFAF",
" X c #ABABAB",
" o c #A9A9A9",
" O c #A7A7A7",
" + c #A5A5A5",
" @ c #A3A3A3",
" # c #A1A1A1",
" $ c #9D9D9D",
" % c #9B9B9B",
" & c #999999",
" * c #979797",
" = c #959595",
" - c #939393",
" ; c #919191",
" : c #8F8F8F",
" > c #8D8D8D",
" , c #8B8B8B",
" < c #898989",
" 1 c #878787",
" 2 c #858585",
" 3 c #838383",
" 4 c #818181",
" 5 c #7F7F7F",
" 6 c #7D7D7D",
" 7 c #7B7B7B",
" 8 c #797979",
" 9 c #777777",
" 0 c #757575",
" q c #737373",
" w c #6F6F6F",
" e c #6D6D6D",
" r c #6B6B6B",
" t c #696969",
" y c #676767",
" u c #656565",
" i c #636363",
" p c #616161",
" a c #5F5F5F",
" s c #5D5D5D",
" d c #5B5B5B",
" f c #575757",
" g c #FEFEFE",
" h c #FCFCFC",
" j c #494949",
" k c #FAFAFA",
" l c #474747",
" z c #F8F8F8",
" x c #F6F6F6",
" c c #F4F4F4",
" v c #F2F2F2",
" b c #F0F0F0",
" n c #3D3D3D",
" m c #EEEEEE",
" M c #ECECEC",
" N c #E8E8E8",
" B c #E6E6E6",
" V c #E4E4E4",
" C c #E2E2E2",
" Z c #E0E0E0",
" A c #DEDEDE",
" S c #DCDCDC",
" D c #DADADA",
" F c #D8D8D8",
" G c #D6D6D6",
" H c #D4D4D4",
" J c #D2D2D2",
" K c #D0D0D0",
" L c #CECECE",
" P c #CCCCCC",
" I c #CACACA",
" U c #C8C8C8",
" Y c #C6C6C6",
" T c #C4C4C4",
" R c #C2C2C2",
" E c #C0C0C0",
" W c #BEBEBE",
" Q c #BCBCBC",
" ! c #BABABA",
" ~ c #B8B8B8",
" ^ c #B6B6B6",
" / c #B2B2B2",
" ( c #B0B0B0",
" ) c #AEAEAE",
" _ c #ACACAC",
" ` c #AAAAAA",
" ' c #A8A8A8",
" ] c #A6A6A6",
" [ c #A4A4A4",
" { c #A2A2A2",
" } c #A0A0A0",
" | c #9E9E9E",
".  c #9C9C9C",
".. c #9A9A9A",
".X c #989898",
".o c #949494",
".O c #929292",
".+ c #8E8E8E",
".@ c #8C8C8C",
".# c #8A8A8A",
".$ c #888888",
".% c #868686",
".& c #848484",
".* c #828282",
".= c #808080",
".- c #7E7E7E",
".; c #7C7C7C",
".: c #7A7A7A",
".> c #787878",
"., c #767676",
".< c #747474",
".1 c #727272",
".2 c #6E6E6E",
".3 c #6C6C6C",
".4 c #686868",
".5 c #666666",
".6 c #646464",
".7 c #626262",
".8 c #5C5C5C",
".9 c #585858",
".0 c #565656",
".q c #545454",
".w c #505050",
".e c #FFFFFF",
".r c #FDFDFD",
".t c #4A4A4A",
".y c #FBFBFB",
".u c #F9F9F9",
".i c #F7F7F7",
".p c #F5F5F5",
".a c #424242",
".s c #F3F3F3",
".d c #F1F1F1",
".f c #EFEFEF",
".g c #EDEDED",
".h c #EBEBEB",
".j c #E9E9E9",
".k c #E7E7E7",
".l c #E5E5E5",
".z c #E3E3E3",
".x c #303030",
".c c #E1E1E1",
".v c #DFDFDF",
".b c #DDDDDD",
".n c #D9D9D9",
".m c #D7D7D7",
".M c #D5D5D5",
".N c #D3D3D3",
".B c #D1D1D1",
".V c #CDCDCD",
".C c #CBCBCB",
".Z c #C9C9C9",
".A c #C7C7C7",
".S c #C5C5C5",
".D c #C3C3C3",
".F c #C1C1C1",
".G c #BFBFBF",
".H c #BBBBBB",
".J c #B9B9B9",
".K c #B7B7B7",
".L c #B5B5B5",
".P c #B3B3B3",
/* pixels */
".e.e.e.e.e.e.e.e.e.e.e.e.e.e.e.e.e.e.e.e.e.e.e.e.e.e.e.e.e.e.e.e.e.e.e.e.e.e.e.e.e.e.e.e.e.e.e.e.e.e.e.f @.p.e.e.e.e.e.e.e.e.e.e",
".e.e.e.e.e.e.e.e.e.e.e.e.e.e.e.e.e.e.e.e.e.e.e.e.e.e.e.e.e.e.e.e.e.e.e.e.e.e.e.e.e.e.e.e.e.e.e.e.e.e.e 6 ~.i.e.e.e.e.e.e.e.e.e.e",
".e.e.e.e.e.e.e.e.e.e.e.e.e.e.e.e.e.e.e.g : v.e.e.e.e.e.e.e.e.e.e.e.e.e.e.e.e.e.e.e.e.e.e.e.e.e.e.e.e.V.+.e.e.e.e.e.e.e.e.e.e.e.e",
".e.e.e.e.e.e.e.e.e.e.e.e.e.e.e.e.e.e.e.i p.c.e.e.e.e.e.e.e.e.e.e.e.e.e.e.e.e.e.e.e.e.e.e.e.e.e.e b 6.+.p.e.e.e.e.e.e.e.e.e.e.e.e",
".e.e.e.e.e.e.e.e.e.e.e.e.e.e.e.e.e.e.e.e.G. .e.e.e.e.e.e.e.e.e.e.e.e.e.e.e.e.e.e.e.e.e.e.e.e.e o.- A.e.e.e.e.e.e.e.e.e.e.e.e.e.e",
".e.e.e.e.e.e.e.e.e.e.e.e.e.e.e.e.e.e.e.e.e.<.k.e.e.e.e.e.e.e.e.e.e.e.e.e.e.e.e.e.e.e.e.e.e.e o / M.e.e.e.e.e.e.e.e.e.e.e.e.e.e.e",
".e.e.e.e.e.e.e.e.e.e.e.e.e.e.e.e.e.e.e.e.e.F...e.e.e.e.e.e.e.e.e.e.e.e.e.e.e.e.e.e.e.e.e.v.5.P.e.e.e.e.e.e.e.e.e.e.e.e.e.e.e.e.e",
".e.e.e.e.e.e.e.e.e.e.e.e.e.e.e.e.e.e.e.e.e.M < h.e.e.e.e.e.e N C.e.e.e.e.e.e.e.e.e.e.e.m.$.p g.e.e.e.e.e.e.e.e.e.e.e.e.e.e.e.e.e",
".e.e.e.e.e.e.e.e.e.e.e.e.e.e.e.e.e.e.e.e.e.e.3.f.e.e.e.e.e.e.J #.e.e.e.e.e.e.e.e.e.e g.* D.e.e.e.e.e.e.e.e.e.e.e.e.e.e.e.e.e.e.e",
".e.e.e.e.e.e.e.e.e.e.e.e.e.e.e.e.e.e.e.e.e.e.e.8.e.e.e.e.e.e.e.8.e.e.e.e.e.e.e.e.e.M -  .e.e.e.e.e.e.e.e.e.e.e.e.e.e.e.e.e.e.e.e",
".e.e.e.e.e.e.e >.p.e.e.e.e.e.e.e.e.e.e.e.e.e.e.5.p.e.e.e.e.e.e.m.&.e.e.e.e.e.e.e x q I.e.e.e.e.e.e.e.e.e.e.e.e.e.e.e.e.e.e.e.e.e",
".e.e.e.e.e.e.e.M.%.e.e.e.e.e.e.e.e.p.H.e.e.e.e _ ).e.e.e.e.e.e g.-.b.e.e.e.e.e.e `  .e.e.e.e.e.e.e.e.e.e.e.e.e.e.e.e.e.e.e.e.e.e",
".e.e.e.e.e.e.e.e.v <.s.e.e.e.e.e.e m 9.p.e.e.e v t.e.e.e.e.e.e.e.L ].e.e.e.e.e.J {.e.e.e.e.e.e.e.e.e.e.e.e.e.e.e.e.e.e.e.e.e.e.e",
".e.e.e.e.e.e.e.e.e J <.e.e.e.e.e.e.e.V >.e.e.e.e   `.e.e.e.e.e.e.e.K.e.e.e.e.e.w ..e.e.e.e.e.e.e.e.e.e.e.e.e.e.e.e.e.e.e.e.e.e.e",
".e.e.e.e.e.e.e.e.e.e A.$ c.e.e.e.e.e.e.-.b.e.e.e g.o...e.e.e.e.e.e.e.e.e.e.e.e M.u.e.e.e.e.e.e K.8.N.e.e.e.e.e.e.e.e.e.e.e.e.e.e",
".e.e.e.e.e.e.e.e.e.e.e.N.$.e.e.e.e.e.e G.x.h.e.e.e D l g.e.e.e.e.e.e.e.e.e.e.e.e.e.e.e.e.e g y ,.e.e.e.e.e.e.e.e.e.e.e.e.e.e.e.e",
".e.e.e.e.e.e.e.e.e.e.e.e A.& Q.e.e.e.e.e ` j.e.e.e.e.h.-.d.e.e.e.e.e.e.e.e.e.e.e.e.e.e.e M 7.@.e.e.e.e.e.e.e.e.e.e.e.e.e.e.e.e.e",
".e.e.e.e.e.e.e.e.e.e.e.e.e.m |.8 v.e.e.e.e.a W.e.e.e.e.b c.e.e.e.e.e.e.e.e.e.e.e.e.e.e.e.$ Z.e.e.e.e.e.e.e.e.e.e.e.e.e.e.e.e.e.e",
".e.e.e.e.e.e.e.e.e.e.e.e.e.e.e.e.;.+ E.e.e.e.e.e.e.e.e.e N.+.+.+.+.+.+ #.e.e.e.e.e.e.e.e.e.e.e.e.e.e.e.e.e.e.e.e.e.e.e.e.e.e.e.e",
".e.e.e.e.e.e.e.e.e.e.e.e.e.e.e.e.g.V.z.e.e.e.e.e.e m 8.8 q.V.V.V.V.V.V !.8.8 + g.e.e.e.e.e.e.e.e.e.e.e.e.e.e.e.e.e.e.e.e.e.e.e.e",
".e.e.e.e.e.e.e.e.e.e.e.e.e.e.e.e.e.e.e.e.e.e.e.e [.- C.e.e.e.e.e.e.e.e.e.e.e.L.:.M.e.e.e.e.e.e.e.e.e.e.e.e.e.e.e.e.e.e.e.e.e.e.e",
".e.e.e.e.e.e.e.e.e.e.e.e.e.e.e.e.e.e.e.e.e.e D }.K.g.e.e.e.e.e.e.e.e.e.e.e.e.e C.#.F.d.e.e.e.e.e.e.e.e.e.e.e.e.e.e.e.e.e.e.e.e.e",
".e.e.e.e.e.e.e.e.e.e.e.e.e.e.e.e.e.e.e.e.e.n 2.H.e.e.e.e.e.e.e.e.e.e.e.e.e.e.e.e k.. 2.e.e.e.e.e.e.e.e.e.e.e.e.e.e.e.e.e.e.e. .e",
".e.e.e.e.e.e.e.e.e.e.e.e.e.e.e.e.e.e.e.e.e }.H.e.e.e.e.e.e.e.e.e.e.e.e.e.e.e.e.e.e.e.% H.e.e.e.e.e.e.e.e.e.e.e.e.e.e.G 2.8.8 m.e",
".e.e.e.e.e.e.e.e.e.e 3 f D c g.e.e.e.e.e [.K.e.e.e.e.e.e.e.e.e.e.e.e.e.e.e.e.e.e.e.e.p 4 V.e.e.e.e.e.e.e.e.e.e c ,.8 % G.e.e.e.e",
".e.e.e.e.e.e.e.e.e.e.e ^ y y.s.e.e.e.e m.-.g.e.e.e.e.e.e.e.e.e.e.e.e.e.e.e.e.e.e.e.e.e.L ].e.e.e.e.e.e m.X.X.X t K.e.e.e.e.e.e.e",
".e.e.e.e.e.e.e.e.e.e.e.e.e.e.e.e.e.e.e.> C.e.e.e.e.e.e.e.e.e.e.e.e.e.e.e.e.e.e.e.e.e.e.e.8.e.e.e ..8.8 e.D.D.D.r.e.e.e.e.e.e.e.e",
".e.e.e.e.e.e.e.e.e.e.e.e.e.e.e.e.e.e.e.8.e.e.e.e.e.e.e.e.e.e.e.e.e.e.e.e.e.e.e.e.e.e.e.e ;.Z.e g _.e.e.e.e.e.e.e.e.e.e.e.e.e.e.e",
".e.e.e.e.e.e.e.e.e.e.e.e.e.e.e.e.e.e.e.8.e.e.e.e.e.e.e.e.e.e.e.e.e.e.e.e.e.e.e.e.e.e.e.e I ;.e.e.e.e.e.e.e.e.e.e.e.e.e.e.e.e.e.e",
".e.e.e.e.e.e.e.e.e.e.e.e.e.e.e.e.e.e.e.8.e.e.e.e.e.e.e.e.e.e.e.e.e.e.e.e.e.e.e.e.e.e.e.e I ;.e.e.e.e.e.e.e.e.e.e.e.e.e.e.e.e.e.e",
".e.e.e.e.e.e.e.e.e.e x ^ ^ 3.#.e.e.e.e.8.e.e.e.e.e.e.e.e.e.e.e.e.e.e.e.e.e.e.e.e.e.e.e.e I ;.e.e.e.e.e.e.e.e.e.e.e.e.e.e.e.e.e.e",
".e g.e g g g g I.8.8 u + + F.e.e.e.e.e.8.e.e.e.e.e.e.e.e.e.e.e.e.e.e.e.e.e.e.e.e.e.e.e.e I ;.e.e.e.e.e.e.e.e.e.e.e.e.e.e.e.e.e.e",
".e.q d.t s s s ;.e.e.e.e.e.e.e.e.e.e.e.8.e.e.e.e.e.e.e.e.e.e.e.e.e.e.e.e.e.e.e.e.e.e.e.e I ;.e.e.e.e.e.e L { {.F.e.e.e.e.e.e.e.e",
".e.V.J.d.e.e.e.e.e.e.e.e.e.e.e.e.e.e.e.5.p.e.e.e.e.e.e.e.e.e.e.e.e.e.e.e.e.e.e.e.e.e.e.e.:.c.e g.8.8.8.8 >.J.J K.e.e.e.e.e.e.e.e",
".e.e.e.e.e.e.e.e.e.e.e.e.e.e.e.e.e.e.e.M 2.e.e.e.e.e.e.e.e.e.e.e.e.e.e.e.e.e.e.e.e.e.e.e.8.e.e.e.e.e.e.e.e.e.e.e.e.e.e.e.e.e.e.e",
".e.e.e.e.e.e.e.e.e.e.e.e.e.e.e.e.e.e.e.i.O.B.e.e.e.e.e.e.e.e.e.e.e.e.e.e.e.e.e.e.e.e k...A.e.e.e.e.e.e.e.e.e.e.e.e.e.e.e.e.e.e.e",
".e.e.e.e.e.e.e.e.e.e.e.e.e.e.e.e.e.e.e.e.e ; I.e.e.e.e.e.e.e.e.e.e.e.e.e.e.e.e.e.e.e...F.e.e.e.e.e.e.e.e.e.e.e.e.e.e.e.e.e.e.e.e",
".e.e.e.e.e.e.e.e.e.e.e.e.e.e.e.e.e.B S.e.e z ;.B.e.e.e.e.e.e.e.e.e.e.e.e.e.e.e.e h * Y.e.e.e.e.e.e.e.e.e.e.e.e.e.e.e.e.e.e.e.e.e",
".e.e.e.e.e.e.e.e.e.e.e.e.e.e.e.e.6.@.A.e.e.e.e > r.e.e.e.e.e.e.e.e.e.e.e.e.e.e P y T.e.e.e.e w U.e.e.e.e.e.e.e.e.e.e.e.e.e.e.e.e",
".e.e.e.e.e.e.e.e.e.e.e.e.e K =.8 x.r.e.e.e.e.e h.f.; _ _ v.e.e.e.e.e.e.e.N _ _ ; x.e.e.e.e.e.i.O 8.P.e.e.e.e.e.e.e.e.e.e.e.e.e.e",
".e.e.e.e.e.e.e.e.e.e.e.e., , Y.e.e.e.e.e.e.e.e.e.e.v . . t.8 1.s.s B.8.8.$ . . h.e.e.e.e.e.e.e.e C '.8 G.s g.e.e.e.e.e.e.e.e.e.e",
".e.e.e.e.e.e.e.e.e.e.e.e.e.e.e.e.e.e.e.e.e.e.e.e.e.e.e.e.e.e H.4.4 0.e.e.e.e.e.e.e.e.e.e O J.e.e.e.e.e 2.4.O G.e.e.e.e.e.e.e.e.e",
".e.e.e.e.e.e.e.e.e.e.e.e.e.e.e.e.e.e.e.e.e.e.e.e g M.e.e.e.e.e.e.e.e.e.e.e.e.e.e.e.e.e.e X.@.r.e.e.e.e.e.e.C 2 1.c.e.e.e.e.e.e.e",
".e.e.e.e.e.e.e.e.e.e.e.e.e.e.e.e.e.e.e.e.e.e.e.e c y.e.e.e.e.e.e.e.e.e.e.e.e.e.e.e.e.e.e.e.2 $.e.e.e.e.e.e.e.e H.; 3 C.e.e.e.e.e",
".e.e.e.e.e.e.e.e.e.e.e.e.e.e.e.e.e.e.e.e.e.e.e.e c y.e.e.b.e.e.e ( T.e.e.e.b.e.e.i <.s.e.e.j n ;.e.e.e.e.e.e.e.e.r F.+.e.e.e.e.e",
".e.e.e.e.e.e.e.e.e.e.e.e.e.e.e.e.e.e.e.e.e.e.e.e c y.e.e.8.e.e.e {.J.e.e.e.8.e.e.e J <.e.e.e.v.O.e.e.e.e.e.e.e.e.e.e.e.e.e.e.e.e",
".e.e.e.e.e.e.e.e.e.e.e.e.e.e.e.e.e.e.e.e.e.e.e.k 5 c.e.e.8.e.e.e z.7.e.e.e.t C.e.e.e.M.7 c.e.e.e.e.e.e.e.e.e.e.e.e.e.e.e.e.e.e.e",
".e.e.e.e.e.e.e.e.e.e.e.e.e.e.e.e.e.e.e.e.e.e.e.>.z.e.e.e.S.e.e.e.e.8.e.e.e 1 %.e.e.e c.0.2 g.e.e.e.e.e.e.e.e.e.e.e.e.e.e.e.e.e.e",
".e.e.e.e.e.e.e.e.e.e.e.e.e.e.e.e.e.e.e.e.e.e Y =.e.e.e.e.e.e.e.e.e.8.e.e.e E.7 h.e.e.e.e i d z.e.e.e.e.e.e.e.e.e.e.e.e.e.e.e.e.e",
".e.e.e.e.e.e.e.e.e.e.e.e.e.e.e.e.e.e.e.e.e.D.@.r.e.e.e.e.e.e.e.e.e.D.X.e.e m !.r.e.e.e.e.d s Z.e.e.e.e.e.e.e.e.e.e.e.e.e.e.e.e.e",
".e.e.e.e.e.e.e.e.e.e.e.e.e.e.e.e.e.e.e.e.D 0.A.e.e.e.e.e.e.e.e.e.e.j.1.e.e.e.e.e.e.e.e.e.e.e.&.m.e.e.e.e.e.e.e.e.e.e.e.e.e.e.e.e",
".e.e.e.e.e.e.e.e.e.e.e.e.e.e.e.e.e.e.e z.; B.e.e.e.e.e.e.e.e.e.e.e.j.1.e.e.e.e.e.e.e.e.e.e.e R &.e.e.e.e.e.e.e.e.e.e.e.e.e.e.e.e",
".e.e.e.e.e.e.e.e.e.e.e.e.e.e.e.e.e.e.e = Y.e.e.e.e.e.e.e.e.e.e.e.e.p.=.l.e.e.e.e.e.e.e.e.e.e.e.8.e.e.e.e.e.e.e.e.e.e.e.e.e.e.e.e",
".e.e.e.e.e.e.e.e.e.e.e.e.e.e.e.e.e.e.z.>.e.e.e.e.e.e.e.e.e.e.e.e.e.e > L.e.e.e.e.e.e.e.e.e.e.e.h.9 m.e.e.e.e.e.e.e.e.e.e.e.e.e.e",
".e.e.e.e.e.e.e.e.e.e.e.e.e.e.e.e.e.e.+.V.e.e.e.e.e.e.e.e.e.e.e.e.e.e > L.e.e.e.e.e.e.e.e.e.e.e g.7 !.e.e.e.e.e.e.e.e.e.e.e.e.e.e",
".e.e.e.e.e.e.e.e.e.e.e.e.e.e.e.e.e Q #.r.e.e.e.e.e.e.e.e.e.e.e.e.e.e.y a.e.e.e.e.e.e.e.e.e.e.e.e h a.e.e.e.e.e.e.e.e.e.e.e.e.e.e",
".e.e.e.e.e.e.e.e.e.e.e.e.e.e.e.e.e P.e.e.e.e.e.e.e.e.e.e.e.e.e.e.e.e.e.8.e.e.e.e.e.e.e.e.e.e.e.e.e P.e.e.e.e.e.e.e.e.e.e.e.e.e.e",
".e.e.e.e.e.e.e.e.e.e.e.e.e.e.e.e.e.e.e.e.e.e.e.e.e.e.e.e.e.e.e.e.e.e.e.8.e.e.e.e.e.e.e.e.e.e.e.e.e.e.e.e.e.e.e.e.e.e.e.e.e.e.e.e",
".e.e.e.e.e.e.e.e.e.e.e.e.e.e.e.e.e.e.e.e.e.e.e.e.e.e.e.e.e.e.e.e.e.e.e.J {.e.e.e.e.e.e.e.e.e.e.e.e.e.e.e.e.e.e.e.e.e.e.e.e.e.e.e",
".e.e.e.e.e.e.e.e.e.e.e.e.e.e.e.e.e.e.e.e.e.e.e.e.e.e.e.e.e.e.e.e.e.e.e.j.F.e.e.e.e.e.e.e.e.e.e.e.e.e.e.e.e.e.e.e.e.e.e.e.e.e.e.e",
".e.e.e.e.e.e.e.e.e.e.e.e.e.e.e.e.e.e.e.e.e.e.e.e.e.e.e.e.e.e.e.e.e.e.e.e.e.e.e.e.e.e.e.e.e.e.e.e.e.e.e.e.e.e.e.e.e.e.e.e.e.e.e.e"
};
