/* XPM */
static char *zon-r[] = {
/* width height ncolors chars_per_pixel */
"64 62 50 1",
/* colors */
"  c #ADADAD",
". c #ABABAB",
"X c #A9A9A9",
"o c #A7A7A7",
"O c #919191",
"+ c #8F8F8F",
"@ c #8D8D8D",
"# c #8B8B8B",
"$ c #737373",
"% c #717171",
"& c #5B5B5B",
"* c #595959",
"= c #575757",
"- c #555555",
"; c #FEFEFE",
": c #FCFCFC",
"> c #3D3D3D",
", c #3B3B3B",
"< c #393939",
"1 c #E4E4E4",
"2 c #E2E2E2",
"3 c #1F1F1F",
"4 c #C8C8C8",
"5 c #C6C6C6",
"6 c #C4C4C4",
"7 c #ACACAC",
"8 c #AAAAAA",
"9 c #A8A8A8",
"0 c #929292",
"q c #909090",
"w c #8E8E8E",
"e c #8C8C8C",
"r c #747474",
"t c #727272",
"y c #707070",
"u c #585858",
"i c #565656",
"p c #545454",
"a c #FFFFFF",
"s c #FDFDFD",
"d c #FBFBFB",
"f c #3A3A3A",
"g c #E5E5E5",
"h c #E3E3E3",
"j c #E1E1E1",
"k c #1E1E1E",
"l c #C9C9C9",
"z c #C7C7C7",
"x c #C5C5C5",
"c c #C3C3C3",
/* pixels */
"aaaaaaaaaaaaaaaaaaaaaaaaaaaaaaaaaaaaaaaaaaaaaaaaaaa;@=aaaaaaaaaa",
"aaaaaaaaaaaaaaaaaaaaaaaaaaaaaaaaaaaaaaaaaaaaaaaaaaa:uaaaaaaaaaaa",
"aaaaaaaaaaaaaaaaaaaeiaaaaaaaaaaaaaaaaaaaaaaaaaaaa;8taaaaaaaaaaaa",
"aaaaaaaaaaaaaaaaaaa;iaaaaaaaaaaaaaaaaaaaaaaaaaaaa@81aaaaaaaaaaaa",
"aaaaaaaaaaaaaaaaaaaaX.aaaaaaaaaaaaaaaaaaaaaaaaa6-4aaaaaaaaaaaaaa",
"aaaaaaaaaaaaaaaaaaaa2taaaaaaaaaaaaaaaaaaaaaaaa6qaaaaaaaaaaaaaaaa",
"aaaaaaaaaaaaaaaaaaaaa-aaaaaaaaaaaaaaaaaaaaaa2yqaaaaaaaaaaaaaaaaa",
"aaaaaaaaaaaaaaaaaaaaax+aaaaaaax4aaaaaaaaaaast1aaaaaaaaaaaaaaaaaa",
"aaaaaaaaaaaaaaaaaaaaa;thaaaaaax+aaaaaaaaaaa6qaaaaaaaaaaaaaaaaaaa",
"aaaaaa;aaaaaaaaaaaaaaaX.aaaaaaai;aaaaaaaas-qaaaaaaaaaaaaaaaaaaaa",
"aaaaaat2aaaaaaaaaaaaaa5waaaaaaas=aaaaaaaa-aaaaaaaaaaaaaaaaaaaaaa",
"aaaaaaht;aaaaaaaa@aaaaai;aaaaaa;@zaaaaaa6qaaaaaaaaaaaaaaaaaaaaaa",
"aaaaaaaathaaaaaaaw5aaaa;=aaaaaaax+aaaaasuaaaaaaaaaaaaaaaaaaaaaaa",
"aaaaaaaaht;aaaaaaawzaaaawzaaaaaaazaaaaa#uaaaaaaaa;aaaaaaaaaaaaaa",
"aaaaaaaaaathaaaaaa5waaaaap5aaaaaaaaaaaaaaaaaaaa;euaaaaaaaaaaaaaa",
"aaaaaaaaaaht;aaaaaa-waaaax=aaaaaaaaaaaaaaaaaaaci4aaaaaaaaaaaaaaa",
"aaaaaaaaaaaatXaaaaa;<.aaaa5waaaaaaaaaaaaaaaaa6ilaaaaaaaaaaaaaaaa",
"aaaaaaaaaaaah.-5aaaaXfaaaaazaaaaaaaaaaaaaaaa6qaaaaaaaaaaaaaaaaaa",
"aaaaaaaaaaaaaaawXXaaaaaaaaaa2XXXXXX8aaaaaaaaaaaaaaaaaaaaaaaaaaaa",
"aaaaaaaaaaaaaaaa..aaaaaaas--t......8--+aaaaaaaaaaaaaaaaaaaaaaaaa",
"aaaaaaaaaaaaaaaaaaaaaaa;Xtaaaaaaaaaaaaxwzaaaaaaaaaaaaaaaaaaaaaaa",
"aaaaaaaaaaaaaaaaaaaaaa;@.1aaaaaaaaaaaaa5@z;aaaaaaaaaaaaaaaaaaaaa",
"aaaaaaaaaaaaaaaaaaaaaxi4aaaaaaaaaaaaaaaaa@$haaaaaaaaaaaaaaaaaaa6",
"aaaaaaaaaaaaaaaaaaaaa-aaaaaaaaaaaaaaaaaaaa97aaaaaaaaaaaaaaa;c--q",
"aaaaaaaaax92aaaaaaaa@4aaaaaaaaaaaaaaaaaaaaaw5aaaaaaaaaaaa69%Oaaa",
"aaaaaaaaaz$f-zaaaaa:uaaaaaaaaaaaaaaaaaaaaaa:u;aaaaaa;ssd-q7gaaaa",
"aaaaaaaaaaaaaaaaaa2taaaaaaaaaaaaaaaaaaaaaaaao aaa699e==*aaaaaaaa",
"aaaaaaaaaaaaaaaaaaX.aaaaaaaaaaaaaaaaaaaaaaaa97aa6q77laaaaaaaaaaa",
"aaaaaaaaaaaaaaaaaaX.aaaaaaaaaaaaaaaaaaaaaaaaa-aaaaaaaaaaaaaaaaaa",
"aaaaaaaaaaaaaaaaaaX.aaaaaaaaaaaaaaaaaaaaaaaaa-aaaaaaaaaaaaaaaaaa",
"aaaaaaaaaaaa29aaaaX.aaaaaaaaaaaaaaaaaaaaaaaaa-aaaaaaaaaaaaaaaaaa",
"aaaaaa;sss--t7aaaaX.aaaaaaaaaaaaaaaaaaaaaaaaa-aaaaaaaaaaaaaaaaaa",
"xx9999@===aaaaaaaaX.aaaaaaaaaaaaaaaaaaaaaaaaa-aaaaaaaaaaaaaaaaaa",
"kk77774aaaaaaaaaaaX.aaaaaaaaaaaaaaaaaaaaaaaa;iaa;ssss#--qaaaaaaa",
"aaaaaaaaaaaaaaaaaa5waaaaaaaaaaaaaaaaaaaaaaaao aax====laaaaaaaaaa",
"aaaaaaaaaaaaaaaaaaai;aaaaaaaaaaaaaaaaaaaaaaao aaaaaaaaaaaaaaaaaa",
"aaaaaaaaaaaaaaaaaaa;t2aaaaaaaaaaaaaaaaaaaaacOaaaaaaaaaaaaaaaaaaa",
"aaaaaaaaaaaaaaaaaaaaht;aaaaaaaaaaaaaaaaaaacOaaaaaaaaaaaaaaaaaaaa",
"aaaaaaaaaaaaaaaa29aaa;t2aaaaaaaaaaaaaaaaacOaaaaaaaaaaaaaaaaaaaaa",
"aaaaaaaaaaaaaaset7aaaahtw;aaaaaaaaaaaaa:-Oaaaa6=s;aaaaaaaaaaaaaa",
"aaaaaaaaaaaajou4aaaaaaaa5@o9aaaaaaaajoo$aaaaaaasuwxaaaaaaaaaaaaa",
"aaaaaaaaaaa@$ aaaaaaaaaaa4 7--w::d--$  1aaaaaaaaaz+=::aaaaaaaaaa",
"aaaaaaaaaaaaaaaaaaaaaaaaaaaaaa5uu*aaaaaaaaaaj9aaaaasu*ohaaaaaaaa",
"aaaaaaaaaaaaaaaaaaaaaaaa;;aaaaaaaaaaaaaaaaaah>saaaaaa; %+:aaaaaa",
"aaaaaaaaaaaaaaaaaaaaaaaa97aaaaaaaaaaaaaaaaaaa:fhaaaaaaaax*ohaaaa",
"aaaaaaaaaaaaaaaaaaaaaaaa97aasaaa6zaaasaaawsaa;t,saaaaaaaa; raaaa",
"aaaaaaaaaaaaaaaaaaaaaaaa97as=aaa97aaa-aaas$haaaw0aaaaaaaaaaaaaaa",
"aaaaaaaaaaaaaaaaaaaaaaa:$1as=aaah%aaa-saaah%saaaaaaaaaaaaaaaaaaa",
"aaaaaaaaaaaaaaaaaaaaaaj$aaa;Oaaaa-aaa@=aaaa@<haaaaaaaaaaaaaaaaaa",
"aaaaaaaaaaaaaaaaaaaaaa97aaaaaaaaa-aaasi;aaa;tfsaaaaaaaaaaaaaaaaa",
"aaaaaaaaaaaaaaaaaaaaacOaaaaaaaaaa+xaasulaaaaa@uaaaaaaaaaaaaaaaaa",
"aaaaaaaaaaaaaaaaaaaac3aaaaaaaaaaas=aaaaaaaaaa;+5aaaaaaaaaaaaaaaa",
"aaaaaaaaaaaaaaaaaaa;iaaaaaaaaaaaas=aaaaaaaaaaaa-aaaaaaaaaaaaaaaa",
"aaaaaaaaaaaaaaaaaa;elaaaaaaaaaaaasu;aaaaaaaaaaa5waaaaaaaaaaaaaaa",
"aaaaaaaaaaaaaaaaaaX.aaaaaaaaaaaaaa97aaaaaaaaaaas$haaaaaaaaaaaaaa",
"aaaaaaaaaaaaaaaaa;%1aaaaaaaaaaaaaa97aaaaaaaaaaaa9,aaaaaaaaaaaaaa",
"aaaaaaaaaaaaaaaaacOaaaaaaaaaaaaaaa5waaaaaaaaaaaaa+xaaaaaaaaaaaaa",
"aaaaaaaaaaaaaaaa5Oaaaaaaaaaaaaaaaaa-aaaaaaaaaaaaa:&aaaaaaaaaaaaa",
"aaaaaaaaaaaaaaaaaaaaaaaaaaaaaaaaaaa-aaaaaaaaaaaaaaaaaaaaaaaaaaaa",
"aaaaaaaaaaaaaaaaaaaaaaaaaaaaaaaaaaau:aaaaaaaaaaaaaaaaaaaaaaaaaaa",
"aaaaaaaaaaaaaaaaaaaaaaaaaaaaaaaaaaas=aaaaaaaaaaaaaaaaaaaaaaaaaaa",
"aaaaaaaaaaaaaaaaaaaaaaaaaaaaaaaaaaas=aaaaaaaaaaaaaaaaaaaaaaaaaaa"
};
